%TF.GenerationSoftware,KiCad,Pcbnew,8.0.8-8.0.8-0~ubuntu22.04.1*%
%TF.CreationDate,2025-01-21T09:43:48+01:00*%
%TF.ProjectId,carte-io,63617274-652d-4696-9f2e-6b696361645f,1.0*%
%TF.SameCoordinates,Original*%
%TF.FileFunction,Other,User*%
%FSLAX46Y46*%
G04 Gerber Fmt 4.6, Leading zero omitted, Abs format (unit mm)*
G04 Created by KiCad (PCBNEW 8.0.8-8.0.8-0~ubuntu22.04.1) date 2025-01-21 09:43:48*
%MOMM*%
%LPD*%
G01*
G04 APERTURE LIST*
%ADD10C,0.050000*%
%TA.AperFunction,Profile*%
%ADD11C,0.050000*%
%TD*%
G04 APERTURE END LIST*
D10*
%TO.C,C7*%
X135597500Y-102525000D02*
X139357500Y-102525000D01*
X135597500Y-104485000D02*
X135597500Y-102525000D01*
X139357500Y-102525000D02*
X139357500Y-104485000D01*
X139357500Y-104485000D02*
X135597500Y-104485000D01*
%TO.C,C3*%
X151284000Y-87972500D02*
X153244000Y-87972500D01*
X151284000Y-91732500D02*
X151284000Y-87972500D01*
X153244000Y-87972500D02*
X153244000Y-91732500D01*
X153244000Y-91732500D02*
X151284000Y-91732500D01*
%TO.C,C2*%
X147844000Y-102928000D02*
X151604000Y-102928000D01*
X147844000Y-104888000D02*
X147844000Y-102928000D01*
X151604000Y-102928000D02*
X151604000Y-104888000D01*
X151604000Y-104888000D02*
X147844000Y-104888000D01*
%TO.C,C6*%
X135227500Y-93370000D02*
X137187500Y-93370000D01*
X135227500Y-97130000D02*
X135227500Y-93370000D01*
X137187500Y-93370000D02*
X137187500Y-97130000D01*
X137187500Y-97130000D02*
X135227500Y-97130000D01*
%TO.C,C4*%
X147844000Y-100388000D02*
X151604000Y-100388000D01*
X147844000Y-102348000D02*
X147844000Y-100388000D01*
X151604000Y-100388000D02*
X151604000Y-102348000D01*
X151604000Y-102348000D02*
X147844000Y-102348000D01*
%TO.C,C1*%
X153642500Y-87972500D02*
X155602500Y-87972500D01*
X153642500Y-91732500D02*
X153642500Y-87972500D01*
X155602500Y-87972500D02*
X155602500Y-91732500D01*
X155602500Y-91732500D02*
X153642500Y-91732500D01*
%TO.C,C5*%
X135915000Y-86967500D02*
X139675000Y-86967500D01*
X135915000Y-88927500D02*
X135915000Y-86967500D01*
X139675000Y-86967500D02*
X139675000Y-88927500D01*
X139675000Y-88927500D02*
X135915000Y-88927500D01*
%TO.C,C8*%
X135227500Y-89242500D02*
X137187500Y-89242500D01*
X135227500Y-93002500D02*
X135227500Y-89242500D01*
X137187500Y-89242500D02*
X137187500Y-93002500D01*
X137187500Y-93002500D02*
X135227500Y-93002500D01*
%TD*%
D11*
X205082000Y-55324000D02*
X205082000Y-143824000D01*
X87582000Y-55324000D02*
X205082000Y-55324000D01*
X205082000Y-143824000D02*
X87582000Y-143824000D01*
X87582000Y-143824000D02*
X87582000Y-55324000D01*
M02*
