%TF.GenerationSoftware,KiCad,Pcbnew,8.0.9-8.0.9-0~ubuntu22.04.1*%
%TF.CreationDate,2025-03-19T18:43:03+01:00*%
%TF.ProjectId,carte-io,63617274-652d-4696-9f2e-6b696361645f,1.1*%
%TF.SameCoordinates,Original*%
%TF.FileFunction,Paste,Top*%
%TF.FilePolarity,Positive*%
%FSLAX46Y46*%
G04 Gerber Fmt 4.6, Leading zero omitted, Abs format (unit mm)*
G04 Created by KiCad (PCBNEW 8.0.9-8.0.9-0~ubuntu22.04.1) date 2025-03-19 18:43:03*
%MOMM*%
%LPD*%
G01*
G04 APERTURE LIST*
G04 Aperture macros list*
%AMRoundRect*
0 Rectangle with rounded corners*
0 $1 Rounding radius*
0 $2 $3 $4 $5 $6 $7 $8 $9 X,Y pos of 4 corners*
0 Add a 4 corners polygon primitive as box body*
4,1,4,$2,$3,$4,$5,$6,$7,$8,$9,$2,$3,0*
0 Add four circle primitives for the rounded corners*
1,1,$1+$1,$2,$3*
1,1,$1+$1,$4,$5*
1,1,$1+$1,$6,$7*
1,1,$1+$1,$8,$9*
0 Add four rect primitives between the rounded corners*
20,1,$1+$1,$2,$3,$4,$5,0*
20,1,$1+$1,$4,$5,$6,$7,0*
20,1,$1+$1,$6,$7,$8,$9,0*
20,1,$1+$1,$8,$9,$2,$3,0*%
G04 Aperture macros list end*
%ADD10C,0.010000*%
%ADD11R,1.000000X3.400000*%
%ADD12R,1.500000X3.600000*%
%ADD13R,2.030000X0.760000*%
%ADD14RoundRect,0.150000X-0.587500X-0.150000X0.587500X-0.150000X0.587500X0.150000X-0.587500X0.150000X0*%
%ADD15RoundRect,0.250000X-0.350000X-0.450000X0.350000X-0.450000X0.350000X0.450000X-0.350000X0.450000X0*%
%ADD16RoundRect,0.250000X0.450000X-0.350000X0.450000X0.350000X-0.450000X0.350000X-0.450000X-0.350000X0*%
%ADD17RoundRect,0.243750X0.243750X0.456250X-0.243750X0.456250X-0.243750X-0.456250X0.243750X-0.456250X0*%
%ADD18R,1.150000X0.600000*%
%ADD19RoundRect,0.250000X0.337500X0.475000X-0.337500X0.475000X-0.337500X-0.475000X0.337500X-0.475000X0*%
%ADD20R,0.400000X1.100000*%
%ADD21RoundRect,0.250000X-0.475000X0.337500X-0.475000X-0.337500X0.475000X-0.337500X0.475000X0.337500X0*%
%ADD22RoundRect,0.150000X0.825000X0.150000X-0.825000X0.150000X-0.825000X-0.150000X0.825000X-0.150000X0*%
%ADD23R,3.400000X1.000000*%
%ADD24R,3.600000X1.500000*%
%ADD25RoundRect,0.087500X-0.225000X-0.087500X0.225000X-0.087500X0.225000X0.087500X-0.225000X0.087500X0*%
%ADD26RoundRect,0.087500X-0.087500X-0.225000X0.087500X-0.225000X0.087500X0.225000X-0.087500X0.225000X0*%
%ADD27RoundRect,0.250000X0.350000X0.450000X-0.350000X0.450000X-0.350000X-0.450000X0.350000X-0.450000X0*%
%ADD28RoundRect,0.243750X-0.243750X-0.456250X0.243750X-0.456250X0.243750X0.456250X-0.243750X0.456250X0*%
%ADD29R,1.200000X0.950000*%
%ADD30RoundRect,0.250000X-0.450000X0.350000X-0.450000X-0.350000X0.450000X-0.350000X0.450000X0.350000X0*%
%ADD31R,0.500000X0.300000*%
%ADD32R,0.600000X1.000000*%
%ADD33R,0.650000X0.350000*%
%ADD34R,1.000000X1.550000*%
%ADD35RoundRect,0.250000X-0.337500X-0.475000X0.337500X-0.475000X0.337500X0.475000X-0.337500X0.475000X0*%
%ADD36RoundRect,0.100000X0.100000X-0.637500X0.100000X0.637500X-0.100000X0.637500X-0.100000X-0.637500X0*%
%ADD37RoundRect,0.087500X-0.175000X-0.087500X0.175000X-0.087500X0.175000X0.087500X-0.175000X0.087500X0*%
%ADD38RoundRect,0.075000X-0.725000X-0.075000X0.725000X-0.075000X0.725000X0.075000X-0.725000X0.075000X0*%
%ADD39RoundRect,0.075000X-0.075000X-0.725000X0.075000X-0.725000X0.075000X0.725000X-0.075000X0.725000X0*%
%ADD40R,1.300000X1.100000*%
%ADD41RoundRect,0.375000X-0.625000X-0.375000X0.625000X-0.375000X0.625000X0.375000X-0.625000X0.375000X0*%
%ADD42RoundRect,0.500000X-0.500000X-1.400000X0.500000X-1.400000X0.500000X1.400000X-0.500000X1.400000X0*%
%ADD43R,1.200000X0.400000*%
%ADD44RoundRect,0.125000X-0.687500X-0.125000X0.687500X-0.125000X0.687500X0.125000X-0.687500X0.125000X0*%
%ADD45RoundRect,0.087500X-0.125000X-0.087500X0.125000X-0.087500X0.125000X0.087500X-0.125000X0.087500X0*%
%ADD46RoundRect,0.087500X-0.087500X-0.125000X0.087500X-0.125000X0.087500X0.125000X-0.087500X0.125000X0*%
%ADD47RoundRect,0.051250X-0.733750X-0.153750X0.733750X-0.153750X0.733750X0.153750X-0.733750X0.153750X0*%
%ADD48RoundRect,0.250000X0.475000X-0.337500X0.475000X0.337500X-0.475000X0.337500X-0.475000X-0.337500X0*%
%ADD49R,0.375000X0.350000*%
%ADD50R,0.350000X0.375000*%
%ADD51RoundRect,0.150000X-0.425000X0.150000X-0.425000X-0.150000X0.425000X-0.150000X0.425000X0.150000X0*%
%ADD52RoundRect,0.075000X-0.500000X0.075000X-0.500000X-0.075000X0.500000X-0.075000X0.500000X0.075000X0*%
%ADD53O,2.100000X1.000000*%
%ADD54O,1.800000X1.000000*%
%TA.AperFunction,Profile*%
%ADD55C,0.050000*%
%TD*%
G04 APERTURE END LIST*
D10*
%TO.C,U11*%
X153148000Y-116840000D02*
X151898000Y-116840000D01*
X151898000Y-116340000D01*
X153148000Y-116340000D01*
X153148000Y-116840000D01*
G36*
X153148000Y-116840000D02*
G01*
X151898000Y-116840000D01*
X151898000Y-116340000D01*
X153148000Y-116340000D01*
X153148000Y-116840000D01*
G37*
X153148000Y-117490000D02*
X151898000Y-117490000D01*
X151898000Y-117190000D01*
X153148000Y-117190000D01*
X153148000Y-117490000D01*
G36*
X153148000Y-117490000D02*
G01*
X151898000Y-117490000D01*
X151898000Y-117190000D01*
X153148000Y-117190000D01*
X153148000Y-117490000D01*
G37*
X153148000Y-118140000D02*
X151898000Y-118140000D01*
X151898000Y-117840000D01*
X153148000Y-117840000D01*
X153148000Y-118140000D01*
G36*
X153148000Y-118140000D02*
G01*
X151898000Y-118140000D01*
X151898000Y-117840000D01*
X153148000Y-117840000D01*
X153148000Y-118140000D01*
G37*
X153148000Y-118790000D02*
X151898000Y-118790000D01*
X151898000Y-118490000D01*
X153148000Y-118490000D01*
X153148000Y-118790000D01*
G36*
X153148000Y-118790000D02*
G01*
X151898000Y-118790000D01*
X151898000Y-118490000D01*
X153148000Y-118490000D01*
X153148000Y-118790000D01*
G37*
X153148000Y-119440000D02*
X151898000Y-119440000D01*
X151898000Y-119140000D01*
X153148000Y-119140000D01*
X153148000Y-119440000D01*
G36*
X153148000Y-119440000D02*
G01*
X151898000Y-119440000D01*
X151898000Y-119140000D01*
X153148000Y-119140000D01*
X153148000Y-119440000D01*
G37*
X153148000Y-120090000D02*
X151898000Y-120090000D01*
X151898000Y-119790000D01*
X153148000Y-119790000D01*
X153148000Y-120090000D01*
G36*
X153148000Y-120090000D02*
G01*
X151898000Y-120090000D01*
X151898000Y-119790000D01*
X153148000Y-119790000D01*
X153148000Y-120090000D01*
G37*
X153148000Y-120940000D02*
X151898000Y-120940000D01*
X151898000Y-120440000D01*
X153148000Y-120440000D01*
X153148000Y-120940000D01*
G36*
X153148000Y-120940000D02*
G01*
X151898000Y-120940000D01*
X151898000Y-120440000D01*
X153148000Y-120440000D01*
X153148000Y-120940000D01*
G37*
X158998000Y-116840000D02*
X157748000Y-116840000D01*
X157748000Y-116340000D01*
X158998000Y-116340000D01*
X158998000Y-116840000D01*
G36*
X158998000Y-116840000D02*
G01*
X157748000Y-116840000D01*
X157748000Y-116340000D01*
X158998000Y-116340000D01*
X158998000Y-116840000D01*
G37*
X158998000Y-117490000D02*
X157748000Y-117490000D01*
X157748000Y-117190000D01*
X158998000Y-117190000D01*
X158998000Y-117490000D01*
G36*
X158998000Y-117490000D02*
G01*
X157748000Y-117490000D01*
X157748000Y-117190000D01*
X158998000Y-117190000D01*
X158998000Y-117490000D01*
G37*
X158998000Y-118140000D02*
X157748000Y-118140000D01*
X157748000Y-117840000D01*
X158998000Y-117840000D01*
X158998000Y-118140000D01*
G36*
X158998000Y-118140000D02*
G01*
X157748000Y-118140000D01*
X157748000Y-117840000D01*
X158998000Y-117840000D01*
X158998000Y-118140000D01*
G37*
X158998000Y-118790000D02*
X157748000Y-118790000D01*
X157748000Y-118490000D01*
X158998000Y-118490000D01*
X158998000Y-118790000D01*
G36*
X158998000Y-118790000D02*
G01*
X157748000Y-118790000D01*
X157748000Y-118490000D01*
X158998000Y-118490000D01*
X158998000Y-118790000D01*
G37*
X158998000Y-119440000D02*
X157748000Y-119440000D01*
X157748000Y-119140000D01*
X158998000Y-119140000D01*
X158998000Y-119440000D01*
G36*
X158998000Y-119440000D02*
G01*
X157748000Y-119440000D01*
X157748000Y-119140000D01*
X158998000Y-119140000D01*
X158998000Y-119440000D01*
G37*
X158998000Y-120090000D02*
X157748000Y-120090000D01*
X157748000Y-119790000D01*
X158998000Y-119790000D01*
X158998000Y-120090000D01*
G36*
X158998000Y-120090000D02*
G01*
X157748000Y-120090000D01*
X157748000Y-119790000D01*
X158998000Y-119790000D01*
X158998000Y-120090000D01*
G37*
X158998000Y-120940000D02*
X157748000Y-120940000D01*
X157748000Y-120440000D01*
X158998000Y-120440000D01*
X158998000Y-120940000D01*
G36*
X158998000Y-120940000D02*
G01*
X157748000Y-120940000D01*
X157748000Y-120440000D01*
X158998000Y-120440000D01*
X158998000Y-120940000D01*
G37*
%TO.C,U6*%
X140702000Y-116818000D02*
X139452000Y-116818000D01*
X139452000Y-116318000D01*
X140702000Y-116318000D01*
X140702000Y-116818000D01*
G36*
X140702000Y-116818000D02*
G01*
X139452000Y-116818000D01*
X139452000Y-116318000D01*
X140702000Y-116318000D01*
X140702000Y-116818000D01*
G37*
X140702000Y-117468000D02*
X139452000Y-117468000D01*
X139452000Y-117168000D01*
X140702000Y-117168000D01*
X140702000Y-117468000D01*
G36*
X140702000Y-117468000D02*
G01*
X139452000Y-117468000D01*
X139452000Y-117168000D01*
X140702000Y-117168000D01*
X140702000Y-117468000D01*
G37*
X140702000Y-118118000D02*
X139452000Y-118118000D01*
X139452000Y-117818000D01*
X140702000Y-117818000D01*
X140702000Y-118118000D01*
G36*
X140702000Y-118118000D02*
G01*
X139452000Y-118118000D01*
X139452000Y-117818000D01*
X140702000Y-117818000D01*
X140702000Y-118118000D01*
G37*
X140702000Y-118768000D02*
X139452000Y-118768000D01*
X139452000Y-118468000D01*
X140702000Y-118468000D01*
X140702000Y-118768000D01*
G36*
X140702000Y-118768000D02*
G01*
X139452000Y-118768000D01*
X139452000Y-118468000D01*
X140702000Y-118468000D01*
X140702000Y-118768000D01*
G37*
X140702000Y-119418000D02*
X139452000Y-119418000D01*
X139452000Y-119118000D01*
X140702000Y-119118000D01*
X140702000Y-119418000D01*
G36*
X140702000Y-119418000D02*
G01*
X139452000Y-119418000D01*
X139452000Y-119118000D01*
X140702000Y-119118000D01*
X140702000Y-119418000D01*
G37*
X140702000Y-120068000D02*
X139452000Y-120068000D01*
X139452000Y-119768000D01*
X140702000Y-119768000D01*
X140702000Y-120068000D01*
G36*
X140702000Y-120068000D02*
G01*
X139452000Y-120068000D01*
X139452000Y-119768000D01*
X140702000Y-119768000D01*
X140702000Y-120068000D01*
G37*
X140702000Y-120918000D02*
X139452000Y-120918000D01*
X139452000Y-120418000D01*
X140702000Y-120418000D01*
X140702000Y-120918000D01*
G36*
X140702000Y-120918000D02*
G01*
X139452000Y-120918000D01*
X139452000Y-120418000D01*
X140702000Y-120418000D01*
X140702000Y-120918000D01*
G37*
X146552000Y-116818000D02*
X145302000Y-116818000D01*
X145302000Y-116318000D01*
X146552000Y-116318000D01*
X146552000Y-116818000D01*
G36*
X146552000Y-116818000D02*
G01*
X145302000Y-116818000D01*
X145302000Y-116318000D01*
X146552000Y-116318000D01*
X146552000Y-116818000D01*
G37*
X146552000Y-117468000D02*
X145302000Y-117468000D01*
X145302000Y-117168000D01*
X146552000Y-117168000D01*
X146552000Y-117468000D01*
G36*
X146552000Y-117468000D02*
G01*
X145302000Y-117468000D01*
X145302000Y-117168000D01*
X146552000Y-117168000D01*
X146552000Y-117468000D01*
G37*
X146552000Y-118118000D02*
X145302000Y-118118000D01*
X145302000Y-117818000D01*
X146552000Y-117818000D01*
X146552000Y-118118000D01*
G36*
X146552000Y-118118000D02*
G01*
X145302000Y-118118000D01*
X145302000Y-117818000D01*
X146552000Y-117818000D01*
X146552000Y-118118000D01*
G37*
X146552000Y-118768000D02*
X145302000Y-118768000D01*
X145302000Y-118468000D01*
X146552000Y-118468000D01*
X146552000Y-118768000D01*
G36*
X146552000Y-118768000D02*
G01*
X145302000Y-118768000D01*
X145302000Y-118468000D01*
X146552000Y-118468000D01*
X146552000Y-118768000D01*
G37*
X146552000Y-119418000D02*
X145302000Y-119418000D01*
X145302000Y-119118000D01*
X146552000Y-119118000D01*
X146552000Y-119418000D01*
G36*
X146552000Y-119418000D02*
G01*
X145302000Y-119418000D01*
X145302000Y-119118000D01*
X146552000Y-119118000D01*
X146552000Y-119418000D01*
G37*
X146552000Y-120068000D02*
X145302000Y-120068000D01*
X145302000Y-119768000D01*
X146552000Y-119768000D01*
X146552000Y-120068000D01*
G36*
X146552000Y-120068000D02*
G01*
X145302000Y-120068000D01*
X145302000Y-119768000D01*
X146552000Y-119768000D01*
X146552000Y-120068000D01*
G37*
X146552000Y-120918000D02*
X145302000Y-120918000D01*
X145302000Y-120418000D01*
X146552000Y-120418000D01*
X146552000Y-120918000D01*
G36*
X146552000Y-120918000D02*
G01*
X145302000Y-120918000D01*
X145302000Y-120418000D01*
X146552000Y-120418000D01*
X146552000Y-120918000D01*
G37*
%TD*%
D11*
%TO.C,J22*%
X182372000Y-133866500D03*
X184372000Y-133866500D03*
X186372000Y-133866500D03*
X188372000Y-133866500D03*
D12*
X180072000Y-141366500D03*
X190672000Y-141366500D03*
%TD*%
D13*
%TO.C,J3*%
X94244500Y-70534000D03*
X97294500Y-70534000D03*
X94244500Y-71804000D03*
X97294500Y-71804000D03*
X94244500Y-73074000D03*
X97294500Y-73074000D03*
X94244500Y-74344000D03*
X97294500Y-74344000D03*
X94244500Y-75614000D03*
X97294500Y-75614000D03*
%TD*%
D14*
%TO.C,D3*%
X184752000Y-107714000D03*
X184752000Y-109614000D03*
X186627000Y-108664000D03*
%TD*%
D15*
%TO.C,R4*%
X98162000Y-95329000D03*
X100162000Y-95329000D03*
%TD*%
D11*
%TO.C,J6*%
X154432000Y-133866500D03*
X156432000Y-133866500D03*
X158432000Y-133866500D03*
X160432000Y-133866500D03*
D12*
X152132000Y-141366500D03*
X162732000Y-141366500D03*
%TD*%
D16*
%TO.C,R66*%
X158384500Y-72834000D03*
X158384500Y-70834000D03*
%TD*%
D15*
%TO.C,R77*%
X133207000Y-81041500D03*
X135207000Y-81041500D03*
%TD*%
D17*
%TO.C,D1*%
X118325000Y-93303500D03*
X116450000Y-93303500D03*
%TD*%
D18*
%TO.C,U10*%
X119120500Y-128165000D03*
X119120500Y-129115000D03*
X119120500Y-130065000D03*
X121720500Y-130065000D03*
X121720500Y-129115000D03*
X121720500Y-128165000D03*
%TD*%
D19*
%TO.C,C12*%
X130674000Y-108226000D03*
X128599000Y-108226000D03*
%TD*%
D20*
%TO.C,U20*%
X175579500Y-89971500D03*
X176229500Y-89971500D03*
X176879500Y-89971500D03*
X177529500Y-89971500D03*
X177529500Y-85671500D03*
X176879500Y-85671500D03*
X176229500Y-85671500D03*
X175579500Y-85671500D03*
%TD*%
D21*
%TO.C,C36*%
X141088000Y-78486500D03*
X141088000Y-80561500D03*
%TD*%
D22*
%TO.C,Q1*%
X106249500Y-123904000D03*
X106249500Y-122634000D03*
X106249500Y-121364000D03*
X106249500Y-120094000D03*
X101299500Y-120094000D03*
X101299500Y-121364000D03*
X101299500Y-122634000D03*
X101299500Y-123904000D03*
%TD*%
D23*
%TO.C,J29*%
X195017000Y-108489000D03*
X195017000Y-106489000D03*
X195017000Y-104489000D03*
X195017000Y-102489000D03*
D24*
X202517000Y-110789000D03*
X202517000Y-100189000D03*
%TD*%
D25*
%TO.C,U12*%
X164500500Y-95835500D03*
X164500500Y-96335500D03*
X164500500Y-96835500D03*
X164500500Y-97335500D03*
D26*
X165163000Y-97498000D03*
X165663000Y-97498000D03*
X166163000Y-97498000D03*
D25*
X166825500Y-97335500D03*
X166825500Y-96835500D03*
X166825500Y-96335500D03*
X166825500Y-95835500D03*
D26*
X166163000Y-95673000D03*
X165663000Y-95673000D03*
X165163000Y-95673000D03*
%TD*%
D15*
%TO.C,R8*%
X112148000Y-95843500D03*
X114148000Y-95843500D03*
%TD*%
D27*
%TO.C,R17*%
X131040000Y-131246500D03*
X129040000Y-131246500D03*
%TD*%
D19*
%TO.C,C45*%
X179742000Y-119776500D03*
X177667000Y-119776500D03*
%TD*%
D16*
%TO.C,R19*%
X154257000Y-129349000D03*
X154257000Y-127349000D03*
%TD*%
D28*
%TO.C,D6*%
X90454500Y-108791000D03*
X92329500Y-108791000D03*
%TD*%
D27*
%TO.C,R24*%
X112696500Y-128397000D03*
X110696500Y-128397000D03*
%TD*%
D29*
%TO.C,FB1*%
X98028000Y-93303500D03*
X100328000Y-93303500D03*
%TD*%
D30*
%TO.C,R55*%
X168656000Y-71158000D03*
X168656000Y-73158000D03*
%TD*%
D21*
%TO.C,C32*%
X161787000Y-90149000D03*
X161787000Y-92224000D03*
%TD*%
D27*
%TO.C,R16*%
X126976000Y-128452500D03*
X124976000Y-128452500D03*
%TD*%
D31*
%TO.C,U19*%
X98442000Y-83346500D03*
X98442000Y-82546500D03*
X97042000Y-82546500D03*
X97042000Y-83346500D03*
%TD*%
D16*
%TO.C,R12*%
X143462000Y-129349000D03*
X143462000Y-127349000D03*
%TD*%
D15*
%TO.C,R46*%
X185642000Y-92950500D03*
X187642000Y-92950500D03*
%TD*%
D16*
%TO.C,R64*%
X145367000Y-72834000D03*
X145367000Y-70834000D03*
%TD*%
D21*
%TO.C,C38*%
X188078000Y-71882500D03*
X188078000Y-73957500D03*
%TD*%
D16*
%TO.C,R57*%
X121237000Y-72834000D03*
X121237000Y-70834000D03*
%TD*%
D23*
%TO.C,J2*%
X97622000Y-121221500D03*
X97622000Y-123221500D03*
X97622000Y-125221500D03*
X97622000Y-127221500D03*
D24*
X90122000Y-118921500D03*
X90122000Y-129521500D03*
%TD*%
D32*
%TO.C,U33*%
X184014000Y-72412000D03*
X184014000Y-73612000D03*
X184789000Y-72412000D03*
X184789000Y-73612000D03*
D33*
X182851500Y-72037000D03*
X182851500Y-72687000D03*
X182851500Y-73337000D03*
X182851500Y-73987000D03*
X185951500Y-73987000D03*
X185951500Y-73337000D03*
X185951500Y-72687000D03*
X185951500Y-72037000D03*
%TD*%
D23*
%TO.C,J27*%
X195017000Y-93249000D03*
X195017000Y-91249000D03*
X195017000Y-89249000D03*
X195017000Y-87249000D03*
D24*
X202517000Y-95549000D03*
X202517000Y-84949000D03*
%TD*%
D11*
%TO.C,J14*%
X147029500Y-65364000D03*
X145029500Y-65364000D03*
X143029500Y-65364000D03*
X141029500Y-65364000D03*
D12*
X149329500Y-57864000D03*
X138729500Y-57864000D03*
%TD*%
D15*
%TO.C,R31*%
X185642000Y-88839500D03*
X187642000Y-88839500D03*
%TD*%
D11*
%TO.C,J4*%
X141414500Y-133866500D03*
X143414500Y-133866500D03*
X145414500Y-133866500D03*
X147414500Y-133866500D03*
D12*
X139114500Y-141366500D03*
X149714500Y-141366500D03*
%TD*%
D18*
%TO.C,U21*%
X183299500Y-88617500D03*
X183299500Y-87667500D03*
X183299500Y-86717500D03*
X180699500Y-86717500D03*
X180699500Y-87667500D03*
X180699500Y-88617500D03*
%TD*%
%TO.C,U27*%
X183257500Y-95326500D03*
X183257500Y-94376500D03*
X183257500Y-93426500D03*
X180657500Y-93426500D03*
X180657500Y-94376500D03*
X180657500Y-95326500D03*
%TD*%
D11*
%TO.C,J20*%
X169354500Y-133866500D03*
X171354500Y-133866500D03*
X173354500Y-133866500D03*
X175354500Y-133866500D03*
D12*
X167054500Y-141366500D03*
X177654500Y-141366500D03*
%TD*%
D34*
%TO.C,SW1*%
X203502000Y-117786500D03*
X203502000Y-123036500D03*
X201802000Y-117786500D03*
X201802000Y-123036500D03*
%TD*%
D35*
%TO.C,C16*%
X105782000Y-89239500D03*
X107857000Y-89239500D03*
%TD*%
D23*
%TO.C,J18*%
X195017000Y-79914000D03*
X195017000Y-77914000D03*
X195017000Y-75914000D03*
X195017000Y-73914000D03*
D24*
X202517000Y-82214000D03*
X202517000Y-71614000D03*
%TD*%
D36*
%TO.C,U15*%
X121907000Y-82386500D03*
X122557000Y-82386500D03*
X123207000Y-82386500D03*
X123857000Y-82386500D03*
X124507000Y-82386500D03*
X125157000Y-82386500D03*
X125807000Y-82386500D03*
X126457000Y-82386500D03*
X127107000Y-82386500D03*
X127757000Y-82386500D03*
X127757000Y-76661500D03*
X127107000Y-76661500D03*
X126457000Y-76661500D03*
X125807000Y-76661500D03*
X125157000Y-76661500D03*
X124507000Y-76661500D03*
X123857000Y-76661500D03*
X123207000Y-76661500D03*
X122557000Y-76661500D03*
X121907000Y-76661500D03*
%TD*%
D37*
%TO.C,U18*%
X89359500Y-82196500D03*
X89359500Y-82696500D03*
X89359500Y-83196500D03*
X89359500Y-83696500D03*
X90884500Y-83696500D03*
X90884500Y-83196500D03*
X90884500Y-82696500D03*
X90884500Y-82196500D03*
%TD*%
D28*
%TO.C,D7*%
X90454500Y-105790500D03*
X92329500Y-105790500D03*
%TD*%
D19*
%TO.C,C11*%
X130695500Y-104924000D03*
X128620500Y-104924000D03*
%TD*%
D28*
%TO.C,D4*%
X90454500Y-111839000D03*
X92329500Y-111839000D03*
%TD*%
D27*
%TO.C,R1*%
X140580000Y-84604000D03*
X138580000Y-84604000D03*
%TD*%
D35*
%TO.C,C18*%
X102734000Y-106956000D03*
X104809000Y-106956000D03*
%TD*%
D15*
%TO.C,R6*%
X112164000Y-100923500D03*
X114164000Y-100923500D03*
%TD*%
D16*
%TO.C,R30*%
X165089000Y-86350000D03*
X165089000Y-84350000D03*
%TD*%
D38*
%TO.C,U1*%
X136152000Y-90018000D03*
X136152000Y-90518000D03*
X136152000Y-91018000D03*
X136152000Y-91518000D03*
X136152000Y-92018000D03*
X136152000Y-92518000D03*
X136152000Y-93018000D03*
X136152000Y-93518000D03*
X136152000Y-94018000D03*
X136152000Y-94518000D03*
X136152000Y-95018000D03*
X136152000Y-95518000D03*
X136152000Y-96018000D03*
X136152000Y-96518000D03*
X136152000Y-97018000D03*
X136152000Y-97518000D03*
X136152000Y-98018000D03*
X136152000Y-98518000D03*
X136152000Y-99018000D03*
X136152000Y-99518000D03*
X136152000Y-100018000D03*
X136152000Y-100518000D03*
X136152000Y-101018000D03*
X136152000Y-101518000D03*
X136152000Y-102018000D03*
D39*
X137827000Y-103693000D03*
X138327000Y-103693000D03*
X138827000Y-103693000D03*
X139327000Y-103693000D03*
X139827000Y-103693000D03*
X140327000Y-103693000D03*
X140827000Y-103693000D03*
X141327000Y-103693000D03*
X141827000Y-103693000D03*
X142327000Y-103693000D03*
X142827000Y-103693000D03*
X143327000Y-103693000D03*
X143827000Y-103693000D03*
X144327000Y-103693000D03*
X144827000Y-103693000D03*
X145327000Y-103693000D03*
X145827000Y-103693000D03*
X146327000Y-103693000D03*
X146827000Y-103693000D03*
X147327000Y-103693000D03*
X147827000Y-103693000D03*
X148327000Y-103693000D03*
X148827000Y-103693000D03*
X149327000Y-103693000D03*
X149827000Y-103693000D03*
D38*
X151502000Y-102018000D03*
X151502000Y-101518000D03*
X151502000Y-101018000D03*
X151502000Y-100518000D03*
X151502000Y-100018000D03*
X151502000Y-99518000D03*
X151502000Y-99018000D03*
X151502000Y-98518000D03*
X151502000Y-98018000D03*
X151502000Y-97518000D03*
X151502000Y-97018000D03*
X151502000Y-96518000D03*
X151502000Y-96018000D03*
X151502000Y-95518000D03*
X151502000Y-95018000D03*
X151502000Y-94518000D03*
X151502000Y-94018000D03*
X151502000Y-93518000D03*
X151502000Y-93018000D03*
X151502000Y-92518000D03*
X151502000Y-92018000D03*
X151502000Y-91518000D03*
X151502000Y-91018000D03*
X151502000Y-90518000D03*
X151502000Y-90018000D03*
D39*
X149827000Y-88343000D03*
X149327000Y-88343000D03*
X148827000Y-88343000D03*
X148327000Y-88343000D03*
X147827000Y-88343000D03*
X147327000Y-88343000D03*
X146827000Y-88343000D03*
X146327000Y-88343000D03*
X145827000Y-88343000D03*
X145327000Y-88343000D03*
X144827000Y-88343000D03*
X144327000Y-88343000D03*
X143827000Y-88343000D03*
X143327000Y-88343000D03*
X142827000Y-88343000D03*
X142327000Y-88343000D03*
X141827000Y-88343000D03*
X141327000Y-88343000D03*
X140827000Y-88343000D03*
X140327000Y-88343000D03*
X139827000Y-88343000D03*
X139327000Y-88343000D03*
X138827000Y-88343000D03*
X138327000Y-88343000D03*
X137827000Y-88343000D03*
%TD*%
D15*
%TO.C,R74*%
X170719500Y-68659000D03*
X172719500Y-68659000D03*
%TD*%
D20*
%TO.C,U28*%
X175579500Y-96526500D03*
X176229500Y-96526500D03*
X176879500Y-96526500D03*
X177529500Y-96526500D03*
X177529500Y-92226500D03*
X176879500Y-92226500D03*
X176229500Y-92226500D03*
X175579500Y-92226500D03*
%TD*%
D16*
%TO.C,R11*%
X141239500Y-129349000D03*
X141239500Y-127349000D03*
%TD*%
D35*
%TO.C,C20*%
X113402000Y-106956000D03*
X115477000Y-106956000D03*
%TD*%
D27*
%TO.C,R27*%
X96837000Y-108791000D03*
X94837000Y-108791000D03*
%TD*%
D40*
%TO.C,X1*%
X129272000Y-94256000D03*
X127172000Y-94256000D03*
X127172000Y-95906000D03*
X129272000Y-95906000D03*
%TD*%
D18*
%TO.C,U29*%
X183173000Y-81856500D03*
X183173000Y-80906500D03*
X183173000Y-79956500D03*
X180573000Y-79956500D03*
X180573000Y-80906500D03*
X180573000Y-81856500D03*
%TD*%
D15*
%TO.C,R3*%
X98162000Y-98891500D03*
X100162000Y-98891500D03*
%TD*%
D35*
%TO.C,C13*%
X98162000Y-101939500D03*
X100237000Y-101939500D03*
%TD*%
D21*
%TO.C,C35*%
X118990000Y-78486500D03*
X118990000Y-80561500D03*
%TD*%
D11*
%TO.C,J10*%
X121062000Y-65364000D03*
X119062000Y-65364000D03*
X117062000Y-65364000D03*
X115062000Y-65364000D03*
D12*
X123362000Y-57864000D03*
X112762000Y-57864000D03*
%TD*%
D20*
%TO.C,U26*%
X175507000Y-83086500D03*
X176157000Y-83086500D03*
X176807000Y-83086500D03*
X177457000Y-83086500D03*
X177457000Y-78786500D03*
X176807000Y-78786500D03*
X176157000Y-78786500D03*
X175507000Y-78786500D03*
%TD*%
D16*
%TO.C,R59*%
X134254500Y-72834000D03*
X134254500Y-70834000D03*
%TD*%
D35*
%TO.C,C21*%
X117974000Y-106956000D03*
X120049000Y-106956000D03*
%TD*%
D41*
%TO.C,U3*%
X102734000Y-110258000D03*
X102734000Y-112558000D03*
D42*
X109034000Y-112558000D03*
D41*
X102734000Y-114858000D03*
%TD*%
D11*
%TO.C,J25*%
X189324500Y-65364000D03*
X187324500Y-65364000D03*
X185324500Y-65364000D03*
X183324500Y-65364000D03*
D12*
X191624500Y-57864000D03*
X181024500Y-57864000D03*
%TD*%
D15*
%TO.C,R76*%
X133207000Y-78091500D03*
X135207000Y-78091500D03*
%TD*%
D35*
%TO.C,C10*%
X133468000Y-87398000D03*
X135543000Y-87398000D03*
%TD*%
D18*
%TO.C,U24*%
X177404500Y-122319000D03*
X177404500Y-123269000D03*
X177404500Y-124219000D03*
X180004500Y-124219000D03*
X180004500Y-123269000D03*
X180004500Y-122319000D03*
%TD*%
D21*
%TO.C,C44*%
X172672000Y-93339000D03*
X172672000Y-95414000D03*
%TD*%
D27*
%TO.C,R15*%
X126976000Y-131246500D03*
X124976000Y-131246500D03*
%TD*%
D21*
%TO.C,C31*%
X161787000Y-95504500D03*
X161787000Y-97579500D03*
%TD*%
D30*
%TO.C,R54*%
X165726000Y-71158000D03*
X165726000Y-73158000D03*
%TD*%
D27*
%TO.C,R23*%
X112696500Y-131191000D03*
X110696500Y-131191000D03*
%TD*%
%TO.C,R5*%
X114148000Y-98383500D03*
X112148000Y-98383500D03*
%TD*%
D15*
%TO.C,R45*%
X185642000Y-95900500D03*
X187642000Y-95900500D03*
%TD*%
D16*
%TO.C,R29*%
X167272500Y-86350000D03*
X167272500Y-84350000D03*
%TD*%
D15*
%TO.C,R34*%
X185642000Y-79644500D03*
X187642000Y-79644500D03*
%TD*%
D43*
%TO.C,U2*%
X104138000Y-93430500D03*
X104138000Y-94065500D03*
X104138000Y-94700500D03*
X104138000Y-95335500D03*
X104138000Y-95970500D03*
X104138000Y-96605500D03*
X104138000Y-97240500D03*
X104138000Y-97875500D03*
X104138000Y-98510500D03*
X104138000Y-99145500D03*
X109338000Y-99145500D03*
X109338000Y-98510500D03*
X109338000Y-97875500D03*
X109338000Y-97240500D03*
X109338000Y-96605500D03*
X109338000Y-95970500D03*
X109338000Y-95335500D03*
X109338000Y-94700500D03*
X109338000Y-94065500D03*
X109338000Y-93430500D03*
%TD*%
D35*
%TO.C,C30*%
X164649500Y-104775000D03*
X166724500Y-104775000D03*
%TD*%
%TO.C,C14*%
X116704000Y-100923500D03*
X118779000Y-100923500D03*
%TD*%
D15*
%TO.C,R2*%
X94837000Y-77549000D03*
X96837000Y-77549000D03*
%TD*%
D27*
%TO.C,R9*%
X96837000Y-111839000D03*
X94837000Y-111839000D03*
%TD*%
D44*
%TO.C,U35*%
X172249500Y-71254000D03*
X172249500Y-71904000D03*
X172249500Y-72554000D03*
X172249500Y-73204000D03*
X176474500Y-73204000D03*
X176474500Y-72554000D03*
X176474500Y-71904000D03*
X176474500Y-71254000D03*
%TD*%
D16*
%TO.C,R56*%
X119332000Y-72834000D03*
X119332000Y-70834000D03*
%TD*%
D45*
%TO.C,U14*%
X164826500Y-91211500D03*
X164826500Y-91711500D03*
D46*
X165089000Y-92224000D03*
X165589000Y-92224000D03*
X166089000Y-92224000D03*
D45*
X166351500Y-91711500D03*
X166351500Y-91211500D03*
D46*
X166089000Y-90699000D03*
X165589000Y-90699000D03*
X165089000Y-90699000D03*
%TD*%
D21*
%TO.C,C43*%
X172672000Y-79686500D03*
X172672000Y-81761500D03*
%TD*%
%TO.C,C42*%
X172672000Y-86989000D03*
X172672000Y-89064000D03*
%TD*%
D16*
%TO.C,R65*%
X147272000Y-72834000D03*
X147272000Y-70834000D03*
%TD*%
D28*
%TO.C,D5*%
X90454500Y-114887000D03*
X92329500Y-114887000D03*
%TD*%
D11*
%TO.C,J12*%
X134079500Y-65364000D03*
X132079500Y-65364000D03*
X130079500Y-65364000D03*
X128079500Y-65364000D03*
D12*
X136379500Y-57864000D03*
X125779500Y-57864000D03*
%TD*%
D47*
%TO.C,U9*%
X113652500Y-120605000D03*
X113652500Y-121255000D03*
X113652500Y-121905000D03*
X113652500Y-122555000D03*
X113652500Y-123205000D03*
X113652500Y-123855000D03*
X113652500Y-124505000D03*
X119392500Y-124505000D03*
X119392500Y-123855000D03*
X119392500Y-123205000D03*
X119392500Y-122555000D03*
X119392500Y-121905000D03*
X119392500Y-121255000D03*
X119392500Y-120605000D03*
%TD*%
D48*
%TO.C,C1*%
X132032000Y-94461500D03*
X132032000Y-92386500D03*
%TD*%
D11*
%TO.C,J23*%
X174719500Y-65364000D03*
X172719500Y-65364000D03*
X170719500Y-65364000D03*
X168719500Y-65364000D03*
D12*
X177019500Y-57864000D03*
X166419500Y-57864000D03*
%TD*%
D18*
%TO.C,U8*%
X154296000Y-122958000D03*
X154296000Y-123908000D03*
X154296000Y-124858000D03*
X156896000Y-124858000D03*
X156896000Y-123908000D03*
X156896000Y-122958000D03*
%TD*%
%TO.C,U4*%
X141536000Y-122958000D03*
X141536000Y-123908000D03*
X141536000Y-124858000D03*
X144136000Y-124858000D03*
X144136000Y-123908000D03*
X144136000Y-122958000D03*
%TD*%
D11*
%TO.C,J16*%
X160094500Y-65364000D03*
X158094500Y-65364000D03*
X156094500Y-65364000D03*
X154094500Y-65364000D03*
D12*
X162394500Y-57864000D03*
X151794500Y-57864000D03*
%TD*%
D27*
%TO.C,R73*%
X176847000Y-68659000D03*
X174847000Y-68659000D03*
%TD*%
D15*
%TO.C,R32*%
X185642000Y-86375500D03*
X187642000Y-86375500D03*
%TD*%
D16*
%TO.C,R20*%
X156479500Y-129349000D03*
X156479500Y-127349000D03*
%TD*%
D19*
%TO.C,C34*%
X91477000Y-86439000D03*
X89402000Y-86439000D03*
%TD*%
D34*
%TO.C,SW2*%
X203502000Y-126041500D03*
X203502000Y-131291500D03*
X201802000Y-126041500D03*
X201802000Y-131291500D03*
%TD*%
D36*
%TO.C,U17*%
X144005000Y-82386500D03*
X144655000Y-82386500D03*
X145305000Y-82386500D03*
X145955000Y-82386500D03*
X146605000Y-82386500D03*
X147255000Y-82386500D03*
X147905000Y-82386500D03*
X148555000Y-82386500D03*
X149205000Y-82386500D03*
X149855000Y-82386500D03*
X149855000Y-76661500D03*
X149205000Y-76661500D03*
X148555000Y-76661500D03*
X147905000Y-76661500D03*
X147255000Y-76661500D03*
X146605000Y-76661500D03*
X145955000Y-76661500D03*
X145305000Y-76661500D03*
X144655000Y-76661500D03*
X144005000Y-76661500D03*
%TD*%
D15*
%TO.C,R35*%
X187277000Y-68659000D03*
X189277000Y-68659000D03*
%TD*%
D27*
%TO.C,R18*%
X131040000Y-128452500D03*
X129040000Y-128452500D03*
%TD*%
D15*
%TO.C,R7*%
X112148000Y-93303500D03*
X114148000Y-93303500D03*
%TD*%
D30*
%TO.C,R43*%
X182197000Y-127349000D03*
X182197000Y-129349000D03*
%TD*%
D48*
%TO.C,C37*%
X180712000Y-73957500D03*
X180712000Y-71882500D03*
%TD*%
D35*
%TO.C,C15*%
X116704000Y-98383500D03*
X118779000Y-98383500D03*
%TD*%
D16*
%TO.C,R67*%
X160289500Y-72834000D03*
X160289500Y-70834000D03*
%TD*%
D18*
%TO.C,U7*%
X133206000Y-128474500D03*
X133206000Y-129424500D03*
X133206000Y-130374500D03*
X135806000Y-130374500D03*
X135806000Y-129424500D03*
X135806000Y-128474500D03*
%TD*%
D35*
%TO.C,C9*%
X133446500Y-84604000D03*
X135521500Y-84604000D03*
%TD*%
D27*
%TO.C,R26*%
X116760500Y-128397000D03*
X114760500Y-128397000D03*
%TD*%
D16*
%TO.C,R58*%
X132349500Y-72834000D03*
X132349500Y-70834000D03*
%TD*%
D47*
%TO.C,U5*%
X128186000Y-120660500D03*
X128186000Y-121310500D03*
X128186000Y-121960500D03*
X128186000Y-122610500D03*
X128186000Y-123260500D03*
X128186000Y-123910500D03*
X128186000Y-124560500D03*
X133926000Y-124560500D03*
X133926000Y-123910500D03*
X133926000Y-123260500D03*
X133926000Y-122610500D03*
X133926000Y-121960500D03*
X133926000Y-121310500D03*
X133926000Y-120660500D03*
%TD*%
D27*
%TO.C,R28*%
X96837000Y-105806500D03*
X94837000Y-105806500D03*
%TD*%
D41*
%TO.C,U16*%
X113402000Y-110222000D03*
X113402000Y-112522000D03*
D42*
X119702000Y-112522000D03*
D41*
X113402000Y-114822000D03*
%TD*%
D30*
%TO.C,R40*%
X169497000Y-127349000D03*
X169497000Y-129349000D03*
%TD*%
D35*
%TO.C,C19*%
X107306000Y-106956000D03*
X109381000Y-106956000D03*
%TD*%
D49*
%TO.C,U13*%
X164835000Y-100614000D03*
X164835000Y-101114000D03*
X164835000Y-101614000D03*
X164835000Y-102114000D03*
D50*
X165347500Y-102126500D03*
X165847500Y-102126500D03*
D49*
X166360000Y-102114000D03*
X166360000Y-101614000D03*
X166360000Y-101114000D03*
X166360000Y-100614000D03*
D50*
X165847500Y-100601500D03*
X165347500Y-100601500D03*
%TD*%
D27*
%TO.C,R36*%
X190817000Y-108664000D03*
X188817000Y-108664000D03*
%TD*%
D15*
%TO.C,R72*%
X197389500Y-131206500D03*
X199389500Y-131206500D03*
%TD*%
D27*
%TO.C,R25*%
X116760500Y-131191000D03*
X114760500Y-131191000D03*
%TD*%
D51*
%TO.C,J1*%
X94730000Y-93405500D03*
X94730000Y-94205500D03*
D52*
X94730000Y-95355500D03*
X94730000Y-96355500D03*
X94730000Y-96855500D03*
X94730000Y-97855500D03*
D51*
X94730000Y-99005500D03*
X94730000Y-99805500D03*
X94730000Y-99805500D03*
X94730000Y-99005500D03*
D52*
X94730000Y-98355500D03*
X94730000Y-97355500D03*
X94730000Y-95855500D03*
X94730000Y-94855500D03*
D51*
X94730000Y-94205500D03*
X94730000Y-93405500D03*
D53*
X94155000Y-92285500D03*
D54*
X89975000Y-92285500D03*
D53*
X94155000Y-100925500D03*
D54*
X89975000Y-100925500D03*
%TD*%
D17*
%TO.C,D2*%
X118325000Y-95843500D03*
X116450000Y-95843500D03*
%TD*%
D15*
%TO.C,R33*%
X185642000Y-82206500D03*
X187642000Y-82206500D03*
%TD*%
D27*
%TO.C,R10*%
X96837000Y-114887000D03*
X94837000Y-114887000D03*
%TD*%
D55*
X99556500Y-84093000D02*
X100556500Y-84093000D01*
X205082000Y-55324000D02*
X205082000Y-143824000D01*
X87582000Y-55324000D02*
X205082000Y-55324000D01*
X99556500Y-84093000D02*
G75*
G02*
X99556500Y-81933000I-1870600J1080000D01*
G01*
X205082000Y-143824000D02*
X87582000Y-143824000D01*
X99556500Y-81933000D02*
X100556500Y-81933000D01*
X87582000Y-143824000D02*
X87582000Y-55324000D01*
X100556500Y-84093000D02*
G75*
G02*
X100556500Y-81933000I-2888600J1080000D01*
G01*
M02*
