%TF.GenerationSoftware,KiCad,Pcbnew,8.0.9-8.0.9-0~ubuntu22.04.1*%
%TF.CreationDate,2025-03-19T18:43:04+01:00*%
%TF.ProjectId,carte-io,63617274-652d-4696-9f2e-6b696361645f,1.1*%
%TF.SameCoordinates,Original*%
%TF.FileFunction,Legend,Bot*%
%TF.FilePolarity,Positive*%
%FSLAX46Y46*%
G04 Gerber Fmt 4.6, Leading zero omitted, Abs format (unit mm)*
G04 Created by KiCad (PCBNEW 8.0.9-8.0.9-0~ubuntu22.04.1) date 2025-03-19 18:43:04*
%MOMM*%
%LPD*%
G01*
G04 APERTURE LIST*
%ADD10C,0.150000*%
%ADD11C,0.120000*%
%ADD12C,0.127000*%
%ADD13C,0.200000*%
%TA.AperFunction,Profile*%
%ADD14C,0.050000*%
%TD*%
G04 APERTURE END LIST*
D10*
X119151819Y-71191142D02*
X118675628Y-70857809D01*
X119151819Y-70619714D02*
X118151819Y-70619714D01*
X118151819Y-70619714D02*
X118151819Y-71000666D01*
X118151819Y-71000666D02*
X118199438Y-71095904D01*
X118199438Y-71095904D02*
X118247057Y-71143523D01*
X118247057Y-71143523D02*
X118342295Y-71191142D01*
X118342295Y-71191142D02*
X118485152Y-71191142D01*
X118485152Y-71191142D02*
X118580390Y-71143523D01*
X118580390Y-71143523D02*
X118628009Y-71095904D01*
X118628009Y-71095904D02*
X118675628Y-71000666D01*
X118675628Y-71000666D02*
X118675628Y-70619714D01*
X118151819Y-72048285D02*
X118151819Y-71857809D01*
X118151819Y-71857809D02*
X118199438Y-71762571D01*
X118199438Y-71762571D02*
X118247057Y-71714952D01*
X118247057Y-71714952D02*
X118389914Y-71619714D01*
X118389914Y-71619714D02*
X118580390Y-71572095D01*
X118580390Y-71572095D02*
X118961342Y-71572095D01*
X118961342Y-71572095D02*
X119056580Y-71619714D01*
X119056580Y-71619714D02*
X119104200Y-71667333D01*
X119104200Y-71667333D02*
X119151819Y-71762571D01*
X119151819Y-71762571D02*
X119151819Y-71953047D01*
X119151819Y-71953047D02*
X119104200Y-72048285D01*
X119104200Y-72048285D02*
X119056580Y-72095904D01*
X119056580Y-72095904D02*
X118961342Y-72143523D01*
X118961342Y-72143523D02*
X118723247Y-72143523D01*
X118723247Y-72143523D02*
X118628009Y-72095904D01*
X118628009Y-72095904D02*
X118580390Y-72048285D01*
X118580390Y-72048285D02*
X118532771Y-71953047D01*
X118532771Y-71953047D02*
X118532771Y-71762571D01*
X118532771Y-71762571D02*
X118580390Y-71667333D01*
X118580390Y-71667333D02*
X118628009Y-71619714D01*
X118628009Y-71619714D02*
X118723247Y-71572095D01*
X118151819Y-72476857D02*
X118151819Y-73095904D01*
X118151819Y-73095904D02*
X118532771Y-72762571D01*
X118532771Y-72762571D02*
X118532771Y-72905428D01*
X118532771Y-72905428D02*
X118580390Y-73000666D01*
X118580390Y-73000666D02*
X118628009Y-73048285D01*
X118628009Y-73048285D02*
X118723247Y-73095904D01*
X118723247Y-73095904D02*
X118961342Y-73095904D01*
X118961342Y-73095904D02*
X119056580Y-73048285D01*
X119056580Y-73048285D02*
X119104200Y-73000666D01*
X119104200Y-73000666D02*
X119151819Y-72905428D01*
X119151819Y-72905428D02*
X119151819Y-72619714D01*
X119151819Y-72619714D02*
X119104200Y-72524476D01*
X119104200Y-72524476D02*
X119056580Y-72476857D01*
X162966819Y-127706142D02*
X162490628Y-127372809D01*
X162966819Y-127134714D02*
X161966819Y-127134714D01*
X161966819Y-127134714D02*
X161966819Y-127515666D01*
X161966819Y-127515666D02*
X162014438Y-127610904D01*
X162014438Y-127610904D02*
X162062057Y-127658523D01*
X162062057Y-127658523D02*
X162157295Y-127706142D01*
X162157295Y-127706142D02*
X162300152Y-127706142D01*
X162300152Y-127706142D02*
X162395390Y-127658523D01*
X162395390Y-127658523D02*
X162443009Y-127610904D01*
X162443009Y-127610904D02*
X162490628Y-127515666D01*
X162490628Y-127515666D02*
X162490628Y-127134714D01*
X162062057Y-128087095D02*
X162014438Y-128134714D01*
X162014438Y-128134714D02*
X161966819Y-128229952D01*
X161966819Y-128229952D02*
X161966819Y-128468047D01*
X161966819Y-128468047D02*
X162014438Y-128563285D01*
X162014438Y-128563285D02*
X162062057Y-128610904D01*
X162062057Y-128610904D02*
X162157295Y-128658523D01*
X162157295Y-128658523D02*
X162252533Y-128658523D01*
X162252533Y-128658523D02*
X162395390Y-128610904D01*
X162395390Y-128610904D02*
X162966819Y-128039476D01*
X162966819Y-128039476D02*
X162966819Y-128658523D01*
X162966819Y-129610904D02*
X162966819Y-129039476D01*
X162966819Y-129325190D02*
X161966819Y-129325190D01*
X161966819Y-129325190D02*
X162109676Y-129229952D01*
X162109676Y-129229952D02*
X162204914Y-129134714D01*
X162204914Y-129134714D02*
X162252533Y-129039476D01*
X190459857Y-104991319D02*
X190793190Y-104515128D01*
X191031285Y-104991319D02*
X191031285Y-103991319D01*
X191031285Y-103991319D02*
X190650333Y-103991319D01*
X190650333Y-103991319D02*
X190555095Y-104038938D01*
X190555095Y-104038938D02*
X190507476Y-104086557D01*
X190507476Y-104086557D02*
X190459857Y-104181795D01*
X190459857Y-104181795D02*
X190459857Y-104324652D01*
X190459857Y-104324652D02*
X190507476Y-104419890D01*
X190507476Y-104419890D02*
X190555095Y-104467509D01*
X190555095Y-104467509D02*
X190650333Y-104515128D01*
X190650333Y-104515128D02*
X191031285Y-104515128D01*
X190126523Y-103991319D02*
X189507476Y-103991319D01*
X189507476Y-103991319D02*
X189840809Y-104372271D01*
X189840809Y-104372271D02*
X189697952Y-104372271D01*
X189697952Y-104372271D02*
X189602714Y-104419890D01*
X189602714Y-104419890D02*
X189555095Y-104467509D01*
X189555095Y-104467509D02*
X189507476Y-104562747D01*
X189507476Y-104562747D02*
X189507476Y-104800842D01*
X189507476Y-104800842D02*
X189555095Y-104896080D01*
X189555095Y-104896080D02*
X189602714Y-104943700D01*
X189602714Y-104943700D02*
X189697952Y-104991319D01*
X189697952Y-104991319D02*
X189983666Y-104991319D01*
X189983666Y-104991319D02*
X190078904Y-104943700D01*
X190078904Y-104943700D02*
X190126523Y-104896080D01*
X189174142Y-103991319D02*
X188507476Y-103991319D01*
X188507476Y-103991319D02*
X188936047Y-104991319D01*
X148949319Y-131825666D02*
X149663604Y-131825666D01*
X149663604Y-131825666D02*
X149806461Y-131778047D01*
X149806461Y-131778047D02*
X149901700Y-131682809D01*
X149901700Y-131682809D02*
X149949319Y-131539952D01*
X149949319Y-131539952D02*
X149949319Y-131444714D01*
X148949319Y-132778047D02*
X148949319Y-132301857D01*
X148949319Y-132301857D02*
X149425509Y-132254238D01*
X149425509Y-132254238D02*
X149377890Y-132301857D01*
X149377890Y-132301857D02*
X149330271Y-132397095D01*
X149330271Y-132397095D02*
X149330271Y-132635190D01*
X149330271Y-132635190D02*
X149377890Y-132730428D01*
X149377890Y-132730428D02*
X149425509Y-132778047D01*
X149425509Y-132778047D02*
X149520747Y-132825666D01*
X149520747Y-132825666D02*
X149758842Y-132825666D01*
X149758842Y-132825666D02*
X149854080Y-132778047D01*
X149854080Y-132778047D02*
X149901700Y-132730428D01*
X149901700Y-132730428D02*
X149949319Y-132635190D01*
X149949319Y-132635190D02*
X149949319Y-132397095D01*
X149949319Y-132397095D02*
X149901700Y-132301857D01*
X149901700Y-132301857D02*
X149854080Y-132254238D01*
X174079319Y-127706142D02*
X173603128Y-127372809D01*
X174079319Y-127134714D02*
X173079319Y-127134714D01*
X173079319Y-127134714D02*
X173079319Y-127515666D01*
X173079319Y-127515666D02*
X173126938Y-127610904D01*
X173126938Y-127610904D02*
X173174557Y-127658523D01*
X173174557Y-127658523D02*
X173269795Y-127706142D01*
X173269795Y-127706142D02*
X173412652Y-127706142D01*
X173412652Y-127706142D02*
X173507890Y-127658523D01*
X173507890Y-127658523D02*
X173555509Y-127610904D01*
X173555509Y-127610904D02*
X173603128Y-127515666D01*
X173603128Y-127515666D02*
X173603128Y-127134714D01*
X173412652Y-128563285D02*
X174079319Y-128563285D01*
X173031700Y-128325190D02*
X173745985Y-128087095D01*
X173745985Y-128087095D02*
X173745985Y-128706142D01*
X173174557Y-129039476D02*
X173126938Y-129087095D01*
X173126938Y-129087095D02*
X173079319Y-129182333D01*
X173079319Y-129182333D02*
X173079319Y-129420428D01*
X173079319Y-129420428D02*
X173126938Y-129515666D01*
X173126938Y-129515666D02*
X173174557Y-129563285D01*
X173174557Y-129563285D02*
X173269795Y-129610904D01*
X173269795Y-129610904D02*
X173365033Y-129610904D01*
X173365033Y-129610904D02*
X173507890Y-129563285D01*
X173507890Y-129563285D02*
X174079319Y-128991857D01*
X174079319Y-128991857D02*
X174079319Y-129610904D01*
X145186819Y-71191142D02*
X144710628Y-70857809D01*
X145186819Y-70619714D02*
X144186819Y-70619714D01*
X144186819Y-70619714D02*
X144186819Y-71000666D01*
X144186819Y-71000666D02*
X144234438Y-71095904D01*
X144234438Y-71095904D02*
X144282057Y-71143523D01*
X144282057Y-71143523D02*
X144377295Y-71191142D01*
X144377295Y-71191142D02*
X144520152Y-71191142D01*
X144520152Y-71191142D02*
X144615390Y-71143523D01*
X144615390Y-71143523D02*
X144663009Y-71095904D01*
X144663009Y-71095904D02*
X144710628Y-71000666D01*
X144710628Y-71000666D02*
X144710628Y-70619714D01*
X144186819Y-71524476D02*
X144186819Y-72191142D01*
X144186819Y-72191142D02*
X145186819Y-71762571D01*
X145186819Y-73095904D02*
X145186819Y-72524476D01*
X145186819Y-72810190D02*
X144186819Y-72810190D01*
X144186819Y-72810190D02*
X144329676Y-72714952D01*
X144329676Y-72714952D02*
X144424914Y-72619714D01*
X144424914Y-72619714D02*
X144472533Y-72524476D01*
X134738666Y-103943580D02*
X134786285Y-103991200D01*
X134786285Y-103991200D02*
X134929142Y-104038819D01*
X134929142Y-104038819D02*
X135024380Y-104038819D01*
X135024380Y-104038819D02*
X135167237Y-103991200D01*
X135167237Y-103991200D02*
X135262475Y-103895961D01*
X135262475Y-103895961D02*
X135310094Y-103800723D01*
X135310094Y-103800723D02*
X135357713Y-103610247D01*
X135357713Y-103610247D02*
X135357713Y-103467390D01*
X135357713Y-103467390D02*
X135310094Y-103276914D01*
X135310094Y-103276914D02*
X135262475Y-103181676D01*
X135262475Y-103181676D02*
X135167237Y-103086438D01*
X135167237Y-103086438D02*
X135024380Y-103038819D01*
X135024380Y-103038819D02*
X134929142Y-103038819D01*
X134929142Y-103038819D02*
X134786285Y-103086438D01*
X134786285Y-103086438D02*
X134738666Y-103134057D01*
X134405332Y-103038819D02*
X133738666Y-103038819D01*
X133738666Y-103038819D02*
X134167237Y-104038819D01*
X113436819Y-71191142D02*
X112960628Y-70857809D01*
X113436819Y-70619714D02*
X112436819Y-70619714D01*
X112436819Y-70619714D02*
X112436819Y-71000666D01*
X112436819Y-71000666D02*
X112484438Y-71095904D01*
X112484438Y-71095904D02*
X112532057Y-71143523D01*
X112532057Y-71143523D02*
X112627295Y-71191142D01*
X112627295Y-71191142D02*
X112770152Y-71191142D01*
X112770152Y-71191142D02*
X112865390Y-71143523D01*
X112865390Y-71143523D02*
X112913009Y-71095904D01*
X112913009Y-71095904D02*
X112960628Y-71000666D01*
X112960628Y-71000666D02*
X112960628Y-70619714D01*
X112436819Y-72048285D02*
X112436819Y-71857809D01*
X112436819Y-71857809D02*
X112484438Y-71762571D01*
X112484438Y-71762571D02*
X112532057Y-71714952D01*
X112532057Y-71714952D02*
X112674914Y-71619714D01*
X112674914Y-71619714D02*
X112865390Y-71572095D01*
X112865390Y-71572095D02*
X113246342Y-71572095D01*
X113246342Y-71572095D02*
X113341580Y-71619714D01*
X113341580Y-71619714D02*
X113389200Y-71667333D01*
X113389200Y-71667333D02*
X113436819Y-71762571D01*
X113436819Y-71762571D02*
X113436819Y-71953047D01*
X113436819Y-71953047D02*
X113389200Y-72048285D01*
X113389200Y-72048285D02*
X113341580Y-72095904D01*
X113341580Y-72095904D02*
X113246342Y-72143523D01*
X113246342Y-72143523D02*
X113008247Y-72143523D01*
X113008247Y-72143523D02*
X112913009Y-72095904D01*
X112913009Y-72095904D02*
X112865390Y-72048285D01*
X112865390Y-72048285D02*
X112817771Y-71953047D01*
X112817771Y-71953047D02*
X112817771Y-71762571D01*
X112817771Y-71762571D02*
X112865390Y-71667333D01*
X112865390Y-71667333D02*
X112913009Y-71619714D01*
X112913009Y-71619714D02*
X113008247Y-71572095D01*
X112532057Y-72524476D02*
X112484438Y-72572095D01*
X112484438Y-72572095D02*
X112436819Y-72667333D01*
X112436819Y-72667333D02*
X112436819Y-72905428D01*
X112436819Y-72905428D02*
X112484438Y-73000666D01*
X112484438Y-73000666D02*
X112532057Y-73048285D01*
X112532057Y-73048285D02*
X112627295Y-73095904D01*
X112627295Y-73095904D02*
X112722533Y-73095904D01*
X112722533Y-73095904D02*
X112865390Y-73048285D01*
X112865390Y-73048285D02*
X113436819Y-72476857D01*
X113436819Y-72476857D02*
X113436819Y-73095904D01*
X132169319Y-71191142D02*
X131693128Y-70857809D01*
X132169319Y-70619714D02*
X131169319Y-70619714D01*
X131169319Y-70619714D02*
X131169319Y-71000666D01*
X131169319Y-71000666D02*
X131216938Y-71095904D01*
X131216938Y-71095904D02*
X131264557Y-71143523D01*
X131264557Y-71143523D02*
X131359795Y-71191142D01*
X131359795Y-71191142D02*
X131502652Y-71191142D01*
X131502652Y-71191142D02*
X131597890Y-71143523D01*
X131597890Y-71143523D02*
X131645509Y-71095904D01*
X131645509Y-71095904D02*
X131693128Y-71000666D01*
X131693128Y-71000666D02*
X131693128Y-70619714D01*
X131169319Y-72048285D02*
X131169319Y-71857809D01*
X131169319Y-71857809D02*
X131216938Y-71762571D01*
X131216938Y-71762571D02*
X131264557Y-71714952D01*
X131264557Y-71714952D02*
X131407414Y-71619714D01*
X131407414Y-71619714D02*
X131597890Y-71572095D01*
X131597890Y-71572095D02*
X131978842Y-71572095D01*
X131978842Y-71572095D02*
X132074080Y-71619714D01*
X132074080Y-71619714D02*
X132121700Y-71667333D01*
X132121700Y-71667333D02*
X132169319Y-71762571D01*
X132169319Y-71762571D02*
X132169319Y-71953047D01*
X132169319Y-71953047D02*
X132121700Y-72048285D01*
X132121700Y-72048285D02*
X132074080Y-72095904D01*
X132074080Y-72095904D02*
X131978842Y-72143523D01*
X131978842Y-72143523D02*
X131740747Y-72143523D01*
X131740747Y-72143523D02*
X131645509Y-72095904D01*
X131645509Y-72095904D02*
X131597890Y-72048285D01*
X131597890Y-72048285D02*
X131550271Y-71953047D01*
X131550271Y-71953047D02*
X131550271Y-71762571D01*
X131550271Y-71762571D02*
X131597890Y-71667333D01*
X131597890Y-71667333D02*
X131645509Y-71619714D01*
X131645509Y-71619714D02*
X131740747Y-71572095D01*
X131169319Y-72762571D02*
X131169319Y-72857809D01*
X131169319Y-72857809D02*
X131216938Y-72953047D01*
X131216938Y-72953047D02*
X131264557Y-73000666D01*
X131264557Y-73000666D02*
X131359795Y-73048285D01*
X131359795Y-73048285D02*
X131550271Y-73095904D01*
X131550271Y-73095904D02*
X131788366Y-73095904D01*
X131788366Y-73095904D02*
X131978842Y-73048285D01*
X131978842Y-73048285D02*
X132074080Y-73000666D01*
X132074080Y-73000666D02*
X132121700Y-72953047D01*
X132121700Y-72953047D02*
X132169319Y-72857809D01*
X132169319Y-72857809D02*
X132169319Y-72762571D01*
X132169319Y-72762571D02*
X132121700Y-72667333D01*
X132121700Y-72667333D02*
X132074080Y-72619714D01*
X132074080Y-72619714D02*
X131978842Y-72572095D01*
X131978842Y-72572095D02*
X131788366Y-72524476D01*
X131788366Y-72524476D02*
X131550271Y-72524476D01*
X131550271Y-72524476D02*
X131359795Y-72572095D01*
X131359795Y-72572095D02*
X131264557Y-72619714D01*
X131264557Y-72619714D02*
X131216938Y-72667333D01*
X131216938Y-72667333D02*
X131169319Y-72762571D01*
X152711580Y-86399333D02*
X152759200Y-86351714D01*
X152759200Y-86351714D02*
X152806819Y-86208857D01*
X152806819Y-86208857D02*
X152806819Y-86113619D01*
X152806819Y-86113619D02*
X152759200Y-85970762D01*
X152759200Y-85970762D02*
X152663961Y-85875524D01*
X152663961Y-85875524D02*
X152568723Y-85827905D01*
X152568723Y-85827905D02*
X152378247Y-85780286D01*
X152378247Y-85780286D02*
X152235390Y-85780286D01*
X152235390Y-85780286D02*
X152044914Y-85827905D01*
X152044914Y-85827905D02*
X151949676Y-85875524D01*
X151949676Y-85875524D02*
X151854438Y-85970762D01*
X151854438Y-85970762D02*
X151806819Y-86113619D01*
X151806819Y-86113619D02*
X151806819Y-86208857D01*
X151806819Y-86208857D02*
X151854438Y-86351714D01*
X151854438Y-86351714D02*
X151902057Y-86399333D01*
X151806819Y-86732667D02*
X151806819Y-87351714D01*
X151806819Y-87351714D02*
X152187771Y-87018381D01*
X152187771Y-87018381D02*
X152187771Y-87161238D01*
X152187771Y-87161238D02*
X152235390Y-87256476D01*
X152235390Y-87256476D02*
X152283009Y-87304095D01*
X152283009Y-87304095D02*
X152378247Y-87351714D01*
X152378247Y-87351714D02*
X152616342Y-87351714D01*
X152616342Y-87351714D02*
X152711580Y-87304095D01*
X152711580Y-87304095D02*
X152759200Y-87256476D01*
X152759200Y-87256476D02*
X152806819Y-87161238D01*
X152806819Y-87161238D02*
X152806819Y-86875524D01*
X152806819Y-86875524D02*
X152759200Y-86780286D01*
X152759200Y-86780286D02*
X152711580Y-86732667D01*
X96609319Y-113418642D02*
X96133128Y-113085309D01*
X96609319Y-112847214D02*
X95609319Y-112847214D01*
X95609319Y-112847214D02*
X95609319Y-113228166D01*
X95609319Y-113228166D02*
X95656938Y-113323404D01*
X95656938Y-113323404D02*
X95704557Y-113371023D01*
X95704557Y-113371023D02*
X95799795Y-113418642D01*
X95799795Y-113418642D02*
X95942652Y-113418642D01*
X95942652Y-113418642D02*
X96037890Y-113371023D01*
X96037890Y-113371023D02*
X96085509Y-113323404D01*
X96085509Y-113323404D02*
X96133128Y-113228166D01*
X96133128Y-113228166D02*
X96133128Y-112847214D01*
X95609319Y-114323404D02*
X95609319Y-113847214D01*
X95609319Y-113847214D02*
X96085509Y-113799595D01*
X96085509Y-113799595D02*
X96037890Y-113847214D01*
X96037890Y-113847214D02*
X95990271Y-113942452D01*
X95990271Y-113942452D02*
X95990271Y-114180547D01*
X95990271Y-114180547D02*
X96037890Y-114275785D01*
X96037890Y-114275785D02*
X96085509Y-114323404D01*
X96085509Y-114323404D02*
X96180747Y-114371023D01*
X96180747Y-114371023D02*
X96418842Y-114371023D01*
X96418842Y-114371023D02*
X96514080Y-114323404D01*
X96514080Y-114323404D02*
X96561700Y-114275785D01*
X96561700Y-114275785D02*
X96609319Y-114180547D01*
X96609319Y-114180547D02*
X96609319Y-113942452D01*
X96609319Y-113942452D02*
X96561700Y-113847214D01*
X96561700Y-113847214D02*
X96514080Y-113799595D01*
X95704557Y-114751976D02*
X95656938Y-114799595D01*
X95656938Y-114799595D02*
X95609319Y-114894833D01*
X95609319Y-114894833D02*
X95609319Y-115132928D01*
X95609319Y-115132928D02*
X95656938Y-115228166D01*
X95656938Y-115228166D02*
X95704557Y-115275785D01*
X95704557Y-115275785D02*
X95799795Y-115323404D01*
X95799795Y-115323404D02*
X95895033Y-115323404D01*
X95895033Y-115323404D02*
X96037890Y-115275785D01*
X96037890Y-115275785D02*
X96609319Y-114704357D01*
X96609319Y-114704357D02*
X96609319Y-115323404D01*
X161966819Y-131825666D02*
X162681104Y-131825666D01*
X162681104Y-131825666D02*
X162823961Y-131778047D01*
X162823961Y-131778047D02*
X162919200Y-131682809D01*
X162919200Y-131682809D02*
X162966819Y-131539952D01*
X162966819Y-131539952D02*
X162966819Y-131444714D01*
X161966819Y-132206619D02*
X161966819Y-132873285D01*
X161966819Y-132873285D02*
X162966819Y-132444714D01*
X186427594Y-105486319D02*
X186427594Y-104486319D01*
X186427594Y-104486319D02*
X186189499Y-104486319D01*
X186189499Y-104486319D02*
X186046642Y-104533938D01*
X186046642Y-104533938D02*
X185951404Y-104629176D01*
X185951404Y-104629176D02*
X185903785Y-104724414D01*
X185903785Y-104724414D02*
X185856166Y-104914890D01*
X185856166Y-104914890D02*
X185856166Y-105057747D01*
X185856166Y-105057747D02*
X185903785Y-105248223D01*
X185903785Y-105248223D02*
X185951404Y-105343461D01*
X185951404Y-105343461D02*
X186046642Y-105438700D01*
X186046642Y-105438700D02*
X186189499Y-105486319D01*
X186189499Y-105486319D02*
X186427594Y-105486319D01*
X185284737Y-104914890D02*
X185379975Y-104867271D01*
X185379975Y-104867271D02*
X185427594Y-104819652D01*
X185427594Y-104819652D02*
X185475213Y-104724414D01*
X185475213Y-104724414D02*
X185475213Y-104676795D01*
X185475213Y-104676795D02*
X185427594Y-104581557D01*
X185427594Y-104581557D02*
X185379975Y-104533938D01*
X185379975Y-104533938D02*
X185284737Y-104486319D01*
X185284737Y-104486319D02*
X185094261Y-104486319D01*
X185094261Y-104486319D02*
X184999023Y-104533938D01*
X184999023Y-104533938D02*
X184951404Y-104581557D01*
X184951404Y-104581557D02*
X184903785Y-104676795D01*
X184903785Y-104676795D02*
X184903785Y-104724414D01*
X184903785Y-104724414D02*
X184951404Y-104819652D01*
X184951404Y-104819652D02*
X184999023Y-104867271D01*
X184999023Y-104867271D02*
X185094261Y-104914890D01*
X185094261Y-104914890D02*
X185284737Y-104914890D01*
X185284737Y-104914890D02*
X185379975Y-104962509D01*
X185379975Y-104962509D02*
X185427594Y-105010128D01*
X185427594Y-105010128D02*
X185475213Y-105105366D01*
X185475213Y-105105366D02*
X185475213Y-105295842D01*
X185475213Y-105295842D02*
X185427594Y-105391080D01*
X185427594Y-105391080D02*
X185379975Y-105438700D01*
X185379975Y-105438700D02*
X185284737Y-105486319D01*
X185284737Y-105486319D02*
X185094261Y-105486319D01*
X185094261Y-105486319D02*
X184999023Y-105438700D01*
X184999023Y-105438700D02*
X184951404Y-105391080D01*
X184951404Y-105391080D02*
X184903785Y-105295842D01*
X184903785Y-105295842D02*
X184903785Y-105105366D01*
X184903785Y-105105366D02*
X184951404Y-105010128D01*
X184951404Y-105010128D02*
X184999023Y-104962509D01*
X184999023Y-104962509D02*
X185094261Y-104914890D01*
X158204319Y-71191142D02*
X157728128Y-70857809D01*
X158204319Y-70619714D02*
X157204319Y-70619714D01*
X157204319Y-70619714D02*
X157204319Y-71000666D01*
X157204319Y-71000666D02*
X157251938Y-71095904D01*
X157251938Y-71095904D02*
X157299557Y-71143523D01*
X157299557Y-71143523D02*
X157394795Y-71191142D01*
X157394795Y-71191142D02*
X157537652Y-71191142D01*
X157537652Y-71191142D02*
X157632890Y-71143523D01*
X157632890Y-71143523D02*
X157680509Y-71095904D01*
X157680509Y-71095904D02*
X157728128Y-71000666D01*
X157728128Y-71000666D02*
X157728128Y-70619714D01*
X157204319Y-72048285D02*
X157204319Y-71857809D01*
X157204319Y-71857809D02*
X157251938Y-71762571D01*
X157251938Y-71762571D02*
X157299557Y-71714952D01*
X157299557Y-71714952D02*
X157442414Y-71619714D01*
X157442414Y-71619714D02*
X157632890Y-71572095D01*
X157632890Y-71572095D02*
X158013842Y-71572095D01*
X158013842Y-71572095D02*
X158109080Y-71619714D01*
X158109080Y-71619714D02*
X158156700Y-71667333D01*
X158156700Y-71667333D02*
X158204319Y-71762571D01*
X158204319Y-71762571D02*
X158204319Y-71953047D01*
X158204319Y-71953047D02*
X158156700Y-72048285D01*
X158156700Y-72048285D02*
X158109080Y-72095904D01*
X158109080Y-72095904D02*
X158013842Y-72143523D01*
X158013842Y-72143523D02*
X157775747Y-72143523D01*
X157775747Y-72143523D02*
X157680509Y-72095904D01*
X157680509Y-72095904D02*
X157632890Y-72048285D01*
X157632890Y-72048285D02*
X157585271Y-71953047D01*
X157585271Y-71953047D02*
X157585271Y-71762571D01*
X157585271Y-71762571D02*
X157632890Y-71667333D01*
X157632890Y-71667333D02*
X157680509Y-71619714D01*
X157680509Y-71619714D02*
X157775747Y-71572095D01*
X157632890Y-72714952D02*
X157585271Y-72619714D01*
X157585271Y-72619714D02*
X157537652Y-72572095D01*
X157537652Y-72572095D02*
X157442414Y-72524476D01*
X157442414Y-72524476D02*
X157394795Y-72524476D01*
X157394795Y-72524476D02*
X157299557Y-72572095D01*
X157299557Y-72572095D02*
X157251938Y-72619714D01*
X157251938Y-72619714D02*
X157204319Y-72714952D01*
X157204319Y-72714952D02*
X157204319Y-72905428D01*
X157204319Y-72905428D02*
X157251938Y-73000666D01*
X157251938Y-73000666D02*
X157299557Y-73048285D01*
X157299557Y-73048285D02*
X157394795Y-73095904D01*
X157394795Y-73095904D02*
X157442414Y-73095904D01*
X157442414Y-73095904D02*
X157537652Y-73048285D01*
X157537652Y-73048285D02*
X157585271Y-73000666D01*
X157585271Y-73000666D02*
X157632890Y-72905428D01*
X157632890Y-72905428D02*
X157632890Y-72714952D01*
X157632890Y-72714952D02*
X157680509Y-72619714D01*
X157680509Y-72619714D02*
X157728128Y-72572095D01*
X157728128Y-72572095D02*
X157823366Y-72524476D01*
X157823366Y-72524476D02*
X158013842Y-72524476D01*
X158013842Y-72524476D02*
X158109080Y-72572095D01*
X158109080Y-72572095D02*
X158156700Y-72619714D01*
X158156700Y-72619714D02*
X158204319Y-72714952D01*
X158204319Y-72714952D02*
X158204319Y-72905428D01*
X158204319Y-72905428D02*
X158156700Y-73000666D01*
X158156700Y-73000666D02*
X158109080Y-73048285D01*
X158109080Y-73048285D02*
X158013842Y-73095904D01*
X158013842Y-73095904D02*
X157823366Y-73095904D01*
X157823366Y-73095904D02*
X157728128Y-73048285D01*
X157728128Y-73048285D02*
X157680509Y-73000666D01*
X157680509Y-73000666D02*
X157632890Y-72905428D01*
X189277857Y-126079819D02*
X189611190Y-125603628D01*
X189849285Y-126079819D02*
X189849285Y-125079819D01*
X189849285Y-125079819D02*
X189468333Y-125079819D01*
X189468333Y-125079819D02*
X189373095Y-125127438D01*
X189373095Y-125127438D02*
X189325476Y-125175057D01*
X189325476Y-125175057D02*
X189277857Y-125270295D01*
X189277857Y-125270295D02*
X189277857Y-125413152D01*
X189277857Y-125413152D02*
X189325476Y-125508390D01*
X189325476Y-125508390D02*
X189373095Y-125556009D01*
X189373095Y-125556009D02*
X189468333Y-125603628D01*
X189468333Y-125603628D02*
X189849285Y-125603628D01*
X188420714Y-125413152D02*
X188420714Y-126079819D01*
X188658809Y-125032200D02*
X188896904Y-125746485D01*
X188896904Y-125746485D02*
X188277857Y-125746485D01*
X187373095Y-126079819D02*
X187944523Y-126079819D01*
X187658809Y-126079819D02*
X187658809Y-125079819D01*
X187658809Y-125079819D02*
X187754047Y-125222676D01*
X187754047Y-125222676D02*
X187849285Y-125317914D01*
X187849285Y-125317914D02*
X187944523Y-125365533D01*
X152772666Y-104197580D02*
X152820285Y-104245200D01*
X152820285Y-104245200D02*
X152963142Y-104292819D01*
X152963142Y-104292819D02*
X153058380Y-104292819D01*
X153058380Y-104292819D02*
X153201237Y-104245200D01*
X153201237Y-104245200D02*
X153296475Y-104149961D01*
X153296475Y-104149961D02*
X153344094Y-104054723D01*
X153344094Y-104054723D02*
X153391713Y-103864247D01*
X153391713Y-103864247D02*
X153391713Y-103721390D01*
X153391713Y-103721390D02*
X153344094Y-103530914D01*
X153344094Y-103530914D02*
X153296475Y-103435676D01*
X153296475Y-103435676D02*
X153201237Y-103340438D01*
X153201237Y-103340438D02*
X153058380Y-103292819D01*
X153058380Y-103292819D02*
X152963142Y-103292819D01*
X152963142Y-103292819D02*
X152820285Y-103340438D01*
X152820285Y-103340438D02*
X152772666Y-103388057D01*
X152391713Y-103388057D02*
X152344094Y-103340438D01*
X152344094Y-103340438D02*
X152248856Y-103292819D01*
X152248856Y-103292819D02*
X152010761Y-103292819D01*
X152010761Y-103292819D02*
X151915523Y-103340438D01*
X151915523Y-103340438D02*
X151867904Y-103388057D01*
X151867904Y-103388057D02*
X151820285Y-103483295D01*
X151820285Y-103483295D02*
X151820285Y-103578533D01*
X151820285Y-103578533D02*
X151867904Y-103721390D01*
X151867904Y-103721390D02*
X152439332Y-104292819D01*
X152439332Y-104292819D02*
X151820285Y-104292819D01*
X112436819Y-66579476D02*
X113151104Y-66579476D01*
X113151104Y-66579476D02*
X113293961Y-66531857D01*
X113293961Y-66531857D02*
X113389200Y-66436619D01*
X113389200Y-66436619D02*
X113436819Y-66293762D01*
X113436819Y-66293762D02*
X113436819Y-66198524D01*
X113436819Y-67579476D02*
X113436819Y-67008048D01*
X113436819Y-67293762D02*
X112436819Y-67293762D01*
X112436819Y-67293762D02*
X112579676Y-67198524D01*
X112579676Y-67198524D02*
X112674914Y-67103286D01*
X112674914Y-67103286D02*
X112722533Y-67008048D01*
X113436819Y-68531857D02*
X113436819Y-67960429D01*
X113436819Y-68246143D02*
X112436819Y-68246143D01*
X112436819Y-68246143D02*
X112579676Y-68150905D01*
X112579676Y-68150905D02*
X112674914Y-68055667D01*
X112674914Y-68055667D02*
X112722533Y-67960429D01*
X125454319Y-66579476D02*
X126168604Y-66579476D01*
X126168604Y-66579476D02*
X126311461Y-66531857D01*
X126311461Y-66531857D02*
X126406700Y-66436619D01*
X126406700Y-66436619D02*
X126454319Y-66293762D01*
X126454319Y-66293762D02*
X126454319Y-66198524D01*
X126454319Y-67579476D02*
X126454319Y-67008048D01*
X126454319Y-67293762D02*
X125454319Y-67293762D01*
X125454319Y-67293762D02*
X125597176Y-67198524D01*
X125597176Y-67198524D02*
X125692414Y-67103286D01*
X125692414Y-67103286D02*
X125740033Y-67008048D01*
X125454319Y-67912810D02*
X125454319Y-68531857D01*
X125454319Y-68531857D02*
X125835271Y-68198524D01*
X125835271Y-68198524D02*
X125835271Y-68341381D01*
X125835271Y-68341381D02*
X125882890Y-68436619D01*
X125882890Y-68436619D02*
X125930509Y-68484238D01*
X125930509Y-68484238D02*
X126025747Y-68531857D01*
X126025747Y-68531857D02*
X126263842Y-68531857D01*
X126263842Y-68531857D02*
X126359080Y-68484238D01*
X126359080Y-68484238D02*
X126406700Y-68436619D01*
X126406700Y-68436619D02*
X126454319Y-68341381D01*
X126454319Y-68341381D02*
X126454319Y-68055667D01*
X126454319Y-68055667D02*
X126406700Y-67960429D01*
X126406700Y-67960429D02*
X126359080Y-67912810D01*
X105047580Y-82395142D02*
X105095200Y-82347523D01*
X105095200Y-82347523D02*
X105142819Y-82204666D01*
X105142819Y-82204666D02*
X105142819Y-82109428D01*
X105142819Y-82109428D02*
X105095200Y-81966571D01*
X105095200Y-81966571D02*
X104999961Y-81871333D01*
X104999961Y-81871333D02*
X104904723Y-81823714D01*
X104904723Y-81823714D02*
X104714247Y-81776095D01*
X104714247Y-81776095D02*
X104571390Y-81776095D01*
X104571390Y-81776095D02*
X104380914Y-81823714D01*
X104380914Y-81823714D02*
X104285676Y-81871333D01*
X104285676Y-81871333D02*
X104190438Y-81966571D01*
X104190438Y-81966571D02*
X104142819Y-82109428D01*
X104142819Y-82109428D02*
X104142819Y-82204666D01*
X104142819Y-82204666D02*
X104190438Y-82347523D01*
X104190438Y-82347523D02*
X104238057Y-82395142D01*
X104142819Y-82728476D02*
X104142819Y-83347523D01*
X104142819Y-83347523D02*
X104523771Y-83014190D01*
X104523771Y-83014190D02*
X104523771Y-83157047D01*
X104523771Y-83157047D02*
X104571390Y-83252285D01*
X104571390Y-83252285D02*
X104619009Y-83299904D01*
X104619009Y-83299904D02*
X104714247Y-83347523D01*
X104714247Y-83347523D02*
X104952342Y-83347523D01*
X104952342Y-83347523D02*
X105047580Y-83299904D01*
X105047580Y-83299904D02*
X105095200Y-83252285D01*
X105095200Y-83252285D02*
X105142819Y-83157047D01*
X105142819Y-83157047D02*
X105142819Y-82871333D01*
X105142819Y-82871333D02*
X105095200Y-82776095D01*
X105095200Y-82776095D02*
X105047580Y-82728476D01*
X104142819Y-83680857D02*
X104142819Y-84299904D01*
X104142819Y-84299904D02*
X104523771Y-83966571D01*
X104523771Y-83966571D02*
X104523771Y-84109428D01*
X104523771Y-84109428D02*
X104571390Y-84204666D01*
X104571390Y-84204666D02*
X104619009Y-84252285D01*
X104619009Y-84252285D02*
X104714247Y-84299904D01*
X104714247Y-84299904D02*
X104952342Y-84299904D01*
X104952342Y-84299904D02*
X105047580Y-84252285D01*
X105047580Y-84252285D02*
X105095200Y-84204666D01*
X105095200Y-84204666D02*
X105142819Y-84109428D01*
X105142819Y-84109428D02*
X105142819Y-83823714D01*
X105142819Y-83823714D02*
X105095200Y-83728476D01*
X105095200Y-83728476D02*
X105047580Y-83680857D01*
X134931580Y-95035333D02*
X134979200Y-94987714D01*
X134979200Y-94987714D02*
X135026819Y-94844857D01*
X135026819Y-94844857D02*
X135026819Y-94749619D01*
X135026819Y-94749619D02*
X134979200Y-94606762D01*
X134979200Y-94606762D02*
X134883961Y-94511524D01*
X134883961Y-94511524D02*
X134788723Y-94463905D01*
X134788723Y-94463905D02*
X134598247Y-94416286D01*
X134598247Y-94416286D02*
X134455390Y-94416286D01*
X134455390Y-94416286D02*
X134264914Y-94463905D01*
X134264914Y-94463905D02*
X134169676Y-94511524D01*
X134169676Y-94511524D02*
X134074438Y-94606762D01*
X134074438Y-94606762D02*
X134026819Y-94749619D01*
X134026819Y-94749619D02*
X134026819Y-94844857D01*
X134026819Y-94844857D02*
X134074438Y-94987714D01*
X134074438Y-94987714D02*
X134122057Y-95035333D01*
X134026819Y-95892476D02*
X134026819Y-95702000D01*
X134026819Y-95702000D02*
X134074438Y-95606762D01*
X134074438Y-95606762D02*
X134122057Y-95559143D01*
X134122057Y-95559143D02*
X134264914Y-95463905D01*
X134264914Y-95463905D02*
X134455390Y-95416286D01*
X134455390Y-95416286D02*
X134836342Y-95416286D01*
X134836342Y-95416286D02*
X134931580Y-95463905D01*
X134931580Y-95463905D02*
X134979200Y-95511524D01*
X134979200Y-95511524D02*
X135026819Y-95606762D01*
X135026819Y-95606762D02*
X135026819Y-95797238D01*
X135026819Y-95797238D02*
X134979200Y-95892476D01*
X134979200Y-95892476D02*
X134931580Y-95940095D01*
X134931580Y-95940095D02*
X134836342Y-95987714D01*
X134836342Y-95987714D02*
X134598247Y-95987714D01*
X134598247Y-95987714D02*
X134503009Y-95940095D01*
X134503009Y-95940095D02*
X134455390Y-95892476D01*
X134455390Y-95892476D02*
X134407771Y-95797238D01*
X134407771Y-95797238D02*
X134407771Y-95606762D01*
X134407771Y-95606762D02*
X134455390Y-95511524D01*
X134455390Y-95511524D02*
X134503009Y-95463905D01*
X134503009Y-95463905D02*
X134598247Y-95416286D01*
X152772666Y-101657580D02*
X152820285Y-101705200D01*
X152820285Y-101705200D02*
X152963142Y-101752819D01*
X152963142Y-101752819D02*
X153058380Y-101752819D01*
X153058380Y-101752819D02*
X153201237Y-101705200D01*
X153201237Y-101705200D02*
X153296475Y-101609961D01*
X153296475Y-101609961D02*
X153344094Y-101514723D01*
X153344094Y-101514723D02*
X153391713Y-101324247D01*
X153391713Y-101324247D02*
X153391713Y-101181390D01*
X153391713Y-101181390D02*
X153344094Y-100990914D01*
X153344094Y-100990914D02*
X153296475Y-100895676D01*
X153296475Y-100895676D02*
X153201237Y-100800438D01*
X153201237Y-100800438D02*
X153058380Y-100752819D01*
X153058380Y-100752819D02*
X152963142Y-100752819D01*
X152963142Y-100752819D02*
X152820285Y-100800438D01*
X152820285Y-100800438D02*
X152772666Y-100848057D01*
X151915523Y-101086152D02*
X151915523Y-101752819D01*
X152153618Y-100705200D02*
X152391713Y-101419485D01*
X152391713Y-101419485D02*
X151772666Y-101419485D01*
X193911523Y-99883819D02*
X193911523Y-100598104D01*
X193911523Y-100598104D02*
X193959142Y-100740961D01*
X193959142Y-100740961D02*
X194054380Y-100836200D01*
X194054380Y-100836200D02*
X194197237Y-100883819D01*
X194197237Y-100883819D02*
X194292475Y-100883819D01*
X193530570Y-99883819D02*
X192911523Y-99883819D01*
X192911523Y-99883819D02*
X193244856Y-100264771D01*
X193244856Y-100264771D02*
X193101999Y-100264771D01*
X193101999Y-100264771D02*
X193006761Y-100312390D01*
X193006761Y-100312390D02*
X192959142Y-100360009D01*
X192959142Y-100360009D02*
X192911523Y-100455247D01*
X192911523Y-100455247D02*
X192911523Y-100693342D01*
X192911523Y-100693342D02*
X192959142Y-100788580D01*
X192959142Y-100788580D02*
X193006761Y-100836200D01*
X193006761Y-100836200D02*
X193101999Y-100883819D01*
X193101999Y-100883819D02*
X193387713Y-100883819D01*
X193387713Y-100883819D02*
X193482951Y-100836200D01*
X193482951Y-100836200D02*
X193530570Y-100788580D01*
X192292475Y-99883819D02*
X192197237Y-99883819D01*
X192197237Y-99883819D02*
X192101999Y-99931438D01*
X192101999Y-99931438D02*
X192054380Y-99979057D01*
X192054380Y-99979057D02*
X192006761Y-100074295D01*
X192006761Y-100074295D02*
X191959142Y-100264771D01*
X191959142Y-100264771D02*
X191959142Y-100502866D01*
X191959142Y-100502866D02*
X192006761Y-100693342D01*
X192006761Y-100693342D02*
X192054380Y-100788580D01*
X192054380Y-100788580D02*
X192101999Y-100836200D01*
X192101999Y-100836200D02*
X192197237Y-100883819D01*
X192197237Y-100883819D02*
X192292475Y-100883819D01*
X192292475Y-100883819D02*
X192387713Y-100836200D01*
X192387713Y-100836200D02*
X192435332Y-100788580D01*
X192435332Y-100788580D02*
X192482951Y-100693342D01*
X192482951Y-100693342D02*
X192530570Y-100502866D01*
X192530570Y-100502866D02*
X192530570Y-100264771D01*
X192530570Y-100264771D02*
X192482951Y-100074295D01*
X192482951Y-100074295D02*
X192435332Y-99979057D01*
X192435332Y-99979057D02*
X192387713Y-99931438D01*
X192387713Y-99931438D02*
X192292475Y-99883819D01*
X126771819Y-71191142D02*
X126295628Y-70857809D01*
X126771819Y-70619714D02*
X125771819Y-70619714D01*
X125771819Y-70619714D02*
X125771819Y-71000666D01*
X125771819Y-71000666D02*
X125819438Y-71095904D01*
X125819438Y-71095904D02*
X125867057Y-71143523D01*
X125867057Y-71143523D02*
X125962295Y-71191142D01*
X125962295Y-71191142D02*
X126105152Y-71191142D01*
X126105152Y-71191142D02*
X126200390Y-71143523D01*
X126200390Y-71143523D02*
X126248009Y-71095904D01*
X126248009Y-71095904D02*
X126295628Y-71000666D01*
X126295628Y-71000666D02*
X126295628Y-70619714D01*
X125771819Y-72048285D02*
X125771819Y-71857809D01*
X125771819Y-71857809D02*
X125819438Y-71762571D01*
X125819438Y-71762571D02*
X125867057Y-71714952D01*
X125867057Y-71714952D02*
X126009914Y-71619714D01*
X126009914Y-71619714D02*
X126200390Y-71572095D01*
X126200390Y-71572095D02*
X126581342Y-71572095D01*
X126581342Y-71572095D02*
X126676580Y-71619714D01*
X126676580Y-71619714D02*
X126724200Y-71667333D01*
X126724200Y-71667333D02*
X126771819Y-71762571D01*
X126771819Y-71762571D02*
X126771819Y-71953047D01*
X126771819Y-71953047D02*
X126724200Y-72048285D01*
X126724200Y-72048285D02*
X126676580Y-72095904D01*
X126676580Y-72095904D02*
X126581342Y-72143523D01*
X126581342Y-72143523D02*
X126343247Y-72143523D01*
X126343247Y-72143523D02*
X126248009Y-72095904D01*
X126248009Y-72095904D02*
X126200390Y-72048285D01*
X126200390Y-72048285D02*
X126152771Y-71953047D01*
X126152771Y-71953047D02*
X126152771Y-71762571D01*
X126152771Y-71762571D02*
X126200390Y-71667333D01*
X126200390Y-71667333D02*
X126248009Y-71619714D01*
X126248009Y-71619714D02*
X126343247Y-71572095D01*
X126771819Y-73095904D02*
X126771819Y-72524476D01*
X126771819Y-72810190D02*
X125771819Y-72810190D01*
X125771819Y-72810190D02*
X125914676Y-72714952D01*
X125914676Y-72714952D02*
X126009914Y-72619714D01*
X126009914Y-72619714D02*
X126057533Y-72524476D01*
X138471819Y-66569476D02*
X139186104Y-66569476D01*
X139186104Y-66569476D02*
X139328961Y-66521857D01*
X139328961Y-66521857D02*
X139424200Y-66426619D01*
X139424200Y-66426619D02*
X139471819Y-66283762D01*
X139471819Y-66283762D02*
X139471819Y-66188524D01*
X139471819Y-67569476D02*
X139471819Y-66998048D01*
X139471819Y-67283762D02*
X138471819Y-67283762D01*
X138471819Y-67283762D02*
X138614676Y-67188524D01*
X138614676Y-67188524D02*
X138709914Y-67093286D01*
X138709914Y-67093286D02*
X138757533Y-66998048D01*
X138471819Y-68474238D02*
X138471819Y-67998048D01*
X138471819Y-67998048D02*
X138948009Y-67950429D01*
X138948009Y-67950429D02*
X138900390Y-67998048D01*
X138900390Y-67998048D02*
X138852771Y-68093286D01*
X138852771Y-68093286D02*
X138852771Y-68331381D01*
X138852771Y-68331381D02*
X138900390Y-68426619D01*
X138900390Y-68426619D02*
X138948009Y-68474238D01*
X138948009Y-68474238D02*
X139043247Y-68521857D01*
X139043247Y-68521857D02*
X139281342Y-68521857D01*
X139281342Y-68521857D02*
X139376580Y-68474238D01*
X139376580Y-68474238D02*
X139424200Y-68426619D01*
X139424200Y-68426619D02*
X139471819Y-68331381D01*
X139471819Y-68331381D02*
X139471819Y-68093286D01*
X139471819Y-68093286D02*
X139424200Y-67998048D01*
X139424200Y-67998048D02*
X139376580Y-67950429D01*
X176889319Y-131031976D02*
X177603604Y-131031976D01*
X177603604Y-131031976D02*
X177746461Y-130984357D01*
X177746461Y-130984357D02*
X177841700Y-130889119D01*
X177841700Y-130889119D02*
X177889319Y-130746262D01*
X177889319Y-130746262D02*
X177889319Y-130651024D01*
X176984557Y-131460548D02*
X176936938Y-131508167D01*
X176936938Y-131508167D02*
X176889319Y-131603405D01*
X176889319Y-131603405D02*
X176889319Y-131841500D01*
X176889319Y-131841500D02*
X176936938Y-131936738D01*
X176936938Y-131936738D02*
X176984557Y-131984357D01*
X176984557Y-131984357D02*
X177079795Y-132031976D01*
X177079795Y-132031976D02*
X177175033Y-132031976D01*
X177175033Y-132031976D02*
X177317890Y-131984357D01*
X177317890Y-131984357D02*
X177889319Y-131412929D01*
X177889319Y-131412929D02*
X177889319Y-132031976D01*
X177889319Y-132984357D02*
X177889319Y-132412929D01*
X177889319Y-132698643D02*
X176889319Y-132698643D01*
X176889319Y-132698643D02*
X177032176Y-132603405D01*
X177032176Y-132603405D02*
X177127414Y-132508167D01*
X177127414Y-132508167D02*
X177175033Y-132412929D01*
X143916819Y-127706142D02*
X143440628Y-127372809D01*
X143916819Y-127134714D02*
X142916819Y-127134714D01*
X142916819Y-127134714D02*
X142916819Y-127515666D01*
X142916819Y-127515666D02*
X142964438Y-127610904D01*
X142964438Y-127610904D02*
X143012057Y-127658523D01*
X143012057Y-127658523D02*
X143107295Y-127706142D01*
X143107295Y-127706142D02*
X143250152Y-127706142D01*
X143250152Y-127706142D02*
X143345390Y-127658523D01*
X143345390Y-127658523D02*
X143393009Y-127610904D01*
X143393009Y-127610904D02*
X143440628Y-127515666D01*
X143440628Y-127515666D02*
X143440628Y-127134714D01*
X143916819Y-128658523D02*
X143916819Y-128087095D01*
X143916819Y-128372809D02*
X142916819Y-128372809D01*
X142916819Y-128372809D02*
X143059676Y-128277571D01*
X143059676Y-128277571D02*
X143154914Y-128182333D01*
X143154914Y-128182333D02*
X143202533Y-128087095D01*
X143250152Y-129515666D02*
X143916819Y-129515666D01*
X142869200Y-129277571D02*
X143583485Y-129039476D01*
X143583485Y-129039476D02*
X143583485Y-129658523D01*
X149949319Y-127706142D02*
X149473128Y-127372809D01*
X149949319Y-127134714D02*
X148949319Y-127134714D01*
X148949319Y-127134714D02*
X148949319Y-127515666D01*
X148949319Y-127515666D02*
X148996938Y-127610904D01*
X148996938Y-127610904D02*
X149044557Y-127658523D01*
X149044557Y-127658523D02*
X149139795Y-127706142D01*
X149139795Y-127706142D02*
X149282652Y-127706142D01*
X149282652Y-127706142D02*
X149377890Y-127658523D01*
X149377890Y-127658523D02*
X149425509Y-127610904D01*
X149425509Y-127610904D02*
X149473128Y-127515666D01*
X149473128Y-127515666D02*
X149473128Y-127134714D01*
X149949319Y-128658523D02*
X149949319Y-128087095D01*
X149949319Y-128372809D02*
X148949319Y-128372809D01*
X148949319Y-128372809D02*
X149092176Y-128277571D01*
X149092176Y-128277571D02*
X149187414Y-128182333D01*
X149187414Y-128182333D02*
X149235033Y-128087095D01*
X148949319Y-128991857D02*
X148949319Y-129610904D01*
X148949319Y-129610904D02*
X149330271Y-129277571D01*
X149330271Y-129277571D02*
X149330271Y-129420428D01*
X149330271Y-129420428D02*
X149377890Y-129515666D01*
X149377890Y-129515666D02*
X149425509Y-129563285D01*
X149425509Y-129563285D02*
X149520747Y-129610904D01*
X149520747Y-129610904D02*
X149758842Y-129610904D01*
X149758842Y-129610904D02*
X149854080Y-129563285D01*
X149854080Y-129563285D02*
X149901700Y-129515666D01*
X149901700Y-129515666D02*
X149949319Y-129420428D01*
X149949319Y-129420428D02*
X149949319Y-129134714D01*
X149949319Y-129134714D02*
X149901700Y-129039476D01*
X149901700Y-129039476D02*
X149854080Y-128991857D01*
X190381523Y-130246319D02*
X190381523Y-130960604D01*
X190381523Y-130960604D02*
X190429142Y-131103461D01*
X190429142Y-131103461D02*
X190524380Y-131198700D01*
X190524380Y-131198700D02*
X190667237Y-131246319D01*
X190667237Y-131246319D02*
X190762475Y-131246319D01*
X189952951Y-130341557D02*
X189905332Y-130293938D01*
X189905332Y-130293938D02*
X189810094Y-130246319D01*
X189810094Y-130246319D02*
X189571999Y-130246319D01*
X189571999Y-130246319D02*
X189476761Y-130293938D01*
X189476761Y-130293938D02*
X189429142Y-130341557D01*
X189429142Y-130341557D02*
X189381523Y-130436795D01*
X189381523Y-130436795D02*
X189381523Y-130532033D01*
X189381523Y-130532033D02*
X189429142Y-130674890D01*
X189429142Y-130674890D02*
X190000570Y-131246319D01*
X190000570Y-131246319D02*
X189381523Y-131246319D01*
X188810094Y-130674890D02*
X188905332Y-130627271D01*
X188905332Y-130627271D02*
X188952951Y-130579652D01*
X188952951Y-130579652D02*
X189000570Y-130484414D01*
X189000570Y-130484414D02*
X189000570Y-130436795D01*
X189000570Y-130436795D02*
X188952951Y-130341557D01*
X188952951Y-130341557D02*
X188905332Y-130293938D01*
X188905332Y-130293938D02*
X188810094Y-130246319D01*
X188810094Y-130246319D02*
X188619618Y-130246319D01*
X188619618Y-130246319D02*
X188524380Y-130293938D01*
X188524380Y-130293938D02*
X188476761Y-130341557D01*
X188476761Y-130341557D02*
X188429142Y-130436795D01*
X188429142Y-130436795D02*
X188429142Y-130484414D01*
X188429142Y-130484414D02*
X188476761Y-130579652D01*
X188476761Y-130579652D02*
X188524380Y-130627271D01*
X188524380Y-130627271D02*
X188619618Y-130674890D01*
X188619618Y-130674890D02*
X188810094Y-130674890D01*
X188810094Y-130674890D02*
X188905332Y-130722509D01*
X188905332Y-130722509D02*
X188952951Y-130770128D01*
X188952951Y-130770128D02*
X189000570Y-130865366D01*
X189000570Y-130865366D02*
X189000570Y-131055842D01*
X189000570Y-131055842D02*
X188952951Y-131151080D01*
X188952951Y-131151080D02*
X188905332Y-131198700D01*
X188905332Y-131198700D02*
X188810094Y-131246319D01*
X188810094Y-131246319D02*
X188619618Y-131246319D01*
X188619618Y-131246319D02*
X188524380Y-131198700D01*
X188524380Y-131198700D02*
X188476761Y-131151080D01*
X188476761Y-131151080D02*
X188429142Y-131055842D01*
X188429142Y-131055842D02*
X188429142Y-130865366D01*
X188429142Y-130865366D02*
X188476761Y-130770128D01*
X188476761Y-130770128D02*
X188524380Y-130722509D01*
X188524380Y-130722509D02*
X188619618Y-130674890D01*
X151489319Y-66579476D02*
X152203604Y-66579476D01*
X152203604Y-66579476D02*
X152346461Y-66531857D01*
X152346461Y-66531857D02*
X152441700Y-66436619D01*
X152441700Y-66436619D02*
X152489319Y-66293762D01*
X152489319Y-66293762D02*
X152489319Y-66198524D01*
X152489319Y-67579476D02*
X152489319Y-67008048D01*
X152489319Y-67293762D02*
X151489319Y-67293762D01*
X151489319Y-67293762D02*
X151632176Y-67198524D01*
X151632176Y-67198524D02*
X151727414Y-67103286D01*
X151727414Y-67103286D02*
X151775033Y-67008048D01*
X151489319Y-67912810D02*
X151489319Y-68579476D01*
X151489319Y-68579476D02*
X152489319Y-68150905D01*
X90894319Y-113418642D02*
X90418128Y-113085309D01*
X90894319Y-112847214D02*
X89894319Y-112847214D01*
X89894319Y-112847214D02*
X89894319Y-113228166D01*
X89894319Y-113228166D02*
X89941938Y-113323404D01*
X89941938Y-113323404D02*
X89989557Y-113371023D01*
X89989557Y-113371023D02*
X90084795Y-113418642D01*
X90084795Y-113418642D02*
X90227652Y-113418642D01*
X90227652Y-113418642D02*
X90322890Y-113371023D01*
X90322890Y-113371023D02*
X90370509Y-113323404D01*
X90370509Y-113323404D02*
X90418128Y-113228166D01*
X90418128Y-113228166D02*
X90418128Y-112847214D01*
X89894319Y-114323404D02*
X89894319Y-113847214D01*
X89894319Y-113847214D02*
X90370509Y-113799595D01*
X90370509Y-113799595D02*
X90322890Y-113847214D01*
X90322890Y-113847214D02*
X90275271Y-113942452D01*
X90275271Y-113942452D02*
X90275271Y-114180547D01*
X90275271Y-114180547D02*
X90322890Y-114275785D01*
X90322890Y-114275785D02*
X90370509Y-114323404D01*
X90370509Y-114323404D02*
X90465747Y-114371023D01*
X90465747Y-114371023D02*
X90703842Y-114371023D01*
X90703842Y-114371023D02*
X90799080Y-114323404D01*
X90799080Y-114323404D02*
X90846700Y-114275785D01*
X90846700Y-114275785D02*
X90894319Y-114180547D01*
X90894319Y-114180547D02*
X90894319Y-113942452D01*
X90894319Y-113942452D02*
X90846700Y-113847214D01*
X90846700Y-113847214D02*
X90799080Y-113799595D01*
X89894319Y-114704357D02*
X89894319Y-115323404D01*
X89894319Y-115323404D02*
X90275271Y-114990071D01*
X90275271Y-114990071D02*
X90275271Y-115132928D01*
X90275271Y-115132928D02*
X90322890Y-115228166D01*
X90322890Y-115228166D02*
X90370509Y-115275785D01*
X90370509Y-115275785D02*
X90465747Y-115323404D01*
X90465747Y-115323404D02*
X90703842Y-115323404D01*
X90703842Y-115323404D02*
X90799080Y-115275785D01*
X90799080Y-115275785D02*
X90846700Y-115228166D01*
X90846700Y-115228166D02*
X90894319Y-115132928D01*
X90894319Y-115132928D02*
X90894319Y-114847214D01*
X90894319Y-114847214D02*
X90846700Y-114751976D01*
X90846700Y-114751976D02*
X90799080Y-114704357D01*
X138040666Y-86417580D02*
X138088285Y-86465200D01*
X138088285Y-86465200D02*
X138231142Y-86512819D01*
X138231142Y-86512819D02*
X138326380Y-86512819D01*
X138326380Y-86512819D02*
X138469237Y-86465200D01*
X138469237Y-86465200D02*
X138564475Y-86369961D01*
X138564475Y-86369961D02*
X138612094Y-86274723D01*
X138612094Y-86274723D02*
X138659713Y-86084247D01*
X138659713Y-86084247D02*
X138659713Y-85941390D01*
X138659713Y-85941390D02*
X138612094Y-85750914D01*
X138612094Y-85750914D02*
X138564475Y-85655676D01*
X138564475Y-85655676D02*
X138469237Y-85560438D01*
X138469237Y-85560438D02*
X138326380Y-85512819D01*
X138326380Y-85512819D02*
X138231142Y-85512819D01*
X138231142Y-85512819D02*
X138088285Y-85560438D01*
X138088285Y-85560438D02*
X138040666Y-85608057D01*
X137135904Y-85512819D02*
X137612094Y-85512819D01*
X137612094Y-85512819D02*
X137659713Y-85989009D01*
X137659713Y-85989009D02*
X137612094Y-85941390D01*
X137612094Y-85941390D02*
X137516856Y-85893771D01*
X137516856Y-85893771D02*
X137278761Y-85893771D01*
X137278761Y-85893771D02*
X137183523Y-85941390D01*
X137183523Y-85941390D02*
X137135904Y-85989009D01*
X137135904Y-85989009D02*
X137088285Y-86084247D01*
X137088285Y-86084247D02*
X137088285Y-86322342D01*
X137088285Y-86322342D02*
X137135904Y-86417580D01*
X137135904Y-86417580D02*
X137183523Y-86465200D01*
X137183523Y-86465200D02*
X137278761Y-86512819D01*
X137278761Y-86512819D02*
X137516856Y-86512819D01*
X137516856Y-86512819D02*
X137612094Y-86465200D01*
X137612094Y-86465200D02*
X137659713Y-86417580D01*
X152489319Y-71191142D02*
X152013128Y-70857809D01*
X152489319Y-70619714D02*
X151489319Y-70619714D01*
X151489319Y-70619714D02*
X151489319Y-71000666D01*
X151489319Y-71000666D02*
X151536938Y-71095904D01*
X151536938Y-71095904D02*
X151584557Y-71143523D01*
X151584557Y-71143523D02*
X151679795Y-71191142D01*
X151679795Y-71191142D02*
X151822652Y-71191142D01*
X151822652Y-71191142D02*
X151917890Y-71143523D01*
X151917890Y-71143523D02*
X151965509Y-71095904D01*
X151965509Y-71095904D02*
X152013128Y-71000666D01*
X152013128Y-71000666D02*
X152013128Y-70619714D01*
X151489319Y-72048285D02*
X151489319Y-71857809D01*
X151489319Y-71857809D02*
X151536938Y-71762571D01*
X151536938Y-71762571D02*
X151584557Y-71714952D01*
X151584557Y-71714952D02*
X151727414Y-71619714D01*
X151727414Y-71619714D02*
X151917890Y-71572095D01*
X151917890Y-71572095D02*
X152298842Y-71572095D01*
X152298842Y-71572095D02*
X152394080Y-71619714D01*
X152394080Y-71619714D02*
X152441700Y-71667333D01*
X152441700Y-71667333D02*
X152489319Y-71762571D01*
X152489319Y-71762571D02*
X152489319Y-71953047D01*
X152489319Y-71953047D02*
X152441700Y-72048285D01*
X152441700Y-72048285D02*
X152394080Y-72095904D01*
X152394080Y-72095904D02*
X152298842Y-72143523D01*
X152298842Y-72143523D02*
X152060747Y-72143523D01*
X152060747Y-72143523D02*
X151965509Y-72095904D01*
X151965509Y-72095904D02*
X151917890Y-72048285D01*
X151917890Y-72048285D02*
X151870271Y-71953047D01*
X151870271Y-71953047D02*
X151870271Y-71762571D01*
X151870271Y-71762571D02*
X151917890Y-71667333D01*
X151917890Y-71667333D02*
X151965509Y-71619714D01*
X151965509Y-71619714D02*
X152060747Y-71572095D01*
X152489319Y-72619714D02*
X152489319Y-72810190D01*
X152489319Y-72810190D02*
X152441700Y-72905428D01*
X152441700Y-72905428D02*
X152394080Y-72953047D01*
X152394080Y-72953047D02*
X152251223Y-73048285D01*
X152251223Y-73048285D02*
X152060747Y-73095904D01*
X152060747Y-73095904D02*
X151679795Y-73095904D01*
X151679795Y-73095904D02*
X151584557Y-73048285D01*
X151584557Y-73048285D02*
X151536938Y-73000666D01*
X151536938Y-73000666D02*
X151489319Y-72905428D01*
X151489319Y-72905428D02*
X151489319Y-72714952D01*
X151489319Y-72714952D02*
X151536938Y-72619714D01*
X151536938Y-72619714D02*
X151584557Y-72572095D01*
X151584557Y-72572095D02*
X151679795Y-72524476D01*
X151679795Y-72524476D02*
X151917890Y-72524476D01*
X151917890Y-72524476D02*
X152013128Y-72572095D01*
X152013128Y-72572095D02*
X152060747Y-72619714D01*
X152060747Y-72619714D02*
X152108366Y-72714952D01*
X152108366Y-72714952D02*
X152108366Y-72905428D01*
X152108366Y-72905428D02*
X152060747Y-73000666D01*
X152060747Y-73000666D02*
X152013128Y-73048285D01*
X152013128Y-73048285D02*
X151917890Y-73095904D01*
X139789319Y-71191142D02*
X139313128Y-70857809D01*
X139789319Y-70619714D02*
X138789319Y-70619714D01*
X138789319Y-70619714D02*
X138789319Y-71000666D01*
X138789319Y-71000666D02*
X138836938Y-71095904D01*
X138836938Y-71095904D02*
X138884557Y-71143523D01*
X138884557Y-71143523D02*
X138979795Y-71191142D01*
X138979795Y-71191142D02*
X139122652Y-71191142D01*
X139122652Y-71191142D02*
X139217890Y-71143523D01*
X139217890Y-71143523D02*
X139265509Y-71095904D01*
X139265509Y-71095904D02*
X139313128Y-71000666D01*
X139313128Y-71000666D02*
X139313128Y-70619714D01*
X138789319Y-71524476D02*
X138789319Y-72191142D01*
X138789319Y-72191142D02*
X139789319Y-71762571D01*
X138789319Y-72762571D02*
X138789319Y-72857809D01*
X138789319Y-72857809D02*
X138836938Y-72953047D01*
X138836938Y-72953047D02*
X138884557Y-73000666D01*
X138884557Y-73000666D02*
X138979795Y-73048285D01*
X138979795Y-73048285D02*
X139170271Y-73095904D01*
X139170271Y-73095904D02*
X139408366Y-73095904D01*
X139408366Y-73095904D02*
X139598842Y-73048285D01*
X139598842Y-73048285D02*
X139694080Y-73000666D01*
X139694080Y-73000666D02*
X139741700Y-72953047D01*
X139741700Y-72953047D02*
X139789319Y-72857809D01*
X139789319Y-72857809D02*
X139789319Y-72762571D01*
X139789319Y-72762571D02*
X139741700Y-72667333D01*
X139741700Y-72667333D02*
X139694080Y-72619714D01*
X139694080Y-72619714D02*
X139598842Y-72572095D01*
X139598842Y-72572095D02*
X139408366Y-72524476D01*
X139408366Y-72524476D02*
X139170271Y-72524476D01*
X139170271Y-72524476D02*
X138979795Y-72572095D01*
X138979795Y-72572095D02*
X138884557Y-72619714D01*
X138884557Y-72619714D02*
X138836938Y-72667333D01*
X138836938Y-72667333D02*
X138789319Y-72762571D01*
X100456523Y-128756319D02*
X100456523Y-129470604D01*
X100456523Y-129470604D02*
X100504142Y-129613461D01*
X100504142Y-129613461D02*
X100599380Y-129708700D01*
X100599380Y-129708700D02*
X100742237Y-129756319D01*
X100742237Y-129756319D02*
X100837475Y-129756319D01*
X100027951Y-128851557D02*
X99980332Y-128803938D01*
X99980332Y-128803938D02*
X99885094Y-128756319D01*
X99885094Y-128756319D02*
X99646999Y-128756319D01*
X99646999Y-128756319D02*
X99551761Y-128803938D01*
X99551761Y-128803938D02*
X99504142Y-128851557D01*
X99504142Y-128851557D02*
X99456523Y-128946795D01*
X99456523Y-128946795D02*
X99456523Y-129042033D01*
X99456523Y-129042033D02*
X99504142Y-129184890D01*
X99504142Y-129184890D02*
X100075570Y-129756319D01*
X100075570Y-129756319D02*
X99456523Y-129756319D01*
X98599380Y-128756319D02*
X98789856Y-128756319D01*
X98789856Y-128756319D02*
X98885094Y-128803938D01*
X98885094Y-128803938D02*
X98932713Y-128851557D01*
X98932713Y-128851557D02*
X99027951Y-128994414D01*
X99027951Y-128994414D02*
X99075570Y-129184890D01*
X99075570Y-129184890D02*
X99075570Y-129565842D01*
X99075570Y-129565842D02*
X99027951Y-129661080D01*
X99027951Y-129661080D02*
X98980332Y-129708700D01*
X98980332Y-129708700D02*
X98885094Y-129756319D01*
X98885094Y-129756319D02*
X98694618Y-129756319D01*
X98694618Y-129756319D02*
X98599380Y-129708700D01*
X98599380Y-129708700D02*
X98551761Y-129661080D01*
X98551761Y-129661080D02*
X98504142Y-129565842D01*
X98504142Y-129565842D02*
X98504142Y-129327747D01*
X98504142Y-129327747D02*
X98551761Y-129232509D01*
X98551761Y-129232509D02*
X98599380Y-129184890D01*
X98599380Y-129184890D02*
X98694618Y-129137271D01*
X98694618Y-129137271D02*
X98885094Y-129137271D01*
X98885094Y-129137271D02*
X98980332Y-129184890D01*
X98980332Y-129184890D02*
X99027951Y-129232509D01*
X99027951Y-129232509D02*
X99075570Y-129327747D01*
X96291819Y-108367905D02*
X95291819Y-108367905D01*
X95291819Y-108367905D02*
X95291819Y-108606000D01*
X95291819Y-108606000D02*
X95339438Y-108748857D01*
X95339438Y-108748857D02*
X95434676Y-108844095D01*
X95434676Y-108844095D02*
X95529914Y-108891714D01*
X95529914Y-108891714D02*
X95720390Y-108939333D01*
X95720390Y-108939333D02*
X95863247Y-108939333D01*
X95863247Y-108939333D02*
X96053723Y-108891714D01*
X96053723Y-108891714D02*
X96148961Y-108844095D01*
X96148961Y-108844095D02*
X96244200Y-108748857D01*
X96244200Y-108748857D02*
X96291819Y-108606000D01*
X96291819Y-108606000D02*
X96291819Y-108367905D01*
X96291819Y-109415524D02*
X96291819Y-109606000D01*
X96291819Y-109606000D02*
X96244200Y-109701238D01*
X96244200Y-109701238D02*
X96196580Y-109748857D01*
X96196580Y-109748857D02*
X96053723Y-109844095D01*
X96053723Y-109844095D02*
X95863247Y-109891714D01*
X95863247Y-109891714D02*
X95482295Y-109891714D01*
X95482295Y-109891714D02*
X95387057Y-109844095D01*
X95387057Y-109844095D02*
X95339438Y-109796476D01*
X95339438Y-109796476D02*
X95291819Y-109701238D01*
X95291819Y-109701238D02*
X95291819Y-109510762D01*
X95291819Y-109510762D02*
X95339438Y-109415524D01*
X95339438Y-109415524D02*
X95387057Y-109367905D01*
X95387057Y-109367905D02*
X95482295Y-109320286D01*
X95482295Y-109320286D02*
X95720390Y-109320286D01*
X95720390Y-109320286D02*
X95815628Y-109367905D01*
X95815628Y-109367905D02*
X95863247Y-109415524D01*
X95863247Y-109415524D02*
X95910866Y-109510762D01*
X95910866Y-109510762D02*
X95910866Y-109701238D01*
X95910866Y-109701238D02*
X95863247Y-109796476D01*
X95863247Y-109796476D02*
X95815628Y-109844095D01*
X95815628Y-109844095D02*
X95720390Y-109891714D01*
X134931580Y-90971333D02*
X134979200Y-90923714D01*
X134979200Y-90923714D02*
X135026819Y-90780857D01*
X135026819Y-90780857D02*
X135026819Y-90685619D01*
X135026819Y-90685619D02*
X134979200Y-90542762D01*
X134979200Y-90542762D02*
X134883961Y-90447524D01*
X134883961Y-90447524D02*
X134788723Y-90399905D01*
X134788723Y-90399905D02*
X134598247Y-90352286D01*
X134598247Y-90352286D02*
X134455390Y-90352286D01*
X134455390Y-90352286D02*
X134264914Y-90399905D01*
X134264914Y-90399905D02*
X134169676Y-90447524D01*
X134169676Y-90447524D02*
X134074438Y-90542762D01*
X134074438Y-90542762D02*
X134026819Y-90685619D01*
X134026819Y-90685619D02*
X134026819Y-90780857D01*
X134026819Y-90780857D02*
X134074438Y-90923714D01*
X134074438Y-90923714D02*
X134122057Y-90971333D01*
X134455390Y-91542762D02*
X134407771Y-91447524D01*
X134407771Y-91447524D02*
X134360152Y-91399905D01*
X134360152Y-91399905D02*
X134264914Y-91352286D01*
X134264914Y-91352286D02*
X134217295Y-91352286D01*
X134217295Y-91352286D02*
X134122057Y-91399905D01*
X134122057Y-91399905D02*
X134074438Y-91447524D01*
X134074438Y-91447524D02*
X134026819Y-91542762D01*
X134026819Y-91542762D02*
X134026819Y-91733238D01*
X134026819Y-91733238D02*
X134074438Y-91828476D01*
X134074438Y-91828476D02*
X134122057Y-91876095D01*
X134122057Y-91876095D02*
X134217295Y-91923714D01*
X134217295Y-91923714D02*
X134264914Y-91923714D01*
X134264914Y-91923714D02*
X134360152Y-91876095D01*
X134360152Y-91876095D02*
X134407771Y-91828476D01*
X134407771Y-91828476D02*
X134455390Y-91733238D01*
X134455390Y-91733238D02*
X134455390Y-91542762D01*
X134455390Y-91542762D02*
X134503009Y-91447524D01*
X134503009Y-91447524D02*
X134550628Y-91399905D01*
X134550628Y-91399905D02*
X134645866Y-91352286D01*
X134645866Y-91352286D02*
X134836342Y-91352286D01*
X134836342Y-91352286D02*
X134931580Y-91399905D01*
X134931580Y-91399905D02*
X134979200Y-91447524D01*
X134979200Y-91447524D02*
X135026819Y-91542762D01*
X135026819Y-91542762D02*
X135026819Y-91733238D01*
X135026819Y-91733238D02*
X134979200Y-91828476D01*
X134979200Y-91828476D02*
X134931580Y-91876095D01*
X134931580Y-91876095D02*
X134836342Y-91923714D01*
X134836342Y-91923714D02*
X134645866Y-91923714D01*
X134645866Y-91923714D02*
X134550628Y-91876095D01*
X134550628Y-91876095D02*
X134503009Y-91828476D01*
X134503009Y-91828476D02*
X134455390Y-91733238D01*
X193801523Y-71288819D02*
X193801523Y-72003104D01*
X193801523Y-72003104D02*
X193849142Y-72145961D01*
X193849142Y-72145961D02*
X193944380Y-72241200D01*
X193944380Y-72241200D02*
X194087237Y-72288819D01*
X194087237Y-72288819D02*
X194182475Y-72288819D01*
X192801523Y-72288819D02*
X193372951Y-72288819D01*
X193087237Y-72288819D02*
X193087237Y-71288819D01*
X193087237Y-71288819D02*
X193182475Y-71431676D01*
X193182475Y-71431676D02*
X193277713Y-71526914D01*
X193277713Y-71526914D02*
X193372951Y-71574533D01*
X192325332Y-72288819D02*
X192134856Y-72288819D01*
X192134856Y-72288819D02*
X192039618Y-72241200D01*
X192039618Y-72241200D02*
X191991999Y-72193580D01*
X191991999Y-72193580D02*
X191896761Y-72050723D01*
X191896761Y-72050723D02*
X191849142Y-71860247D01*
X191849142Y-71860247D02*
X191849142Y-71479295D01*
X191849142Y-71479295D02*
X191896761Y-71384057D01*
X191896761Y-71384057D02*
X191944380Y-71336438D01*
X191944380Y-71336438D02*
X192039618Y-71288819D01*
X192039618Y-71288819D02*
X192230094Y-71288819D01*
X192230094Y-71288819D02*
X192325332Y-71336438D01*
X192325332Y-71336438D02*
X192372951Y-71384057D01*
X192372951Y-71384057D02*
X192420570Y-71479295D01*
X192420570Y-71479295D02*
X192420570Y-71717390D01*
X192420570Y-71717390D02*
X192372951Y-71812628D01*
X192372951Y-71812628D02*
X192325332Y-71860247D01*
X192325332Y-71860247D02*
X192230094Y-71907866D01*
X192230094Y-71907866D02*
X192039618Y-71907866D01*
X192039618Y-71907866D02*
X191944380Y-71860247D01*
X191944380Y-71860247D02*
X191896761Y-71812628D01*
X191896761Y-71812628D02*
X191849142Y-71717390D01*
X166094319Y-66579476D02*
X166808604Y-66579476D01*
X166808604Y-66579476D02*
X166951461Y-66531857D01*
X166951461Y-66531857D02*
X167046700Y-66436619D01*
X167046700Y-66436619D02*
X167094319Y-66293762D01*
X167094319Y-66293762D02*
X167094319Y-66198524D01*
X166189557Y-67008048D02*
X166141938Y-67055667D01*
X166141938Y-67055667D02*
X166094319Y-67150905D01*
X166094319Y-67150905D02*
X166094319Y-67389000D01*
X166094319Y-67389000D02*
X166141938Y-67484238D01*
X166141938Y-67484238D02*
X166189557Y-67531857D01*
X166189557Y-67531857D02*
X166284795Y-67579476D01*
X166284795Y-67579476D02*
X166380033Y-67579476D01*
X166380033Y-67579476D02*
X166522890Y-67531857D01*
X166522890Y-67531857D02*
X167094319Y-66960429D01*
X167094319Y-66960429D02*
X167094319Y-67579476D01*
X166427652Y-68436619D02*
X167094319Y-68436619D01*
X166046700Y-68198524D02*
X166760985Y-67960429D01*
X166760985Y-67960429D02*
X166760985Y-68579476D01*
X156934319Y-127706142D02*
X156458128Y-127372809D01*
X156934319Y-127134714D02*
X155934319Y-127134714D01*
X155934319Y-127134714D02*
X155934319Y-127515666D01*
X155934319Y-127515666D02*
X155981938Y-127610904D01*
X155981938Y-127610904D02*
X156029557Y-127658523D01*
X156029557Y-127658523D02*
X156124795Y-127706142D01*
X156124795Y-127706142D02*
X156267652Y-127706142D01*
X156267652Y-127706142D02*
X156362890Y-127658523D01*
X156362890Y-127658523D02*
X156410509Y-127610904D01*
X156410509Y-127610904D02*
X156458128Y-127515666D01*
X156458128Y-127515666D02*
X156458128Y-127134714D01*
X156029557Y-128087095D02*
X155981938Y-128134714D01*
X155981938Y-128134714D02*
X155934319Y-128229952D01*
X155934319Y-128229952D02*
X155934319Y-128468047D01*
X155934319Y-128468047D02*
X155981938Y-128563285D01*
X155981938Y-128563285D02*
X156029557Y-128610904D01*
X156029557Y-128610904D02*
X156124795Y-128658523D01*
X156124795Y-128658523D02*
X156220033Y-128658523D01*
X156220033Y-128658523D02*
X156362890Y-128610904D01*
X156362890Y-128610904D02*
X156934319Y-128039476D01*
X156934319Y-128039476D02*
X156934319Y-128658523D01*
X156029557Y-129039476D02*
X155981938Y-129087095D01*
X155981938Y-129087095D02*
X155934319Y-129182333D01*
X155934319Y-129182333D02*
X155934319Y-129420428D01*
X155934319Y-129420428D02*
X155981938Y-129515666D01*
X155981938Y-129515666D02*
X156029557Y-129563285D01*
X156029557Y-129563285D02*
X156124795Y-129610904D01*
X156124795Y-129610904D02*
X156220033Y-129610904D01*
X156220033Y-129610904D02*
X156362890Y-129563285D01*
X156362890Y-129563285D02*
X156934319Y-128991857D01*
X156934319Y-128991857D02*
X156934319Y-129610904D01*
D11*
%TO.C,R63*%
X116057000Y-72061064D02*
X116057000Y-71606936D01*
X117527000Y-72061064D02*
X117527000Y-71606936D01*
%TO.C,R21*%
X159872000Y-128121936D02*
X159872000Y-128576064D01*
X161342000Y-128121936D02*
X161342000Y-128576064D01*
%TO.C,R37*%
X189589936Y-101896500D02*
X190044064Y-101896500D01*
X189589936Y-103366500D02*
X190044064Y-103366500D01*
D12*
%TO.C,J5*%
X138414500Y-133566500D02*
X140594500Y-133566500D01*
X138414500Y-139246500D02*
X138414500Y-133566500D01*
X140184500Y-142816500D02*
X148644500Y-142816500D01*
X148234500Y-133566500D02*
X150414500Y-133566500D01*
X150414500Y-133566500D02*
X150414500Y-139246500D01*
D13*
X151314500Y-133866500D02*
G75*
G02*
X151114500Y-133866500I-100000J0D01*
G01*
X151114500Y-133866500D02*
G75*
G02*
X151314500Y-133866500I100000J0D01*
G01*
D11*
%TO.C,R42*%
X174477000Y-128576064D02*
X174477000Y-128121936D01*
X175947000Y-128576064D02*
X175947000Y-128121936D01*
%TO.C,R71*%
X142092000Y-72061064D02*
X142092000Y-71606936D01*
X143562000Y-72061064D02*
X143562000Y-71606936D01*
%TO.C,C7*%
X137216248Y-102770000D02*
X137738752Y-102770000D01*
X137216248Y-104240000D02*
X137738752Y-104240000D01*
%TO.C,R62*%
X114152000Y-72061064D02*
X114152000Y-71606936D01*
X115622000Y-72061064D02*
X115622000Y-71606936D01*
%TO.C,R60*%
X129074500Y-71606936D02*
X129074500Y-72061064D01*
X130544500Y-71606936D02*
X130544500Y-72061064D01*
%TO.C,C3*%
X151529000Y-89591248D02*
X151529000Y-90113752D01*
X152999000Y-89591248D02*
X152999000Y-90113752D01*
%TO.C,R52*%
X93514500Y-113834436D02*
X93514500Y-114288564D01*
X94984500Y-113834436D02*
X94984500Y-114288564D01*
D12*
%TO.C,J7*%
X151432000Y-133566500D02*
X153612000Y-133566500D01*
X151432000Y-139246500D02*
X151432000Y-133566500D01*
X153202000Y-142816500D02*
X161662000Y-142816500D01*
X161252000Y-133566500D02*
X163432000Y-133566500D01*
X163432000Y-133566500D02*
X163432000Y-139246500D01*
D13*
X164332000Y-133866500D02*
G75*
G02*
X164132000Y-133866500I-100000J0D01*
G01*
X164132000Y-133866500D02*
G75*
G02*
X164332000Y-133866500I100000J0D01*
G01*
D11*
%TO.C,D8*%
X185039500Y-101071500D02*
X185689500Y-101071500D01*
X185039500Y-104191500D02*
X185689500Y-104191500D01*
X186339500Y-101071500D02*
X185689500Y-101071500D01*
X186339500Y-104191500D02*
X185689500Y-104191500D01*
X184767000Y-104471500D02*
X184287000Y-104471500D01*
X184527000Y-104141500D01*
X184767000Y-104471500D01*
G36*
X184767000Y-104471500D02*
G01*
X184287000Y-104471500D01*
X184527000Y-104141500D01*
X184767000Y-104471500D01*
G37*
%TO.C,R68*%
X155109500Y-71606936D02*
X155109500Y-72061064D01*
X156579500Y-71606936D02*
X156579500Y-72061064D01*
%TO.C,R41*%
X187812000Y-128576064D02*
X187812000Y-128121936D01*
X189282000Y-128576064D02*
X189282000Y-128121936D01*
%TO.C,C2*%
X149985252Y-103173000D02*
X149462748Y-103173000D01*
X149985252Y-104643000D02*
X149462748Y-104643000D01*
D12*
%TO.C,J11*%
X112062000Y-65664000D02*
X112062000Y-59984000D01*
X114242000Y-65664000D02*
X112062000Y-65664000D01*
X122292000Y-56414000D02*
X113832000Y-56414000D01*
X124062000Y-59984000D02*
X124062000Y-65664000D01*
X124062000Y-65664000D02*
X121882000Y-65664000D01*
D13*
X111362000Y-65364000D02*
G75*
G02*
X111162000Y-65364000I-100000J0D01*
G01*
X111162000Y-65364000D02*
G75*
G02*
X111362000Y-65364000I100000J0D01*
G01*
D12*
%TO.C,J13*%
X125079500Y-65664000D02*
X125079500Y-59984000D01*
X127259500Y-65664000D02*
X125079500Y-65664000D01*
X135309500Y-56414000D02*
X126849500Y-56414000D01*
X137079500Y-59984000D02*
X137079500Y-65664000D01*
X137079500Y-65664000D02*
X134899500Y-65664000D01*
D13*
X124379500Y-65364000D02*
G75*
G02*
X124179500Y-65364000I-100000J0D01*
G01*
X124179500Y-65364000D02*
G75*
G02*
X124379500Y-65364000I100000J0D01*
G01*
D11*
%TO.C,C33*%
X102087000Y-83207752D02*
X102087000Y-82685248D01*
X103557000Y-83207752D02*
X103557000Y-82685248D01*
%TO.C,C6*%
X135472500Y-94988748D02*
X135472500Y-95511252D01*
X136942500Y-94988748D02*
X136942500Y-95511252D01*
%TO.C,C4*%
X149462748Y-100633000D02*
X149985252Y-100633000D01*
X149462748Y-102103000D02*
X149985252Y-102103000D01*
D12*
%TO.C,J30*%
X194717000Y-99489000D02*
X200397000Y-99489000D01*
X194717000Y-101669000D02*
X194717000Y-99489000D01*
X194717000Y-111489000D02*
X194717000Y-109309000D01*
X200397000Y-111489000D02*
X194717000Y-111489000D01*
X203967000Y-109719000D02*
X203967000Y-101259000D01*
D13*
X195117000Y-98689000D02*
G75*
G02*
X194917000Y-98689000I-100000J0D01*
G01*
X194917000Y-98689000D02*
G75*
G02*
X195117000Y-98689000I100000J0D01*
G01*
D11*
%TO.C,R61*%
X127169500Y-71606936D02*
X127169500Y-72061064D01*
X128639500Y-71606936D02*
X128639500Y-72061064D01*
D12*
%TO.C,J15*%
X138029500Y-65664000D02*
X138029500Y-59984000D01*
X140209500Y-65664000D02*
X138029500Y-65664000D01*
X148259500Y-56414000D02*
X139799500Y-56414000D01*
X150029500Y-59984000D02*
X150029500Y-65664000D01*
X150029500Y-65664000D02*
X147849500Y-65664000D01*
D13*
X137329500Y-65364000D02*
G75*
G02*
X137129500Y-65364000I-100000J0D01*
G01*
X137129500Y-65364000D02*
G75*
G02*
X137329500Y-65364000I100000J0D01*
G01*
D12*
%TO.C,J21*%
X166354500Y-133566500D02*
X168534500Y-133566500D01*
X166354500Y-139246500D02*
X166354500Y-133566500D01*
X168124500Y-142816500D02*
X176584500Y-142816500D01*
X176174500Y-133566500D02*
X178354500Y-133566500D01*
X178354500Y-133566500D02*
X178354500Y-139246500D01*
D13*
X179254500Y-133866500D02*
G75*
G02*
X179054500Y-133866500I-100000J0D01*
G01*
X179054500Y-133866500D02*
G75*
G02*
X179254500Y-133866500I100000J0D01*
G01*
D11*
%TO.C,R14*%
X144632000Y-128121936D02*
X144632000Y-128576064D01*
X146102000Y-128121936D02*
X146102000Y-128576064D01*
%TO.C,R13*%
X146854500Y-128121936D02*
X146854500Y-128576064D01*
X148324500Y-128121936D02*
X148324500Y-128576064D01*
D12*
%TO.C,J28*%
X179372000Y-133566500D02*
X181552000Y-133566500D01*
X179372000Y-139246500D02*
X179372000Y-133566500D01*
X181142000Y-142816500D02*
X189602000Y-142816500D01*
X189192000Y-133566500D02*
X191372000Y-133566500D01*
X191372000Y-133566500D02*
X191372000Y-139246500D01*
D13*
X192272000Y-133866500D02*
G75*
G02*
X192072000Y-133866500I-100000J0D01*
G01*
X192072000Y-133866500D02*
G75*
G02*
X192272000Y-133866500I100000J0D01*
G01*
D12*
%TO.C,J17*%
X151094500Y-65664000D02*
X151094500Y-59984000D01*
X153274500Y-65664000D02*
X151094500Y-65664000D01*
X161324500Y-56414000D02*
X152864500Y-56414000D01*
X163094500Y-59984000D02*
X163094500Y-65664000D01*
X163094500Y-65664000D02*
X160914500Y-65664000D01*
D13*
X150394500Y-65364000D02*
G75*
G02*
X150194500Y-65364000I-100000J0D01*
G01*
X150194500Y-65364000D02*
G75*
G02*
X150394500Y-65364000I100000J0D01*
G01*
D11*
%TO.C,R53*%
X91292000Y-114288564D02*
X91292000Y-113834436D01*
X92762000Y-114288564D02*
X92762000Y-113834436D01*
%TO.C,C5*%
X138056252Y-87212500D02*
X137533748Y-87212500D01*
X138056252Y-88682500D02*
X137533748Y-88682500D01*
%TO.C,R69*%
X153204500Y-71606936D02*
X153204500Y-72061064D01*
X154674500Y-71606936D02*
X154674500Y-72061064D01*
%TO.C,R70*%
X140187000Y-72061064D02*
X140187000Y-71606936D01*
X141657000Y-72061064D02*
X141657000Y-71606936D01*
D12*
%TO.C,J26*%
X88672000Y-119991500D02*
X88672000Y-128451500D01*
X92242000Y-118221500D02*
X97922000Y-118221500D01*
X97922000Y-118221500D02*
X97922000Y-120401500D01*
X97922000Y-128041500D02*
X97922000Y-130221500D01*
X97922000Y-130221500D02*
X92242000Y-130221500D01*
D13*
X97722000Y-131021500D02*
G75*
G02*
X97522000Y-131021500I-100000J0D01*
G01*
X97522000Y-131021500D02*
G75*
G02*
X97722000Y-131021500I100000J0D01*
G01*
D11*
%TO.C,D9*%
X91618000Y-108456000D02*
X91618000Y-109106000D01*
X91618000Y-109756000D02*
X91618000Y-109106000D01*
X94738000Y-108456000D02*
X94738000Y-109106000D01*
X94738000Y-109756000D02*
X94738000Y-109106000D01*
X91668000Y-107943500D02*
X91338000Y-108183500D01*
X91338000Y-107703500D01*
X91668000Y-107943500D01*
G36*
X91668000Y-107943500D02*
G01*
X91338000Y-108183500D01*
X91338000Y-107703500D01*
X91668000Y-107943500D01*
G37*
%TO.C,C8*%
X135472500Y-90861248D02*
X135472500Y-91383752D01*
X136942500Y-90861248D02*
X136942500Y-91383752D01*
D12*
%TO.C,J19*%
X194717000Y-70914000D02*
X200397000Y-70914000D01*
X194717000Y-73094000D02*
X194717000Y-70914000D01*
X194717000Y-82914000D02*
X194717000Y-80734000D01*
X200397000Y-82914000D02*
X194717000Y-82914000D01*
X203967000Y-81144000D02*
X203967000Y-72684000D01*
D13*
X195117000Y-70114000D02*
G75*
G02*
X194917000Y-70114000I-100000J0D01*
G01*
X194917000Y-70114000D02*
G75*
G02*
X195117000Y-70114000I100000J0D01*
G01*
D12*
%TO.C,J24*%
X165719500Y-65664000D02*
X165719500Y-59984000D01*
X167899500Y-65664000D02*
X165719500Y-65664000D01*
X175949500Y-56414000D02*
X167489500Y-56414000D01*
X177719500Y-59984000D02*
X177719500Y-65664000D01*
X177719500Y-65664000D02*
X175539500Y-65664000D01*
D13*
X165019500Y-65364000D02*
G75*
G02*
X164819500Y-65364000I-100000J0D01*
G01*
X164819500Y-65364000D02*
G75*
G02*
X165019500Y-65364000I100000J0D01*
G01*
D11*
%TO.C,R22*%
X157649500Y-128121936D02*
X157649500Y-128576064D01*
X159119500Y-128121936D02*
X159119500Y-128576064D01*
%TD*%
D14*
X99556500Y-84093000D02*
X100556500Y-84093000D01*
X205082000Y-55324000D02*
X205082000Y-143824000D01*
X87582000Y-55324000D02*
X205082000Y-55324000D01*
X99556500Y-84093000D02*
G75*
G02*
X99556500Y-81933000I-1870600J1080000D01*
G01*
X205082000Y-143824000D02*
X87582000Y-143824000D01*
X99556500Y-81933000D02*
X100556500Y-81933000D01*
X87582000Y-143824000D02*
X87582000Y-55324000D01*
X100556500Y-84093000D02*
G75*
G02*
X100556500Y-81933000I-2888600J1080000D01*
G01*
M02*
