%TF.GenerationSoftware,KiCad,Pcbnew,8.0.8-8.0.8-0~ubuntu22.04.1*%
%TF.CreationDate,2025-01-21T09:43:48+01:00*%
%TF.ProjectId,carte-io,63617274-652d-4696-9f2e-6b696361645f,1.0*%
%TF.SameCoordinates,Original*%
%TF.FileFunction,Other,User*%
%FSLAX46Y46*%
G04 Gerber Fmt 4.6, Leading zero omitted, Abs format (unit mm)*
G04 Created by KiCad (PCBNEW 8.0.8-8.0.8-0~ubuntu22.04.1) date 2025-01-21 09:43:48*
%MOMM*%
%LPD*%
G01*
G04 APERTURE LIST*
%ADD10C,0.050000*%
%TA.AperFunction,Profile*%
%ADD11C,0.050000*%
%TD*%
G04 APERTURE END LIST*
D10*
%TO.C,J3*%
X93721000Y-68989000D02*
X100571000Y-68989000D01*
X93721000Y-76349000D02*
X93721000Y-68989000D01*
X100571000Y-68989000D02*
X100571000Y-76349000D01*
X100571000Y-76349000D02*
X93721000Y-76349000D01*
%TO.C,R63*%
X118684000Y-70032000D02*
X120584000Y-70032000D01*
X118684000Y-73732000D02*
X118684000Y-70032000D01*
X120584000Y-70032000D02*
X120584000Y-73732000D01*
X120584000Y-73732000D02*
X118684000Y-73732000D01*
%TO.C,R21*%
X158426000Y-126442000D02*
X160326000Y-126442000D01*
X158426000Y-130142000D02*
X158426000Y-126442000D01*
X160326000Y-126442000D02*
X160326000Y-130142000D01*
X160326000Y-130142000D02*
X158426000Y-130142000D01*
%TO.C,R4*%
X97312000Y-95147500D02*
X101012000Y-95147500D01*
X97312000Y-97047500D02*
X97312000Y-95147500D01*
X101012000Y-95147500D02*
X101012000Y-97047500D01*
X101012000Y-97047500D02*
X97312000Y-97047500D01*
%TO.C,J6*%
X151800000Y-130922000D02*
X151800000Y-141822000D01*
X151800000Y-141822000D02*
X157300000Y-141822000D01*
X157300000Y-130922000D02*
X151800000Y-130922000D01*
X157300000Y-141822000D02*
X157300000Y-130922000D01*
%TO.C,R66*%
X150688000Y-70032000D02*
X152588000Y-70032000D01*
X150688000Y-73732000D02*
X150688000Y-70032000D01*
X152588000Y-70032000D02*
X152588000Y-73732000D01*
X152588000Y-73732000D02*
X150688000Y-73732000D01*
%TO.C,D1*%
X115707500Y-92353500D02*
X119067500Y-92353500D01*
X115707500Y-94253500D02*
X115707500Y-92353500D01*
X119067500Y-92353500D02*
X119067500Y-94253500D01*
X119067500Y-94253500D02*
X115707500Y-94253500D01*
%TO.C,H2*%
X202450000Y-61000000D02*
G75*
G02*
X195550000Y-61000000I-3450000J0D01*
G01*
X195550000Y-61000000D02*
G75*
G02*
X202450000Y-61000000I3450000J0D01*
G01*
%TO.C,J5*%
X145238000Y-130922000D02*
X145238000Y-141822000D01*
X145238000Y-141822000D02*
X150738000Y-141822000D01*
X150738000Y-130922000D02*
X145238000Y-130922000D01*
X150738000Y-141822000D02*
X150738000Y-130922000D01*
%TO.C,H1*%
X97450000Y-61000000D02*
G75*
G02*
X90550000Y-61000000I-3450000J0D01*
G01*
X90550000Y-61000000D02*
G75*
G02*
X97450000Y-61000000I3450000J0D01*
G01*
%TO.C,R42*%
X181540000Y-138634000D02*
X183440000Y-138634000D01*
X181540000Y-142334000D02*
X181540000Y-138634000D01*
X183440000Y-138634000D02*
X183440000Y-142334000D01*
X183440000Y-142334000D02*
X181540000Y-142334000D01*
%TO.C,C12*%
X127756500Y-107246000D02*
X131516500Y-107246000D01*
X127756500Y-109206000D02*
X127756500Y-107246000D01*
X131516500Y-107246000D02*
X131516500Y-109206000D01*
X131516500Y-109206000D02*
X127756500Y-109206000D01*
%TO.C,U20*%
X181120000Y-76890000D02*
X181120000Y-81450000D01*
X181120000Y-81450000D02*
X183620000Y-81450000D01*
X183620000Y-76890000D02*
X181120000Y-76890000D01*
X183620000Y-81450000D02*
X183620000Y-76890000D01*
%TO.C,C36*%
X140108000Y-77644000D02*
X142068000Y-77644000D01*
X140108000Y-81404000D02*
X140108000Y-77644000D01*
X142068000Y-77644000D02*
X142068000Y-81404000D01*
X142068000Y-81404000D02*
X140108000Y-81404000D01*
%TO.C,C46*%
X126072500Y-116876000D02*
X129832500Y-116876000D01*
X126072500Y-118836000D02*
X126072500Y-116876000D01*
X129832500Y-116876000D02*
X129832500Y-118836000D01*
X129832500Y-118836000D02*
X126072500Y-118836000D01*
%TO.C,C39*%
X112102500Y-116812500D02*
X115862500Y-116812500D01*
X112102500Y-118772500D02*
X112102500Y-116812500D01*
X115862500Y-116812500D02*
X115862500Y-118772500D01*
X115862500Y-118772500D02*
X112102500Y-118772500D01*
%TO.C,U12*%
X160740000Y-95085500D02*
X160740000Y-98085500D01*
X160740000Y-98085500D02*
X164240000Y-98085500D01*
X164240000Y-95085500D02*
X160740000Y-95085500D01*
X164240000Y-98085500D02*
X164240000Y-95085500D01*
%TO.C,R8*%
X111298000Y-94893500D02*
X114998000Y-94893500D01*
X111298000Y-96793500D02*
X111298000Y-94893500D01*
X114998000Y-94893500D02*
X114998000Y-96793500D01*
X114998000Y-96793500D02*
X111298000Y-96793500D01*
%TO.C,R71*%
X144084000Y-70038000D02*
X145984000Y-70038000D01*
X144084000Y-73738000D02*
X144084000Y-70038000D01*
X145984000Y-70038000D02*
X145984000Y-73738000D01*
X145984000Y-73738000D02*
X144084000Y-73738000D01*
%TO.C,R17*%
X128190000Y-130296500D02*
X131890000Y-130296500D01*
X128190000Y-132196500D02*
X128190000Y-130296500D01*
X131890000Y-130296500D02*
X131890000Y-132196500D01*
X131890000Y-132196500D02*
X128190000Y-132196500D01*
%TO.C,H3*%
X97450000Y-138000000D02*
G75*
G02*
X90550000Y-138000000I-3450000J0D01*
G01*
X90550000Y-138000000D02*
G75*
G02*
X97450000Y-138000000I3450000J0D01*
G01*
%TO.C,R19*%
X152076000Y-126442000D02*
X153976000Y-126442000D01*
X152076000Y-130142000D02*
X152076000Y-126442000D01*
X153976000Y-126442000D02*
X153976000Y-130142000D01*
X153976000Y-130142000D02*
X152076000Y-130142000D01*
%TO.C,D6*%
X89894000Y-106768000D02*
X93254000Y-106768000D01*
X89894000Y-108668000D02*
X89894000Y-106768000D01*
X93254000Y-106768000D02*
X93254000Y-108668000D01*
X93254000Y-108668000D02*
X89894000Y-108668000D01*
%TO.C,R24*%
X109846500Y-127447000D02*
X113546500Y-127447000D01*
X109846500Y-129347000D02*
X109846500Y-127447000D01*
X113546500Y-127447000D02*
X113546500Y-129347000D01*
X113546500Y-129347000D02*
X109846500Y-129347000D01*
%TO.C,FB1*%
X97178000Y-92423500D02*
X97178000Y-94183500D01*
X97178000Y-94183500D02*
X101178000Y-94183500D01*
X101178000Y-92423500D02*
X97178000Y-92423500D01*
X101178000Y-94183500D02*
X101178000Y-92423500D01*
%TO.C,R55*%
X167706000Y-70308000D02*
X169606000Y-70308000D01*
X167706000Y-74008000D02*
X167706000Y-70308000D01*
X169606000Y-70308000D02*
X169606000Y-74008000D01*
X169606000Y-74008000D02*
X167706000Y-74008000D01*
%TO.C,C32*%
X157634000Y-89306500D02*
X159594000Y-89306500D01*
X157634000Y-93066500D02*
X157634000Y-89306500D01*
X159594000Y-89306500D02*
X159594000Y-93066500D01*
X159594000Y-93066500D02*
X157634000Y-93066500D01*
%TO.C,R62*%
X121224000Y-70032000D02*
X123124000Y-70032000D01*
X121224000Y-73732000D02*
X121224000Y-70032000D01*
X123124000Y-70032000D02*
X123124000Y-73732000D01*
X123124000Y-73732000D02*
X121224000Y-73732000D01*
%TO.C,R60*%
X131384000Y-70032000D02*
X133284000Y-70032000D01*
X131384000Y-73732000D02*
X131384000Y-70032000D01*
X133284000Y-70032000D02*
X133284000Y-73732000D01*
X133284000Y-73732000D02*
X131384000Y-73732000D01*
%TO.C,R16*%
X124126000Y-127502500D02*
X127826000Y-127502500D01*
X124126000Y-129402500D02*
X124126000Y-127502500D01*
X127826000Y-127502500D02*
X127826000Y-129402500D01*
X127826000Y-129402500D02*
X124126000Y-129402500D01*
%TO.C,U19*%
X166620000Y-90100000D02*
X166620000Y-92100000D01*
X166620000Y-92100000D02*
X169020000Y-92100000D01*
X169020000Y-90100000D02*
X166620000Y-90100000D01*
X169020000Y-92100000D02*
X169020000Y-90100000D01*
%TO.C,R52*%
X95804000Y-83654000D02*
X99504000Y-83654000D01*
X95804000Y-85554000D02*
X95804000Y-83654000D01*
X99504000Y-83654000D02*
X99504000Y-85554000D01*
X99504000Y-85554000D02*
X95804000Y-85554000D01*
%TO.C,R12*%
X141916000Y-126442000D02*
X143816000Y-126442000D01*
X141916000Y-130142000D02*
X141916000Y-126442000D01*
X143816000Y-126442000D02*
X143816000Y-130142000D01*
X143816000Y-130142000D02*
X141916000Y-130142000D01*
%TO.C,R46*%
X189006000Y-89594000D02*
X192706000Y-89594000D01*
X189006000Y-91494000D02*
X189006000Y-89594000D01*
X192706000Y-89594000D02*
X192706000Y-91494000D01*
X192706000Y-91494000D02*
X189006000Y-91494000D01*
%TO.C,U11*%
X151598000Y-115890000D02*
X159298000Y-115890000D01*
X151598000Y-121390000D02*
X151598000Y-115890000D01*
X159298000Y-115890000D02*
X159298000Y-121390000D01*
X159298000Y-121390000D02*
X151598000Y-121390000D01*
%TO.C,J8*%
X121780000Y-133558500D02*
X132440000Y-133558500D01*
X121780000Y-141678500D02*
X121780000Y-133558500D01*
X132440000Y-133558500D02*
X132440000Y-141678500D01*
X132440000Y-141678500D02*
X121780000Y-141678500D01*
%TO.C,R64*%
X137988000Y-70032000D02*
X139888000Y-70032000D01*
X137988000Y-73732000D02*
X137988000Y-70032000D01*
X139888000Y-70032000D02*
X139888000Y-73732000D01*
X139888000Y-73732000D02*
X137988000Y-73732000D01*
%TO.C,C38*%
X187098000Y-71040000D02*
X189058000Y-71040000D01*
X187098000Y-74800000D02*
X187098000Y-71040000D01*
X189058000Y-71040000D02*
X189058000Y-74800000D01*
X189058000Y-74800000D02*
X187098000Y-74800000D01*
%TO.C,J7*%
X158150000Y-130970000D02*
X158150000Y-141870000D01*
X158150000Y-141870000D02*
X163650000Y-141870000D01*
X163650000Y-130970000D02*
X158150000Y-130970000D01*
X163650000Y-141870000D02*
X163650000Y-130970000D01*
%TO.C,R57*%
X115128000Y-70032000D02*
X117028000Y-70032000D01*
X115128000Y-73732000D02*
X115128000Y-70032000D01*
X117028000Y-70032000D02*
X117028000Y-73732000D01*
X117028000Y-73732000D02*
X115128000Y-73732000D01*
%TO.C,C45*%
X172503500Y-96324000D02*
X176263500Y-96324000D01*
X172503500Y-98284000D02*
X172503500Y-96324000D01*
X176263500Y-96324000D02*
X176263500Y-98284000D01*
X176263500Y-98284000D02*
X172503500Y-98284000D01*
%TO.C,J2*%
X85816000Y-120536000D02*
X85816000Y-128936000D01*
X85816000Y-128936000D02*
X98316000Y-128936000D01*
X98316000Y-120536000D02*
X85816000Y-120536000D01*
X98316000Y-128936000D02*
X98316000Y-120536000D01*
%TO.C,U33*%
X182271500Y-71612000D02*
X182271500Y-74412000D01*
X182651500Y-71262000D02*
X182651500Y-71612000D01*
X182651500Y-71262000D02*
X186151500Y-71262000D01*
X182651500Y-71612000D02*
X182271500Y-71612000D01*
X182651500Y-74412000D02*
X182271500Y-74412000D01*
X182651500Y-74762000D02*
X182651500Y-74412000D01*
X182651500Y-74762000D02*
X186151500Y-74762000D01*
X186151500Y-71262000D02*
X186151500Y-71612000D01*
X186151500Y-71612000D02*
X186531500Y-71612000D01*
X186151500Y-74412000D02*
X186531500Y-74412000D01*
X186151500Y-74762000D02*
X186151500Y-74412000D01*
X186531500Y-71612000D02*
X186531500Y-74412000D01*
%TO.C,J27*%
X196189500Y-88116500D02*
X196189500Y-101016500D01*
X196189500Y-101016500D02*
X201689500Y-101016500D01*
X201689500Y-88116500D02*
X196189500Y-88116500D01*
X201689500Y-101016500D02*
X201689500Y-88116500D01*
%TO.C,R73*%
X99242000Y-125034000D02*
X102942000Y-125034000D01*
X99242000Y-126934000D02*
X99242000Y-125034000D01*
X102942000Y-125034000D02*
X102942000Y-126934000D01*
X102942000Y-126934000D02*
X99242000Y-126934000D01*
%TO.C,R68*%
X157038000Y-70032000D02*
X158938000Y-70032000D01*
X157038000Y-73732000D02*
X157038000Y-70032000D01*
X158938000Y-70032000D02*
X158938000Y-73732000D01*
X158938000Y-73732000D02*
X157038000Y-73732000D01*
%TO.C,J12*%
X137364000Y-57516000D02*
X137364000Y-68416000D01*
X137364000Y-68416000D02*
X142864000Y-68416000D01*
X142864000Y-57516000D02*
X137364000Y-57516000D01*
X142864000Y-68416000D02*
X142864000Y-57516000D01*
%TO.C,R31*%
X189158000Y-79238000D02*
X192858000Y-79238000D01*
X189158000Y-81138000D02*
X189158000Y-79238000D01*
X192858000Y-79238000D02*
X192858000Y-81138000D01*
X192858000Y-81138000D02*
X189158000Y-81138000D01*
%TO.C,J4*%
X138796000Y-130922000D02*
X138796000Y-141822000D01*
X138796000Y-141822000D02*
X144296000Y-141822000D01*
X144296000Y-130922000D02*
X138796000Y-130922000D01*
X144296000Y-141822000D02*
X144296000Y-130922000D01*
%TO.C,R41*%
X179000000Y-138634000D02*
X180900000Y-138634000D01*
X179000000Y-142334000D02*
X179000000Y-138634000D01*
X180900000Y-138634000D02*
X180900000Y-142334000D01*
X180900000Y-142334000D02*
X179000000Y-142334000D01*
%TO.C,R75*%
X104830000Y-128336000D02*
X108530000Y-128336000D01*
X104830000Y-130236000D02*
X104830000Y-128336000D01*
X108530000Y-128336000D02*
X108530000Y-130236000D01*
X108530000Y-130236000D02*
X104830000Y-130236000D01*
%TO.C,SW1*%
X194650000Y-116306000D02*
X194650000Y-123006000D01*
X194650000Y-116306000D02*
X203350000Y-116306000D01*
X194650000Y-123006000D02*
X203350000Y-123006000D01*
X203350000Y-123006000D02*
X203350000Y-116306000D01*
%TO.C,C16*%
X104939500Y-88259500D02*
X108699500Y-88259500D01*
X104939500Y-90219500D02*
X104939500Y-88259500D01*
X108699500Y-88259500D02*
X108699500Y-90219500D01*
X108699500Y-90219500D02*
X104939500Y-90219500D01*
%TO.C,J18*%
X193550000Y-75800000D02*
X193550000Y-81300000D01*
X193550000Y-81300000D02*
X204450000Y-81300000D01*
X204450000Y-75800000D02*
X193550000Y-75800000D01*
X204450000Y-81300000D02*
X204450000Y-75800000D01*
%TO.C,U15*%
X121332000Y-75674000D02*
X121332000Y-83374000D01*
X121332000Y-83374000D02*
X128332000Y-83374000D01*
X128332000Y-75674000D02*
X121332000Y-75674000D01*
X128332000Y-83374000D02*
X128332000Y-75674000D01*
%TO.C,U18*%
X166731500Y-94772000D02*
X166731500Y-97272000D01*
X166731500Y-97272000D02*
X169291500Y-97272000D01*
X169291500Y-94772000D02*
X166731500Y-94772000D01*
X169291500Y-97272000D02*
X169291500Y-94772000D01*
%TO.C,U6*%
X139152000Y-115868000D02*
X146852000Y-115868000D01*
X139152000Y-121368000D02*
X139152000Y-115868000D01*
X146852000Y-115868000D02*
X146852000Y-121368000D01*
X146852000Y-121368000D02*
X139152000Y-121368000D01*
%TO.C,D7*%
X200114000Y-110324000D02*
X203474000Y-110324000D01*
X200114000Y-112224000D02*
X200114000Y-110324000D01*
X203474000Y-110324000D02*
X203474000Y-112224000D01*
X203474000Y-112224000D02*
X200114000Y-112224000D01*
%TO.C,C11*%
X127778000Y-103944000D02*
X131538000Y-103944000D01*
X127778000Y-105904000D02*
X127778000Y-103944000D01*
X131538000Y-103944000D02*
X131538000Y-105904000D01*
X131538000Y-105904000D02*
X127778000Y-105904000D01*
%TO.C,R39*%
X184080000Y-127442000D02*
X185980000Y-127442000D01*
X184080000Y-131142000D02*
X184080000Y-127442000D01*
X185980000Y-127442000D02*
X185980000Y-131142000D01*
X185980000Y-131142000D02*
X184080000Y-131142000D01*
%TO.C,J11*%
X118222000Y-57516000D02*
X118222000Y-68416000D01*
X118222000Y-68416000D02*
X123722000Y-68416000D01*
X123722000Y-57516000D02*
X118222000Y-57516000D01*
X123722000Y-68416000D02*
X123722000Y-57516000D01*
%TO.C,D4*%
X89894000Y-109816000D02*
X93254000Y-109816000D01*
X89894000Y-111716000D02*
X89894000Y-109816000D01*
X93254000Y-109816000D02*
X93254000Y-111716000D01*
X93254000Y-111716000D02*
X89894000Y-111716000D01*
%TO.C,U36*%
X104524500Y-122956000D02*
X108824500Y-122956000D01*
X104524500Y-127256000D02*
X104524500Y-122956000D01*
X108824500Y-122956000D02*
X108824500Y-127256000D01*
X108824500Y-127256000D02*
X104524500Y-127256000D01*
%TO.C,R1*%
X137730000Y-83654000D02*
X141430000Y-83654000D01*
X137730000Y-85554000D02*
X137730000Y-83654000D01*
X141430000Y-83654000D02*
X141430000Y-85554000D01*
X141430000Y-85554000D02*
X137730000Y-85554000D01*
%TO.C,C18*%
X101891500Y-105976000D02*
X105651500Y-105976000D01*
X101891500Y-107936000D02*
X101891500Y-105976000D01*
X105651500Y-105976000D02*
X105651500Y-107936000D01*
X105651500Y-107936000D02*
X101891500Y-107936000D01*
%TO.C,J15*%
X131014000Y-57516000D02*
X131014000Y-68416000D01*
X131014000Y-68416000D02*
X136514000Y-68416000D01*
X136514000Y-57516000D02*
X131014000Y-57516000D01*
X136514000Y-68416000D02*
X136514000Y-57516000D01*
%TO.C,R6*%
X111314000Y-99973500D02*
X115014000Y-99973500D01*
X111314000Y-101873500D02*
X111314000Y-99973500D01*
X115014000Y-99973500D02*
X115014000Y-101873500D01*
X115014000Y-101873500D02*
X111314000Y-101873500D01*
%TO.C,R30*%
X160966000Y-83500000D02*
X162866000Y-83500000D01*
X160966000Y-87200000D02*
X160966000Y-83500000D01*
X162866000Y-83500000D02*
X162866000Y-87200000D01*
X162866000Y-87200000D02*
X160966000Y-87200000D01*
%TO.C,C33*%
X170334000Y-89349500D02*
X172294000Y-89349500D01*
X170334000Y-93109500D02*
X170334000Y-89349500D01*
X172294000Y-89349500D02*
X172294000Y-93109500D01*
X172294000Y-93109500D02*
X170334000Y-93109500D01*
%TO.C,U1*%
X135107000Y-89618000D02*
X135107000Y-96018000D01*
X135107000Y-102418000D02*
X135107000Y-96018000D01*
X136577000Y-88768000D02*
X136577000Y-89618000D01*
X136577000Y-89618000D02*
X135107000Y-89618000D01*
X136577000Y-102418000D02*
X135107000Y-102418000D01*
X136577000Y-103268000D02*
X136577000Y-102418000D01*
X137427000Y-87298000D02*
X137427000Y-88768000D01*
X137427000Y-88768000D02*
X136577000Y-88768000D01*
X137427000Y-103268000D02*
X136577000Y-103268000D01*
X137427000Y-104738000D02*
X137427000Y-103268000D01*
X143827000Y-87298000D02*
X137427000Y-87298000D01*
X143827000Y-87298000D02*
X150227000Y-87298000D01*
X143827000Y-104738000D02*
X137427000Y-104738000D01*
X143827000Y-104738000D02*
X150227000Y-104738000D01*
X150227000Y-87298000D02*
X150227000Y-88768000D01*
X150227000Y-88768000D02*
X151077000Y-88768000D01*
X150227000Y-103268000D02*
X151077000Y-103268000D01*
X150227000Y-104738000D02*
X150227000Y-103268000D01*
X151077000Y-88768000D02*
X151077000Y-89618000D01*
X151077000Y-89618000D02*
X152547000Y-89618000D01*
X151077000Y-102418000D02*
X152547000Y-102418000D01*
X151077000Y-103268000D02*
X151077000Y-102418000D01*
X152547000Y-89618000D02*
X152547000Y-96018000D01*
X152547000Y-102418000D02*
X152547000Y-96018000D01*
%TO.C,U28*%
X181240000Y-89690000D02*
X181240000Y-94250000D01*
X181240000Y-94250000D02*
X183740000Y-94250000D01*
X183740000Y-89690000D02*
X181240000Y-89690000D01*
X183740000Y-94250000D02*
X183740000Y-89690000D01*
%TO.C,R11*%
X138966000Y-126442000D02*
X140866000Y-126442000D01*
X138966000Y-130142000D02*
X138966000Y-126442000D01*
X140866000Y-126442000D02*
X140866000Y-130142000D01*
X140866000Y-130142000D02*
X138966000Y-130142000D01*
%TO.C,C20*%
X112559500Y-105976000D02*
X116319500Y-105976000D01*
X112559500Y-107936000D02*
X112559500Y-105976000D01*
X116319500Y-105976000D02*
X116319500Y-107936000D01*
X116319500Y-107936000D02*
X112559500Y-107936000D01*
%TO.C,R27*%
X94042000Y-106768000D02*
X97742000Y-106768000D01*
X94042000Y-108668000D02*
X94042000Y-106768000D01*
X97742000Y-106768000D02*
X97742000Y-108668000D01*
X97742000Y-108668000D02*
X94042000Y-108668000D01*
%TO.C,X1*%
X127692000Y-93381000D02*
X127692000Y-96781000D01*
X127692000Y-96781000D02*
X131692000Y-96781000D01*
X131692000Y-93381000D02*
X127692000Y-93381000D01*
X131692000Y-96781000D02*
X131692000Y-93381000D01*
%TO.C,R44*%
X184688000Y-98894000D02*
X188388000Y-98894000D01*
X184688000Y-100794000D02*
X184688000Y-98894000D01*
X188388000Y-98894000D02*
X188388000Y-100794000D01*
X188388000Y-100794000D02*
X184688000Y-100794000D01*
%TO.C,R3*%
X97312000Y-97941500D02*
X101012000Y-97941500D01*
X97312000Y-99841500D02*
X97312000Y-97941500D01*
X101012000Y-97941500D02*
X101012000Y-99841500D01*
X101012000Y-99841500D02*
X97312000Y-99841500D01*
%TO.C,C13*%
X97319500Y-100959500D02*
X101079500Y-100959500D01*
X97319500Y-102919500D02*
X97319500Y-100959500D01*
X101079500Y-100959500D02*
X101079500Y-102919500D01*
X101079500Y-102919500D02*
X97319500Y-102919500D01*
%TO.C,C35*%
X118010000Y-77644000D02*
X119970000Y-77644000D01*
X118010000Y-81404000D02*
X118010000Y-77644000D01*
X119970000Y-77644000D02*
X119970000Y-81404000D01*
X119970000Y-81404000D02*
X118010000Y-81404000D01*
%TO.C,R61*%
X133924000Y-70032000D02*
X135824000Y-70032000D01*
X133924000Y-73732000D02*
X133924000Y-70032000D01*
X135824000Y-70032000D02*
X135824000Y-73732000D01*
X135824000Y-73732000D02*
X133924000Y-73732000D01*
%TO.C,J10*%
X111964000Y-57516000D02*
X111964000Y-68416000D01*
X111964000Y-68416000D02*
X117464000Y-68416000D01*
X117464000Y-57516000D02*
X111964000Y-57516000D01*
X117464000Y-68416000D02*
X117464000Y-57516000D01*
%TO.C,U26*%
X181240000Y-83340000D02*
X181240000Y-87900000D01*
X181240000Y-87900000D02*
X183740000Y-87900000D01*
X183740000Y-83340000D02*
X181240000Y-83340000D01*
X183740000Y-87900000D02*
X183740000Y-83340000D01*
%TO.C,J13*%
X143714000Y-57516000D02*
X143714000Y-68416000D01*
X143714000Y-68416000D02*
X149214000Y-68416000D01*
X149214000Y-57516000D02*
X143714000Y-57516000D01*
X149214000Y-68416000D02*
X149214000Y-57516000D01*
%TO.C,R50*%
X173920000Y-138634000D02*
X175820000Y-138634000D01*
X173920000Y-142334000D02*
X173920000Y-138634000D01*
X175820000Y-138634000D02*
X175820000Y-142334000D01*
X175820000Y-142334000D02*
X173920000Y-142334000D01*
%TO.C,R59*%
X127828000Y-70032000D02*
X129728000Y-70032000D01*
X127828000Y-73732000D02*
X127828000Y-70032000D01*
X129728000Y-70032000D02*
X129728000Y-73732000D01*
X129728000Y-73732000D02*
X127828000Y-73732000D01*
%TO.C,C21*%
X117131500Y-105976000D02*
X120891500Y-105976000D01*
X117131500Y-107936000D02*
X117131500Y-105976000D01*
X120891500Y-105976000D02*
X120891500Y-107936000D01*
X120891500Y-107936000D02*
X117131500Y-107936000D01*
%TO.C,U3*%
X101484000Y-108958000D02*
X101484000Y-116158000D01*
X101484000Y-116158000D02*
X110284000Y-116158000D01*
X110284000Y-108958000D02*
X101484000Y-108958000D01*
X110284000Y-116158000D02*
X110284000Y-108958000D01*
%TO.C,J25*%
X182068000Y-57516000D02*
X182068000Y-68416000D01*
X182068000Y-68416000D02*
X187568000Y-68416000D01*
X187568000Y-57516000D02*
X182068000Y-57516000D01*
X187568000Y-68416000D02*
X187568000Y-57516000D01*
%TO.C,H4*%
X202450000Y-138000000D02*
G75*
G02*
X195550000Y-138000000I-3450000J0D01*
G01*
X195550000Y-138000000D02*
G75*
G02*
X202450000Y-138000000I3450000J0D01*
G01*
%TO.C,C10*%
X132625500Y-86418000D02*
X136385500Y-86418000D01*
X132625500Y-88378000D02*
X132625500Y-86418000D01*
X136385500Y-86418000D02*
X136385500Y-88378000D01*
X136385500Y-88378000D02*
X132625500Y-88378000D01*
%TO.C,C44*%
X177700000Y-90068500D02*
X179660000Y-90068500D01*
X177700000Y-93828500D02*
X177700000Y-90068500D01*
X179660000Y-90068500D02*
X179660000Y-93828500D01*
X179660000Y-93828500D02*
X177700000Y-93828500D01*
%TO.C,R15*%
X124126000Y-130296500D02*
X127826000Y-130296500D01*
X124126000Y-132196500D02*
X124126000Y-130296500D01*
X127826000Y-130296500D02*
X127826000Y-132196500D01*
X127826000Y-132196500D02*
X124126000Y-132196500D01*
%TO.C,R49*%
X184704000Y-106514000D02*
X188404000Y-106514000D01*
X184704000Y-108414000D02*
X184704000Y-106514000D01*
X188404000Y-106514000D02*
X188404000Y-108414000D01*
X188404000Y-108414000D02*
X184704000Y-108414000D01*
%TO.C,C31*%
X157634000Y-94662000D02*
X159594000Y-94662000D01*
X157634000Y-98422000D02*
X157634000Y-94662000D01*
X159594000Y-94662000D02*
X159594000Y-98422000D01*
X159594000Y-98422000D02*
X157634000Y-98422000D01*
%TO.C,R54*%
X164776000Y-70308000D02*
X166676000Y-70308000D01*
X164776000Y-74008000D02*
X164776000Y-70308000D01*
X166676000Y-70308000D02*
X166676000Y-74008000D01*
X166676000Y-74008000D02*
X164776000Y-74008000D01*
%TO.C,R23*%
X109846500Y-130241000D02*
X113546500Y-130241000D01*
X109846500Y-132141000D02*
X109846500Y-130241000D01*
X113546500Y-130241000D02*
X113546500Y-132141000D01*
X113546500Y-132141000D02*
X109846500Y-132141000D01*
%TO.C,R5*%
X111298000Y-97433500D02*
X114998000Y-97433500D01*
X111298000Y-99333500D02*
X111298000Y-97433500D01*
X114998000Y-97433500D02*
X114998000Y-99333500D01*
X114998000Y-99333500D02*
X111298000Y-99333500D01*
%TO.C,R45*%
X189006000Y-92544000D02*
X192706000Y-92544000D01*
X189006000Y-94444000D02*
X189006000Y-92544000D01*
X192706000Y-92544000D02*
X192706000Y-94444000D01*
X192706000Y-94444000D02*
X189006000Y-94444000D01*
%TO.C,R29*%
X164776000Y-83500000D02*
X166676000Y-83500000D01*
X164776000Y-87200000D02*
X164776000Y-83500000D01*
X166676000Y-83500000D02*
X166676000Y-87200000D01*
X166676000Y-87200000D02*
X164776000Y-87200000D01*
%TO.C,R48*%
X184704000Y-103974000D02*
X188404000Y-103974000D01*
X184704000Y-105874000D02*
X184704000Y-103974000D01*
X188404000Y-103974000D02*
X188404000Y-105874000D01*
X188404000Y-105874000D02*
X184704000Y-105874000D01*
%TO.C,R34*%
X189006000Y-83378000D02*
X192706000Y-83378000D01*
X189006000Y-85278000D02*
X189006000Y-83378000D01*
X192706000Y-83378000D02*
X192706000Y-85278000D01*
X192706000Y-85278000D02*
X189006000Y-85278000D01*
%TO.C,R14*%
X148676000Y-126426000D02*
X150576000Y-126426000D01*
X148676000Y-130126000D02*
X148676000Y-126426000D01*
X150576000Y-126426000D02*
X150576000Y-130126000D01*
X150576000Y-130126000D02*
X148676000Y-130126000D01*
%TO.C,U2*%
X103288000Y-91638000D02*
X103288000Y-100938000D01*
X103288000Y-91638000D02*
X110188000Y-91638000D01*
X103288000Y-100938000D02*
X110188000Y-100938000D01*
X110188000Y-91638000D02*
X110188000Y-100938000D01*
%TO.C,C30*%
X160544000Y-103795000D02*
X164304000Y-103795000D01*
X160544000Y-105755000D02*
X160544000Y-103795000D01*
X164304000Y-103795000D02*
X164304000Y-105755000D01*
X164304000Y-105755000D02*
X160544000Y-105755000D01*
%TO.C,C14*%
X115861500Y-99943500D02*
X119621500Y-99943500D01*
X115861500Y-101903500D02*
X115861500Y-99943500D01*
X119621500Y-99943500D02*
X119621500Y-101903500D01*
X119621500Y-101903500D02*
X115861500Y-101903500D01*
%TO.C,R2*%
X102546000Y-71562000D02*
X104446000Y-71562000D01*
X102546000Y-75262000D02*
X102546000Y-71562000D01*
X104446000Y-71562000D02*
X104446000Y-75262000D01*
X104446000Y-75262000D02*
X102546000Y-75262000D01*
%TO.C,U25*%
X183178000Y-112990000D02*
X188678000Y-112990000D01*
X183178000Y-120690000D02*
X183178000Y-112990000D01*
X188678000Y-112990000D02*
X188678000Y-120690000D01*
X188678000Y-120690000D02*
X183178000Y-120690000D01*
%TO.C,R9*%
X94042000Y-109816000D02*
X97742000Y-109816000D01*
X94042000Y-111716000D02*
X94042000Y-109816000D01*
X97742000Y-109816000D02*
X97742000Y-111716000D01*
X97742000Y-111716000D02*
X94042000Y-111716000D01*
%TO.C,U30*%
X172344000Y-98976000D02*
X172344000Y-106676000D01*
X172344000Y-106676000D02*
X177844000Y-106676000D01*
X177844000Y-98976000D02*
X172344000Y-98976000D01*
X177844000Y-106676000D02*
X177844000Y-98976000D01*
%TO.C,U35*%
X171182000Y-70479000D02*
X171182000Y-73979000D01*
X171182000Y-73979000D02*
X177542000Y-73979000D01*
X177542000Y-70479000D02*
X171182000Y-70479000D01*
X177542000Y-73979000D02*
X177542000Y-70479000D01*
%TO.C,R56*%
X112588000Y-70032000D02*
X114488000Y-70032000D01*
X112588000Y-73732000D02*
X112588000Y-70032000D01*
X114488000Y-70032000D02*
X114488000Y-73732000D01*
X114488000Y-73732000D02*
X112588000Y-73732000D01*
%TO.C,U32*%
X167914000Y-114560000D02*
X167914000Y-119120000D01*
X167914000Y-119120000D02*
X170414000Y-119120000D01*
X170414000Y-114560000D02*
X167914000Y-114560000D01*
X170414000Y-119120000D02*
X170414000Y-114560000D01*
%TO.C,C17*%
X104800000Y-116876000D02*
X108560000Y-116876000D01*
X104800000Y-118836000D02*
X104800000Y-116876000D01*
X108560000Y-116876000D02*
X108560000Y-118836000D01*
X108560000Y-118836000D02*
X104800000Y-118836000D01*
%TO.C,U14*%
X161166000Y-90211500D02*
X161166000Y-92711500D01*
X161166000Y-92711500D02*
X163666000Y-92711500D01*
X163666000Y-90211500D02*
X161166000Y-90211500D01*
X163666000Y-92711500D02*
X163666000Y-90211500D01*
%TO.C,R51*%
X173920000Y-127458000D02*
X175820000Y-127458000D01*
X173920000Y-131158000D02*
X173920000Y-127458000D01*
X175820000Y-127458000D02*
X175820000Y-131158000D01*
X175820000Y-131158000D02*
X173920000Y-131158000D01*
%TO.C,C42*%
X177700000Y-77411500D02*
X179660000Y-77411500D01*
X177700000Y-81171500D02*
X177700000Y-77411500D01*
X179660000Y-77411500D02*
X179660000Y-81171500D01*
X179660000Y-81171500D02*
X177700000Y-81171500D01*
%TO.C,R37*%
X179000000Y-127458000D02*
X180900000Y-127458000D01*
X179000000Y-131158000D02*
X179000000Y-127458000D01*
X180900000Y-127458000D02*
X180900000Y-131158000D01*
X180900000Y-131158000D02*
X179000000Y-131158000D01*
%TO.C,C41*%
X153707500Y-112580000D02*
X157467500Y-112580000D01*
X153707500Y-114540000D02*
X153707500Y-112580000D01*
X157467500Y-112580000D02*
X157467500Y-114540000D01*
X157467500Y-114540000D02*
X153707500Y-114540000D01*
%TO.C,R65*%
X140528000Y-70038000D02*
X142428000Y-70038000D01*
X140528000Y-73738000D02*
X140528000Y-70038000D01*
X142428000Y-70038000D02*
X142428000Y-73738000D01*
X142428000Y-73738000D02*
X140528000Y-73738000D01*
%TO.C,R36*%
X176460000Y-127474000D02*
X178360000Y-127474000D01*
X176460000Y-131174000D02*
X176460000Y-127474000D01*
X178360000Y-127474000D02*
X178360000Y-131174000D01*
X178360000Y-131174000D02*
X176460000Y-131174000D01*
%TO.C,D5*%
X89894000Y-112864000D02*
X93254000Y-112864000D01*
X89894000Y-114764000D02*
X89894000Y-112864000D01*
X93254000Y-112864000D02*
X93254000Y-114764000D01*
X93254000Y-114764000D02*
X89894000Y-114764000D01*
%TO.C,C43*%
X177700000Y-84015500D02*
X179660000Y-84015500D01*
X177700000Y-87775500D02*
X177700000Y-84015500D01*
X179660000Y-84015500D02*
X179660000Y-87775500D01*
X179660000Y-87775500D02*
X177700000Y-87775500D01*
%TO.C,J14*%
X124664000Y-57516000D02*
X124664000Y-68416000D01*
X124664000Y-68416000D02*
X130164000Y-68416000D01*
X130164000Y-57516000D02*
X124664000Y-57516000D01*
X130164000Y-68416000D02*
X130164000Y-57516000D01*
%TO.C,U9*%
X112617500Y-119805000D02*
X112617500Y-125305000D01*
X112617500Y-119805000D02*
X120427500Y-119805000D01*
X112617500Y-125305000D02*
X120427500Y-125305000D01*
X120427500Y-119805000D02*
X120427500Y-125305000D01*
%TO.C,J9*%
X110240000Y-133608000D02*
X120900000Y-133608000D01*
X110240000Y-141728000D02*
X110240000Y-133608000D01*
X120900000Y-133608000D02*
X120900000Y-141728000D01*
X120900000Y-141728000D02*
X110240000Y-141728000D01*
%TO.C,J23*%
X166066000Y-57516000D02*
X166066000Y-68416000D01*
X166066000Y-68416000D02*
X171566000Y-68416000D01*
X171566000Y-57516000D02*
X166066000Y-57516000D01*
X171566000Y-68416000D02*
X171566000Y-57516000D01*
%TO.C,R13*%
X145726000Y-126426000D02*
X147626000Y-126426000D01*
X145726000Y-130126000D02*
X145726000Y-126426000D01*
X147626000Y-126426000D02*
X147626000Y-130126000D01*
X147626000Y-130126000D02*
X145726000Y-130126000D01*
%TO.C,J16*%
X150064000Y-57516000D02*
X150064000Y-68416000D01*
X150064000Y-68416000D02*
X155564000Y-68416000D01*
X155564000Y-57516000D02*
X150064000Y-57516000D01*
X155564000Y-68416000D02*
X155564000Y-57516000D01*
%TO.C,JP1*%
X128120000Y-97832000D02*
X128120000Y-100332000D01*
X128120000Y-97832000D02*
X131420000Y-97832000D01*
X131420000Y-100332000D02*
X128120000Y-100332000D01*
X131420000Y-100332000D02*
X131420000Y-97832000D01*
%TO.C,J17*%
X156414000Y-57516000D02*
X156414000Y-68416000D01*
X156414000Y-68416000D02*
X161914000Y-68416000D01*
X161914000Y-57516000D02*
X156414000Y-57516000D01*
X161914000Y-68416000D02*
X161914000Y-57516000D01*
%TO.C,R32*%
X189158000Y-76774000D02*
X192858000Y-76774000D01*
X189158000Y-78674000D02*
X189158000Y-76774000D01*
X192858000Y-76774000D02*
X192858000Y-78674000D01*
X192858000Y-78674000D02*
X189158000Y-78674000D01*
%TO.C,R20*%
X155026000Y-126442000D02*
X156926000Y-126442000D01*
X155026000Y-130142000D02*
X155026000Y-126442000D01*
X156926000Y-126442000D02*
X156926000Y-130142000D01*
X156926000Y-130142000D02*
X155026000Y-130142000D01*
%TO.C,C34*%
X166268000Y-98334000D02*
X170028000Y-98334000D01*
X166268000Y-100294000D02*
X166268000Y-98334000D01*
X170028000Y-98334000D02*
X170028000Y-100294000D01*
X170028000Y-100294000D02*
X166268000Y-100294000D01*
%TO.C,SW2*%
X194650000Y-124056000D02*
X194650000Y-130756000D01*
X194650000Y-124056000D02*
X203350000Y-124056000D01*
X194650000Y-130756000D02*
X203350000Y-130756000D01*
X203350000Y-130756000D02*
X203350000Y-124056000D01*
%TO.C,U17*%
X143430000Y-75674000D02*
X143430000Y-83374000D01*
X143430000Y-83374000D02*
X150430000Y-83374000D01*
X150430000Y-75674000D02*
X143430000Y-75674000D01*
X150430000Y-83374000D02*
X150430000Y-75674000D01*
%TO.C,R35*%
X179136000Y-60380000D02*
X181036000Y-60380000D01*
X179136000Y-64080000D02*
X179136000Y-60380000D01*
X181036000Y-60380000D02*
X181036000Y-64080000D01*
X181036000Y-64080000D02*
X179136000Y-64080000D01*
%TO.C,R18*%
X128190000Y-127502500D02*
X131890000Y-127502500D01*
X128190000Y-129402500D02*
X128190000Y-127502500D01*
X131890000Y-127502500D02*
X131890000Y-129402500D01*
X131890000Y-129402500D02*
X128190000Y-129402500D01*
%TO.C,R47*%
X184688000Y-101434000D02*
X188388000Y-101434000D01*
X184688000Y-103334000D02*
X184688000Y-101434000D01*
X188388000Y-101434000D02*
X188388000Y-103334000D01*
X188388000Y-103334000D02*
X184688000Y-103334000D01*
%TO.C,R7*%
X111298000Y-92353500D02*
X114998000Y-92353500D01*
X111298000Y-94253500D02*
X111298000Y-92353500D01*
X114998000Y-92353500D02*
X114998000Y-94253500D01*
X114998000Y-94253500D02*
X111298000Y-94253500D01*
%TO.C,R53*%
X95804000Y-80606000D02*
X99504000Y-80606000D01*
X95804000Y-82506000D02*
X95804000Y-80606000D01*
X99504000Y-80606000D02*
X99504000Y-82506000D01*
X99504000Y-82506000D02*
X95804000Y-82506000D01*
%TO.C,R43*%
X184080000Y-138650000D02*
X185980000Y-138650000D01*
X184080000Y-142350000D02*
X184080000Y-138650000D01*
X185980000Y-138650000D02*
X185980000Y-142350000D01*
X185980000Y-142350000D02*
X184080000Y-142350000D01*
%TO.C,C37*%
X179732000Y-71040000D02*
X181692000Y-71040000D01*
X179732000Y-74800000D02*
X179732000Y-71040000D01*
X181692000Y-71040000D02*
X181692000Y-74800000D01*
X181692000Y-74800000D02*
X179732000Y-74800000D01*
%TO.C,R38*%
X181540000Y-127458000D02*
X183440000Y-127458000D01*
X181540000Y-131158000D02*
X181540000Y-127458000D01*
X183440000Y-127458000D02*
X183440000Y-131158000D01*
X183440000Y-131158000D02*
X181540000Y-131158000D01*
%TO.C,C15*%
X115861500Y-97403500D02*
X119621500Y-97403500D01*
X115861500Y-99363500D02*
X115861500Y-97403500D01*
X119621500Y-97403500D02*
X119621500Y-99363500D01*
X119621500Y-99363500D02*
X115861500Y-99363500D01*
%TO.C,R69*%
X159578000Y-70032000D02*
X161478000Y-70032000D01*
X159578000Y-73732000D02*
X159578000Y-70032000D01*
X161478000Y-70032000D02*
X161478000Y-73732000D01*
X161478000Y-73732000D02*
X159578000Y-73732000D01*
%TO.C,C40*%
X141240000Y-112580000D02*
X145000000Y-112580000D01*
X141240000Y-114540000D02*
X141240000Y-112580000D01*
X145000000Y-112580000D02*
X145000000Y-114540000D01*
X145000000Y-114540000D02*
X141240000Y-114540000D01*
%TO.C,R67*%
X153228000Y-70032000D02*
X155128000Y-70032000D01*
X153228000Y-73732000D02*
X153228000Y-70032000D01*
X155128000Y-70032000D02*
X155128000Y-73732000D01*
X155128000Y-73732000D02*
X153228000Y-73732000D01*
%TO.C,C9*%
X132604000Y-83624000D02*
X136364000Y-83624000D01*
X132604000Y-85584000D02*
X132604000Y-83624000D01*
X136364000Y-83624000D02*
X136364000Y-85584000D01*
X136364000Y-85584000D02*
X132604000Y-85584000D01*
%TO.C,R26*%
X113910500Y-127447000D02*
X117610500Y-127447000D01*
X113910500Y-129347000D02*
X113910500Y-127447000D01*
X117610500Y-127447000D02*
X117610500Y-129347000D01*
X117610500Y-129347000D02*
X113910500Y-129347000D01*
%TO.C,R58*%
X125288000Y-70032000D02*
X127188000Y-70032000D01*
X125288000Y-73732000D02*
X125288000Y-70032000D01*
X127188000Y-70032000D02*
X127188000Y-73732000D01*
X127188000Y-73732000D02*
X125288000Y-73732000D01*
%TO.C,U5*%
X127151000Y-119860500D02*
X127151000Y-125360500D01*
X127151000Y-119860500D02*
X134961000Y-119860500D01*
X127151000Y-125360500D02*
X134961000Y-125360500D01*
X134961000Y-119860500D02*
X134961000Y-125360500D01*
%TO.C,R70*%
X146624000Y-70032000D02*
X148524000Y-70032000D01*
X146624000Y-73732000D02*
X146624000Y-70032000D01*
X148524000Y-70032000D02*
X148524000Y-73732000D01*
X148524000Y-73732000D02*
X146624000Y-73732000D01*
%TO.C,J20*%
X167990000Y-131816000D02*
X167990000Y-137966000D01*
X167990000Y-137966000D02*
X186840000Y-137966000D01*
X186840000Y-131816000D02*
X167990000Y-131816000D01*
X186840000Y-137966000D02*
X186840000Y-131816000D01*
%TO.C,J26*%
X88766000Y-79646000D02*
X88766000Y-86546000D01*
X88766000Y-86546000D02*
X94266000Y-86546000D01*
X94266000Y-79646000D02*
X88766000Y-79646000D01*
X94266000Y-86546000D02*
X94266000Y-79646000D01*
%TO.C,D9*%
X100442000Y-81300000D02*
X100442000Y-84700000D01*
X100442000Y-84700000D02*
X104282000Y-84700000D01*
X104282000Y-81300000D02*
X100442000Y-81300000D01*
X104282000Y-84700000D02*
X104282000Y-81300000D01*
%TO.C,J22*%
X189566000Y-101708000D02*
X189566000Y-107208000D01*
X189566000Y-107208000D02*
X204466000Y-107208000D01*
X204466000Y-101708000D02*
X189566000Y-101708000D01*
X204466000Y-107208000D02*
X204466000Y-101708000D01*
%TO.C,R28*%
X195880000Y-110308000D02*
X199580000Y-110308000D01*
X195880000Y-112208000D02*
X195880000Y-110308000D01*
X199580000Y-110308000D02*
X199580000Y-112208000D01*
X199580000Y-112208000D02*
X195880000Y-112208000D01*
%TO.C,U16*%
X112152000Y-108922000D02*
X112152000Y-116122000D01*
X112152000Y-116122000D02*
X120952000Y-116122000D01*
X120952000Y-108922000D02*
X112152000Y-108922000D01*
X120952000Y-116122000D02*
X120952000Y-108922000D01*
%TO.C,C22*%
X104800000Y-119924000D02*
X108560000Y-119924000D01*
X104800000Y-121884000D02*
X104800000Y-119924000D01*
X108560000Y-119924000D02*
X108560000Y-121884000D01*
X108560000Y-121884000D02*
X104800000Y-121884000D01*
%TO.C,R40*%
X176460000Y-138650000D02*
X178360000Y-138650000D01*
X176460000Y-142350000D02*
X176460000Y-138650000D01*
X178360000Y-138650000D02*
X178360000Y-142350000D01*
X178360000Y-142350000D02*
X176460000Y-142350000D01*
%TO.C,C19*%
X106463500Y-105976000D02*
X110223500Y-105976000D01*
X106463500Y-107936000D02*
X106463500Y-105976000D01*
X110223500Y-105976000D02*
X110223500Y-107936000D01*
X110223500Y-107936000D02*
X106463500Y-107936000D01*
%TO.C,U13*%
X161174500Y-100114000D02*
X163674500Y-100114000D01*
X161174500Y-102614000D02*
X161174500Y-100114000D01*
X163674500Y-100114000D02*
X163674500Y-102614000D01*
X163674500Y-102614000D02*
X161174500Y-102614000D01*
%TO.C,R72*%
X191954000Y-126712000D02*
X193854000Y-126712000D01*
X191954000Y-130412000D02*
X191954000Y-126712000D01*
X193854000Y-126712000D02*
X193854000Y-130412000D01*
X193854000Y-130412000D02*
X191954000Y-130412000D01*
%TO.C,U23*%
X174034000Y-112990000D02*
X179534000Y-112990000D01*
X174034000Y-120690000D02*
X174034000Y-112990000D01*
X179534000Y-112990000D02*
X179534000Y-120690000D01*
X179534000Y-120690000D02*
X174034000Y-120690000D01*
%TO.C,J19*%
X193550000Y-82562000D02*
X193550000Y-88062000D01*
X193550000Y-88062000D02*
X204450000Y-88062000D01*
X204450000Y-82562000D02*
X193550000Y-82562000D01*
X204450000Y-88062000D02*
X204450000Y-82562000D01*
%TO.C,J24*%
X172416000Y-57516000D02*
X172416000Y-68416000D01*
X172416000Y-68416000D02*
X177916000Y-68416000D01*
X177916000Y-57516000D02*
X172416000Y-57516000D01*
X177916000Y-68416000D02*
X177916000Y-57516000D01*
%TO.C,R22*%
X161376000Y-126442000D02*
X163276000Y-126442000D01*
X161376000Y-130142000D02*
X161376000Y-126442000D01*
X163276000Y-126442000D02*
X163276000Y-130142000D01*
X163276000Y-130142000D02*
X161376000Y-130142000D01*
%TO.C,R25*%
X113910500Y-130241000D02*
X117610500Y-130241000D01*
X113910500Y-132141000D02*
X113910500Y-130241000D01*
X117610500Y-130241000D02*
X117610500Y-132141000D01*
X117610500Y-132141000D02*
X113910500Y-132141000D01*
%TO.C,J1*%
X95810000Y-91285500D02*
X86870000Y-91285500D01*
X86870000Y-101925500D01*
X95810000Y-101925500D01*
X95810000Y-91285500D01*
%TO.C,R74*%
X99242000Y-122494000D02*
X102942000Y-122494000D01*
X99242000Y-124394000D02*
X99242000Y-122494000D01*
X102942000Y-122494000D02*
X102942000Y-124394000D01*
X102942000Y-124394000D02*
X99242000Y-124394000D01*
%TO.C,JP2*%
X128120000Y-100880000D02*
X128120000Y-103380000D01*
X128120000Y-100880000D02*
X131420000Y-100880000D01*
X131420000Y-103380000D02*
X128120000Y-103380000D01*
X131420000Y-103380000D02*
X131420000Y-100880000D01*
%TO.C,D2*%
X115707500Y-94893500D02*
X119067500Y-94893500D01*
X115707500Y-96793500D02*
X115707500Y-94893500D01*
X119067500Y-94893500D02*
X119067500Y-96793500D01*
X119067500Y-96793500D02*
X115707500Y-96793500D01*
%TO.C,R33*%
X189006000Y-85940000D02*
X192706000Y-85940000D01*
X189006000Y-87840000D02*
X189006000Y-85940000D01*
X192706000Y-85940000D02*
X192706000Y-87840000D01*
X192706000Y-87840000D02*
X189006000Y-87840000D01*
%TO.C,R10*%
X94058000Y-112864000D02*
X97758000Y-112864000D01*
X94058000Y-114764000D02*
X94058000Y-112864000D01*
X97758000Y-112864000D02*
X97758000Y-114764000D01*
X97758000Y-114764000D02*
X94058000Y-114764000D01*
%TD*%
D11*
X205082000Y-55324000D02*
X205082000Y-143824000D01*
X87582000Y-55324000D02*
X205082000Y-55324000D01*
X205082000Y-143824000D02*
X87582000Y-143824000D01*
X87582000Y-143824000D02*
X87582000Y-55324000D01*
M02*
