  0
SECTION
  2
HEADER
  9
$EXTMIN
 10
7.373000
 20
14.861000
  9
$EXTMAX
 10
8.405000
 20
15.905000
  9
$LIMMIN
 10
7.373000
 20
14.861000
  9
$LIMMAX
 10
8.405000
 20
15.905000
  9
$FILLMODE
 70
  1
  0
ENDSEC
  0
SECTION
  2
TABLES
  0
TABLE
  2
LTYPE
 70
  1
  0
LTYPE
  2
CONTINUOUS
 70
 64
  3
Solid line
 72
 65
 73
  0
 40
0.0
  0
ENDTAB
  0
TABLE
  2
LAYER
 70
 1
  0
LAYER
  2
0
 70
  0
 62
7
  6
CONTINUOUS
  0
LAYER
  2
gg1
 70
  0
 62
1
  6
CONTINUOUS
  0
ENDTAB
  0
TABLE
  2
STYLE
 70
  1
  0
STYLE
  2
STANDARD
 70
  0
 40
0.0
 41
1.0
 50
0.0
 71
  0
 42
0.2
  3
txt
  4

  0
ENDTAB
  0
ENDSEC
  0
SECTION
  2
BLOCKS
  0
BLOCK
  8
0
  2
D10
 70
64
 10
0.0
 20
0.0
  3
D10
  0
CIRCLE
  8
0
 10
0.000000
 20
0.000000
 40
0.002500
 0
ENDBLK
  8
0
  0
BLOCK
  8
0
  2
D11
 70
64
 10
0.0
 20
0.0
  3
D11
  0
CIRCLE
  8
0
 10
0.000000
 20
0.000000
 40
0.005000
 0
ENDBLK
  8
0
  0
BLOCK
  8
0
  2
D12
 70
64
 10
0.0
 20
0.0
  3
D12
  0
CIRCLE
  8
0
 10
0.000000
 20
0.000000
 40
0.003000
 0
ENDBLK
  8
0
  0
BLOCK
  8
0
  2
D13
 70
64
 10
0.0
 20
0.0
  3
D13
  0
CIRCLE
  8
0
 10
0.000000
 20
0.000000
 40
0.001000
 0
ENDBLK
  8
0
  0
ENDSEC
  0
SECTION
  2
ENTITIES
  0
POLYLINE
  8
gg1
 62
1
 40
0.000000
 41
0.000000
 66
  1
  0
VERTEX
  8
gg1
 10
7.500000
 20
15.000000
  0
VERTEX
  8
gg1
 10
7.500000
 20
15.900000
  0
SEQEND
  8
gg1
  0
POLYLINE
  8
gg1
 62
1
 40
0.000000
 41
0.000000
 66
  1
  0
VERTEX
  8
gg1
 10
7.500000
 20
15.000000
  0
VERTEX
  8
gg1
 10
8.400000
 20
15.000000
  0
VERTEX
  8
gg1
 10
8.400000
 20
15.900000
  0
SEQEND
  8
gg1
  0
POLYLINE
  8
gg1
 62
1
 40
0.000000
 41
0.000000
 66
  1
  0
VERTEX
  8
gg1
 10
7.500000
 20
15.900000
  0
VERTEX
  8
gg1
 10
8.400000
 20
15.900000
  0
SEQEND
  8
gg1
  0
POLYLINE
  8
gg1
 62
1
 40
0.000000
 41
0.000000
 66
  1
  0
VERTEX
  8
gg1
 10
7.500000
 20
14.900000
  0
VERTEX
  8
gg1
 10
7.560000
 20
14.920000
  0
SEQEND
  8
gg1
  0
POLYLINE
  8
gg1
 62
1
 40
0.000000
 41
0.000000
 66
  1
  0
VERTEX
  8
gg1
 10
7.500000
 20
14.900000
  0
VERTEX
  8
gg1
 10
7.560000
 20
14.880000
  0
SEQEND
  8
gg1
  0
POLYLINE
  8
gg1
 62
1
 40
0.000000
 41
0.000000
 66
  1
  0
VERTEX
  8
gg1
 10
8.340000
 20
14.880000
  0
VERTEX
  8
gg1
 10
8.400000
 20
14.900000
  0
SEQEND
  8
gg1
  0
POLYLINE
  8
gg1
 62
1
 40
0.000000
 41
0.000000
 66
  1
  0
VERTEX
  8
gg1
 10
8.340000
 20
14.920000
  0
VERTEX
  8
gg1
 10
8.400000
 20
14.900000
  0
SEQEND
  8
gg1
  0
POLYLINE
  8
gg1
 62
1
 40
0.000000
 41
0.000000
 66
  1
  0
VERTEX
  8
gg1
 10
7.500000
 20
14.900000
  0
VERTEX
  8
gg1
 10
7.763100
 20
14.900000
  0
SEQEND
  8
gg1
  0
POLYLINE
  8
gg1
 62
1
 40
0.000000
 41
0.000000
 66
  1
  0
VERTEX
  8
gg1
 10
8.104900
 20
14.900000
  0
VERTEX
  8
gg1
 10
8.400000
 20
14.900000
  0
SEQEND
  8
gg1
  0
POLYLINE
  8
gg1
 62
1
 40
0.000000
 41
0.000000
 66
  1
  0
VERTEX
  8
gg1
 10
7.500000
 20
14.890000
  0
VERTEX
  8
gg1
 10
7.500000
 20
14.987500
  0
SEQEND
  8
gg1
  0
POLYLINE
  8
gg1
 62
1
 40
0.000000
 41
0.000000
 66
  1
  0
VERTEX
  8
gg1
 10
8.400000
 20
14.890000
  0
VERTEX
  8
gg1
 10
8.400000
 20
14.987500
  0
SEQEND
  8
gg1
  0
POLYLINE
  8
gg1
 62
1
 40
0.000000
 41
0.000000
 66
  1
  0
VERTEX
  8
gg1
 10
7.400000
 20
15.900000
  0
VERTEX
  8
gg1
 10
7.420000
 20
15.840000
  0
SEQEND
  8
gg1
  0
POLYLINE
  8
gg1
 62
1
 40
0.000000
 41
0.000000
 66
  1
  0
VERTEX
  8
gg1
 10
7.380000
 20
15.840000
  0
VERTEX
  8
gg1
 10
7.400000
 20
15.900000
  0
SEQEND
  8
gg1
  0
POLYLINE
  8
gg1
 62
1
 40
0.000000
 41
0.000000
 66
  1
  0
VERTEX
  8
gg1
 10
7.380000
 20
15.060000
  0
VERTEX
  8
gg1
 10
7.400000
 20
15.000000
  0
VERTEX
  8
gg1
 10
7.420000
 20
15.060000
  0
SEQEND
  8
gg1
  0
POLYLINE
  8
gg1
 62
1
 40
0.000000
 41
0.000000
 66
  1
  0
VERTEX
  8
gg1
 10
7.400000
 20
15.604900
  0
VERTEX
  8
gg1
 10
7.400000
 20
15.900000
  0
SEQEND
  8
gg1
  0
POLYLINE
  8
gg1
 62
1
 40
0.000000
 41
0.000000
 66
  1
  0
VERTEX
  8
gg1
 10
7.400000
 20
15.000000
  0
VERTEX
  8
gg1
 10
7.400000
 20
15.263100
  0
SEQEND
  8
gg1
  0
POLYLINE
  8
gg1
 62
1
 40
0.000000
 41
0.000000
 66
  1
  0
VERTEX
  8
gg1
 10
7.390000
 20
15.900000
  0
VERTEX
  8
gg1
 10
7.487500
 20
15.900000
  0
SEQEND
  8
gg1
  0
POLYLINE
  8
gg1
 62
1
 40
0.000000
 41
0.000000
 66
  1
  0
VERTEX
  8
gg1
 10
7.390000
 20
15.000000
  0
VERTEX
  8
gg1
 10
7.487500
 20
15.000000
  0
SEQEND
  8
gg1
  0
POLYLINE
  8
gg1
 62
1
 40
0.000000
 41
0.000000
 66
  1
  0
VERTEX
  8
gg1
 10
7.779000
 20
14.874000
  0
VERTEX
  8
gg1
 10
7.789000
 20
14.864000
  0
VERTEX
  8
gg1
 10
7.809000
 20
14.864000
  0
VERTEX
  8
gg1
 10
7.819000
 20
14.874000
  0
VERTEX
  8
gg1
 10
7.819000
 20
14.914000
  0
VERTEX
  8
gg1
 10
7.809000
 20
14.924000
  0
VERTEX
  8
gg1
 10
7.789000
 20
14.924000
  0
VERTEX
  8
gg1
 10
7.779000
 20
14.914000
  0
VERTEX
  8
gg1
 10
7.779000
 20
14.904000
  0
VERTEX
  8
gg1
 10
7.789000
 20
14.894000
  0
VERTEX
  8
gg1
 10
7.819000
 20
14.894000
  0
SEQEND
  8
gg1
  0
POLYLINE
  8
gg1
 62
1
 40
0.000000
 41
0.000000
 66
  1
  0
VERTEX
  8
gg1
 10
7.839000
 20
14.914000
  0
VERTEX
  8
gg1
 10
7.849000
 20
14.924000
  0
VERTEX
  8
gg1
 10
7.869000
 20
14.924000
  0
VERTEX
  8
gg1
 10
7.879000
 20
14.914000
  0
VERTEX
  8
gg1
 10
7.879000
 20
14.874000
  0
VERTEX
  8
gg1
 10
7.869000
 20
14.864000
  0
VERTEX
  8
gg1
 10
7.849000
 20
14.864000
  0
VERTEX
  8
gg1
 10
7.839000
 20
14.874000
  0
VERTEX
  8
gg1
 10
7.839000
 20
14.914000
  0
SEQEND
  8
gg1
  0
POLYLINE
  8
gg1
 62
1
 40
0.000000
 41
0.000000
 66
  1
  0
VERTEX
  8
gg1
 10
7.899000
 20
14.914000
  0
VERTEX
  8
gg1
 10
7.909000
 20
14.924000
  0
VERTEX
  8
gg1
 10
7.929000
 20
14.924000
  0
VERTEX
  8
gg1
 10
7.939000
 20
14.914000
  0
VERTEX
  8
gg1
 10
7.939000
 20
14.874000
  0
VERTEX
  8
gg1
 10
7.929000
 20
14.864000
  0
VERTEX
  8
gg1
 10
7.909000
 20
14.864000
  0
VERTEX
  8
gg1
 10
7.899000
 20
14.874000
  0
VERTEX
  8
gg1
 10
7.899000
 20
14.914000
  0
SEQEND
  8
gg1
  0
POLYLINE
  8
gg1
 62
1
 40
0.000000
 41
0.000000
 66
  1
  0
VERTEX
  8
gg1
 10
7.959000
 20
14.864000
  0
VERTEX
  8
gg1
 10
7.959000
 20
14.904000
  0
VERTEX
  8
gg1
 10
7.969000
 20
14.904000
  0
VERTEX
  8
gg1
 10
7.979000
 20
14.894000
  0
VERTEX
  8
gg1
 10
7.979000
 20
14.864000
  0
VERTEX
  8
gg1
 10
7.979000
 20
14.894000
  0
VERTEX
  8
gg1
 10
7.989000
 20
14.904000
  0
VERTEX
  8
gg1
 10
7.999000
 20
14.894000
  0
VERTEX
  8
gg1
 10
7.999000
 20
14.864000
  0
SEQEND
  8
gg1
  0
POLYLINE
  8
gg1
 62
1
 40
0.000000
 41
0.000000
 66
  1
  0
VERTEX
  8
gg1
 10
8.019000
 20
14.864000
  0
VERTEX
  8
gg1
 10
8.039000
 20
14.864000
  0
VERTEX
  8
gg1
 10
8.029000
 20
14.864000
  0
VERTEX
  8
gg1
 10
8.029000
 20
14.904000
  0
VERTEX
  8
gg1
 10
8.019000
 20
14.904000
  0
SEQEND
  8
gg1
  0
POLYLINE
  8
gg1
 62
1
 40
0.000000
 41
0.000000
 66
  1
  0
VERTEX
  8
gg1
 10
8.069000
 20
14.864000
  0
VERTEX
  8
gg1
 10
8.088900
 20
14.864000
  0
VERTEX
  8
gg1
 10
8.079000
 20
14.864000
  0
VERTEX
  8
gg1
 10
8.079000
 20
14.924000
  0
VERTEX
  8
gg1
 10
8.069000
 20
14.924000
  0
SEQEND
  8
gg1
  0
POLYLINE
  8
gg1
 62
1
 40
0.000000
 41
0.000000
 66
  1
  0
VERTEX
  8
gg1
 10
7.426000
 20
15.279000
  0
VERTEX
  8
gg1
 10
7.436000
 20
15.289000
  0
VERTEX
  8
gg1
 10
7.436000
 20
15.309000
  0
VERTEX
  8
gg1
 10
7.426000
 20
15.319000
  0
VERTEX
  8
gg1
 10
7.386000
 20
15.319000
  0
VERTEX
  8
gg1
 10
7.376000
 20
15.309000
  0
VERTEX
  8
gg1
 10
7.376000
 20
15.289000
  0
VERTEX
  8
gg1
 10
7.386000
 20
15.279000
  0
VERTEX
  8
gg1
 10
7.396000
 20
15.279000
  0
VERTEX
  8
gg1
 10
7.406000
 20
15.289000
  0
VERTEX
  8
gg1
 10
7.406000
 20
15.319000
  0
SEQEND
  8
gg1
  0
POLYLINE
  8
gg1
 62
1
 40
0.000000
 41
0.000000
 66
  1
  0
VERTEX
  8
gg1
 10
7.386000
 20
15.339000
  0
VERTEX
  8
gg1
 10
7.376000
 20
15.349000
  0
VERTEX
  8
gg1
 10
7.376000
 20
15.369000
  0
VERTEX
  8
gg1
 10
7.386000
 20
15.379000
  0
VERTEX
  8
gg1
 10
7.426000
 20
15.379000
  0
VERTEX
  8
gg1
 10
7.436000
 20
15.369000
  0
VERTEX
  8
gg1
 10
7.436000
 20
15.349000
  0
VERTEX
  8
gg1
 10
7.426000
 20
15.339000
  0
VERTEX
  8
gg1
 10
7.386000
 20
15.339000
  0
SEQEND
  8
gg1
  0
POLYLINE
  8
gg1
 62
1
 40
0.000000
 41
0.000000
 66
  1
  0
VERTEX
  8
gg1
 10
7.386000
 20
15.399000
  0
VERTEX
  8
gg1
 10
7.376000
 20
15.409000
  0
VERTEX
  8
gg1
 10
7.376000
 20
15.429000
  0
VERTEX
  8
gg1
 10
7.386000
 20
15.439000
  0
VERTEX
  8
gg1
 10
7.426000
 20
15.439000
  0
VERTEX
  8
gg1
 10
7.436000
 20
15.429000
  0
VERTEX
  8
gg1
 10
7.436000
 20
15.409000
  0
VERTEX
  8
gg1
 10
7.426000
 20
15.399000
  0
VERTEX
  8
gg1
 10
7.386000
 20
15.399000
  0
SEQEND
  8
gg1
  0
POLYLINE
  8
gg1
 62
1
 40
0.000000
 41
0.000000
 66
  1
  0
VERTEX
  8
gg1
 10
7.436000
 20
15.459000
  0
VERTEX
  8
gg1
 10
7.396000
 20
15.459000
  0
VERTEX
  8
gg1
 10
7.396000
 20
15.469000
  0
VERTEX
  8
gg1
 10
7.406000
 20
15.479000
  0
VERTEX
  8
gg1
 10
7.436000
 20
15.479000
  0
VERTEX
  8
gg1
 10
7.406000
 20
15.479000
  0
VERTEX
  8
gg1
 10
7.396000
 20
15.489000
  0
VERTEX
  8
gg1
 10
7.406000
 20
15.499000
  0
VERTEX
  8
gg1
 10
7.436000
 20
15.499000
  0
SEQEND
  8
gg1
  0
POLYLINE
  8
gg1
 62
1
 40
0.000000
 41
0.000000
 66
  1
  0
VERTEX
  8
gg1
 10
7.436000
 20
15.519000
  0
VERTEX
  8
gg1
 10
7.436000
 20
15.539000
  0
VERTEX
  8
gg1
 10
7.436000
 20
15.529000
  0
VERTEX
  8
gg1
 10
7.396000
 20
15.529000
  0
VERTEX
  8
gg1
 10
7.396000
 20
15.519000
  0
SEQEND
  8
gg1
  0
POLYLINE
  8
gg1
 62
1
 40
0.000000
 41
0.000000
 66
  1
  0
VERTEX
  8
gg1
 10
7.436000
 20
15.569000
  0
VERTEX
  8
gg1
 10
7.436000
 20
15.588900
  0
VERTEX
  8
gg1
 10
7.436000
 20
15.579000
  0
VERTEX
  8
gg1
 10
7.376000
 20
15.579000
  0
VERTEX
  8
gg1
 10
7.376000
 20
15.569000
  0
SEQEND
  8
gg1
  0
POLYLINE
  8
gg1
 62
1
 40
0.000000
 41
0.000000
 66
  1
  0
VERTEX
  8
gg1
 10
7.923000
 20
15.687000
  0
VERTEX
  8
gg1
 10
7.943000
 20
15.687000
  0
SEQEND
  8
gg1
  0
POLYLINE
  8
gg1
 62
1
 40
0.000000
 41
0.000000
 66
  1
  0
VERTEX
  8
gg1
 10
7.933000
 20
15.677000
  0
VERTEX
  8
gg1
 10
7.933000
 20
15.697000
  0
SEQEND
  8
gg1
  0
POLYLINE
  8
gg1
 62
1
 40
0.000000
 41
0.000000
 66
  1
  0
VERTEX
  8
gg1
 10
8.262000
 20
15.315000
  0
VERTEX
  8
gg1
 10
8.282000
 20
15.315000
  0
SEQEND
  8
gg1
  0
POLYLINE
  8
gg1
 62
1
 40
0.000000
 41
0.000000
 66
  1
  0
VERTEX
  8
gg1
 10
8.272000
 20
15.305000
  0
VERTEX
  8
gg1
 10
8.272000
 20
15.325000
  0
SEQEND
  8
gg1
  0
POLYLINE
  8
gg1
 62
1
 40
0.000000
 41
0.000000
 66
  1
  0
VERTEX
  8
gg1
 10
7.660000
 20
15.320000
  0
VERTEX
  8
gg1
 10
7.680000
 20
15.320000
  0
SEQEND
  8
gg1
  0
POLYLINE
  8
gg1
 62
1
 40
0.000000
 41
0.000000
 66
  1
  0
VERTEX
  8
gg1
 10
7.670000
 20
15.310000
  0
VERTEX
  8
gg1
 10
7.670000
 20
15.330000
  0
SEQEND
  8
gg1
  0
POLYLINE
  8
gg1
 62
1
 40
0.000000
 41
0.000000
 66
  1
  0
VERTEX
  8
gg1
 10
7.851100
 20
15.165000
  0
VERTEX
  8
gg1
 10
7.911100
 20
15.165000
  0
SEQEND
  8
gg1
  0
POLYLINE
  8
gg1
 62
1
 40
0.000000
 41
0.000000
 66
  1
  0
VERTEX
  8
gg1
 10
7.881100
 20
15.135000
  0
VERTEX
  8
gg1
 10
7.881100
 20
15.195000
  0
SEQEND
  8
gg1
  0
POLYLINE
  8
gg1
 62
1
 40
0.000000
 41
0.000000
 66
  1
  0
VERTEX
  8
gg1
 10
7.713300
 20
15.165000
  0
VERTEX
  8
gg1
 10
7.773300
 20
15.165000
  0
SEQEND
  8
gg1
  0
POLYLINE
  8
gg1
 62
1
 40
0.000000
 41
0.000000
 66
  1
  0
VERTEX
  8
gg1
 10
7.743300
 20
15.135000
  0
VERTEX
  8
gg1
 10
7.743300
 20
15.195000
  0
SEQEND
  8
gg1
  0
POLYLINE
  8
gg1
 62
1
 40
0.000000
 41
0.000000
 66
  1
  0
VERTEX
  8
gg1
 10
8.126700
 20
15.165000
  0
VERTEX
  8
gg1
 10
8.186700
 20
15.165000
  0
SEQEND
  8
gg1
  0
POLYLINE
  8
gg1
 62
1
 40
0.000000
 41
0.000000
 66
  1
  0
VERTEX
  8
gg1
 10
8.156700
 20
15.135000
  0
VERTEX
  8
gg1
 10
8.156700
 20
15.195000
  0
SEQEND
  8
gg1
  0
POLYLINE
  8
gg1
 62
1
 40
0.000000
 41
0.000000
 66
  1
  0
VERTEX
  8
gg1
 10
7.988900
 20
15.165000
  0
VERTEX
  8
gg1
 10
8.048900
 20
15.165000
  0
SEQEND
  8
gg1
  0
POLYLINE
  8
gg1
 62
1
 40
0.000000
 41
0.000000
 66
  1
  0
VERTEX
  8
gg1
 10
8.018900
 20
15.135000
  0
VERTEX
  8
gg1
 10
8.018900
 20
15.195000
  0
SEQEND
  8
gg1
  0
POLYLINE
  8
gg1
 62
1
 40
0.000000
 41
0.000000
 66
  1
  0
VERTEX
  8
gg1
 10
8.272000
 20
15.085000
  0
VERTEX
  8
gg1
 10
8.358000
 20
15.085000
  0
SEQEND
  8
gg1
  0
POLYLINE
  8
gg1
 62
1
 40
0.000000
 41
0.000000
 66
  1
  0
VERTEX
  8
gg1
 10
8.315000
 20
15.042000
  0
VERTEX
  8
gg1
 10
8.315000
 20
15.128000
  0
SEQEND
  8
gg1
  0
POLYLINE
  8
gg1
 62
1
 40
0.000000
 41
0.000000
 66
  1
  0
VERTEX
  8
gg1
 10
7.542000
 20
15.085000
  0
VERTEX
  8
gg1
 10
7.628000
 20
15.085000
  0
SEQEND
  8
gg1
  0
POLYLINE
  8
gg1
 62
1
 40
0.000000
 41
0.000000
 66
  1
  0
VERTEX
  8
gg1
 10
7.585000
 20
15.042000
  0
VERTEX
  8
gg1
 10
7.585000
 20
15.128000
  0
SEQEND
  8
gg1
  0
POLYLINE
  8
gg1
 62
1
 40
0.000000
 41
0.000000
 66
  1
  0
VERTEX
  8
gg1
 10
7.730000
 20
15.050000
  0
VERTEX
  8
gg1
 10
7.770000
 20
15.050000
  0
SEQEND
  8
gg1
  0
POLYLINE
  8
gg1
 62
1
 40
0.000000
 41
0.000000
 66
  1
  0
VERTEX
  8
gg1
 10
7.750000
 20
15.030000
  0
VERTEX
  8
gg1
 10
7.750000
 20
15.070000
  0
SEQEND
  8
gg1
  0
POLYLINE
  8
gg1
 62
1
 40
0.000000
 41
0.000000
 66
  1
  0
VERTEX
  8
gg1
 10
7.830000
 20
15.050000
  0
VERTEX
  8
gg1
 10
7.870000
 20
15.050000
  0
SEQEND
  8
gg1
  0
POLYLINE
  8
gg1
 62
1
 40
0.000000
 41
0.000000
 66
  1
  0
VERTEX
  8
gg1
 10
7.850000
 20
15.030000
  0
VERTEX
  8
gg1
 10
7.850000
 20
15.070000
  0
SEQEND
  8
gg1
  0
POLYLINE
  8
gg1
 62
1
 40
0.000000
 41
0.000000
 66
  1
  0
VERTEX
  8
gg1
 10
7.930000
 20
15.050000
  0
VERTEX
  8
gg1
 10
7.970000
 20
15.050000
  0
SEQEND
  8
gg1
  0
POLYLINE
  8
gg1
 62
1
 40
0.000000
 41
0.000000
 66
  1
  0
VERTEX
  8
gg1
 10
7.950000
 20
15.030000
  0
VERTEX
  8
gg1
 10
7.950000
 20
15.070000
  0
SEQEND
  8
gg1
  0
POLYLINE
  8
gg1
 62
1
 40
0.000000
 41
0.000000
 66
  1
  0
VERTEX
  8
gg1
 10
8.030000
 20
15.050000
  0
VERTEX
  8
gg1
 10
8.070000
 20
15.050000
  0
SEQEND
  8
gg1
  0
POLYLINE
  8
gg1
 62
1
 40
0.000000
 41
0.000000
 66
  1
  0
VERTEX
  8
gg1
 10
8.050000
 20
15.030000
  0
VERTEX
  8
gg1
 10
8.050000
 20
15.070000
  0
SEQEND
  8
gg1
  0
POLYLINE
  8
gg1
 62
1
 40
0.000000
 41
0.000000
 66
  1
  0
VERTEX
  8
gg1
 10
8.130000
 20
15.050000
  0
VERTEX
  8
gg1
 10
8.170000
 20
15.050000
  0
SEQEND
  8
gg1
  0
POLYLINE
  8
gg1
 62
1
 40
0.000000
 41
0.000000
 66
  1
  0
VERTEX
  8
gg1
 10
8.150000
 20
15.030000
  0
VERTEX
  8
gg1
 10
8.150000
 20
15.070000
  0
SEQEND
  8
gg1
  0
ENDSEC
  0
EOF
