%TF.GenerationSoftware,KiCad,Pcbnew,8.0.8-8.0.8-0~ubuntu22.04.1*%
%TF.CreationDate,2025-01-21T09:43:56+01:00*%
%TF.ProjectId,carte-io,63617274-652d-4696-9f2e-6b696361645f,1.0*%
%TF.SameCoordinates,Original*%
%TF.FileFunction,Drillmap*%
%TF.FilePolarity,Positive*%
%FSLAX45Y45*%
G04 Gerber Fmt 4.5, Leading zero omitted, Abs format (unit mm)*
G04 Created by KiCad (PCBNEW 8.0.8-8.0.8-0~ubuntu22.04.1) date 2025-01-21 09:43:56*
%MOMM*%
%LPD*%
G01*
G04 APERTURE LIST*
%ADD10C,0.050000*%
%ADD11C,0.200000*%
%ADD12C,0.100000*%
%ADD13C,0.102000*%
G04 APERTURE END LIST*
D10*
X20508200Y-5532400D02*
X20508200Y-14382400D01*
X8758200Y-5532400D02*
X20508200Y-5532400D01*
X20508200Y-14382400D02*
X8758200Y-14382400D01*
X8758200Y-14382400D02*
X8758200Y-5532400D01*
D11*
D12*
X9605250Y-9637000D02*
X9635250Y-9667000D01*
X9635250Y-9637000D02*
X9605250Y-9667000D01*
X9605250Y-9732250D02*
X9635250Y-9762250D01*
X9635250Y-9732250D02*
X9605250Y-9762250D01*
X10081500Y-8557500D02*
X10111500Y-8587500D01*
X10111500Y-8557500D02*
X10081500Y-8587500D01*
X10557750Y-9414750D02*
X10587750Y-9444750D01*
X10587750Y-9414750D02*
X10557750Y-9444750D01*
X10557750Y-9541750D02*
X10587750Y-9571750D01*
X10587750Y-9541750D02*
X10557750Y-9571750D01*
X10620450Y-9708400D02*
X10650450Y-9738400D01*
X10650450Y-9708400D02*
X10620450Y-9738400D01*
X10922875Y-9017875D02*
X10952875Y-9047875D01*
X10952875Y-9017875D02*
X10922875Y-9047875D01*
X11542000Y-9823350D02*
X11572000Y-9853350D01*
X11572000Y-9823350D02*
X11542000Y-9853350D01*
X11542000Y-10077350D02*
X11572000Y-10107350D01*
X11572000Y-10077350D02*
X11542000Y-10107350D01*
X11592800Y-6893800D02*
X11622800Y-6923800D01*
X11622800Y-6893800D02*
X11592800Y-6923800D01*
X11859500Y-6906500D02*
X11889500Y-6936500D01*
X11889500Y-6906500D02*
X11859500Y-6936500D01*
X11891250Y-12653250D02*
X11921250Y-12683250D01*
X11921250Y-12653250D02*
X11891250Y-12683250D01*
X11891250Y-13161250D02*
X11921250Y-13191250D01*
X11921250Y-13161250D02*
X11891250Y-13191250D01*
X11986500Y-8843250D02*
X12016500Y-8873250D01*
X12016500Y-8843250D02*
X11986500Y-8873250D01*
X12494500Y-6843000D02*
X12524500Y-6873000D01*
X12524500Y-6843000D02*
X12494500Y-6873000D01*
X12495509Y-8367081D02*
X12525509Y-8397081D01*
X12525509Y-8367081D02*
X12495509Y-8397081D01*
X12558000Y-8049500D02*
X12588000Y-8079500D01*
X12588000Y-8049500D02*
X12558000Y-8079500D01*
X12653250Y-8049500D02*
X12683250Y-8079500D01*
X12683250Y-8049500D02*
X12653250Y-8079500D01*
X12716750Y-7478000D02*
X12746750Y-7508000D01*
X12746750Y-7478000D02*
X12716750Y-7508000D01*
X12748500Y-12589750D02*
X12778500Y-12619750D01*
X12778500Y-12589750D02*
X12748500Y-12619750D01*
X12843750Y-12653250D02*
X12873750Y-12683250D01*
X12873750Y-12653250D02*
X12843750Y-12683250D01*
X12875500Y-6843000D02*
X12905500Y-6873000D01*
X12905500Y-6843000D02*
X12875500Y-6873000D01*
X12970750Y-12081750D02*
X13000750Y-12111750D01*
X13000750Y-12081750D02*
X12970750Y-12111750D01*
X13128771Y-9043008D02*
X13158771Y-9073008D01*
X13158771Y-9043008D02*
X13128771Y-9073008D01*
X13135052Y-8963255D02*
X13165052Y-8993255D01*
X13165052Y-8963255D02*
X13135052Y-8993255D01*
X13288250Y-12653250D02*
X13318250Y-12683250D01*
X13318250Y-12653250D02*
X13288250Y-12683250D01*
X13320000Y-9795750D02*
X13350000Y-9825750D01*
X13350000Y-9795750D02*
X13320000Y-9825750D01*
X13415250Y-9637000D02*
X13445250Y-9667000D01*
X13445250Y-9637000D02*
X13415250Y-9667000D01*
X13447000Y-13034250D02*
X13477000Y-13064250D01*
X13477000Y-13034250D02*
X13447000Y-13064250D01*
X13732750Y-7859000D02*
X13762750Y-7889000D01*
X13762750Y-7859000D02*
X13732750Y-7889000D01*
X13732750Y-10811750D02*
X13762750Y-10841750D01*
X13762750Y-10811750D02*
X13732750Y-10841750D01*
X13761000Y-7986000D02*
X13791000Y-8016000D01*
X13791000Y-7986000D02*
X13761000Y-8016000D01*
X13768527Y-10883304D02*
X13798527Y-10913304D01*
X13798527Y-10883304D02*
X13768527Y-10913304D01*
X13923250Y-10589500D02*
X13953250Y-10619500D01*
X13953250Y-10589500D02*
X13923250Y-10619500D01*
X13923250Y-10875250D02*
X13953250Y-10905250D01*
X13953250Y-10875250D02*
X13923250Y-10905250D01*
X13990250Y-11065750D02*
X14020250Y-11095750D01*
X14020250Y-11065750D02*
X13990250Y-11095750D01*
X13994804Y-10625277D02*
X14024804Y-10655277D01*
X14024804Y-10625277D02*
X13994804Y-10655277D01*
X14007700Y-8583850D02*
X14037700Y-8613850D01*
X14037700Y-8583850D02*
X14007700Y-8613850D01*
X14050250Y-9510000D02*
X14080250Y-9540000D01*
X14080250Y-9510000D02*
X14050250Y-9540000D01*
X14050250Y-10684750D02*
X14080250Y-10714750D01*
X14080250Y-10684750D02*
X14050250Y-10714750D01*
X14050250Y-11161000D02*
X14080250Y-11191000D01*
X14080250Y-11161000D02*
X14050250Y-11191000D01*
X14082000Y-9224250D02*
X14112000Y-9254250D01*
X14112000Y-9224250D02*
X14082000Y-9254250D01*
X14082000Y-9351250D02*
X14112000Y-9381250D01*
X14112000Y-9351250D02*
X14082000Y-9381250D01*
X14098939Y-9440376D02*
X14128939Y-9470376D01*
X14128939Y-9440376D02*
X14098939Y-9470376D01*
X14141050Y-11786800D02*
X14171050Y-11816800D01*
X14171050Y-11786800D02*
X14141050Y-11816800D01*
X14145500Y-6843000D02*
X14175500Y-6873000D01*
X14175500Y-6843000D02*
X14145500Y-6873000D01*
X14145500Y-11986500D02*
X14175500Y-12016500D01*
X14175500Y-11986500D02*
X14145500Y-12016500D01*
X14177250Y-8335250D02*
X14207250Y-8365250D01*
X14207250Y-8335250D02*
X14177250Y-8365250D01*
X14177700Y-8621000D02*
X14207700Y-8651000D01*
X14207700Y-8621000D02*
X14177700Y-8651000D01*
X14199800Y-11732500D02*
X14229800Y-11762500D01*
X14229800Y-11732500D02*
X14199800Y-11762500D01*
X14209000Y-9668750D02*
X14239000Y-9698750D01*
X14239000Y-9668750D02*
X14209000Y-9698750D01*
X14209239Y-8522489D02*
X14239239Y-8552489D01*
X14239239Y-8522489D02*
X14209239Y-8552489D01*
X14217700Y-8970250D02*
X14247700Y-9000250D01*
X14247700Y-8970250D02*
X14217700Y-9000250D01*
X14240750Y-12177000D02*
X14270750Y-12207000D01*
X14270750Y-12177000D02*
X14240750Y-12207000D01*
X14244777Y-9597196D02*
X14274777Y-9627196D01*
X14274777Y-9597196D02*
X14244777Y-9627196D01*
X14249152Y-8656981D02*
X14279152Y-8686981D01*
X14279152Y-8656981D02*
X14249152Y-8686981D01*
X14336000Y-8398750D02*
X14366000Y-8428750D01*
X14366000Y-8398750D02*
X14336000Y-8428750D01*
X14336000Y-10018000D02*
X14366000Y-10048000D01*
X14366000Y-10018000D02*
X14336000Y-10048000D01*
X14336000Y-10875250D02*
X14366000Y-10905250D01*
X14366000Y-10875250D02*
X14336000Y-10905250D01*
X14336000Y-11081000D02*
X14366000Y-11111000D01*
X14366000Y-11081000D02*
X14336000Y-11111000D01*
X14336000Y-11161000D02*
X14366000Y-11191000D01*
X14366000Y-11161000D02*
X14336000Y-11191000D01*
X14367750Y-8621000D02*
X14397750Y-8651000D01*
X14397750Y-8621000D02*
X14367750Y-8651000D01*
X14399500Y-9951500D02*
X14429500Y-9981500D01*
X14429500Y-9951500D02*
X14399500Y-9981500D01*
X14427223Y-10184804D02*
X14457223Y-10214804D01*
X14457223Y-10184804D02*
X14427223Y-10214804D01*
X14463000Y-9160750D02*
X14493000Y-9190750D01*
X14493000Y-9160750D02*
X14463000Y-9190750D01*
X14463000Y-10113250D02*
X14493000Y-10143250D01*
X14493000Y-10113250D02*
X14463000Y-10143250D01*
X14517700Y-8993200D02*
X14547700Y-9023200D01*
X14547700Y-8993200D02*
X14517700Y-9023200D01*
X14543000Y-9160750D02*
X14573000Y-9190750D01*
X14573000Y-9160750D02*
X14543000Y-9190750D01*
X14590000Y-8017750D02*
X14620000Y-8047750D01*
X14620000Y-8017750D02*
X14590000Y-8047750D01*
X14621750Y-8621000D02*
X14651750Y-8651000D01*
X14651750Y-8621000D02*
X14621750Y-8651000D01*
X14621750Y-9283000D02*
X14651750Y-9313000D01*
X14651750Y-9283000D02*
X14621750Y-9313000D01*
X14621750Y-10176750D02*
X14651750Y-10206750D01*
X14651750Y-10176750D02*
X14621750Y-10206750D01*
X14653500Y-8970250D02*
X14683500Y-9000250D01*
X14683500Y-8970250D02*
X14653500Y-9000250D01*
X14685250Y-8017750D02*
X14715250Y-8047750D01*
X14715250Y-8017750D02*
X14685250Y-8047750D01*
X14707700Y-10589500D02*
X14737700Y-10619500D01*
X14737700Y-10589500D02*
X14707700Y-10619500D01*
X14717000Y-10176750D02*
X14747000Y-10206750D01*
X14747000Y-10176750D02*
X14717000Y-10206750D01*
X14748750Y-10896500D02*
X14778750Y-10926500D01*
X14778750Y-10896500D02*
X14748750Y-10926500D01*
X14812250Y-7986000D02*
X14842250Y-8016000D01*
X14842250Y-7986000D02*
X14812250Y-8016000D01*
X14812250Y-8557500D02*
X14842250Y-8587500D01*
X14842250Y-8557500D02*
X14812250Y-8587500D01*
X14812250Y-12018250D02*
X14842250Y-12048250D01*
X14842250Y-12018250D02*
X14812250Y-12048250D01*
X14827700Y-10557750D02*
X14857700Y-10587750D01*
X14857700Y-10557750D02*
X14827700Y-10587750D01*
X14827700Y-10674074D02*
X14857700Y-10704074D01*
X14857700Y-10674074D02*
X14827700Y-10704074D01*
X14875750Y-9097250D02*
X14905750Y-9127250D01*
X14905750Y-9097250D02*
X14875750Y-9127250D01*
X14875750Y-11859500D02*
X14905750Y-11889500D01*
X14905750Y-11859500D02*
X14875750Y-11889500D01*
X14907360Y-7985860D02*
X14937360Y-8015860D01*
X14937360Y-7985860D02*
X14907360Y-8015860D01*
X14907500Y-11700750D02*
X14937500Y-11730750D01*
X14937500Y-11700750D02*
X14907500Y-11730750D01*
X14909250Y-8654500D02*
X14939250Y-8684500D01*
X14939250Y-8654500D02*
X14909250Y-8684500D01*
X14939250Y-8529250D02*
X14969250Y-8559250D01*
X14969250Y-8529250D02*
X14939250Y-8559250D01*
X14939250Y-9954500D02*
X14969250Y-9984500D01*
X14969250Y-9954500D02*
X14939250Y-9984500D01*
X14971000Y-11224500D02*
X15001000Y-11254500D01*
X15001000Y-11224500D02*
X14971000Y-11254500D01*
X15006777Y-11152946D02*
X15036777Y-11182946D01*
X15036777Y-11152946D02*
X15006777Y-11182946D01*
X15034500Y-8684500D02*
X15064500Y-8714500D01*
X15064500Y-8684500D02*
X15034500Y-8714500D01*
X15034500Y-10653000D02*
X15064500Y-10683000D01*
X15064500Y-10653000D02*
X15034500Y-10683000D01*
X15034500Y-11588000D02*
X15064500Y-11618000D01*
X15064500Y-11588000D02*
X15034500Y-11618000D01*
X15066250Y-5668250D02*
X15096250Y-5698250D01*
X15096250Y-5668250D02*
X15066250Y-5698250D01*
X15098000Y-10557750D02*
X15128000Y-10587750D01*
X15128000Y-10557750D02*
X15098000Y-10587750D01*
X15161500Y-10653000D02*
X15191500Y-10683000D01*
X15191500Y-10653000D02*
X15161500Y-10683000D01*
X15320250Y-7732000D02*
X15350250Y-7762000D01*
X15350250Y-7732000D02*
X15320250Y-7762000D01*
X15320250Y-9446800D02*
X15350250Y-9476800D01*
X15350250Y-9446800D02*
X15320250Y-9476800D01*
X15320250Y-9668750D02*
X15350250Y-9698750D01*
X15350250Y-9668750D02*
X15320250Y-9698750D01*
X15352000Y-8303500D02*
X15382000Y-8333500D01*
X15382000Y-8303500D02*
X15352000Y-8333500D01*
X15355500Y-11986500D02*
X15385500Y-12016500D01*
X15385500Y-11986500D02*
X15355500Y-12016500D01*
X15383750Y-9855750D02*
X15413750Y-9885750D01*
X15413750Y-9855750D02*
X15383750Y-9885750D01*
X15415500Y-6843000D02*
X15445500Y-6873000D01*
X15445500Y-6843000D02*
X15415500Y-6873000D01*
X15415500Y-7668500D02*
X15445500Y-7698500D01*
X15445500Y-7668500D02*
X15415500Y-7698500D01*
X15432000Y-8303500D02*
X15462000Y-8333500D01*
X15462000Y-8303500D02*
X15432000Y-8333500D01*
X15440250Y-11732500D02*
X15470250Y-11762500D01*
X15470250Y-11732500D02*
X15440250Y-11762500D01*
X15447250Y-9954500D02*
X15477250Y-9984500D01*
X15477250Y-9954500D02*
X15447250Y-9984500D01*
X15479000Y-7732000D02*
X15509000Y-7762000D01*
X15509000Y-7732000D02*
X15479000Y-7762000D01*
X15510750Y-9319500D02*
X15540750Y-9349500D01*
X15540750Y-9319500D02*
X15510750Y-9349500D01*
X15510750Y-12177000D02*
X15540750Y-12207000D01*
X15540750Y-12177000D02*
X15510750Y-12207000D01*
X15574250Y-9256000D02*
X15604250Y-9286000D01*
X15604250Y-9256000D02*
X15574250Y-9286000D01*
X15574250Y-9732250D02*
X15604250Y-9762250D01*
X15604250Y-9732250D02*
X15574250Y-9762250D01*
X15637750Y-9097250D02*
X15667750Y-9127250D01*
X15667750Y-9097250D02*
X15637750Y-9127250D01*
X15637750Y-9795750D02*
X15667750Y-9825750D01*
X15667750Y-9795750D02*
X15637750Y-9825750D01*
X15637750Y-11827750D02*
X15667750Y-11857750D01*
X15667750Y-11827750D02*
X15637750Y-11857750D01*
X15669500Y-10049750D02*
X15699500Y-10079750D01*
X15699500Y-10049750D02*
X15669500Y-10079750D01*
X15669500Y-12050000D02*
X15699500Y-12080000D01*
X15699500Y-12050000D02*
X15669500Y-12080000D01*
X15697750Y-9668750D02*
X15727750Y-9698750D01*
X15727750Y-9668750D02*
X15697750Y-9698750D01*
X15698250Y-8303500D02*
X15728250Y-8333500D01*
X15728250Y-8303500D02*
X15698250Y-8333500D01*
X15698250Y-8652750D02*
X15728250Y-8682750D01*
X15728250Y-8652750D02*
X15698250Y-8682750D01*
X15733000Y-9351250D02*
X15763000Y-9381250D01*
X15763000Y-9351250D02*
X15733000Y-9381250D01*
X15764750Y-7700250D02*
X15794750Y-7730250D01*
X15794750Y-7700250D02*
X15764750Y-7730250D01*
X15831750Y-7636750D02*
X15861750Y-7666750D01*
X15861750Y-7636750D02*
X15831750Y-7666750D01*
X15987000Y-8140000D02*
X16017000Y-8170000D01*
X16017000Y-8140000D02*
X15987000Y-8170000D01*
X15987000Y-8430500D02*
X16017000Y-8460500D01*
X16017000Y-8430500D02*
X15987000Y-8460500D01*
X16018750Y-9859250D02*
X16048750Y-9889250D01*
X16048750Y-9859250D02*
X16018750Y-9889250D01*
X16050500Y-9129000D02*
X16080500Y-9159000D01*
X16080500Y-9129000D02*
X16050500Y-9159000D01*
X16082250Y-8779750D02*
X16112250Y-8809750D01*
X16112250Y-8779750D02*
X16082250Y-8809750D01*
X16087000Y-10303750D02*
X16117000Y-10333750D01*
X16117000Y-10303750D02*
X16087000Y-10333750D01*
X16177500Y-9949250D02*
X16207500Y-9979250D01*
X16207500Y-9949250D02*
X16177500Y-9979250D01*
X16182250Y-11224500D02*
X16212250Y-11254500D01*
X16212250Y-11224500D02*
X16182250Y-11254500D01*
X16237500Y-11161000D02*
X16267500Y-11191000D01*
X16267500Y-11161000D02*
X16237500Y-11191000D01*
X16241000Y-9414750D02*
X16271000Y-9444750D01*
X16271000Y-9414750D02*
X16241000Y-9444750D01*
X16399750Y-7319250D02*
X16429750Y-7349250D01*
X16429750Y-7319250D02*
X16399750Y-7349250D01*
X16431500Y-9256000D02*
X16461500Y-9286000D01*
X16461500Y-9256000D02*
X16431500Y-9286000D01*
X16431500Y-10208500D02*
X16461500Y-10238500D01*
X16461500Y-10208500D02*
X16431500Y-10238500D01*
X16617200Y-10526000D02*
X16647200Y-10556000D01*
X16647200Y-10526000D02*
X16617200Y-10556000D01*
X16626811Y-11045400D02*
X16656811Y-11075400D01*
X16656811Y-11045400D02*
X16626811Y-11075400D01*
X16744200Y-11029200D02*
X16774200Y-11059200D01*
X16774200Y-11029200D02*
X16744200Y-11059200D01*
X16780750Y-9414750D02*
X16810750Y-9444750D01*
X16810750Y-9414750D02*
X16780750Y-9444750D01*
X16780750Y-11986500D02*
X16810750Y-12016500D01*
X16810750Y-11986500D02*
X16780750Y-12016500D01*
X16794106Y-11095144D02*
X16824106Y-11125144D01*
X16824106Y-11095144D02*
X16794106Y-11125144D01*
X16823900Y-11669000D02*
X16853900Y-11699000D01*
X16853900Y-11669000D02*
X16823900Y-11699000D01*
X16844250Y-10589500D02*
X16874250Y-10619500D01*
X16874250Y-10589500D02*
X16844250Y-10619500D01*
X16845800Y-11156200D02*
X16875800Y-11186200D01*
X16875800Y-11156200D02*
X16845800Y-11186200D01*
X16876000Y-10367250D02*
X16906000Y-10397250D01*
X16906000Y-10367250D02*
X16876000Y-10397250D01*
X16939500Y-11319750D02*
X16969500Y-11349750D01*
X16969500Y-11319750D02*
X16939500Y-11349750D01*
X16971250Y-9595000D02*
X17001250Y-9625000D01*
X17001250Y-9595000D02*
X16971250Y-9625000D01*
X17003000Y-11986500D02*
X17033000Y-12016500D01*
X17033000Y-11986500D02*
X17003000Y-12016500D01*
X17098250Y-10208500D02*
X17128250Y-10238500D01*
X17128250Y-10208500D02*
X17098250Y-10238500D01*
X17257000Y-13891500D02*
X17287000Y-13921500D01*
X17287000Y-13891500D02*
X17257000Y-13921500D01*
X17288750Y-8140000D02*
X17318750Y-8170000D01*
X17318750Y-8140000D02*
X17288750Y-8170000D01*
X17352250Y-12113500D02*
X17382250Y-12143500D01*
X17382250Y-12113500D02*
X17352250Y-12143500D01*
X17384000Y-8081250D02*
X17414000Y-8111250D01*
X17414000Y-8081250D02*
X17384000Y-8111250D01*
X17415750Y-10684750D02*
X17445750Y-10714750D01*
X17445750Y-10684750D02*
X17415750Y-10714750D01*
X17606250Y-13796250D02*
X17636250Y-13826250D01*
X17636250Y-13796250D02*
X17606250Y-13826250D01*
X17638000Y-9827500D02*
X17668000Y-9857500D01*
X17668000Y-9827500D02*
X17638000Y-9857500D01*
X17638000Y-10240250D02*
X17668000Y-10270250D01*
X17668000Y-10240250D02*
X17638000Y-10270250D01*
X17669750Y-11542000D02*
X17699750Y-11572000D01*
X17699750Y-11542000D02*
X17669750Y-11572000D01*
X17733250Y-12272250D02*
X17763250Y-12302250D01*
X17763250Y-12272250D02*
X17733250Y-12302250D01*
X17733250Y-12494500D02*
X17763250Y-12524500D01*
X17763250Y-12494500D02*
X17733250Y-12524500D01*
X17765000Y-10145000D02*
X17795000Y-10175000D01*
X17795000Y-10145000D02*
X17765000Y-10175000D01*
X17796750Y-9986250D02*
X17826750Y-10016250D01*
X17826750Y-9986250D02*
X17796750Y-10016250D01*
X17860250Y-7478000D02*
X17890250Y-7508000D01*
X17890250Y-7478000D02*
X17860250Y-7508000D01*
X17860250Y-11542000D02*
X17890250Y-11572000D01*
X17890250Y-11542000D02*
X17860250Y-11572000D01*
X17955500Y-11034000D02*
X17985500Y-11064000D01*
X17985500Y-11034000D02*
X17955500Y-11064000D01*
X17987250Y-11129250D02*
X18017250Y-11159250D01*
X18017250Y-11129250D02*
X17987250Y-11159250D01*
X17987250Y-11256250D02*
X18017250Y-11286250D01*
X18017250Y-11256250D02*
X17987250Y-11286250D01*
X18050750Y-8843250D02*
X18080750Y-8873250D01*
X18080750Y-8843250D02*
X18050750Y-8873250D01*
X18050750Y-8923250D02*
X18080750Y-8953250D01*
X18080750Y-8923250D02*
X18050750Y-8953250D01*
X18082500Y-11192750D02*
X18112500Y-11222750D01*
X18112500Y-11192750D02*
X18082500Y-11222750D01*
X18114250Y-13796250D02*
X18144250Y-13826250D01*
X18144250Y-13796250D02*
X18114250Y-13826250D01*
X18146000Y-9573500D02*
X18176000Y-9603500D01*
X18176000Y-9573500D02*
X18146000Y-9603500D01*
X18241250Y-9573500D02*
X18271250Y-9603500D01*
X18271250Y-9573500D02*
X18241250Y-9603500D01*
X18304750Y-7033500D02*
X18334750Y-7063500D01*
X18334750Y-7033500D02*
X18304750Y-7063500D01*
X18304750Y-10494250D02*
X18334750Y-10524250D01*
X18334750Y-10494250D02*
X18304750Y-10524250D01*
X18336500Y-9954500D02*
X18366500Y-9984500D01*
X18366500Y-9954500D02*
X18336500Y-9984500D01*
X18336500Y-10272000D02*
X18366500Y-10302000D01*
X18366500Y-10272000D02*
X18336500Y-10302000D01*
X18368250Y-13796250D02*
X18398250Y-13826250D01*
X18398250Y-13796250D02*
X18368250Y-13826250D01*
X18431750Y-7509750D02*
X18461750Y-7539750D01*
X18461750Y-7509750D02*
X18431750Y-7539750D01*
X18590500Y-7033500D02*
X18620500Y-7063500D01*
X18620500Y-7033500D02*
X18590500Y-7063500D01*
X18685750Y-12589750D02*
X18715750Y-12619750D01*
X18715750Y-12589750D02*
X18685750Y-12619750D01*
X18717500Y-11510250D02*
X18747500Y-11540250D01*
X18747500Y-11510250D02*
X18717500Y-11540250D01*
X18908000Y-10240250D02*
X18938000Y-10270250D01*
X18938000Y-10240250D02*
X18908000Y-10270250D01*
X19257250Y-12589750D02*
X19287250Y-12619750D01*
X19287250Y-12589750D02*
X19257250Y-12619750D01*
X10634450Y-12424600D02*
G75*
G02*
X10604450Y-12424600I-15000J0D01*
G01*
X10604450Y-12424600D02*
G75*
G02*
X10634450Y-12424600I15000J0D01*
G01*
X10634450Y-12596600D02*
G75*
G02*
X10604450Y-12596600I-15000J0D01*
G01*
X10604450Y-12596600D02*
G75*
G02*
X10634450Y-12596600I15000J0D01*
G01*
X10682450Y-12510600D02*
G75*
G02*
X10652450Y-12510600I-15000J0D01*
G01*
X10652450Y-12510600D02*
G75*
G02*
X10682450Y-12510600I15000J0D01*
G01*
X10730450Y-12424600D02*
G75*
G02*
X10700450Y-12424600I-15000J0D01*
G01*
X10700450Y-12424600D02*
G75*
G02*
X10730450Y-12424600I15000J0D01*
G01*
X10730450Y-12596600D02*
G75*
G02*
X10700450Y-12596600I-15000J0D01*
G01*
X10700450Y-12596600D02*
G75*
G02*
X10730450Y-12596600I15000J0D01*
G01*
X9652000Y-9314500D02*
X9652000Y-9354500D01*
X9632000Y-9334500D02*
X9672000Y-9334500D01*
X9652000Y-9949500D02*
X9652000Y-9989500D01*
X9632000Y-9969500D02*
X9672000Y-9969500D01*
X10191750Y-9314500D02*
X10191750Y-9354500D01*
X10171750Y-9334500D02*
X10211750Y-9334500D01*
X10191750Y-10362250D02*
X10191750Y-10402250D01*
X10171750Y-10382250D02*
X10211750Y-10382250D01*
X10764800Y-9678000D02*
X10764800Y-9718000D01*
X10744800Y-9698000D02*
X10784800Y-9698000D01*
X9479178Y-7828178D02*
X9479178Y-7792822D01*
X9443822Y-7792822D01*
X9443822Y-7828178D01*
X9479178Y-7828178D01*
X9923678Y-10812678D02*
X9923678Y-10777322D01*
X9888322Y-10777322D01*
X9888322Y-10812678D01*
X9923678Y-10812678D01*
X9923678Y-11130178D02*
X9923678Y-11094822D01*
X9888322Y-11094822D01*
X9888322Y-11130178D01*
X9923678Y-11130178D01*
X10041378Y-10058578D02*
X10041378Y-10023222D01*
X10006022Y-10023222D01*
X10006022Y-10058578D01*
X10041378Y-10058578D01*
X10050678Y-11511178D02*
X10050678Y-11475822D01*
X10015322Y-11475822D01*
X10015322Y-11511178D01*
X10050678Y-11511178D01*
X10126878Y-11803278D02*
X10126878Y-11767922D01*
X10091522Y-11767922D01*
X10091522Y-11803278D01*
X10126878Y-11803278D01*
X10204628Y-7701178D02*
X10204628Y-7665822D01*
X10169272Y-7665822D01*
X10169272Y-7701178D01*
X10204628Y-7701178D01*
X10368178Y-8018678D02*
X10368178Y-7983322D01*
X10332822Y-7983322D01*
X10332822Y-8018678D01*
X10368178Y-8018678D01*
X10649128Y-11273478D02*
X10649128Y-11238122D01*
X10613772Y-11238122D01*
X10613772Y-11273478D01*
X10649128Y-11273478D01*
X10685678Y-10558678D02*
X10685678Y-10523322D01*
X10650322Y-10523322D01*
X10650322Y-10558678D01*
X10685678Y-10558678D01*
X10766603Y-8480603D02*
X10766603Y-8445247D01*
X10731247Y-8445247D01*
X10731247Y-8480603D01*
X10766603Y-8480603D01*
X10838078Y-12743078D02*
X10838078Y-12707722D01*
X10802722Y-12707722D01*
X10802722Y-12743078D01*
X10838078Y-12743078D01*
X10965078Y-11803278D02*
X10965078Y-11767922D01*
X10929722Y-11767922D01*
X10929722Y-11803278D01*
X10965078Y-11803278D01*
X11098428Y-12463678D02*
X11098428Y-12428322D01*
X11063072Y-12428322D01*
X11063072Y-12463678D01*
X11098428Y-12463678D01*
X11193678Y-10876178D02*
X11193678Y-10840822D01*
X11158322Y-10840822D01*
X11158322Y-10876178D01*
X11193678Y-10876178D01*
X11498478Y-7305878D02*
X11498478Y-7270522D01*
X11463122Y-7270522D01*
X11463122Y-7305878D01*
X11498478Y-7305878D01*
X11519078Y-11671478D02*
X11519078Y-11636122D01*
X11483722Y-11636122D01*
X11483722Y-11671478D01*
X11519078Y-11671478D01*
X11665128Y-11269878D02*
X11665128Y-11234522D01*
X11629772Y-11234522D01*
X11629772Y-11269878D01*
X11665128Y-11269878D01*
X11955678Y-7701178D02*
X11955678Y-7665822D01*
X11920322Y-7665822D01*
X11920322Y-7701178D01*
X11955678Y-7701178D01*
X12002828Y-8256328D02*
X12002828Y-8220972D01*
X11967472Y-8220972D01*
X11967472Y-8256328D01*
X12002828Y-8256328D01*
X12082678Y-12685928D02*
X12082678Y-12650572D01*
X12047322Y-12650572D01*
X12047322Y-12685928D01*
X12082678Y-12685928D01*
X12108078Y-7305878D02*
X12108078Y-7270522D01*
X12072722Y-7270522D01*
X12072722Y-7305878D01*
X12108078Y-7305878D01*
X12128678Y-12458878D02*
X12128678Y-12423522D01*
X12093322Y-12423522D01*
X12093322Y-12458878D01*
X12128678Y-12458878D01*
X12146178Y-12082678D02*
X12146178Y-12047322D01*
X12110822Y-12047322D01*
X12110822Y-12082678D01*
X12146178Y-12082678D01*
X12336678Y-8082178D02*
X12336678Y-8046822D01*
X12301322Y-8046822D01*
X12301322Y-8082178D01*
X12336678Y-8082178D01*
X12336678Y-12939928D02*
X12336678Y-12904572D01*
X12301322Y-12904572D01*
X12301322Y-12939928D01*
X12336678Y-12939928D01*
X12622428Y-12447178D02*
X12622428Y-12411822D01*
X12587072Y-12411822D01*
X12587072Y-12447178D01*
X12622428Y-12447178D01*
X12768478Y-7305878D02*
X12768478Y-7270522D01*
X12733122Y-7270522D01*
X12733122Y-7305878D01*
X12768478Y-7305878D01*
X12781178Y-8082178D02*
X12781178Y-8046822D01*
X12745822Y-8046822D01*
X12745822Y-8082178D01*
X12781178Y-8082178D01*
X12876428Y-9288678D02*
X12876428Y-9253322D01*
X12841072Y-9253322D01*
X12841072Y-9288678D01*
X12876428Y-9288678D01*
X12879728Y-10685678D02*
X12879728Y-10650322D01*
X12844372Y-10650322D01*
X12844372Y-10685678D01*
X12879728Y-10685678D01*
X12916078Y-11671478D02*
X12916078Y-11636122D01*
X12880722Y-11636122D01*
X12880722Y-11671478D01*
X12916078Y-11671478D01*
X13225678Y-9608278D02*
X13225678Y-9572922D01*
X13190322Y-9572922D01*
X13190322Y-9608278D01*
X13225678Y-9608278D01*
X13225678Y-9923678D02*
X13225678Y-9888322D01*
X13190322Y-9888322D01*
X13190322Y-9923678D01*
X13225678Y-9923678D01*
X13378078Y-7305878D02*
X13378078Y-7270522D01*
X13342722Y-7270522D01*
X13342722Y-7305878D01*
X13378078Y-7305878D01*
X13416178Y-8907678D02*
X13416178Y-8872322D01*
X13380822Y-8872322D01*
X13380822Y-8907678D01*
X13416178Y-8907678D01*
X13479678Y-12717678D02*
X13479678Y-12682322D01*
X13444322Y-12682322D01*
X13444322Y-12717678D01*
X13479678Y-12717678D01*
X13606678Y-12082678D02*
X13606678Y-12047322D01*
X13571322Y-12047322D01*
X13571322Y-12082678D01*
X13606678Y-12082678D01*
X13606678Y-12527178D02*
X13606678Y-12491822D01*
X13571322Y-12491822D01*
X13571322Y-12527178D01*
X13606678Y-12527178D01*
X13733678Y-12971678D02*
X13733678Y-12936322D01*
X13698322Y-12936322D01*
X13698322Y-12971678D01*
X13733678Y-12971678D01*
X13797178Y-9002928D02*
X13797178Y-8967572D01*
X13761822Y-8967572D01*
X13761822Y-9002928D01*
X13797178Y-9002928D01*
X13797178Y-9256928D02*
X13797178Y-9221572D01*
X13761822Y-9221572D01*
X13761822Y-9256928D01*
X13797178Y-9256928D01*
X13797178Y-9447428D02*
X13797178Y-9412072D01*
X13761822Y-9412072D01*
X13761822Y-9447428D01*
X13797178Y-9447428D01*
X13797178Y-9547428D02*
X13797178Y-9512073D01*
X13761822Y-9512073D01*
X13761822Y-9547428D01*
X13797178Y-9547428D01*
X13797178Y-9955428D02*
X13797178Y-9920072D01*
X13761822Y-9920072D01*
X13761822Y-9955428D01*
X13797178Y-9955428D01*
X13860678Y-10209428D02*
X13860678Y-10174072D01*
X13825322Y-10174072D01*
X13825322Y-10209428D01*
X13860678Y-10209428D01*
X13875678Y-8130678D02*
X13875678Y-8095322D01*
X13840322Y-8095322D01*
X13840322Y-8130678D01*
X13875678Y-8130678D01*
X13897178Y-9002928D02*
X13897178Y-8967572D01*
X13861822Y-8967572D01*
X13861822Y-9002928D01*
X13897178Y-9002928D01*
X13960678Y-10209428D02*
X13960678Y-10174072D01*
X13925322Y-10174072D01*
X13925322Y-10209428D01*
X13960678Y-10209428D01*
X14019428Y-12400178D02*
X14019428Y-12364822D01*
X13984072Y-12364822D01*
X13984072Y-12400178D01*
X14019428Y-12400178D01*
X14038478Y-7305878D02*
X14038478Y-7270522D01*
X14003122Y-7270522D01*
X14003122Y-7305878D01*
X14038478Y-7305878D01*
X14051178Y-11447678D02*
X14051178Y-11412322D01*
X14015822Y-11412322D01*
X14015822Y-11447678D01*
X14051178Y-11447678D01*
X14195528Y-7683828D02*
X14195528Y-7648472D01*
X14160172Y-7648472D01*
X14160172Y-7683828D01*
X14195528Y-7683828D01*
X14351830Y-8272678D02*
X14351830Y-8237322D01*
X14316474Y-8237322D01*
X14316474Y-8272678D01*
X14351830Y-8272678D01*
X14487328Y-8073828D02*
X14487328Y-8038472D01*
X14451972Y-8038472D01*
X14451972Y-8073828D01*
X14487328Y-8073828D01*
X14590928Y-12400178D02*
X14590928Y-12364822D01*
X14555572Y-12364822D01*
X14555572Y-12400178D01*
X14590928Y-12400178D01*
X14622678Y-11384178D02*
X14622678Y-11348822D01*
X14587322Y-11348822D01*
X14587322Y-11384178D01*
X14622678Y-11384178D01*
X14622678Y-11542928D02*
X14622678Y-11507572D01*
X14587322Y-11507572D01*
X14587322Y-11542928D01*
X14622678Y-11542928D01*
X14648078Y-7305878D02*
X14648078Y-7270522D01*
X14612722Y-7270522D01*
X14612722Y-7305878D01*
X14648078Y-7305878D01*
X14749678Y-10114178D02*
X14749678Y-10078822D01*
X14714322Y-10078822D01*
X14714322Y-10114178D01*
X14749678Y-10114178D01*
X15003678Y-8082178D02*
X15003678Y-8046822D01*
X14968322Y-8046822D01*
X14968322Y-8082178D01*
X15003678Y-8082178D01*
X15003678Y-9066428D02*
X15003678Y-9031072D01*
X14968322Y-9031072D01*
X14968322Y-9066428D01*
X15003678Y-9066428D01*
X15003678Y-9166428D02*
X15003678Y-9131073D01*
X14968322Y-9131073D01*
X14968322Y-9166428D01*
X15003678Y-9166428D01*
X15004069Y-10215398D02*
X15004069Y-10180043D01*
X14968713Y-10180043D01*
X14968713Y-10215398D01*
X15004069Y-10215398D01*
X15257678Y-12400178D02*
X15257678Y-12364822D01*
X15222322Y-12364822D01*
X15222322Y-12400178D01*
X15257678Y-12400178D01*
X15289428Y-11447678D02*
X15289428Y-11412322D01*
X15254072Y-11412322D01*
X15254072Y-11447678D01*
X15289428Y-11447678D01*
X15308478Y-7305878D02*
X15308478Y-7270522D01*
X15273122Y-7270522D01*
X15273122Y-7305878D01*
X15308478Y-7305878D01*
X15352928Y-9002928D02*
X15352928Y-8967572D01*
X15317572Y-8967572D01*
X15317572Y-9002928D01*
X15352928Y-9002928D01*
X15829178Y-11384178D02*
X15829178Y-11348822D01*
X15793822Y-11348822D01*
X15793822Y-11384178D01*
X15829178Y-11384178D01*
X15860928Y-8907678D02*
X15860928Y-8872322D01*
X15825572Y-8872322D01*
X15825572Y-8907678D01*
X15860928Y-8907678D01*
X15860928Y-9415678D02*
X15860928Y-9380322D01*
X15825572Y-9380322D01*
X15825572Y-9415678D01*
X15860928Y-9415678D01*
X15860928Y-9923678D02*
X15860928Y-9888322D01*
X15825572Y-9888322D01*
X15825572Y-9923678D01*
X15860928Y-9923678D01*
X15860928Y-11542928D02*
X15860928Y-11507572D01*
X15825572Y-11507572D01*
X15825572Y-11542928D01*
X15860928Y-11542928D01*
X15860928Y-12400178D02*
X15860928Y-12364822D01*
X15825572Y-12364822D01*
X15825572Y-12400178D01*
X15860928Y-12400178D01*
X15943478Y-7305878D02*
X15943478Y-7270522D01*
X15908122Y-7270522D01*
X15908122Y-7305878D01*
X15943478Y-7305878D01*
X15956178Y-9383928D02*
X15956178Y-9348572D01*
X15920822Y-9348572D01*
X15920822Y-9383928D01*
X15956178Y-9383928D01*
X16019678Y-10526928D02*
X16019678Y-10491572D01*
X15984322Y-10491572D01*
X15984322Y-10526928D01*
X16019678Y-10526928D01*
X16210178Y-8907678D02*
X16210178Y-8872322D01*
X16174822Y-8872322D01*
X16174822Y-8907678D01*
X16210178Y-8907678D01*
X16210178Y-9891928D02*
X16210178Y-9856572D01*
X16174822Y-9856572D01*
X16174822Y-9891928D01*
X16210178Y-9891928D01*
X16368928Y-9891928D02*
X16368928Y-9856572D01*
X16333572Y-9856572D01*
X16333572Y-9891928D01*
X16368928Y-9891928D01*
X16464178Y-9002928D02*
X16464178Y-8967572D01*
X16428822Y-8967572D01*
X16428822Y-9002928D01*
X16464178Y-9002928D01*
X16527678Y-10463428D02*
X16527678Y-10428072D01*
X16492322Y-10428072D01*
X16492322Y-10463428D01*
X16527678Y-10463428D01*
X16591178Y-9764928D02*
X16591178Y-9729572D01*
X16555822Y-9729572D01*
X16555822Y-9764928D01*
X16591178Y-9764928D01*
X16622928Y-12400178D02*
X16622928Y-12364822D01*
X16587572Y-12364822D01*
X16587572Y-12400178D01*
X16622928Y-12400178D01*
X16940428Y-10114178D02*
X16940428Y-10078822D01*
X16905072Y-10078822D01*
X16905072Y-10114178D01*
X16940428Y-10114178D01*
X17130928Y-7478928D02*
X17130928Y-7443572D01*
X17095572Y-7443572D01*
X17095572Y-7478928D01*
X17130928Y-7478928D01*
X17130928Y-8875928D02*
X17130928Y-8840572D01*
X17095572Y-8840572D01*
X17095572Y-8875928D01*
X17130928Y-8875928D01*
X17194428Y-9479178D02*
X17194428Y-9443822D01*
X17159072Y-9443822D01*
X17159072Y-9479178D01*
X17194428Y-9479178D01*
X17194428Y-12336678D02*
X17194428Y-12301322D01*
X17159072Y-12301322D01*
X17159072Y-12336678D01*
X17194428Y-12336678D01*
X17194428Y-12495428D02*
X17194428Y-12460072D01*
X17159072Y-12460072D01*
X17159072Y-12495428D01*
X17194428Y-12495428D01*
X17353178Y-11987428D02*
X17353178Y-11952072D01*
X17317822Y-11952072D01*
X17317822Y-11987428D01*
X17353178Y-11987428D01*
X17480178Y-11257178D02*
X17480178Y-11221822D01*
X17444822Y-11221822D01*
X17444822Y-11257178D01*
X17480178Y-11257178D01*
X17511928Y-11574678D02*
X17511928Y-11539322D01*
X17476572Y-11539322D01*
X17476572Y-11574678D01*
X17511928Y-11574678D01*
X17702428Y-7828178D02*
X17702428Y-7792822D01*
X17667072Y-7792822D01*
X17667072Y-7828178D01*
X17702428Y-7828178D01*
X17702428Y-8050428D02*
X17702428Y-8015072D01*
X17667072Y-8015072D01*
X17667072Y-8050428D01*
X17702428Y-8050428D01*
X17702428Y-8494928D02*
X17702428Y-8459572D01*
X17667072Y-8459572D01*
X17667072Y-8494928D01*
X17702428Y-8494928D01*
X17702428Y-8717178D02*
X17702428Y-8681822D01*
X17667072Y-8681822D01*
X17667072Y-8717178D01*
X17702428Y-8717178D01*
X17702428Y-9108778D02*
X17702428Y-9073422D01*
X17667072Y-9073422D01*
X17667072Y-9108778D01*
X17702428Y-9108778D01*
X17702428Y-11765178D02*
X17702428Y-11729822D01*
X17667072Y-11729822D01*
X17667072Y-11765178D01*
X17702428Y-11765178D01*
X17706578Y-9316278D02*
X17706578Y-9280922D01*
X17671222Y-9280922D01*
X17671222Y-9316278D01*
X17706578Y-9316278D01*
X17742078Y-9690278D02*
X17742078Y-9654922D01*
X17706722Y-9654922D01*
X17706722Y-9690278D01*
X17742078Y-9690278D01*
X17765928Y-11257178D02*
X17765928Y-11221822D01*
X17730572Y-11221822D01*
X17730572Y-11257178D01*
X17765928Y-11257178D01*
X17776678Y-10325678D02*
X17776678Y-10290322D01*
X17741322Y-10290322D01*
X17741322Y-10325678D01*
X17776678Y-10325678D01*
X17797678Y-12400178D02*
X17797678Y-12364822D01*
X17762322Y-12364822D01*
X17762322Y-12400178D01*
X17797678Y-12400178D01*
X18146928Y-11994178D02*
X18146928Y-11958822D01*
X18111572Y-11958822D01*
X18111572Y-11994178D01*
X18146928Y-11994178D01*
X18210428Y-7066178D02*
X18210428Y-7030822D01*
X18175072Y-7030822D01*
X18175072Y-7066178D01*
X18210428Y-7066178D01*
X18312178Y-12400178D02*
X18312178Y-12364822D01*
X18276822Y-12364822D01*
X18276822Y-12400178D01*
X18312178Y-12400178D01*
X18371050Y-7921555D02*
X18371050Y-7886200D01*
X18335695Y-7886200D01*
X18335695Y-7921555D01*
X18371050Y-7921555D01*
X18400928Y-9193428D02*
X18400928Y-9158072D01*
X18365572Y-9158072D01*
X18365572Y-9193428D01*
X18400928Y-9193428D01*
X18400928Y-10431678D02*
X18400928Y-10396322D01*
X18365572Y-10396322D01*
X18365572Y-10431678D01*
X18400928Y-10431678D01*
X18400928Y-11257178D02*
X18400928Y-11221822D01*
X18365572Y-11221822D01*
X18365572Y-11257178D01*
X18400928Y-11257178D01*
X18401501Y-8558080D02*
X18401501Y-8522724D01*
X18366145Y-8522724D01*
X18366145Y-8558080D01*
X18401501Y-8558080D01*
X18432678Y-11574678D02*
X18432678Y-11539322D01*
X18397322Y-11539322D01*
X18397322Y-11574678D01*
X18432678Y-11574678D01*
X18623178Y-11765178D02*
X18623178Y-11729822D01*
X18587822Y-11729822D01*
X18587822Y-11765178D01*
X18623178Y-11765178D01*
X18650128Y-9677578D02*
X18650128Y-9642222D01*
X18614772Y-9642222D01*
X18614772Y-9677578D01*
X18650128Y-9677578D01*
X18654928Y-8113928D02*
X18654928Y-8078572D01*
X18619572Y-8078572D01*
X18619572Y-8113928D01*
X18654928Y-8113928D01*
X18654928Y-8780678D02*
X18654928Y-8745322D01*
X18619572Y-8745322D01*
X18619572Y-8780678D01*
X18654928Y-8780678D01*
X18654928Y-9415678D02*
X18654928Y-9380322D01*
X18619572Y-9380322D01*
X18619572Y-9415678D01*
X18654928Y-9415678D01*
X18686678Y-11257178D02*
X18686678Y-11221822D01*
X18651322Y-11221822D01*
X18651322Y-11257178D01*
X18686678Y-11257178D01*
X18845428Y-7034428D02*
X18845428Y-6999072D01*
X18810072Y-6999072D01*
X18810072Y-7034428D01*
X18845428Y-7034428D01*
X18870678Y-12400178D02*
X18870678Y-12364822D01*
X18835322Y-12364822D01*
X18835322Y-12400178D01*
X18870678Y-12400178D01*
X18972428Y-11987428D02*
X18972428Y-11952072D01*
X18937072Y-11952072D01*
X18937072Y-11987428D01*
X18972428Y-11987428D01*
X19025678Y-7447178D02*
X19025678Y-7411822D01*
X18990322Y-7411822D01*
X18990322Y-7447178D01*
X19025678Y-7447178D01*
X20274178Y-10939678D02*
X20274178Y-10904322D01*
X20238822Y-10904322D01*
X20238822Y-10939678D01*
X20274178Y-10939678D01*
X8997500Y-9258550D02*
X9027500Y-9228550D01*
X8997500Y-9198550D01*
X8967500Y-9228550D01*
X8997500Y-9258550D01*
X9037500Y-9198550D02*
X8957500Y-9198550D01*
X8957500Y-9258550D02*
G75*
G02*
X8957500Y-9198550I0J30000D01*
G01*
X8957500Y-9258550D02*
X9037500Y-9258550D01*
X9037500Y-9258550D02*
G75*
G03*
X9037500Y-9198550I0J30000D01*
G01*
X8997500Y-10122550D02*
X9027500Y-10092550D01*
X8997500Y-10062550D01*
X8967500Y-10092550D01*
X8997500Y-10122550D01*
X9037500Y-10062550D02*
X8957500Y-10062550D01*
X8957500Y-10122550D02*
G75*
G02*
X8957500Y-10062550I0J30000D01*
G01*
X8957500Y-10122550D02*
X9037500Y-10122550D01*
X9037500Y-10122550D02*
G75*
G03*
X9037500Y-10062550I0J30000D01*
G01*
X9415500Y-9258550D02*
X9445500Y-9228550D01*
X9415500Y-9198550D01*
X9385500Y-9228550D01*
X9415500Y-9258550D01*
X9470500Y-9198550D02*
X9360500Y-9198550D01*
X9360500Y-9258550D02*
G75*
G02*
X9360500Y-9198550I0J30000D01*
G01*
X9360500Y-9258550D02*
X9470500Y-9258550D01*
X9470500Y-9258550D02*
G75*
G03*
X9470500Y-9198550I0J30000D01*
G01*
X9415500Y-10122550D02*
X9445500Y-10092550D01*
X9415500Y-10062550D01*
X9385500Y-10092550D01*
X9415500Y-10122550D01*
X9470500Y-10062550D02*
X9360500Y-10062550D01*
X9360500Y-10122550D02*
G75*
G02*
X9360500Y-10062550I0J30000D01*
G01*
X9360500Y-10122550D02*
X9470500Y-10122550D01*
X9470500Y-10122550D02*
G75*
G03*
X9470500Y-10062550I0J30000D01*
G01*
X11585500Y-11458500D02*
X11655500Y-11528500D01*
X11655500Y-11458500D02*
X11585500Y-11528500D01*
X11655500Y-11493500D02*
G75*
G02*
X11585500Y-11493500I-35000J0D01*
G01*
X11585500Y-11493500D02*
G75*
G02*
X11655500Y-11493500I35000J0D01*
G01*
X11644200Y-10506000D02*
X11714200Y-10576000D01*
X11714200Y-10506000D02*
X11644200Y-10576000D01*
X11714200Y-10541000D02*
G75*
G02*
X11644200Y-10541000I-35000J0D01*
G01*
X11644200Y-10541000D02*
G75*
G02*
X11714200Y-10541000I35000J0D01*
G01*
X9169100Y-8172100D02*
X9244100Y-8247100D01*
X9244100Y-8172100D02*
X9169100Y-8247100D01*
X9206600Y-8172100D02*
X9206600Y-8247100D01*
X9169100Y-8209600D02*
X9244100Y-8209600D01*
X9169100Y-8372100D02*
X9244100Y-8447100D01*
X9244100Y-8372100D02*
X9169100Y-8447100D01*
X9206600Y-8372100D02*
X9206600Y-8447100D01*
X9169100Y-8409600D02*
X9244100Y-8409600D01*
X11378900Y-5959100D02*
X11453900Y-6034100D01*
X11453900Y-5959100D02*
X11378900Y-6034100D01*
X11416400Y-5959100D02*
X11416400Y-6034100D01*
X11378900Y-5996600D02*
X11453900Y-5996600D01*
X11378900Y-6159100D02*
X11453900Y-6234100D01*
X11453900Y-6159100D02*
X11378900Y-6234100D01*
X11416400Y-6159100D02*
X11416400Y-6234100D01*
X11378900Y-6196600D02*
X11453900Y-6196600D01*
X11378900Y-6359100D02*
X11453900Y-6434100D01*
X11453900Y-6359100D02*
X11378900Y-6434100D01*
X11416400Y-6359100D02*
X11416400Y-6434100D01*
X11378900Y-6396600D02*
X11453900Y-6396600D01*
X11378900Y-6559100D02*
X11453900Y-6634100D01*
X11453900Y-6559100D02*
X11378900Y-6634100D01*
X11416400Y-6559100D02*
X11416400Y-6634100D01*
X11378900Y-6596600D02*
X11453900Y-6596600D01*
X12004700Y-5959100D02*
X12079700Y-6034100D01*
X12079700Y-5959100D02*
X12004700Y-6034100D01*
X12042200Y-5959100D02*
X12042200Y-6034100D01*
X12004700Y-5996600D02*
X12079700Y-5996600D01*
X12004700Y-6159100D02*
X12079700Y-6234100D01*
X12079700Y-6159100D02*
X12004700Y-6234100D01*
X12042200Y-6159100D02*
X12042200Y-6234100D01*
X12004700Y-6196600D02*
X12079700Y-6196600D01*
X12004700Y-6359100D02*
X12079700Y-6434100D01*
X12079700Y-6359100D02*
X12004700Y-6434100D01*
X12042200Y-6359100D02*
X12042200Y-6434100D01*
X12004700Y-6396600D02*
X12079700Y-6396600D01*
X12004700Y-6559100D02*
X12079700Y-6634100D01*
X12079700Y-6559100D02*
X12004700Y-6634100D01*
X12042200Y-6559100D02*
X12042200Y-6634100D01*
X12004700Y-6596600D02*
X12079700Y-6596600D01*
X12648900Y-5959100D02*
X12723900Y-6034100D01*
X12723900Y-5959100D02*
X12648900Y-6034100D01*
X12686400Y-5959100D02*
X12686400Y-6034100D01*
X12648900Y-5996600D02*
X12723900Y-5996600D01*
X12648900Y-6159100D02*
X12723900Y-6234100D01*
X12723900Y-6159100D02*
X12648900Y-6234100D01*
X12686400Y-6159100D02*
X12686400Y-6234100D01*
X12648900Y-6196600D02*
X12723900Y-6196600D01*
X12648900Y-6359100D02*
X12723900Y-6434100D01*
X12723900Y-6359100D02*
X12648900Y-6434100D01*
X12686400Y-6359100D02*
X12686400Y-6434100D01*
X12648900Y-6396600D02*
X12723900Y-6396600D01*
X12648900Y-6559100D02*
X12723900Y-6634100D01*
X12723900Y-6559100D02*
X12648900Y-6634100D01*
X12686400Y-6559100D02*
X12686400Y-6634100D01*
X12648900Y-6596600D02*
X12723900Y-6596600D01*
X13283900Y-5959100D02*
X13358900Y-6034100D01*
X13358900Y-5959100D02*
X13283900Y-6034100D01*
X13321400Y-5959100D02*
X13321400Y-6034100D01*
X13283900Y-5996600D02*
X13358900Y-5996600D01*
X13283900Y-6159100D02*
X13358900Y-6234100D01*
X13358900Y-6159100D02*
X13283900Y-6234100D01*
X13321400Y-6159100D02*
X13321400Y-6234100D01*
X13283900Y-6196600D02*
X13358900Y-6196600D01*
X13283900Y-6359100D02*
X13358900Y-6434100D01*
X13358900Y-6359100D02*
X13283900Y-6434100D01*
X13321400Y-6359100D02*
X13321400Y-6434100D01*
X13283900Y-6396600D02*
X13358900Y-6396600D01*
X13283900Y-6559100D02*
X13358900Y-6634100D01*
X13358900Y-6559100D02*
X13283900Y-6634100D01*
X13321400Y-6559100D02*
X13321400Y-6634100D01*
X13283900Y-6596600D02*
X13358900Y-6596600D01*
X13918900Y-5959100D02*
X13993900Y-6034100D01*
X13993900Y-5959100D02*
X13918900Y-6034100D01*
X13956400Y-5959100D02*
X13956400Y-6034100D01*
X13918900Y-5996600D02*
X13993900Y-5996600D01*
X13918900Y-6159100D02*
X13993900Y-6234100D01*
X13993900Y-6159100D02*
X13918900Y-6234100D01*
X13956400Y-6159100D02*
X13956400Y-6234100D01*
X13918900Y-6196600D02*
X13993900Y-6196600D01*
X13918900Y-6359100D02*
X13993900Y-6434100D01*
X13993900Y-6359100D02*
X13918900Y-6434100D01*
X13956400Y-6359100D02*
X13956400Y-6434100D01*
X13918900Y-6396600D02*
X13993900Y-6396600D01*
X13918900Y-6559100D02*
X13993900Y-6634100D01*
X13993900Y-6559100D02*
X13918900Y-6634100D01*
X13956400Y-6559100D02*
X13956400Y-6634100D01*
X13918900Y-6596600D02*
X13993900Y-6596600D01*
X14062100Y-13299700D02*
X14137100Y-13374700D01*
X14137100Y-13299700D02*
X14062100Y-13374700D01*
X14099600Y-13299700D02*
X14099600Y-13374700D01*
X14062100Y-13337200D02*
X14137100Y-13337200D01*
X14062100Y-13499700D02*
X14137100Y-13574700D01*
X14137100Y-13499700D02*
X14062100Y-13574700D01*
X14099600Y-13499700D02*
X14099600Y-13574700D01*
X14062100Y-13537200D02*
X14137100Y-13537200D01*
X14062100Y-13699700D02*
X14137100Y-13774700D01*
X14137100Y-13699700D02*
X14062100Y-13774700D01*
X14099600Y-13699700D02*
X14099600Y-13774700D01*
X14062100Y-13737200D02*
X14137100Y-13737200D01*
X14062100Y-13899700D02*
X14137100Y-13974700D01*
X14137100Y-13899700D02*
X14062100Y-13974700D01*
X14099600Y-13899700D02*
X14099600Y-13974700D01*
X14062100Y-13937200D02*
X14137100Y-13937200D01*
X14553900Y-5959100D02*
X14628900Y-6034100D01*
X14628900Y-5959100D02*
X14553900Y-6034100D01*
X14591400Y-5959100D02*
X14591400Y-6034100D01*
X14553900Y-5996600D02*
X14628900Y-5996600D01*
X14553900Y-6159100D02*
X14628900Y-6234100D01*
X14628900Y-6159100D02*
X14553900Y-6234100D01*
X14591400Y-6159100D02*
X14591400Y-6234100D01*
X14553900Y-6196600D02*
X14628900Y-6196600D01*
X14553900Y-6359100D02*
X14628900Y-6434100D01*
X14628900Y-6359100D02*
X14553900Y-6434100D01*
X14591400Y-6359100D02*
X14591400Y-6434100D01*
X14553900Y-6396600D02*
X14628900Y-6396600D01*
X14553900Y-6559100D02*
X14628900Y-6634100D01*
X14628900Y-6559100D02*
X14553900Y-6634100D01*
X14591400Y-6559100D02*
X14591400Y-6634100D01*
X14553900Y-6596600D02*
X14628900Y-6596600D01*
X14706300Y-13299700D02*
X14781300Y-13374700D01*
X14781300Y-13299700D02*
X14706300Y-13374700D01*
X14743800Y-13299700D02*
X14743800Y-13374700D01*
X14706300Y-13337200D02*
X14781300Y-13337200D01*
X14706300Y-13499700D02*
X14781300Y-13574700D01*
X14781300Y-13499700D02*
X14706300Y-13574700D01*
X14743800Y-13499700D02*
X14743800Y-13574700D01*
X14706300Y-13537200D02*
X14781300Y-13537200D01*
X14706300Y-13699700D02*
X14781300Y-13774700D01*
X14781300Y-13699700D02*
X14706300Y-13774700D01*
X14743800Y-13699700D02*
X14743800Y-13774700D01*
X14706300Y-13737200D02*
X14781300Y-13737200D01*
X14706300Y-13899700D02*
X14781300Y-13974700D01*
X14781300Y-13899700D02*
X14706300Y-13974700D01*
X14743800Y-13899700D02*
X14743800Y-13974700D01*
X14706300Y-13937200D02*
X14781300Y-13937200D01*
X15188900Y-5959100D02*
X15263900Y-6034100D01*
X15263900Y-5959100D02*
X15188900Y-6034100D01*
X15226400Y-5959100D02*
X15226400Y-6034100D01*
X15188900Y-5996600D02*
X15263900Y-5996600D01*
X15188900Y-6159100D02*
X15263900Y-6234100D01*
X15263900Y-6159100D02*
X15188900Y-6234100D01*
X15226400Y-6159100D02*
X15226400Y-6234100D01*
X15188900Y-6196600D02*
X15263900Y-6196600D01*
X15188900Y-6359100D02*
X15263900Y-6434100D01*
X15263900Y-6359100D02*
X15188900Y-6434100D01*
X15226400Y-6359100D02*
X15226400Y-6434100D01*
X15188900Y-6396600D02*
X15263900Y-6396600D01*
X15188900Y-6559100D02*
X15263900Y-6634100D01*
X15263900Y-6559100D02*
X15188900Y-6634100D01*
X15226400Y-6559100D02*
X15226400Y-6634100D01*
X15188900Y-6596600D02*
X15263900Y-6596600D01*
X15362500Y-13299700D02*
X15437500Y-13374700D01*
X15437500Y-13299700D02*
X15362500Y-13374700D01*
X15400000Y-13299700D02*
X15400000Y-13374700D01*
X15362500Y-13337200D02*
X15437500Y-13337200D01*
X15362500Y-13499700D02*
X15437500Y-13574700D01*
X15437500Y-13499700D02*
X15362500Y-13574700D01*
X15400000Y-13499700D02*
X15400000Y-13574700D01*
X15362500Y-13537200D02*
X15437500Y-13537200D01*
X15362500Y-13699700D02*
X15437500Y-13774700D01*
X15437500Y-13699700D02*
X15362500Y-13774700D01*
X15400000Y-13699700D02*
X15400000Y-13774700D01*
X15362500Y-13737200D02*
X15437500Y-13737200D01*
X15362500Y-13899700D02*
X15437500Y-13974700D01*
X15437500Y-13899700D02*
X15362500Y-13974700D01*
X15400000Y-13899700D02*
X15400000Y-13974700D01*
X15362500Y-13937200D02*
X15437500Y-13937200D01*
X15823900Y-5959100D02*
X15898900Y-6034100D01*
X15898900Y-5959100D02*
X15823900Y-6034100D01*
X15861400Y-5959100D02*
X15861400Y-6034100D01*
X15823900Y-5996600D02*
X15898900Y-5996600D01*
X15823900Y-6159100D02*
X15898900Y-6234100D01*
X15898900Y-6159100D02*
X15823900Y-6234100D01*
X15861400Y-6159100D02*
X15861400Y-6234100D01*
X15823900Y-6196600D02*
X15898900Y-6196600D01*
X15823900Y-6359100D02*
X15898900Y-6434100D01*
X15898900Y-6359100D02*
X15823900Y-6434100D01*
X15861400Y-6359100D02*
X15861400Y-6434100D01*
X15823900Y-6396600D02*
X15898900Y-6396600D01*
X15823900Y-6559100D02*
X15898900Y-6634100D01*
X15898900Y-6559100D02*
X15823900Y-6634100D01*
X15861400Y-6559100D02*
X15861400Y-6634100D01*
X15823900Y-6596600D02*
X15898900Y-6596600D01*
X15997500Y-13304500D02*
X16072500Y-13379500D01*
X16072500Y-13304500D02*
X15997500Y-13379500D01*
X16035000Y-13304500D02*
X16035000Y-13379500D01*
X15997500Y-13342000D02*
X16072500Y-13342000D01*
X15997500Y-13504500D02*
X16072500Y-13579500D01*
X16072500Y-13504500D02*
X15997500Y-13579500D01*
X16035000Y-13504500D02*
X16035000Y-13579500D01*
X15997500Y-13542000D02*
X16072500Y-13542000D01*
X15997500Y-13704500D02*
X16072500Y-13779500D01*
X16072500Y-13704500D02*
X15997500Y-13779500D01*
X16035000Y-13704500D02*
X16035000Y-13779500D01*
X15997500Y-13742000D02*
X16072500Y-13742000D01*
X15997500Y-13904500D02*
X16072500Y-13979500D01*
X16072500Y-13904500D02*
X15997500Y-13979500D01*
X16035000Y-13904500D02*
X16035000Y-13979500D01*
X15997500Y-13942000D02*
X16072500Y-13942000D01*
X16789100Y-5959100D02*
X16864100Y-6034100D01*
X16864100Y-5959100D02*
X16789100Y-6034100D01*
X16826600Y-5959100D02*
X16826600Y-6034100D01*
X16789100Y-5996600D02*
X16864100Y-5996600D01*
X16789100Y-6159100D02*
X16864100Y-6234100D01*
X16864100Y-6159100D02*
X16789100Y-6234100D01*
X16826600Y-6159100D02*
X16826600Y-6234100D01*
X16789100Y-6196600D02*
X16864100Y-6196600D01*
X16789100Y-6359100D02*
X16864100Y-6434100D01*
X16864100Y-6359100D02*
X16789100Y-6434100D01*
X16826600Y-6359100D02*
X16826600Y-6434100D01*
X16789100Y-6396600D02*
X16864100Y-6396600D01*
X16789100Y-6559100D02*
X16864100Y-6634100D01*
X16864100Y-6559100D02*
X16789100Y-6634100D01*
X16826600Y-6559100D02*
X16826600Y-6634100D01*
X16789100Y-6596600D02*
X16864100Y-6596600D01*
X17424100Y-5959100D02*
X17499100Y-6034100D01*
X17499100Y-5959100D02*
X17424100Y-6034100D01*
X17461600Y-5959100D02*
X17461600Y-6034100D01*
X17424100Y-5996600D02*
X17499100Y-5996600D01*
X17424100Y-6159100D02*
X17499100Y-6234100D01*
X17499100Y-6159100D02*
X17424100Y-6234100D01*
X17461600Y-6159100D02*
X17461600Y-6234100D01*
X17424100Y-6196600D02*
X17499100Y-6196600D01*
X17424100Y-6359100D02*
X17499100Y-6434100D01*
X17499100Y-6359100D02*
X17424100Y-6434100D01*
X17461600Y-6359100D02*
X17461600Y-6434100D01*
X17424100Y-6396600D02*
X17499100Y-6396600D01*
X17424100Y-6559100D02*
X17499100Y-6634100D01*
X17499100Y-6559100D02*
X17424100Y-6634100D01*
X17461600Y-6559100D02*
X17461600Y-6634100D01*
X17424100Y-6596600D02*
X17499100Y-6596600D01*
X18389300Y-5959100D02*
X18464300Y-6034100D01*
X18464300Y-5959100D02*
X18389300Y-6034100D01*
X18426800Y-5959100D02*
X18426800Y-6034100D01*
X18389300Y-5996600D02*
X18464300Y-5996600D01*
X18389300Y-6159100D02*
X18464300Y-6234100D01*
X18464300Y-6159100D02*
X18389300Y-6234100D01*
X18426800Y-6159100D02*
X18426800Y-6234100D01*
X18389300Y-6196600D02*
X18464300Y-6196600D01*
X18389300Y-6359100D02*
X18464300Y-6434100D01*
X18464300Y-6359100D02*
X18389300Y-6434100D01*
X18426800Y-6359100D02*
X18426800Y-6434100D01*
X18389300Y-6396600D02*
X18464300Y-6396600D01*
X18389300Y-6559100D02*
X18464300Y-6634100D01*
X18464300Y-6559100D02*
X18389300Y-6634100D01*
X18426800Y-6559100D02*
X18426800Y-6634100D01*
X18389300Y-6596600D02*
X18464300Y-6596600D01*
X19164100Y-10353300D02*
X19239100Y-10428300D01*
X19239100Y-10353300D02*
X19164100Y-10428300D01*
X19201600Y-10353300D02*
X19201600Y-10428300D01*
X19164100Y-10390800D02*
X19239100Y-10390800D01*
X19364100Y-10353300D02*
X19439100Y-10428300D01*
X19439100Y-10353300D02*
X19364100Y-10428300D01*
X19401600Y-10353300D02*
X19401600Y-10428300D01*
X19364100Y-10390800D02*
X19439100Y-10390800D01*
X19562500Y-7762500D02*
X19637500Y-7837500D01*
X19637500Y-7762500D02*
X19562500Y-7837500D01*
X19600000Y-7762500D02*
X19600000Y-7837500D01*
X19562500Y-7800000D02*
X19637500Y-7800000D01*
X19562500Y-8438700D02*
X19637500Y-8513700D01*
X19637500Y-8438700D02*
X19562500Y-8513700D01*
X19600000Y-8438700D02*
X19600000Y-8513700D01*
X19562500Y-8476200D02*
X19637500Y-8476200D01*
X19564100Y-10353300D02*
X19639100Y-10428300D01*
X19639100Y-10353300D02*
X19564100Y-10428300D01*
X19601600Y-10353300D02*
X19601600Y-10428300D01*
X19564100Y-10390800D02*
X19639100Y-10390800D01*
X19762500Y-7762500D02*
X19837500Y-7837500D01*
X19837500Y-7762500D02*
X19762500Y-7837500D01*
X19800000Y-7762500D02*
X19800000Y-7837500D01*
X19762500Y-7800000D02*
X19837500Y-7800000D01*
X19762500Y-8438700D02*
X19837500Y-8513700D01*
X19837500Y-8438700D02*
X19762500Y-8513700D01*
X19800000Y-8438700D02*
X19800000Y-8513700D01*
X19762500Y-8476200D02*
X19837500Y-8476200D01*
X19764100Y-10353300D02*
X19839100Y-10428300D01*
X19839100Y-10353300D02*
X19764100Y-10428300D01*
X19801600Y-10353300D02*
X19801600Y-10428300D01*
X19764100Y-10390800D02*
X19839100Y-10390800D01*
X19801450Y-9019150D02*
X19876450Y-9094150D01*
X19876450Y-9019150D02*
X19801450Y-9094150D01*
X19838950Y-9019150D02*
X19838950Y-9094150D01*
X19801450Y-9056650D02*
X19876450Y-9056650D01*
X19801450Y-9219150D02*
X19876450Y-9294150D01*
X19876450Y-9219150D02*
X19801450Y-9294150D01*
X19838950Y-9219150D02*
X19838950Y-9294150D01*
X19801450Y-9256650D02*
X19876450Y-9256650D01*
X19801450Y-9419150D02*
X19876450Y-9494150D01*
X19876450Y-9419150D02*
X19801450Y-9494150D01*
X19838950Y-9419150D02*
X19838950Y-9494150D01*
X19801450Y-9456650D02*
X19876450Y-9456650D01*
X19801450Y-9619150D02*
X19876450Y-9694150D01*
X19876450Y-9619150D02*
X19801450Y-9694150D01*
X19838950Y-9619150D02*
X19838950Y-9694150D01*
X19801450Y-9656650D02*
X19876450Y-9656650D01*
X19801450Y-9819150D02*
X19876450Y-9894150D01*
X19876450Y-9819150D02*
X19801450Y-9894150D01*
X19838950Y-9819150D02*
X19838950Y-9894150D01*
X19801450Y-9856650D02*
X19876450Y-9856650D01*
X19962500Y-7762500D02*
X20037500Y-7837500D01*
X20037500Y-7762500D02*
X19962500Y-7837500D01*
X20000000Y-7762500D02*
X20000000Y-7837500D01*
X19962500Y-7800000D02*
X20037500Y-7800000D01*
X19962500Y-8438700D02*
X20037500Y-8513700D01*
X20037500Y-8438700D02*
X19962500Y-8513700D01*
X20000000Y-8438700D02*
X20000000Y-8513700D01*
X19962500Y-8476200D02*
X20037500Y-8476200D01*
X19964100Y-10353300D02*
X20039100Y-10428300D01*
X20039100Y-10353300D02*
X19964100Y-10428300D01*
X20001600Y-10353300D02*
X20001600Y-10428300D01*
X19964100Y-10390800D02*
X20039100Y-10390800D01*
X20162500Y-7762500D02*
X20237500Y-7837500D01*
X20237500Y-7762500D02*
X20162500Y-7837500D01*
X20200000Y-7762500D02*
X20200000Y-7837500D01*
X20162500Y-7800000D02*
X20237500Y-7800000D01*
X20162500Y-8438700D02*
X20237500Y-8513700D01*
X20237500Y-8438700D02*
X20162500Y-8513700D01*
X20200000Y-8438700D02*
X20200000Y-8513700D01*
X20162500Y-8476200D02*
X20237500Y-8476200D01*
X20164100Y-10353300D02*
X20239100Y-10428300D01*
X20239100Y-10353300D02*
X20164100Y-10428300D01*
X20201600Y-10353300D02*
X20201600Y-10428300D01*
X20164100Y-10390800D02*
X20239100Y-10390800D01*
X9501600Y-12298600D02*
X9601600Y-12398600D01*
X9601600Y-12298600D02*
X9501600Y-12398600D01*
X9586956Y-12383956D02*
X9586956Y-12313244D01*
X9516244Y-12313244D01*
X9516244Y-12383956D01*
X9586956Y-12383956D01*
X9501600Y-12548600D02*
X9601600Y-12648600D01*
X9601600Y-12548600D02*
X9501600Y-12648600D01*
X9586956Y-12633956D02*
X9586956Y-12563244D01*
X9516244Y-12563244D01*
X9516244Y-12633956D01*
X9586956Y-12633956D01*
X16929000Y-13312600D02*
X17029000Y-13412600D01*
X17029000Y-13312600D02*
X16929000Y-13412600D01*
X17014356Y-13397956D02*
X17014356Y-13327244D01*
X16943644Y-13327244D01*
X16943644Y-13397956D01*
X17014356Y-13397956D01*
X16929000Y-13566600D02*
X17029000Y-13666600D01*
X17029000Y-13566600D02*
X16929000Y-13666600D01*
X17014356Y-13651956D02*
X17014356Y-13581244D01*
X16943644Y-13581244D01*
X16943644Y-13651956D01*
X17014356Y-13651956D01*
X17183000Y-13312600D02*
X17283000Y-13412600D01*
X17283000Y-13312600D02*
X17183000Y-13412600D01*
X17268356Y-13397956D02*
X17268356Y-13327244D01*
X17197644Y-13327244D01*
X17197644Y-13397956D01*
X17268356Y-13397956D01*
X17183000Y-13566600D02*
X17283000Y-13666600D01*
X17283000Y-13566600D02*
X17183000Y-13666600D01*
X17268356Y-13651956D02*
X17268356Y-13581244D01*
X17197644Y-13581244D01*
X17197644Y-13651956D01*
X17268356Y-13651956D01*
X17437000Y-13312600D02*
X17537000Y-13412600D01*
X17537000Y-13312600D02*
X17437000Y-13412600D01*
X17522356Y-13397956D02*
X17522356Y-13327244D01*
X17451644Y-13327244D01*
X17451644Y-13397956D01*
X17522356Y-13397956D01*
X17437000Y-13566600D02*
X17537000Y-13666600D01*
X17537000Y-13566600D02*
X17437000Y-13666600D01*
X17522356Y-13651956D02*
X17522356Y-13581244D01*
X17451644Y-13581244D01*
X17451644Y-13651956D01*
X17522356Y-13651956D01*
X17691000Y-13312600D02*
X17791000Y-13412600D01*
X17791000Y-13312600D02*
X17691000Y-13412600D01*
X17776356Y-13397956D02*
X17776356Y-13327244D01*
X17705644Y-13327244D01*
X17705644Y-13397956D01*
X17776356Y-13397956D01*
X17691000Y-13566600D02*
X17791000Y-13666600D01*
X17791000Y-13566600D02*
X17691000Y-13666600D01*
X17776356Y-13651956D02*
X17776356Y-13581244D01*
X17705644Y-13581244D01*
X17705644Y-13651956D01*
X17776356Y-13651956D01*
X17945000Y-13312600D02*
X18045000Y-13412600D01*
X18045000Y-13312600D02*
X17945000Y-13412600D01*
X18030356Y-13397956D02*
X18030356Y-13327244D01*
X17959644Y-13327244D01*
X17959644Y-13397956D01*
X18030356Y-13397956D01*
X17945000Y-13566600D02*
X18045000Y-13666600D01*
X18045000Y-13566600D02*
X17945000Y-13666600D01*
X18030356Y-13651956D02*
X18030356Y-13581244D01*
X17959644Y-13581244D01*
X17959644Y-13651956D01*
X18030356Y-13651956D01*
X18199000Y-13312600D02*
X18299000Y-13412600D01*
X18299000Y-13312600D02*
X18199000Y-13412600D01*
X18284356Y-13397956D02*
X18284356Y-13327244D01*
X18213644Y-13327244D01*
X18213644Y-13397956D01*
X18284356Y-13397956D01*
X18199000Y-13566600D02*
X18299000Y-13666600D01*
X18299000Y-13566600D02*
X18199000Y-13666600D01*
X18284356Y-13651956D02*
X18284356Y-13581244D01*
X18213644Y-13581244D01*
X18213644Y-13651956D01*
X18284356Y-13651956D01*
X18453000Y-13312600D02*
X18553000Y-13412600D01*
X18553000Y-13312600D02*
X18453000Y-13412600D01*
X18538356Y-13397956D02*
X18538356Y-13327244D01*
X18467644Y-13327244D01*
X18467644Y-13397956D01*
X18538356Y-13397956D01*
X18453000Y-13566600D02*
X18553000Y-13666600D01*
X18553000Y-13566600D02*
X18453000Y-13666600D01*
X18538356Y-13651956D02*
X18538356Y-13581244D01*
X18467644Y-13581244D01*
X18467644Y-13651956D01*
X18538356Y-13651956D01*
X19525000Y-11690600D02*
X19625000Y-11790600D01*
X19625000Y-11690600D02*
X19525000Y-11790600D01*
X19610356Y-11775956D02*
X19610356Y-11705244D01*
X19539644Y-11705244D01*
X19539644Y-11775956D01*
X19610356Y-11775956D01*
X19525000Y-12140600D02*
X19625000Y-12240600D01*
X19625000Y-12140600D02*
X19525000Y-12240600D01*
X19610356Y-12225956D02*
X19610356Y-12155244D01*
X19539644Y-12155244D01*
X19539644Y-12225956D01*
X19610356Y-12225956D01*
X19525000Y-12465600D02*
X19625000Y-12565600D01*
X19625000Y-12465600D02*
X19525000Y-12565600D01*
X19610356Y-12550956D02*
X19610356Y-12480244D01*
X19539644Y-12480244D01*
X19539644Y-12550956D01*
X19610356Y-12550956D01*
X19525000Y-12915600D02*
X19625000Y-13015600D01*
X19625000Y-12915600D02*
X19525000Y-13015600D01*
X19610356Y-13000956D02*
X19610356Y-12930244D01*
X19539644Y-12930244D01*
X19539644Y-13000956D01*
X19610356Y-13000956D01*
X20175000Y-11690600D02*
X20275000Y-11790600D01*
X20275000Y-11690600D02*
X20175000Y-11790600D01*
X20260356Y-11775956D02*
X20260356Y-11705244D01*
X20189644Y-11705244D01*
X20189644Y-11775956D01*
X20260356Y-11775956D01*
X20175000Y-12140600D02*
X20275000Y-12240600D01*
X20275000Y-12140600D02*
X20175000Y-12240600D01*
X20260356Y-12225956D02*
X20260356Y-12155244D01*
X20189644Y-12155244D01*
X20189644Y-12225956D01*
X20260356Y-12225956D01*
X20175000Y-12465600D02*
X20275000Y-12565600D01*
X20275000Y-12465600D02*
X20175000Y-12565600D01*
X20260356Y-12550956D02*
X20260356Y-12480244D01*
X20189644Y-12480244D01*
X20189644Y-12550956D01*
X20260356Y-12550956D01*
X20175000Y-12915600D02*
X20275000Y-13015600D01*
X20275000Y-12915600D02*
X20175000Y-13015600D01*
X20260356Y-13000956D02*
X20260356Y-12930244D01*
X20189644Y-12930244D01*
X20189644Y-13000956D01*
X20260356Y-13000956D01*
D13*
X11125000Y-13461800D02*
X11227000Y-13563800D01*
X11227000Y-13461800D02*
X11125000Y-13563800D01*
X11176000Y-13563800D02*
X11227000Y-13512800D01*
X11176000Y-13461800D01*
X11125000Y-13512800D01*
X11176000Y-13563800D01*
X11125000Y-13715800D02*
X11227000Y-13817800D01*
X11227000Y-13715800D02*
X11125000Y-13817800D01*
X11176000Y-13817800D02*
X11227000Y-13766800D01*
X11176000Y-13715800D01*
X11125000Y-13766800D01*
X11176000Y-13817800D01*
X11125000Y-13969800D02*
X11227000Y-14071800D01*
X11227000Y-13969800D02*
X11125000Y-14071800D01*
X11176000Y-14071800D02*
X11227000Y-14020800D01*
X11176000Y-13969800D01*
X11125000Y-14020800D01*
X11176000Y-14071800D01*
X11379000Y-13461800D02*
X11481000Y-13563800D01*
X11481000Y-13461800D02*
X11379000Y-13563800D01*
X11430000Y-13563800D02*
X11481000Y-13512800D01*
X11430000Y-13461800D01*
X11379000Y-13512800D01*
X11430000Y-13563800D01*
X11379000Y-13715800D02*
X11481000Y-13817800D01*
X11481000Y-13715800D02*
X11379000Y-13817800D01*
X11430000Y-13817800D02*
X11481000Y-13766800D01*
X11430000Y-13715800D01*
X11379000Y-13766800D01*
X11430000Y-13817800D01*
X11379000Y-13969800D02*
X11481000Y-14071800D01*
X11481000Y-13969800D02*
X11379000Y-14071800D01*
X11430000Y-14071800D02*
X11481000Y-14020800D01*
X11430000Y-13969800D01*
X11379000Y-14020800D01*
X11430000Y-14071800D01*
X11633000Y-13461800D02*
X11735000Y-13563800D01*
X11735000Y-13461800D02*
X11633000Y-13563800D01*
X11684000Y-13563800D02*
X11735000Y-13512800D01*
X11684000Y-13461800D01*
X11633000Y-13512800D01*
X11684000Y-13563800D01*
X11633000Y-13715800D02*
X11735000Y-13817800D01*
X11735000Y-13715800D02*
X11633000Y-13817800D01*
X11684000Y-13817800D02*
X11735000Y-13766800D01*
X11684000Y-13715800D01*
X11633000Y-13766800D01*
X11684000Y-13817800D01*
X11633000Y-13969800D02*
X11735000Y-14071800D01*
X11735000Y-13969800D02*
X11633000Y-14071800D01*
X11684000Y-14071800D02*
X11735000Y-14020800D01*
X11684000Y-13969800D01*
X11633000Y-14020800D01*
X11684000Y-14071800D01*
X11887000Y-13461800D02*
X11989000Y-13563800D01*
X11989000Y-13461800D02*
X11887000Y-13563800D01*
X11938000Y-13563800D02*
X11989000Y-13512800D01*
X11938000Y-13461800D01*
X11887000Y-13512800D01*
X11938000Y-13563800D01*
X11887000Y-13715800D02*
X11989000Y-13817800D01*
X11989000Y-13715800D02*
X11887000Y-13817800D01*
X11938000Y-13817800D02*
X11989000Y-13766800D01*
X11938000Y-13715800D01*
X11887000Y-13766800D01*
X11938000Y-13817800D01*
X11887000Y-13969800D02*
X11989000Y-14071800D01*
X11989000Y-13969800D02*
X11887000Y-14071800D01*
X11938000Y-14071800D02*
X11989000Y-14020800D01*
X11938000Y-13969800D01*
X11887000Y-14020800D01*
X11938000Y-14071800D01*
X12279000Y-13456850D02*
X12381000Y-13558850D01*
X12381000Y-13456850D02*
X12279000Y-13558850D01*
X12330000Y-13558850D02*
X12381000Y-13507850D01*
X12330000Y-13456850D01*
X12279000Y-13507850D01*
X12330000Y-13558850D01*
X12279000Y-13710850D02*
X12381000Y-13812850D01*
X12381000Y-13710850D02*
X12279000Y-13812850D01*
X12330000Y-13812850D02*
X12381000Y-13761850D01*
X12330000Y-13710850D01*
X12279000Y-13761850D01*
X12330000Y-13812850D01*
X12279000Y-13964850D02*
X12381000Y-14066850D01*
X12381000Y-13964850D02*
X12279000Y-14066850D01*
X12330000Y-14066850D02*
X12381000Y-14015850D01*
X12330000Y-13964850D01*
X12279000Y-14015850D01*
X12330000Y-14066850D01*
X12533000Y-13456850D02*
X12635000Y-13558850D01*
X12635000Y-13456850D02*
X12533000Y-13558850D01*
X12584000Y-13558850D02*
X12635000Y-13507850D01*
X12584000Y-13456850D01*
X12533000Y-13507850D01*
X12584000Y-13558850D01*
X12533000Y-13710850D02*
X12635000Y-13812850D01*
X12635000Y-13710850D02*
X12533000Y-13812850D01*
X12584000Y-13812850D02*
X12635000Y-13761850D01*
X12584000Y-13710850D01*
X12533000Y-13761850D01*
X12584000Y-13812850D01*
X12533000Y-13964850D02*
X12635000Y-14066850D01*
X12635000Y-13964850D02*
X12533000Y-14066850D01*
X12584000Y-14066850D02*
X12635000Y-14015850D01*
X12584000Y-13964850D01*
X12533000Y-14015850D01*
X12584000Y-14066850D01*
X12787000Y-13456850D02*
X12889000Y-13558850D01*
X12889000Y-13456850D02*
X12787000Y-13558850D01*
X12838000Y-13558850D02*
X12889000Y-13507850D01*
X12838000Y-13456850D01*
X12787000Y-13507850D01*
X12838000Y-13558850D01*
X12787000Y-13710850D02*
X12889000Y-13812850D01*
X12889000Y-13710850D02*
X12787000Y-13812850D01*
X12838000Y-13812850D02*
X12889000Y-13761850D01*
X12838000Y-13710850D01*
X12787000Y-13761850D01*
X12838000Y-13812850D01*
X12787000Y-13964850D02*
X12889000Y-14066850D01*
X12889000Y-13964850D02*
X12787000Y-14066850D01*
X12838000Y-14066850D02*
X12889000Y-14015850D01*
X12838000Y-13964850D01*
X12787000Y-14015850D01*
X12838000Y-14066850D01*
X13041000Y-13456850D02*
X13143000Y-13558850D01*
X13143000Y-13456850D02*
X13041000Y-13558850D01*
X13092000Y-13558850D02*
X13143000Y-13507850D01*
X13092000Y-13456850D01*
X13041000Y-13507850D01*
X13092000Y-13558850D01*
X13041000Y-13710850D02*
X13143000Y-13812850D01*
X13143000Y-13710850D02*
X13041000Y-13812850D01*
X13092000Y-13812850D02*
X13143000Y-13761850D01*
X13092000Y-13710850D01*
X13041000Y-13761850D01*
X13092000Y-13812850D01*
X13041000Y-13964850D02*
X13143000Y-14066850D01*
X13143000Y-13964850D02*
X13041000Y-14066850D01*
X13092000Y-14066850D02*
X13143000Y-14015850D01*
X13092000Y-13964850D01*
X13041000Y-14015850D01*
X13092000Y-14066850D01*
D11*
X9016477Y-14696384D02*
X9016477Y-14496384D01*
X9016477Y-14496384D02*
X9064096Y-14496384D01*
X9064096Y-14496384D02*
X9092667Y-14505908D01*
X9092667Y-14505908D02*
X9111715Y-14524955D01*
X9111715Y-14524955D02*
X9121239Y-14544003D01*
X9121239Y-14544003D02*
X9130763Y-14582098D01*
X9130763Y-14582098D02*
X9130763Y-14610669D01*
X9130763Y-14610669D02*
X9121239Y-14648765D01*
X9121239Y-14648765D02*
X9111715Y-14667812D01*
X9111715Y-14667812D02*
X9092667Y-14686860D01*
X9092667Y-14686860D02*
X9064096Y-14696384D01*
X9064096Y-14696384D02*
X9016477Y-14696384D01*
X9216477Y-14696384D02*
X9216477Y-14563050D01*
X9216477Y-14601146D02*
X9226001Y-14582098D01*
X9226001Y-14582098D02*
X9235524Y-14572574D01*
X9235524Y-14572574D02*
X9254572Y-14563050D01*
X9254572Y-14563050D02*
X9273620Y-14563050D01*
X9340286Y-14696384D02*
X9340286Y-14563050D01*
X9340286Y-14496384D02*
X9330763Y-14505908D01*
X9330763Y-14505908D02*
X9340286Y-14515431D01*
X9340286Y-14515431D02*
X9349810Y-14505908D01*
X9349810Y-14505908D02*
X9340286Y-14496384D01*
X9340286Y-14496384D02*
X9340286Y-14515431D01*
X9464096Y-14696384D02*
X9445048Y-14686860D01*
X9445048Y-14686860D02*
X9435524Y-14667812D01*
X9435524Y-14667812D02*
X9435524Y-14496384D01*
X9568858Y-14696384D02*
X9549810Y-14686860D01*
X9549810Y-14686860D02*
X9540286Y-14667812D01*
X9540286Y-14667812D02*
X9540286Y-14496384D01*
X9797429Y-14696384D02*
X9797429Y-14496384D01*
X9797429Y-14496384D02*
X9864096Y-14639241D01*
X9864096Y-14639241D02*
X9930763Y-14496384D01*
X9930763Y-14496384D02*
X9930763Y-14696384D01*
X10111715Y-14696384D02*
X10111715Y-14591622D01*
X10111715Y-14591622D02*
X10102191Y-14572574D01*
X10102191Y-14572574D02*
X10083144Y-14563050D01*
X10083144Y-14563050D02*
X10045048Y-14563050D01*
X10045048Y-14563050D02*
X10026001Y-14572574D01*
X10111715Y-14686860D02*
X10092667Y-14696384D01*
X10092667Y-14696384D02*
X10045048Y-14696384D01*
X10045048Y-14696384D02*
X10026001Y-14686860D01*
X10026001Y-14686860D02*
X10016477Y-14667812D01*
X10016477Y-14667812D02*
X10016477Y-14648765D01*
X10016477Y-14648765D02*
X10026001Y-14629717D01*
X10026001Y-14629717D02*
X10045048Y-14620193D01*
X10045048Y-14620193D02*
X10092667Y-14620193D01*
X10092667Y-14620193D02*
X10111715Y-14610669D01*
X10206953Y-14563050D02*
X10206953Y-14763050D01*
X10206953Y-14572574D02*
X10226001Y-14563050D01*
X10226001Y-14563050D02*
X10264096Y-14563050D01*
X10264096Y-14563050D02*
X10283144Y-14572574D01*
X10283144Y-14572574D02*
X10292667Y-14582098D01*
X10292667Y-14582098D02*
X10302191Y-14601146D01*
X10302191Y-14601146D02*
X10302191Y-14658288D01*
X10302191Y-14658288D02*
X10292667Y-14677336D01*
X10292667Y-14677336D02*
X10283144Y-14686860D01*
X10283144Y-14686860D02*
X10264096Y-14696384D01*
X10264096Y-14696384D02*
X10226001Y-14696384D01*
X10226001Y-14696384D02*
X10206953Y-14686860D01*
X10387905Y-14677336D02*
X10397429Y-14686860D01*
X10397429Y-14686860D02*
X10387905Y-14696384D01*
X10387905Y-14696384D02*
X10378382Y-14686860D01*
X10378382Y-14686860D02*
X10387905Y-14677336D01*
X10387905Y-14677336D02*
X10387905Y-14696384D01*
X10387905Y-14572574D02*
X10397429Y-14582098D01*
X10397429Y-14582098D02*
X10387905Y-14591622D01*
X10387905Y-14591622D02*
X10378382Y-14582098D01*
X10378382Y-14582098D02*
X10387905Y-14572574D01*
X10387905Y-14572574D02*
X10387905Y-14591622D01*
D12*
X8725700Y-15009900D02*
X8755700Y-15039900D01*
X8755700Y-15009900D02*
X8725700Y-15039900D01*
D11*
X9054572Y-14916384D02*
X9073620Y-14916384D01*
X9073620Y-14916384D02*
X9092667Y-14925908D01*
X9092667Y-14925908D02*
X9102191Y-14935431D01*
X9102191Y-14935431D02*
X9111715Y-14954479D01*
X9111715Y-14954479D02*
X9121239Y-14992574D01*
X9121239Y-14992574D02*
X9121239Y-15040193D01*
X9121239Y-15040193D02*
X9111715Y-15078288D01*
X9111715Y-15078288D02*
X9102191Y-15097336D01*
X9102191Y-15097336D02*
X9092667Y-15106860D01*
X9092667Y-15106860D02*
X9073620Y-15116384D01*
X9073620Y-15116384D02*
X9054572Y-15116384D01*
X9054572Y-15116384D02*
X9035524Y-15106860D01*
X9035524Y-15106860D02*
X9026001Y-15097336D01*
X9026001Y-15097336D02*
X9016477Y-15078288D01*
X9016477Y-15078288D02*
X9006953Y-15040193D01*
X9006953Y-15040193D02*
X9006953Y-14992574D01*
X9006953Y-14992574D02*
X9016477Y-14954479D01*
X9016477Y-14954479D02*
X9026001Y-14935431D01*
X9026001Y-14935431D02*
X9035524Y-14925908D01*
X9035524Y-14925908D02*
X9054572Y-14916384D01*
X9206953Y-15097336D02*
X9216477Y-15106860D01*
X9216477Y-15106860D02*
X9206953Y-15116384D01*
X9206953Y-15116384D02*
X9197429Y-15106860D01*
X9197429Y-15106860D02*
X9206953Y-15097336D01*
X9206953Y-15097336D02*
X9206953Y-15116384D01*
X9283144Y-14916384D02*
X9406953Y-14916384D01*
X9406953Y-14916384D02*
X9340286Y-14992574D01*
X9340286Y-14992574D02*
X9368858Y-14992574D01*
X9368858Y-14992574D02*
X9387905Y-15002098D01*
X9387905Y-15002098D02*
X9397429Y-15011622D01*
X9397429Y-15011622D02*
X9406953Y-15030669D01*
X9406953Y-15030669D02*
X9406953Y-15078288D01*
X9406953Y-15078288D02*
X9397429Y-15097336D01*
X9397429Y-15097336D02*
X9387905Y-15106860D01*
X9387905Y-15106860D02*
X9368858Y-15116384D01*
X9368858Y-15116384D02*
X9311715Y-15116384D01*
X9311715Y-15116384D02*
X9292667Y-15106860D01*
X9292667Y-15106860D02*
X9283144Y-15097336D01*
X9530763Y-14916384D02*
X9549810Y-14916384D01*
X9549810Y-14916384D02*
X9568858Y-14925908D01*
X9568858Y-14925908D02*
X9578382Y-14935431D01*
X9578382Y-14935431D02*
X9587905Y-14954479D01*
X9587905Y-14954479D02*
X9597429Y-14992574D01*
X9597429Y-14992574D02*
X9597429Y-15040193D01*
X9597429Y-15040193D02*
X9587905Y-15078288D01*
X9587905Y-15078288D02*
X9578382Y-15097336D01*
X9578382Y-15097336D02*
X9568858Y-15106860D01*
X9568858Y-15106860D02*
X9549810Y-15116384D01*
X9549810Y-15116384D02*
X9530763Y-15116384D01*
X9530763Y-15116384D02*
X9511715Y-15106860D01*
X9511715Y-15106860D02*
X9502191Y-15097336D01*
X9502191Y-15097336D02*
X9492667Y-15078288D01*
X9492667Y-15078288D02*
X9483144Y-15040193D01*
X9483144Y-15040193D02*
X9483144Y-14992574D01*
X9483144Y-14992574D02*
X9492667Y-14954479D01*
X9492667Y-14954479D02*
X9502191Y-14935431D01*
X9502191Y-14935431D02*
X9511715Y-14925908D01*
X9511715Y-14925908D02*
X9530763Y-14916384D01*
X9721239Y-14916384D02*
X9740286Y-14916384D01*
X9740286Y-14916384D02*
X9759334Y-14925908D01*
X9759334Y-14925908D02*
X9768858Y-14935431D01*
X9768858Y-14935431D02*
X9778382Y-14954479D01*
X9778382Y-14954479D02*
X9787905Y-14992574D01*
X9787905Y-14992574D02*
X9787905Y-15040193D01*
X9787905Y-15040193D02*
X9778382Y-15078288D01*
X9778382Y-15078288D02*
X9768858Y-15097336D01*
X9768858Y-15097336D02*
X9759334Y-15106860D01*
X9759334Y-15106860D02*
X9740286Y-15116384D01*
X9740286Y-15116384D02*
X9721239Y-15116384D01*
X9721239Y-15116384D02*
X9702191Y-15106860D01*
X9702191Y-15106860D02*
X9692667Y-15097336D01*
X9692667Y-15097336D02*
X9683144Y-15078288D01*
X9683144Y-15078288D02*
X9673620Y-15040193D01*
X9673620Y-15040193D02*
X9673620Y-14992574D01*
X9673620Y-14992574D02*
X9683144Y-14954479D01*
X9683144Y-14954479D02*
X9692667Y-14935431D01*
X9692667Y-14935431D02*
X9702191Y-14925908D01*
X9702191Y-14925908D02*
X9721239Y-14916384D01*
X9873620Y-15116384D02*
X9873620Y-14983050D01*
X9873620Y-15002098D02*
X9883144Y-14992574D01*
X9883144Y-14992574D02*
X9902191Y-14983050D01*
X9902191Y-14983050D02*
X9930763Y-14983050D01*
X9930763Y-14983050D02*
X9949810Y-14992574D01*
X9949810Y-14992574D02*
X9959334Y-15011622D01*
X9959334Y-15011622D02*
X9959334Y-15116384D01*
X9959334Y-15011622D02*
X9968858Y-14992574D01*
X9968858Y-14992574D02*
X9987905Y-14983050D01*
X9987905Y-14983050D02*
X10016477Y-14983050D01*
X10016477Y-14983050D02*
X10035525Y-14992574D01*
X10035525Y-14992574D02*
X10045048Y-15011622D01*
X10045048Y-15011622D02*
X10045048Y-15116384D01*
X10140286Y-15116384D02*
X10140286Y-14983050D01*
X10140286Y-15002098D02*
X10149810Y-14992574D01*
X10149810Y-14992574D02*
X10168858Y-14983050D01*
X10168858Y-14983050D02*
X10197429Y-14983050D01*
X10197429Y-14983050D02*
X10216477Y-14992574D01*
X10216477Y-14992574D02*
X10226001Y-15011622D01*
X10226001Y-15011622D02*
X10226001Y-15116384D01*
X10226001Y-15011622D02*
X10235525Y-14992574D01*
X10235525Y-14992574D02*
X10254572Y-14983050D01*
X10254572Y-14983050D02*
X10283144Y-14983050D01*
X10283144Y-14983050D02*
X10302191Y-14992574D01*
X10302191Y-14992574D02*
X10311715Y-15011622D01*
X10311715Y-15011622D02*
X10311715Y-15116384D01*
X10702191Y-14906860D02*
X10530763Y-15164003D01*
X10959334Y-14916384D02*
X10978382Y-14916384D01*
X10978382Y-14916384D02*
X10997429Y-14925908D01*
X10997429Y-14925908D02*
X11006953Y-14935431D01*
X11006953Y-14935431D02*
X11016477Y-14954479D01*
X11016477Y-14954479D02*
X11026001Y-14992574D01*
X11026001Y-14992574D02*
X11026001Y-15040193D01*
X11026001Y-15040193D02*
X11016477Y-15078288D01*
X11016477Y-15078288D02*
X11006953Y-15097336D01*
X11006953Y-15097336D02*
X10997429Y-15106860D01*
X10997429Y-15106860D02*
X10978382Y-15116384D01*
X10978382Y-15116384D02*
X10959334Y-15116384D01*
X10959334Y-15116384D02*
X10940287Y-15106860D01*
X10940287Y-15106860D02*
X10930763Y-15097336D01*
X10930763Y-15097336D02*
X10921239Y-15078288D01*
X10921239Y-15078288D02*
X10911715Y-15040193D01*
X10911715Y-15040193D02*
X10911715Y-14992574D01*
X10911715Y-14992574D02*
X10921239Y-14954479D01*
X10921239Y-14954479D02*
X10930763Y-14935431D01*
X10930763Y-14935431D02*
X10940287Y-14925908D01*
X10940287Y-14925908D02*
X10959334Y-14916384D01*
X11111715Y-15097336D02*
X11121239Y-15106860D01*
X11121239Y-15106860D02*
X11111715Y-15116384D01*
X11111715Y-15116384D02*
X11102191Y-15106860D01*
X11102191Y-15106860D02*
X11111715Y-15097336D01*
X11111715Y-15097336D02*
X11111715Y-15116384D01*
X11245048Y-14916384D02*
X11264096Y-14916384D01*
X11264096Y-14916384D02*
X11283144Y-14925908D01*
X11283144Y-14925908D02*
X11292667Y-14935431D01*
X11292667Y-14935431D02*
X11302191Y-14954479D01*
X11302191Y-14954479D02*
X11311715Y-14992574D01*
X11311715Y-14992574D02*
X11311715Y-15040193D01*
X11311715Y-15040193D02*
X11302191Y-15078288D01*
X11302191Y-15078288D02*
X11292667Y-15097336D01*
X11292667Y-15097336D02*
X11283144Y-15106860D01*
X11283144Y-15106860D02*
X11264096Y-15116384D01*
X11264096Y-15116384D02*
X11245048Y-15116384D01*
X11245048Y-15116384D02*
X11226001Y-15106860D01*
X11226001Y-15106860D02*
X11216477Y-15097336D01*
X11216477Y-15097336D02*
X11206953Y-15078288D01*
X11206953Y-15078288D02*
X11197429Y-15040193D01*
X11197429Y-15040193D02*
X11197429Y-14992574D01*
X11197429Y-14992574D02*
X11206953Y-14954479D01*
X11206953Y-14954479D02*
X11216477Y-14935431D01*
X11216477Y-14935431D02*
X11226001Y-14925908D01*
X11226001Y-14925908D02*
X11245048Y-14916384D01*
X11502191Y-15116384D02*
X11387906Y-15116384D01*
X11445048Y-15116384D02*
X11445048Y-14916384D01*
X11445048Y-14916384D02*
X11426001Y-14944955D01*
X11426001Y-14944955D02*
X11406953Y-14964003D01*
X11406953Y-14964003D02*
X11387906Y-14973527D01*
X11692667Y-15116384D02*
X11578382Y-15116384D01*
X11635525Y-15116384D02*
X11635525Y-14916384D01*
X11635525Y-14916384D02*
X11616477Y-14944955D01*
X11616477Y-14944955D02*
X11597429Y-14964003D01*
X11597429Y-14964003D02*
X11578382Y-14973527D01*
X11806953Y-15002098D02*
X11787906Y-14992574D01*
X11787906Y-14992574D02*
X11778382Y-14983050D01*
X11778382Y-14983050D02*
X11768858Y-14964003D01*
X11768858Y-14964003D02*
X11768858Y-14954479D01*
X11768858Y-14954479D02*
X11778382Y-14935431D01*
X11778382Y-14935431D02*
X11787906Y-14925908D01*
X11787906Y-14925908D02*
X11806953Y-14916384D01*
X11806953Y-14916384D02*
X11845048Y-14916384D01*
X11845048Y-14916384D02*
X11864096Y-14925908D01*
X11864096Y-14925908D02*
X11873620Y-14935431D01*
X11873620Y-14935431D02*
X11883144Y-14954479D01*
X11883144Y-14954479D02*
X11883144Y-14964003D01*
X11883144Y-14964003D02*
X11873620Y-14983050D01*
X11873620Y-14983050D02*
X11864096Y-14992574D01*
X11864096Y-14992574D02*
X11845048Y-15002098D01*
X11845048Y-15002098D02*
X11806953Y-15002098D01*
X11806953Y-15002098D02*
X11787906Y-15011622D01*
X11787906Y-15011622D02*
X11778382Y-15021146D01*
X11778382Y-15021146D02*
X11768858Y-15040193D01*
X11768858Y-15040193D02*
X11768858Y-15078288D01*
X11768858Y-15078288D02*
X11778382Y-15097336D01*
X11778382Y-15097336D02*
X11787906Y-15106860D01*
X11787906Y-15106860D02*
X11806953Y-15116384D01*
X11806953Y-15116384D02*
X11845048Y-15116384D01*
X11845048Y-15116384D02*
X11864096Y-15106860D01*
X11864096Y-15106860D02*
X11873620Y-15097336D01*
X11873620Y-15097336D02*
X11883144Y-15078288D01*
X11883144Y-15078288D02*
X11883144Y-15040193D01*
X11883144Y-15040193D02*
X11873620Y-15021146D01*
X11873620Y-15021146D02*
X11864096Y-15011622D01*
X11864096Y-15011622D02*
X11845048Y-15002098D01*
X11959334Y-14916384D02*
X11959334Y-14954479D01*
X12035525Y-14916384D02*
X12035525Y-14954479D01*
X12330763Y-15192574D02*
X12321239Y-15183050D01*
X12321239Y-15183050D02*
X12302191Y-15154479D01*
X12302191Y-15154479D02*
X12292668Y-15135431D01*
X12292668Y-15135431D02*
X12283144Y-15106860D01*
X12283144Y-15106860D02*
X12273620Y-15059241D01*
X12273620Y-15059241D02*
X12273620Y-15021146D01*
X12273620Y-15021146D02*
X12283144Y-14973527D01*
X12283144Y-14973527D02*
X12292668Y-14944955D01*
X12292668Y-14944955D02*
X12302191Y-14925908D01*
X12302191Y-14925908D02*
X12321239Y-14897336D01*
X12321239Y-14897336D02*
X12330763Y-14887812D01*
X12511715Y-15116384D02*
X12397429Y-15116384D01*
X12454572Y-15116384D02*
X12454572Y-14916384D01*
X12454572Y-14916384D02*
X12435525Y-14944955D01*
X12435525Y-14944955D02*
X12416477Y-14964003D01*
X12416477Y-14964003D02*
X12397429Y-14973527D01*
X12626001Y-15002098D02*
X12606953Y-14992574D01*
X12606953Y-14992574D02*
X12597429Y-14983050D01*
X12597429Y-14983050D02*
X12587906Y-14964003D01*
X12587906Y-14964003D02*
X12587906Y-14954479D01*
X12587906Y-14954479D02*
X12597429Y-14935431D01*
X12597429Y-14935431D02*
X12606953Y-14925908D01*
X12606953Y-14925908D02*
X12626001Y-14916384D01*
X12626001Y-14916384D02*
X12664096Y-14916384D01*
X12664096Y-14916384D02*
X12683144Y-14925908D01*
X12683144Y-14925908D02*
X12692668Y-14935431D01*
X12692668Y-14935431D02*
X12702191Y-14954479D01*
X12702191Y-14954479D02*
X12702191Y-14964003D01*
X12702191Y-14964003D02*
X12692668Y-14983050D01*
X12692668Y-14983050D02*
X12683144Y-14992574D01*
X12683144Y-14992574D02*
X12664096Y-15002098D01*
X12664096Y-15002098D02*
X12626001Y-15002098D01*
X12626001Y-15002098D02*
X12606953Y-15011622D01*
X12606953Y-15011622D02*
X12597429Y-15021146D01*
X12597429Y-15021146D02*
X12587906Y-15040193D01*
X12587906Y-15040193D02*
X12587906Y-15078288D01*
X12587906Y-15078288D02*
X12597429Y-15097336D01*
X12597429Y-15097336D02*
X12606953Y-15106860D01*
X12606953Y-15106860D02*
X12626001Y-15116384D01*
X12626001Y-15116384D02*
X12664096Y-15116384D01*
X12664096Y-15116384D02*
X12683144Y-15106860D01*
X12683144Y-15106860D02*
X12692668Y-15097336D01*
X12692668Y-15097336D02*
X12702191Y-15078288D01*
X12702191Y-15078288D02*
X12702191Y-15040193D01*
X12702191Y-15040193D02*
X12692668Y-15021146D01*
X12692668Y-15021146D02*
X12683144Y-15011622D01*
X12683144Y-15011622D02*
X12664096Y-15002098D01*
X12873620Y-14916384D02*
X12835525Y-14916384D01*
X12835525Y-14916384D02*
X12816477Y-14925908D01*
X12816477Y-14925908D02*
X12806953Y-14935431D01*
X12806953Y-14935431D02*
X12787906Y-14964003D01*
X12787906Y-14964003D02*
X12778382Y-15002098D01*
X12778382Y-15002098D02*
X12778382Y-15078288D01*
X12778382Y-15078288D02*
X12787906Y-15097336D01*
X12787906Y-15097336D02*
X12797429Y-15106860D01*
X12797429Y-15106860D02*
X12816477Y-15116384D01*
X12816477Y-15116384D02*
X12854572Y-15116384D01*
X12854572Y-15116384D02*
X12873620Y-15106860D01*
X12873620Y-15106860D02*
X12883144Y-15097336D01*
X12883144Y-15097336D02*
X12892668Y-15078288D01*
X12892668Y-15078288D02*
X12892668Y-15030669D01*
X12892668Y-15030669D02*
X12883144Y-15011622D01*
X12883144Y-15011622D02*
X12873620Y-15002098D01*
X12873620Y-15002098D02*
X12854572Y-14992574D01*
X12854572Y-14992574D02*
X12816477Y-14992574D01*
X12816477Y-14992574D02*
X12797429Y-15002098D01*
X12797429Y-15002098D02*
X12787906Y-15011622D01*
X12787906Y-15011622D02*
X12778382Y-15030669D01*
X13130763Y-15116384D02*
X13130763Y-14916384D01*
X13216477Y-15116384D02*
X13216477Y-15011622D01*
X13216477Y-15011622D02*
X13206953Y-14992574D01*
X13206953Y-14992574D02*
X13187906Y-14983050D01*
X13187906Y-14983050D02*
X13159334Y-14983050D01*
X13159334Y-14983050D02*
X13140287Y-14992574D01*
X13140287Y-14992574D02*
X13130763Y-15002098D01*
X13340287Y-15116384D02*
X13321239Y-15106860D01*
X13321239Y-15106860D02*
X13311715Y-15097336D01*
X13311715Y-15097336D02*
X13302191Y-15078288D01*
X13302191Y-15078288D02*
X13302191Y-15021146D01*
X13302191Y-15021146D02*
X13311715Y-15002098D01*
X13311715Y-15002098D02*
X13321239Y-14992574D01*
X13321239Y-14992574D02*
X13340287Y-14983050D01*
X13340287Y-14983050D02*
X13368858Y-14983050D01*
X13368858Y-14983050D02*
X13387906Y-14992574D01*
X13387906Y-14992574D02*
X13397430Y-15002098D01*
X13397430Y-15002098D02*
X13406953Y-15021146D01*
X13406953Y-15021146D02*
X13406953Y-15078288D01*
X13406953Y-15078288D02*
X13397430Y-15097336D01*
X13397430Y-15097336D02*
X13387906Y-15106860D01*
X13387906Y-15106860D02*
X13368858Y-15116384D01*
X13368858Y-15116384D02*
X13340287Y-15116384D01*
X13521239Y-15116384D02*
X13502191Y-15106860D01*
X13502191Y-15106860D02*
X13492668Y-15087812D01*
X13492668Y-15087812D02*
X13492668Y-14916384D01*
X13673620Y-15106860D02*
X13654572Y-15116384D01*
X13654572Y-15116384D02*
X13616477Y-15116384D01*
X13616477Y-15116384D02*
X13597430Y-15106860D01*
X13597430Y-15106860D02*
X13587906Y-15087812D01*
X13587906Y-15087812D02*
X13587906Y-15011622D01*
X13587906Y-15011622D02*
X13597430Y-14992574D01*
X13597430Y-14992574D02*
X13616477Y-14983050D01*
X13616477Y-14983050D02*
X13654572Y-14983050D01*
X13654572Y-14983050D02*
X13673620Y-14992574D01*
X13673620Y-14992574D02*
X13683144Y-15011622D01*
X13683144Y-15011622D02*
X13683144Y-15030669D01*
X13683144Y-15030669D02*
X13587906Y-15049717D01*
X13759334Y-15106860D02*
X13778382Y-15116384D01*
X13778382Y-15116384D02*
X13816477Y-15116384D01*
X13816477Y-15116384D02*
X13835525Y-15106860D01*
X13835525Y-15106860D02*
X13845049Y-15087812D01*
X13845049Y-15087812D02*
X13845049Y-15078288D01*
X13845049Y-15078288D02*
X13835525Y-15059241D01*
X13835525Y-15059241D02*
X13816477Y-15049717D01*
X13816477Y-15049717D02*
X13787906Y-15049717D01*
X13787906Y-15049717D02*
X13768858Y-15040193D01*
X13768858Y-15040193D02*
X13759334Y-15021146D01*
X13759334Y-15021146D02*
X13759334Y-15011622D01*
X13759334Y-15011622D02*
X13768858Y-14992574D01*
X13768858Y-14992574D02*
X13787906Y-14983050D01*
X13787906Y-14983050D02*
X13816477Y-14983050D01*
X13816477Y-14983050D02*
X13835525Y-14992574D01*
X13911715Y-15192574D02*
X13921239Y-15183050D01*
X13921239Y-15183050D02*
X13940287Y-15154479D01*
X13940287Y-15154479D02*
X13949811Y-15135431D01*
X13949811Y-15135431D02*
X13959334Y-15106860D01*
X13959334Y-15106860D02*
X13968858Y-15059241D01*
X13968858Y-15059241D02*
X13968858Y-15021146D01*
X13968858Y-15021146D02*
X13959334Y-14973527D01*
X13959334Y-14973527D02*
X13949811Y-14944955D01*
X13949811Y-14944955D02*
X13940287Y-14925908D01*
X13940287Y-14925908D02*
X13921239Y-14897336D01*
X13921239Y-14897336D02*
X13911715Y-14887812D01*
D12*
X8755700Y-15288900D02*
G75*
G02*
X8725700Y-15288900I-15000J0D01*
G01*
X8725700Y-15288900D02*
G75*
G02*
X8755700Y-15288900I15000J0D01*
G01*
D11*
X9054572Y-15180384D02*
X9073620Y-15180384D01*
X9073620Y-15180384D02*
X9092667Y-15189908D01*
X9092667Y-15189908D02*
X9102191Y-15199431D01*
X9102191Y-15199431D02*
X9111715Y-15218479D01*
X9111715Y-15218479D02*
X9121239Y-15256574D01*
X9121239Y-15256574D02*
X9121239Y-15304193D01*
X9121239Y-15304193D02*
X9111715Y-15342288D01*
X9111715Y-15342288D02*
X9102191Y-15361336D01*
X9102191Y-15361336D02*
X9092667Y-15370860D01*
X9092667Y-15370860D02*
X9073620Y-15380384D01*
X9073620Y-15380384D02*
X9054572Y-15380384D01*
X9054572Y-15380384D02*
X9035524Y-15370860D01*
X9035524Y-15370860D02*
X9026001Y-15361336D01*
X9026001Y-15361336D02*
X9016477Y-15342288D01*
X9016477Y-15342288D02*
X9006953Y-15304193D01*
X9006953Y-15304193D02*
X9006953Y-15256574D01*
X9006953Y-15256574D02*
X9016477Y-15218479D01*
X9016477Y-15218479D02*
X9026001Y-15199431D01*
X9026001Y-15199431D02*
X9035524Y-15189908D01*
X9035524Y-15189908D02*
X9054572Y-15180384D01*
X9206953Y-15361336D02*
X9216477Y-15370860D01*
X9216477Y-15370860D02*
X9206953Y-15380384D01*
X9206953Y-15380384D02*
X9197429Y-15370860D01*
X9197429Y-15370860D02*
X9206953Y-15361336D01*
X9206953Y-15361336D02*
X9206953Y-15380384D01*
X9283144Y-15180384D02*
X9406953Y-15180384D01*
X9406953Y-15180384D02*
X9340286Y-15256574D01*
X9340286Y-15256574D02*
X9368858Y-15256574D01*
X9368858Y-15256574D02*
X9387905Y-15266098D01*
X9387905Y-15266098D02*
X9397429Y-15275622D01*
X9397429Y-15275622D02*
X9406953Y-15294669D01*
X9406953Y-15294669D02*
X9406953Y-15342288D01*
X9406953Y-15342288D02*
X9397429Y-15361336D01*
X9397429Y-15361336D02*
X9387905Y-15370860D01*
X9387905Y-15370860D02*
X9368858Y-15380384D01*
X9368858Y-15380384D02*
X9311715Y-15380384D01*
X9311715Y-15380384D02*
X9292667Y-15370860D01*
X9292667Y-15370860D02*
X9283144Y-15361336D01*
X9530763Y-15180384D02*
X9549810Y-15180384D01*
X9549810Y-15180384D02*
X9568858Y-15189908D01*
X9568858Y-15189908D02*
X9578382Y-15199431D01*
X9578382Y-15199431D02*
X9587905Y-15218479D01*
X9587905Y-15218479D02*
X9597429Y-15256574D01*
X9597429Y-15256574D02*
X9597429Y-15304193D01*
X9597429Y-15304193D02*
X9587905Y-15342288D01*
X9587905Y-15342288D02*
X9578382Y-15361336D01*
X9578382Y-15361336D02*
X9568858Y-15370860D01*
X9568858Y-15370860D02*
X9549810Y-15380384D01*
X9549810Y-15380384D02*
X9530763Y-15380384D01*
X9530763Y-15380384D02*
X9511715Y-15370860D01*
X9511715Y-15370860D02*
X9502191Y-15361336D01*
X9502191Y-15361336D02*
X9492667Y-15342288D01*
X9492667Y-15342288D02*
X9483144Y-15304193D01*
X9483144Y-15304193D02*
X9483144Y-15256574D01*
X9483144Y-15256574D02*
X9492667Y-15218479D01*
X9492667Y-15218479D02*
X9502191Y-15199431D01*
X9502191Y-15199431D02*
X9511715Y-15189908D01*
X9511715Y-15189908D02*
X9530763Y-15180384D01*
X9721239Y-15180384D02*
X9740286Y-15180384D01*
X9740286Y-15180384D02*
X9759334Y-15189908D01*
X9759334Y-15189908D02*
X9768858Y-15199431D01*
X9768858Y-15199431D02*
X9778382Y-15218479D01*
X9778382Y-15218479D02*
X9787905Y-15256574D01*
X9787905Y-15256574D02*
X9787905Y-15304193D01*
X9787905Y-15304193D02*
X9778382Y-15342288D01*
X9778382Y-15342288D02*
X9768858Y-15361336D01*
X9768858Y-15361336D02*
X9759334Y-15370860D01*
X9759334Y-15370860D02*
X9740286Y-15380384D01*
X9740286Y-15380384D02*
X9721239Y-15380384D01*
X9721239Y-15380384D02*
X9702191Y-15370860D01*
X9702191Y-15370860D02*
X9692667Y-15361336D01*
X9692667Y-15361336D02*
X9683144Y-15342288D01*
X9683144Y-15342288D02*
X9673620Y-15304193D01*
X9673620Y-15304193D02*
X9673620Y-15256574D01*
X9673620Y-15256574D02*
X9683144Y-15218479D01*
X9683144Y-15218479D02*
X9692667Y-15199431D01*
X9692667Y-15199431D02*
X9702191Y-15189908D01*
X9702191Y-15189908D02*
X9721239Y-15180384D01*
X9873620Y-15380384D02*
X9873620Y-15247050D01*
X9873620Y-15266098D02*
X9883144Y-15256574D01*
X9883144Y-15256574D02*
X9902191Y-15247050D01*
X9902191Y-15247050D02*
X9930763Y-15247050D01*
X9930763Y-15247050D02*
X9949810Y-15256574D01*
X9949810Y-15256574D02*
X9959334Y-15275622D01*
X9959334Y-15275622D02*
X9959334Y-15380384D01*
X9959334Y-15275622D02*
X9968858Y-15256574D01*
X9968858Y-15256574D02*
X9987905Y-15247050D01*
X9987905Y-15247050D02*
X10016477Y-15247050D01*
X10016477Y-15247050D02*
X10035525Y-15256574D01*
X10035525Y-15256574D02*
X10045048Y-15275622D01*
X10045048Y-15275622D02*
X10045048Y-15380384D01*
X10140286Y-15380384D02*
X10140286Y-15247050D01*
X10140286Y-15266098D02*
X10149810Y-15256574D01*
X10149810Y-15256574D02*
X10168858Y-15247050D01*
X10168858Y-15247050D02*
X10197429Y-15247050D01*
X10197429Y-15247050D02*
X10216477Y-15256574D01*
X10216477Y-15256574D02*
X10226001Y-15275622D01*
X10226001Y-15275622D02*
X10226001Y-15380384D01*
X10226001Y-15275622D02*
X10235525Y-15256574D01*
X10235525Y-15256574D02*
X10254572Y-15247050D01*
X10254572Y-15247050D02*
X10283144Y-15247050D01*
X10283144Y-15247050D02*
X10302191Y-15256574D01*
X10302191Y-15256574D02*
X10311715Y-15275622D01*
X10311715Y-15275622D02*
X10311715Y-15380384D01*
X10702191Y-15170860D02*
X10530763Y-15428003D01*
X10959334Y-15180384D02*
X10978382Y-15180384D01*
X10978382Y-15180384D02*
X10997429Y-15189908D01*
X10997429Y-15189908D02*
X11006953Y-15199431D01*
X11006953Y-15199431D02*
X11016477Y-15218479D01*
X11016477Y-15218479D02*
X11026001Y-15256574D01*
X11026001Y-15256574D02*
X11026001Y-15304193D01*
X11026001Y-15304193D02*
X11016477Y-15342288D01*
X11016477Y-15342288D02*
X11006953Y-15361336D01*
X11006953Y-15361336D02*
X10997429Y-15370860D01*
X10997429Y-15370860D02*
X10978382Y-15380384D01*
X10978382Y-15380384D02*
X10959334Y-15380384D01*
X10959334Y-15380384D02*
X10940287Y-15370860D01*
X10940287Y-15370860D02*
X10930763Y-15361336D01*
X10930763Y-15361336D02*
X10921239Y-15342288D01*
X10921239Y-15342288D02*
X10911715Y-15304193D01*
X10911715Y-15304193D02*
X10911715Y-15256574D01*
X10911715Y-15256574D02*
X10921239Y-15218479D01*
X10921239Y-15218479D02*
X10930763Y-15199431D01*
X10930763Y-15199431D02*
X10940287Y-15189908D01*
X10940287Y-15189908D02*
X10959334Y-15180384D01*
X11111715Y-15361336D02*
X11121239Y-15370860D01*
X11121239Y-15370860D02*
X11111715Y-15380384D01*
X11111715Y-15380384D02*
X11102191Y-15370860D01*
X11102191Y-15370860D02*
X11111715Y-15361336D01*
X11111715Y-15361336D02*
X11111715Y-15380384D01*
X11245048Y-15180384D02*
X11264096Y-15180384D01*
X11264096Y-15180384D02*
X11283144Y-15189908D01*
X11283144Y-15189908D02*
X11292667Y-15199431D01*
X11292667Y-15199431D02*
X11302191Y-15218479D01*
X11302191Y-15218479D02*
X11311715Y-15256574D01*
X11311715Y-15256574D02*
X11311715Y-15304193D01*
X11311715Y-15304193D02*
X11302191Y-15342288D01*
X11302191Y-15342288D02*
X11292667Y-15361336D01*
X11292667Y-15361336D02*
X11283144Y-15370860D01*
X11283144Y-15370860D02*
X11264096Y-15380384D01*
X11264096Y-15380384D02*
X11245048Y-15380384D01*
X11245048Y-15380384D02*
X11226001Y-15370860D01*
X11226001Y-15370860D02*
X11216477Y-15361336D01*
X11216477Y-15361336D02*
X11206953Y-15342288D01*
X11206953Y-15342288D02*
X11197429Y-15304193D01*
X11197429Y-15304193D02*
X11197429Y-15256574D01*
X11197429Y-15256574D02*
X11206953Y-15218479D01*
X11206953Y-15218479D02*
X11216477Y-15199431D01*
X11216477Y-15199431D02*
X11226001Y-15189908D01*
X11226001Y-15189908D02*
X11245048Y-15180384D01*
X11502191Y-15380384D02*
X11387906Y-15380384D01*
X11445048Y-15380384D02*
X11445048Y-15180384D01*
X11445048Y-15180384D02*
X11426001Y-15208955D01*
X11426001Y-15208955D02*
X11406953Y-15228003D01*
X11406953Y-15228003D02*
X11387906Y-15237527D01*
X11692667Y-15380384D02*
X11578382Y-15380384D01*
X11635525Y-15380384D02*
X11635525Y-15180384D01*
X11635525Y-15180384D02*
X11616477Y-15208955D01*
X11616477Y-15208955D02*
X11597429Y-15228003D01*
X11597429Y-15228003D02*
X11578382Y-15237527D01*
X11806953Y-15266098D02*
X11787906Y-15256574D01*
X11787906Y-15256574D02*
X11778382Y-15247050D01*
X11778382Y-15247050D02*
X11768858Y-15228003D01*
X11768858Y-15228003D02*
X11768858Y-15218479D01*
X11768858Y-15218479D02*
X11778382Y-15199431D01*
X11778382Y-15199431D02*
X11787906Y-15189908D01*
X11787906Y-15189908D02*
X11806953Y-15180384D01*
X11806953Y-15180384D02*
X11845048Y-15180384D01*
X11845048Y-15180384D02*
X11864096Y-15189908D01*
X11864096Y-15189908D02*
X11873620Y-15199431D01*
X11873620Y-15199431D02*
X11883144Y-15218479D01*
X11883144Y-15218479D02*
X11883144Y-15228003D01*
X11883144Y-15228003D02*
X11873620Y-15247050D01*
X11873620Y-15247050D02*
X11864096Y-15256574D01*
X11864096Y-15256574D02*
X11845048Y-15266098D01*
X11845048Y-15266098D02*
X11806953Y-15266098D01*
X11806953Y-15266098D02*
X11787906Y-15275622D01*
X11787906Y-15275622D02*
X11778382Y-15285146D01*
X11778382Y-15285146D02*
X11768858Y-15304193D01*
X11768858Y-15304193D02*
X11768858Y-15342288D01*
X11768858Y-15342288D02*
X11778382Y-15361336D01*
X11778382Y-15361336D02*
X11787906Y-15370860D01*
X11787906Y-15370860D02*
X11806953Y-15380384D01*
X11806953Y-15380384D02*
X11845048Y-15380384D01*
X11845048Y-15380384D02*
X11864096Y-15370860D01*
X11864096Y-15370860D02*
X11873620Y-15361336D01*
X11873620Y-15361336D02*
X11883144Y-15342288D01*
X11883144Y-15342288D02*
X11883144Y-15304193D01*
X11883144Y-15304193D02*
X11873620Y-15285146D01*
X11873620Y-15285146D02*
X11864096Y-15275622D01*
X11864096Y-15275622D02*
X11845048Y-15266098D01*
X11959334Y-15180384D02*
X11959334Y-15218479D01*
X12035525Y-15180384D02*
X12035525Y-15218479D01*
X12330763Y-15456574D02*
X12321239Y-15447050D01*
X12321239Y-15447050D02*
X12302191Y-15418479D01*
X12302191Y-15418479D02*
X12292668Y-15399431D01*
X12292668Y-15399431D02*
X12283144Y-15370860D01*
X12283144Y-15370860D02*
X12273620Y-15323241D01*
X12273620Y-15323241D02*
X12273620Y-15285146D01*
X12273620Y-15285146D02*
X12283144Y-15237527D01*
X12283144Y-15237527D02*
X12292668Y-15208955D01*
X12292668Y-15208955D02*
X12302191Y-15189908D01*
X12302191Y-15189908D02*
X12321239Y-15161336D01*
X12321239Y-15161336D02*
X12330763Y-15151812D01*
X12502191Y-15180384D02*
X12406953Y-15180384D01*
X12406953Y-15180384D02*
X12397429Y-15275622D01*
X12397429Y-15275622D02*
X12406953Y-15266098D01*
X12406953Y-15266098D02*
X12426001Y-15256574D01*
X12426001Y-15256574D02*
X12473620Y-15256574D01*
X12473620Y-15256574D02*
X12492668Y-15266098D01*
X12492668Y-15266098D02*
X12502191Y-15275622D01*
X12502191Y-15275622D02*
X12511715Y-15294669D01*
X12511715Y-15294669D02*
X12511715Y-15342288D01*
X12511715Y-15342288D02*
X12502191Y-15361336D01*
X12502191Y-15361336D02*
X12492668Y-15370860D01*
X12492668Y-15370860D02*
X12473620Y-15380384D01*
X12473620Y-15380384D02*
X12426001Y-15380384D01*
X12426001Y-15380384D02*
X12406953Y-15370860D01*
X12406953Y-15370860D02*
X12397429Y-15361336D01*
X12749810Y-15380384D02*
X12749810Y-15180384D01*
X12835525Y-15380384D02*
X12835525Y-15275622D01*
X12835525Y-15275622D02*
X12826001Y-15256574D01*
X12826001Y-15256574D02*
X12806953Y-15247050D01*
X12806953Y-15247050D02*
X12778382Y-15247050D01*
X12778382Y-15247050D02*
X12759334Y-15256574D01*
X12759334Y-15256574D02*
X12749810Y-15266098D01*
X12959334Y-15380384D02*
X12940287Y-15370860D01*
X12940287Y-15370860D02*
X12930763Y-15361336D01*
X12930763Y-15361336D02*
X12921239Y-15342288D01*
X12921239Y-15342288D02*
X12921239Y-15285146D01*
X12921239Y-15285146D02*
X12930763Y-15266098D01*
X12930763Y-15266098D02*
X12940287Y-15256574D01*
X12940287Y-15256574D02*
X12959334Y-15247050D01*
X12959334Y-15247050D02*
X12987906Y-15247050D01*
X12987906Y-15247050D02*
X13006953Y-15256574D01*
X13006953Y-15256574D02*
X13016477Y-15266098D01*
X13016477Y-15266098D02*
X13026001Y-15285146D01*
X13026001Y-15285146D02*
X13026001Y-15342288D01*
X13026001Y-15342288D02*
X13016477Y-15361336D01*
X13016477Y-15361336D02*
X13006953Y-15370860D01*
X13006953Y-15370860D02*
X12987906Y-15380384D01*
X12987906Y-15380384D02*
X12959334Y-15380384D01*
X13140287Y-15380384D02*
X13121239Y-15370860D01*
X13121239Y-15370860D02*
X13111715Y-15351812D01*
X13111715Y-15351812D02*
X13111715Y-15180384D01*
X13292668Y-15370860D02*
X13273620Y-15380384D01*
X13273620Y-15380384D02*
X13235525Y-15380384D01*
X13235525Y-15380384D02*
X13216477Y-15370860D01*
X13216477Y-15370860D02*
X13206953Y-15351812D01*
X13206953Y-15351812D02*
X13206953Y-15275622D01*
X13206953Y-15275622D02*
X13216477Y-15256574D01*
X13216477Y-15256574D02*
X13235525Y-15247050D01*
X13235525Y-15247050D02*
X13273620Y-15247050D01*
X13273620Y-15247050D02*
X13292668Y-15256574D01*
X13292668Y-15256574D02*
X13302191Y-15275622D01*
X13302191Y-15275622D02*
X13302191Y-15294669D01*
X13302191Y-15294669D02*
X13206953Y-15313717D01*
X13378382Y-15370860D02*
X13397430Y-15380384D01*
X13397430Y-15380384D02*
X13435525Y-15380384D01*
X13435525Y-15380384D02*
X13454572Y-15370860D01*
X13454572Y-15370860D02*
X13464096Y-15351812D01*
X13464096Y-15351812D02*
X13464096Y-15342288D01*
X13464096Y-15342288D02*
X13454572Y-15323241D01*
X13454572Y-15323241D02*
X13435525Y-15313717D01*
X13435525Y-15313717D02*
X13406953Y-15313717D01*
X13406953Y-15313717D02*
X13387906Y-15304193D01*
X13387906Y-15304193D02*
X13378382Y-15285146D01*
X13378382Y-15285146D02*
X13378382Y-15275622D01*
X13378382Y-15275622D02*
X13387906Y-15256574D01*
X13387906Y-15256574D02*
X13406953Y-15247050D01*
X13406953Y-15247050D02*
X13435525Y-15247050D01*
X13435525Y-15247050D02*
X13454572Y-15256574D01*
X13530763Y-15456574D02*
X13540287Y-15447050D01*
X13540287Y-15447050D02*
X13559334Y-15418479D01*
X13559334Y-15418479D02*
X13568858Y-15399431D01*
X13568858Y-15399431D02*
X13578382Y-15370860D01*
X13578382Y-15370860D02*
X13587906Y-15323241D01*
X13587906Y-15323241D02*
X13587906Y-15285146D01*
X13587906Y-15285146D02*
X13578382Y-15237527D01*
X13578382Y-15237527D02*
X13568858Y-15208955D01*
X13568858Y-15208955D02*
X13559334Y-15189908D01*
X13559334Y-15189908D02*
X13540287Y-15161336D01*
X13540287Y-15161336D02*
X13530763Y-15151812D01*
D12*
X8735700Y-15532900D02*
X8735700Y-15572900D01*
X8715700Y-15552900D02*
X8755700Y-15552900D01*
D11*
X9054572Y-15444384D02*
X9073620Y-15444384D01*
X9073620Y-15444384D02*
X9092667Y-15453908D01*
X9092667Y-15453908D02*
X9102191Y-15463431D01*
X9102191Y-15463431D02*
X9111715Y-15482479D01*
X9111715Y-15482479D02*
X9121239Y-15520574D01*
X9121239Y-15520574D02*
X9121239Y-15568193D01*
X9121239Y-15568193D02*
X9111715Y-15606288D01*
X9111715Y-15606288D02*
X9102191Y-15625336D01*
X9102191Y-15625336D02*
X9092667Y-15634860D01*
X9092667Y-15634860D02*
X9073620Y-15644384D01*
X9073620Y-15644384D02*
X9054572Y-15644384D01*
X9054572Y-15644384D02*
X9035524Y-15634860D01*
X9035524Y-15634860D02*
X9026001Y-15625336D01*
X9026001Y-15625336D02*
X9016477Y-15606288D01*
X9016477Y-15606288D02*
X9006953Y-15568193D01*
X9006953Y-15568193D02*
X9006953Y-15520574D01*
X9006953Y-15520574D02*
X9016477Y-15482479D01*
X9016477Y-15482479D02*
X9026001Y-15463431D01*
X9026001Y-15463431D02*
X9035524Y-15453908D01*
X9035524Y-15453908D02*
X9054572Y-15444384D01*
X9206953Y-15625336D02*
X9216477Y-15634860D01*
X9216477Y-15634860D02*
X9206953Y-15644384D01*
X9206953Y-15644384D02*
X9197429Y-15634860D01*
X9197429Y-15634860D02*
X9206953Y-15625336D01*
X9206953Y-15625336D02*
X9206953Y-15644384D01*
X9387905Y-15511050D02*
X9387905Y-15644384D01*
X9340286Y-15434860D02*
X9292667Y-15577717D01*
X9292667Y-15577717D02*
X9416477Y-15577717D01*
X9530763Y-15444384D02*
X9549810Y-15444384D01*
X9549810Y-15444384D02*
X9568858Y-15453908D01*
X9568858Y-15453908D02*
X9578382Y-15463431D01*
X9578382Y-15463431D02*
X9587905Y-15482479D01*
X9587905Y-15482479D02*
X9597429Y-15520574D01*
X9597429Y-15520574D02*
X9597429Y-15568193D01*
X9597429Y-15568193D02*
X9587905Y-15606288D01*
X9587905Y-15606288D02*
X9578382Y-15625336D01*
X9578382Y-15625336D02*
X9568858Y-15634860D01*
X9568858Y-15634860D02*
X9549810Y-15644384D01*
X9549810Y-15644384D02*
X9530763Y-15644384D01*
X9530763Y-15644384D02*
X9511715Y-15634860D01*
X9511715Y-15634860D02*
X9502191Y-15625336D01*
X9502191Y-15625336D02*
X9492667Y-15606288D01*
X9492667Y-15606288D02*
X9483144Y-15568193D01*
X9483144Y-15568193D02*
X9483144Y-15520574D01*
X9483144Y-15520574D02*
X9492667Y-15482479D01*
X9492667Y-15482479D02*
X9502191Y-15463431D01*
X9502191Y-15463431D02*
X9511715Y-15453908D01*
X9511715Y-15453908D02*
X9530763Y-15444384D01*
X9721239Y-15444384D02*
X9740286Y-15444384D01*
X9740286Y-15444384D02*
X9759334Y-15453908D01*
X9759334Y-15453908D02*
X9768858Y-15463431D01*
X9768858Y-15463431D02*
X9778382Y-15482479D01*
X9778382Y-15482479D02*
X9787905Y-15520574D01*
X9787905Y-15520574D02*
X9787905Y-15568193D01*
X9787905Y-15568193D02*
X9778382Y-15606288D01*
X9778382Y-15606288D02*
X9768858Y-15625336D01*
X9768858Y-15625336D02*
X9759334Y-15634860D01*
X9759334Y-15634860D02*
X9740286Y-15644384D01*
X9740286Y-15644384D02*
X9721239Y-15644384D01*
X9721239Y-15644384D02*
X9702191Y-15634860D01*
X9702191Y-15634860D02*
X9692667Y-15625336D01*
X9692667Y-15625336D02*
X9683144Y-15606288D01*
X9683144Y-15606288D02*
X9673620Y-15568193D01*
X9673620Y-15568193D02*
X9673620Y-15520574D01*
X9673620Y-15520574D02*
X9683144Y-15482479D01*
X9683144Y-15482479D02*
X9692667Y-15463431D01*
X9692667Y-15463431D02*
X9702191Y-15453908D01*
X9702191Y-15453908D02*
X9721239Y-15444384D01*
X9873620Y-15644384D02*
X9873620Y-15511050D01*
X9873620Y-15530098D02*
X9883144Y-15520574D01*
X9883144Y-15520574D02*
X9902191Y-15511050D01*
X9902191Y-15511050D02*
X9930763Y-15511050D01*
X9930763Y-15511050D02*
X9949810Y-15520574D01*
X9949810Y-15520574D02*
X9959334Y-15539622D01*
X9959334Y-15539622D02*
X9959334Y-15644384D01*
X9959334Y-15539622D02*
X9968858Y-15520574D01*
X9968858Y-15520574D02*
X9987905Y-15511050D01*
X9987905Y-15511050D02*
X10016477Y-15511050D01*
X10016477Y-15511050D02*
X10035525Y-15520574D01*
X10035525Y-15520574D02*
X10045048Y-15539622D01*
X10045048Y-15539622D02*
X10045048Y-15644384D01*
X10140286Y-15644384D02*
X10140286Y-15511050D01*
X10140286Y-15530098D02*
X10149810Y-15520574D01*
X10149810Y-15520574D02*
X10168858Y-15511050D01*
X10168858Y-15511050D02*
X10197429Y-15511050D01*
X10197429Y-15511050D02*
X10216477Y-15520574D01*
X10216477Y-15520574D02*
X10226001Y-15539622D01*
X10226001Y-15539622D02*
X10226001Y-15644384D01*
X10226001Y-15539622D02*
X10235525Y-15520574D01*
X10235525Y-15520574D02*
X10254572Y-15511050D01*
X10254572Y-15511050D02*
X10283144Y-15511050D01*
X10283144Y-15511050D02*
X10302191Y-15520574D01*
X10302191Y-15520574D02*
X10311715Y-15539622D01*
X10311715Y-15539622D02*
X10311715Y-15644384D01*
X10702191Y-15434860D02*
X10530763Y-15692003D01*
X10959334Y-15444384D02*
X10978382Y-15444384D01*
X10978382Y-15444384D02*
X10997429Y-15453908D01*
X10997429Y-15453908D02*
X11006953Y-15463431D01*
X11006953Y-15463431D02*
X11016477Y-15482479D01*
X11016477Y-15482479D02*
X11026001Y-15520574D01*
X11026001Y-15520574D02*
X11026001Y-15568193D01*
X11026001Y-15568193D02*
X11016477Y-15606288D01*
X11016477Y-15606288D02*
X11006953Y-15625336D01*
X11006953Y-15625336D02*
X10997429Y-15634860D01*
X10997429Y-15634860D02*
X10978382Y-15644384D01*
X10978382Y-15644384D02*
X10959334Y-15644384D01*
X10959334Y-15644384D02*
X10940287Y-15634860D01*
X10940287Y-15634860D02*
X10930763Y-15625336D01*
X10930763Y-15625336D02*
X10921239Y-15606288D01*
X10921239Y-15606288D02*
X10911715Y-15568193D01*
X10911715Y-15568193D02*
X10911715Y-15520574D01*
X10911715Y-15520574D02*
X10921239Y-15482479D01*
X10921239Y-15482479D02*
X10930763Y-15463431D01*
X10930763Y-15463431D02*
X10940287Y-15453908D01*
X10940287Y-15453908D02*
X10959334Y-15444384D01*
X11111715Y-15625336D02*
X11121239Y-15634860D01*
X11121239Y-15634860D02*
X11111715Y-15644384D01*
X11111715Y-15644384D02*
X11102191Y-15634860D01*
X11102191Y-15634860D02*
X11111715Y-15625336D01*
X11111715Y-15625336D02*
X11111715Y-15644384D01*
X11245048Y-15444384D02*
X11264096Y-15444384D01*
X11264096Y-15444384D02*
X11283144Y-15453908D01*
X11283144Y-15453908D02*
X11292667Y-15463431D01*
X11292667Y-15463431D02*
X11302191Y-15482479D01*
X11302191Y-15482479D02*
X11311715Y-15520574D01*
X11311715Y-15520574D02*
X11311715Y-15568193D01*
X11311715Y-15568193D02*
X11302191Y-15606288D01*
X11302191Y-15606288D02*
X11292667Y-15625336D01*
X11292667Y-15625336D02*
X11283144Y-15634860D01*
X11283144Y-15634860D02*
X11264096Y-15644384D01*
X11264096Y-15644384D02*
X11245048Y-15644384D01*
X11245048Y-15644384D02*
X11226001Y-15634860D01*
X11226001Y-15634860D02*
X11216477Y-15625336D01*
X11216477Y-15625336D02*
X11206953Y-15606288D01*
X11206953Y-15606288D02*
X11197429Y-15568193D01*
X11197429Y-15568193D02*
X11197429Y-15520574D01*
X11197429Y-15520574D02*
X11206953Y-15482479D01*
X11206953Y-15482479D02*
X11216477Y-15463431D01*
X11216477Y-15463431D02*
X11226001Y-15453908D01*
X11226001Y-15453908D02*
X11245048Y-15444384D01*
X11502191Y-15644384D02*
X11387906Y-15644384D01*
X11445048Y-15644384D02*
X11445048Y-15444384D01*
X11445048Y-15444384D02*
X11426001Y-15472955D01*
X11426001Y-15472955D02*
X11406953Y-15492003D01*
X11406953Y-15492003D02*
X11387906Y-15501527D01*
X11683144Y-15444384D02*
X11587906Y-15444384D01*
X11587906Y-15444384D02*
X11578382Y-15539622D01*
X11578382Y-15539622D02*
X11587906Y-15530098D01*
X11587906Y-15530098D02*
X11606953Y-15520574D01*
X11606953Y-15520574D02*
X11654572Y-15520574D01*
X11654572Y-15520574D02*
X11673620Y-15530098D01*
X11673620Y-15530098D02*
X11683144Y-15539622D01*
X11683144Y-15539622D02*
X11692667Y-15558669D01*
X11692667Y-15558669D02*
X11692667Y-15606288D01*
X11692667Y-15606288D02*
X11683144Y-15625336D01*
X11683144Y-15625336D02*
X11673620Y-15634860D01*
X11673620Y-15634860D02*
X11654572Y-15644384D01*
X11654572Y-15644384D02*
X11606953Y-15644384D01*
X11606953Y-15644384D02*
X11587906Y-15634860D01*
X11587906Y-15634860D02*
X11578382Y-15625336D01*
X11759334Y-15444384D02*
X11892667Y-15444384D01*
X11892667Y-15444384D02*
X11806953Y-15644384D01*
X11959334Y-15444384D02*
X11959334Y-15482479D01*
X12035525Y-15444384D02*
X12035525Y-15482479D01*
X12330763Y-15720574D02*
X12321239Y-15711050D01*
X12321239Y-15711050D02*
X12302191Y-15682479D01*
X12302191Y-15682479D02*
X12292668Y-15663431D01*
X12292668Y-15663431D02*
X12283144Y-15634860D01*
X12283144Y-15634860D02*
X12273620Y-15587241D01*
X12273620Y-15587241D02*
X12273620Y-15549146D01*
X12273620Y-15549146D02*
X12283144Y-15501527D01*
X12283144Y-15501527D02*
X12292668Y-15472955D01*
X12292668Y-15472955D02*
X12302191Y-15453908D01*
X12302191Y-15453908D02*
X12321239Y-15425336D01*
X12321239Y-15425336D02*
X12330763Y-15415812D01*
X12502191Y-15444384D02*
X12406953Y-15444384D01*
X12406953Y-15444384D02*
X12397429Y-15539622D01*
X12397429Y-15539622D02*
X12406953Y-15530098D01*
X12406953Y-15530098D02*
X12426001Y-15520574D01*
X12426001Y-15520574D02*
X12473620Y-15520574D01*
X12473620Y-15520574D02*
X12492668Y-15530098D01*
X12492668Y-15530098D02*
X12502191Y-15539622D01*
X12502191Y-15539622D02*
X12511715Y-15558669D01*
X12511715Y-15558669D02*
X12511715Y-15606288D01*
X12511715Y-15606288D02*
X12502191Y-15625336D01*
X12502191Y-15625336D02*
X12492668Y-15634860D01*
X12492668Y-15634860D02*
X12473620Y-15644384D01*
X12473620Y-15644384D02*
X12426001Y-15644384D01*
X12426001Y-15644384D02*
X12406953Y-15634860D01*
X12406953Y-15634860D02*
X12397429Y-15625336D01*
X12749810Y-15644384D02*
X12749810Y-15444384D01*
X12835525Y-15644384D02*
X12835525Y-15539622D01*
X12835525Y-15539622D02*
X12826001Y-15520574D01*
X12826001Y-15520574D02*
X12806953Y-15511050D01*
X12806953Y-15511050D02*
X12778382Y-15511050D01*
X12778382Y-15511050D02*
X12759334Y-15520574D01*
X12759334Y-15520574D02*
X12749810Y-15530098D01*
X12959334Y-15644384D02*
X12940287Y-15634860D01*
X12940287Y-15634860D02*
X12930763Y-15625336D01*
X12930763Y-15625336D02*
X12921239Y-15606288D01*
X12921239Y-15606288D02*
X12921239Y-15549146D01*
X12921239Y-15549146D02*
X12930763Y-15530098D01*
X12930763Y-15530098D02*
X12940287Y-15520574D01*
X12940287Y-15520574D02*
X12959334Y-15511050D01*
X12959334Y-15511050D02*
X12987906Y-15511050D01*
X12987906Y-15511050D02*
X13006953Y-15520574D01*
X13006953Y-15520574D02*
X13016477Y-15530098D01*
X13016477Y-15530098D02*
X13026001Y-15549146D01*
X13026001Y-15549146D02*
X13026001Y-15606288D01*
X13026001Y-15606288D02*
X13016477Y-15625336D01*
X13016477Y-15625336D02*
X13006953Y-15634860D01*
X13006953Y-15634860D02*
X12987906Y-15644384D01*
X12987906Y-15644384D02*
X12959334Y-15644384D01*
X13140287Y-15644384D02*
X13121239Y-15634860D01*
X13121239Y-15634860D02*
X13111715Y-15615812D01*
X13111715Y-15615812D02*
X13111715Y-15444384D01*
X13292668Y-15634860D02*
X13273620Y-15644384D01*
X13273620Y-15644384D02*
X13235525Y-15644384D01*
X13235525Y-15644384D02*
X13216477Y-15634860D01*
X13216477Y-15634860D02*
X13206953Y-15615812D01*
X13206953Y-15615812D02*
X13206953Y-15539622D01*
X13206953Y-15539622D02*
X13216477Y-15520574D01*
X13216477Y-15520574D02*
X13235525Y-15511050D01*
X13235525Y-15511050D02*
X13273620Y-15511050D01*
X13273620Y-15511050D02*
X13292668Y-15520574D01*
X13292668Y-15520574D02*
X13302191Y-15539622D01*
X13302191Y-15539622D02*
X13302191Y-15558669D01*
X13302191Y-15558669D02*
X13206953Y-15577717D01*
X13378382Y-15634860D02*
X13397430Y-15644384D01*
X13397430Y-15644384D02*
X13435525Y-15644384D01*
X13435525Y-15644384D02*
X13454572Y-15634860D01*
X13454572Y-15634860D02*
X13464096Y-15615812D01*
X13464096Y-15615812D02*
X13464096Y-15606288D01*
X13464096Y-15606288D02*
X13454572Y-15587241D01*
X13454572Y-15587241D02*
X13435525Y-15577717D01*
X13435525Y-15577717D02*
X13406953Y-15577717D01*
X13406953Y-15577717D02*
X13387906Y-15568193D01*
X13387906Y-15568193D02*
X13378382Y-15549146D01*
X13378382Y-15549146D02*
X13378382Y-15539622D01*
X13378382Y-15539622D02*
X13387906Y-15520574D01*
X13387906Y-15520574D02*
X13406953Y-15511050D01*
X13406953Y-15511050D02*
X13435525Y-15511050D01*
X13435525Y-15511050D02*
X13454572Y-15520574D01*
X13530763Y-15720574D02*
X13540287Y-15711050D01*
X13540287Y-15711050D02*
X13559334Y-15682479D01*
X13559334Y-15682479D02*
X13568858Y-15663431D01*
X13568858Y-15663431D02*
X13578382Y-15634860D01*
X13578382Y-15634860D02*
X13587906Y-15587241D01*
X13587906Y-15587241D02*
X13587906Y-15549146D01*
X13587906Y-15549146D02*
X13578382Y-15501527D01*
X13578382Y-15501527D02*
X13568858Y-15472955D01*
X13568858Y-15472955D02*
X13559334Y-15453908D01*
X13559334Y-15453908D02*
X13540287Y-15425336D01*
X13540287Y-15425336D02*
X13530763Y-15415812D01*
D12*
X8748378Y-15834578D02*
X8748378Y-15799222D01*
X8713022Y-15799222D01*
X8713022Y-15834578D01*
X8748378Y-15834578D01*
D11*
X9054572Y-15708384D02*
X9073620Y-15708384D01*
X9073620Y-15708384D02*
X9092667Y-15717908D01*
X9092667Y-15717908D02*
X9102191Y-15727431D01*
X9102191Y-15727431D02*
X9111715Y-15746479D01*
X9111715Y-15746479D02*
X9121239Y-15784574D01*
X9121239Y-15784574D02*
X9121239Y-15832193D01*
X9121239Y-15832193D02*
X9111715Y-15870288D01*
X9111715Y-15870288D02*
X9102191Y-15889336D01*
X9102191Y-15889336D02*
X9092667Y-15898860D01*
X9092667Y-15898860D02*
X9073620Y-15908384D01*
X9073620Y-15908384D02*
X9054572Y-15908384D01*
X9054572Y-15908384D02*
X9035524Y-15898860D01*
X9035524Y-15898860D02*
X9026001Y-15889336D01*
X9026001Y-15889336D02*
X9016477Y-15870288D01*
X9016477Y-15870288D02*
X9006953Y-15832193D01*
X9006953Y-15832193D02*
X9006953Y-15784574D01*
X9006953Y-15784574D02*
X9016477Y-15746479D01*
X9016477Y-15746479D02*
X9026001Y-15727431D01*
X9026001Y-15727431D02*
X9035524Y-15717908D01*
X9035524Y-15717908D02*
X9054572Y-15708384D01*
X9206953Y-15889336D02*
X9216477Y-15898860D01*
X9216477Y-15898860D02*
X9206953Y-15908384D01*
X9206953Y-15908384D02*
X9197429Y-15898860D01*
X9197429Y-15898860D02*
X9206953Y-15889336D01*
X9206953Y-15889336D02*
X9206953Y-15908384D01*
X9397429Y-15708384D02*
X9302191Y-15708384D01*
X9302191Y-15708384D02*
X9292667Y-15803622D01*
X9292667Y-15803622D02*
X9302191Y-15794098D01*
X9302191Y-15794098D02*
X9321239Y-15784574D01*
X9321239Y-15784574D02*
X9368858Y-15784574D01*
X9368858Y-15784574D02*
X9387905Y-15794098D01*
X9387905Y-15794098D02*
X9397429Y-15803622D01*
X9397429Y-15803622D02*
X9406953Y-15822669D01*
X9406953Y-15822669D02*
X9406953Y-15870288D01*
X9406953Y-15870288D02*
X9397429Y-15889336D01*
X9397429Y-15889336D02*
X9387905Y-15898860D01*
X9387905Y-15898860D02*
X9368858Y-15908384D01*
X9368858Y-15908384D02*
X9321239Y-15908384D01*
X9321239Y-15908384D02*
X9302191Y-15898860D01*
X9302191Y-15898860D02*
X9292667Y-15889336D01*
X9530763Y-15708384D02*
X9549810Y-15708384D01*
X9549810Y-15708384D02*
X9568858Y-15717908D01*
X9568858Y-15717908D02*
X9578382Y-15727431D01*
X9578382Y-15727431D02*
X9587905Y-15746479D01*
X9587905Y-15746479D02*
X9597429Y-15784574D01*
X9597429Y-15784574D02*
X9597429Y-15832193D01*
X9597429Y-15832193D02*
X9587905Y-15870288D01*
X9587905Y-15870288D02*
X9578382Y-15889336D01*
X9578382Y-15889336D02*
X9568858Y-15898860D01*
X9568858Y-15898860D02*
X9549810Y-15908384D01*
X9549810Y-15908384D02*
X9530763Y-15908384D01*
X9530763Y-15908384D02*
X9511715Y-15898860D01*
X9511715Y-15898860D02*
X9502191Y-15889336D01*
X9502191Y-15889336D02*
X9492667Y-15870288D01*
X9492667Y-15870288D02*
X9483144Y-15832193D01*
X9483144Y-15832193D02*
X9483144Y-15784574D01*
X9483144Y-15784574D02*
X9492667Y-15746479D01*
X9492667Y-15746479D02*
X9502191Y-15727431D01*
X9502191Y-15727431D02*
X9511715Y-15717908D01*
X9511715Y-15717908D02*
X9530763Y-15708384D01*
X9721239Y-15708384D02*
X9740286Y-15708384D01*
X9740286Y-15708384D02*
X9759334Y-15717908D01*
X9759334Y-15717908D02*
X9768858Y-15727431D01*
X9768858Y-15727431D02*
X9778382Y-15746479D01*
X9778382Y-15746479D02*
X9787905Y-15784574D01*
X9787905Y-15784574D02*
X9787905Y-15832193D01*
X9787905Y-15832193D02*
X9778382Y-15870288D01*
X9778382Y-15870288D02*
X9768858Y-15889336D01*
X9768858Y-15889336D02*
X9759334Y-15898860D01*
X9759334Y-15898860D02*
X9740286Y-15908384D01*
X9740286Y-15908384D02*
X9721239Y-15908384D01*
X9721239Y-15908384D02*
X9702191Y-15898860D01*
X9702191Y-15898860D02*
X9692667Y-15889336D01*
X9692667Y-15889336D02*
X9683144Y-15870288D01*
X9683144Y-15870288D02*
X9673620Y-15832193D01*
X9673620Y-15832193D02*
X9673620Y-15784574D01*
X9673620Y-15784574D02*
X9683144Y-15746479D01*
X9683144Y-15746479D02*
X9692667Y-15727431D01*
X9692667Y-15727431D02*
X9702191Y-15717908D01*
X9702191Y-15717908D02*
X9721239Y-15708384D01*
X9873620Y-15908384D02*
X9873620Y-15775050D01*
X9873620Y-15794098D02*
X9883144Y-15784574D01*
X9883144Y-15784574D02*
X9902191Y-15775050D01*
X9902191Y-15775050D02*
X9930763Y-15775050D01*
X9930763Y-15775050D02*
X9949810Y-15784574D01*
X9949810Y-15784574D02*
X9959334Y-15803622D01*
X9959334Y-15803622D02*
X9959334Y-15908384D01*
X9959334Y-15803622D02*
X9968858Y-15784574D01*
X9968858Y-15784574D02*
X9987905Y-15775050D01*
X9987905Y-15775050D02*
X10016477Y-15775050D01*
X10016477Y-15775050D02*
X10035525Y-15784574D01*
X10035525Y-15784574D02*
X10045048Y-15803622D01*
X10045048Y-15803622D02*
X10045048Y-15908384D01*
X10140286Y-15908384D02*
X10140286Y-15775050D01*
X10140286Y-15794098D02*
X10149810Y-15784574D01*
X10149810Y-15784574D02*
X10168858Y-15775050D01*
X10168858Y-15775050D02*
X10197429Y-15775050D01*
X10197429Y-15775050D02*
X10216477Y-15784574D01*
X10216477Y-15784574D02*
X10226001Y-15803622D01*
X10226001Y-15803622D02*
X10226001Y-15908384D01*
X10226001Y-15803622D02*
X10235525Y-15784574D01*
X10235525Y-15784574D02*
X10254572Y-15775050D01*
X10254572Y-15775050D02*
X10283144Y-15775050D01*
X10283144Y-15775050D02*
X10302191Y-15784574D01*
X10302191Y-15784574D02*
X10311715Y-15803622D01*
X10311715Y-15803622D02*
X10311715Y-15908384D01*
X10702191Y-15698860D02*
X10530763Y-15956003D01*
X10959334Y-15708384D02*
X10978382Y-15708384D01*
X10978382Y-15708384D02*
X10997429Y-15717908D01*
X10997429Y-15717908D02*
X11006953Y-15727431D01*
X11006953Y-15727431D02*
X11016477Y-15746479D01*
X11016477Y-15746479D02*
X11026001Y-15784574D01*
X11026001Y-15784574D02*
X11026001Y-15832193D01*
X11026001Y-15832193D02*
X11016477Y-15870288D01*
X11016477Y-15870288D02*
X11006953Y-15889336D01*
X11006953Y-15889336D02*
X10997429Y-15898860D01*
X10997429Y-15898860D02*
X10978382Y-15908384D01*
X10978382Y-15908384D02*
X10959334Y-15908384D01*
X10959334Y-15908384D02*
X10940287Y-15898860D01*
X10940287Y-15898860D02*
X10930763Y-15889336D01*
X10930763Y-15889336D02*
X10921239Y-15870288D01*
X10921239Y-15870288D02*
X10911715Y-15832193D01*
X10911715Y-15832193D02*
X10911715Y-15784574D01*
X10911715Y-15784574D02*
X10921239Y-15746479D01*
X10921239Y-15746479D02*
X10930763Y-15727431D01*
X10930763Y-15727431D02*
X10940287Y-15717908D01*
X10940287Y-15717908D02*
X10959334Y-15708384D01*
X11111715Y-15889336D02*
X11121239Y-15898860D01*
X11121239Y-15898860D02*
X11111715Y-15908384D01*
X11111715Y-15908384D02*
X11102191Y-15898860D01*
X11102191Y-15898860D02*
X11111715Y-15889336D01*
X11111715Y-15889336D02*
X11111715Y-15908384D01*
X11245048Y-15708384D02*
X11264096Y-15708384D01*
X11264096Y-15708384D02*
X11283144Y-15717908D01*
X11283144Y-15717908D02*
X11292667Y-15727431D01*
X11292667Y-15727431D02*
X11302191Y-15746479D01*
X11302191Y-15746479D02*
X11311715Y-15784574D01*
X11311715Y-15784574D02*
X11311715Y-15832193D01*
X11311715Y-15832193D02*
X11302191Y-15870288D01*
X11302191Y-15870288D02*
X11292667Y-15889336D01*
X11292667Y-15889336D02*
X11283144Y-15898860D01*
X11283144Y-15898860D02*
X11264096Y-15908384D01*
X11264096Y-15908384D02*
X11245048Y-15908384D01*
X11245048Y-15908384D02*
X11226001Y-15898860D01*
X11226001Y-15898860D02*
X11216477Y-15889336D01*
X11216477Y-15889336D02*
X11206953Y-15870288D01*
X11206953Y-15870288D02*
X11197429Y-15832193D01*
X11197429Y-15832193D02*
X11197429Y-15784574D01*
X11197429Y-15784574D02*
X11206953Y-15746479D01*
X11206953Y-15746479D02*
X11216477Y-15727431D01*
X11216477Y-15727431D02*
X11226001Y-15717908D01*
X11226001Y-15717908D02*
X11245048Y-15708384D01*
X11502191Y-15908384D02*
X11387906Y-15908384D01*
X11445048Y-15908384D02*
X11445048Y-15708384D01*
X11445048Y-15708384D02*
X11426001Y-15736955D01*
X11426001Y-15736955D02*
X11406953Y-15756003D01*
X11406953Y-15756003D02*
X11387906Y-15765527D01*
X11597429Y-15908384D02*
X11635525Y-15908384D01*
X11635525Y-15908384D02*
X11654572Y-15898860D01*
X11654572Y-15898860D02*
X11664096Y-15889336D01*
X11664096Y-15889336D02*
X11683144Y-15860765D01*
X11683144Y-15860765D02*
X11692667Y-15822669D01*
X11692667Y-15822669D02*
X11692667Y-15746479D01*
X11692667Y-15746479D02*
X11683144Y-15727431D01*
X11683144Y-15727431D02*
X11673620Y-15717908D01*
X11673620Y-15717908D02*
X11654572Y-15708384D01*
X11654572Y-15708384D02*
X11616477Y-15708384D01*
X11616477Y-15708384D02*
X11597429Y-15717908D01*
X11597429Y-15717908D02*
X11587906Y-15727431D01*
X11587906Y-15727431D02*
X11578382Y-15746479D01*
X11578382Y-15746479D02*
X11578382Y-15794098D01*
X11578382Y-15794098D02*
X11587906Y-15813146D01*
X11587906Y-15813146D02*
X11597429Y-15822669D01*
X11597429Y-15822669D02*
X11616477Y-15832193D01*
X11616477Y-15832193D02*
X11654572Y-15832193D01*
X11654572Y-15832193D02*
X11673620Y-15822669D01*
X11673620Y-15822669D02*
X11683144Y-15813146D01*
X11683144Y-15813146D02*
X11692667Y-15794098D01*
X11759334Y-15708384D02*
X11892667Y-15708384D01*
X11892667Y-15708384D02*
X11806953Y-15908384D01*
X11959334Y-15708384D02*
X11959334Y-15746479D01*
X12035525Y-15708384D02*
X12035525Y-15746479D01*
X12330763Y-15984574D02*
X12321239Y-15975050D01*
X12321239Y-15975050D02*
X12302191Y-15946479D01*
X12302191Y-15946479D02*
X12292668Y-15927431D01*
X12292668Y-15927431D02*
X12283144Y-15898860D01*
X12283144Y-15898860D02*
X12273620Y-15851241D01*
X12273620Y-15851241D02*
X12273620Y-15813146D01*
X12273620Y-15813146D02*
X12283144Y-15765527D01*
X12283144Y-15765527D02*
X12292668Y-15736955D01*
X12292668Y-15736955D02*
X12302191Y-15717908D01*
X12302191Y-15717908D02*
X12321239Y-15689336D01*
X12321239Y-15689336D02*
X12330763Y-15679812D01*
X12511715Y-15908384D02*
X12397429Y-15908384D01*
X12454572Y-15908384D02*
X12454572Y-15708384D01*
X12454572Y-15708384D02*
X12435525Y-15736955D01*
X12435525Y-15736955D02*
X12416477Y-15756003D01*
X12416477Y-15756003D02*
X12397429Y-15765527D01*
X12587906Y-15727431D02*
X12597429Y-15717908D01*
X12597429Y-15717908D02*
X12616477Y-15708384D01*
X12616477Y-15708384D02*
X12664096Y-15708384D01*
X12664096Y-15708384D02*
X12683144Y-15717908D01*
X12683144Y-15717908D02*
X12692668Y-15727431D01*
X12692668Y-15727431D02*
X12702191Y-15746479D01*
X12702191Y-15746479D02*
X12702191Y-15765527D01*
X12702191Y-15765527D02*
X12692668Y-15794098D01*
X12692668Y-15794098D02*
X12578382Y-15908384D01*
X12578382Y-15908384D02*
X12702191Y-15908384D01*
X12873620Y-15775050D02*
X12873620Y-15908384D01*
X12826001Y-15698860D02*
X12778382Y-15841717D01*
X12778382Y-15841717D02*
X12902191Y-15841717D01*
X13130763Y-15908384D02*
X13130763Y-15708384D01*
X13216477Y-15908384D02*
X13216477Y-15803622D01*
X13216477Y-15803622D02*
X13206953Y-15784574D01*
X13206953Y-15784574D02*
X13187906Y-15775050D01*
X13187906Y-15775050D02*
X13159334Y-15775050D01*
X13159334Y-15775050D02*
X13140287Y-15784574D01*
X13140287Y-15784574D02*
X13130763Y-15794098D01*
X13340287Y-15908384D02*
X13321239Y-15898860D01*
X13321239Y-15898860D02*
X13311715Y-15889336D01*
X13311715Y-15889336D02*
X13302191Y-15870288D01*
X13302191Y-15870288D02*
X13302191Y-15813146D01*
X13302191Y-15813146D02*
X13311715Y-15794098D01*
X13311715Y-15794098D02*
X13321239Y-15784574D01*
X13321239Y-15784574D02*
X13340287Y-15775050D01*
X13340287Y-15775050D02*
X13368858Y-15775050D01*
X13368858Y-15775050D02*
X13387906Y-15784574D01*
X13387906Y-15784574D02*
X13397430Y-15794098D01*
X13397430Y-15794098D02*
X13406953Y-15813146D01*
X13406953Y-15813146D02*
X13406953Y-15870288D01*
X13406953Y-15870288D02*
X13397430Y-15889336D01*
X13397430Y-15889336D02*
X13387906Y-15898860D01*
X13387906Y-15898860D02*
X13368858Y-15908384D01*
X13368858Y-15908384D02*
X13340287Y-15908384D01*
X13521239Y-15908384D02*
X13502191Y-15898860D01*
X13502191Y-15898860D02*
X13492668Y-15879812D01*
X13492668Y-15879812D02*
X13492668Y-15708384D01*
X13673620Y-15898860D02*
X13654572Y-15908384D01*
X13654572Y-15908384D02*
X13616477Y-15908384D01*
X13616477Y-15908384D02*
X13597430Y-15898860D01*
X13597430Y-15898860D02*
X13587906Y-15879812D01*
X13587906Y-15879812D02*
X13587906Y-15803622D01*
X13587906Y-15803622D02*
X13597430Y-15784574D01*
X13597430Y-15784574D02*
X13616477Y-15775050D01*
X13616477Y-15775050D02*
X13654572Y-15775050D01*
X13654572Y-15775050D02*
X13673620Y-15784574D01*
X13673620Y-15784574D02*
X13683144Y-15803622D01*
X13683144Y-15803622D02*
X13683144Y-15822669D01*
X13683144Y-15822669D02*
X13587906Y-15841717D01*
X13759334Y-15898860D02*
X13778382Y-15908384D01*
X13778382Y-15908384D02*
X13816477Y-15908384D01*
X13816477Y-15908384D02*
X13835525Y-15898860D01*
X13835525Y-15898860D02*
X13845049Y-15879812D01*
X13845049Y-15879812D02*
X13845049Y-15870288D01*
X13845049Y-15870288D02*
X13835525Y-15851241D01*
X13835525Y-15851241D02*
X13816477Y-15841717D01*
X13816477Y-15841717D02*
X13787906Y-15841717D01*
X13787906Y-15841717D02*
X13768858Y-15832193D01*
X13768858Y-15832193D02*
X13759334Y-15813146D01*
X13759334Y-15813146D02*
X13759334Y-15803622D01*
X13759334Y-15803622D02*
X13768858Y-15784574D01*
X13768858Y-15784574D02*
X13787906Y-15775050D01*
X13787906Y-15775050D02*
X13816477Y-15775050D01*
X13816477Y-15775050D02*
X13835525Y-15784574D01*
X13911715Y-15984574D02*
X13921239Y-15975050D01*
X13921239Y-15975050D02*
X13940287Y-15946479D01*
X13940287Y-15946479D02*
X13949811Y-15927431D01*
X13949811Y-15927431D02*
X13959334Y-15898860D01*
X13959334Y-15898860D02*
X13968858Y-15851241D01*
X13968858Y-15851241D02*
X13968858Y-15813146D01*
X13968858Y-15813146D02*
X13959334Y-15765527D01*
X13959334Y-15765527D02*
X13949811Y-15736955D01*
X13949811Y-15736955D02*
X13940287Y-15717908D01*
X13940287Y-15717908D02*
X13921239Y-15689336D01*
X13921239Y-15689336D02*
X13911715Y-15679812D01*
D12*
X8725700Y-16110900D02*
X8755700Y-16080900D01*
X8725700Y-16050900D01*
X8695700Y-16080900D01*
X8725700Y-16110900D01*
D11*
X9054572Y-15972384D02*
X9073620Y-15972384D01*
X9073620Y-15972384D02*
X9092667Y-15981908D01*
X9092667Y-15981908D02*
X9102191Y-15991431D01*
X9102191Y-15991431D02*
X9111715Y-16010479D01*
X9111715Y-16010479D02*
X9121239Y-16048574D01*
X9121239Y-16048574D02*
X9121239Y-16096193D01*
X9121239Y-16096193D02*
X9111715Y-16134288D01*
X9111715Y-16134288D02*
X9102191Y-16153336D01*
X9102191Y-16153336D02*
X9092667Y-16162860D01*
X9092667Y-16162860D02*
X9073620Y-16172384D01*
X9073620Y-16172384D02*
X9054572Y-16172384D01*
X9054572Y-16172384D02*
X9035524Y-16162860D01*
X9035524Y-16162860D02*
X9026001Y-16153336D01*
X9026001Y-16153336D02*
X9016477Y-16134288D01*
X9016477Y-16134288D02*
X9006953Y-16096193D01*
X9006953Y-16096193D02*
X9006953Y-16048574D01*
X9006953Y-16048574D02*
X9016477Y-16010479D01*
X9016477Y-16010479D02*
X9026001Y-15991431D01*
X9026001Y-15991431D02*
X9035524Y-15981908D01*
X9035524Y-15981908D02*
X9054572Y-15972384D01*
X9206953Y-16153336D02*
X9216477Y-16162860D01*
X9216477Y-16162860D02*
X9206953Y-16172384D01*
X9206953Y-16172384D02*
X9197429Y-16162860D01*
X9197429Y-16162860D02*
X9206953Y-16153336D01*
X9206953Y-16153336D02*
X9206953Y-16172384D01*
X9387905Y-15972384D02*
X9349810Y-15972384D01*
X9349810Y-15972384D02*
X9330763Y-15981908D01*
X9330763Y-15981908D02*
X9321239Y-15991431D01*
X9321239Y-15991431D02*
X9302191Y-16020003D01*
X9302191Y-16020003D02*
X9292667Y-16058098D01*
X9292667Y-16058098D02*
X9292667Y-16134288D01*
X9292667Y-16134288D02*
X9302191Y-16153336D01*
X9302191Y-16153336D02*
X9311715Y-16162860D01*
X9311715Y-16162860D02*
X9330763Y-16172384D01*
X9330763Y-16172384D02*
X9368858Y-16172384D01*
X9368858Y-16172384D02*
X9387905Y-16162860D01*
X9387905Y-16162860D02*
X9397429Y-16153336D01*
X9397429Y-16153336D02*
X9406953Y-16134288D01*
X9406953Y-16134288D02*
X9406953Y-16086669D01*
X9406953Y-16086669D02*
X9397429Y-16067622D01*
X9397429Y-16067622D02*
X9387905Y-16058098D01*
X9387905Y-16058098D02*
X9368858Y-16048574D01*
X9368858Y-16048574D02*
X9330763Y-16048574D01*
X9330763Y-16048574D02*
X9311715Y-16058098D01*
X9311715Y-16058098D02*
X9302191Y-16067622D01*
X9302191Y-16067622D02*
X9292667Y-16086669D01*
X9530763Y-15972384D02*
X9549810Y-15972384D01*
X9549810Y-15972384D02*
X9568858Y-15981908D01*
X9568858Y-15981908D02*
X9578382Y-15991431D01*
X9578382Y-15991431D02*
X9587905Y-16010479D01*
X9587905Y-16010479D02*
X9597429Y-16048574D01*
X9597429Y-16048574D02*
X9597429Y-16096193D01*
X9597429Y-16096193D02*
X9587905Y-16134288D01*
X9587905Y-16134288D02*
X9578382Y-16153336D01*
X9578382Y-16153336D02*
X9568858Y-16162860D01*
X9568858Y-16162860D02*
X9549810Y-16172384D01*
X9549810Y-16172384D02*
X9530763Y-16172384D01*
X9530763Y-16172384D02*
X9511715Y-16162860D01*
X9511715Y-16162860D02*
X9502191Y-16153336D01*
X9502191Y-16153336D02*
X9492667Y-16134288D01*
X9492667Y-16134288D02*
X9483144Y-16096193D01*
X9483144Y-16096193D02*
X9483144Y-16048574D01*
X9483144Y-16048574D02*
X9492667Y-16010479D01*
X9492667Y-16010479D02*
X9502191Y-15991431D01*
X9502191Y-15991431D02*
X9511715Y-15981908D01*
X9511715Y-15981908D02*
X9530763Y-15972384D01*
X9721239Y-15972384D02*
X9740286Y-15972384D01*
X9740286Y-15972384D02*
X9759334Y-15981908D01*
X9759334Y-15981908D02*
X9768858Y-15991431D01*
X9768858Y-15991431D02*
X9778382Y-16010479D01*
X9778382Y-16010479D02*
X9787905Y-16048574D01*
X9787905Y-16048574D02*
X9787905Y-16096193D01*
X9787905Y-16096193D02*
X9778382Y-16134288D01*
X9778382Y-16134288D02*
X9768858Y-16153336D01*
X9768858Y-16153336D02*
X9759334Y-16162860D01*
X9759334Y-16162860D02*
X9740286Y-16172384D01*
X9740286Y-16172384D02*
X9721239Y-16172384D01*
X9721239Y-16172384D02*
X9702191Y-16162860D01*
X9702191Y-16162860D02*
X9692667Y-16153336D01*
X9692667Y-16153336D02*
X9683144Y-16134288D01*
X9683144Y-16134288D02*
X9673620Y-16096193D01*
X9673620Y-16096193D02*
X9673620Y-16048574D01*
X9673620Y-16048574D02*
X9683144Y-16010479D01*
X9683144Y-16010479D02*
X9692667Y-15991431D01*
X9692667Y-15991431D02*
X9702191Y-15981908D01*
X9702191Y-15981908D02*
X9721239Y-15972384D01*
X9873620Y-16172384D02*
X9873620Y-16039050D01*
X9873620Y-16058098D02*
X9883144Y-16048574D01*
X9883144Y-16048574D02*
X9902191Y-16039050D01*
X9902191Y-16039050D02*
X9930763Y-16039050D01*
X9930763Y-16039050D02*
X9949810Y-16048574D01*
X9949810Y-16048574D02*
X9959334Y-16067622D01*
X9959334Y-16067622D02*
X9959334Y-16172384D01*
X9959334Y-16067622D02*
X9968858Y-16048574D01*
X9968858Y-16048574D02*
X9987905Y-16039050D01*
X9987905Y-16039050D02*
X10016477Y-16039050D01*
X10016477Y-16039050D02*
X10035525Y-16048574D01*
X10035525Y-16048574D02*
X10045048Y-16067622D01*
X10045048Y-16067622D02*
X10045048Y-16172384D01*
X10140286Y-16172384D02*
X10140286Y-16039050D01*
X10140286Y-16058098D02*
X10149810Y-16048574D01*
X10149810Y-16048574D02*
X10168858Y-16039050D01*
X10168858Y-16039050D02*
X10197429Y-16039050D01*
X10197429Y-16039050D02*
X10216477Y-16048574D01*
X10216477Y-16048574D02*
X10226001Y-16067622D01*
X10226001Y-16067622D02*
X10226001Y-16172384D01*
X10226001Y-16067622D02*
X10235525Y-16048574D01*
X10235525Y-16048574D02*
X10254572Y-16039050D01*
X10254572Y-16039050D02*
X10283144Y-16039050D01*
X10283144Y-16039050D02*
X10302191Y-16048574D01*
X10302191Y-16048574D02*
X10311715Y-16067622D01*
X10311715Y-16067622D02*
X10311715Y-16172384D01*
X10702191Y-15962860D02*
X10530763Y-16220003D01*
X10959334Y-15972384D02*
X10978382Y-15972384D01*
X10978382Y-15972384D02*
X10997429Y-15981908D01*
X10997429Y-15981908D02*
X11006953Y-15991431D01*
X11006953Y-15991431D02*
X11016477Y-16010479D01*
X11016477Y-16010479D02*
X11026001Y-16048574D01*
X11026001Y-16048574D02*
X11026001Y-16096193D01*
X11026001Y-16096193D02*
X11016477Y-16134288D01*
X11016477Y-16134288D02*
X11006953Y-16153336D01*
X11006953Y-16153336D02*
X10997429Y-16162860D01*
X10997429Y-16162860D02*
X10978382Y-16172384D01*
X10978382Y-16172384D02*
X10959334Y-16172384D01*
X10959334Y-16172384D02*
X10940287Y-16162860D01*
X10940287Y-16162860D02*
X10930763Y-16153336D01*
X10930763Y-16153336D02*
X10921239Y-16134288D01*
X10921239Y-16134288D02*
X10911715Y-16096193D01*
X10911715Y-16096193D02*
X10911715Y-16048574D01*
X10911715Y-16048574D02*
X10921239Y-16010479D01*
X10921239Y-16010479D02*
X10930763Y-15991431D01*
X10930763Y-15991431D02*
X10940287Y-15981908D01*
X10940287Y-15981908D02*
X10959334Y-15972384D01*
X11111715Y-16153336D02*
X11121239Y-16162860D01*
X11121239Y-16162860D02*
X11111715Y-16172384D01*
X11111715Y-16172384D02*
X11102191Y-16162860D01*
X11102191Y-16162860D02*
X11111715Y-16153336D01*
X11111715Y-16153336D02*
X11111715Y-16172384D01*
X11245048Y-15972384D02*
X11264096Y-15972384D01*
X11264096Y-15972384D02*
X11283144Y-15981908D01*
X11283144Y-15981908D02*
X11292667Y-15991431D01*
X11292667Y-15991431D02*
X11302191Y-16010479D01*
X11302191Y-16010479D02*
X11311715Y-16048574D01*
X11311715Y-16048574D02*
X11311715Y-16096193D01*
X11311715Y-16096193D02*
X11302191Y-16134288D01*
X11302191Y-16134288D02*
X11292667Y-16153336D01*
X11292667Y-16153336D02*
X11283144Y-16162860D01*
X11283144Y-16162860D02*
X11264096Y-16172384D01*
X11264096Y-16172384D02*
X11245048Y-16172384D01*
X11245048Y-16172384D02*
X11226001Y-16162860D01*
X11226001Y-16162860D02*
X11216477Y-16153336D01*
X11216477Y-16153336D02*
X11206953Y-16134288D01*
X11206953Y-16134288D02*
X11197429Y-16096193D01*
X11197429Y-16096193D02*
X11197429Y-16048574D01*
X11197429Y-16048574D02*
X11206953Y-16010479D01*
X11206953Y-16010479D02*
X11216477Y-15991431D01*
X11216477Y-15991431D02*
X11226001Y-15981908D01*
X11226001Y-15981908D02*
X11245048Y-15972384D01*
X11387906Y-15991431D02*
X11397429Y-15981908D01*
X11397429Y-15981908D02*
X11416477Y-15972384D01*
X11416477Y-15972384D02*
X11464096Y-15972384D01*
X11464096Y-15972384D02*
X11483144Y-15981908D01*
X11483144Y-15981908D02*
X11492667Y-15991431D01*
X11492667Y-15991431D02*
X11502191Y-16010479D01*
X11502191Y-16010479D02*
X11502191Y-16029527D01*
X11502191Y-16029527D02*
X11492667Y-16058098D01*
X11492667Y-16058098D02*
X11378382Y-16172384D01*
X11378382Y-16172384D02*
X11502191Y-16172384D01*
X11568858Y-15972384D02*
X11692667Y-15972384D01*
X11692667Y-15972384D02*
X11626001Y-16048574D01*
X11626001Y-16048574D02*
X11654572Y-16048574D01*
X11654572Y-16048574D02*
X11673620Y-16058098D01*
X11673620Y-16058098D02*
X11683144Y-16067622D01*
X11683144Y-16067622D02*
X11692667Y-16086669D01*
X11692667Y-16086669D02*
X11692667Y-16134288D01*
X11692667Y-16134288D02*
X11683144Y-16153336D01*
X11683144Y-16153336D02*
X11673620Y-16162860D01*
X11673620Y-16162860D02*
X11654572Y-16172384D01*
X11654572Y-16172384D02*
X11597429Y-16172384D01*
X11597429Y-16172384D02*
X11578382Y-16162860D01*
X11578382Y-16162860D02*
X11568858Y-16153336D01*
X11864096Y-15972384D02*
X11826001Y-15972384D01*
X11826001Y-15972384D02*
X11806953Y-15981908D01*
X11806953Y-15981908D02*
X11797429Y-15991431D01*
X11797429Y-15991431D02*
X11778382Y-16020003D01*
X11778382Y-16020003D02*
X11768858Y-16058098D01*
X11768858Y-16058098D02*
X11768858Y-16134288D01*
X11768858Y-16134288D02*
X11778382Y-16153336D01*
X11778382Y-16153336D02*
X11787906Y-16162860D01*
X11787906Y-16162860D02*
X11806953Y-16172384D01*
X11806953Y-16172384D02*
X11845048Y-16172384D01*
X11845048Y-16172384D02*
X11864096Y-16162860D01*
X11864096Y-16162860D02*
X11873620Y-16153336D01*
X11873620Y-16153336D02*
X11883144Y-16134288D01*
X11883144Y-16134288D02*
X11883144Y-16086669D01*
X11883144Y-16086669D02*
X11873620Y-16067622D01*
X11873620Y-16067622D02*
X11864096Y-16058098D01*
X11864096Y-16058098D02*
X11845048Y-16048574D01*
X11845048Y-16048574D02*
X11806953Y-16048574D01*
X11806953Y-16048574D02*
X11787906Y-16058098D01*
X11787906Y-16058098D02*
X11778382Y-16067622D01*
X11778382Y-16067622D02*
X11768858Y-16086669D01*
X11959334Y-15972384D02*
X11959334Y-16010479D01*
X12035525Y-15972384D02*
X12035525Y-16010479D01*
X12330763Y-16248574D02*
X12321239Y-16239050D01*
X12321239Y-16239050D02*
X12302191Y-16210479D01*
X12302191Y-16210479D02*
X12292668Y-16191431D01*
X12292668Y-16191431D02*
X12283144Y-16162860D01*
X12283144Y-16162860D02*
X12273620Y-16115241D01*
X12273620Y-16115241D02*
X12273620Y-16077146D01*
X12273620Y-16077146D02*
X12283144Y-16029527D01*
X12283144Y-16029527D02*
X12292668Y-16000955D01*
X12292668Y-16000955D02*
X12302191Y-15981908D01*
X12302191Y-15981908D02*
X12321239Y-15953336D01*
X12321239Y-15953336D02*
X12330763Y-15943812D01*
X12445048Y-15972384D02*
X12464096Y-15972384D01*
X12464096Y-15972384D02*
X12483144Y-15981908D01*
X12483144Y-15981908D02*
X12492668Y-15991431D01*
X12492668Y-15991431D02*
X12502191Y-16010479D01*
X12502191Y-16010479D02*
X12511715Y-16048574D01*
X12511715Y-16048574D02*
X12511715Y-16096193D01*
X12511715Y-16096193D02*
X12502191Y-16134288D01*
X12502191Y-16134288D02*
X12492668Y-16153336D01*
X12492668Y-16153336D02*
X12483144Y-16162860D01*
X12483144Y-16162860D02*
X12464096Y-16172384D01*
X12464096Y-16172384D02*
X12445048Y-16172384D01*
X12445048Y-16172384D02*
X12426001Y-16162860D01*
X12426001Y-16162860D02*
X12416477Y-16153336D01*
X12416477Y-16153336D02*
X12406953Y-16134288D01*
X12406953Y-16134288D02*
X12397429Y-16096193D01*
X12397429Y-16096193D02*
X12397429Y-16048574D01*
X12397429Y-16048574D02*
X12406953Y-16010479D01*
X12406953Y-16010479D02*
X12416477Y-15991431D01*
X12416477Y-15991431D02*
X12426001Y-15981908D01*
X12426001Y-15981908D02*
X12445048Y-15972384D01*
X12749810Y-16172384D02*
X12749810Y-15972384D01*
X12835525Y-16172384D02*
X12835525Y-16067622D01*
X12835525Y-16067622D02*
X12826001Y-16048574D01*
X12826001Y-16048574D02*
X12806953Y-16039050D01*
X12806953Y-16039050D02*
X12778382Y-16039050D01*
X12778382Y-16039050D02*
X12759334Y-16048574D01*
X12759334Y-16048574D02*
X12749810Y-16058098D01*
X12959334Y-16172384D02*
X12940287Y-16162860D01*
X12940287Y-16162860D02*
X12930763Y-16153336D01*
X12930763Y-16153336D02*
X12921239Y-16134288D01*
X12921239Y-16134288D02*
X12921239Y-16077146D01*
X12921239Y-16077146D02*
X12930763Y-16058098D01*
X12930763Y-16058098D02*
X12940287Y-16048574D01*
X12940287Y-16048574D02*
X12959334Y-16039050D01*
X12959334Y-16039050D02*
X12987906Y-16039050D01*
X12987906Y-16039050D02*
X13006953Y-16048574D01*
X13006953Y-16048574D02*
X13016477Y-16058098D01*
X13016477Y-16058098D02*
X13026001Y-16077146D01*
X13026001Y-16077146D02*
X13026001Y-16134288D01*
X13026001Y-16134288D02*
X13016477Y-16153336D01*
X13016477Y-16153336D02*
X13006953Y-16162860D01*
X13006953Y-16162860D02*
X12987906Y-16172384D01*
X12987906Y-16172384D02*
X12959334Y-16172384D01*
X13140287Y-16172384D02*
X13121239Y-16162860D01*
X13121239Y-16162860D02*
X13111715Y-16143812D01*
X13111715Y-16143812D02*
X13111715Y-15972384D01*
X13292668Y-16162860D02*
X13273620Y-16172384D01*
X13273620Y-16172384D02*
X13235525Y-16172384D01*
X13235525Y-16172384D02*
X13216477Y-16162860D01*
X13216477Y-16162860D02*
X13206953Y-16143812D01*
X13206953Y-16143812D02*
X13206953Y-16067622D01*
X13206953Y-16067622D02*
X13216477Y-16048574D01*
X13216477Y-16048574D02*
X13235525Y-16039050D01*
X13235525Y-16039050D02*
X13273620Y-16039050D01*
X13273620Y-16039050D02*
X13292668Y-16048574D01*
X13292668Y-16048574D02*
X13302191Y-16067622D01*
X13302191Y-16067622D02*
X13302191Y-16086669D01*
X13302191Y-16086669D02*
X13206953Y-16105717D01*
X13378382Y-16162860D02*
X13397430Y-16172384D01*
X13397430Y-16172384D02*
X13435525Y-16172384D01*
X13435525Y-16172384D02*
X13454572Y-16162860D01*
X13454572Y-16162860D02*
X13464096Y-16143812D01*
X13464096Y-16143812D02*
X13464096Y-16134288D01*
X13464096Y-16134288D02*
X13454572Y-16115241D01*
X13454572Y-16115241D02*
X13435525Y-16105717D01*
X13435525Y-16105717D02*
X13406953Y-16105717D01*
X13406953Y-16105717D02*
X13387906Y-16096193D01*
X13387906Y-16096193D02*
X13378382Y-16077146D01*
X13378382Y-16077146D02*
X13378382Y-16067622D01*
X13378382Y-16067622D02*
X13387906Y-16048574D01*
X13387906Y-16048574D02*
X13406953Y-16039050D01*
X13406953Y-16039050D02*
X13435525Y-16039050D01*
X13435525Y-16039050D02*
X13454572Y-16048574D01*
X13702192Y-16096193D02*
X13854573Y-16096193D01*
X13778382Y-16172384D02*
X13778382Y-16020003D01*
X14187906Y-16039050D02*
X14187906Y-16172384D01*
X14140287Y-15962860D02*
X14092668Y-16105717D01*
X14092668Y-16105717D02*
X14216477Y-16105717D01*
X14435525Y-16162860D02*
X14454573Y-16172384D01*
X14454573Y-16172384D02*
X14492668Y-16172384D01*
X14492668Y-16172384D02*
X14511715Y-16162860D01*
X14511715Y-16162860D02*
X14521239Y-16143812D01*
X14521239Y-16143812D02*
X14521239Y-16134288D01*
X14521239Y-16134288D02*
X14511715Y-16115241D01*
X14511715Y-16115241D02*
X14492668Y-16105717D01*
X14492668Y-16105717D02*
X14464096Y-16105717D01*
X14464096Y-16105717D02*
X14445049Y-16096193D01*
X14445049Y-16096193D02*
X14435525Y-16077146D01*
X14435525Y-16077146D02*
X14435525Y-16067622D01*
X14435525Y-16067622D02*
X14445049Y-16048574D01*
X14445049Y-16048574D02*
X14464096Y-16039050D01*
X14464096Y-16039050D02*
X14492668Y-16039050D01*
X14492668Y-16039050D02*
X14511715Y-16048574D01*
X14635525Y-16172384D02*
X14616477Y-16162860D01*
X14616477Y-16162860D02*
X14606954Y-16143812D01*
X14606954Y-16143812D02*
X14606954Y-15972384D01*
X14740287Y-16172384D02*
X14721239Y-16162860D01*
X14721239Y-16162860D02*
X14711715Y-16153336D01*
X14711715Y-16153336D02*
X14702192Y-16134288D01*
X14702192Y-16134288D02*
X14702192Y-16077146D01*
X14702192Y-16077146D02*
X14711715Y-16058098D01*
X14711715Y-16058098D02*
X14721239Y-16048574D01*
X14721239Y-16048574D02*
X14740287Y-16039050D01*
X14740287Y-16039050D02*
X14768858Y-16039050D01*
X14768858Y-16039050D02*
X14787906Y-16048574D01*
X14787906Y-16048574D02*
X14797430Y-16058098D01*
X14797430Y-16058098D02*
X14806954Y-16077146D01*
X14806954Y-16077146D02*
X14806954Y-16134288D01*
X14806954Y-16134288D02*
X14797430Y-16153336D01*
X14797430Y-16153336D02*
X14787906Y-16162860D01*
X14787906Y-16162860D02*
X14768858Y-16172384D01*
X14768858Y-16172384D02*
X14740287Y-16172384D01*
X14864096Y-16039050D02*
X14940287Y-16039050D01*
X14892668Y-15972384D02*
X14892668Y-16143812D01*
X14892668Y-16143812D02*
X14902192Y-16162860D01*
X14902192Y-16162860D02*
X14921239Y-16172384D01*
X14921239Y-16172384D02*
X14940287Y-16172384D01*
X14997430Y-16162860D02*
X15016477Y-16172384D01*
X15016477Y-16172384D02*
X15054573Y-16172384D01*
X15054573Y-16172384D02*
X15073620Y-16162860D01*
X15073620Y-16162860D02*
X15083144Y-16143812D01*
X15083144Y-16143812D02*
X15083144Y-16134288D01*
X15083144Y-16134288D02*
X15073620Y-16115241D01*
X15073620Y-16115241D02*
X15054573Y-16105717D01*
X15054573Y-16105717D02*
X15026001Y-16105717D01*
X15026001Y-16105717D02*
X15006954Y-16096193D01*
X15006954Y-16096193D02*
X14997430Y-16077146D01*
X14997430Y-16077146D02*
X14997430Y-16067622D01*
X14997430Y-16067622D02*
X15006954Y-16048574D01*
X15006954Y-16048574D02*
X15026001Y-16039050D01*
X15026001Y-16039050D02*
X15054573Y-16039050D01*
X15054573Y-16039050D02*
X15073620Y-16048574D01*
X15149811Y-16248574D02*
X15159335Y-16239050D01*
X15159335Y-16239050D02*
X15178382Y-16210479D01*
X15178382Y-16210479D02*
X15187906Y-16191431D01*
X15187906Y-16191431D02*
X15197430Y-16162860D01*
X15197430Y-16162860D02*
X15206954Y-16115241D01*
X15206954Y-16115241D02*
X15206954Y-16077146D01*
X15206954Y-16077146D02*
X15197430Y-16029527D01*
X15197430Y-16029527D02*
X15187906Y-16000955D01*
X15187906Y-16000955D02*
X15178382Y-15981908D01*
X15178382Y-15981908D02*
X15159335Y-15953336D01*
X15159335Y-15953336D02*
X15149811Y-15943812D01*
D12*
X8685700Y-16309900D02*
X8755700Y-16379900D01*
X8755700Y-16309900D02*
X8685700Y-16379900D01*
X8755700Y-16344900D02*
G75*
G02*
X8685700Y-16344900I-35000J0D01*
G01*
X8685700Y-16344900D02*
G75*
G02*
X8755700Y-16344900I35000J0D01*
G01*
D11*
X9054572Y-16236384D02*
X9073620Y-16236384D01*
X9073620Y-16236384D02*
X9092667Y-16245908D01*
X9092667Y-16245908D02*
X9102191Y-16255431D01*
X9102191Y-16255431D02*
X9111715Y-16274479D01*
X9111715Y-16274479D02*
X9121239Y-16312574D01*
X9121239Y-16312574D02*
X9121239Y-16360193D01*
X9121239Y-16360193D02*
X9111715Y-16398288D01*
X9111715Y-16398288D02*
X9102191Y-16417336D01*
X9102191Y-16417336D02*
X9092667Y-16426860D01*
X9092667Y-16426860D02*
X9073620Y-16436384D01*
X9073620Y-16436384D02*
X9054572Y-16436384D01*
X9054572Y-16436384D02*
X9035524Y-16426860D01*
X9035524Y-16426860D02*
X9026001Y-16417336D01*
X9026001Y-16417336D02*
X9016477Y-16398288D01*
X9016477Y-16398288D02*
X9006953Y-16360193D01*
X9006953Y-16360193D02*
X9006953Y-16312574D01*
X9006953Y-16312574D02*
X9016477Y-16274479D01*
X9016477Y-16274479D02*
X9026001Y-16255431D01*
X9026001Y-16255431D02*
X9035524Y-16245908D01*
X9035524Y-16245908D02*
X9054572Y-16236384D01*
X9206953Y-16417336D02*
X9216477Y-16426860D01*
X9216477Y-16426860D02*
X9206953Y-16436384D01*
X9206953Y-16436384D02*
X9197429Y-16426860D01*
X9197429Y-16426860D02*
X9206953Y-16417336D01*
X9206953Y-16417336D02*
X9206953Y-16436384D01*
X9283144Y-16236384D02*
X9416477Y-16236384D01*
X9416477Y-16236384D02*
X9330763Y-16436384D01*
X9530763Y-16236384D02*
X9549810Y-16236384D01*
X9549810Y-16236384D02*
X9568858Y-16245908D01*
X9568858Y-16245908D02*
X9578382Y-16255431D01*
X9578382Y-16255431D02*
X9587905Y-16274479D01*
X9587905Y-16274479D02*
X9597429Y-16312574D01*
X9597429Y-16312574D02*
X9597429Y-16360193D01*
X9597429Y-16360193D02*
X9587905Y-16398288D01*
X9587905Y-16398288D02*
X9578382Y-16417336D01*
X9578382Y-16417336D02*
X9568858Y-16426860D01*
X9568858Y-16426860D02*
X9549810Y-16436384D01*
X9549810Y-16436384D02*
X9530763Y-16436384D01*
X9530763Y-16436384D02*
X9511715Y-16426860D01*
X9511715Y-16426860D02*
X9502191Y-16417336D01*
X9502191Y-16417336D02*
X9492667Y-16398288D01*
X9492667Y-16398288D02*
X9483144Y-16360193D01*
X9483144Y-16360193D02*
X9483144Y-16312574D01*
X9483144Y-16312574D02*
X9492667Y-16274479D01*
X9492667Y-16274479D02*
X9502191Y-16255431D01*
X9502191Y-16255431D02*
X9511715Y-16245908D01*
X9511715Y-16245908D02*
X9530763Y-16236384D01*
X9721239Y-16236384D02*
X9740286Y-16236384D01*
X9740286Y-16236384D02*
X9759334Y-16245908D01*
X9759334Y-16245908D02*
X9768858Y-16255431D01*
X9768858Y-16255431D02*
X9778382Y-16274479D01*
X9778382Y-16274479D02*
X9787905Y-16312574D01*
X9787905Y-16312574D02*
X9787905Y-16360193D01*
X9787905Y-16360193D02*
X9778382Y-16398288D01*
X9778382Y-16398288D02*
X9768858Y-16417336D01*
X9768858Y-16417336D02*
X9759334Y-16426860D01*
X9759334Y-16426860D02*
X9740286Y-16436384D01*
X9740286Y-16436384D02*
X9721239Y-16436384D01*
X9721239Y-16436384D02*
X9702191Y-16426860D01*
X9702191Y-16426860D02*
X9692667Y-16417336D01*
X9692667Y-16417336D02*
X9683144Y-16398288D01*
X9683144Y-16398288D02*
X9673620Y-16360193D01*
X9673620Y-16360193D02*
X9673620Y-16312574D01*
X9673620Y-16312574D02*
X9683144Y-16274479D01*
X9683144Y-16274479D02*
X9692667Y-16255431D01*
X9692667Y-16255431D02*
X9702191Y-16245908D01*
X9702191Y-16245908D02*
X9721239Y-16236384D01*
X9873620Y-16436384D02*
X9873620Y-16303050D01*
X9873620Y-16322098D02*
X9883144Y-16312574D01*
X9883144Y-16312574D02*
X9902191Y-16303050D01*
X9902191Y-16303050D02*
X9930763Y-16303050D01*
X9930763Y-16303050D02*
X9949810Y-16312574D01*
X9949810Y-16312574D02*
X9959334Y-16331622D01*
X9959334Y-16331622D02*
X9959334Y-16436384D01*
X9959334Y-16331622D02*
X9968858Y-16312574D01*
X9968858Y-16312574D02*
X9987905Y-16303050D01*
X9987905Y-16303050D02*
X10016477Y-16303050D01*
X10016477Y-16303050D02*
X10035525Y-16312574D01*
X10035525Y-16312574D02*
X10045048Y-16331622D01*
X10045048Y-16331622D02*
X10045048Y-16436384D01*
X10140286Y-16436384D02*
X10140286Y-16303050D01*
X10140286Y-16322098D02*
X10149810Y-16312574D01*
X10149810Y-16312574D02*
X10168858Y-16303050D01*
X10168858Y-16303050D02*
X10197429Y-16303050D01*
X10197429Y-16303050D02*
X10216477Y-16312574D01*
X10216477Y-16312574D02*
X10226001Y-16331622D01*
X10226001Y-16331622D02*
X10226001Y-16436384D01*
X10226001Y-16331622D02*
X10235525Y-16312574D01*
X10235525Y-16312574D02*
X10254572Y-16303050D01*
X10254572Y-16303050D02*
X10283144Y-16303050D01*
X10283144Y-16303050D02*
X10302191Y-16312574D01*
X10302191Y-16312574D02*
X10311715Y-16331622D01*
X10311715Y-16331622D02*
X10311715Y-16436384D01*
X10702191Y-16226860D02*
X10530763Y-16484003D01*
X10959334Y-16236384D02*
X10978382Y-16236384D01*
X10978382Y-16236384D02*
X10997429Y-16245908D01*
X10997429Y-16245908D02*
X11006953Y-16255431D01*
X11006953Y-16255431D02*
X11016477Y-16274479D01*
X11016477Y-16274479D02*
X11026001Y-16312574D01*
X11026001Y-16312574D02*
X11026001Y-16360193D01*
X11026001Y-16360193D02*
X11016477Y-16398288D01*
X11016477Y-16398288D02*
X11006953Y-16417336D01*
X11006953Y-16417336D02*
X10997429Y-16426860D01*
X10997429Y-16426860D02*
X10978382Y-16436384D01*
X10978382Y-16436384D02*
X10959334Y-16436384D01*
X10959334Y-16436384D02*
X10940287Y-16426860D01*
X10940287Y-16426860D02*
X10930763Y-16417336D01*
X10930763Y-16417336D02*
X10921239Y-16398288D01*
X10921239Y-16398288D02*
X10911715Y-16360193D01*
X10911715Y-16360193D02*
X10911715Y-16312574D01*
X10911715Y-16312574D02*
X10921239Y-16274479D01*
X10921239Y-16274479D02*
X10930763Y-16255431D01*
X10930763Y-16255431D02*
X10940287Y-16245908D01*
X10940287Y-16245908D02*
X10959334Y-16236384D01*
X11111715Y-16417336D02*
X11121239Y-16426860D01*
X11121239Y-16426860D02*
X11111715Y-16436384D01*
X11111715Y-16436384D02*
X11102191Y-16426860D01*
X11102191Y-16426860D02*
X11111715Y-16417336D01*
X11111715Y-16417336D02*
X11111715Y-16436384D01*
X11245048Y-16236384D02*
X11264096Y-16236384D01*
X11264096Y-16236384D02*
X11283144Y-16245908D01*
X11283144Y-16245908D02*
X11292667Y-16255431D01*
X11292667Y-16255431D02*
X11302191Y-16274479D01*
X11302191Y-16274479D02*
X11311715Y-16312574D01*
X11311715Y-16312574D02*
X11311715Y-16360193D01*
X11311715Y-16360193D02*
X11302191Y-16398288D01*
X11302191Y-16398288D02*
X11292667Y-16417336D01*
X11292667Y-16417336D02*
X11283144Y-16426860D01*
X11283144Y-16426860D02*
X11264096Y-16436384D01*
X11264096Y-16436384D02*
X11245048Y-16436384D01*
X11245048Y-16436384D02*
X11226001Y-16426860D01*
X11226001Y-16426860D02*
X11216477Y-16417336D01*
X11216477Y-16417336D02*
X11206953Y-16398288D01*
X11206953Y-16398288D02*
X11197429Y-16360193D01*
X11197429Y-16360193D02*
X11197429Y-16312574D01*
X11197429Y-16312574D02*
X11206953Y-16274479D01*
X11206953Y-16274479D02*
X11216477Y-16255431D01*
X11216477Y-16255431D02*
X11226001Y-16245908D01*
X11226001Y-16245908D02*
X11245048Y-16236384D01*
X11387906Y-16255431D02*
X11397429Y-16245908D01*
X11397429Y-16245908D02*
X11416477Y-16236384D01*
X11416477Y-16236384D02*
X11464096Y-16236384D01*
X11464096Y-16236384D02*
X11483144Y-16245908D01*
X11483144Y-16245908D02*
X11492667Y-16255431D01*
X11492667Y-16255431D02*
X11502191Y-16274479D01*
X11502191Y-16274479D02*
X11502191Y-16293527D01*
X11502191Y-16293527D02*
X11492667Y-16322098D01*
X11492667Y-16322098D02*
X11378382Y-16436384D01*
X11378382Y-16436384D02*
X11502191Y-16436384D01*
X11568858Y-16236384D02*
X11702191Y-16236384D01*
X11702191Y-16236384D02*
X11616477Y-16436384D01*
X11864096Y-16236384D02*
X11826001Y-16236384D01*
X11826001Y-16236384D02*
X11806953Y-16245908D01*
X11806953Y-16245908D02*
X11797429Y-16255431D01*
X11797429Y-16255431D02*
X11778382Y-16284003D01*
X11778382Y-16284003D02*
X11768858Y-16322098D01*
X11768858Y-16322098D02*
X11768858Y-16398288D01*
X11768858Y-16398288D02*
X11778382Y-16417336D01*
X11778382Y-16417336D02*
X11787906Y-16426860D01*
X11787906Y-16426860D02*
X11806953Y-16436384D01*
X11806953Y-16436384D02*
X11845048Y-16436384D01*
X11845048Y-16436384D02*
X11864096Y-16426860D01*
X11864096Y-16426860D02*
X11873620Y-16417336D01*
X11873620Y-16417336D02*
X11883144Y-16398288D01*
X11883144Y-16398288D02*
X11883144Y-16350669D01*
X11883144Y-16350669D02*
X11873620Y-16331622D01*
X11873620Y-16331622D02*
X11864096Y-16322098D01*
X11864096Y-16322098D02*
X11845048Y-16312574D01*
X11845048Y-16312574D02*
X11806953Y-16312574D01*
X11806953Y-16312574D02*
X11787906Y-16322098D01*
X11787906Y-16322098D02*
X11778382Y-16331622D01*
X11778382Y-16331622D02*
X11768858Y-16350669D01*
X11959334Y-16236384D02*
X11959334Y-16274479D01*
X12035525Y-16236384D02*
X12035525Y-16274479D01*
X12330763Y-16512574D02*
X12321239Y-16503050D01*
X12321239Y-16503050D02*
X12302191Y-16474479D01*
X12302191Y-16474479D02*
X12292668Y-16455431D01*
X12292668Y-16455431D02*
X12283144Y-16426860D01*
X12283144Y-16426860D02*
X12273620Y-16379241D01*
X12273620Y-16379241D02*
X12273620Y-16341146D01*
X12273620Y-16341146D02*
X12283144Y-16293527D01*
X12283144Y-16293527D02*
X12292668Y-16264955D01*
X12292668Y-16264955D02*
X12302191Y-16245908D01*
X12302191Y-16245908D02*
X12321239Y-16217336D01*
X12321239Y-16217336D02*
X12330763Y-16207812D01*
X12397429Y-16255431D02*
X12406953Y-16245908D01*
X12406953Y-16245908D02*
X12426001Y-16236384D01*
X12426001Y-16236384D02*
X12473620Y-16236384D01*
X12473620Y-16236384D02*
X12492668Y-16245908D01*
X12492668Y-16245908D02*
X12502191Y-16255431D01*
X12502191Y-16255431D02*
X12511715Y-16274479D01*
X12511715Y-16274479D02*
X12511715Y-16293527D01*
X12511715Y-16293527D02*
X12502191Y-16322098D01*
X12502191Y-16322098D02*
X12387906Y-16436384D01*
X12387906Y-16436384D02*
X12511715Y-16436384D01*
X12749810Y-16436384D02*
X12749810Y-16236384D01*
X12835525Y-16436384D02*
X12835525Y-16331622D01*
X12835525Y-16331622D02*
X12826001Y-16312574D01*
X12826001Y-16312574D02*
X12806953Y-16303050D01*
X12806953Y-16303050D02*
X12778382Y-16303050D01*
X12778382Y-16303050D02*
X12759334Y-16312574D01*
X12759334Y-16312574D02*
X12749810Y-16322098D01*
X12959334Y-16436384D02*
X12940287Y-16426860D01*
X12940287Y-16426860D02*
X12930763Y-16417336D01*
X12930763Y-16417336D02*
X12921239Y-16398288D01*
X12921239Y-16398288D02*
X12921239Y-16341146D01*
X12921239Y-16341146D02*
X12930763Y-16322098D01*
X12930763Y-16322098D02*
X12940287Y-16312574D01*
X12940287Y-16312574D02*
X12959334Y-16303050D01*
X12959334Y-16303050D02*
X12987906Y-16303050D01*
X12987906Y-16303050D02*
X13006953Y-16312574D01*
X13006953Y-16312574D02*
X13016477Y-16322098D01*
X13016477Y-16322098D02*
X13026001Y-16341146D01*
X13026001Y-16341146D02*
X13026001Y-16398288D01*
X13026001Y-16398288D02*
X13016477Y-16417336D01*
X13016477Y-16417336D02*
X13006953Y-16426860D01*
X13006953Y-16426860D02*
X12987906Y-16436384D01*
X12987906Y-16436384D02*
X12959334Y-16436384D01*
X13140287Y-16436384D02*
X13121239Y-16426860D01*
X13121239Y-16426860D02*
X13111715Y-16407812D01*
X13111715Y-16407812D02*
X13111715Y-16236384D01*
X13292668Y-16426860D02*
X13273620Y-16436384D01*
X13273620Y-16436384D02*
X13235525Y-16436384D01*
X13235525Y-16436384D02*
X13216477Y-16426860D01*
X13216477Y-16426860D02*
X13206953Y-16407812D01*
X13206953Y-16407812D02*
X13206953Y-16331622D01*
X13206953Y-16331622D02*
X13216477Y-16312574D01*
X13216477Y-16312574D02*
X13235525Y-16303050D01*
X13235525Y-16303050D02*
X13273620Y-16303050D01*
X13273620Y-16303050D02*
X13292668Y-16312574D01*
X13292668Y-16312574D02*
X13302191Y-16331622D01*
X13302191Y-16331622D02*
X13302191Y-16350669D01*
X13302191Y-16350669D02*
X13206953Y-16369717D01*
X13378382Y-16426860D02*
X13397430Y-16436384D01*
X13397430Y-16436384D02*
X13435525Y-16436384D01*
X13435525Y-16436384D02*
X13454572Y-16426860D01*
X13454572Y-16426860D02*
X13464096Y-16407812D01*
X13464096Y-16407812D02*
X13464096Y-16398288D01*
X13464096Y-16398288D02*
X13454572Y-16379241D01*
X13454572Y-16379241D02*
X13435525Y-16369717D01*
X13435525Y-16369717D02*
X13406953Y-16369717D01*
X13406953Y-16369717D02*
X13387906Y-16360193D01*
X13387906Y-16360193D02*
X13378382Y-16341146D01*
X13378382Y-16341146D02*
X13378382Y-16331622D01*
X13378382Y-16331622D02*
X13387906Y-16312574D01*
X13387906Y-16312574D02*
X13406953Y-16303050D01*
X13406953Y-16303050D02*
X13435525Y-16303050D01*
X13435525Y-16303050D02*
X13454572Y-16312574D01*
X13530763Y-16512574D02*
X13540287Y-16503050D01*
X13540287Y-16503050D02*
X13559334Y-16474479D01*
X13559334Y-16474479D02*
X13568858Y-16455431D01*
X13568858Y-16455431D02*
X13578382Y-16426860D01*
X13578382Y-16426860D02*
X13587906Y-16379241D01*
X13587906Y-16379241D02*
X13587906Y-16341146D01*
X13587906Y-16341146D02*
X13578382Y-16293527D01*
X13578382Y-16293527D02*
X13568858Y-16264955D01*
X13568858Y-16264955D02*
X13559334Y-16245908D01*
X13559334Y-16245908D02*
X13540287Y-16217336D01*
X13540287Y-16217336D02*
X13530763Y-16207812D01*
D12*
X8680700Y-16571400D02*
X8755700Y-16646400D01*
X8755700Y-16571400D02*
X8680700Y-16646400D01*
X8718200Y-16571400D02*
X8718200Y-16646400D01*
X8680700Y-16608900D02*
X8755700Y-16608900D01*
D11*
X9054572Y-16500384D02*
X9073620Y-16500384D01*
X9073620Y-16500384D02*
X9092667Y-16509908D01*
X9092667Y-16509908D02*
X9102191Y-16519431D01*
X9102191Y-16519431D02*
X9111715Y-16538479D01*
X9111715Y-16538479D02*
X9121239Y-16576574D01*
X9121239Y-16576574D02*
X9121239Y-16624193D01*
X9121239Y-16624193D02*
X9111715Y-16662288D01*
X9111715Y-16662288D02*
X9102191Y-16681336D01*
X9102191Y-16681336D02*
X9092667Y-16690860D01*
X9092667Y-16690860D02*
X9073620Y-16700384D01*
X9073620Y-16700384D02*
X9054572Y-16700384D01*
X9054572Y-16700384D02*
X9035524Y-16690860D01*
X9035524Y-16690860D02*
X9026001Y-16681336D01*
X9026001Y-16681336D02*
X9016477Y-16662288D01*
X9016477Y-16662288D02*
X9006953Y-16624193D01*
X9006953Y-16624193D02*
X9006953Y-16576574D01*
X9006953Y-16576574D02*
X9016477Y-16538479D01*
X9016477Y-16538479D02*
X9026001Y-16519431D01*
X9026001Y-16519431D02*
X9035524Y-16509908D01*
X9035524Y-16509908D02*
X9054572Y-16500384D01*
X9206953Y-16681336D02*
X9216477Y-16690860D01*
X9216477Y-16690860D02*
X9206953Y-16700384D01*
X9206953Y-16700384D02*
X9197429Y-16690860D01*
X9197429Y-16690860D02*
X9206953Y-16681336D01*
X9206953Y-16681336D02*
X9206953Y-16700384D01*
X9283144Y-16500384D02*
X9416477Y-16500384D01*
X9416477Y-16500384D02*
X9330763Y-16700384D01*
X9587905Y-16500384D02*
X9492667Y-16500384D01*
X9492667Y-16500384D02*
X9483144Y-16595622D01*
X9483144Y-16595622D02*
X9492667Y-16586098D01*
X9492667Y-16586098D02*
X9511715Y-16576574D01*
X9511715Y-16576574D02*
X9559334Y-16576574D01*
X9559334Y-16576574D02*
X9578382Y-16586098D01*
X9578382Y-16586098D02*
X9587905Y-16595622D01*
X9587905Y-16595622D02*
X9597429Y-16614669D01*
X9597429Y-16614669D02*
X9597429Y-16662288D01*
X9597429Y-16662288D02*
X9587905Y-16681336D01*
X9587905Y-16681336D02*
X9578382Y-16690860D01*
X9578382Y-16690860D02*
X9559334Y-16700384D01*
X9559334Y-16700384D02*
X9511715Y-16700384D01*
X9511715Y-16700384D02*
X9492667Y-16690860D01*
X9492667Y-16690860D02*
X9483144Y-16681336D01*
X9721239Y-16500384D02*
X9740286Y-16500384D01*
X9740286Y-16500384D02*
X9759334Y-16509908D01*
X9759334Y-16509908D02*
X9768858Y-16519431D01*
X9768858Y-16519431D02*
X9778382Y-16538479D01*
X9778382Y-16538479D02*
X9787905Y-16576574D01*
X9787905Y-16576574D02*
X9787905Y-16624193D01*
X9787905Y-16624193D02*
X9778382Y-16662288D01*
X9778382Y-16662288D02*
X9768858Y-16681336D01*
X9768858Y-16681336D02*
X9759334Y-16690860D01*
X9759334Y-16690860D02*
X9740286Y-16700384D01*
X9740286Y-16700384D02*
X9721239Y-16700384D01*
X9721239Y-16700384D02*
X9702191Y-16690860D01*
X9702191Y-16690860D02*
X9692667Y-16681336D01*
X9692667Y-16681336D02*
X9683144Y-16662288D01*
X9683144Y-16662288D02*
X9673620Y-16624193D01*
X9673620Y-16624193D02*
X9673620Y-16576574D01*
X9673620Y-16576574D02*
X9683144Y-16538479D01*
X9683144Y-16538479D02*
X9692667Y-16519431D01*
X9692667Y-16519431D02*
X9702191Y-16509908D01*
X9702191Y-16509908D02*
X9721239Y-16500384D01*
X9873620Y-16700384D02*
X9873620Y-16567050D01*
X9873620Y-16586098D02*
X9883144Y-16576574D01*
X9883144Y-16576574D02*
X9902191Y-16567050D01*
X9902191Y-16567050D02*
X9930763Y-16567050D01*
X9930763Y-16567050D02*
X9949810Y-16576574D01*
X9949810Y-16576574D02*
X9959334Y-16595622D01*
X9959334Y-16595622D02*
X9959334Y-16700384D01*
X9959334Y-16595622D02*
X9968858Y-16576574D01*
X9968858Y-16576574D02*
X9987905Y-16567050D01*
X9987905Y-16567050D02*
X10016477Y-16567050D01*
X10016477Y-16567050D02*
X10035525Y-16576574D01*
X10035525Y-16576574D02*
X10045048Y-16595622D01*
X10045048Y-16595622D02*
X10045048Y-16700384D01*
X10140286Y-16700384D02*
X10140286Y-16567050D01*
X10140286Y-16586098D02*
X10149810Y-16576574D01*
X10149810Y-16576574D02*
X10168858Y-16567050D01*
X10168858Y-16567050D02*
X10197429Y-16567050D01*
X10197429Y-16567050D02*
X10216477Y-16576574D01*
X10216477Y-16576574D02*
X10226001Y-16595622D01*
X10226001Y-16595622D02*
X10226001Y-16700384D01*
X10226001Y-16595622D02*
X10235525Y-16576574D01*
X10235525Y-16576574D02*
X10254572Y-16567050D01*
X10254572Y-16567050D02*
X10283144Y-16567050D01*
X10283144Y-16567050D02*
X10302191Y-16576574D01*
X10302191Y-16576574D02*
X10311715Y-16595622D01*
X10311715Y-16595622D02*
X10311715Y-16700384D01*
X10702191Y-16490860D02*
X10530763Y-16748003D01*
X10959334Y-16500384D02*
X10978382Y-16500384D01*
X10978382Y-16500384D02*
X10997429Y-16509908D01*
X10997429Y-16509908D02*
X11006953Y-16519431D01*
X11006953Y-16519431D02*
X11016477Y-16538479D01*
X11016477Y-16538479D02*
X11026001Y-16576574D01*
X11026001Y-16576574D02*
X11026001Y-16624193D01*
X11026001Y-16624193D02*
X11016477Y-16662288D01*
X11016477Y-16662288D02*
X11006953Y-16681336D01*
X11006953Y-16681336D02*
X10997429Y-16690860D01*
X10997429Y-16690860D02*
X10978382Y-16700384D01*
X10978382Y-16700384D02*
X10959334Y-16700384D01*
X10959334Y-16700384D02*
X10940287Y-16690860D01*
X10940287Y-16690860D02*
X10930763Y-16681336D01*
X10930763Y-16681336D02*
X10921239Y-16662288D01*
X10921239Y-16662288D02*
X10911715Y-16624193D01*
X10911715Y-16624193D02*
X10911715Y-16576574D01*
X10911715Y-16576574D02*
X10921239Y-16538479D01*
X10921239Y-16538479D02*
X10930763Y-16519431D01*
X10930763Y-16519431D02*
X10940287Y-16509908D01*
X10940287Y-16509908D02*
X10959334Y-16500384D01*
X11111715Y-16681336D02*
X11121239Y-16690860D01*
X11121239Y-16690860D02*
X11111715Y-16700384D01*
X11111715Y-16700384D02*
X11102191Y-16690860D01*
X11102191Y-16690860D02*
X11111715Y-16681336D01*
X11111715Y-16681336D02*
X11111715Y-16700384D01*
X11245048Y-16500384D02*
X11264096Y-16500384D01*
X11264096Y-16500384D02*
X11283144Y-16509908D01*
X11283144Y-16509908D02*
X11292667Y-16519431D01*
X11292667Y-16519431D02*
X11302191Y-16538479D01*
X11302191Y-16538479D02*
X11311715Y-16576574D01*
X11311715Y-16576574D02*
X11311715Y-16624193D01*
X11311715Y-16624193D02*
X11302191Y-16662288D01*
X11302191Y-16662288D02*
X11292667Y-16681336D01*
X11292667Y-16681336D02*
X11283144Y-16690860D01*
X11283144Y-16690860D02*
X11264096Y-16700384D01*
X11264096Y-16700384D02*
X11245048Y-16700384D01*
X11245048Y-16700384D02*
X11226001Y-16690860D01*
X11226001Y-16690860D02*
X11216477Y-16681336D01*
X11216477Y-16681336D02*
X11206953Y-16662288D01*
X11206953Y-16662288D02*
X11197429Y-16624193D01*
X11197429Y-16624193D02*
X11197429Y-16576574D01*
X11197429Y-16576574D02*
X11206953Y-16538479D01*
X11206953Y-16538479D02*
X11216477Y-16519431D01*
X11216477Y-16519431D02*
X11226001Y-16509908D01*
X11226001Y-16509908D02*
X11245048Y-16500384D01*
X11387906Y-16519431D02*
X11397429Y-16509908D01*
X11397429Y-16509908D02*
X11416477Y-16500384D01*
X11416477Y-16500384D02*
X11464096Y-16500384D01*
X11464096Y-16500384D02*
X11483144Y-16509908D01*
X11483144Y-16509908D02*
X11492667Y-16519431D01*
X11492667Y-16519431D02*
X11502191Y-16538479D01*
X11502191Y-16538479D02*
X11502191Y-16557527D01*
X11502191Y-16557527D02*
X11492667Y-16586098D01*
X11492667Y-16586098D02*
X11378382Y-16700384D01*
X11378382Y-16700384D02*
X11502191Y-16700384D01*
X11597429Y-16700384D02*
X11635525Y-16700384D01*
X11635525Y-16700384D02*
X11654572Y-16690860D01*
X11654572Y-16690860D02*
X11664096Y-16681336D01*
X11664096Y-16681336D02*
X11683144Y-16652765D01*
X11683144Y-16652765D02*
X11692667Y-16614669D01*
X11692667Y-16614669D02*
X11692667Y-16538479D01*
X11692667Y-16538479D02*
X11683144Y-16519431D01*
X11683144Y-16519431D02*
X11673620Y-16509908D01*
X11673620Y-16509908D02*
X11654572Y-16500384D01*
X11654572Y-16500384D02*
X11616477Y-16500384D01*
X11616477Y-16500384D02*
X11597429Y-16509908D01*
X11597429Y-16509908D02*
X11587906Y-16519431D01*
X11587906Y-16519431D02*
X11578382Y-16538479D01*
X11578382Y-16538479D02*
X11578382Y-16586098D01*
X11578382Y-16586098D02*
X11587906Y-16605146D01*
X11587906Y-16605146D02*
X11597429Y-16614669D01*
X11597429Y-16614669D02*
X11616477Y-16624193D01*
X11616477Y-16624193D02*
X11654572Y-16624193D01*
X11654572Y-16624193D02*
X11673620Y-16614669D01*
X11673620Y-16614669D02*
X11683144Y-16605146D01*
X11683144Y-16605146D02*
X11692667Y-16586098D01*
X11873620Y-16500384D02*
X11778382Y-16500384D01*
X11778382Y-16500384D02*
X11768858Y-16595622D01*
X11768858Y-16595622D02*
X11778382Y-16586098D01*
X11778382Y-16586098D02*
X11797429Y-16576574D01*
X11797429Y-16576574D02*
X11845048Y-16576574D01*
X11845048Y-16576574D02*
X11864096Y-16586098D01*
X11864096Y-16586098D02*
X11873620Y-16595622D01*
X11873620Y-16595622D02*
X11883144Y-16614669D01*
X11883144Y-16614669D02*
X11883144Y-16662288D01*
X11883144Y-16662288D02*
X11873620Y-16681336D01*
X11873620Y-16681336D02*
X11864096Y-16690860D01*
X11864096Y-16690860D02*
X11845048Y-16700384D01*
X11845048Y-16700384D02*
X11797429Y-16700384D01*
X11797429Y-16700384D02*
X11778382Y-16690860D01*
X11778382Y-16690860D02*
X11768858Y-16681336D01*
X11959334Y-16500384D02*
X11959334Y-16538479D01*
X12035525Y-16500384D02*
X12035525Y-16538479D01*
X12330763Y-16776574D02*
X12321239Y-16767050D01*
X12321239Y-16767050D02*
X12302191Y-16738479D01*
X12302191Y-16738479D02*
X12292668Y-16719431D01*
X12292668Y-16719431D02*
X12283144Y-16690860D01*
X12283144Y-16690860D02*
X12273620Y-16643241D01*
X12273620Y-16643241D02*
X12273620Y-16605146D01*
X12273620Y-16605146D02*
X12283144Y-16557527D01*
X12283144Y-16557527D02*
X12292668Y-16528955D01*
X12292668Y-16528955D02*
X12302191Y-16509908D01*
X12302191Y-16509908D02*
X12321239Y-16481336D01*
X12321239Y-16481336D02*
X12330763Y-16471812D01*
X12435525Y-16586098D02*
X12416477Y-16576574D01*
X12416477Y-16576574D02*
X12406953Y-16567050D01*
X12406953Y-16567050D02*
X12397429Y-16548003D01*
X12397429Y-16548003D02*
X12397429Y-16538479D01*
X12397429Y-16538479D02*
X12406953Y-16519431D01*
X12406953Y-16519431D02*
X12416477Y-16509908D01*
X12416477Y-16509908D02*
X12435525Y-16500384D01*
X12435525Y-16500384D02*
X12473620Y-16500384D01*
X12473620Y-16500384D02*
X12492668Y-16509908D01*
X12492668Y-16509908D02*
X12502191Y-16519431D01*
X12502191Y-16519431D02*
X12511715Y-16538479D01*
X12511715Y-16538479D02*
X12511715Y-16548003D01*
X12511715Y-16548003D02*
X12502191Y-16567050D01*
X12502191Y-16567050D02*
X12492668Y-16576574D01*
X12492668Y-16576574D02*
X12473620Y-16586098D01*
X12473620Y-16586098D02*
X12435525Y-16586098D01*
X12435525Y-16586098D02*
X12416477Y-16595622D01*
X12416477Y-16595622D02*
X12406953Y-16605146D01*
X12406953Y-16605146D02*
X12397429Y-16624193D01*
X12397429Y-16624193D02*
X12397429Y-16662288D01*
X12397429Y-16662288D02*
X12406953Y-16681336D01*
X12406953Y-16681336D02*
X12416477Y-16690860D01*
X12416477Y-16690860D02*
X12435525Y-16700384D01*
X12435525Y-16700384D02*
X12473620Y-16700384D01*
X12473620Y-16700384D02*
X12492668Y-16690860D01*
X12492668Y-16690860D02*
X12502191Y-16681336D01*
X12502191Y-16681336D02*
X12511715Y-16662288D01*
X12511715Y-16662288D02*
X12511715Y-16624193D01*
X12511715Y-16624193D02*
X12502191Y-16605146D01*
X12502191Y-16605146D02*
X12492668Y-16595622D01*
X12492668Y-16595622D02*
X12473620Y-16586098D01*
X12702191Y-16700384D02*
X12587906Y-16700384D01*
X12645048Y-16700384D02*
X12645048Y-16500384D01*
X12645048Y-16500384D02*
X12626001Y-16528955D01*
X12626001Y-16528955D02*
X12606953Y-16548003D01*
X12606953Y-16548003D02*
X12587906Y-16557527D01*
X12940287Y-16700384D02*
X12940287Y-16500384D01*
X13026001Y-16700384D02*
X13026001Y-16595622D01*
X13026001Y-16595622D02*
X13016477Y-16576574D01*
X13016477Y-16576574D02*
X12997430Y-16567050D01*
X12997430Y-16567050D02*
X12968858Y-16567050D01*
X12968858Y-16567050D02*
X12949810Y-16576574D01*
X12949810Y-16576574D02*
X12940287Y-16586098D01*
X13149810Y-16700384D02*
X13130763Y-16690860D01*
X13130763Y-16690860D02*
X13121239Y-16681336D01*
X13121239Y-16681336D02*
X13111715Y-16662288D01*
X13111715Y-16662288D02*
X13111715Y-16605146D01*
X13111715Y-16605146D02*
X13121239Y-16586098D01*
X13121239Y-16586098D02*
X13130763Y-16576574D01*
X13130763Y-16576574D02*
X13149810Y-16567050D01*
X13149810Y-16567050D02*
X13178382Y-16567050D01*
X13178382Y-16567050D02*
X13197430Y-16576574D01*
X13197430Y-16576574D02*
X13206953Y-16586098D01*
X13206953Y-16586098D02*
X13216477Y-16605146D01*
X13216477Y-16605146D02*
X13216477Y-16662288D01*
X13216477Y-16662288D02*
X13206953Y-16681336D01*
X13206953Y-16681336D02*
X13197430Y-16690860D01*
X13197430Y-16690860D02*
X13178382Y-16700384D01*
X13178382Y-16700384D02*
X13149810Y-16700384D01*
X13330763Y-16700384D02*
X13311715Y-16690860D01*
X13311715Y-16690860D02*
X13302191Y-16671812D01*
X13302191Y-16671812D02*
X13302191Y-16500384D01*
X13483144Y-16690860D02*
X13464096Y-16700384D01*
X13464096Y-16700384D02*
X13426001Y-16700384D01*
X13426001Y-16700384D02*
X13406953Y-16690860D01*
X13406953Y-16690860D02*
X13397430Y-16671812D01*
X13397430Y-16671812D02*
X13397430Y-16595622D01*
X13397430Y-16595622D02*
X13406953Y-16576574D01*
X13406953Y-16576574D02*
X13426001Y-16567050D01*
X13426001Y-16567050D02*
X13464096Y-16567050D01*
X13464096Y-16567050D02*
X13483144Y-16576574D01*
X13483144Y-16576574D02*
X13492668Y-16595622D01*
X13492668Y-16595622D02*
X13492668Y-16614669D01*
X13492668Y-16614669D02*
X13397430Y-16633717D01*
X13568858Y-16690860D02*
X13587906Y-16700384D01*
X13587906Y-16700384D02*
X13626001Y-16700384D01*
X13626001Y-16700384D02*
X13645049Y-16690860D01*
X13645049Y-16690860D02*
X13654572Y-16671812D01*
X13654572Y-16671812D02*
X13654572Y-16662288D01*
X13654572Y-16662288D02*
X13645049Y-16643241D01*
X13645049Y-16643241D02*
X13626001Y-16633717D01*
X13626001Y-16633717D02*
X13597430Y-16633717D01*
X13597430Y-16633717D02*
X13578382Y-16624193D01*
X13578382Y-16624193D02*
X13568858Y-16605146D01*
X13568858Y-16605146D02*
X13568858Y-16595622D01*
X13568858Y-16595622D02*
X13578382Y-16576574D01*
X13578382Y-16576574D02*
X13597430Y-16567050D01*
X13597430Y-16567050D02*
X13626001Y-16567050D01*
X13626001Y-16567050D02*
X13645049Y-16576574D01*
X13721239Y-16776574D02*
X13730763Y-16767050D01*
X13730763Y-16767050D02*
X13749811Y-16738479D01*
X13749811Y-16738479D02*
X13759334Y-16719431D01*
X13759334Y-16719431D02*
X13768858Y-16690860D01*
X13768858Y-16690860D02*
X13778382Y-16643241D01*
X13778382Y-16643241D02*
X13778382Y-16605146D01*
X13778382Y-16605146D02*
X13768858Y-16557527D01*
X13768858Y-16557527D02*
X13759334Y-16528955D01*
X13759334Y-16528955D02*
X13749811Y-16509908D01*
X13749811Y-16509908D02*
X13730763Y-16481336D01*
X13730763Y-16481336D02*
X13721239Y-16471812D01*
D12*
X8655700Y-16822900D02*
X8755700Y-16922900D01*
X8755700Y-16822900D02*
X8655700Y-16922900D01*
X8741056Y-16908256D02*
X8741056Y-16837544D01*
X8670344Y-16837544D01*
X8670344Y-16908256D01*
X8741056Y-16908256D01*
D11*
X9121239Y-16964384D02*
X9006953Y-16964384D01*
X9064096Y-16964384D02*
X9064096Y-16764384D01*
X9064096Y-16764384D02*
X9045048Y-16792955D01*
X9045048Y-16792955D02*
X9026001Y-16812003D01*
X9026001Y-16812003D02*
X9006953Y-16821527D01*
X9206953Y-16945336D02*
X9216477Y-16954860D01*
X9216477Y-16954860D02*
X9206953Y-16964384D01*
X9206953Y-16964384D02*
X9197429Y-16954860D01*
X9197429Y-16954860D02*
X9206953Y-16945336D01*
X9206953Y-16945336D02*
X9206953Y-16964384D01*
X9340286Y-16764384D02*
X9359334Y-16764384D01*
X9359334Y-16764384D02*
X9378382Y-16773908D01*
X9378382Y-16773908D02*
X9387905Y-16783431D01*
X9387905Y-16783431D02*
X9397429Y-16802479D01*
X9397429Y-16802479D02*
X9406953Y-16840574D01*
X9406953Y-16840574D02*
X9406953Y-16888193D01*
X9406953Y-16888193D02*
X9397429Y-16926289D01*
X9397429Y-16926289D02*
X9387905Y-16945336D01*
X9387905Y-16945336D02*
X9378382Y-16954860D01*
X9378382Y-16954860D02*
X9359334Y-16964384D01*
X9359334Y-16964384D02*
X9340286Y-16964384D01*
X9340286Y-16964384D02*
X9321239Y-16954860D01*
X9321239Y-16954860D02*
X9311715Y-16945336D01*
X9311715Y-16945336D02*
X9302191Y-16926289D01*
X9302191Y-16926289D02*
X9292667Y-16888193D01*
X9292667Y-16888193D02*
X9292667Y-16840574D01*
X9292667Y-16840574D02*
X9302191Y-16802479D01*
X9302191Y-16802479D02*
X9311715Y-16783431D01*
X9311715Y-16783431D02*
X9321239Y-16773908D01*
X9321239Y-16773908D02*
X9340286Y-16764384D01*
X9530763Y-16764384D02*
X9549810Y-16764384D01*
X9549810Y-16764384D02*
X9568858Y-16773908D01*
X9568858Y-16773908D02*
X9578382Y-16783431D01*
X9578382Y-16783431D02*
X9587905Y-16802479D01*
X9587905Y-16802479D02*
X9597429Y-16840574D01*
X9597429Y-16840574D02*
X9597429Y-16888193D01*
X9597429Y-16888193D02*
X9587905Y-16926289D01*
X9587905Y-16926289D02*
X9578382Y-16945336D01*
X9578382Y-16945336D02*
X9568858Y-16954860D01*
X9568858Y-16954860D02*
X9549810Y-16964384D01*
X9549810Y-16964384D02*
X9530763Y-16964384D01*
X9530763Y-16964384D02*
X9511715Y-16954860D01*
X9511715Y-16954860D02*
X9502191Y-16945336D01*
X9502191Y-16945336D02*
X9492667Y-16926289D01*
X9492667Y-16926289D02*
X9483144Y-16888193D01*
X9483144Y-16888193D02*
X9483144Y-16840574D01*
X9483144Y-16840574D02*
X9492667Y-16802479D01*
X9492667Y-16802479D02*
X9502191Y-16783431D01*
X9502191Y-16783431D02*
X9511715Y-16773908D01*
X9511715Y-16773908D02*
X9530763Y-16764384D01*
X9721239Y-16764384D02*
X9740286Y-16764384D01*
X9740286Y-16764384D02*
X9759334Y-16773908D01*
X9759334Y-16773908D02*
X9768858Y-16783431D01*
X9768858Y-16783431D02*
X9778382Y-16802479D01*
X9778382Y-16802479D02*
X9787905Y-16840574D01*
X9787905Y-16840574D02*
X9787905Y-16888193D01*
X9787905Y-16888193D02*
X9778382Y-16926289D01*
X9778382Y-16926289D02*
X9768858Y-16945336D01*
X9768858Y-16945336D02*
X9759334Y-16954860D01*
X9759334Y-16954860D02*
X9740286Y-16964384D01*
X9740286Y-16964384D02*
X9721239Y-16964384D01*
X9721239Y-16964384D02*
X9702191Y-16954860D01*
X9702191Y-16954860D02*
X9692667Y-16945336D01*
X9692667Y-16945336D02*
X9683144Y-16926289D01*
X9683144Y-16926289D02*
X9673620Y-16888193D01*
X9673620Y-16888193D02*
X9673620Y-16840574D01*
X9673620Y-16840574D02*
X9683144Y-16802479D01*
X9683144Y-16802479D02*
X9692667Y-16783431D01*
X9692667Y-16783431D02*
X9702191Y-16773908D01*
X9702191Y-16773908D02*
X9721239Y-16764384D01*
X9873620Y-16964384D02*
X9873620Y-16831050D01*
X9873620Y-16850098D02*
X9883144Y-16840574D01*
X9883144Y-16840574D02*
X9902191Y-16831050D01*
X9902191Y-16831050D02*
X9930763Y-16831050D01*
X9930763Y-16831050D02*
X9949810Y-16840574D01*
X9949810Y-16840574D02*
X9959334Y-16859622D01*
X9959334Y-16859622D02*
X9959334Y-16964384D01*
X9959334Y-16859622D02*
X9968858Y-16840574D01*
X9968858Y-16840574D02*
X9987905Y-16831050D01*
X9987905Y-16831050D02*
X10016477Y-16831050D01*
X10016477Y-16831050D02*
X10035525Y-16840574D01*
X10035525Y-16840574D02*
X10045048Y-16859622D01*
X10045048Y-16859622D02*
X10045048Y-16964384D01*
X10140286Y-16964384D02*
X10140286Y-16831050D01*
X10140286Y-16850098D02*
X10149810Y-16840574D01*
X10149810Y-16840574D02*
X10168858Y-16831050D01*
X10168858Y-16831050D02*
X10197429Y-16831050D01*
X10197429Y-16831050D02*
X10216477Y-16840574D01*
X10216477Y-16840574D02*
X10226001Y-16859622D01*
X10226001Y-16859622D02*
X10226001Y-16964384D01*
X10226001Y-16859622D02*
X10235525Y-16840574D01*
X10235525Y-16840574D02*
X10254572Y-16831050D01*
X10254572Y-16831050D02*
X10283144Y-16831050D01*
X10283144Y-16831050D02*
X10302191Y-16840574D01*
X10302191Y-16840574D02*
X10311715Y-16859622D01*
X10311715Y-16859622D02*
X10311715Y-16964384D01*
X10702191Y-16754860D02*
X10530763Y-17012003D01*
X10959334Y-16764384D02*
X10978382Y-16764384D01*
X10978382Y-16764384D02*
X10997429Y-16773908D01*
X10997429Y-16773908D02*
X11006953Y-16783431D01*
X11006953Y-16783431D02*
X11016477Y-16802479D01*
X11016477Y-16802479D02*
X11026001Y-16840574D01*
X11026001Y-16840574D02*
X11026001Y-16888193D01*
X11026001Y-16888193D02*
X11016477Y-16926289D01*
X11016477Y-16926289D02*
X11006953Y-16945336D01*
X11006953Y-16945336D02*
X10997429Y-16954860D01*
X10997429Y-16954860D02*
X10978382Y-16964384D01*
X10978382Y-16964384D02*
X10959334Y-16964384D01*
X10959334Y-16964384D02*
X10940287Y-16954860D01*
X10940287Y-16954860D02*
X10930763Y-16945336D01*
X10930763Y-16945336D02*
X10921239Y-16926289D01*
X10921239Y-16926289D02*
X10911715Y-16888193D01*
X10911715Y-16888193D02*
X10911715Y-16840574D01*
X10911715Y-16840574D02*
X10921239Y-16802479D01*
X10921239Y-16802479D02*
X10930763Y-16783431D01*
X10930763Y-16783431D02*
X10940287Y-16773908D01*
X10940287Y-16773908D02*
X10959334Y-16764384D01*
X11111715Y-16945336D02*
X11121239Y-16954860D01*
X11121239Y-16954860D02*
X11111715Y-16964384D01*
X11111715Y-16964384D02*
X11102191Y-16954860D01*
X11102191Y-16954860D02*
X11111715Y-16945336D01*
X11111715Y-16945336D02*
X11111715Y-16964384D01*
X11245048Y-16764384D02*
X11264096Y-16764384D01*
X11264096Y-16764384D02*
X11283144Y-16773908D01*
X11283144Y-16773908D02*
X11292667Y-16783431D01*
X11292667Y-16783431D02*
X11302191Y-16802479D01*
X11302191Y-16802479D02*
X11311715Y-16840574D01*
X11311715Y-16840574D02*
X11311715Y-16888193D01*
X11311715Y-16888193D02*
X11302191Y-16926289D01*
X11302191Y-16926289D02*
X11292667Y-16945336D01*
X11292667Y-16945336D02*
X11283144Y-16954860D01*
X11283144Y-16954860D02*
X11264096Y-16964384D01*
X11264096Y-16964384D02*
X11245048Y-16964384D01*
X11245048Y-16964384D02*
X11226001Y-16954860D01*
X11226001Y-16954860D02*
X11216477Y-16945336D01*
X11216477Y-16945336D02*
X11206953Y-16926289D01*
X11206953Y-16926289D02*
X11197429Y-16888193D01*
X11197429Y-16888193D02*
X11197429Y-16840574D01*
X11197429Y-16840574D02*
X11206953Y-16802479D01*
X11206953Y-16802479D02*
X11216477Y-16783431D01*
X11216477Y-16783431D02*
X11226001Y-16773908D01*
X11226001Y-16773908D02*
X11245048Y-16764384D01*
X11378382Y-16764384D02*
X11502191Y-16764384D01*
X11502191Y-16764384D02*
X11435525Y-16840574D01*
X11435525Y-16840574D02*
X11464096Y-16840574D01*
X11464096Y-16840574D02*
X11483144Y-16850098D01*
X11483144Y-16850098D02*
X11492667Y-16859622D01*
X11492667Y-16859622D02*
X11502191Y-16878670D01*
X11502191Y-16878670D02*
X11502191Y-16926289D01*
X11502191Y-16926289D02*
X11492667Y-16945336D01*
X11492667Y-16945336D02*
X11483144Y-16954860D01*
X11483144Y-16954860D02*
X11464096Y-16964384D01*
X11464096Y-16964384D02*
X11406953Y-16964384D01*
X11406953Y-16964384D02*
X11387906Y-16954860D01*
X11387906Y-16954860D02*
X11378382Y-16945336D01*
X11597429Y-16964384D02*
X11635525Y-16964384D01*
X11635525Y-16964384D02*
X11654572Y-16954860D01*
X11654572Y-16954860D02*
X11664096Y-16945336D01*
X11664096Y-16945336D02*
X11683144Y-16916765D01*
X11683144Y-16916765D02*
X11692667Y-16878670D01*
X11692667Y-16878670D02*
X11692667Y-16802479D01*
X11692667Y-16802479D02*
X11683144Y-16783431D01*
X11683144Y-16783431D02*
X11673620Y-16773908D01*
X11673620Y-16773908D02*
X11654572Y-16764384D01*
X11654572Y-16764384D02*
X11616477Y-16764384D01*
X11616477Y-16764384D02*
X11597429Y-16773908D01*
X11597429Y-16773908D02*
X11587906Y-16783431D01*
X11587906Y-16783431D02*
X11578382Y-16802479D01*
X11578382Y-16802479D02*
X11578382Y-16850098D01*
X11578382Y-16850098D02*
X11587906Y-16869146D01*
X11587906Y-16869146D02*
X11597429Y-16878670D01*
X11597429Y-16878670D02*
X11616477Y-16888193D01*
X11616477Y-16888193D02*
X11654572Y-16888193D01*
X11654572Y-16888193D02*
X11673620Y-16878670D01*
X11673620Y-16878670D02*
X11683144Y-16869146D01*
X11683144Y-16869146D02*
X11692667Y-16850098D01*
X11864096Y-16831050D02*
X11864096Y-16964384D01*
X11816477Y-16754860D02*
X11768858Y-16897717D01*
X11768858Y-16897717D02*
X11892667Y-16897717D01*
X11959334Y-16764384D02*
X11959334Y-16802479D01*
X12035525Y-16764384D02*
X12035525Y-16802479D01*
X12330763Y-17040574D02*
X12321239Y-17031050D01*
X12321239Y-17031050D02*
X12302191Y-17002479D01*
X12302191Y-17002479D02*
X12292668Y-16983431D01*
X12292668Y-16983431D02*
X12283144Y-16954860D01*
X12283144Y-16954860D02*
X12273620Y-16907241D01*
X12273620Y-16907241D02*
X12273620Y-16869146D01*
X12273620Y-16869146D02*
X12283144Y-16821527D01*
X12283144Y-16821527D02*
X12292668Y-16792955D01*
X12292668Y-16792955D02*
X12302191Y-16773908D01*
X12302191Y-16773908D02*
X12321239Y-16745336D01*
X12321239Y-16745336D02*
X12330763Y-16735812D01*
X12397429Y-16783431D02*
X12406953Y-16773908D01*
X12406953Y-16773908D02*
X12426001Y-16764384D01*
X12426001Y-16764384D02*
X12473620Y-16764384D01*
X12473620Y-16764384D02*
X12492668Y-16773908D01*
X12492668Y-16773908D02*
X12502191Y-16783431D01*
X12502191Y-16783431D02*
X12511715Y-16802479D01*
X12511715Y-16802479D02*
X12511715Y-16821527D01*
X12511715Y-16821527D02*
X12502191Y-16850098D01*
X12502191Y-16850098D02*
X12387906Y-16964384D01*
X12387906Y-16964384D02*
X12511715Y-16964384D01*
X12683144Y-16831050D02*
X12683144Y-16964384D01*
X12635525Y-16754860D02*
X12587906Y-16897717D01*
X12587906Y-16897717D02*
X12711715Y-16897717D01*
X12940287Y-16964384D02*
X12940287Y-16764384D01*
X13026001Y-16964384D02*
X13026001Y-16859622D01*
X13026001Y-16859622D02*
X13016477Y-16840574D01*
X13016477Y-16840574D02*
X12997430Y-16831050D01*
X12997430Y-16831050D02*
X12968858Y-16831050D01*
X12968858Y-16831050D02*
X12949810Y-16840574D01*
X12949810Y-16840574D02*
X12940287Y-16850098D01*
X13149810Y-16964384D02*
X13130763Y-16954860D01*
X13130763Y-16954860D02*
X13121239Y-16945336D01*
X13121239Y-16945336D02*
X13111715Y-16926289D01*
X13111715Y-16926289D02*
X13111715Y-16869146D01*
X13111715Y-16869146D02*
X13121239Y-16850098D01*
X13121239Y-16850098D02*
X13130763Y-16840574D01*
X13130763Y-16840574D02*
X13149810Y-16831050D01*
X13149810Y-16831050D02*
X13178382Y-16831050D01*
X13178382Y-16831050D02*
X13197430Y-16840574D01*
X13197430Y-16840574D02*
X13206953Y-16850098D01*
X13206953Y-16850098D02*
X13216477Y-16869146D01*
X13216477Y-16869146D02*
X13216477Y-16926289D01*
X13216477Y-16926289D02*
X13206953Y-16945336D01*
X13206953Y-16945336D02*
X13197430Y-16954860D01*
X13197430Y-16954860D02*
X13178382Y-16964384D01*
X13178382Y-16964384D02*
X13149810Y-16964384D01*
X13330763Y-16964384D02*
X13311715Y-16954860D01*
X13311715Y-16954860D02*
X13302191Y-16935812D01*
X13302191Y-16935812D02*
X13302191Y-16764384D01*
X13483144Y-16954860D02*
X13464096Y-16964384D01*
X13464096Y-16964384D02*
X13426001Y-16964384D01*
X13426001Y-16964384D02*
X13406953Y-16954860D01*
X13406953Y-16954860D02*
X13397430Y-16935812D01*
X13397430Y-16935812D02*
X13397430Y-16859622D01*
X13397430Y-16859622D02*
X13406953Y-16840574D01*
X13406953Y-16840574D02*
X13426001Y-16831050D01*
X13426001Y-16831050D02*
X13464096Y-16831050D01*
X13464096Y-16831050D02*
X13483144Y-16840574D01*
X13483144Y-16840574D02*
X13492668Y-16859622D01*
X13492668Y-16859622D02*
X13492668Y-16878670D01*
X13492668Y-16878670D02*
X13397430Y-16897717D01*
X13568858Y-16954860D02*
X13587906Y-16964384D01*
X13587906Y-16964384D02*
X13626001Y-16964384D01*
X13626001Y-16964384D02*
X13645049Y-16954860D01*
X13645049Y-16954860D02*
X13654572Y-16935812D01*
X13654572Y-16935812D02*
X13654572Y-16926289D01*
X13654572Y-16926289D02*
X13645049Y-16907241D01*
X13645049Y-16907241D02*
X13626001Y-16897717D01*
X13626001Y-16897717D02*
X13597430Y-16897717D01*
X13597430Y-16897717D02*
X13578382Y-16888193D01*
X13578382Y-16888193D02*
X13568858Y-16869146D01*
X13568858Y-16869146D02*
X13568858Y-16859622D01*
X13568858Y-16859622D02*
X13578382Y-16840574D01*
X13578382Y-16840574D02*
X13597430Y-16831050D01*
X13597430Y-16831050D02*
X13626001Y-16831050D01*
X13626001Y-16831050D02*
X13645049Y-16840574D01*
X13721239Y-17040574D02*
X13730763Y-17031050D01*
X13730763Y-17031050D02*
X13749811Y-17002479D01*
X13749811Y-17002479D02*
X13759334Y-16983431D01*
X13759334Y-16983431D02*
X13768858Y-16954860D01*
X13768858Y-16954860D02*
X13778382Y-16907241D01*
X13778382Y-16907241D02*
X13778382Y-16869146D01*
X13778382Y-16869146D02*
X13768858Y-16821527D01*
X13768858Y-16821527D02*
X13759334Y-16792955D01*
X13759334Y-16792955D02*
X13749811Y-16773908D01*
X13749811Y-16773908D02*
X13730763Y-16745336D01*
X13730763Y-16745336D02*
X13721239Y-16735812D01*
D13*
X8653700Y-17085900D02*
X8755700Y-17187900D01*
X8755700Y-17085900D02*
X8653700Y-17187900D01*
X8704700Y-17187900D02*
X8755700Y-17136900D01*
X8704700Y-17085900D01*
X8653700Y-17136900D01*
X8704700Y-17187900D01*
D11*
X9121239Y-17228384D02*
X9006953Y-17228384D01*
X9064096Y-17228384D02*
X9064096Y-17028384D01*
X9064096Y-17028384D02*
X9045048Y-17056955D01*
X9045048Y-17056955D02*
X9026001Y-17076003D01*
X9026001Y-17076003D02*
X9006953Y-17085527D01*
X9206953Y-17209336D02*
X9216477Y-17218860D01*
X9216477Y-17218860D02*
X9206953Y-17228384D01*
X9206953Y-17228384D02*
X9197429Y-17218860D01*
X9197429Y-17218860D02*
X9206953Y-17209336D01*
X9206953Y-17209336D02*
X9206953Y-17228384D01*
X9340286Y-17028384D02*
X9359334Y-17028384D01*
X9359334Y-17028384D02*
X9378382Y-17037908D01*
X9378382Y-17037908D02*
X9387905Y-17047431D01*
X9387905Y-17047431D02*
X9397429Y-17066479D01*
X9397429Y-17066479D02*
X9406953Y-17104574D01*
X9406953Y-17104574D02*
X9406953Y-17152193D01*
X9406953Y-17152193D02*
X9397429Y-17190289D01*
X9397429Y-17190289D02*
X9387905Y-17209336D01*
X9387905Y-17209336D02*
X9378382Y-17218860D01*
X9378382Y-17218860D02*
X9359334Y-17228384D01*
X9359334Y-17228384D02*
X9340286Y-17228384D01*
X9340286Y-17228384D02*
X9321239Y-17218860D01*
X9321239Y-17218860D02*
X9311715Y-17209336D01*
X9311715Y-17209336D02*
X9302191Y-17190289D01*
X9302191Y-17190289D02*
X9292667Y-17152193D01*
X9292667Y-17152193D02*
X9292667Y-17104574D01*
X9292667Y-17104574D02*
X9302191Y-17066479D01*
X9302191Y-17066479D02*
X9311715Y-17047431D01*
X9311715Y-17047431D02*
X9321239Y-17037908D01*
X9321239Y-17037908D02*
X9340286Y-17028384D01*
X9483144Y-17047431D02*
X9492667Y-17037908D01*
X9492667Y-17037908D02*
X9511715Y-17028384D01*
X9511715Y-17028384D02*
X9559334Y-17028384D01*
X9559334Y-17028384D02*
X9578382Y-17037908D01*
X9578382Y-17037908D02*
X9587905Y-17047431D01*
X9587905Y-17047431D02*
X9597429Y-17066479D01*
X9597429Y-17066479D02*
X9597429Y-17085527D01*
X9597429Y-17085527D02*
X9587905Y-17114098D01*
X9587905Y-17114098D02*
X9473620Y-17228384D01*
X9473620Y-17228384D02*
X9597429Y-17228384D01*
X9721239Y-17028384D02*
X9740286Y-17028384D01*
X9740286Y-17028384D02*
X9759334Y-17037908D01*
X9759334Y-17037908D02*
X9768858Y-17047431D01*
X9768858Y-17047431D02*
X9778382Y-17066479D01*
X9778382Y-17066479D02*
X9787905Y-17104574D01*
X9787905Y-17104574D02*
X9787905Y-17152193D01*
X9787905Y-17152193D02*
X9778382Y-17190289D01*
X9778382Y-17190289D02*
X9768858Y-17209336D01*
X9768858Y-17209336D02*
X9759334Y-17218860D01*
X9759334Y-17218860D02*
X9740286Y-17228384D01*
X9740286Y-17228384D02*
X9721239Y-17228384D01*
X9721239Y-17228384D02*
X9702191Y-17218860D01*
X9702191Y-17218860D02*
X9692667Y-17209336D01*
X9692667Y-17209336D02*
X9683144Y-17190289D01*
X9683144Y-17190289D02*
X9673620Y-17152193D01*
X9673620Y-17152193D02*
X9673620Y-17104574D01*
X9673620Y-17104574D02*
X9683144Y-17066479D01*
X9683144Y-17066479D02*
X9692667Y-17047431D01*
X9692667Y-17047431D02*
X9702191Y-17037908D01*
X9702191Y-17037908D02*
X9721239Y-17028384D01*
X9873620Y-17228384D02*
X9873620Y-17095050D01*
X9873620Y-17114098D02*
X9883144Y-17104574D01*
X9883144Y-17104574D02*
X9902191Y-17095050D01*
X9902191Y-17095050D02*
X9930763Y-17095050D01*
X9930763Y-17095050D02*
X9949810Y-17104574D01*
X9949810Y-17104574D02*
X9959334Y-17123622D01*
X9959334Y-17123622D02*
X9959334Y-17228384D01*
X9959334Y-17123622D02*
X9968858Y-17104574D01*
X9968858Y-17104574D02*
X9987905Y-17095050D01*
X9987905Y-17095050D02*
X10016477Y-17095050D01*
X10016477Y-17095050D02*
X10035525Y-17104574D01*
X10035525Y-17104574D02*
X10045048Y-17123622D01*
X10045048Y-17123622D02*
X10045048Y-17228384D01*
X10140286Y-17228384D02*
X10140286Y-17095050D01*
X10140286Y-17114098D02*
X10149810Y-17104574D01*
X10149810Y-17104574D02*
X10168858Y-17095050D01*
X10168858Y-17095050D02*
X10197429Y-17095050D01*
X10197429Y-17095050D02*
X10216477Y-17104574D01*
X10216477Y-17104574D02*
X10226001Y-17123622D01*
X10226001Y-17123622D02*
X10226001Y-17228384D01*
X10226001Y-17123622D02*
X10235525Y-17104574D01*
X10235525Y-17104574D02*
X10254572Y-17095050D01*
X10254572Y-17095050D02*
X10283144Y-17095050D01*
X10283144Y-17095050D02*
X10302191Y-17104574D01*
X10302191Y-17104574D02*
X10311715Y-17123622D01*
X10311715Y-17123622D02*
X10311715Y-17228384D01*
X10702191Y-17018860D02*
X10530763Y-17276003D01*
X10959334Y-17028384D02*
X10978382Y-17028384D01*
X10978382Y-17028384D02*
X10997429Y-17037908D01*
X10997429Y-17037908D02*
X11006953Y-17047431D01*
X11006953Y-17047431D02*
X11016477Y-17066479D01*
X11016477Y-17066479D02*
X11026001Y-17104574D01*
X11026001Y-17104574D02*
X11026001Y-17152193D01*
X11026001Y-17152193D02*
X11016477Y-17190289D01*
X11016477Y-17190289D02*
X11006953Y-17209336D01*
X11006953Y-17209336D02*
X10997429Y-17218860D01*
X10997429Y-17218860D02*
X10978382Y-17228384D01*
X10978382Y-17228384D02*
X10959334Y-17228384D01*
X10959334Y-17228384D02*
X10940287Y-17218860D01*
X10940287Y-17218860D02*
X10930763Y-17209336D01*
X10930763Y-17209336D02*
X10921239Y-17190289D01*
X10921239Y-17190289D02*
X10911715Y-17152193D01*
X10911715Y-17152193D02*
X10911715Y-17104574D01*
X10911715Y-17104574D02*
X10921239Y-17066479D01*
X10921239Y-17066479D02*
X10930763Y-17047431D01*
X10930763Y-17047431D02*
X10940287Y-17037908D01*
X10940287Y-17037908D02*
X10959334Y-17028384D01*
X11111715Y-17209336D02*
X11121239Y-17218860D01*
X11121239Y-17218860D02*
X11111715Y-17228384D01*
X11111715Y-17228384D02*
X11102191Y-17218860D01*
X11102191Y-17218860D02*
X11111715Y-17209336D01*
X11111715Y-17209336D02*
X11111715Y-17228384D01*
X11245048Y-17028384D02*
X11264096Y-17028384D01*
X11264096Y-17028384D02*
X11283144Y-17037908D01*
X11283144Y-17037908D02*
X11292667Y-17047431D01*
X11292667Y-17047431D02*
X11302191Y-17066479D01*
X11302191Y-17066479D02*
X11311715Y-17104574D01*
X11311715Y-17104574D02*
X11311715Y-17152193D01*
X11311715Y-17152193D02*
X11302191Y-17190289D01*
X11302191Y-17190289D02*
X11292667Y-17209336D01*
X11292667Y-17209336D02*
X11283144Y-17218860D01*
X11283144Y-17218860D02*
X11264096Y-17228384D01*
X11264096Y-17228384D02*
X11245048Y-17228384D01*
X11245048Y-17228384D02*
X11226001Y-17218860D01*
X11226001Y-17218860D02*
X11216477Y-17209336D01*
X11216477Y-17209336D02*
X11206953Y-17190289D01*
X11206953Y-17190289D02*
X11197429Y-17152193D01*
X11197429Y-17152193D02*
X11197429Y-17104574D01*
X11197429Y-17104574D02*
X11206953Y-17066479D01*
X11206953Y-17066479D02*
X11216477Y-17047431D01*
X11216477Y-17047431D02*
X11226001Y-17037908D01*
X11226001Y-17037908D02*
X11245048Y-17028384D01*
X11483144Y-17095050D02*
X11483144Y-17228384D01*
X11435525Y-17018860D02*
X11387906Y-17161717D01*
X11387906Y-17161717D02*
X11511715Y-17161717D01*
X11626001Y-17028384D02*
X11645048Y-17028384D01*
X11645048Y-17028384D02*
X11664096Y-17037908D01*
X11664096Y-17037908D02*
X11673620Y-17047431D01*
X11673620Y-17047431D02*
X11683144Y-17066479D01*
X11683144Y-17066479D02*
X11692667Y-17104574D01*
X11692667Y-17104574D02*
X11692667Y-17152193D01*
X11692667Y-17152193D02*
X11683144Y-17190289D01*
X11683144Y-17190289D02*
X11673620Y-17209336D01*
X11673620Y-17209336D02*
X11664096Y-17218860D01*
X11664096Y-17218860D02*
X11645048Y-17228384D01*
X11645048Y-17228384D02*
X11626001Y-17228384D01*
X11626001Y-17228384D02*
X11606953Y-17218860D01*
X11606953Y-17218860D02*
X11597429Y-17209336D01*
X11597429Y-17209336D02*
X11587906Y-17190289D01*
X11587906Y-17190289D02*
X11578382Y-17152193D01*
X11578382Y-17152193D02*
X11578382Y-17104574D01*
X11578382Y-17104574D02*
X11587906Y-17066479D01*
X11587906Y-17066479D02*
X11597429Y-17047431D01*
X11597429Y-17047431D02*
X11606953Y-17037908D01*
X11606953Y-17037908D02*
X11626001Y-17028384D01*
X11768858Y-17047431D02*
X11778382Y-17037908D01*
X11778382Y-17037908D02*
X11797429Y-17028384D01*
X11797429Y-17028384D02*
X11845048Y-17028384D01*
X11845048Y-17028384D02*
X11864096Y-17037908D01*
X11864096Y-17037908D02*
X11873620Y-17047431D01*
X11873620Y-17047431D02*
X11883144Y-17066479D01*
X11883144Y-17066479D02*
X11883144Y-17085527D01*
X11883144Y-17085527D02*
X11873620Y-17114098D01*
X11873620Y-17114098D02*
X11759334Y-17228384D01*
X11759334Y-17228384D02*
X11883144Y-17228384D01*
X11959334Y-17028384D02*
X11959334Y-17066479D01*
X12035525Y-17028384D02*
X12035525Y-17066479D01*
X12330763Y-17304574D02*
X12321239Y-17295050D01*
X12321239Y-17295050D02*
X12302191Y-17266479D01*
X12302191Y-17266479D02*
X12292668Y-17247431D01*
X12292668Y-17247431D02*
X12283144Y-17218860D01*
X12283144Y-17218860D02*
X12273620Y-17171241D01*
X12273620Y-17171241D02*
X12273620Y-17133146D01*
X12273620Y-17133146D02*
X12283144Y-17085527D01*
X12283144Y-17085527D02*
X12292668Y-17056955D01*
X12292668Y-17056955D02*
X12302191Y-17037908D01*
X12302191Y-17037908D02*
X12321239Y-17009336D01*
X12321239Y-17009336D02*
X12330763Y-16999812D01*
X12397429Y-17047431D02*
X12406953Y-17037908D01*
X12406953Y-17037908D02*
X12426001Y-17028384D01*
X12426001Y-17028384D02*
X12473620Y-17028384D01*
X12473620Y-17028384D02*
X12492668Y-17037908D01*
X12492668Y-17037908D02*
X12502191Y-17047431D01*
X12502191Y-17047431D02*
X12511715Y-17066479D01*
X12511715Y-17066479D02*
X12511715Y-17085527D01*
X12511715Y-17085527D02*
X12502191Y-17114098D01*
X12502191Y-17114098D02*
X12387906Y-17228384D01*
X12387906Y-17228384D02*
X12511715Y-17228384D01*
X12683144Y-17095050D02*
X12683144Y-17228384D01*
X12635525Y-17018860D02*
X12587906Y-17161717D01*
X12587906Y-17161717D02*
X12711715Y-17161717D01*
X12940287Y-17228384D02*
X12940287Y-17028384D01*
X13026001Y-17228384D02*
X13026001Y-17123622D01*
X13026001Y-17123622D02*
X13016477Y-17104574D01*
X13016477Y-17104574D02*
X12997430Y-17095050D01*
X12997430Y-17095050D02*
X12968858Y-17095050D01*
X12968858Y-17095050D02*
X12949810Y-17104574D01*
X12949810Y-17104574D02*
X12940287Y-17114098D01*
X13149810Y-17228384D02*
X13130763Y-17218860D01*
X13130763Y-17218860D02*
X13121239Y-17209336D01*
X13121239Y-17209336D02*
X13111715Y-17190289D01*
X13111715Y-17190289D02*
X13111715Y-17133146D01*
X13111715Y-17133146D02*
X13121239Y-17114098D01*
X13121239Y-17114098D02*
X13130763Y-17104574D01*
X13130763Y-17104574D02*
X13149810Y-17095050D01*
X13149810Y-17095050D02*
X13178382Y-17095050D01*
X13178382Y-17095050D02*
X13197430Y-17104574D01*
X13197430Y-17104574D02*
X13206953Y-17114098D01*
X13206953Y-17114098D02*
X13216477Y-17133146D01*
X13216477Y-17133146D02*
X13216477Y-17190289D01*
X13216477Y-17190289D02*
X13206953Y-17209336D01*
X13206953Y-17209336D02*
X13197430Y-17218860D01*
X13197430Y-17218860D02*
X13178382Y-17228384D01*
X13178382Y-17228384D02*
X13149810Y-17228384D01*
X13330763Y-17228384D02*
X13311715Y-17218860D01*
X13311715Y-17218860D02*
X13302191Y-17199812D01*
X13302191Y-17199812D02*
X13302191Y-17028384D01*
X13483144Y-17218860D02*
X13464096Y-17228384D01*
X13464096Y-17228384D02*
X13426001Y-17228384D01*
X13426001Y-17228384D02*
X13406953Y-17218860D01*
X13406953Y-17218860D02*
X13397430Y-17199812D01*
X13397430Y-17199812D02*
X13397430Y-17123622D01*
X13397430Y-17123622D02*
X13406953Y-17104574D01*
X13406953Y-17104574D02*
X13426001Y-17095050D01*
X13426001Y-17095050D02*
X13464096Y-17095050D01*
X13464096Y-17095050D02*
X13483144Y-17104574D01*
X13483144Y-17104574D02*
X13492668Y-17123622D01*
X13492668Y-17123622D02*
X13492668Y-17142670D01*
X13492668Y-17142670D02*
X13397430Y-17161717D01*
X13568858Y-17218860D02*
X13587906Y-17228384D01*
X13587906Y-17228384D02*
X13626001Y-17228384D01*
X13626001Y-17228384D02*
X13645049Y-17218860D01*
X13645049Y-17218860D02*
X13654572Y-17199812D01*
X13654572Y-17199812D02*
X13654572Y-17190289D01*
X13654572Y-17190289D02*
X13645049Y-17171241D01*
X13645049Y-17171241D02*
X13626001Y-17161717D01*
X13626001Y-17161717D02*
X13597430Y-17161717D01*
X13597430Y-17161717D02*
X13578382Y-17152193D01*
X13578382Y-17152193D02*
X13568858Y-17133146D01*
X13568858Y-17133146D02*
X13568858Y-17123622D01*
X13568858Y-17123622D02*
X13578382Y-17104574D01*
X13578382Y-17104574D02*
X13597430Y-17095050D01*
X13597430Y-17095050D02*
X13626001Y-17095050D01*
X13626001Y-17095050D02*
X13645049Y-17104574D01*
X13721239Y-17304574D02*
X13730763Y-17295050D01*
X13730763Y-17295050D02*
X13749811Y-17266479D01*
X13749811Y-17266479D02*
X13759334Y-17247431D01*
X13759334Y-17247431D02*
X13768858Y-17218860D01*
X13768858Y-17218860D02*
X13778382Y-17171241D01*
X13778382Y-17171241D02*
X13778382Y-17133146D01*
X13778382Y-17133146D02*
X13768858Y-17085527D01*
X13768858Y-17085527D02*
X13759334Y-17056955D01*
X13759334Y-17056955D02*
X13749811Y-17037908D01*
X13749811Y-17037908D02*
X13730763Y-17009336D01*
X13730763Y-17009336D02*
X13721239Y-16999812D01*
M02*
