%TF.GenerationSoftware,KiCad,Pcbnew,8.0.8-8.0.8-0~ubuntu22.04.1*%
%TF.CreationDate,2025-01-21T09:43:48+01:00*%
%TF.ProjectId,carte-io,63617274-652d-4696-9f2e-6b696361645f,1.0*%
%TF.SameCoordinates,Original*%
%TF.FileFunction,Copper,L1,Top*%
%TF.FilePolarity,Positive*%
%FSLAX46Y46*%
G04 Gerber Fmt 4.6, Leading zero omitted, Abs format (unit mm)*
G04 Created by KiCad (PCBNEW 8.0.8-8.0.8-0~ubuntu22.04.1) date 2025-01-21 09:43:48*
%MOMM*%
%LPD*%
G01*
G04 APERTURE LIST*
G04 Aperture macros list*
%AMRoundRect*
0 Rectangle with rounded corners*
0 $1 Rounding radius*
0 $2 $3 $4 $5 $6 $7 $8 $9 X,Y pos of 4 corners*
0 Add a 4 corners polygon primitive as box body*
4,1,4,$2,$3,$4,$5,$6,$7,$8,$9,$2,$3,0*
0 Add four circle primitives for the rounded corners*
1,1,$1+$1,$2,$3*
1,1,$1+$1,$4,$5*
1,1,$1+$1,$6,$7*
1,1,$1+$1,$8,$9*
0 Add four rect primitives between the rounded corners*
20,1,$1+$1,$2,$3,$4,$5,0*
20,1,$1+$1,$4,$5,$6,$7,0*
20,1,$1+$1,$6,$7,$8,$9,0*
20,1,$1+$1,$8,$9,$2,$3,0*%
%AMFreePoly0*
4,1,19,0.500000,-0.750000,0.000000,-0.750000,0.000000,-0.744911,-0.071157,-0.744911,-0.207708,-0.704816,-0.327430,-0.627875,-0.420627,-0.520320,-0.479746,-0.390866,-0.500000,-0.250000,-0.500000,0.250000,-0.479746,0.390866,-0.420627,0.520320,-0.327430,0.627875,-0.207708,0.704816,-0.071157,0.744911,0.000000,0.744911,0.000000,0.750000,0.500000,0.750000,0.500000,-0.750000,0.500000,-0.750000,
$1*%
%AMFreePoly1*
4,1,19,0.000000,0.744911,0.071157,0.744911,0.207708,0.704816,0.327430,0.627875,0.420627,0.520320,0.479746,0.390866,0.500000,0.250000,0.500000,-0.250000,0.479746,-0.390866,0.420627,-0.520320,0.327430,-0.627875,0.207708,-0.704816,0.071157,-0.744911,0.000000,-0.744911,0.000000,-0.750000,-0.500000,-0.750000,-0.500000,0.750000,0.000000,0.750000,0.000000,0.744911,0.000000,0.744911,
$1*%
G04 Aperture macros list end*
%TA.AperFunction,EtchedComponent*%
%ADD10C,0.000000*%
%TD*%
%TA.AperFunction,SMDPad,CuDef*%
%ADD11R,0.740000X2.790000*%
%TD*%
%TA.AperFunction,SMDPad,CuDef*%
%ADD12RoundRect,0.250000X-0.450000X0.350000X-0.450000X-0.350000X0.450000X-0.350000X0.450000X0.350000X0*%
%TD*%
%TA.AperFunction,SMDPad,CuDef*%
%ADD13RoundRect,0.250000X0.450000X-0.350000X0.450000X0.350000X-0.450000X0.350000X-0.450000X-0.350000X0*%
%TD*%
%TA.AperFunction,SMDPad,CuDef*%
%ADD14RoundRect,0.250000X-0.350000X-0.450000X0.350000X-0.450000X0.350000X0.450000X-0.350000X0.450000X0*%
%TD*%
%TA.AperFunction,ComponentPad*%
%ADD15RoundRect,0.250000X0.625000X-0.350000X0.625000X0.350000X-0.625000X0.350000X-0.625000X-0.350000X0*%
%TD*%
%TA.AperFunction,ComponentPad*%
%ADD16O,1.750000X1.200000*%
%TD*%
%TA.AperFunction,SMDPad,CuDef*%
%ADD17RoundRect,0.243750X0.243750X0.456250X-0.243750X0.456250X-0.243750X-0.456250X0.243750X-0.456250X0*%
%TD*%
%TA.AperFunction,SMDPad,CuDef*%
%ADD18R,1.150000X0.600000*%
%TD*%
%TA.AperFunction,SMDPad,CuDef*%
%ADD19RoundRect,0.250000X0.337500X0.475000X-0.337500X0.475000X-0.337500X-0.475000X0.337500X-0.475000X0*%
%TD*%
%TA.AperFunction,SMDPad,CuDef*%
%ADD20RoundRect,0.087500X0.087500X-0.537500X0.087500X0.537500X-0.087500X0.537500X-0.087500X-0.537500X0*%
%TD*%
%TA.AperFunction,SMDPad,CuDef*%
%ADD21RoundRect,0.250000X-0.475000X0.337500X-0.475000X-0.337500X0.475000X-0.337500X0.475000X0.337500X0*%
%TD*%
%TA.AperFunction,SMDPad,CuDef*%
%ADD22RoundRect,0.087500X-0.225000X-0.087500X0.225000X-0.087500X0.225000X0.087500X-0.225000X0.087500X0*%
%TD*%
%TA.AperFunction,SMDPad,CuDef*%
%ADD23RoundRect,0.087500X-0.087500X-0.225000X0.087500X-0.225000X0.087500X0.225000X-0.087500X0.225000X0*%
%TD*%
%TA.AperFunction,SMDPad,CuDef*%
%ADD24RoundRect,0.250000X0.350000X0.450000X-0.350000X0.450000X-0.350000X-0.450000X0.350000X-0.450000X0*%
%TD*%
%TA.AperFunction,SMDPad,CuDef*%
%ADD25RoundRect,0.243750X-0.243750X-0.456250X0.243750X-0.456250X0.243750X0.456250X-0.243750X0.456250X0*%
%TD*%
%TA.AperFunction,SMDPad,CuDef*%
%ADD26R,1.200000X0.950000*%
%TD*%
%TA.AperFunction,SMDPad,CuDef*%
%ADD27R,0.500000X0.300000*%
%TD*%
%TA.AperFunction,SMDPad,CuDef*%
%ADD28R,1.350000X0.600000*%
%TD*%
%TA.AperFunction,SMDPad,CuDef*%
%ADD29R,1.350000X0.400000*%
%TD*%
%TA.AperFunction,ComponentPad*%
%ADD30R,1.370000X1.370000*%
%TD*%
%TA.AperFunction,ComponentPad*%
%ADD31C,1.370000*%
%TD*%
%TA.AperFunction,SMDPad,CuDef*%
%ADD32RoundRect,0.250000X-0.337500X-0.475000X0.337500X-0.475000X0.337500X0.475000X-0.337500X0.475000X0*%
%TD*%
%TA.AperFunction,ComponentPad*%
%ADD33RoundRect,0.250000X-0.750000X0.600000X-0.750000X-0.600000X0.750000X-0.600000X0.750000X0.600000X0*%
%TD*%
%TA.AperFunction,ComponentPad*%
%ADD34O,2.000000X1.700000*%
%TD*%
%TA.AperFunction,SMDPad,CuDef*%
%ADD35R,0.650000X0.350000*%
%TD*%
%TA.AperFunction,SMDPad,CuDef*%
%ADD36R,1.550000X2.400000*%
%TD*%
%TA.AperFunction,ComponentPad*%
%ADD37R,1.700000X1.700000*%
%TD*%
%TA.AperFunction,ComponentPad*%
%ADD38C,1.700000*%
%TD*%
%TA.AperFunction,ComponentPad*%
%ADD39RoundRect,0.250000X-0.350000X-0.625000X0.350000X-0.625000X0.350000X0.625000X-0.350000X0.625000X0*%
%TD*%
%TA.AperFunction,ComponentPad*%
%ADD40O,1.200000X1.750000*%
%TD*%
%TA.AperFunction,SMDPad,CuDef*%
%ADD41RoundRect,0.100000X0.100000X-0.637500X0.100000X0.637500X-0.100000X0.637500X-0.100000X-0.637500X0*%
%TD*%
%TA.AperFunction,SMDPad,CuDef*%
%ADD42RoundRect,0.087500X-0.175000X-0.087500X0.175000X-0.087500X0.175000X0.087500X-0.175000X0.087500X0*%
%TD*%
%TA.AperFunction,SMDPad,CuDef*%
%ADD43RoundRect,0.070000X-0.355000X-0.070000X0.355000X-0.070000X0.355000X0.070000X-0.355000X0.070000X0*%
%TD*%
%TA.AperFunction,ComponentPad*%
%ADD44C,0.600000*%
%TD*%
%TA.AperFunction,SMDPad,CuDef*%
%ADD45R,0.280000X0.700000*%
%TD*%
%TA.AperFunction,SMDPad,CuDef*%
%ADD46R,1.650000X2.400000*%
%TD*%
%TA.AperFunction,SMDPad,CuDef*%
%ADD47RoundRect,0.250000X0.475000X-0.337500X0.475000X0.337500X-0.475000X0.337500X-0.475000X-0.337500X0*%
%TD*%
%TA.AperFunction,SMDPad,CuDef*%
%ADD48RoundRect,0.075000X-0.725000X-0.075000X0.725000X-0.075000X0.725000X0.075000X-0.725000X0.075000X0*%
%TD*%
%TA.AperFunction,SMDPad,CuDef*%
%ADD49RoundRect,0.075000X-0.075000X-0.725000X0.075000X-0.725000X0.075000X0.725000X-0.075000X0.725000X0*%
%TD*%
%TA.AperFunction,SMDPad,CuDef*%
%ADD50R,1.300000X1.100000*%
%TD*%
%TA.AperFunction,SMDPad,CuDef*%
%ADD51RoundRect,0.375000X-0.625000X-0.375000X0.625000X-0.375000X0.625000X0.375000X-0.625000X0.375000X0*%
%TD*%
%TA.AperFunction,SMDPad,CuDef*%
%ADD52RoundRect,0.500000X-0.500000X-1.400000X0.500000X-1.400000X0.500000X1.400000X-0.500000X1.400000X0*%
%TD*%
%TA.AperFunction,SMDPad,CuDef*%
%ADD53R,1.200000X0.400000*%
%TD*%
%TA.AperFunction,SMDPad,CuDef*%
%ADD54R,0.600000X1.350000*%
%TD*%
%TA.AperFunction,SMDPad,CuDef*%
%ADD55R,0.400000X1.350000*%
%TD*%
%TA.AperFunction,SMDPad,CuDef*%
%ADD56RoundRect,0.125000X-0.687500X-0.125000X0.687500X-0.125000X0.687500X0.125000X-0.687500X0.125000X0*%
%TD*%
%TA.AperFunction,SMDPad,CuDef*%
%ADD57RoundRect,0.087500X-0.125000X-0.087500X0.125000X-0.087500X0.125000X0.087500X-0.125000X0.087500X0*%
%TD*%
%TA.AperFunction,SMDPad,CuDef*%
%ADD58RoundRect,0.087500X-0.087500X-0.125000X0.087500X-0.125000X0.087500X0.125000X-0.087500X0.125000X0*%
%TD*%
%TA.AperFunction,SMDPad,CuDef*%
%ADD59RoundRect,0.051250X-0.733750X-0.153750X0.733750X-0.153750X0.733750X0.153750X-0.733750X0.153750X0*%
%TD*%
%TA.AperFunction,SMDPad,CuDef*%
%ADD60FreePoly0,0.000000*%
%TD*%
%TA.AperFunction,SMDPad,CuDef*%
%ADD61FreePoly1,0.000000*%
%TD*%
%TA.AperFunction,ComponentPad*%
%ADD62O,1.700000X1.700000*%
%TD*%
%TA.AperFunction,ComponentPad*%
%ADD63RoundRect,0.250000X-0.625000X0.350000X-0.625000X-0.350000X0.625000X-0.350000X0.625000X0.350000X0*%
%TD*%
%TA.AperFunction,SMDPad,CuDef*%
%ADD64RoundRect,0.150000X0.587500X0.150000X-0.587500X0.150000X-0.587500X-0.150000X0.587500X-0.150000X0*%
%TD*%
%TA.AperFunction,SMDPad,CuDef*%
%ADD65R,0.375000X0.350000*%
%TD*%
%TA.AperFunction,SMDPad,CuDef*%
%ADD66R,0.350000X0.375000*%
%TD*%
%TA.AperFunction,SMDPad,CuDef*%
%ADD67RoundRect,0.150000X-0.425000X0.150000X-0.425000X-0.150000X0.425000X-0.150000X0.425000X0.150000X0*%
%TD*%
%TA.AperFunction,SMDPad,CuDef*%
%ADD68RoundRect,0.075000X-0.500000X0.075000X-0.500000X-0.075000X0.500000X-0.075000X0.500000X0.075000X0*%
%TD*%
%TA.AperFunction,ComponentPad*%
%ADD69O,2.100000X1.000000*%
%TD*%
%TA.AperFunction,ComponentPad*%
%ADD70O,1.800000X1.000000*%
%TD*%
%TA.AperFunction,ViaPad*%
%ADD71C,0.600000*%
%TD*%
%TA.AperFunction,ViaPad*%
%ADD72C,1.200000*%
%TD*%
%TA.AperFunction,ViaPad*%
%ADD73C,0.800000*%
%TD*%
%TA.AperFunction,Conductor*%
%ADD74C,0.254000*%
%TD*%
%TA.AperFunction,Conductor*%
%ADD75C,2.000000*%
%TD*%
%TA.AperFunction,Conductor*%
%ADD76C,1.000000*%
%TD*%
%TA.AperFunction,Conductor*%
%ADD77C,0.300000*%
%TD*%
%TA.AperFunction,Conductor*%
%ADD78C,0.400000*%
%TD*%
%TA.AperFunction,Conductor*%
%ADD79C,0.200000*%
%TD*%
%TA.AperFunction,Conductor*%
%ADD80C,1.500000*%
%TD*%
%TA.AperFunction,Conductor*%
%ADD81C,0.700000*%
%TD*%
%TA.AperFunction,Conductor*%
%ADD82C,0.500000*%
%TD*%
%TA.AperFunction,Conductor*%
%ADD83C,0.350000*%
%TD*%
%TA.AperFunction,Profile*%
%ADD84C,0.050000*%
%TD*%
G04 APERTURE END LIST*
D10*
%TA.AperFunction,EtchedComponent*%
%TO.C,JP2*%
G36*
X130020000Y-102430000D02*
G01*
X129520000Y-102430000D01*
X129520000Y-101830000D01*
X130020000Y-101830000D01*
X130020000Y-102430000D01*
G37*
%TD.AperFunction*%
%TD*%
D11*
%TO.P,J3,01,01*%
%TO.N,+3.3V*%
X94606000Y-74704000D03*
%TO.P,J3,02,02*%
%TO.N,/CPU/JTMS-SWDIO*%
X94606000Y-70634000D03*
%TO.P,J3,03,03*%
%TO.N,GND*%
X95876000Y-74704000D03*
%TO.P,J3,04,04*%
%TO.N,/CPU/JTCK-SWCLK*%
X95876000Y-70634000D03*
%TO.P,J3,05,05*%
%TO.N,GND*%
X97146000Y-74704000D03*
%TO.P,J3,06,06*%
%TO.N,/CPU/JTDO-SWO*%
X97146000Y-70634000D03*
%TO.P,J3,08,08*%
%TO.N,unconnected-(J3-Pad08)*%
X98416000Y-70634000D03*
%TO.P,J3,09,09*%
%TO.N,/CPU/GNDDetect*%
X99686000Y-74704000D03*
%TO.P,J3,10,10*%
%TO.N,/CPU/NRST*%
X99686000Y-70634000D03*
%TD*%
D12*
%TO.P,R63,1*%
%TO.N,Net-(J11-Pin_2)*%
X119634000Y-70882000D03*
%TO.P,R63,2*%
%TO.N,+3.3V*%
X119634000Y-72882000D03*
%TD*%
D13*
%TO.P,R21,1*%
%TO.N,Net-(J7-Pin_2)*%
X159376000Y-129292000D03*
%TO.P,R21,2*%
%TO.N,Net-(U11-3A)*%
X159376000Y-127292000D03*
%TD*%
D14*
%TO.P,R4,1*%
%TO.N,Net-(J1-CC1)*%
X98162000Y-96097500D03*
%TO.P,R4,2*%
%TO.N,GND*%
X100162000Y-96097500D03*
%TD*%
D15*
%TO.P,J6,1,Pin_1*%
%TO.N,+3.3V*%
X154000000Y-139372000D03*
D16*
%TO.P,J6,2,Pin_2*%
%TO.N,Net-(J6-Pin_2)*%
X154000000Y-137372000D03*
%TO.P,J6,3,Pin_3*%
%TO.N,GND*%
X154000000Y-135372000D03*
%TO.P,J6,4,Pin_4*%
%TO.N,Net-(J6-Pin_4)*%
X154000000Y-133372000D03*
%TD*%
D13*
%TO.P,R66,1*%
%TO.N,+3.3V*%
X151638000Y-72882000D03*
%TO.P,R66,2*%
%TO.N,Net-(J16-Pin_2)*%
X151638000Y-70882000D03*
%TD*%
D17*
%TO.P,D1,1,K*%
%TO.N,Net-(D1-K)*%
X118325000Y-93303500D03*
%TO.P,D1,2,A*%
%TO.N,Net-(D1-A)*%
X116450000Y-93303500D03*
%TD*%
D15*
%TO.P,J5,1,Pin_1*%
%TO.N,+3.3V*%
X147438000Y-139372000D03*
D16*
%TO.P,J5,2,Pin_2*%
%TO.N,Net-(J5-Pin_2)*%
X147438000Y-137372000D03*
%TO.P,J5,3,Pin_3*%
%TO.N,GND*%
X147438000Y-135372000D03*
%TO.P,J5,4,Pin_4*%
%TO.N,Net-(J5-Pin_4)*%
X147438000Y-133372000D03*
%TD*%
D13*
%TO.P,R42,1*%
%TO.N,Net-(U23-3Y)*%
X182490000Y-141484000D03*
%TO.P,R42,2*%
%TO.N,/GPIO SPI GEN_PWM/OUT3*%
X182490000Y-139484000D03*
%TD*%
D18*
%TO.P,U10,1,CH1*%
%TO.N,Net-(U10-CH1)*%
X119120500Y-128165000D03*
%TO.P,U10,2,VN*%
%TO.N,GND*%
X119120500Y-129115000D03*
%TO.P,U10,3,CH2*%
%TO.N,Net-(U10-CH2)*%
X119120500Y-130065000D03*
%TO.P,U10,4,CH3*%
%TO.N,Net-(U10-CH3)*%
X121720500Y-130065000D03*
%TO.P,U10,5,VP*%
%TO.N,+5V*%
X121720500Y-129115000D03*
%TO.P,U10,6,CH4*%
%TO.N,Net-(U10-CH4)*%
X121720500Y-128165000D03*
%TD*%
D19*
%TO.P,C12,1*%
%TO.N,VDDA*%
X130674000Y-108226000D03*
%TO.P,C12,2*%
%TO.N,GND*%
X128599000Y-108226000D03*
%TD*%
D20*
%TO.P,U20,1*%
%TO.N,GND*%
X181620000Y-80570000D03*
%TO.P,U20,2*%
%TO.N,/CPU/COM_LIDAR1_TX*%
X182120000Y-80570000D03*
%TO.P,U20,3*%
%TO.N,/CPU/COM_LIDAR1_RX*%
X182620000Y-80570000D03*
%TO.P,U20,4,GND*%
%TO.N,GND*%
X183120000Y-80570000D03*
%TO.P,U20,5*%
%TO.N,/UARTS/UART1_RX*%
X183120000Y-77770000D03*
%TO.P,U20,6*%
%TO.N,/UARTS/UART1_TX*%
X182620000Y-77770000D03*
%TO.P,U20,7*%
%TO.N,GND*%
X182120000Y-77770000D03*
%TO.P,U20,8,VCC*%
%TO.N,+3.3V*%
X181620000Y-77770000D03*
%TD*%
D21*
%TO.P,C36,1*%
%TO.N,+3.3V*%
X141088000Y-78486500D03*
%TO.P,C36,2*%
%TO.N,GND*%
X141088000Y-80561500D03*
%TD*%
D19*
%TO.P,C46,1*%
%TO.N,+3.3V*%
X128990000Y-117856000D03*
%TO.P,C46,2*%
%TO.N,GND*%
X126915000Y-117856000D03*
%TD*%
%TO.P,C39,1*%
%TO.N,+3.3V*%
X115020000Y-117792500D03*
%TO.P,C39,2*%
%TO.N,GND*%
X112945000Y-117792500D03*
%TD*%
D22*
%TO.P,U12,1,SDO/SA0*%
%TO.N,unconnected-(U12-SDO{slash}SA0-Pad1)*%
X161327500Y-95835500D03*
%TO.P,U12,2,SDX*%
%TO.N,unconnected-(U12-SDX-Pad2)*%
X161327500Y-96335500D03*
%TO.P,U12,3,SCX*%
%TO.N,unconnected-(U12-SCX-Pad3)*%
X161327500Y-96835500D03*
%TO.P,U12,4,INT1*%
%TO.N,/CPU/INT_IMU*%
X161327500Y-97335500D03*
D23*
%TO.P,U12,5,VDDIO*%
%TO.N,+3.3V*%
X161990000Y-97498000D03*
%TO.P,U12,6,GND*%
%TO.N,GND*%
X162490000Y-97498000D03*
%TO.P,U12,7,GND*%
X162990000Y-97498000D03*
D22*
%TO.P,U12,8,VDD*%
%TO.N,+3.3V*%
X163652500Y-97335500D03*
%TO.P,U12,9,INT2*%
%TO.N,unconnected-(U12-INT2-Pad9)*%
X163652500Y-96835500D03*
%TO.P,U12,10,NC*%
%TO.N,unconnected-(U12-NC-Pad10)*%
X163652500Y-96335500D03*
%TO.P,U12,11,NC*%
%TO.N,unconnected-(U12-NC-Pad11)*%
X163652500Y-95835500D03*
D23*
%TO.P,U12,12,CS*%
%TO.N,+3.3V*%
X162990000Y-95673000D03*
%TO.P,U12,13,SCL*%
%TO.N,/CPU/I2C_SCL_INT*%
X162490000Y-95673000D03*
%TO.P,U12,14,SDA*%
%TO.N,/CPU/I2C_SDA_INT*%
X161990000Y-95673000D03*
%TD*%
D14*
%TO.P,R8,1*%
%TO.N,Net-(U2-3V3OUT)*%
X112148000Y-95843500D03*
%TO.P,R8,2*%
%TO.N,Net-(D2-A)*%
X114148000Y-95843500D03*
%TD*%
D12*
%TO.P,R71,1*%
%TO.N,Net-(J13-Pin_2)*%
X145034000Y-70888000D03*
%TO.P,R71,2*%
%TO.N,+3.3V*%
X145034000Y-72888000D03*
%TD*%
D24*
%TO.P,R17,1*%
%TO.N,Net-(U5-B3Y)*%
X131040000Y-131246500D03*
%TO.P,R17,2*%
%TO.N,Net-(J8-Pad07)*%
X129040000Y-131246500D03*
%TD*%
D13*
%TO.P,R19,1*%
%TO.N,Net-(J6-Pin_2)*%
X153026000Y-129292000D03*
%TO.P,R19,2*%
%TO.N,Net-(U11-1A)*%
X153026000Y-127292000D03*
%TD*%
D25*
%TO.P,D6,1,K*%
%TO.N,GND*%
X90636500Y-107718000D03*
%TO.P,D6,2,A*%
%TO.N,Net-(D6-A)*%
X92511500Y-107718000D03*
%TD*%
D24*
%TO.P,R24,1*%
%TO.N,Net-(U9-B2Y)*%
X112696500Y-128397000D03*
%TO.P,R24,2*%
%TO.N,Net-(U10-CH2)*%
X110696500Y-128397000D03*
%TD*%
D26*
%TO.P,FB1,1*%
%TO.N,VBUS*%
X98028000Y-93303500D03*
%TO.P,FB1,2*%
%TO.N,/Power & Analog/FT231_VCC*%
X100328000Y-93303500D03*
%TD*%
D12*
%TO.P,R55,1*%
%TO.N,+3.3V*%
X168656000Y-71158000D03*
%TO.P,R55,2*%
%TO.N,/CPU/I2C_SDA_ARBITRARY*%
X168656000Y-73158000D03*
%TD*%
D21*
%TO.P,C32,1*%
%TO.N,+3.3V*%
X158614000Y-90149000D03*
%TO.P,C32,2*%
%TO.N,GND*%
X158614000Y-92224000D03*
%TD*%
D12*
%TO.P,R62,1*%
%TO.N,Net-(J11-Pin_4)*%
X122174000Y-70882000D03*
%TO.P,R62,2*%
%TO.N,+3.3V*%
X122174000Y-72882000D03*
%TD*%
D13*
%TO.P,R60,1*%
%TO.N,+3.3V*%
X132334000Y-72882000D03*
%TO.P,R60,2*%
%TO.N,Net-(J15-Pin_2)*%
X132334000Y-70882000D03*
%TD*%
D24*
%TO.P,R16,1*%
%TO.N,Net-(U5-B2Y)*%
X126976000Y-128452500D03*
%TO.P,R16,2*%
%TO.N,Net-(J8-Pad04)*%
X124976000Y-128452500D03*
%TD*%
D27*
%TO.P,U19,1,SDA*%
%TO.N,/CPU/I2C_SDA_INT*%
X167120000Y-90700000D03*
%TO.P,U19,2,SCL*%
%TO.N,/CPU/I2C_SCL_INT*%
X167120000Y-91500000D03*
%TO.P,U19,3,VDD*%
%TO.N,+3.3V*%
X168520000Y-91500000D03*
%TO.P,U19,4,VSS*%
%TO.N,GND*%
X168520000Y-90700000D03*
%TD*%
D14*
%TO.P,R52,1*%
%TO.N,Net-(J26-Pin_2)*%
X96654000Y-84604000D03*
%TO.P,R52,2*%
%TO.N,/CPU/ADC_VBAT*%
X98654000Y-84604000D03*
%TD*%
D13*
%TO.P,R12,1*%
%TO.N,Net-(J4-Pin_4)*%
X142866000Y-129292000D03*
%TO.P,R12,2*%
%TO.N,Net-(U4-CH2)*%
X142866000Y-127292000D03*
%TD*%
D14*
%TO.P,R46,1*%
%TO.N,/UARTS/UART3_RX*%
X189856000Y-90544000D03*
%TO.P,R46,2*%
%TO.N,Net-(J27-Pin_5)*%
X191856000Y-90544000D03*
%TD*%
D28*
%TO.P,U11,1,1~{OE}*%
%TO.N,GND*%
X152523000Y-116590000D03*
D29*
%TO.P,U11,2,1A*%
%TO.N,Net-(U11-1A)*%
X152523000Y-117340000D03*
%TO.P,U11,3,1Y*%
%TO.N,/CPU/ENCODER_3_PHA*%
X152523000Y-117990000D03*
%TO.P,U11,4,2~{OE}*%
%TO.N,GND*%
X152523000Y-118640000D03*
%TO.P,U11,5,2A*%
%TO.N,Net-(U11-2A)*%
X152523000Y-119290000D03*
%TO.P,U11,6,2Y*%
%TO.N,/CPU/ENCODER_3_PHB*%
X152523000Y-119940000D03*
D28*
%TO.P,U11,7,GND*%
%TO.N,GND*%
X152523000Y-120690000D03*
%TO.P,U11,8,3Y*%
%TO.N,/CPU/ENCODER_4_PHA*%
X158373000Y-120690000D03*
D29*
%TO.P,U11,9,3A*%
%TO.N,Net-(U11-3A)*%
X158373000Y-119940000D03*
%TO.P,U11,10,3~{OE}*%
%TO.N,GND*%
X158373000Y-119290000D03*
%TO.P,U11,11,4Y*%
%TO.N,/CPU/ENCODER_4_PHB*%
X158373000Y-118640000D03*
%TO.P,U11,12,4A*%
%TO.N,Net-(U11-4A)*%
X158373000Y-117990000D03*
%TO.P,U11,13,VCC*%
%TO.N,+3.3V*%
X158373000Y-117340000D03*
D28*
%TO.P,U11,14,4~{OE}*%
%TO.N,GND*%
X158373000Y-116590000D03*
%TD*%
D30*
%TO.P,J8,01,01*%
%TO.N,Net-(J8-Pad01)*%
X123300000Y-140158500D03*
D31*
%TO.P,J8,02,02*%
%TO.N,+5V*%
X123300000Y-137618500D03*
%TO.P,J8,03,03*%
%TO.N,GND*%
X123300000Y-135078500D03*
%TO.P,J8,04,04*%
%TO.N,Net-(J8-Pad04)*%
X125840000Y-140158500D03*
%TO.P,J8,05,05*%
%TO.N,+5V*%
X125840000Y-137618500D03*
%TO.P,J8,06,06*%
%TO.N,GND*%
X125840000Y-135078500D03*
%TO.P,J8,07,07*%
%TO.N,Net-(J8-Pad07)*%
X128380000Y-140158500D03*
%TO.P,J8,08,08*%
%TO.N,+5V*%
X128380000Y-137618500D03*
%TO.P,J8,09,09*%
%TO.N,GND*%
X128380000Y-135078500D03*
%TO.P,J8,10,10*%
%TO.N,Net-(J8-Pad10)*%
X130920000Y-140158500D03*
%TO.P,J8,11,11*%
%TO.N,+5V*%
X130920000Y-137618500D03*
%TO.P,J8,12,12*%
%TO.N,GND*%
X130920000Y-135078500D03*
%TD*%
D13*
%TO.P,R64,1*%
%TO.N,+3.3V*%
X138938000Y-72882000D03*
%TO.P,R64,2*%
%TO.N,Net-(J12-Pin_2)*%
X138938000Y-70882000D03*
%TD*%
D21*
%TO.P,C38,1*%
%TO.N,GND*%
X188078000Y-71882500D03*
%TO.P,C38,2*%
%TO.N,+5V*%
X188078000Y-73957500D03*
%TD*%
D15*
%TO.P,J7,1,Pin_1*%
%TO.N,+3.3V*%
X160350000Y-139420000D03*
D16*
%TO.P,J7,2,Pin_2*%
%TO.N,Net-(J7-Pin_2)*%
X160350000Y-137420000D03*
%TO.P,J7,3,Pin_3*%
%TO.N,GND*%
X160350000Y-135420000D03*
%TO.P,J7,4,Pin_4*%
%TO.N,Net-(J7-Pin_4)*%
X160350000Y-133420000D03*
%TD*%
D13*
%TO.P,R57,1*%
%TO.N,+3.3V*%
X116078000Y-72882000D03*
%TO.P,R57,2*%
%TO.N,Net-(J10-Pin_4)*%
X116078000Y-70882000D03*
%TD*%
D32*
%TO.P,C45,1*%
%TO.N,+3.3V*%
X173346000Y-97304000D03*
%TO.P,C45,2*%
%TO.N,GND*%
X175421000Y-97304000D03*
%TD*%
D33*
%TO.P,J2,1,Pin_1*%
%TO.N,GND*%
X95516000Y-123486000D03*
D34*
%TO.P,J2,2,Pin_2*%
%TO.N,/Power & Analog/VIN*%
X95516000Y-125986000D03*
%TD*%
D35*
%TO.P,U33,1,TXD*%
%TO.N,/CPU/FDCAN1_TX*%
X182851500Y-72037000D03*
%TO.P,U33,2,VSS*%
%TO.N,GND*%
X182851500Y-72687000D03*
%TO.P,U33,3,VDD*%
%TO.N,+3.3V*%
X182851500Y-73337000D03*
%TO.P,U33,4,RXD*%
%TO.N,/CPU/FDCAN1_RX*%
X182851500Y-73987000D03*
%TO.P,U33,5,VIO*%
%TO.N,+5V*%
X185951500Y-73987000D03*
%TO.P,U33,6,CANL*%
%TO.N,Net-(J25-Pin_4)*%
X185951500Y-73337000D03*
%TO.P,U33,7,CANH*%
%TO.N,Net-(J25-Pin_2)*%
X185951500Y-72687000D03*
%TO.P,U33,8,STBY*%
%TO.N,/CPU/FDCAN_STBY*%
X185951500Y-72037000D03*
D36*
%TO.P,U33,9,VSS*%
%TO.N,GND*%
X184401500Y-73012000D03*
%TD*%
D15*
%TO.P,J27,1,Pin_1*%
%TO.N,+5V*%
X198389500Y-98566500D03*
D16*
%TO.P,J27,2,Pin_2*%
%TO.N,+3.3V*%
X198389500Y-96566500D03*
%TO.P,J27,3,Pin_3*%
%TO.N,Net-(J27-Pin_3)*%
X198389500Y-94566500D03*
%TO.P,J27,4,Pin_4*%
%TO.N,GND*%
X198389500Y-92566500D03*
%TO.P,J27,5,Pin_5*%
%TO.N,Net-(J27-Pin_5)*%
X198389500Y-90566500D03*
%TD*%
D14*
%TO.P,R73,1*%
%TO.N,/Power & Analog/VIN*%
X100092000Y-125984000D03*
%TO.P,R73,2*%
%TO.N,Net-(U36-EN{slash}UVLO)*%
X102092000Y-125984000D03*
%TD*%
D13*
%TO.P,R68,1*%
%TO.N,+3.3V*%
X157988000Y-72882000D03*
%TO.P,R68,2*%
%TO.N,Net-(J17-Pin_2)*%
X157988000Y-70882000D03*
%TD*%
D15*
%TO.P,J12,1,Pin_1*%
%TO.N,+3.3V_PWR*%
X139564000Y-65966000D03*
D16*
%TO.P,J12,2,Pin_2*%
%TO.N,Net-(J12-Pin_2)*%
X139564000Y-63966000D03*
%TO.P,J12,3,Pin_3*%
%TO.N,GND*%
X139564000Y-61966000D03*
%TO.P,J12,4,Pin_4*%
%TO.N,Net-(J12-Pin_4)*%
X139564000Y-59966000D03*
%TD*%
D14*
%TO.P,R31,1*%
%TO.N,/UARTS/UART1_TX*%
X190008000Y-80188000D03*
%TO.P,R31,2*%
%TO.N,Net-(J18-Pin_2)*%
X192008000Y-80188000D03*
%TD*%
D15*
%TO.P,J4,1,Pin_1*%
%TO.N,+3.3V*%
X140996000Y-139372000D03*
D16*
%TO.P,J4,2,Pin_2*%
%TO.N,Net-(J4-Pin_2)*%
X140996000Y-137372000D03*
%TO.P,J4,3,Pin_3*%
%TO.N,GND*%
X140996000Y-135372000D03*
%TO.P,J4,4,Pin_4*%
%TO.N,Net-(J4-Pin_4)*%
X140996000Y-133372000D03*
%TD*%
D13*
%TO.P,R41,1*%
%TO.N,Net-(U23-2Y)*%
X179950000Y-141484000D03*
%TO.P,R41,2*%
%TO.N,/GPIO SPI GEN_PWM/OUT2*%
X179950000Y-139484000D03*
%TD*%
D18*
%TO.P,U21,1,CH1*%
%TO.N,/UARTS/UART1_TX*%
X187600000Y-79966000D03*
%TO.P,U21,2,VN*%
%TO.N,GND*%
X187600000Y-79016000D03*
%TO.P,U21,3,CH2*%
%TO.N,/UARTS/UART1_RX*%
X187600000Y-78066000D03*
%TO.P,U21,4,CH3*%
%TO.N,unconnected-(U21-CH3-Pad4)*%
X185000000Y-78066000D03*
%TO.P,U21,5,VP*%
%TO.N,+5V*%
X185000000Y-79016000D03*
%TO.P,U21,6,CH4*%
%TO.N,unconnected-(U21-CH4-Pad6)*%
X185000000Y-79966000D03*
%TD*%
%TO.P,U27,1,CH1*%
%TO.N,/UARTS/UART3_TX*%
X187678000Y-92920000D03*
%TO.P,U27,2,VN*%
%TO.N,GND*%
X187678000Y-91970000D03*
%TO.P,U27,3,CH2*%
%TO.N,/UARTS/UART3_RX*%
X187678000Y-91020000D03*
%TO.P,U27,4,CH3*%
%TO.N,unconnected-(U27-CH3-Pad4)*%
X185078000Y-91020000D03*
%TO.P,U27,5,VP*%
%TO.N,+5V*%
X185078000Y-91970000D03*
%TO.P,U27,6,CH4*%
%TO.N,unconnected-(U27-CH4-Pad6)*%
X185078000Y-92920000D03*
%TD*%
D24*
%TO.P,R75,1*%
%TO.N,Net-(U36-ILIM)*%
X107680000Y-129286000D03*
%TO.P,R75,2*%
%TO.N,GND*%
X105680000Y-129286000D03*
%TD*%
D37*
%TO.P,SW1,1,1*%
%TO.N,GND*%
X195750000Y-117406000D03*
D38*
X202250000Y-117406000D03*
%TO.P,SW1,2,2*%
%TO.N,/CPU/USER_BTN*%
X195750000Y-121906000D03*
X202250000Y-121906000D03*
%TD*%
D32*
%TO.P,C16,1*%
%TO.N,Net-(U2-3V3OUT)*%
X105782000Y-89239500D03*
%TO.P,C16,2*%
%TO.N,GND*%
X107857000Y-89239500D03*
%TD*%
D39*
%TO.P,J18,1,Pin_1*%
%TO.N,+5V*%
X196000000Y-78000000D03*
D40*
%TO.P,J18,2,Pin_2*%
%TO.N,Net-(J18-Pin_2)*%
X198000000Y-78000000D03*
%TO.P,J18,3,Pin_3*%
%TO.N,GND*%
X200000000Y-78000000D03*
%TO.P,J18,4,Pin_4*%
%TO.N,Net-(J18-Pin_4)*%
X202000000Y-78000000D03*
%TD*%
D41*
%TO.P,U15,1,A0*%
%TO.N,GND*%
X121907000Y-82386500D03*
%TO.P,U15,2,A1*%
X122557000Y-82386500D03*
%TO.P,U15,3,A2*%
X123207000Y-82386500D03*
%TO.P,U15,4,~{INT0}*%
%TO.N,unconnected-(U15-~{INT0}-Pad4)*%
X123857000Y-82386500D03*
%TO.P,U15,5,SD0*%
%TO.N,Net-(J10-Pin_2)*%
X124507000Y-82386500D03*
%TO.P,U15,6,SC0*%
%TO.N,Net-(J10-Pin_4)*%
X125157000Y-82386500D03*
%TO.P,U15,7,~{INT1}*%
%TO.N,unconnected-(U15-~{INT1}-Pad7)*%
X125807000Y-82386500D03*
%TO.P,U15,8,SD1*%
%TO.N,Net-(J14-Pin_2)*%
X126457000Y-82386500D03*
%TO.P,U15,9,SC1*%
%TO.N,Net-(J14-Pin_4)*%
X127107000Y-82386500D03*
%TO.P,U15,10,VSS*%
%TO.N,GND*%
X127757000Y-82386500D03*
%TO.P,U15,11,~{INT2}*%
%TO.N,unconnected-(U15-~{INT2}-Pad11)*%
X127757000Y-76661500D03*
%TO.P,U15,12,SD2*%
%TO.N,Net-(J11-Pin_2)*%
X127107000Y-76661500D03*
%TO.P,U15,13,SC2*%
%TO.N,Net-(J11-Pin_4)*%
X126457000Y-76661500D03*
%TO.P,U15,14,~{INT3}*%
%TO.N,unconnected-(U15-~{INT3}-Pad14)*%
X125807000Y-76661500D03*
%TO.P,U15,15,SD3*%
%TO.N,Net-(J15-Pin_2)*%
X125157000Y-76661500D03*
%TO.P,U15,16,SC3*%
%TO.N,Net-(J15-Pin_4)*%
X124507000Y-76661500D03*
%TO.P,U15,17,~{INT}*%
%TO.N,unconnected-(U15-~{INT}-Pad17)*%
X123857000Y-76661500D03*
%TO.P,U15,18,SCL*%
%TO.N,/CPU/I2C_SCL_EXTERNAL*%
X123207000Y-76661500D03*
%TO.P,U15,19,SDA*%
%TO.N,/CPU/I2C_SDA_EXTERNAL*%
X122557000Y-76661500D03*
%TO.P,U15,20,VDD*%
%TO.N,+3.3V*%
X121907000Y-76661500D03*
%TD*%
D42*
%TO.P,U18,1,NC*%
%TO.N,unconnected-(U18-NC-Pad1)*%
X167249000Y-95272000D03*
%TO.P,U18,2,VDD*%
%TO.N,+3.3V*%
X167249000Y-95772000D03*
%TO.P,U18,3,GND*%
%TO.N,GND*%
X167249000Y-96272000D03*
%TO.P,U18,4,NC*%
%TO.N,unconnected-(U18-NC-Pad4)*%
X167249000Y-96772000D03*
%TO.P,U18,5,SCL*%
%TO.N,/CPU/I2C_SCL_INT*%
X168774000Y-96772000D03*
%TO.P,U18,6,SDA*%
%TO.N,/CPU/I2C_SDA_INT*%
X168774000Y-96272000D03*
%TO.P,U18,7,INT*%
%TO.N,/CPU/INT_LIGHT*%
X168774000Y-95772000D03*
%TO.P,U18,8,NC*%
%TO.N,unconnected-(U18-NC-Pad8)*%
X168774000Y-95272000D03*
%TD*%
D28*
%TO.P,U6,1,1~{OE}*%
%TO.N,GND*%
X140077000Y-116568000D03*
D29*
%TO.P,U6,2,1A*%
%TO.N,Net-(U4-CH1)*%
X140077000Y-117318000D03*
%TO.P,U6,3,1Y*%
%TO.N,/CPU/ENCODER_1_PHA*%
X140077000Y-117968000D03*
%TO.P,U6,4,2~{OE}*%
%TO.N,GND*%
X140077000Y-118618000D03*
%TO.P,U6,5,2A*%
%TO.N,Net-(U4-CH2)*%
X140077000Y-119268000D03*
%TO.P,U6,6,2Y*%
%TO.N,/CPU/ENCODER_1_PHB*%
X140077000Y-119918000D03*
D28*
%TO.P,U6,7,GND*%
%TO.N,GND*%
X140077000Y-120668000D03*
%TO.P,U6,8,3Y*%
%TO.N,/CPU/ENCODER_2_PHA*%
X145927000Y-120668000D03*
D29*
%TO.P,U6,9,3A*%
%TO.N,Net-(U4-CH3)*%
X145927000Y-119918000D03*
%TO.P,U6,10,3~{OE}*%
%TO.N,GND*%
X145927000Y-119268000D03*
%TO.P,U6,11,4Y*%
%TO.N,/CPU/ENCODER_2_PHB*%
X145927000Y-118618000D03*
%TO.P,U6,12,4A*%
%TO.N,Net-(U4-CH4)*%
X145927000Y-117968000D03*
%TO.P,U6,13,VCC*%
%TO.N,+3.3V*%
X145927000Y-117318000D03*
D28*
%TO.P,U6,14,4~{OE}*%
%TO.N,GND*%
X145927000Y-116568000D03*
%TD*%
D17*
%TO.P,D7,1,K*%
%TO.N,GND*%
X202731500Y-111274000D03*
%TO.P,D7,2,A*%
%TO.N,Net-(D7-A)*%
X200856500Y-111274000D03*
%TD*%
D19*
%TO.P,C11,1*%
%TO.N,VDDA*%
X130695500Y-104924000D03*
%TO.P,C11,2*%
%TO.N,GND*%
X128620500Y-104924000D03*
%TD*%
D13*
%TO.P,R39,1*%
%TO.N,/GPIO SPI GEN_PWM/IN4*%
X185030000Y-130292000D03*
%TO.P,R39,2*%
%TO.N,Net-(U22-CH4)*%
X185030000Y-128292000D03*
%TD*%
D15*
%TO.P,J11,1,Pin_1*%
%TO.N,+3.3V_PWR*%
X120422000Y-65966000D03*
D16*
%TO.P,J11,2,Pin_2*%
%TO.N,Net-(J11-Pin_2)*%
X120422000Y-63966000D03*
%TO.P,J11,3,Pin_3*%
%TO.N,GND*%
X120422000Y-61966000D03*
%TO.P,J11,4,Pin_4*%
%TO.N,Net-(J11-Pin_4)*%
X120422000Y-59966000D03*
%TD*%
D25*
%TO.P,D4,1,K*%
%TO.N,GND*%
X90636500Y-110766000D03*
%TO.P,D4,2,A*%
%TO.N,Net-(D4-A)*%
X92511500Y-110766000D03*
%TD*%
D43*
%TO.P,U36,1,dV/dT*%
%TO.N,Net-(U36-dV{slash}dT)*%
X105199500Y-124106000D03*
%TO.P,U36,2,EN/UVLO*%
%TO.N,Net-(U36-EN{slash}UVLO)*%
X105199500Y-124606000D03*
%TO.P,U36,3,VIN*%
%TO.N,/Power & Analog/VIN*%
X105199500Y-125106000D03*
%TO.P,U36,4,VIN*%
X105199500Y-125606000D03*
%TO.P,U36,5,VIN*%
X105199500Y-126106000D03*
%TO.P,U36,6,OUT*%
%TO.N,+5V*%
X108149500Y-126106000D03*
%TO.P,U36,7,OUT*%
X108149500Y-125606000D03*
%TO.P,U36,8,OUT*%
X108149500Y-125106000D03*
%TO.P,U36,9,NC*%
%TO.N,unconnected-(U36-NC-Pad9)*%
X108149500Y-124606000D03*
%TO.P,U36,10,ILIM*%
%TO.N,Net-(U36-ILIM)*%
X108149500Y-124106000D03*
D44*
%TO.P,U36,11,GND*%
%TO.N,GND*%
X106194500Y-124246000D03*
X106194500Y-125966000D03*
D45*
X106424500Y-123556000D03*
X106424500Y-126656000D03*
D44*
X106674500Y-125106000D03*
D46*
X106674500Y-125106000D03*
D45*
X106924500Y-123556000D03*
X106924500Y-126656000D03*
D44*
X107154500Y-124246000D03*
X107154500Y-125966000D03*
%TD*%
D24*
%TO.P,R1,1*%
%TO.N,Net-(U1-PH3)*%
X140580000Y-84604000D03*
%TO.P,R1,2*%
%TO.N,GND*%
X138580000Y-84604000D03*
%TD*%
D32*
%TO.P,C18,1*%
%TO.N,VBUS*%
X102734000Y-106956000D03*
%TO.P,C18,2*%
%TO.N,GND*%
X104809000Y-106956000D03*
%TD*%
D15*
%TO.P,J15,1,Pin_1*%
%TO.N,+3.3V_PWR*%
X133214000Y-65966000D03*
D16*
%TO.P,J15,2,Pin_2*%
%TO.N,Net-(J15-Pin_2)*%
X133214000Y-63966000D03*
%TO.P,J15,3,Pin_3*%
%TO.N,GND*%
X133214000Y-61966000D03*
%TO.P,J15,4,Pin_4*%
%TO.N,Net-(J15-Pin_4)*%
X133214000Y-59966000D03*
%TD*%
D14*
%TO.P,R6,1*%
%TO.N,/Power & Analog/USB2-DP*%
X112164000Y-100923500D03*
%TO.P,R6,2*%
%TO.N,/Power & Analog/USB-DP*%
X114164000Y-100923500D03*
%TD*%
D13*
%TO.P,R30,1*%
%TO.N,+3.3V*%
X161916000Y-86350000D03*
%TO.P,R30,2*%
%TO.N,/CPU/I2C_SCL_INT*%
X161916000Y-84350000D03*
%TD*%
D47*
%TO.P,C33,1*%
%TO.N,+3.3V*%
X171314000Y-92267000D03*
%TO.P,C33,2*%
%TO.N,GND*%
X171314000Y-90192000D03*
%TD*%
D48*
%TO.P,U1,1,PE2*%
%TO.N,unconnected-(U1-PE2-Pad1)*%
X136152000Y-90018000D03*
%TO.P,U1,2,PE3*%
%TO.N,/CPU/ENCODER_3_PHA*%
X136152000Y-90518000D03*
%TO.P,U1,3,PE4*%
%TO.N,/CPU/ENCODER_3_PHB*%
X136152000Y-91018000D03*
%TO.P,U1,4,PE5*%
%TO.N,/CPU/~{POWEROFF}*%
X136152000Y-91518000D03*
%TO.P,U1,5,PE6*%
%TO.N,unconnected-(U1-PE6-Pad5)*%
X136152000Y-92018000D03*
%TO.P,U1,6,VBAT*%
%TO.N,+3.3V*%
X136152000Y-92518000D03*
%TO.P,U1,7,PC13*%
%TO.N,unconnected-(U1-PC13-Pad7)*%
X136152000Y-93018000D03*
%TO.P,U1,8,PC14*%
%TO.N,unconnected-(U1-PC14-Pad8)*%
X136152000Y-93518000D03*
%TO.P,U1,9,PC15*%
%TO.N,unconnected-(U1-PC15-Pad9)*%
X136152000Y-94018000D03*
%TO.P,U1,10,VSS*%
%TO.N,GND*%
X136152000Y-94518000D03*
%TO.P,U1,11,VDD*%
%TO.N,+3.3V*%
X136152000Y-95018000D03*
%TO.P,U1,12,PH0*%
%TO.N,/CPU/CLK_IN_16Mhz*%
X136152000Y-95518000D03*
%TO.P,U1,13,PH1*%
%TO.N,unconnected-(U1-PH1-Pad13)*%
X136152000Y-96018000D03*
%TO.P,U1,14,NRST*%
%TO.N,/CPU/NRST*%
X136152000Y-96518000D03*
%TO.P,U1,15,PC0*%
%TO.N,/CPU/COM_EXT_RX*%
X136152000Y-97018000D03*
%TO.P,U1,16,PC1*%
%TO.N,/CPU/COM_EXT_TX*%
X136152000Y-97518000D03*
%TO.P,U1,17,PC2*%
%TO.N,/CPU/ENCODER_1_PHB*%
X136152000Y-98018000D03*
%TO.P,U1,18,PC3*%
%TO.N,/CPU/US_PulseStart*%
X136152000Y-98518000D03*
%TO.P,U1,19,VSSA*%
%TO.N,GND*%
X136152000Y-99018000D03*
%TO.P,U1,20,VREF-*%
X136152000Y-99518000D03*
%TO.P,U1,21,VREF+*%
%TO.N,+3.3V*%
X136152000Y-100018000D03*
%TO.P,U1,22,VDDA*%
%TO.N,VDDA*%
X136152000Y-100518000D03*
%TO.P,U1,23,PA0*%
%TO.N,/CPU/MOT_PWM1*%
X136152000Y-101018000D03*
%TO.P,U1,24,PA1*%
%TO.N,/CPU/MOT_PWM2*%
X136152000Y-101518000D03*
%TO.P,U1,25,PA2*%
%TO.N,/CPU/MOT_PWM3*%
X136152000Y-102018000D03*
D49*
%TO.P,U1,26,PA3*%
%TO.N,/CPU/MOT_PWM4*%
X137827000Y-103693000D03*
%TO.P,U1,27,VSS*%
%TO.N,GND*%
X138327000Y-103693000D03*
%TO.P,U1,28,VDD*%
%TO.N,+3.3V*%
X138827000Y-103693000D03*
%TO.P,U1,29,PA4*%
%TO.N,/CPU/LED_ACTIVITY*%
X139327000Y-103693000D03*
%TO.P,U1,30,PA5*%
%TO.N,/CPU/PWR_CSLEEP*%
X139827000Y-103693000D03*
%TO.P,U1,31,PA6*%
%TO.N,/CPU/SPI_MISO*%
X140327000Y-103693000D03*
%TO.P,U1,32,PA7*%
%TO.N,/CPU/SPI_MOSI*%
X140827000Y-103693000D03*
%TO.P,U1,33,PC4*%
%TO.N,/CPU/COM_GPS_TX*%
X141327000Y-103693000D03*
%TO.P,U1,34,PC5*%
%TO.N,/CPU/COM_GPS_RX*%
X141827000Y-103693000D03*
%TO.P,U1,35,PB0*%
%TO.N,/CPU/SERVO_PWM2N*%
X142327000Y-103693000D03*
%TO.P,U1,36,PB1*%
%TO.N,/CPU/ENCODER_2_PHA*%
X142827000Y-103693000D03*
%TO.P,U1,37,PB2*%
%TO.N,/CPU/ADC_VBAT*%
X143327000Y-103693000D03*
%TO.P,U1,38,PE7*%
%TO.N,/CPU/INPUT1*%
X143827000Y-103693000D03*
%TO.P,U1,39,PE8*%
%TO.N,/CPU/INPUT2*%
X144327000Y-103693000D03*
%TO.P,U1,40,PE9*%
%TO.N,/CPU/INPUT3*%
X144827000Y-103693000D03*
%TO.P,U1,41,PE10*%
%TO.N,/CPU/INPUT4*%
X145327000Y-103693000D03*
%TO.P,U1,42,PE11*%
%TO.N,/CPU/OUTPUT1*%
X145827000Y-103693000D03*
%TO.P,U1,43,PE12*%
%TO.N,/CPU/OUTPUT2*%
X146327000Y-103693000D03*
%TO.P,U1,44,PE13*%
%TO.N,/CPU/SPI_SCK*%
X146827000Y-103693000D03*
%TO.P,U1,45,PE14*%
%TO.N,/CPU/OUTPUT3*%
X147327000Y-103693000D03*
%TO.P,U1,46,PE15*%
%TO.N,/CPU/OUTPUT4*%
X147827000Y-103693000D03*
%TO.P,U1,47,PB10*%
%TO.N,/CPU/GEN_PWM2*%
X148327000Y-103693000D03*
%TO.P,U1,48,VCAP*%
%TO.N,Net-(U1-VCAP)*%
X148827000Y-103693000D03*
%TO.P,U1,49,VSS*%
%TO.N,GND*%
X149327000Y-103693000D03*
%TO.P,U1,50,VDD*%
%TO.N,+3.3V*%
X149827000Y-103693000D03*
D48*
%TO.P,U1,51,PB12*%
%TO.N,unconnected-(U1-PB12-Pad51)*%
X151502000Y-102018000D03*
%TO.P,U1,52,PB13*%
%TO.N,/CPU/I2C_SCL_EXTERNAL*%
X151502000Y-101518000D03*
%TO.P,U1,53,PB14*%
%TO.N,/CPU/I2C_SDA_EXTERNAL*%
X151502000Y-101018000D03*
%TO.P,U1,54,PB15*%
%TO.N,unconnected-(U1-PB15-Pad54)*%
X151502000Y-100518000D03*
%TO.P,U1,55,PD8*%
%TO.N,unconnected-(U1-PD8-Pad55)*%
X151502000Y-100018000D03*
%TO.P,U1,56,PD9*%
%TO.N,/CPU/ENCODER_2_PHB*%
X151502000Y-99518000D03*
%TO.P,U1,57,PD10*%
%TO.N,unconnected-(U1-PD10-Pad57)*%
X151502000Y-99018000D03*
%TO.P,U1,58,PD11*%
%TO.N,unconnected-(U1-PD11-Pad58)*%
X151502000Y-98518000D03*
%TO.P,U1,59,PD12*%
%TO.N,/CPU/I2C_SCL_ARBITRARY*%
X151502000Y-98018000D03*
%TO.P,U1,60,PD13*%
%TO.N,/CPU/ENCODER_4_PHB*%
X151502000Y-97518000D03*
%TO.P,U1,61,PD14*%
%TO.N,unconnected-(U1-PD14-Pad61)*%
X151502000Y-97018000D03*
%TO.P,U1,62,PD15*%
%TO.N,/CPU/US_PulseEnd*%
X151502000Y-96518000D03*
%TO.P,U1,63,PC6*%
%TO.N,/CPU/SERVO_PWM1*%
X151502000Y-96018000D03*
%TO.P,U1,64,PC7*%
%TO.N,unconnected-(U1-PC7-Pad64)*%
X151502000Y-95518000D03*
%TO.P,U1,65,PC8*%
%TO.N,/CPU/SERVO_PWM3*%
X151502000Y-95018000D03*
%TO.P,U1,66,PC9*%
%TO.N,/CPU/SERVO_PWM4*%
X151502000Y-94518000D03*
%TO.P,U1,67,PA8*%
%TO.N,/CPU/GEN_PWM1*%
X151502000Y-94018000D03*
%TO.P,U1,68,PA9*%
%TO.N,/CPU/COM_USB_TX*%
X151502000Y-93518000D03*
%TO.P,U1,69,PA10*%
%TO.N,/CPU/COM_USB_RX*%
X151502000Y-93018000D03*
%TO.P,U1,70,PA11*%
%TO.N,/CPU/FDCAN1_RX*%
X151502000Y-92518000D03*
%TO.P,U1,71,PA12*%
%TO.N,/CPU/FDCAN1_TX*%
X151502000Y-92018000D03*
%TO.P,U1,72,PA13*%
%TO.N,/CPU/JTMS-SWDIO*%
X151502000Y-91518000D03*
%TO.P,U1,73,VDDUSB*%
%TO.N,+3.3V*%
X151502000Y-91018000D03*
%TO.P,U1,74,VSS*%
%TO.N,GND*%
X151502000Y-90518000D03*
%TO.P,U1,75,VDD*%
%TO.N,+3.3V*%
X151502000Y-90018000D03*
D49*
%TO.P,U1,76,PA14*%
%TO.N,/CPU/JTCK-SWCLK*%
X149827000Y-88343000D03*
%TO.P,U1,77,PA15*%
%TO.N,unconnected-(U1-PA15-Pad77)*%
X149327000Y-88343000D03*
%TO.P,U1,78,PC10*%
%TO.N,/CPU/COM_LIDAR1_TX*%
X148827000Y-88343000D03*
%TO.P,U1,79,PC11*%
%TO.N,/CPU/COM_LIDAR1_RX*%
X148327000Y-88343000D03*
%TO.P,U1,80,PC12*%
%TO.N,/CPU/COM_LIDAR2_TX*%
X147827000Y-88343000D03*
%TO.P,U1,81,PD0*%
%TO.N,/CPU/FDCAN_STBY*%
X147327000Y-88343000D03*
%TO.P,U1,82,PD1*%
%TO.N,unconnected-(U1-PD1-Pad82)*%
X146827000Y-88343000D03*
%TO.P,U1,83,PD2*%
%TO.N,/CPU/COM_LIDAR2_RX*%
X146327000Y-88343000D03*
%TO.P,U1,84,PD3*%
%TO.N,/CPU/INT_MAGNETO*%
X145827000Y-88343000D03*
%TO.P,U1,85,PD4*%
%TO.N,/CPU/INT_IMU*%
X145327000Y-88343000D03*
%TO.P,U1,86,PD5*%
%TO.N,/CPU/INT_PRESSURE*%
X144827000Y-88343000D03*
%TO.P,U1,87,PD6*%
%TO.N,/CPU/INT_LIGHT*%
X144327000Y-88343000D03*
%TO.P,U1,88,PD7*%
%TO.N,/CPU/USER_BTN*%
X143827000Y-88343000D03*
%TO.P,U1,89,PB3*%
%TO.N,/CPU/JTDO-SWO*%
X143327000Y-88343000D03*
%TO.P,U1,90,PB4*%
%TO.N,unconnected-(U1-PB4-Pad90)*%
X142827000Y-88343000D03*
%TO.P,U1,91,PB5*%
%TO.N,/CPU/ENCODER_1_PHA*%
X142327000Y-88343000D03*
%TO.P,U1,92,PB6*%
%TO.N,/CPU/ENCODER_4_PHA*%
X141827000Y-88343000D03*
%TO.P,U1,93,PB7*%
%TO.N,/CPU/I2C_SDA_ARBITRARY*%
X141327000Y-88343000D03*
%TO.P,U1,94,PH3*%
%TO.N,Net-(U1-PH3)*%
X140827000Y-88343000D03*
%TO.P,U1,95,PB8*%
%TO.N,/CPU/I2C_SCL_INT*%
X140327000Y-88343000D03*
%TO.P,U1,96,PB9*%
%TO.N,/CPU/I2C_SDA_INT*%
X139827000Y-88343000D03*
%TO.P,U1,97,PE0*%
%TO.N,/CPU/SPI_CS*%
X139327000Y-88343000D03*
%TO.P,U1,98,PE1*%
%TO.N,unconnected-(U1-PE1-Pad98)*%
X138827000Y-88343000D03*
%TO.P,U1,99,VSS*%
%TO.N,GND*%
X138327000Y-88343000D03*
%TO.P,U1,100,VDD*%
%TO.N,+3.3V*%
X137827000Y-88343000D03*
%TD*%
D20*
%TO.P,U28,1*%
%TO.N,GND*%
X181740000Y-93370000D03*
%TO.P,U28,2*%
%TO.N,/CPU/COM_GPS_RX*%
X182240000Y-93370000D03*
%TO.P,U28,3*%
%TO.N,/CPU/COM_GPS_TX*%
X182740000Y-93370000D03*
%TO.P,U28,4,GND*%
%TO.N,GND*%
X183240000Y-93370000D03*
%TO.P,U28,5*%
%TO.N,/UARTS/UART3_RX*%
X183240000Y-90570000D03*
%TO.P,U28,6*%
%TO.N,/UARTS/UART3_TX*%
X182740000Y-90570000D03*
%TO.P,U28,7*%
%TO.N,GND*%
X182240000Y-90570000D03*
%TO.P,U28,8,VCC*%
%TO.N,+3.3V*%
X181740000Y-90570000D03*
%TD*%
D13*
%TO.P,R11,1*%
%TO.N,Net-(J4-Pin_2)*%
X139916000Y-129292000D03*
%TO.P,R11,2*%
%TO.N,Net-(U4-CH1)*%
X139916000Y-127292000D03*
%TD*%
D32*
%TO.P,C20,1*%
%TO.N,+5V*%
X113402000Y-106956000D03*
%TO.P,C20,2*%
%TO.N,GND*%
X115477000Y-106956000D03*
%TD*%
D24*
%TO.P,R27,1*%
%TO.N,+3.3V_PWR*%
X96892000Y-107718000D03*
%TO.P,R27,2*%
%TO.N,Net-(D6-A)*%
X94892000Y-107718000D03*
%TD*%
D50*
%TO.P,X1,1,EN*%
%TO.N,Net-(JP1-A)*%
X130742000Y-94256000D03*
%TO.P,X1,2,GND*%
%TO.N,GND*%
X128642000Y-94256000D03*
%TO.P,X1,3,OUT*%
%TO.N,/CPU/CLK_IN_16Mhz*%
X128642000Y-95906000D03*
%TO.P,X1,4,Vdd*%
%TO.N,+3.3V*%
X130742000Y-95906000D03*
%TD*%
D18*
%TO.P,U29,1,CH1*%
%TO.N,/UARTS/UART2_TX*%
X187666000Y-86540000D03*
%TO.P,U29,2,VN*%
%TO.N,GND*%
X187666000Y-85590000D03*
%TO.P,U29,3,CH2*%
%TO.N,/UARTS/UART2_RX*%
X187666000Y-84640000D03*
%TO.P,U29,4,CH3*%
%TO.N,unconnected-(U29-CH3-Pad4)*%
X185066000Y-84640000D03*
%TO.P,U29,5,VP*%
%TO.N,+5V*%
X185066000Y-85590000D03*
%TO.P,U29,6,CH4*%
%TO.N,unconnected-(U29-CH4-Pad6)*%
X185066000Y-86540000D03*
%TD*%
D14*
%TO.P,R44,1*%
%TO.N,Net-(U31-CH1)*%
X185538000Y-99844000D03*
%TO.P,R44,2*%
%TO.N,/GPIO SPI GEN_PWM/SPI_CS_EXT*%
X187538000Y-99844000D03*
%TD*%
%TO.P,R3,1*%
%TO.N,Net-(J1-CC2)*%
X98162000Y-98891500D03*
%TO.P,R3,2*%
%TO.N,GND*%
X100162000Y-98891500D03*
%TD*%
D32*
%TO.P,C13,1*%
%TO.N,VBUS*%
X98162000Y-101939500D03*
%TO.P,C13,2*%
%TO.N,GND*%
X100237000Y-101939500D03*
%TD*%
D21*
%TO.P,C35,1*%
%TO.N,+3.3V*%
X118990000Y-78486500D03*
%TO.P,C35,2*%
%TO.N,GND*%
X118990000Y-80561500D03*
%TD*%
D13*
%TO.P,R61,1*%
%TO.N,+3.3V*%
X134874000Y-72882000D03*
%TO.P,R61,2*%
%TO.N,Net-(J15-Pin_4)*%
X134874000Y-70882000D03*
%TD*%
D15*
%TO.P,J10,1,Pin_1*%
%TO.N,+3.3V_PWR*%
X114164000Y-65966000D03*
D16*
%TO.P,J10,2,Pin_2*%
%TO.N,Net-(J10-Pin_2)*%
X114164000Y-63966000D03*
%TO.P,J10,3,Pin_3*%
%TO.N,GND*%
X114164000Y-61966000D03*
%TO.P,J10,4,Pin_4*%
%TO.N,Net-(J10-Pin_4)*%
X114164000Y-59966000D03*
%TD*%
D20*
%TO.P,U26,1*%
%TO.N,GND*%
X181740000Y-87020000D03*
%TO.P,U26,2*%
%TO.N,/CPU/COM_LIDAR2_TX*%
X182240000Y-87020000D03*
%TO.P,U26,3*%
%TO.N,/CPU/COM_LIDAR2_RX*%
X182740000Y-87020000D03*
%TO.P,U26,4,GND*%
%TO.N,GND*%
X183240000Y-87020000D03*
%TO.P,U26,5*%
%TO.N,/UARTS/UART2_RX*%
X183240000Y-84220000D03*
%TO.P,U26,6*%
%TO.N,/UARTS/UART2_TX*%
X182740000Y-84220000D03*
%TO.P,U26,7*%
%TO.N,GND*%
X182240000Y-84220000D03*
%TO.P,U26,8,VCC*%
%TO.N,+3.3V*%
X181740000Y-84220000D03*
%TD*%
D15*
%TO.P,J13,1,Pin_1*%
%TO.N,+3.3V_PWR*%
X145914000Y-65966000D03*
D16*
%TO.P,J13,2,Pin_2*%
%TO.N,Net-(J13-Pin_2)*%
X145914000Y-63966000D03*
%TO.P,J13,3,Pin_3*%
%TO.N,GND*%
X145914000Y-61966000D03*
%TO.P,J13,4,Pin_4*%
%TO.N,Net-(J13-Pin_4)*%
X145914000Y-59966000D03*
%TD*%
D13*
%TO.P,R50,1*%
%TO.N,Net-(R50-Pad1)*%
X174870000Y-141484000D03*
%TO.P,R50,2*%
%TO.N,/GPIO SPI GEN_PWM/GEN_PWM1_EXT*%
X174870000Y-139484000D03*
%TD*%
%TO.P,R59,1*%
%TO.N,+3.3V*%
X128778000Y-72882000D03*
%TO.P,R59,2*%
%TO.N,Net-(J14-Pin_4)*%
X128778000Y-70882000D03*
%TD*%
D32*
%TO.P,C21,1*%
%TO.N,+3.3V_PWR*%
X117974000Y-106956000D03*
%TO.P,C21,2*%
%TO.N,GND*%
X120049000Y-106956000D03*
%TD*%
D51*
%TO.P,U3,1,IN*%
%TO.N,VBUS*%
X102734000Y-110258000D03*
%TO.P,U3,2,GND*%
%TO.N,GND*%
X102734000Y-112558000D03*
D52*
X109034000Y-112558000D03*
D51*
%TO.P,U3,3,OUT*%
%TO.N,+3.3V*%
X102734000Y-114858000D03*
%TD*%
D15*
%TO.P,J25,1,Pin_1*%
%TO.N,+5V*%
X184268000Y-65966000D03*
D16*
%TO.P,J25,2,Pin_2*%
%TO.N,Net-(J25-Pin_2)*%
X184268000Y-63966000D03*
%TO.P,J25,3,Pin_3*%
%TO.N,GND*%
X184268000Y-61966000D03*
%TO.P,J25,4,Pin_4*%
%TO.N,Net-(J25-Pin_4)*%
X184268000Y-59966000D03*
%TD*%
D32*
%TO.P,C10,1*%
%TO.N,+3.3V*%
X133468000Y-87398000D03*
%TO.P,C10,2*%
%TO.N,GND*%
X135543000Y-87398000D03*
%TD*%
D18*
%TO.P,U24,1,CH1*%
%TO.N,Net-(U23-1Y)*%
X173452000Y-123002000D03*
%TO.P,U24,2,VN*%
%TO.N,GND*%
X173452000Y-123952000D03*
%TO.P,U24,3,CH2*%
%TO.N,Net-(U23-2Y)*%
X173452000Y-124902000D03*
%TO.P,U24,4,CH3*%
%TO.N,Net-(U23-3Y)*%
X176052000Y-124902000D03*
%TO.P,U24,5,VP*%
%TO.N,+3.3V*%
X176052000Y-123952000D03*
%TO.P,U24,6,CH4*%
%TO.N,Net-(U23-4Y)*%
X176052000Y-123002000D03*
%TD*%
D21*
%TO.P,C44,1*%
%TO.N,+3.3V*%
X178680000Y-90911000D03*
%TO.P,C44,2*%
%TO.N,GND*%
X178680000Y-92986000D03*
%TD*%
D24*
%TO.P,R15,1*%
%TO.N,Net-(U5-B1Y)*%
X126976000Y-131246500D03*
%TO.P,R15,2*%
%TO.N,Net-(J8-Pad01)*%
X124976000Y-131246500D03*
%TD*%
D14*
%TO.P,R49,1*%
%TO.N,Net-(U31-CH4)*%
X185554000Y-107464000D03*
%TO.P,R49,2*%
%TO.N,/GPIO SPI GEN_PWM/SPI_MOSI_EXT*%
X187554000Y-107464000D03*
%TD*%
D21*
%TO.P,C31,1*%
%TO.N,+3.3V*%
X158614000Y-95504500D03*
%TO.P,C31,2*%
%TO.N,GND*%
X158614000Y-97579500D03*
%TD*%
D12*
%TO.P,R54,1*%
%TO.N,+3.3V*%
X165726000Y-71158000D03*
%TO.P,R54,2*%
%TO.N,/CPU/I2C_SCL_ARBITRARY*%
X165726000Y-73158000D03*
%TD*%
D24*
%TO.P,R23,1*%
%TO.N,Net-(U9-B1Y)*%
X112696500Y-131191000D03*
%TO.P,R23,2*%
%TO.N,Net-(U10-CH1)*%
X110696500Y-131191000D03*
%TD*%
%TO.P,R5,1*%
%TO.N,/Power & Analog/USB-DN*%
X114148000Y-98383500D03*
%TO.P,R5,2*%
%TO.N,/Power & Analog/USB2-DN*%
X112148000Y-98383500D03*
%TD*%
D14*
%TO.P,R45,1*%
%TO.N,/UARTS/UART3_TX*%
X189856000Y-93494000D03*
%TO.P,R45,2*%
%TO.N,Net-(J27-Pin_3)*%
X191856000Y-93494000D03*
%TD*%
D13*
%TO.P,R29,1*%
%TO.N,+3.3V*%
X165726000Y-86350000D03*
%TO.P,R29,2*%
%TO.N,/CPU/I2C_SDA_INT*%
X165726000Y-84350000D03*
%TD*%
D14*
%TO.P,R48,1*%
%TO.N,Net-(U31-CH3)*%
X185554000Y-104924000D03*
%TO.P,R48,2*%
%TO.N,/GPIO SPI GEN_PWM/SPI_MISO_EXT*%
X187554000Y-104924000D03*
%TD*%
%TO.P,R34,1*%
%TO.N,/UARTS/UART2_RX*%
X189856000Y-84328000D03*
%TO.P,R34,2*%
%TO.N,Net-(J19-Pin_4)*%
X191856000Y-84328000D03*
%TD*%
D13*
%TO.P,R14,1*%
%TO.N,Net-(J5-Pin_4)*%
X149626000Y-129276000D03*
%TO.P,R14,2*%
%TO.N,Net-(U4-CH4)*%
X149626000Y-127276000D03*
%TD*%
D53*
%TO.P,U2,1,~{DTR}*%
%TO.N,unconnected-(U2-~{DTR}-Pad1)*%
X104138000Y-93430500D03*
%TO.P,U2,2,~{RTS}*%
%TO.N,unconnected-(U2-~{RTS}-Pad2)*%
X104138000Y-94065500D03*
%TO.P,U2,3,VCCIO*%
%TO.N,Net-(U2-3V3OUT)*%
X104138000Y-94700500D03*
%TO.P,U2,4,RXD*%
%TO.N,/CPU/COM_USB_RX*%
X104138000Y-95335500D03*
%TO.P,U2,5,~{RI}*%
%TO.N,unconnected-(U2-~{RI}-Pad5)*%
X104138000Y-95970500D03*
%TO.P,U2,6,GND*%
%TO.N,GND*%
X104138000Y-96605500D03*
%TO.P,U2,7,~{DSR}*%
%TO.N,unconnected-(U2-~{DSR}-Pad7)*%
X104138000Y-97240500D03*
%TO.P,U2,8,~{DCD}*%
%TO.N,unconnected-(U2-~{DCD}-Pad8)*%
X104138000Y-97875500D03*
%TO.P,U2,9,~{CTS}*%
%TO.N,unconnected-(U2-~{CTS}-Pad9)*%
X104138000Y-98510500D03*
%TO.P,U2,10,CBUS2*%
%TO.N,Net-(D2-K)*%
X104138000Y-99145500D03*
%TO.P,U2,11,USBDP*%
%TO.N,/Power & Analog/USB2-DP*%
X109338000Y-99145500D03*
%TO.P,U2,12,USBDM*%
%TO.N,/Power & Analog/USB2-DN*%
X109338000Y-98510500D03*
%TO.P,U2,13,3V3OUT*%
%TO.N,Net-(U2-3V3OUT)*%
X109338000Y-97875500D03*
%TO.P,U2,14,~{RESET}*%
X109338000Y-97240500D03*
%TO.P,U2,15,VCC*%
%TO.N,/Power & Analog/FT231_VCC*%
X109338000Y-96605500D03*
%TO.P,U2,16,GND*%
%TO.N,GND*%
X109338000Y-95970500D03*
%TO.P,U2,17,CBUS1*%
%TO.N,Net-(D1-K)*%
X109338000Y-95335500D03*
%TO.P,U2,18,CBUS0*%
%TO.N,unconnected-(U2-CBUS0-Pad18)*%
X109338000Y-94700500D03*
%TO.P,U2,19,CBUS3*%
%TO.N,unconnected-(U2-CBUS3-Pad19)*%
X109338000Y-94065500D03*
%TO.P,U2,20,TXD*%
%TO.N,/CPU/COM_USB_TX*%
X109338000Y-93430500D03*
%TD*%
D18*
%TO.P,U22,1,CH1*%
%TO.N,Net-(U22-CH1)*%
X184374000Y-123002000D03*
%TO.P,U22,2,VN*%
%TO.N,GND*%
X184374000Y-123952000D03*
%TO.P,U22,3,CH2*%
%TO.N,Net-(U22-CH2)*%
X184374000Y-124902000D03*
%TO.P,U22,4,CH3*%
%TO.N,Net-(U22-CH3)*%
X186974000Y-124902000D03*
%TO.P,U22,5,VP*%
%TO.N,+3.3V*%
X186974000Y-123952000D03*
%TO.P,U22,6,CH4*%
%TO.N,Net-(U22-CH4)*%
X186974000Y-123002000D03*
%TD*%
D32*
%TO.P,C30,1*%
%TO.N,+3.3V*%
X161386500Y-104775000D03*
%TO.P,C30,2*%
%TO.N,GND*%
X163461500Y-104775000D03*
%TD*%
%TO.P,C14,1*%
%TO.N,/Power & Analog/USB-DP*%
X116704000Y-100923500D03*
%TO.P,C14,2*%
%TO.N,GND*%
X118779000Y-100923500D03*
%TD*%
D12*
%TO.P,R2,1*%
%TO.N,/CPU/GNDDetect*%
X103496000Y-72412000D03*
%TO.P,R2,2*%
%TO.N,GND*%
X103496000Y-74412000D03*
%TD*%
D54*
%TO.P,U25,1,1~{OE}*%
%TO.N,GND*%
X183878000Y-119765000D03*
D55*
%TO.P,U25,2,1A*%
%TO.N,Net-(U22-CH1)*%
X184628000Y-119765000D03*
%TO.P,U25,3,1Y*%
%TO.N,/CPU/INPUT1*%
X185278000Y-119765000D03*
%TO.P,U25,4,2~{OE}*%
%TO.N,GND*%
X185928000Y-119765000D03*
%TO.P,U25,5,2A*%
%TO.N,Net-(U22-CH2)*%
X186578000Y-119765000D03*
%TO.P,U25,6,2Y*%
%TO.N,/CPU/INPUT2*%
X187228000Y-119765000D03*
D54*
%TO.P,U25,7,GND*%
%TO.N,GND*%
X187978000Y-119765000D03*
%TO.P,U25,8,3Y*%
%TO.N,/CPU/INPUT3*%
X187978000Y-113915000D03*
D55*
%TO.P,U25,9,3A*%
%TO.N,Net-(U22-CH3)*%
X187228000Y-113915000D03*
%TO.P,U25,10,3~{OE}*%
%TO.N,GND*%
X186578000Y-113915000D03*
%TO.P,U25,11,4Y*%
%TO.N,/CPU/INPUT4*%
X185928000Y-113915000D03*
%TO.P,U25,12,4A*%
%TO.N,Net-(U22-CH4)*%
X185278000Y-113915000D03*
%TO.P,U25,13,VCC*%
%TO.N,+3.3V*%
X184628000Y-113915000D03*
D54*
%TO.P,U25,14,4~{OE}*%
%TO.N,GND*%
X183878000Y-113915000D03*
%TD*%
D24*
%TO.P,R9,1*%
%TO.N,+5V*%
X96892000Y-110766000D03*
%TO.P,R9,2*%
%TO.N,Net-(D4-A)*%
X94892000Y-110766000D03*
%TD*%
D41*
%TO.P,U30,1*%
%TO.N,GND*%
X173144000Y-105688500D03*
%TO.P,U30,2*%
%TO.N,/CPU/SPI_CS*%
X173794000Y-105688500D03*
%TO.P,U30,3*%
%TO.N,Net-(U31-CH1)*%
X174444000Y-105688500D03*
%TO.P,U30,4*%
%TO.N,GND*%
X175094000Y-105688500D03*
%TO.P,U30,5*%
%TO.N,/CPU/SPI_SCK*%
X175744000Y-105688500D03*
%TO.P,U30,6*%
%TO.N,Net-(U31-CH2)*%
X176394000Y-105688500D03*
%TO.P,U30,7,GND*%
%TO.N,GND*%
X177044000Y-105688500D03*
%TO.P,U30,8*%
%TO.N,/CPU/SPI_MISO*%
X177044000Y-99963500D03*
%TO.P,U30,9*%
%TO.N,Net-(U31-CH3)*%
X176394000Y-99963500D03*
%TO.P,U30,10*%
%TO.N,GND*%
X175744000Y-99963500D03*
%TO.P,U30,11*%
%TO.N,Net-(U31-CH4)*%
X175094000Y-99963500D03*
%TO.P,U30,12*%
%TO.N,/CPU/SPI_MOSI*%
X174444000Y-99963500D03*
%TO.P,U30,13*%
%TO.N,GND*%
X173794000Y-99963500D03*
%TO.P,U30,14,VCC*%
%TO.N,+3.3V*%
X173144000Y-99963500D03*
%TD*%
D56*
%TO.P,U35,1,VCCA*%
%TO.N,+3.3V*%
X172249500Y-71254000D03*
%TO.P,U35,2,SCLA*%
%TO.N,/CPU/I2C_SCL_ARBITRARY*%
X172249500Y-71904000D03*
%TO.P,U35,3,SDAA*%
%TO.N,/CPU/I2C_SDA_ARBITRARY*%
X172249500Y-72554000D03*
%TO.P,U35,4,GND*%
%TO.N,GND*%
X172249500Y-73204000D03*
%TO.P,U35,5,EN*%
%TO.N,+3.3V*%
X176474500Y-73204000D03*
%TO.P,U35,6,SDAB*%
%TO.N,Net-(J23-Pin_2)*%
X176474500Y-72554000D03*
%TO.P,U35,7,SCLB*%
%TO.N,Net-(J23-Pin_4)*%
X176474500Y-71904000D03*
%TO.P,U35,8,VCCB*%
%TO.N,+3.3V*%
X176474500Y-71254000D03*
%TD*%
D13*
%TO.P,R56,1*%
%TO.N,+3.3V*%
X113538000Y-72882000D03*
%TO.P,R56,2*%
%TO.N,Net-(J10-Pin_2)*%
X113538000Y-70882000D03*
%TD*%
D20*
%TO.P,U32,1*%
%TO.N,GND*%
X168414000Y-118240000D03*
%TO.P,U32,2*%
%TO.N,/CPU/GEN_PWM1*%
X168914000Y-118240000D03*
%TO.P,U32,3*%
%TO.N,Net-(R51-Pad1)*%
X169414000Y-118240000D03*
%TO.P,U32,4,GND*%
%TO.N,+3.3V*%
X169914000Y-118240000D03*
%TO.P,U32,5*%
%TO.N,/CPU/GEN_PWM2*%
X169914000Y-115440000D03*
%TO.P,U32,6*%
%TO.N,Net-(R50-Pad1)*%
X169414000Y-115440000D03*
%TO.P,U32,7*%
%TO.N,GND*%
X168914000Y-115440000D03*
%TO.P,U32,8,VCC*%
X168414000Y-115440000D03*
%TD*%
D19*
%TO.P,C17,1*%
%TO.N,+5V*%
X107717500Y-117856000D03*
%TO.P,C17,2*%
%TO.N,GND*%
X105642500Y-117856000D03*
%TD*%
D57*
%TO.P,U14,1,Vdd_IO*%
%TO.N,+3.3V*%
X161653500Y-91211500D03*
%TO.P,U14,2,SCL*%
%TO.N,/CPU/I2C_SCL_INT*%
X161653500Y-91711500D03*
D58*
%TO.P,U14,3,GND*%
%TO.N,GND*%
X161916000Y-92224000D03*
%TO.P,U14,4,SDA*%
%TO.N,/CPU/I2C_SDA_INT*%
X162416000Y-92224000D03*
%TO.P,U14,5,SA0*%
%TO.N,unconnected-(U14-SA0-Pad5)*%
X162916000Y-92224000D03*
D57*
%TO.P,U14,6,~{CS}*%
%TO.N,+3.3V*%
X163178500Y-91711500D03*
%TO.P,U14,7,INT_DRDY*%
%TO.N,/CPU/INT_PRESSURE*%
X163178500Y-91211500D03*
D58*
%TO.P,U14,8,GND_IO*%
%TO.N,GND*%
X162916000Y-90699000D03*
%TO.P,U14,9,GND*%
X162416000Y-90699000D03*
%TO.P,U14,10,VDD*%
%TO.N,+3.3V*%
X161916000Y-90699000D03*
%TD*%
D12*
%TO.P,R51,1*%
%TO.N,Net-(R51-Pad1)*%
X174870000Y-128308000D03*
%TO.P,R51,2*%
%TO.N,/GPIO SPI GEN_PWM/GEN_PWM2_EXT*%
X174870000Y-130308000D03*
%TD*%
D21*
%TO.P,C42,1*%
%TO.N,+3.3V*%
X178680000Y-78254000D03*
%TO.P,C42,2*%
%TO.N,GND*%
X178680000Y-80329000D03*
%TD*%
D13*
%TO.P,R37,1*%
%TO.N,/GPIO SPI GEN_PWM/IN2*%
X179950000Y-130308000D03*
%TO.P,R37,2*%
%TO.N,Net-(U22-CH2)*%
X179950000Y-128308000D03*
%TD*%
D19*
%TO.P,C41,1*%
%TO.N,+3.3V*%
X156625000Y-113560000D03*
%TO.P,C41,2*%
%TO.N,GND*%
X154550000Y-113560000D03*
%TD*%
D13*
%TO.P,R65,1*%
%TO.N,+3.3V*%
X141478000Y-72888000D03*
%TO.P,R65,2*%
%TO.N,Net-(J12-Pin_4)*%
X141478000Y-70888000D03*
%TD*%
%TO.P,R36,1*%
%TO.N,/GPIO SPI GEN_PWM/IN1*%
X177410000Y-130324000D03*
%TO.P,R36,2*%
%TO.N,Net-(U22-CH1)*%
X177410000Y-128324000D03*
%TD*%
D25*
%TO.P,D5,1,K*%
%TO.N,GND*%
X90636500Y-113814000D03*
%TO.P,D5,2,A*%
%TO.N,Net-(D5-A)*%
X92511500Y-113814000D03*
%TD*%
D21*
%TO.P,C43,1*%
%TO.N,+3.3V*%
X178680000Y-84858000D03*
%TO.P,C43,2*%
%TO.N,GND*%
X178680000Y-86933000D03*
%TD*%
D15*
%TO.P,J14,1,Pin_1*%
%TO.N,+3.3V_PWR*%
X126864000Y-65966000D03*
D16*
%TO.P,J14,2,Pin_2*%
%TO.N,Net-(J14-Pin_2)*%
X126864000Y-63966000D03*
%TO.P,J14,3,Pin_3*%
%TO.N,GND*%
X126864000Y-61966000D03*
%TO.P,J14,4,Pin_4*%
%TO.N,Net-(J14-Pin_4)*%
X126864000Y-59966000D03*
%TD*%
D59*
%TO.P,U9,1,VCCA*%
%TO.N,+3.3V*%
X113652500Y-120605000D03*
%TO.P,U9,2,A1*%
%TO.N,/CPU/MOT_PWM1*%
X113652500Y-121255000D03*
%TO.P,U9,3,A2*%
%TO.N,/CPU/MOT_PWM2*%
X113652500Y-121905000D03*
%TO.P,U9,4,A3*%
%TO.N,/CPU/MOT_PWM3*%
X113652500Y-122555000D03*
%TO.P,U9,5,A4*%
%TO.N,/CPU/MOT_PWM4*%
X113652500Y-123205000D03*
%TO.P,U9,6,NC*%
%TO.N,unconnected-(U9-NC-Pad6)*%
X113652500Y-123855000D03*
%TO.P,U9,7,GND*%
%TO.N,GND*%
X113652500Y-124505000D03*
%TO.P,U9,8,OE*%
%TO.N,+3.3V*%
X119392500Y-124505000D03*
%TO.P,U9,9,NC*%
%TO.N,unconnected-(U9-NC-Pad9)*%
X119392500Y-123855000D03*
%TO.P,U9,10,B4Y*%
%TO.N,Net-(U9-B4Y)*%
X119392500Y-123205000D03*
%TO.P,U9,11,B3Y*%
%TO.N,Net-(U9-B3Y)*%
X119392500Y-122555000D03*
%TO.P,U9,12,B2Y*%
%TO.N,Net-(U9-B2Y)*%
X119392500Y-121905000D03*
%TO.P,U9,13,B1Y*%
%TO.N,Net-(U9-B1Y)*%
X119392500Y-121255000D03*
%TO.P,U9,14,VCCB*%
%TO.N,+5V*%
X119392500Y-120605000D03*
%TD*%
D18*
%TO.P,U34,1,CH1*%
%TO.N,/GPIO SPI GEN_PWM/GEN_PWM1_EXT*%
X167610000Y-123002000D03*
%TO.P,U34,2,VN*%
%TO.N,GND*%
X167610000Y-123952000D03*
%TO.P,U34,3,CH2*%
%TO.N,/GPIO SPI GEN_PWM/GEN_PWM2_EXT*%
X167610000Y-124902000D03*
%TO.P,U34,4,CH3*%
%TO.N,unconnected-(U34-CH3-Pad4)*%
X170210000Y-124902000D03*
%TO.P,U34,5,VP*%
%TO.N,+3.3V*%
X170210000Y-123952000D03*
%TO.P,U34,6,CH4*%
%TO.N,unconnected-(U34-CH4-Pad6)*%
X170210000Y-123002000D03*
%TD*%
D30*
%TO.P,J9,01,01*%
%TO.N,Net-(U10-CH1)*%
X111760000Y-140208000D03*
D31*
%TO.P,J9,02,02*%
%TO.N,+5V*%
X111760000Y-137668000D03*
%TO.P,J9,03,03*%
%TO.N,GND*%
X111760000Y-135128000D03*
%TO.P,J9,04,04*%
%TO.N,Net-(U10-CH2)*%
X114300000Y-140208000D03*
%TO.P,J9,05,05*%
%TO.N,+5V*%
X114300000Y-137668000D03*
%TO.P,J9,06,06*%
%TO.N,GND*%
X114300000Y-135128000D03*
%TO.P,J9,07,07*%
%TO.N,Net-(U10-CH3)*%
X116840000Y-140208000D03*
%TO.P,J9,08,08*%
%TO.N,+5V*%
X116840000Y-137668000D03*
%TO.P,J9,09,09*%
%TO.N,GND*%
X116840000Y-135128000D03*
%TO.P,J9,10,10*%
%TO.N,Net-(U10-CH4)*%
X119380000Y-140208000D03*
%TO.P,J9,11,11*%
%TO.N,+5V*%
X119380000Y-137668000D03*
%TO.P,J9,12,12*%
%TO.N,GND*%
X119380000Y-135128000D03*
%TD*%
D15*
%TO.P,J23,1,Pin_1*%
%TO.N,+3.3V_PWR*%
X168266000Y-65966000D03*
D16*
%TO.P,J23,2,Pin_2*%
%TO.N,Net-(J23-Pin_2)*%
X168266000Y-63966000D03*
%TO.P,J23,3,Pin_3*%
%TO.N,GND*%
X168266000Y-61966000D03*
%TO.P,J23,4,Pin_4*%
%TO.N,Net-(J23-Pin_4)*%
X168266000Y-59966000D03*
%TD*%
D18*
%TO.P,U8,1,CH1*%
%TO.N,Net-(U11-1A)*%
X154296000Y-122958000D03*
%TO.P,U8,2,VN*%
%TO.N,GND*%
X154296000Y-123908000D03*
%TO.P,U8,3,CH2*%
%TO.N,Net-(U11-2A)*%
X154296000Y-124858000D03*
%TO.P,U8,4,CH3*%
%TO.N,Net-(U11-3A)*%
X156896000Y-124858000D03*
%TO.P,U8,5,VP*%
%TO.N,+3.3V*%
X156896000Y-123908000D03*
%TO.P,U8,6,CH4*%
%TO.N,Net-(U11-4A)*%
X156896000Y-122958000D03*
%TD*%
D13*
%TO.P,R13,1*%
%TO.N,Net-(J5-Pin_2)*%
X146676000Y-129276000D03*
%TO.P,R13,2*%
%TO.N,Net-(U4-CH3)*%
X146676000Y-127276000D03*
%TD*%
D18*
%TO.P,U4,1,CH1*%
%TO.N,Net-(U4-CH1)*%
X141536000Y-122958000D03*
%TO.P,U4,2,VN*%
%TO.N,GND*%
X141536000Y-123908000D03*
%TO.P,U4,3,CH2*%
%TO.N,Net-(U4-CH2)*%
X141536000Y-124858000D03*
%TO.P,U4,4,CH3*%
%TO.N,Net-(U4-CH3)*%
X144136000Y-124858000D03*
%TO.P,U4,5,VP*%
%TO.N,+3.3V*%
X144136000Y-123908000D03*
%TO.P,U4,6,CH4*%
%TO.N,Net-(U4-CH4)*%
X144136000Y-122958000D03*
%TD*%
D15*
%TO.P,J16,1,Pin_1*%
%TO.N,+3.3V_PWR*%
X152264000Y-65966000D03*
D16*
%TO.P,J16,2,Pin_2*%
%TO.N,Net-(J16-Pin_2)*%
X152264000Y-63966000D03*
%TO.P,J16,3,Pin_3*%
%TO.N,GND*%
X152264000Y-61966000D03*
%TO.P,J16,4,Pin_4*%
%TO.N,Net-(J16-Pin_4)*%
X152264000Y-59966000D03*
%TD*%
D60*
%TO.P,JP1,1,A*%
%TO.N,Net-(JP1-A)*%
X129120000Y-99082000D03*
D61*
%TO.P,JP1,2,B*%
%TO.N,+3.3V*%
X130420000Y-99082000D03*
%TD*%
D15*
%TO.P,J17,1,Pin_1*%
%TO.N,+3.3V_PWR*%
X158614000Y-65966000D03*
D16*
%TO.P,J17,2,Pin_2*%
%TO.N,Net-(J17-Pin_2)*%
X158614000Y-63966000D03*
%TO.P,J17,3,Pin_3*%
%TO.N,GND*%
X158614000Y-61966000D03*
%TO.P,J17,4,Pin_4*%
%TO.N,Net-(J17-Pin_4)*%
X158614000Y-59966000D03*
%TD*%
D14*
%TO.P,R32,1*%
%TO.N,/UARTS/UART1_RX*%
X190008000Y-77724000D03*
%TO.P,R32,2*%
%TO.N,Net-(J18-Pin_4)*%
X192008000Y-77724000D03*
%TD*%
D13*
%TO.P,R20,1*%
%TO.N,Net-(J6-Pin_4)*%
X155976000Y-129292000D03*
%TO.P,R20,2*%
%TO.N,Net-(U11-2A)*%
X155976000Y-127292000D03*
%TD*%
D32*
%TO.P,C34,1*%
%TO.N,+3.3V*%
X167110500Y-99314000D03*
%TO.P,C34,2*%
%TO.N,GND*%
X169185500Y-99314000D03*
%TD*%
D37*
%TO.P,SW2,1,1*%
%TO.N,GND*%
X195750000Y-125156000D03*
D38*
X202250000Y-125156000D03*
%TO.P,SW2,2,2*%
%TO.N,Net-(R72-Pad2)*%
X195750000Y-129656000D03*
X202250000Y-129656000D03*
%TD*%
D41*
%TO.P,U17,1,A0*%
%TO.N,+3.3V*%
X144005000Y-82386500D03*
%TO.P,U17,2,A1*%
%TO.N,GND*%
X144655000Y-82386500D03*
%TO.P,U17,3,A2*%
X145305000Y-82386500D03*
%TO.P,U17,4,~{INT0}*%
%TO.N,unconnected-(U17-~{INT0}-Pad4)*%
X145955000Y-82386500D03*
%TO.P,U17,5,SD0*%
%TO.N,Net-(J12-Pin_2)*%
X146605000Y-82386500D03*
%TO.P,U17,6,SC0*%
%TO.N,Net-(J12-Pin_4)*%
X147255000Y-82386500D03*
%TO.P,U17,7,~{INT1}*%
%TO.N,unconnected-(U17-~{INT1}-Pad7)*%
X147905000Y-82386500D03*
%TO.P,U17,8,SD1*%
%TO.N,Net-(J16-Pin_2)*%
X148555000Y-82386500D03*
%TO.P,U17,9,SC1*%
%TO.N,Net-(J16-Pin_4)*%
X149205000Y-82386500D03*
%TO.P,U17,10,VSS*%
%TO.N,GND*%
X149855000Y-82386500D03*
%TO.P,U17,11,~{INT2}*%
%TO.N,unconnected-(U17-~{INT2}-Pad11)*%
X149855000Y-76661500D03*
%TO.P,U17,12,SD2*%
%TO.N,Net-(J13-Pin_2)*%
X149205000Y-76661500D03*
%TO.P,U17,13,SC2*%
%TO.N,Net-(J13-Pin_4)*%
X148555000Y-76661500D03*
%TO.P,U17,14,~{INT3}*%
%TO.N,unconnected-(U17-~{INT3}-Pad14)*%
X147905000Y-76661500D03*
%TO.P,U17,15,SD3*%
%TO.N,Net-(J17-Pin_2)*%
X147255000Y-76661500D03*
%TO.P,U17,16,SC3*%
%TO.N,Net-(J17-Pin_4)*%
X146605000Y-76661500D03*
%TO.P,U17,17,~{INT}*%
%TO.N,unconnected-(U17-~{INT}-Pad17)*%
X145955000Y-76661500D03*
%TO.P,U17,18,SCL*%
%TO.N,/CPU/I2C_SCL_EXTERNAL*%
X145305000Y-76661500D03*
%TO.P,U17,19,SDA*%
%TO.N,/CPU/I2C_SDA_EXTERNAL*%
X144655000Y-76661500D03*
%TO.P,U17,20,VDD*%
%TO.N,+3.3V*%
X144005000Y-76661500D03*
%TD*%
D13*
%TO.P,R35,1*%
%TO.N,Net-(J25-Pin_2)*%
X180086000Y-63230000D03*
%TO.P,R35,2*%
%TO.N,Net-(J25-Pin_4)*%
X180086000Y-61230000D03*
%TD*%
D24*
%TO.P,R18,1*%
%TO.N,Net-(U5-B4Y)*%
X131040000Y-128452500D03*
%TO.P,R18,2*%
%TO.N,Net-(J8-Pad10)*%
X129040000Y-128452500D03*
%TD*%
D14*
%TO.P,R47,1*%
%TO.N,Net-(U31-CH2)*%
X185538000Y-102384000D03*
%TO.P,R47,2*%
%TO.N,/GPIO SPI GEN_PWM/SPI_CLK_EXT*%
X187538000Y-102384000D03*
%TD*%
%TO.P,R7,1*%
%TO.N,Net-(U2-3V3OUT)*%
X112148000Y-93303500D03*
%TO.P,R7,2*%
%TO.N,Net-(D1-A)*%
X114148000Y-93303500D03*
%TD*%
D24*
%TO.P,R53,1*%
%TO.N,/CPU/ADC_VBAT*%
X98654000Y-81556000D03*
%TO.P,R53,2*%
%TO.N,GND*%
X96654000Y-81556000D03*
%TD*%
D13*
%TO.P,R43,1*%
%TO.N,Net-(U23-4Y)*%
X185030000Y-141500000D03*
%TO.P,R43,2*%
%TO.N,/GPIO SPI GEN_PWM/OUT4*%
X185030000Y-139500000D03*
%TD*%
D47*
%TO.P,C37,1*%
%TO.N,+3.3V*%
X180712000Y-73957500D03*
%TO.P,C37,2*%
%TO.N,GND*%
X180712000Y-71882500D03*
%TD*%
D13*
%TO.P,R38,1*%
%TO.N,/GPIO SPI GEN_PWM/IN3*%
X182490000Y-130308000D03*
%TO.P,R38,2*%
%TO.N,Net-(U22-CH3)*%
X182490000Y-128308000D03*
%TD*%
D32*
%TO.P,C15,1*%
%TO.N,/Power & Analog/USB-DN*%
X116704000Y-98383500D03*
%TO.P,C15,2*%
%TO.N,GND*%
X118779000Y-98383500D03*
%TD*%
D13*
%TO.P,R69,1*%
%TO.N,+3.3V*%
X160528000Y-72882000D03*
%TO.P,R69,2*%
%TO.N,Net-(J17-Pin_4)*%
X160528000Y-70882000D03*
%TD*%
D18*
%TO.P,U31,1,CH1*%
%TO.N,Net-(U31-CH1)*%
X179636000Y-102130000D03*
%TO.P,U31,2,VN*%
%TO.N,GND*%
X179636000Y-103080000D03*
%TO.P,U31,3,CH2*%
%TO.N,Net-(U31-CH2)*%
X179636000Y-104030000D03*
%TO.P,U31,4,CH3*%
%TO.N,Net-(U31-CH3)*%
X182236000Y-104030000D03*
%TO.P,U31,5,VP*%
%TO.N,+3.3V*%
X182236000Y-103080000D03*
%TO.P,U31,6,CH4*%
%TO.N,Net-(U31-CH4)*%
X182236000Y-102130000D03*
%TD*%
D19*
%TO.P,C40,1*%
%TO.N,+3.3V*%
X144157500Y-113560000D03*
%TO.P,C40,2*%
%TO.N,GND*%
X142082500Y-113560000D03*
%TD*%
D13*
%TO.P,R67,1*%
%TO.N,+3.3V*%
X154178000Y-72882000D03*
%TO.P,R67,2*%
%TO.N,Net-(J16-Pin_4)*%
X154178000Y-70882000D03*
%TD*%
D18*
%TO.P,U7,1,CH1*%
%TO.N,Net-(U5-B1Y)*%
X133206000Y-128474500D03*
%TO.P,U7,2,VN*%
%TO.N,GND*%
X133206000Y-129424500D03*
%TO.P,U7,3,CH2*%
%TO.N,Net-(U5-B2Y)*%
X133206000Y-130374500D03*
%TO.P,U7,4,CH3*%
%TO.N,Net-(U5-B3Y)*%
X135806000Y-130374500D03*
%TO.P,U7,5,VP*%
%TO.N,+5V*%
X135806000Y-129424500D03*
%TO.P,U7,6,CH4*%
%TO.N,Net-(U5-B4Y)*%
X135806000Y-128474500D03*
%TD*%
D32*
%TO.P,C9,1*%
%TO.N,+3.3V*%
X133446500Y-84604000D03*
%TO.P,C9,2*%
%TO.N,GND*%
X135521500Y-84604000D03*
%TD*%
D24*
%TO.P,R26,1*%
%TO.N,Net-(U9-B4Y)*%
X116760500Y-128397000D03*
%TO.P,R26,2*%
%TO.N,Net-(U10-CH4)*%
X114760500Y-128397000D03*
%TD*%
D13*
%TO.P,R58,1*%
%TO.N,+3.3V*%
X126238000Y-72882000D03*
%TO.P,R58,2*%
%TO.N,Net-(J14-Pin_2)*%
X126238000Y-70882000D03*
%TD*%
D59*
%TO.P,U5,1,VCCA*%
%TO.N,+3.3V*%
X128186000Y-120660500D03*
%TO.P,U5,2,A1*%
%TO.N,/CPU/SERVO_PWM1*%
X128186000Y-121310500D03*
%TO.P,U5,3,A2*%
%TO.N,/CPU/SERVO_PWM2N*%
X128186000Y-121960500D03*
%TO.P,U5,4,A3*%
%TO.N,/CPU/SERVO_PWM3*%
X128186000Y-122610500D03*
%TO.P,U5,5,A4*%
%TO.N,/CPU/SERVO_PWM4*%
X128186000Y-123260500D03*
%TO.P,U5,6,NC*%
%TO.N,unconnected-(U5-NC-Pad6)*%
X128186000Y-123910500D03*
%TO.P,U5,7,GND*%
%TO.N,GND*%
X128186000Y-124560500D03*
%TO.P,U5,8,OE*%
%TO.N,+3.3V*%
X133926000Y-124560500D03*
%TO.P,U5,9,NC*%
%TO.N,unconnected-(U5-NC-Pad9)*%
X133926000Y-123910500D03*
%TO.P,U5,10,B4Y*%
%TO.N,Net-(U5-B4Y)*%
X133926000Y-123260500D03*
%TO.P,U5,11,B3Y*%
%TO.N,Net-(U5-B3Y)*%
X133926000Y-122610500D03*
%TO.P,U5,12,B2Y*%
%TO.N,Net-(U5-B2Y)*%
X133926000Y-121960500D03*
%TO.P,U5,13,B1Y*%
%TO.N,Net-(U5-B1Y)*%
X133926000Y-121310500D03*
%TO.P,U5,14,VCCB*%
%TO.N,+5V*%
X133926000Y-120660500D03*
%TD*%
D12*
%TO.P,R70,1*%
%TO.N,Net-(J13-Pin_4)*%
X147574000Y-70882000D03*
%TO.P,R70,2*%
%TO.N,+3.3V*%
X147574000Y-72882000D03*
%TD*%
D37*
%TO.P,J20,1,Pin_1*%
%TO.N,+3.3V_PWR*%
X169790000Y-136166000D03*
D62*
%TO.P,J20,2,Pin_2*%
%TO.N,+5V*%
X169790000Y-133626000D03*
%TO.P,J20,3,Pin_3*%
%TO.N,GND*%
X172330000Y-136166000D03*
%TO.P,J20,4,Pin_4*%
X172330000Y-133626000D03*
%TO.P,J20,5,Pin_5*%
%TO.N,/GPIO SPI GEN_PWM/GEN_PWM1_EXT*%
X174870000Y-136166000D03*
%TO.P,J20,6,Pin_6*%
%TO.N,/GPIO SPI GEN_PWM/GEN_PWM2_EXT*%
X174870000Y-133626000D03*
%TO.P,J20,7,Pin_7*%
%TO.N,/GPIO SPI GEN_PWM/OUT1*%
X177410000Y-136166000D03*
%TO.P,J20,8,Pin_8*%
%TO.N,/GPIO SPI GEN_PWM/IN1*%
X177410000Y-133626000D03*
%TO.P,J20,9,Pin_9*%
%TO.N,/GPIO SPI GEN_PWM/OUT2*%
X179950000Y-136166000D03*
%TO.P,J20,10,Pin_10*%
%TO.N,/GPIO SPI GEN_PWM/IN2*%
X179950000Y-133626000D03*
%TO.P,J20,11,Pin_11*%
%TO.N,/GPIO SPI GEN_PWM/OUT3*%
X182490000Y-136166000D03*
%TO.P,J20,12,Pin_12*%
%TO.N,/GPIO SPI GEN_PWM/IN3*%
X182490000Y-133626000D03*
%TO.P,J20,13,Pin_13*%
%TO.N,/GPIO SPI GEN_PWM/OUT4*%
X185030000Y-136166000D03*
%TO.P,J20,14,Pin_14*%
%TO.N,/GPIO SPI GEN_PWM/IN4*%
X185030000Y-133626000D03*
%TD*%
D63*
%TO.P,J26,1,Pin_1*%
%TO.N,GND*%
X92066000Y-82096000D03*
D16*
%TO.P,J26,2,Pin_2*%
%TO.N,Net-(J26-Pin_2)*%
X92066000Y-84096000D03*
%TD*%
D64*
%TO.P,D9,1,A*%
%TO.N,GND*%
X103299500Y-83950000D03*
%TO.P,D9,2,K*%
%TO.N,+3.3V*%
X103299500Y-82050000D03*
%TO.P,D9,3,COM*%
%TO.N,/CPU/ADC_VBAT*%
X101424500Y-83000000D03*
%TD*%
D39*
%TO.P,J22,1,Pin_1*%
%TO.N,+3.3V_PWR*%
X192016000Y-103908000D03*
D40*
%TO.P,J22,2,Pin_2*%
%TO.N,/GPIO SPI GEN_PWM/SPI_CS_EXT*%
X194016000Y-103908000D03*
%TO.P,J22,3,Pin_3*%
%TO.N,/GPIO SPI GEN_PWM/SPI_CLK_EXT*%
X196016000Y-103908000D03*
%TO.P,J22,4,Pin_4*%
%TO.N,GND*%
X198016000Y-103908000D03*
%TO.P,J22,5,Pin_5*%
%TO.N,/GPIO SPI GEN_PWM/SPI_MISO_EXT*%
X200016000Y-103908000D03*
%TO.P,J22,6,Pin_6*%
%TO.N,/GPIO SPI GEN_PWM/SPI_MOSI_EXT*%
X202016000Y-103908000D03*
%TD*%
D14*
%TO.P,R28,1*%
%TO.N,/CPU/LED_ACTIVITY*%
X196730000Y-111258000D03*
%TO.P,R28,2*%
%TO.N,Net-(D7-A)*%
X198730000Y-111258000D03*
%TD*%
D51*
%TO.P,U16,1,IN*%
%TO.N,+5V*%
X113402000Y-110222000D03*
%TO.P,U16,2,GND*%
%TO.N,GND*%
X113402000Y-112522000D03*
D52*
X119702000Y-112522000D03*
D51*
%TO.P,U16,3,OUT*%
%TO.N,+3.3V_PWR*%
X113402000Y-114822000D03*
%TD*%
D32*
%TO.P,C22,1*%
%TO.N,Net-(U36-dV{slash}dT)*%
X105642500Y-120904000D03*
%TO.P,C22,2*%
%TO.N,GND*%
X107717500Y-120904000D03*
%TD*%
D13*
%TO.P,R40,1*%
%TO.N,Net-(U23-1Y)*%
X177410000Y-141500000D03*
%TO.P,R40,2*%
%TO.N,/GPIO SPI GEN_PWM/OUT1*%
X177410000Y-139500000D03*
%TD*%
D32*
%TO.P,C19,1*%
%TO.N,+3.3V*%
X107306000Y-106956000D03*
%TO.P,C19,2*%
%TO.N,GND*%
X109381000Y-106956000D03*
%TD*%
D65*
%TO.P,U13,1,SCL/SPC*%
%TO.N,/CPU/I2C_SCL_INT*%
X161662000Y-100614000D03*
%TO.P,U13,2,NC*%
%TO.N,unconnected-(U13-NC-Pad2)*%
X161662000Y-101114000D03*
%TO.P,U13,3,~{CS}*%
%TO.N,+3.3V*%
X161662000Y-101614000D03*
%TO.P,U13,4,SDA/SDI/SDO*%
%TO.N,/CPU/I2C_SDA_INT*%
X161662000Y-102114000D03*
D66*
%TO.P,U13,5,C1*%
%TO.N,unconnected-(U13-C1-Pad5)*%
X162174500Y-102126500D03*
%TO.P,U13,6,GND*%
%TO.N,GND*%
X162674500Y-102126500D03*
D65*
%TO.P,U13,7,DRDY*%
%TO.N,/CPU/INT_MAGNETO*%
X163187000Y-102114000D03*
%TO.P,U13,8,GND*%
%TO.N,GND*%
X163187000Y-101614000D03*
%TO.P,U13,9,Vdd*%
%TO.N,+3.3V*%
X163187000Y-101114000D03*
%TO.P,U13,10,Vdd_IO*%
X163187000Y-100614000D03*
D66*
%TO.P,U13,11,NC*%
%TO.N,unconnected-(U13-NC-Pad11)*%
X162674500Y-100601500D03*
%TO.P,U13,12,NC*%
%TO.N,unconnected-(U13-NC-Pad12)*%
X162174500Y-100601500D03*
%TD*%
D12*
%TO.P,R72,1*%
%TO.N,/CPU/NRST*%
X192904000Y-127562000D03*
%TO.P,R72,2*%
%TO.N,Net-(R72-Pad2)*%
X192904000Y-129562000D03*
%TD*%
D54*
%TO.P,U23,1,1~{OE}*%
%TO.N,GND*%
X174734000Y-119765000D03*
D55*
%TO.P,U23,2,1A*%
%TO.N,/CPU/OUTPUT1*%
X175484000Y-119765000D03*
%TO.P,U23,3,1Y*%
%TO.N,Net-(U23-1Y)*%
X176134000Y-119765000D03*
%TO.P,U23,4,2~{OE}*%
%TO.N,GND*%
X176784000Y-119765000D03*
%TO.P,U23,5,2A*%
%TO.N,/CPU/OUTPUT2*%
X177434000Y-119765000D03*
%TO.P,U23,6,2Y*%
%TO.N,Net-(U23-2Y)*%
X178084000Y-119765000D03*
D54*
%TO.P,U23,7,GND*%
%TO.N,GND*%
X178834000Y-119765000D03*
%TO.P,U23,8,3Y*%
%TO.N,Net-(U23-3Y)*%
X178834000Y-113915000D03*
D55*
%TO.P,U23,9,3A*%
%TO.N,/CPU/OUTPUT3*%
X178084000Y-113915000D03*
%TO.P,U23,10,3~{OE}*%
%TO.N,GND*%
X177434000Y-113915000D03*
%TO.P,U23,11,4Y*%
%TO.N,Net-(U23-4Y)*%
X176784000Y-113915000D03*
%TO.P,U23,12,4A*%
%TO.N,/CPU/OUTPUT4*%
X176134000Y-113915000D03*
%TO.P,U23,13,VCC*%
%TO.N,+3.3V*%
X175484000Y-113915000D03*
D54*
%TO.P,U23,14,4~{OE}*%
%TO.N,GND*%
X174734000Y-113915000D03*
%TD*%
D39*
%TO.P,J19,1,Pin_1*%
%TO.N,+5V*%
X196000000Y-84762000D03*
D40*
%TO.P,J19,2,Pin_2*%
%TO.N,Net-(J19-Pin_2)*%
X198000000Y-84762000D03*
%TO.P,J19,3,Pin_3*%
%TO.N,GND*%
X200000000Y-84762000D03*
%TO.P,J19,4,Pin_4*%
%TO.N,Net-(J19-Pin_4)*%
X202000000Y-84762000D03*
%TD*%
D15*
%TO.P,J24,1,Pin_1*%
%TO.N,+3.3V_PWR*%
X174616000Y-65966000D03*
D16*
%TO.P,J24,2,Pin_2*%
%TO.N,Net-(J23-Pin_2)*%
X174616000Y-63966000D03*
%TO.P,J24,3,Pin_3*%
%TO.N,GND*%
X174616000Y-61966000D03*
%TO.P,J24,4,Pin_4*%
%TO.N,Net-(J23-Pin_4)*%
X174616000Y-59966000D03*
%TD*%
D13*
%TO.P,R22,1*%
%TO.N,Net-(J7-Pin_4)*%
X162326000Y-129292000D03*
%TO.P,R22,2*%
%TO.N,Net-(U11-4A)*%
X162326000Y-127292000D03*
%TD*%
D24*
%TO.P,R25,1*%
%TO.N,Net-(U9-B3Y)*%
X116760500Y-131191000D03*
%TO.P,R25,2*%
%TO.N,Net-(U10-CH3)*%
X114760500Y-131191000D03*
%TD*%
D67*
%TO.P,J1,A1,GND*%
%TO.N,GND*%
X94730000Y-93405500D03*
%TO.P,J1,A4,VBUS*%
%TO.N,VBUS*%
X94730000Y-94205500D03*
D68*
%TO.P,J1,A5,CC1*%
%TO.N,Net-(J1-CC1)*%
X94730000Y-95355500D03*
%TO.P,J1,A6,D+*%
%TO.N,/Power & Analog/USB-DN*%
X94730000Y-96355500D03*
%TO.P,J1,A7,D-*%
X94730000Y-96855500D03*
%TO.P,J1,A8*%
%TO.N,N/C*%
X94730000Y-97855500D03*
D67*
%TO.P,J1,A9,VBUS*%
%TO.N,VBUS*%
X94730000Y-99005500D03*
%TO.P,J1,A12,GND*%
%TO.N,GND*%
X94730000Y-99805500D03*
%TO.P,J1,B1,GND*%
X94730000Y-99805500D03*
%TO.P,J1,B4,VBUS*%
%TO.N,VBUS*%
X94730000Y-99005500D03*
D68*
%TO.P,J1,B5,CC2*%
%TO.N,Net-(J1-CC2)*%
X94730000Y-98355500D03*
%TO.P,J1,B6,D+*%
%TO.N,/Power & Analog/USB-DP*%
X94730000Y-97355500D03*
%TO.P,J1,B7,D-*%
X94730000Y-95855500D03*
%TO.P,J1,B8*%
%TO.N,N/C*%
X94730000Y-94855500D03*
D67*
%TO.P,J1,B9,VBUS*%
%TO.N,VBUS*%
X94730000Y-94205500D03*
%TO.P,J1,B12,GND*%
%TO.N,GND*%
X94730000Y-93405500D03*
D69*
%TO.P,J1,S1,SHIELD*%
X94155000Y-92285500D03*
D70*
X89975000Y-92285500D03*
D69*
X94155000Y-100925500D03*
D70*
X89975000Y-100925500D03*
%TD*%
D24*
%TO.P,R74,1*%
%TO.N,Net-(U36-EN{slash}UVLO)*%
X102092000Y-123444000D03*
%TO.P,R74,2*%
%TO.N,GND*%
X100092000Y-123444000D03*
%TD*%
D60*
%TO.P,JP2,1,A*%
%TO.N,+3.3V*%
X129120000Y-102130000D03*
D61*
%TO.P,JP2,2,B*%
%TO.N,VDDA*%
X130420000Y-102130000D03*
%TD*%
D17*
%TO.P,D2,1,K*%
%TO.N,Net-(D2-K)*%
X118325000Y-95843500D03*
%TO.P,D2,2,A*%
%TO.N,Net-(D2-A)*%
X116450000Y-95843500D03*
%TD*%
D14*
%TO.P,R33,1*%
%TO.N,/UARTS/UART2_TX*%
X189856000Y-86890000D03*
%TO.P,R33,2*%
%TO.N,Net-(J19-Pin_2)*%
X191856000Y-86890000D03*
%TD*%
D24*
%TO.P,R10,1*%
%TO.N,+3.3V*%
X96908000Y-113814000D03*
%TO.P,R10,2*%
%TO.N,Net-(D5-A)*%
X94908000Y-113814000D03*
%TD*%
D71*
%TO.N,/Power & Analog/USB-DP*%
X96202500Y-97472500D03*
X115570000Y-100923500D03*
D72*
%TO.N,+3.3V_PWR*%
X116205000Y-114935000D03*
X116792000Y-105410000D03*
D73*
X99060000Y-107950000D03*
D71*
%TO.N,Net-(U1-VCAP)*%
X147320000Y-101917500D03*
D73*
%TO.N,VBUS*%
X96520000Y-93345000D03*
X96520000Y-99695000D03*
X101917500Y-103822500D03*
D71*
%TO.N,Net-(U2-3V3OUT)*%
X105727500Y-94297500D03*
X106354500Y-97234000D03*
D73*
%TO.N,+5V*%
X108204000Y-127254000D03*
X135890000Y-120650000D03*
X121285000Y-120650000D03*
X123190000Y-129222500D03*
X99060000Y-111125000D03*
X183838232Y-85404017D03*
X183832500Y-91757500D03*
X190080000Y-74295000D03*
X183533725Y-79038775D03*
X137160000Y-129540000D03*
X111760000Y-108585000D03*
X109474000Y-117856000D03*
%TO.N,/Power & Analog/FT231_VCC*%
X101917500Y-93345000D03*
X107648000Y-96980000D03*
D71*
%TO.N,/CPU/ENCODER_2_PHA*%
X149225000Y-117157500D03*
X148272500Y-120332500D03*
%TO.N,/CPU/COM_GPS_TX*%
X162525000Y-111760000D03*
X150217772Y-111679456D03*
X143510000Y-110959997D03*
X140098044Y-106402772D03*
X140052500Y-110807500D03*
X182562500Y-95885000D03*
%TO.N,/CPU/COM_LIDAR2_RX*%
X180657500Y-89382503D03*
X146367500Y-86360000D03*
X173037500Y-81550000D03*
X154470003Y-83185000D03*
%TO.N,/CPU/ENCODER_4_PHB*%
X155892500Y-97472500D03*
X156527500Y-118427500D03*
%TO.N,/CPU/COM_LIDAR2_TX*%
X153670000Y-83185000D03*
X173990000Y-80962500D03*
X180657500Y-88582500D03*
X148272500Y-85725000D03*
%TO.N,/CPU/SERVO_PWM3*%
X140652500Y-95250000D03*
X137477500Y-108267500D03*
%TO.N,/CPU/ENCODER_2_PHB*%
X148907500Y-118745000D03*
X149542500Y-99695000D03*
%TO.N,Net-(U10-CH2)*%
X119062500Y-131762500D03*
%TO.N,/CPU/ENCODER_3_PHB*%
X142240000Y-96837500D03*
X153705000Y-120015000D03*
%TO.N,/CPU/FDCAN1_TX*%
X183197500Y-70485000D03*
X155892500Y-92710000D03*
X178752500Y-74930000D03*
X157797500Y-77152500D03*
%TO.N,/CPU/GEN_PWM2*%
X147637500Y-109115000D03*
X148427000Y-105727500D03*
%TO.N,/CPU/COM_GPS_RX*%
X140652500Y-106997500D03*
X161972500Y-112395000D03*
X143510000Y-111760000D03*
X149860000Y-112395000D03*
X140652500Y-111760000D03*
X181610000Y-95885000D03*
%TO.N,/CPU/ENCODER_4_PHA*%
X156845000Y-120650000D03*
X141927000Y-86360000D03*
%TO.N,Net-(U10-CH1)*%
X119062500Y-126682500D03*
%TO.N,Net-(J10-Pin_4)*%
X125105093Y-83820807D03*
X116078000Y-69088000D03*
%TO.N,Net-(J11-Pin_2)*%
X118745000Y-69215000D03*
X127317500Y-74930000D03*
%TO.N,/CPU/NRST*%
X192722500Y-126047500D03*
X134302500Y-96520000D03*
X120015000Y-88582500D03*
%TO.N,/CPU/SPI_MOSI*%
X144422228Y-101998044D03*
X151765000Y-106680000D03*
X171132500Y-102235000D03*
X168910000Y-103822500D03*
%TO.N,/CPU/SPI_MISO*%
X176530000Y-102552500D03*
X144780000Y-101282500D03*
X178117500Y-100012500D03*
X151130000Y-105727500D03*
%TO.N,Net-(J12-Pin_2)*%
X146050000Y-80327500D03*
%TO.N,/CPU/SERVO_PWM4*%
X137835272Y-108983044D03*
X141139389Y-94553763D03*
%TO.N,/CPU/JTMS-SWDIO*%
X156527500Y-91122500D03*
X154940000Y-77470000D03*
%TO.N,/CPU/COM_USB_RX*%
X109378750Y-90328750D03*
X140970000Y-92392500D03*
X131500524Y-89782549D03*
X105727500Y-95567500D03*
%TO.N,/CPU/ADC_VBAT*%
X143510000Y-108902500D03*
X100965000Y-85725000D03*
%TO.N,/CPU/GEN_PWM1*%
X157480000Y-93662500D03*
X167957500Y-120015000D03*
%TO.N,Net-(J12-Pin_4)*%
X141605000Y-68580000D03*
X147002500Y-80327500D03*
%TO.N,/CPU/JTCK-SWCLK*%
X154305000Y-76835000D03*
X150495000Y-86995000D03*
%TO.N,/CPU/I2C_SCL_INT*%
X160655000Y-91440000D03*
X160020000Y-81550000D03*
X140227000Y-85988500D03*
X161925000Y-99642503D03*
X142242387Y-85374887D03*
X162560000Y-94297500D03*
X160020000Y-84455000D03*
%TO.N,/CPU/SPI_SCK*%
X146367500Y-101917500D03*
X150495000Y-106680000D03*
%TO.N,/CPU/FDCAN1_RX*%
X155257500Y-93345000D03*
X158467500Y-76517500D03*
%TO.N,/CPU/COM_LIDAR1_TX*%
X149542500Y-85442500D03*
X149242500Y-86695000D03*
%TO.N,/CPU/ENCODER_1_PHB*%
X141605000Y-120015000D03*
X133350000Y-98107500D03*
%TO.N,/CPU/JTDO-SWO*%
X142641521Y-86719810D03*
X153352500Y-77470000D03*
%TO.N,Net-(J14-Pin_4)*%
X126682500Y-80645000D03*
X128905000Y-68580000D03*
%TO.N,/CPU/ENCODER_1_PHA*%
X141560503Y-118018000D03*
X142327000Y-89852500D03*
%TO.N,/CPU/COM_USB_TX*%
X140970000Y-93662500D03*
X131437708Y-90580081D03*
%TO.N,/CPU/SERVO_PWM1*%
X129857500Y-120967500D03*
X157127500Y-96837500D03*
D73*
%TO.N,GND*%
X134620000Y-127000000D03*
X128587500Y-92710000D03*
X123190000Y-80645000D03*
X171132500Y-74612500D03*
X183832500Y-112395000D03*
X126047500Y-124295000D03*
X110807500Y-124460000D03*
X182945000Y-123825000D03*
X149860000Y-80645000D03*
X169227500Y-100965000D03*
X181927500Y-70485000D03*
X177482500Y-112395000D03*
X152717500Y-114300000D03*
X176847500Y-117475000D03*
X166052500Y-123825000D03*
D71*
X168389000Y-116840000D03*
D73*
X158432500Y-115252500D03*
X100237000Y-100409000D03*
X138795003Y-89852500D03*
X177590000Y-103080000D03*
X159385000Y-93662500D03*
X140017500Y-123825000D03*
X158432500Y-99060000D03*
X107489250Y-84629250D03*
X173355000Y-119697500D03*
X164465000Y-89852500D03*
X189547500Y-119697500D03*
X106314500Y-112558000D03*
X186372500Y-93980000D03*
X186055000Y-117475000D03*
X101869500Y-76835000D03*
X186372500Y-87630000D03*
X165100000Y-104457500D03*
X176889000Y-92986000D03*
X202565000Y-109220000D03*
X174625000Y-112395000D03*
X138430000Y-101917500D03*
X171767500Y-124777500D03*
X128620500Y-106680000D03*
X176847500Y-80327500D03*
X116474500Y-112522000D03*
X149860000Y-90487500D03*
X152400000Y-123825000D03*
X140335000Y-114300000D03*
X119851500Y-82386500D03*
X137795000Y-94297500D03*
X146050000Y-115252500D03*
X147320000Y-100965000D03*
X127635000Y-80645000D03*
X186690000Y-112395000D03*
X186372500Y-80962500D03*
X181292500Y-119765000D03*
X177244000Y-96726000D03*
X163512500Y-98742500D03*
X176847500Y-86995000D03*
X188277500Y-70167500D03*
X101092000Y-117856000D03*
X171132500Y-88582500D03*
X138580000Y-81130000D03*
X144696500Y-80561500D03*
X120650000Y-126682500D03*
X137795000Y-99377500D03*
D71*
%TO.N,/CPU/ENCODER_3_PHA*%
X150495000Y-116030000D03*
X142597772Y-96121956D03*
%TO.N,Net-(J14-Pin_2)*%
X125095000Y-68580000D03*
X125730000Y-80645000D03*
%TO.N,Net-(J16-Pin_4)*%
X149223602Y-80008602D03*
X154305000Y-68580000D03*
%TO.N,Net-(J16-Pin_2)*%
X148272500Y-80010000D03*
D73*
%TO.N,+3.3V*%
X132080000Y-99060000D03*
X158432500Y-88900000D03*
X128984000Y-116538000D03*
X159258000Y-72882000D03*
X184150000Y-115570000D03*
X186324500Y-96599000D03*
X174942500Y-115570000D03*
X143341521Y-82550000D03*
X188530000Y-123825000D03*
X140208000Y-72882000D03*
X177800000Y-123825000D03*
X121110000Y-124412000D03*
X106680000Y-105410000D03*
X115014000Y-116538000D03*
X137795000Y-89852500D03*
D71*
X170180000Y-120015000D03*
D73*
X149860000Y-91487503D03*
X160020000Y-105092500D03*
X149863909Y-101977204D03*
X137795000Y-95297503D03*
X161925000Y-98742500D03*
X133604000Y-72882000D03*
X127508000Y-72882000D03*
X133985000Y-88900000D03*
X158432500Y-123825000D03*
X176847500Y-78105000D03*
X120904000Y-72882000D03*
X141778500Y-76661500D03*
X176847500Y-90911000D03*
X176847500Y-84772500D03*
X171767500Y-123190000D03*
X171767500Y-94615000D03*
X132080000Y-95906000D03*
X94615000Y-78105000D03*
X135890000Y-125095000D03*
X153352500Y-89852500D03*
X165735000Y-97472500D03*
X158115000Y-113665000D03*
X146050000Y-113665000D03*
X119380000Y-76835000D03*
X152908000Y-72882000D03*
X145732500Y-123825000D03*
X146304000Y-72882000D03*
X183832500Y-104140000D03*
X103505000Y-80010000D03*
X158432500Y-93980000D03*
X139430003Y-101917500D03*
X137795000Y-92392500D03*
X100330000Y-114935000D03*
X161925000Y-88900000D03*
X114808000Y-72882000D03*
D71*
%TO.N,/GPIO SPI GEN_PWM/SPI_CLK_EXT*%
X189230000Y-102552500D03*
%TO.N,Net-(U4-CH1)*%
X142557500Y-121920000D03*
X142148000Y-117475000D03*
%TO.N,Net-(U5-B1Y)*%
X133032500Y-126682500D03*
X127635000Y-126047500D03*
%TO.N,Net-(U5-B2Y)*%
X134620000Y-130492500D03*
X128587500Y-126682500D03*
%TO.N,Net-(U11-1A)*%
X154552500Y-117475000D03*
X155257500Y-121920000D03*
%TO.N,/CPU/LED_ACTIVITY*%
X139382500Y-106045000D03*
X139382500Y-108902500D03*
%TO.N,/CPU/I2C_SDA_INT*%
X164465000Y-92710000D03*
X153352500Y-94618000D03*
X167957500Y-94297500D03*
X144780000Y-91757500D03*
%TO.N,Net-(U22-CH3)*%
X187007500Y-126047500D03*
X187325000Y-115252500D03*
%TO.N,Net-(U23-1Y)*%
X176212500Y-138112500D03*
X173672500Y-121285000D03*
%TO.N,Net-(U23-3Y)*%
X178752500Y-115570000D03*
X181292500Y-138112500D03*
X177482500Y-125095000D03*
%TO.N,Net-(U23-4Y)*%
X177482500Y-122872500D03*
X176847500Y-115570000D03*
X183832500Y-138112500D03*
%TO.N,Net-(U31-CH1)*%
X183515000Y-99695000D03*
X174307500Y-106997500D03*
%TO.N,Net-(U31-CH3)*%
X176530000Y-98425000D03*
X183197500Y-105092500D03*
%TO.N,Net-(U31-CH4)*%
X183515000Y-102870000D03*
X177800000Y-101600000D03*
%TO.N,Net-(R50-Pad1)*%
X169545000Y-113347500D03*
X172720000Y-139065000D03*
%TO.N,/CPU/I2C_SCL_ARBITRARY*%
X164147500Y-73342500D03*
X156527500Y-98107500D03*
%TO.N,/CPU/USER_BTN*%
X141922500Y-83502500D03*
X143510000Y-84137500D03*
X143827500Y-86360000D03*
X150812500Y-56832500D03*
%TO.N,/CPU/FDCAN_STBY*%
X184467500Y-75247500D03*
X186055000Y-70485000D03*
%TO.N,/CPU/INPUT3*%
X179705000Y-110490000D03*
X166418108Y-110604000D03*
%TO.N,/CPU/INPUT2*%
X168091062Y-111101444D03*
X180975000Y-112077500D03*
%TO.N,/CPU/I2C_SDA_EXTERNAL*%
X137760000Y-80010000D03*
X144145000Y-99665000D03*
%TO.N,/CPU/I2C_SCL_EXTERNAL*%
X143510000Y-100330000D03*
X137477500Y-78740000D03*
%TO.N,/CPU/OUTPUT3*%
X147227000Y-106045000D03*
X148427000Y-106890735D03*
%TO.N,/CPU/INT_PRESSURE*%
X157132500Y-86677500D03*
X157132500Y-83185000D03*
%TO.N,/CPU/INT_IMU*%
X156845000Y-100647500D03*
X160337500Y-98742500D03*
X154622500Y-99695000D03*
X145327000Y-90082000D03*
%TO.N,/CPU/SPI_CS*%
X166322000Y-105410000D03*
X153987500Y-98707500D03*
X168592500Y-106045000D03*
X145580003Y-91757500D03*
%TO.N,/CPU/INPUT4*%
X180022500Y-111442500D03*
X167592000Y-110442000D03*
%TO.N,/CPU/INT_MAGNETO*%
X153352500Y-96837500D03*
X146685000Y-89852500D03*
X161020000Y-103187500D03*
X146367500Y-92980000D03*
X164465000Y-102235000D03*
X148907500Y-91122500D03*
%TO.N,/CPU/INPUT1*%
X180022500Y-112712500D03*
X168608000Y-111712000D03*
%TO.N,/CPU/INT_LIGHT*%
X160972500Y-87947500D03*
X169862500Y-96100000D03*
%TO.N,/Power & Analog/USB-DN*%
X96202500Y-96520000D03*
X115570000Y-98383500D03*
%TD*%
D74*
%TO.N,/Power & Analog/USB-DP*%
X93345000Y-97155000D02*
X93545500Y-97355500D01*
X94730000Y-97355500D02*
X96085500Y-97355500D01*
X114164000Y-100923500D02*
X115570000Y-100923500D01*
X96085500Y-97355500D02*
X96202500Y-97472500D01*
X115570000Y-100923500D02*
X116704000Y-100923500D01*
X94730000Y-95855500D02*
X93532500Y-95855500D01*
X93532500Y-95855500D02*
X93345000Y-96043000D01*
X93545500Y-97355500D02*
X94730000Y-97355500D01*
X93345000Y-96043000D02*
X93345000Y-97155000D01*
D75*
%TO.N,+3.3V_PWR*%
X116092000Y-114822000D02*
X113628000Y-114822000D01*
D76*
X117475000Y-105410000D02*
X117974000Y-105909000D01*
X113515000Y-114935000D02*
X113402000Y-114822000D01*
D75*
X113628000Y-114822000D02*
X113515000Y-114935000D01*
D77*
X96892000Y-107718000D02*
X98828000Y-107718000D01*
X98828000Y-107718000D02*
X99060000Y-107950000D01*
D76*
X117974000Y-105909000D02*
X117974000Y-106956000D01*
D75*
X116205000Y-114935000D02*
X116092000Y-114822000D01*
D76*
X116792000Y-105410000D02*
X117475000Y-105410000D01*
D74*
%TO.N,Net-(U1-VCAP)*%
X148850000Y-102927500D02*
X148850000Y-102812500D01*
X147955000Y-101917500D02*
X147320000Y-101917500D01*
X148850000Y-102812500D02*
X147955000Y-101917500D01*
X148827000Y-103693000D02*
X148827000Y-102950500D01*
X148827000Y-102950500D02*
X148850000Y-102927500D01*
D78*
%TO.N,VDDA*%
X130420000Y-104648500D02*
X130695500Y-104924000D01*
X130695500Y-104924000D02*
X130695500Y-108204500D01*
D79*
X136152000Y-100518000D02*
X131257000Y-100518000D01*
D78*
X130695500Y-108204500D02*
X130674000Y-108226000D01*
X130420000Y-102130000D02*
X130420000Y-104648500D01*
D79*
X130420000Y-101355000D02*
X130420000Y-102130000D01*
X131257000Y-100518000D02*
X130420000Y-101355000D01*
D78*
%TO.N,VBUS*%
X95428394Y-99005500D02*
X95482894Y-99060000D01*
D76*
X96561500Y-93303500D02*
X98028000Y-93303500D01*
D80*
X101917500Y-103822500D02*
X102734000Y-104639000D01*
D81*
X95885000Y-93980000D02*
X96520000Y-93345000D01*
D78*
X95482894Y-99060000D02*
X95885000Y-99060000D01*
X94730000Y-99005500D02*
X95428394Y-99005500D01*
D80*
X102734000Y-110258000D02*
X102734000Y-104639000D01*
D78*
X95659500Y-94205500D02*
X95885000Y-93980000D01*
X94730000Y-94205500D02*
X95659500Y-94205500D01*
D76*
X96520000Y-93345000D02*
X96561500Y-93303500D01*
D80*
X96520000Y-99695000D02*
X96520000Y-100297500D01*
D81*
X95885000Y-99060000D02*
X96520000Y-99695000D01*
D80*
X96520000Y-100297500D02*
X98162000Y-101939500D01*
D74*
%TO.N,Net-(U2-3V3OUT)*%
X105324500Y-94700500D02*
X104138000Y-94700500D01*
X109338000Y-97240500D02*
X109338000Y-97875500D01*
X112148000Y-95843500D02*
X112148000Y-93303500D01*
X106996000Y-97875500D02*
X109338000Y-97875500D01*
X105782000Y-89239500D02*
X105782000Y-94243000D01*
X110751000Y-97240500D02*
X112148000Y-95843500D01*
X109338000Y-97240500D02*
X110751000Y-97240500D01*
X105782000Y-94243000D02*
X105324500Y-94700500D01*
X106354500Y-97234000D02*
X106996000Y-97875500D01*
%TO.N,Net-(D6-A)*%
X92511500Y-107718000D02*
X94892000Y-107718000D01*
D77*
%TO.N,+5V*%
X189742500Y-73957500D02*
X190080000Y-74295000D01*
X188078000Y-73957500D02*
X189742500Y-73957500D01*
X135879500Y-120660500D02*
X135890000Y-120650000D01*
X133926000Y-120660500D02*
X135879500Y-120660500D01*
D81*
X108149500Y-127199500D02*
X108204000Y-127254000D01*
D77*
X137044500Y-129424500D02*
X137160000Y-129540000D01*
D80*
X113402000Y-108585000D02*
X113402000Y-110222000D01*
D74*
X184024215Y-85590000D02*
X183838232Y-85404017D01*
D77*
X121240000Y-120605000D02*
X121285000Y-120650000D01*
X185951500Y-73987000D02*
X188048500Y-73987000D01*
X119392500Y-120605000D02*
X121240000Y-120605000D01*
D80*
X107717500Y-117856000D02*
X109474000Y-117856000D01*
D74*
X185066000Y-85590000D02*
X184024215Y-85590000D01*
D77*
X121720500Y-129115000D02*
X123082500Y-129115000D01*
D74*
X183556500Y-79016000D02*
X183533725Y-79038775D01*
D81*
X108149500Y-127199500D02*
X108149500Y-125606000D01*
D74*
X184045000Y-91970000D02*
X183832500Y-91757500D01*
X185078000Y-91970000D02*
X184045000Y-91970000D01*
D77*
X188048500Y-73987000D02*
X188078000Y-73957500D01*
D80*
X113402000Y-106956000D02*
X113402000Y-108585000D01*
X111760000Y-108585000D02*
X113402000Y-108585000D01*
D77*
X98701000Y-110766000D02*
X99060000Y-111125000D01*
X123082500Y-129115000D02*
X123190000Y-129222500D01*
X135806000Y-129424500D02*
X137044500Y-129424500D01*
D74*
X185000000Y-79016000D02*
X183556500Y-79016000D01*
D81*
X108149500Y-125606000D02*
X108149500Y-125396000D01*
D77*
X96892000Y-110766000D02*
X98701000Y-110766000D01*
D74*
%TO.N,Net-(D1-K)*%
X110404500Y-95335500D02*
X110807500Y-94932500D01*
X110807500Y-94932500D02*
X110807500Y-92392500D01*
X110807500Y-92392500D02*
X111125000Y-92075000D01*
X111125000Y-92075000D02*
X117096500Y-92075000D01*
X109338000Y-95335500D02*
X110404500Y-95335500D01*
X117096500Y-92075000D02*
X118325000Y-93303500D01*
D79*
%TO.N,Net-(D7-A)*%
X198730000Y-111258000D02*
X200840500Y-111258000D01*
X200840500Y-111258000D02*
X200856500Y-111274000D01*
D74*
%TO.N,Net-(D1-A)*%
X114148000Y-93303500D02*
X116450000Y-93303500D01*
D78*
%TO.N,/Power & Analog/FT231_VCC*%
X100328000Y-93303500D02*
X101876000Y-93303500D01*
X107648000Y-96980000D02*
X108022500Y-96605500D01*
X101876000Y-93303500D02*
X101917500Y-93345000D01*
X108022500Y-96605500D02*
X109338000Y-96605500D01*
D79*
%TO.N,Net-(J4-Pin_2)*%
X140547000Y-137372000D02*
X140996000Y-137372000D01*
X139382500Y-136207500D02*
X140547000Y-137372000D01*
X139382500Y-129825500D02*
X139382500Y-136207500D01*
X139916000Y-129292000D02*
X139382500Y-129825500D01*
%TO.N,Net-(J4-Pin_4)*%
X142866000Y-129292000D02*
X142866000Y-132724000D01*
X142218000Y-133372000D02*
X140996000Y-133372000D01*
X142866000Y-132724000D02*
X142218000Y-133372000D01*
D74*
%TO.N,Net-(D2-A)*%
X114148000Y-95843500D02*
X116450000Y-95843500D01*
%TO.N,Net-(D2-K)*%
X106680000Y-99377500D02*
X106680000Y-101600000D01*
X117792500Y-101917500D02*
X117792500Y-96376000D01*
X106680000Y-101600000D02*
X107315000Y-102235000D01*
X107315000Y-102235000D02*
X117475000Y-102235000D01*
X106448000Y-99145500D02*
X106680000Y-99377500D01*
X117792500Y-96376000D02*
X118325000Y-95843500D01*
X117475000Y-102235000D02*
X117792500Y-101917500D01*
X104138000Y-99145500D02*
X106448000Y-99145500D01*
D79*
%TO.N,Net-(J5-Pin_4)*%
X149626000Y-129276000D02*
X149626000Y-131996500D01*
X149626000Y-131996500D02*
X148250500Y-133372000D01*
X148250500Y-133372000D02*
X147438000Y-133372000D01*
D74*
%TO.N,Net-(D4-A)*%
X92511500Y-110766000D02*
X94892000Y-110766000D01*
%TO.N,Net-(D5-A)*%
X92511500Y-113814000D02*
X94908000Y-113814000D01*
D79*
%TO.N,Net-(U36-dV{slash}dT)*%
X105199500Y-124106000D02*
X105199500Y-121347000D01*
X105199500Y-121347000D02*
X105642500Y-120904000D01*
D74*
%TO.N,Net-(J1-CC2)*%
X97626000Y-98355500D02*
X98162000Y-98891500D01*
X94730000Y-98355500D02*
X97626000Y-98355500D01*
%TO.N,Net-(J1-CC1)*%
X96625500Y-95355500D02*
X97367500Y-96097500D01*
X94730000Y-95355500D02*
X96625500Y-95355500D01*
X97367500Y-96097500D02*
X98162000Y-96097500D01*
D79*
%TO.N,Net-(JP1-A)*%
X129120000Y-99082000D02*
X127339500Y-99082000D01*
X127339500Y-99082000D02*
X127000000Y-98742500D01*
X130508000Y-91757500D02*
X130742000Y-91991500D01*
X130742000Y-91991500D02*
X130742000Y-94256000D01*
X127317500Y-91757500D02*
X130508000Y-91757500D01*
X127000000Y-92075000D02*
X127317500Y-91757500D01*
X127000000Y-98742500D02*
X127000000Y-92075000D01*
%TO.N,Net-(J5-Pin_2)*%
X146676000Y-129276000D02*
X145732500Y-130219500D01*
X145732500Y-136525000D02*
X146579500Y-137372000D01*
X145732500Y-130219500D02*
X145732500Y-136525000D01*
X146579500Y-137372000D02*
X147438000Y-137372000D01*
%TO.N,Net-(J6-Pin_2)*%
X153026000Y-129292000D02*
X152400000Y-129918000D01*
X153247000Y-137372000D02*
X154000000Y-137372000D01*
X152400000Y-136525000D02*
X153247000Y-137372000D01*
X152400000Y-129918000D02*
X152400000Y-136525000D01*
%TO.N,Net-(U1-PH3)*%
X140827000Y-84851000D02*
X140580000Y-84604000D01*
X140827000Y-88343000D02*
X140827000Y-84851000D01*
D74*
%TO.N,/CPU/GNDDetect*%
X102257000Y-72412000D02*
X103496000Y-72412000D01*
X102235000Y-72390000D02*
X102257000Y-72412000D01*
X99921000Y-74704000D02*
X102235000Y-72390000D01*
X99686000Y-74704000D02*
X99921000Y-74704000D01*
D79*
%TO.N,Net-(J6-Pin_4)*%
X155976000Y-131679000D02*
X154283000Y-133372000D01*
X154283000Y-133372000D02*
X154000000Y-133372000D01*
X155976000Y-129292000D02*
X155976000Y-131679000D01*
%TO.N,/CPU/ENCODER_2_PHA*%
X145110000Y-111455000D02*
X142827000Y-109172000D01*
X142827000Y-109172000D02*
X142827000Y-103693000D01*
X149225000Y-112077500D02*
X148602500Y-111455000D01*
X145927000Y-120668000D02*
X147937000Y-120668000D01*
X148602500Y-111455000D02*
X145110000Y-111455000D01*
X149225000Y-117157500D02*
X149225000Y-112077500D01*
X147937000Y-120668000D02*
X148272500Y-120332500D01*
%TO.N,/CPU/COM_GPS_TX*%
X162525000Y-111760000D02*
X150298316Y-111760000D01*
X182740000Y-93370000D02*
X182740000Y-95707500D01*
X150298316Y-111760000D02*
X150217772Y-111679456D01*
X140294728Y-106402772D02*
X141327000Y-105370500D01*
X142887506Y-110807500D02*
X140052500Y-110807500D01*
X182740000Y-95707500D02*
X182562500Y-95885000D01*
X141327000Y-105370500D02*
X141327000Y-103693000D01*
X143510000Y-110959997D02*
X143040003Y-110959997D01*
X140098044Y-106402772D02*
X140294728Y-106402772D01*
X143040003Y-110959997D02*
X142887506Y-110807500D01*
%TO.N,/CPU/COM_LIDAR2_RX*%
X146367500Y-86360000D02*
X146367500Y-88302500D01*
X154470003Y-83185000D02*
X154470003Y-81114997D01*
X182740000Y-87761118D02*
X181283618Y-89217500D01*
X154470003Y-81114997D02*
X154635000Y-80950000D01*
X154635000Y-80950000D02*
X166040000Y-80950000D01*
X146367500Y-88302500D02*
X146327000Y-88343000D01*
X172450000Y-80962500D02*
X173037500Y-81550000D01*
X180822503Y-89217500D02*
X180657500Y-89382503D01*
X166052500Y-80962500D02*
X172450000Y-80962500D01*
X181283618Y-89217500D02*
X180822503Y-89217500D01*
X182740000Y-87020000D02*
X182740000Y-87761118D01*
X166040000Y-80950000D02*
X166052500Y-80962500D01*
%TO.N,/CPU/COM_LIDAR1_RX*%
X149163500Y-85992500D02*
X148327000Y-86829000D01*
X182620000Y-80570000D02*
X182620000Y-81856104D01*
X182620000Y-81856104D02*
X181576104Y-82900000D01*
X157243500Y-85992500D02*
X149163500Y-85992500D01*
X148327000Y-86829000D02*
X148327000Y-88343000D01*
X160336000Y-82900000D02*
X157243500Y-85992500D01*
X181576104Y-82900000D02*
X160336000Y-82900000D01*
%TO.N,Net-(J7-Pin_2)*%
X159645000Y-137420000D02*
X160350000Y-137420000D01*
X159376000Y-129292000D02*
X158750000Y-129918000D01*
X158750000Y-129918000D02*
X158750000Y-136525000D01*
X158750000Y-136525000D02*
X159645000Y-137420000D01*
%TO.N,/CPU/ENCODER_4_PHB*%
X156527500Y-118427500D02*
X156740000Y-118640000D01*
X155847000Y-97518000D02*
X151502000Y-97518000D01*
X155892500Y-97472500D02*
X155847000Y-97518000D01*
X156740000Y-118640000D02*
X158373000Y-118640000D01*
%TO.N,/CPU/COM_LIDAR2_TX*%
X153670000Y-83185000D02*
X153670000Y-80645000D01*
X153670000Y-80645000D02*
X153987500Y-80327500D01*
X181352932Y-88582500D02*
X182240000Y-87695432D01*
X180657500Y-88582500D02*
X181352932Y-88582500D01*
X173355000Y-80327500D02*
X173990000Y-80962500D01*
X148272500Y-85725000D02*
X147827000Y-86170500D01*
X147827000Y-86170500D02*
X147827000Y-88343000D01*
X153987500Y-80327500D02*
X173355000Y-80327500D01*
X182240000Y-87695432D02*
X182240000Y-87020000D01*
%TO.N,Net-(J7-Pin_4)*%
X162326000Y-129292000D02*
X162326000Y-131996500D01*
X162326000Y-131996500D02*
X160902500Y-133420000D01*
X160902500Y-133420000D02*
X160350000Y-133420000D01*
%TO.N,/CPU/SERVO_PWM2N*%
X130492500Y-121602500D02*
X130492500Y-114230686D01*
X137090686Y-107632500D02*
X141287500Y-107632500D01*
X130492500Y-114230686D02*
X137090686Y-107632500D01*
X130134500Y-121960500D02*
X130492500Y-121602500D01*
X142327000Y-106593000D02*
X142327000Y-103693000D01*
X141287500Y-107632500D02*
X142327000Y-106593000D01*
X128186000Y-121960500D02*
X130134500Y-121960500D01*
%TO.N,/CPU/SERVO_PWM3*%
X137160000Y-108585000D02*
X137477500Y-108267500D01*
X141519500Y-95018000D02*
X151502000Y-95018000D01*
X130892500Y-122155000D02*
X130892500Y-114396372D01*
X128186000Y-122610500D02*
X130437000Y-122610500D01*
X136703872Y-108585000D02*
X137160000Y-108585000D01*
X130437000Y-122610500D02*
X130892500Y-122155000D01*
X140652500Y-95250000D02*
X141287500Y-95250000D01*
X141287500Y-95250000D02*
X141519500Y-95018000D01*
X130892500Y-114396372D02*
X136703872Y-108585000D01*
%TO.N,Net-(J8-Pad01)*%
X123300000Y-139590000D02*
X124460000Y-138430000D01*
X124460000Y-138430000D02*
X124460000Y-131762500D01*
X123300000Y-140158500D02*
X123300000Y-139590000D01*
X124460000Y-131762500D02*
X124976000Y-131246500D01*
%TO.N,/CPU/ENCODER_2_PHB*%
X145927000Y-118618000D02*
X148780500Y-118618000D01*
X149542500Y-99695000D02*
X149860000Y-99695000D01*
X150037000Y-99518000D02*
X151502000Y-99518000D01*
X149860000Y-99695000D02*
X150037000Y-99518000D01*
X148780500Y-118618000D02*
X148907500Y-118745000D01*
%TO.N,Net-(J8-Pad10)*%
X129040000Y-129357500D02*
X129040000Y-128452500D01*
X132080000Y-133985000D02*
X130140000Y-132045000D01*
X130140000Y-132045000D02*
X130140000Y-130457500D01*
X130140000Y-130457500D02*
X129040000Y-129357500D01*
X132080000Y-138998500D02*
X132080000Y-133985000D01*
X130920000Y-140158500D02*
X132080000Y-138998500D01*
%TO.N,Net-(J8-Pad07)*%
X129540000Y-138998500D02*
X129540000Y-131746500D01*
X128380000Y-140158500D02*
X129540000Y-138998500D01*
X129540000Y-131746500D02*
X129040000Y-131246500D01*
%TO.N,Net-(J8-Pad04)*%
X124976000Y-129421000D02*
X124976000Y-128452500D01*
X127000000Y-138998500D02*
X127000000Y-133350000D01*
X126047500Y-130492500D02*
X124976000Y-129421000D01*
X127000000Y-133350000D02*
X126047500Y-132397500D01*
X126047500Y-132397500D02*
X126047500Y-130492500D01*
X125840000Y-140158500D02*
X127000000Y-138998500D01*
%TO.N,Net-(U10-CH2)*%
X111760000Y-130492500D02*
X110696500Y-129429000D01*
X113030000Y-133032500D02*
X112953256Y-133032500D01*
X113030000Y-138938000D02*
X113030000Y-133032500D01*
X111760000Y-131839244D02*
X111760000Y-130492500D01*
X110696500Y-129429000D02*
X110696500Y-128397000D01*
X114300000Y-140208000D02*
X113030000Y-138938000D01*
X119062500Y-130123000D02*
X119120500Y-130065000D01*
X119062500Y-131762500D02*
X119062500Y-130123000D01*
X112953256Y-133032500D02*
X111760000Y-131839244D01*
%TO.N,/CPU/ENCODER_3_PHB*%
X139382500Y-91440000D02*
X139382500Y-96329500D01*
X136152000Y-91018000D02*
X138960500Y-91018000D01*
X139890500Y-96837500D02*
X142240000Y-96837500D01*
X138960500Y-91018000D02*
X139382500Y-91440000D01*
X152598000Y-120015000D02*
X152523000Y-119940000D01*
X153705000Y-120015000D02*
X152598000Y-120015000D01*
X139382500Y-96329500D02*
X139890500Y-96837500D01*
%TO.N,/CPU/FDCAN1_TX*%
X157797500Y-77152500D02*
X157715000Y-77070000D01*
X153295500Y-92018000D02*
X151502000Y-92018000D01*
X158115000Y-75668971D02*
X157867500Y-75916471D01*
X155892500Y-92710000D02*
X153987500Y-92710000D01*
X183197500Y-71691000D02*
X182851500Y-72037000D01*
X157867500Y-75916471D02*
X158136471Y-75647500D01*
X178035000Y-75647500D02*
X178752500Y-74930000D01*
X158136471Y-75647500D02*
X166287500Y-75647500D01*
X158115000Y-75668971D02*
X158136471Y-75647500D01*
X183197500Y-70485000D02*
X183197500Y-71691000D01*
X166287500Y-75647500D02*
X178035000Y-75647500D01*
X157715000Y-77070000D02*
X157715000Y-76068971D01*
X157715000Y-76068971D02*
X158115000Y-75668971D01*
X153987500Y-92710000D02*
X153295500Y-92018000D01*
%TO.N,/CPU/GEN_PWM2*%
X170145000Y-115209000D02*
X169914000Y-115440000D01*
X147977500Y-109455000D02*
X167621000Y-109455000D01*
X170145000Y-111979000D02*
X170145000Y-115209000D01*
X147637500Y-109115000D02*
X147977500Y-109455000D01*
X167621000Y-109455000D02*
X170145000Y-111979000D01*
X148327000Y-105627500D02*
X148327000Y-103693000D01*
X148427000Y-105727500D02*
X148327000Y-105627500D01*
%TO.N,/CPU/MOT_PWM4*%
X117957500Y-117171372D02*
X118676372Y-116452500D01*
X137827000Y-106330500D02*
X137827000Y-103693000D01*
X118676372Y-116452500D02*
X127705000Y-116452500D01*
X113652500Y-123205000D02*
X114920000Y-123205000D01*
X127705000Y-116452500D02*
X137827000Y-106330500D01*
X117957500Y-120167500D02*
X117957500Y-117171372D01*
X114920000Y-123205000D02*
X117957500Y-120167500D01*
%TO.N,Net-(U10-CH3)*%
X116840000Y-140208000D02*
X115285000Y-138653000D01*
X115285000Y-131715500D02*
X114760500Y-131191000D01*
X115285000Y-138653000D02*
X115285000Y-131715500D01*
X118237000Y-141605000D02*
X120650000Y-141605000D01*
X120650000Y-141605000D02*
X121720500Y-140534500D01*
X121720500Y-140534500D02*
X121720500Y-130065000D01*
X116840000Y-140208000D02*
X118237000Y-141605000D01*
%TO.N,Net-(U10-CH4)*%
X119380000Y-140208000D02*
X118110000Y-138938000D01*
X117017256Y-133032500D02*
X115860500Y-131875744D01*
X120332500Y-132397500D02*
X119697500Y-133032500D01*
X115860500Y-131875744D02*
X115860500Y-130465500D01*
X121720500Y-128165000D02*
X121320686Y-128165000D01*
X119697500Y-133032500D02*
X118110000Y-133032500D01*
X118110000Y-133032500D02*
X117017256Y-133032500D01*
X120332500Y-129153186D02*
X120332500Y-132397500D01*
X114760500Y-129365500D02*
X114760500Y-128397000D01*
X115860500Y-130465500D02*
X114760500Y-129365500D01*
X118110000Y-138938000D02*
X118110000Y-133032500D01*
X121320686Y-128165000D02*
X120332500Y-129153186D01*
%TO.N,/CPU/COM_GPS_RX*%
X161972500Y-112395000D02*
X149860000Y-112395000D01*
X140652500Y-106997500D02*
X141827000Y-105823000D01*
X182240000Y-93370000D02*
X182240000Y-95255000D01*
X141827000Y-105823000D02*
X141827000Y-103693000D01*
X143510000Y-111760000D02*
X140652500Y-111760000D01*
X182240000Y-95255000D02*
X181610000Y-95885000D01*
%TO.N,/CPU/ENCODER_4_PHA*%
X141827000Y-86460000D02*
X141827000Y-88343000D01*
X158373000Y-120690000D02*
X156885000Y-120690000D01*
X156885000Y-120690000D02*
X156845000Y-120650000D01*
X141927000Y-86360000D02*
X141827000Y-86460000D01*
%TO.N,Net-(U10-CH1)*%
X119062500Y-126682500D02*
X119062500Y-128107000D01*
X110696500Y-139144500D02*
X110696500Y-131191000D01*
X111760000Y-140208000D02*
X110696500Y-139144500D01*
X119062500Y-128107000D02*
X119120500Y-128165000D01*
%TO.N,Net-(J10-Pin_4)*%
X125157000Y-83768900D02*
X125105093Y-83820807D01*
X116078000Y-70882000D02*
X116078000Y-60960000D01*
X115084000Y-59966000D02*
X114164000Y-59966000D01*
X116078000Y-60960000D02*
X115084000Y-59966000D01*
X125157000Y-82386500D02*
X125157000Y-83768900D01*
%TO.N,Net-(J10-Pin_2)*%
X113199000Y-63966000D02*
X114164000Y-63966000D01*
X124142500Y-84137500D02*
X113030000Y-84137500D01*
X124507000Y-82386500D02*
X124507000Y-83773000D01*
X124507000Y-83773000D02*
X124142500Y-84137500D01*
X112395000Y-69850000D02*
X112395000Y-64770000D01*
X113538000Y-70882000D02*
X113427000Y-70882000D01*
X113427000Y-70882000D02*
X112395000Y-69850000D01*
X112315500Y-70882000D02*
X113538000Y-70882000D01*
X111760000Y-71437500D02*
X112315500Y-70882000D01*
X113030000Y-84137500D02*
X111760000Y-82867500D01*
X111760000Y-82867500D02*
X111760000Y-71437500D01*
X112395000Y-64770000D02*
X113199000Y-63966000D01*
%TO.N,Net-(J11-Pin_2)*%
X119888000Y-70882000D02*
X119777000Y-70882000D01*
X127107000Y-75140500D02*
X127317500Y-74930000D01*
X127107000Y-76661500D02*
X127107000Y-75140500D01*
X118745000Y-69850000D02*
X118745000Y-64770000D01*
X118745000Y-64770000D02*
X119549000Y-63966000D01*
X119777000Y-70882000D02*
X118745000Y-69850000D01*
X119549000Y-63966000D02*
X120422000Y-63966000D01*
%TO.N,/CPU/NRST*%
X120015000Y-88582500D02*
X109537500Y-88582500D01*
X136150000Y-96520000D02*
X136152000Y-96518000D01*
X134302500Y-96520000D02*
X136150000Y-96520000D01*
X192904000Y-126229000D02*
X192722500Y-126047500D01*
X192904000Y-127562000D02*
X192904000Y-126229000D01*
X109537500Y-88582500D02*
X108585000Y-87630000D01*
X107972000Y-70634000D02*
X99686000Y-70634000D01*
X108585000Y-71247000D02*
X107972000Y-70634000D01*
X108585000Y-87630000D02*
X108585000Y-71247000D01*
%TO.N,/CPU/SPI_MOSI*%
X174444000Y-101812000D02*
X174444000Y-99963500D01*
X152140000Y-107055000D02*
X166312500Y-107055000D01*
X171132500Y-102235000D02*
X174021000Y-102235000D01*
X174021000Y-102235000D02*
X174444000Y-101812000D01*
X166312500Y-107055000D02*
X168910000Y-104457500D01*
X140827000Y-101600000D02*
X140827000Y-103693000D01*
X144024184Y-101600000D02*
X140827000Y-101600000D01*
X144422228Y-101998044D02*
X144024184Y-101600000D01*
X151765000Y-106680000D02*
X152140000Y-107055000D01*
X168910000Y-104457500D02*
X168910000Y-103822500D01*
%TO.N,Net-(J11-Pin_4)*%
X126492000Y-74930000D02*
X126457000Y-74965000D01*
X126457000Y-74965000D02*
X126457000Y-76661500D01*
X122174000Y-70882000D02*
X122174000Y-60579000D01*
X124460000Y-74168000D02*
X124714000Y-74422000D01*
X126238000Y-74422000D02*
X126492000Y-74676000D01*
X124460000Y-71120000D02*
X124460000Y-74168000D01*
X126492000Y-74676000D02*
X126492000Y-74930000D01*
X124714000Y-74422000D02*
X126238000Y-74422000D01*
X121561000Y-59966000D02*
X120422000Y-59966000D01*
X122174000Y-70882000D02*
X124222000Y-70882000D01*
X124222000Y-70882000D02*
X124460000Y-71120000D01*
X122174000Y-60579000D02*
X121561000Y-59966000D01*
%TO.N,/CPU/SPI_MISO*%
X168275000Y-104457500D02*
X168275000Y-102870000D01*
X151130000Y-105727500D02*
X151661029Y-105727500D01*
X140327000Y-101534315D02*
X140327000Y-103693000D01*
X166077500Y-106655000D02*
X168275000Y-104457500D01*
X144780000Y-101282500D02*
X144697500Y-101200000D01*
X178068500Y-99963500D02*
X178117500Y-100012500D01*
X152588529Y-106655000D02*
X166077500Y-106655000D01*
X144697500Y-101200000D02*
X140661315Y-101200000D01*
X151661029Y-105727500D02*
X152588529Y-106655000D01*
X140661315Y-101200000D02*
X140327000Y-101534315D01*
X176212500Y-102870000D02*
X176530000Y-102552500D01*
X177044000Y-99963500D02*
X178068500Y-99963500D01*
X168275000Y-102870000D02*
X176212500Y-102870000D01*
%TO.N,Net-(J12-Pin_2)*%
X138599000Y-63966000D02*
X139564000Y-63966000D01*
X146605000Y-80882500D02*
X146050000Y-80327500D01*
X137795000Y-64770000D02*
X138599000Y-63966000D01*
X138827000Y-70882000D02*
X137795000Y-69850000D01*
X146605000Y-82386500D02*
X146605000Y-80882500D01*
X138938000Y-70882000D02*
X138827000Y-70882000D01*
X137795000Y-69850000D02*
X137795000Y-64770000D01*
%TO.N,/CPU/SERVO_PWM4*%
X136921000Y-108985000D02*
X137325685Y-108985000D01*
X131292500Y-122390000D02*
X131292500Y-114613500D01*
X137325685Y-108985000D02*
X137327641Y-108983044D01*
X130422000Y-123260500D02*
X131292500Y-122390000D01*
X131292500Y-114613500D02*
X136921000Y-108985000D01*
X141139389Y-94553763D02*
X141175152Y-94518000D01*
X141175152Y-94518000D02*
X151502000Y-94518000D01*
X128186000Y-123260500D02*
X130422000Y-123260500D01*
X137327641Y-108983044D02*
X137835272Y-108983044D01*
%TO.N,/CPU/JTMS-SWDIO*%
X154940000Y-74295000D02*
X154940000Y-77470000D01*
X94606000Y-66366500D02*
X95332500Y-65640000D01*
X156132000Y-91518000D02*
X151502000Y-91518000D01*
X156527500Y-91122500D02*
X156132000Y-91518000D01*
X154427000Y-73782000D02*
X154940000Y-74295000D01*
X110407500Y-65201000D02*
X110407500Y-56666814D01*
X110407500Y-56666814D02*
X110876814Y-56197500D01*
X148590000Y-56197500D02*
X149605000Y-57212500D01*
X149605000Y-69595000D02*
X150638000Y-70628000D01*
X94606000Y-70634000D02*
X94606000Y-66366500D01*
X150953256Y-73782000D02*
X154427000Y-73782000D01*
X95332500Y-65640000D02*
X109968500Y-65640000D01*
X110876814Y-56197500D02*
X148590000Y-56197500D01*
X149605000Y-57212500D02*
X149605000Y-69595000D01*
X150638000Y-73466744D02*
X150953256Y-73782000D01*
X109968500Y-65640000D02*
X110407500Y-65201000D01*
X150638000Y-70628000D02*
X150638000Y-73466744D01*
%TO.N,/CPU/COM_USB_RX*%
X109378750Y-90328750D02*
X109855000Y-89852500D01*
X131430573Y-89852500D02*
X131500524Y-89782549D01*
X140970000Y-92392500D02*
X142157500Y-93580000D01*
X142157500Y-93580000D02*
X150041904Y-93580000D01*
X109855000Y-89852500D02*
X131430573Y-89852500D01*
X150603904Y-93018000D02*
X151502000Y-93018000D01*
X104138000Y-95335500D02*
X105495500Y-95335500D01*
X150041904Y-93580000D02*
X150603904Y-93018000D01*
X105495500Y-95335500D02*
X105727500Y-95567500D01*
D81*
%TO.N,/CPU/ADC_VBAT*%
X98654000Y-81556000D02*
X98654000Y-83185000D01*
X101424500Y-85265500D02*
X100965000Y-85725000D01*
X98654000Y-83185000D02*
X99695000Y-83185000D01*
D78*
X143510000Y-108799925D02*
X143327000Y-108616925D01*
D81*
X99695000Y-83185000D02*
X99880000Y-83000000D01*
D78*
X143327000Y-108616925D02*
X143327000Y-104775000D01*
D74*
X143327000Y-104775000D02*
X143304000Y-104752000D01*
D78*
X143510000Y-108902500D02*
X143510000Y-108799925D01*
D81*
X101424500Y-83000000D02*
X101424500Y-85265500D01*
X98654000Y-83185000D02*
X98654000Y-84604000D01*
D74*
X143304000Y-104752000D02*
X143304000Y-103505000D01*
D81*
X99880000Y-83000000D02*
X101424500Y-83000000D01*
D79*
%TO.N,/CPU/GEN_PWM1*%
X168914000Y-119376000D02*
X168275000Y-120015000D01*
X157480000Y-93662500D02*
X156527500Y-93662500D01*
X168914000Y-118240000D02*
X168914000Y-119376000D01*
X168275000Y-120015000D02*
X167957500Y-120015000D01*
X156172000Y-94018000D02*
X151502000Y-94018000D01*
X156527500Y-93662500D02*
X156172000Y-94018000D01*
%TO.N,Net-(J12-Pin_4)*%
X147255000Y-82386500D02*
X147255000Y-80580000D01*
X141478000Y-60833000D02*
X140611000Y-59966000D01*
X140611000Y-59966000D02*
X139564000Y-59966000D01*
X147255000Y-80580000D02*
X147002500Y-80327500D01*
X141478000Y-70888000D02*
X141478000Y-60833000D01*
%TO.N,/CPU/JTCK-SWCLK*%
X154305000Y-74628000D02*
X154305000Y-76835000D01*
X150177500Y-73571930D02*
X150900570Y-74295000D01*
X110203500Y-66040000D02*
X110807500Y-65436000D01*
X111042500Y-56597500D02*
X148424314Y-56597500D01*
X150495000Y-86995000D02*
X149860000Y-86995000D01*
X150900570Y-74295000D02*
X153972000Y-74295000D01*
X148424314Y-56597500D02*
X149205000Y-57378186D01*
X96551000Y-66040000D02*
X110203500Y-66040000D01*
X149205000Y-69760686D02*
X150177500Y-70733186D01*
X150177500Y-70733186D02*
X150177500Y-73571930D01*
X110807500Y-65436000D02*
X110807500Y-56832500D01*
X153972000Y-74295000D02*
X154305000Y-74628000D01*
X149205000Y-57378186D02*
X149205000Y-69760686D01*
X110807500Y-56832500D02*
X111042500Y-56597500D01*
X149860000Y-88310000D02*
X149827000Y-88343000D01*
X149860000Y-86995000D02*
X149860000Y-88310000D01*
X95876000Y-70634000D02*
X95876000Y-66715000D01*
X95876000Y-66715000D02*
X96551000Y-66040000D01*
%TO.N,/CPU/MOT_PWM2*%
X113652500Y-121905000D02*
X114950000Y-121905000D01*
X132582000Y-101733000D02*
X132797000Y-101518000D01*
X117157500Y-116840000D02*
X118345000Y-115652500D01*
X114950000Y-121905000D02*
X117157500Y-119697500D01*
X118345000Y-115652500D02*
X127235000Y-115652500D01*
X117157500Y-119697500D02*
X117157500Y-116840000D01*
X132797000Y-101518000D02*
X136152000Y-101518000D01*
X132582000Y-110305500D02*
X132582000Y-101733000D01*
X127235000Y-115652500D02*
X132582000Y-110305500D01*
%TO.N,/CPU/I2C_SCL_INT*%
X140227000Y-85988500D02*
X140327000Y-86088500D01*
X168774000Y-96772000D02*
X170245500Y-96772000D01*
X162560000Y-94297500D02*
X162490000Y-94367500D01*
X145650000Y-83902500D02*
X154601032Y-83902500D01*
X155070003Y-83433529D02*
X155070003Y-82033182D01*
X166370000Y-93980000D02*
X166687500Y-93662500D01*
X155070003Y-82033182D02*
X155553185Y-81550000D01*
X166687500Y-91891078D02*
X167078578Y-91500000D01*
X160125000Y-84350000D02*
X161916000Y-84350000D01*
X155553185Y-81550000D02*
X160020000Y-81550000D01*
X161653500Y-91711500D02*
X160926500Y-91711500D01*
X160020000Y-84455000D02*
X160125000Y-84350000D01*
X162877500Y-93980000D02*
X166370000Y-93980000D01*
X170497500Y-96520000D02*
X170497500Y-93662500D01*
X160926500Y-91711500D02*
X160655000Y-91440000D01*
X166687500Y-93662500D02*
X166687500Y-91891078D01*
X167078578Y-91500000D02*
X167120000Y-91500000D01*
X162490000Y-94367500D02*
X162490000Y-95673000D01*
X161662000Y-99905503D02*
X161662000Y-100614000D01*
X142242387Y-85374887D02*
X144177613Y-85374887D01*
X144177613Y-85374887D02*
X145650000Y-83902500D01*
X140327000Y-86088500D02*
X140327000Y-88343000D01*
X170497500Y-93662500D02*
X166687500Y-93662500D01*
X154601032Y-83902500D02*
X155070003Y-83433529D01*
X161925000Y-99642503D02*
X161662000Y-99905503D01*
X162560000Y-94297500D02*
X162877500Y-93980000D01*
X170245500Y-96772000D02*
X170497500Y-96520000D01*
%TO.N,/CPU/SPI_SCK*%
X146827000Y-102377000D02*
X146827000Y-103693000D01*
X174800000Y-108410000D02*
X175744000Y-107466000D01*
X150495000Y-106680000D02*
X151270000Y-107455000D01*
X151270000Y-107455000D02*
X168669000Y-107455000D01*
X169624000Y-108410000D02*
X174800000Y-108410000D01*
X175744000Y-107466000D02*
X175744000Y-105688500D01*
X168669000Y-107455000D02*
X169624000Y-108410000D01*
X146367500Y-101917500D02*
X146827000Y-102377000D01*
%TO.N,/CPU/CLK_IN_16Mhz*%
X128642000Y-95906000D02*
X128642000Y-96892000D01*
X128905000Y-97155000D02*
X132397500Y-97155000D01*
X133399500Y-95518000D02*
X136152000Y-95518000D01*
X128642000Y-96892000D02*
X128905000Y-97155000D01*
X132397500Y-97155000D02*
X132984500Y-96568000D01*
X132984500Y-96568000D02*
X132984500Y-95933000D01*
X132984500Y-95933000D02*
X133399500Y-95518000D01*
%TO.N,/CPU/FDCAN1_RX*%
X158467500Y-76517500D02*
X158785000Y-76200000D01*
X181451250Y-76200000D02*
X182851500Y-74799750D01*
X153229814Y-92518000D02*
X151502000Y-92518000D01*
X182851500Y-74799750D02*
X182851500Y-73987000D01*
X154056814Y-93345000D02*
X153229814Y-92518000D01*
X155257500Y-93345000D02*
X154056814Y-93345000D01*
X158785000Y-76200000D02*
X181451250Y-76200000D01*
%TO.N,Net-(J13-Pin_4)*%
X147955000Y-73977500D02*
X143827500Y-73977500D01*
X143869000Y-59966000D02*
X145914000Y-59966000D01*
X148555000Y-74577500D02*
X147955000Y-73977500D01*
X143827500Y-60007500D02*
X143869000Y-59966000D01*
X146961000Y-59966000D02*
X145914000Y-59966000D01*
X147574000Y-70882000D02*
X147574000Y-60579000D01*
X148555000Y-76661500D02*
X148555000Y-74577500D01*
X143510000Y-60325000D02*
X143827500Y-60007500D01*
X147574000Y-60579000D02*
X146961000Y-59966000D01*
X143510000Y-73660000D02*
X143510000Y-60325000D01*
X143827500Y-73977500D02*
X143510000Y-73660000D01*
%TO.N,Net-(J13-Pin_2)*%
X148563000Y-71782000D02*
X148590000Y-71755000D01*
X148590000Y-71755000D02*
X149205000Y-72370000D01*
X145928000Y-71782000D02*
X148563000Y-71782000D01*
X145034000Y-70739000D02*
X144145000Y-69850000D01*
X149205000Y-72370000D02*
X149205000Y-76661500D01*
X144145000Y-64770000D02*
X144949000Y-63966000D01*
X145034000Y-70888000D02*
X145034000Y-70739000D01*
X145034000Y-70888000D02*
X145928000Y-71782000D01*
X144949000Y-63966000D02*
X145914000Y-63966000D01*
X144145000Y-69850000D02*
X144145000Y-64770000D01*
%TO.N,/CPU/COM_LIDAR1_TX*%
X148827000Y-87110500D02*
X148827000Y-88343000D01*
X157432000Y-85296000D02*
X160178000Y-82550000D01*
X180815432Y-82550000D02*
X182120000Y-81245432D01*
X182120000Y-81245432D02*
X182120000Y-80570000D01*
X149542500Y-85442500D02*
X149689000Y-85296000D01*
X160178000Y-82550000D02*
X180815432Y-82550000D01*
X149689000Y-85296000D02*
X157432000Y-85296000D01*
X149242500Y-86695000D02*
X148827000Y-87110500D01*
%TO.N,/CPU/ENCODER_1_PHB*%
X133439500Y-98018000D02*
X133350000Y-98107500D01*
X140174000Y-120015000D02*
X140077000Y-119918000D01*
X136152000Y-98018000D02*
X133439500Y-98018000D01*
X141605000Y-120015000D02*
X140174000Y-120015000D01*
%TO.N,/CPU/JTDO-SWO*%
X111207500Y-65671000D02*
X111207500Y-57067500D01*
X149777500Y-70898872D02*
X149777500Y-73737616D01*
X97146000Y-70634000D02*
X97146000Y-67032500D01*
X148805000Y-57682500D02*
X148805000Y-69926372D01*
X97738500Y-66440000D02*
X110438500Y-66440000D01*
X142641521Y-86719810D02*
X143327000Y-87405289D01*
X111207500Y-57067500D02*
X111277500Y-56997500D01*
X111277500Y-56997500D02*
X148120000Y-56997500D01*
X110438500Y-66440000D02*
X111207500Y-65671000D01*
X153352500Y-75120500D02*
X153352500Y-77470000D01*
X152927000Y-74695000D02*
X153352500Y-75120500D01*
X149777500Y-73737616D02*
X150734884Y-74695000D01*
X148120000Y-56997500D02*
X148805000Y-57682500D01*
X148805000Y-69926372D02*
X149777500Y-70898872D01*
X97146000Y-67032500D02*
X97738500Y-66440000D01*
X143327000Y-87405289D02*
X143327000Y-88343000D01*
X150734884Y-74695000D02*
X152927000Y-74695000D01*
%TO.N,Net-(J14-Pin_4)*%
X127107000Y-82386500D02*
X127107000Y-81106950D01*
X126682500Y-80682450D02*
X126682500Y-80645000D01*
X128778000Y-60833000D02*
X127911000Y-59966000D01*
X127911000Y-59966000D02*
X126864000Y-59966000D01*
X128778000Y-70882000D02*
X128778000Y-60833000D01*
X127107000Y-81106950D02*
X126682500Y-80682450D01*
%TO.N,/CPU/ENCODER_1_PHA*%
X140127000Y-118018000D02*
X140077000Y-117968000D01*
X141560503Y-118018000D02*
X140127000Y-118018000D01*
X142327000Y-89852500D02*
X142327000Y-88343000D01*
%TO.N,/CPU/COM_USB_TX*%
X131127500Y-90252500D02*
X131127500Y-90269873D01*
X141414155Y-93980000D02*
X150207590Y-93980000D01*
X141387918Y-93953763D02*
X141414155Y-93980000D01*
X131127500Y-90269873D02*
X131437708Y-90580081D01*
X109338000Y-93430500D02*
X109769500Y-93430500D01*
X110172500Y-91122500D02*
X110490000Y-90805000D01*
X140970000Y-93662500D02*
X141261263Y-93953763D01*
X110172500Y-93027500D02*
X110172500Y-91122500D01*
X110490000Y-90805000D02*
X111042500Y-90252500D01*
X150207590Y-93980000D02*
X150669590Y-93518000D01*
X109769500Y-93430500D02*
X110172500Y-93027500D01*
X150669590Y-93518000D02*
X151502000Y-93518000D01*
X112077500Y-90252500D02*
X131127500Y-90252500D01*
X141261263Y-93953763D02*
X141387918Y-93953763D01*
X111042500Y-90252500D02*
X112077500Y-90252500D01*
%TO.N,/CPU/MOT_PWM3*%
X117557500Y-119863186D02*
X117557500Y-117005686D01*
X118510686Y-116052500D02*
X127470000Y-116052500D01*
X117557500Y-117005686D02*
X118510686Y-116052500D01*
X114865686Y-122555000D02*
X117557500Y-119863186D01*
X113652500Y-122555000D02*
X114865686Y-122555000D01*
X133032500Y-102250500D02*
X133265000Y-102018000D01*
X127470000Y-116052500D02*
X133032500Y-110490000D01*
X133265000Y-102018000D02*
X136152000Y-102018000D01*
X133032500Y-110490000D02*
X133032500Y-102250500D01*
%TO.N,/CPU/SERVO_PWM1*%
X157127500Y-96837500D02*
X156308000Y-96018000D01*
X128186000Y-121310500D02*
X129514500Y-121310500D01*
X156308000Y-96018000D02*
X151502000Y-96018000D01*
X129514500Y-121310500D02*
X129857500Y-120967500D01*
D77*
%TO.N,GND*%
X182240000Y-89222500D02*
X182240000Y-89823856D01*
D80*
X111442500Y-112558000D02*
X113366000Y-112558000D01*
D79*
X162990000Y-98220000D02*
X163512500Y-98742500D01*
D77*
X171314000Y-90192000D02*
X171314000Y-88764000D01*
X177044000Y-105688500D02*
X177044000Y-103822500D01*
D78*
X106680000Y-95916000D02*
X106680000Y-95885000D01*
D80*
X116474500Y-112522000D02*
X119702000Y-112522000D01*
D77*
X152641000Y-123266500D02*
X152641000Y-120690000D01*
D79*
X143080500Y-119268000D02*
X145927000Y-119268000D01*
D77*
X187049000Y-79016000D02*
X186372500Y-79692500D01*
X176847500Y-93027500D02*
X176889000Y-92986000D01*
D81*
X97146000Y-76835000D02*
X102870000Y-76835000D01*
D77*
X154296000Y-123908000D02*
X152483000Y-123908000D01*
D79*
X162794186Y-101614000D02*
X163187000Y-101614000D01*
D74*
X138327000Y-103693000D02*
X138327000Y-102020500D01*
D82*
X111442500Y-117475000D02*
X111442500Y-112558000D01*
D77*
X187666000Y-85590000D02*
X186507500Y-85590000D01*
X141536000Y-123908000D02*
X140100500Y-123908000D01*
X175744000Y-98742500D02*
X175744000Y-97627000D01*
D79*
X181927500Y-85725000D02*
X182245000Y-85407500D01*
D77*
X173794000Y-98938500D02*
X173990000Y-98742500D01*
X172593000Y-123952000D02*
X171767500Y-124777500D01*
D81*
X103496000Y-76191000D02*
X103496000Y-74412000D01*
D79*
X142748000Y-118935500D02*
X143080500Y-119268000D01*
D77*
X141075000Y-113560000D02*
X140335000Y-114300000D01*
D80*
X120049000Y-106956000D02*
X120049000Y-112175000D01*
D78*
X188078000Y-70367000D02*
X188277500Y-70167500D01*
X104138000Y-96605500D02*
X102955500Y-96605500D01*
D79*
X142748000Y-115443000D02*
X142082500Y-114777500D01*
D77*
X183832500Y-81280000D02*
X182240000Y-82872500D01*
X181379000Y-80329000D02*
X181620000Y-80570000D01*
D79*
X167957500Y-96520000D02*
X167957500Y-98086000D01*
D80*
X102734000Y-112558000D02*
X104648000Y-112558000D01*
D79*
X182245000Y-85407500D02*
X182240000Y-85402500D01*
X134620000Y-128785500D02*
X134620000Y-127000000D01*
D80*
X113402000Y-112522000D02*
X115316000Y-112522000D01*
D79*
X142748000Y-118618000D02*
X142748000Y-115443000D01*
D78*
X138580000Y-81130000D02*
X138580000Y-84604000D01*
D74*
X149327000Y-102468429D02*
X147823571Y-100965000D01*
D79*
X176849000Y-80329000D02*
X176847500Y-80327500D01*
D77*
X138327000Y-88343000D02*
X138327000Y-89323839D01*
D78*
X106810000Y-83950000D02*
X107489250Y-84629250D01*
D77*
X163762500Y-89852500D02*
X164465000Y-89852500D01*
D79*
X136152000Y-99018000D02*
X136152000Y-99377500D01*
D76*
X100237000Y-101939500D02*
X100237000Y-96172500D01*
D77*
X166179500Y-123952000D02*
X166052500Y-123825000D01*
D79*
X133981000Y-129424500D02*
X134620000Y-128785500D01*
D77*
X158491000Y-116590000D02*
X158491000Y-115311000D01*
D76*
X115477000Y-112361000D02*
X116313500Y-112361000D01*
D78*
X107857000Y-89239500D02*
X107857000Y-90898000D01*
D76*
X94155000Y-100925500D02*
X94155000Y-102410000D01*
D79*
X155152500Y-118957500D02*
X155485000Y-119290000D01*
D77*
X185928000Y-119765000D02*
X185928000Y-117602000D01*
D81*
X103505000Y-76200000D02*
X103496000Y-76191000D01*
D78*
X106680000Y-92075000D02*
X106680000Y-95885000D01*
D77*
X153457500Y-113560000D02*
X152717500Y-114300000D01*
D79*
X167957500Y-98086000D02*
X169185500Y-99314000D01*
D80*
X115316000Y-112522000D02*
X116474500Y-112522000D01*
D77*
X178680000Y-80329000D02*
X181379000Y-80329000D01*
D81*
X102870000Y-76835000D02*
X103505000Y-76200000D01*
D74*
X90636500Y-107718000D02*
X90636500Y-105578500D01*
D77*
X127635000Y-80645000D02*
X127757000Y-80767000D01*
D74*
X90630000Y-101580500D02*
X89975000Y-100925500D01*
D79*
X167709500Y-96272000D02*
X167957500Y-96520000D01*
D77*
X176666000Y-97304000D02*
X175421000Y-97304000D01*
D79*
X154550000Y-114545000D02*
X154550000Y-113560000D01*
D77*
X169185500Y-99314000D02*
X169185500Y-100923000D01*
X123207000Y-82386500D02*
X123207000Y-80662000D01*
X186372500Y-79692500D02*
X186372500Y-80962500D01*
D81*
X101812500Y-96097500D02*
X100162000Y-96097500D01*
D77*
X185928000Y-117602000D02*
X186055000Y-117475000D01*
D78*
X94730000Y-99805500D02*
X94730000Y-100350500D01*
X106765500Y-95970500D02*
X109338000Y-95970500D01*
X126634000Y-124295000D02*
X126899500Y-124560500D01*
D77*
X158614000Y-92891500D02*
X159385000Y-93662500D01*
X183850000Y-93980000D02*
X183265000Y-93395000D01*
D78*
X103299500Y-83950000D02*
X106810000Y-83950000D01*
D79*
X181620000Y-80570000D02*
X181620000Y-79365000D01*
D78*
X110807500Y-124460000D02*
X113607500Y-124460000D01*
X145255000Y-82386500D02*
X144705000Y-82386500D01*
D77*
X186578000Y-113915000D02*
X186578000Y-112507000D01*
D78*
X94730000Y-93405500D02*
X94730000Y-92860500D01*
D74*
X102955500Y-96605500D02*
X102870000Y-96520000D01*
D77*
X183145000Y-80595000D02*
X183145000Y-80570000D01*
D80*
X106314500Y-112558000D02*
X109034000Y-112558000D01*
D78*
X113607500Y-124460000D02*
X113652500Y-124505000D01*
D77*
X158614000Y-97579500D02*
X158614000Y-98878500D01*
D82*
X111760000Y-117792500D02*
X111442500Y-117475000D01*
D77*
X183265000Y-87045000D02*
X183265000Y-87020000D01*
X186372500Y-93980000D02*
X183850000Y-93980000D01*
D79*
X155152500Y-115147500D02*
X154550000Y-114545000D01*
X155152500Y-118640000D02*
X155152500Y-115147500D01*
D74*
X151502000Y-90518000D02*
X149890500Y-90518000D01*
D77*
X140195000Y-120690000D02*
X140195000Y-123647500D01*
D80*
X100092000Y-123444000D02*
X100092000Y-118856000D01*
D78*
X128620500Y-104924000D02*
X128620500Y-106680000D01*
D77*
X183832500Y-87630000D02*
X182240000Y-89222500D01*
X181516500Y-72687000D02*
X180712000Y-71882500D01*
X152483000Y-123908000D02*
X152400000Y-123825000D01*
D80*
X115477000Y-106956000D02*
X115477000Y-112361000D01*
D77*
X177044000Y-103626000D02*
X177590000Y-103080000D01*
X189480000Y-119765000D02*
X189547500Y-119697500D01*
X177434000Y-113915000D02*
X177434000Y-112443500D01*
X184076500Y-72687000D02*
X184401500Y-73012000D01*
D78*
X94730000Y-100350500D02*
X94155000Y-100925500D01*
D74*
X90636500Y-105578500D02*
X90630000Y-105572000D01*
D79*
X155152500Y-118640000D02*
X155152500Y-118957500D01*
D76*
X94155000Y-102410000D02*
X94932500Y-103187500D01*
D79*
X142748000Y-118618000D02*
X142748000Y-118935500D01*
D77*
X181292500Y-119765000D02*
X178834000Y-119765000D01*
X160655000Y-93662500D02*
X159385000Y-93662500D01*
D79*
X181927500Y-85725000D02*
X182086250Y-85566250D01*
D78*
X180712000Y-71882500D02*
X180712000Y-71700500D01*
D77*
X174734000Y-119765000D02*
X173422500Y-119765000D01*
D78*
X139148500Y-80561500D02*
X138580000Y-81130000D01*
D77*
X175094000Y-105688500D02*
X175094000Y-103988500D01*
D79*
X106924500Y-123199500D02*
X107717500Y-122406500D01*
D77*
X186803000Y-91970000D02*
X186372500Y-92400500D01*
D80*
X100092000Y-118856000D02*
X101092000Y-117856000D01*
D79*
X162990000Y-97498000D02*
X162990000Y-98220000D01*
D77*
X173144000Y-104033500D02*
X173355000Y-103822500D01*
D81*
X97146000Y-74704000D02*
X97146000Y-76835000D01*
D83*
X119851500Y-82386500D02*
X121907000Y-82386500D01*
D77*
X146045000Y-116590000D02*
X146045000Y-115257500D01*
D78*
X135521500Y-87376500D02*
X135543000Y-87398000D01*
D77*
X142082500Y-113560000D02*
X141075000Y-113560000D01*
X149860000Y-82381500D02*
X149855000Y-82386500D01*
X158491000Y-115311000D02*
X158432500Y-115252500D01*
X170806000Y-90700000D02*
X171314000Y-90192000D01*
D80*
X104648000Y-112558000D02*
X105410000Y-112558000D01*
D77*
X162674500Y-104254500D02*
X162674500Y-102755500D01*
D76*
X109381000Y-112211000D02*
X109034000Y-112558000D01*
D77*
X183832500Y-80962500D02*
X183832500Y-81280000D01*
D74*
X90636500Y-113814000D02*
X90636500Y-107718000D01*
D77*
X178680000Y-92986000D02*
X181331000Y-92986000D01*
X187678000Y-91970000D02*
X186803000Y-91970000D01*
X175744000Y-97627000D02*
X175421000Y-97304000D01*
D79*
X182120000Y-78865000D02*
X182120000Y-77770000D01*
D83*
X118990000Y-80561500D02*
X118990000Y-81525000D01*
D77*
X178680000Y-92986000D02*
X176889000Y-92986000D01*
D79*
X162674500Y-102126500D02*
X162674500Y-102755500D01*
X181740000Y-87020000D02*
X181740000Y-85912500D01*
D78*
X107857000Y-90898000D02*
X106680000Y-92075000D01*
D77*
X186372500Y-92400500D02*
X186372500Y-93980000D01*
D74*
X149890500Y-90518000D02*
X149860000Y-90487500D01*
D76*
X115477000Y-112361000D02*
X115316000Y-112522000D01*
D74*
X105680000Y-129286000D02*
X106424500Y-128541500D01*
D77*
X173794000Y-99963500D02*
X173794000Y-98938500D01*
X182851500Y-72687000D02*
X181516500Y-72687000D01*
D81*
X102235000Y-96520000D02*
X101812500Y-96097500D01*
D77*
X177590000Y-103080000D02*
X179636000Y-103080000D01*
X167610000Y-123952000D02*
X166179500Y-123952000D01*
X177244000Y-96726000D02*
X176666000Y-97304000D01*
D79*
X128642000Y-92764500D02*
X128587500Y-92710000D01*
D77*
X163461500Y-105041500D02*
X162674500Y-104254500D01*
X177434000Y-112443500D02*
X177482500Y-112395000D01*
D78*
X126047500Y-124295000D02*
X126634000Y-124295000D01*
D81*
X97146000Y-76835000D02*
X97146000Y-81064000D01*
D77*
X176909500Y-86933000D02*
X176847500Y-86995000D01*
X173452000Y-123952000D02*
X172593000Y-123952000D01*
X183878000Y-113915000D02*
X183878000Y-112440500D01*
D76*
X100237000Y-96172500D02*
X100162000Y-96097500D01*
D74*
X138327000Y-102020500D02*
X138430000Y-101917500D01*
D79*
X162416000Y-90699000D02*
X162916000Y-90699000D01*
D77*
X187978000Y-119765000D02*
X189480000Y-119765000D01*
D78*
X105990500Y-96605500D02*
X106680000Y-95916000D01*
D79*
X128642000Y-94256000D02*
X128642000Y-92764500D01*
D77*
X183878000Y-119765000D02*
X181292500Y-119765000D01*
D74*
X106680000Y-95885000D02*
X106765500Y-95970500D01*
D77*
X168389000Y-115465000D02*
X168389000Y-116840000D01*
D79*
X133206000Y-129424500D02*
X133981000Y-129424500D01*
D78*
X141088000Y-80561500D02*
X139148500Y-80561500D01*
D83*
X121907000Y-82386500D02*
X123182000Y-82386500D01*
D76*
X105410000Y-112558000D02*
X106314500Y-112558000D01*
D80*
X95516000Y-123486000D02*
X99796000Y-123486000D01*
D77*
X152641000Y-114376500D02*
X152717500Y-114300000D01*
X181331000Y-92986000D02*
X181715000Y-93370000D01*
D79*
X161916000Y-92224000D02*
X161916000Y-92401500D01*
D77*
X161607500Y-92710000D02*
X160655000Y-93662500D01*
D79*
X162674500Y-102126500D02*
X162674500Y-101733686D01*
X183240000Y-92435000D02*
X183240000Y-93370000D01*
X202731500Y-111274000D02*
X202731500Y-109386500D01*
X155485000Y-119290000D02*
X158373000Y-119290000D01*
D77*
X138795003Y-89791842D02*
X138795003Y-89852500D01*
D83*
X118990000Y-81525000D02*
X119851500Y-82386500D01*
D78*
X118779000Y-100923500D02*
X118779000Y-102904000D01*
D79*
X152523000Y-118640000D02*
X155152500Y-118640000D01*
D80*
X109034000Y-112558000D02*
X111442500Y-112558000D01*
D77*
X158614000Y-92224000D02*
X158614000Y-92891500D01*
X183850000Y-87630000D02*
X183832500Y-87630000D01*
D79*
X183120000Y-79615000D02*
X183120000Y-80570000D01*
X183038750Y-85566250D02*
X183240000Y-85767500D01*
D74*
X149327000Y-103693000D02*
X149327000Y-102468429D01*
D78*
X107489250Y-84629250D02*
X107857000Y-84997000D01*
D77*
X140195000Y-116590000D02*
X140195000Y-114440000D01*
D76*
X95250000Y-103505000D02*
X99695000Y-103505000D01*
D80*
X109381000Y-106956000D02*
X109381000Y-112211000D01*
D77*
X175094000Y-103988500D02*
X175260000Y-103822500D01*
X164782500Y-104775000D02*
X163461500Y-104775000D01*
D78*
X141088000Y-80561500D02*
X144696500Y-80561500D01*
D77*
X163461500Y-104775000D02*
X163461500Y-105041500D01*
D76*
X120049000Y-112175000D02*
X119702000Y-112522000D01*
D77*
X169185500Y-100923000D02*
X169227500Y-100965000D01*
D78*
X128620500Y-106680000D02*
X128620500Y-108204500D01*
D77*
X158614000Y-98878500D02*
X158432500Y-99060000D01*
X140195000Y-114440000D02*
X140335000Y-114300000D01*
X186372500Y-80962500D02*
X183832500Y-80962500D01*
X184374000Y-123952000D02*
X183072000Y-123952000D01*
D78*
X118779000Y-98383500D02*
X118779000Y-100923500D01*
D74*
X90630000Y-105572000D02*
X90630000Y-101580500D01*
D78*
X125999500Y-118771500D02*
X126915000Y-117856000D01*
D79*
X162674500Y-101733686D02*
X162794186Y-101614000D01*
D78*
X188078000Y-71882500D02*
X188078000Y-70367000D01*
D77*
X178680000Y-86933000D02*
X176909500Y-86933000D01*
D81*
X95876000Y-74704000D02*
X97146000Y-74704000D01*
D77*
X173422500Y-119765000D02*
X173355000Y-119697500D01*
D79*
X181620000Y-79365000D02*
X182120000Y-78865000D01*
D77*
X152641000Y-116590000D02*
X152641000Y-114376500D01*
D79*
X167249000Y-96272000D02*
X167709500Y-96272000D01*
X182880000Y-92075000D02*
X183240000Y-92435000D01*
X120650000Y-128270000D02*
X120650000Y-126682500D01*
X182245000Y-92075000D02*
X182240000Y-92070000D01*
X119805000Y-129115000D02*
X120650000Y-128270000D01*
D77*
X181628000Y-86933000D02*
X181715000Y-87020000D01*
X138327000Y-88343000D02*
X138327000Y-84857000D01*
X140100500Y-123908000D02*
X140017500Y-123825000D01*
D79*
X162490000Y-97498000D02*
X162990000Y-97498000D01*
D77*
X183878000Y-112440500D02*
X183832500Y-112395000D01*
X174734000Y-113915000D02*
X174734000Y-112504000D01*
D79*
X182240000Y-85402500D02*
X182240000Y-84220000D01*
D81*
X102870000Y-96520000D02*
X102235000Y-96520000D01*
D79*
X181740000Y-85912500D02*
X181927500Y-85725000D01*
D77*
X176784000Y-117538500D02*
X176847500Y-117475000D01*
D78*
X126047500Y-124295000D02*
X125999500Y-124247000D01*
D77*
X168389000Y-116840000D02*
X168389000Y-118240000D01*
X177044000Y-103822500D02*
X177044000Y-103626000D01*
X138327000Y-84857000D02*
X138580000Y-84604000D01*
D79*
X107717500Y-122406500D02*
X107717500Y-120904000D01*
D76*
X105410000Y-112558000D02*
X105642500Y-112790500D01*
D77*
X173355000Y-103822500D02*
X175260000Y-103822500D01*
X183850000Y-87630000D02*
X183265000Y-87045000D01*
D79*
X136152000Y-99377500D02*
X137795000Y-99377500D01*
D78*
X135521500Y-84604000D02*
X138580000Y-84604000D01*
X171132500Y-73660000D02*
X171588500Y-73204000D01*
D77*
X173990000Y-98742500D02*
X175744000Y-98742500D01*
D78*
X144696500Y-80561500D02*
X145255000Y-81120000D01*
D77*
X178680000Y-86933000D02*
X181628000Y-86933000D01*
X182851500Y-72687000D02*
X184076500Y-72687000D01*
X183512500Y-80962500D02*
X183145000Y-80595000D01*
D76*
X100237000Y-102963000D02*
X100237000Y-101939500D01*
D77*
X168520000Y-90700000D02*
X170806000Y-90700000D01*
D79*
X183240000Y-85767500D02*
X183240000Y-87020000D01*
D77*
X149860000Y-80645000D02*
X149860000Y-82381500D01*
D76*
X96114000Y-82096000D02*
X96654000Y-81556000D01*
D78*
X104138000Y-96605500D02*
X105990500Y-96605500D01*
D76*
X92066000Y-82096000D02*
X96114000Y-82096000D01*
D79*
X182870000Y-79365000D02*
X183120000Y-79615000D01*
D77*
X175260000Y-103822500D02*
X177044000Y-103822500D01*
D79*
X181620000Y-79365000D02*
X182870000Y-79365000D01*
D80*
X105642500Y-112790500D02*
X105642500Y-117856000D01*
D77*
X175744000Y-99963500D02*
X175744000Y-98742500D01*
X154550000Y-113560000D02*
X153457500Y-113560000D01*
X127757000Y-80767000D02*
X127757000Y-82386500D01*
X183072000Y-123952000D02*
X182945000Y-123825000D01*
X186372500Y-85725000D02*
X186372500Y-87630000D01*
D79*
X119120500Y-129115000D02*
X119805000Y-129115000D01*
X182086250Y-85566250D02*
X183038750Y-85566250D01*
D78*
X126899500Y-124560500D02*
X128186000Y-124560500D01*
D77*
X186372500Y-87630000D02*
X183850000Y-87630000D01*
X152400000Y-123507500D02*
X152641000Y-123266500D01*
D78*
X145255000Y-81120000D02*
X145255000Y-82386500D01*
D76*
X94932500Y-103187500D02*
X95250000Y-103505000D01*
D78*
X107857000Y-84997000D02*
X107857000Y-89239500D01*
X125999500Y-124247000D02*
X125999500Y-118771500D01*
D77*
X168414000Y-115440000D02*
X168389000Y-115465000D01*
D74*
X106424500Y-128541500D02*
X106424500Y-126656000D01*
D77*
X123207000Y-80662000D02*
X123190000Y-80645000D01*
X140195000Y-123647500D02*
X140017500Y-123825000D01*
D81*
X97146000Y-81064000D02*
X96654000Y-81556000D01*
D78*
X135521500Y-84604000D02*
X135521500Y-87376500D01*
D79*
X181740000Y-92580000D02*
X182245000Y-92075000D01*
D82*
X112945000Y-117792500D02*
X111760000Y-117792500D01*
D77*
X168414000Y-115440000D02*
X168889000Y-115440000D01*
D74*
X137574500Y-94518000D02*
X137795000Y-94297500D01*
D79*
X182240000Y-92070000D02*
X182240000Y-90570000D01*
D78*
X94730000Y-92860500D02*
X94155000Y-92285500D01*
D79*
X182245000Y-92075000D02*
X182880000Y-92075000D01*
D77*
X186578000Y-112507000D02*
X186690000Y-112395000D01*
X176784000Y-119765000D02*
X176784000Y-117538500D01*
X183265000Y-93395000D02*
X183265000Y-93370000D01*
X165100000Y-104457500D02*
X164782500Y-104775000D01*
D74*
X147823571Y-100965000D02*
X147320000Y-100965000D01*
D77*
X187600000Y-79016000D02*
X187049000Y-79016000D01*
D78*
X171588500Y-73204000D02*
X172249500Y-73204000D01*
D76*
X99695000Y-103505000D02*
X100237000Y-102963000D01*
D77*
X174734000Y-112504000D02*
X174625000Y-112395000D01*
D74*
X136152000Y-94518000D02*
X137574500Y-94518000D01*
D76*
X116313500Y-112361000D02*
X116474500Y-112522000D01*
D77*
X186507500Y-85590000D02*
X186372500Y-85725000D01*
D80*
X104809000Y-106956000D02*
X104809000Y-112397000D01*
D78*
X118779000Y-102904000D02*
X120049000Y-104174000D01*
D79*
X161916000Y-92401500D02*
X161607500Y-92710000D01*
D77*
X152400000Y-123825000D02*
X152400000Y-123507500D01*
D78*
X171132500Y-74612500D02*
X171132500Y-73660000D01*
D77*
X171314000Y-88764000D02*
X171132500Y-88582500D01*
D79*
X136152000Y-99377500D02*
X136152000Y-99518000D01*
D78*
X128620500Y-108204500D02*
X128599000Y-108226000D01*
D80*
X101092000Y-117856000D02*
X105642500Y-117856000D01*
D76*
X113366000Y-112558000D02*
X113402000Y-112522000D01*
D78*
X120049000Y-104174000D02*
X120049000Y-106956000D01*
D77*
X162916000Y-90699000D02*
X163762500Y-89852500D01*
X173144000Y-105688500D02*
X173144000Y-104033500D01*
D79*
X142082500Y-114777500D02*
X142082500Y-113560000D01*
X181740000Y-93370000D02*
X181740000Y-92580000D01*
X202731500Y-109386500D02*
X202565000Y-109220000D01*
D76*
X104809000Y-112397000D02*
X104648000Y-112558000D01*
D77*
X138327000Y-89323839D02*
X138795003Y-89791842D01*
D78*
X180712000Y-71700500D02*
X181927500Y-70485000D01*
D77*
X182240000Y-82872500D02*
X182240000Y-83473856D01*
D79*
X106924500Y-123556000D02*
X106924500Y-123199500D01*
D77*
X178680000Y-80329000D02*
X176849000Y-80329000D01*
X183832500Y-80962500D02*
X183512500Y-80962500D01*
X146045000Y-115257500D02*
X146050000Y-115252500D01*
D79*
X140077000Y-118618000D02*
X142748000Y-118618000D01*
%TO.N,/CPU/ENCODER_3_PHA*%
X139782500Y-91205000D02*
X139782500Y-95777000D01*
X137505050Y-90552500D02*
X139130000Y-90552500D01*
X150495000Y-117475000D02*
X151010000Y-117990000D01*
X136152000Y-90518000D02*
X137470550Y-90518000D01*
X151010000Y-117990000D02*
X152523000Y-117990000D01*
X137470550Y-90518000D02*
X137505050Y-90552500D01*
X139782500Y-95777000D02*
X140208000Y-96202500D01*
X140208000Y-96202500D02*
X142557500Y-96202500D01*
X150495000Y-116030000D02*
X150495000Y-117475000D01*
X139130000Y-90552500D02*
X139782500Y-91205000D01*
%TO.N,Net-(J14-Pin_2)*%
X126127000Y-70882000D02*
X125095000Y-69850000D01*
X125730000Y-80962500D02*
X125730000Y-80645000D01*
X125095000Y-69850000D02*
X125095000Y-64770000D01*
X125899000Y-63966000D02*
X126864000Y-63966000D01*
X126238000Y-70882000D02*
X126127000Y-70882000D01*
X126457000Y-81689500D02*
X125730000Y-80962500D01*
X126457000Y-82386500D02*
X126457000Y-81689500D01*
X125095000Y-64770000D02*
X125899000Y-63966000D01*
%TO.N,/Power & Analog/USB2-DP*%
X111523345Y-100372500D02*
X112073418Y-100372500D01*
X111070923Y-99145500D02*
X111461673Y-99536250D01*
X111551327Y-100310827D02*
X112164000Y-100923500D01*
X109338000Y-99145500D02*
X111070923Y-99145500D01*
X111461673Y-100310827D02*
X111551327Y-100310827D01*
X111461673Y-99536250D02*
X111461673Y-100310827D01*
X111461673Y-100310827D02*
X111523345Y-100372500D01*
%TO.N,Net-(J15-Pin_4)*%
X125095000Y-78740000D02*
X129857500Y-78740000D01*
X133774000Y-71982000D02*
X134874000Y-70882000D01*
X134874000Y-60579000D02*
X134261000Y-59966000D01*
X130492500Y-72390000D02*
X130900500Y-71982000D01*
X134261000Y-59966000D02*
X133214000Y-59966000D01*
X124507000Y-78152000D02*
X125095000Y-78740000D01*
X130900500Y-71982000D02*
X133774000Y-71982000D01*
X129857500Y-78740000D02*
X130492500Y-78105000D01*
X124507000Y-76661500D02*
X124507000Y-78152000D01*
X130492500Y-78105000D02*
X130492500Y-72390000D01*
X134874000Y-70882000D02*
X134874000Y-60579000D01*
%TO.N,Net-(J15-Pin_2)*%
X131445000Y-64770000D02*
X132249000Y-63966000D01*
X125157000Y-76661500D02*
X125157000Y-77849500D01*
X132334000Y-70882000D02*
X132334000Y-70739000D01*
X132334000Y-70739000D02*
X131445000Y-69850000D01*
X129540000Y-78105000D02*
X129857500Y-77787500D01*
X125412500Y-78105000D02*
X129540000Y-78105000D01*
X129857500Y-71755000D02*
X130730500Y-70882000D01*
X132249000Y-63966000D02*
X133214000Y-63966000D01*
X130730500Y-70882000D02*
X132334000Y-70882000D01*
X125157000Y-77849500D02*
X125412500Y-78105000D01*
X129857500Y-77787500D02*
X129857500Y-71755000D01*
X131445000Y-69850000D02*
X131445000Y-64770000D01*
D74*
%TO.N,Net-(J16-Pin_4)*%
X154305000Y-68580000D02*
X154178000Y-68453000D01*
X149225000Y-80010000D02*
X149223602Y-80008602D01*
X149205000Y-82386500D02*
X149133000Y-82314500D01*
D79*
X153311000Y-59966000D02*
X152264000Y-59966000D01*
X154178000Y-68262500D02*
X154178000Y-60833000D01*
D74*
X149133000Y-80102000D02*
X149225000Y-80010000D01*
D79*
X154178000Y-68453000D02*
X154178000Y-68262500D01*
X154178000Y-60833000D02*
X153311000Y-59966000D01*
X149133000Y-82314500D02*
X149133000Y-80102000D01*
X154178000Y-70882000D02*
X154178000Y-68262500D01*
%TO.N,Net-(J16-Pin_2)*%
X148555000Y-80292500D02*
X148272500Y-80010000D01*
X151299000Y-63966000D02*
X152264000Y-63966000D01*
X150495000Y-64770000D02*
X151299000Y-63966000D01*
X148555000Y-82386500D02*
X148555000Y-80292500D01*
X151527000Y-70882000D02*
X150495000Y-69850000D01*
X150495000Y-69850000D02*
X150495000Y-64770000D01*
X151638000Y-70882000D02*
X151527000Y-70882000D01*
%TO.N,Net-(J17-Pin_2)*%
X157649000Y-63966000D02*
X158614000Y-63966000D01*
X155892500Y-77787500D02*
X155575000Y-78105000D01*
X155892500Y-71949025D02*
X155892500Y-77787500D01*
X156845000Y-70739000D02*
X156845000Y-69850000D01*
X156988000Y-70882000D02*
X156959525Y-70882000D01*
X155575000Y-78105000D02*
X147320000Y-78105000D01*
X147320000Y-78105000D02*
X147255000Y-78040000D01*
X157988000Y-70882000D02*
X156988000Y-70882000D01*
X156845000Y-64770000D02*
X157649000Y-63966000D01*
X156959525Y-70882000D02*
X155892500Y-71949025D01*
X156988000Y-70882000D02*
X156845000Y-70739000D01*
X156845000Y-69850000D02*
X156845000Y-64770000D01*
X147255000Y-78040000D02*
X147255000Y-76661500D01*
%TO.N,Net-(J17-Pin_4)*%
X156527500Y-78105000D02*
X156527500Y-72230500D01*
X159576000Y-71834000D02*
X160528000Y-70882000D01*
X147312947Y-78740000D02*
X155892500Y-78740000D01*
X156527500Y-72230500D02*
X156924000Y-71834000D01*
X146605000Y-78032053D02*
X147312947Y-78740000D01*
X146605000Y-76661500D02*
X146605000Y-78032053D01*
X155892500Y-78740000D02*
X156527500Y-78105000D01*
X159661000Y-59966000D02*
X158614000Y-59966000D01*
X160528000Y-70882000D02*
X160528000Y-60833000D01*
X160528000Y-60833000D02*
X159661000Y-59966000D01*
X156924000Y-71834000D02*
X159576000Y-71834000D01*
%TO.N,Net-(J18-Pin_2)*%
X198000000Y-79495000D02*
X198000000Y-78000000D01*
X197307000Y-80188000D02*
X198000000Y-79495000D01*
X192008000Y-80188000D02*
X197307000Y-80188000D01*
%TO.N,Net-(J18-Pin_4)*%
X192008000Y-76914500D02*
X192722500Y-76200000D01*
X201295000Y-76200000D02*
X202000000Y-76905000D01*
X192722500Y-76200000D02*
X201295000Y-76200000D01*
X192008000Y-77724000D02*
X192008000Y-76914500D01*
X202000000Y-76905000D02*
X202000000Y-78000000D01*
%TO.N,Net-(J19-Pin_4)*%
X191856000Y-84051500D02*
X193040000Y-82867500D01*
X193040000Y-82867500D02*
X201295000Y-82867500D01*
X201295000Y-82867500D02*
X202000000Y-83572500D01*
X191856000Y-84328000D02*
X191856000Y-84051500D01*
X202000000Y-83572500D02*
X202000000Y-84762000D01*
%TO.N,Net-(J19-Pin_2)*%
X198000000Y-86130000D02*
X198000000Y-84762000D01*
X191856000Y-86890000D02*
X197240000Y-86890000D01*
X197240000Y-86890000D02*
X198000000Y-86130000D01*
%TO.N,/GPIO SPI GEN_PWM/OUT1*%
X177410000Y-136166000D02*
X177410000Y-139500000D01*
%TO.N,/GPIO SPI GEN_PWM/OUT3*%
X182490000Y-136166000D02*
X182490000Y-139484000D01*
D77*
%TO.N,+3.3V*%
X97939000Y-113814000D02*
X99060000Y-114935000D01*
D79*
X162228500Y-101614000D02*
X162728500Y-101114000D01*
X174804000Y-73204000D02*
X174625000Y-73025000D01*
D74*
X136152000Y-92518000D02*
X137669500Y-92518000D01*
D78*
X157988000Y-72882000D02*
X160528000Y-72882000D01*
X115014000Y-116538000D02*
X115020000Y-116544000D01*
D79*
X174625000Y-71254000D02*
X172249500Y-71254000D01*
D74*
X139430003Y-101945631D02*
X139430003Y-101917500D01*
D78*
X128905000Y-120660500D02*
X128905000Y-117941000D01*
D77*
X198389500Y-96566500D02*
X186357000Y-96566500D01*
X178680000Y-78254000D02*
X181111000Y-78254000D01*
D79*
X161653500Y-91211500D02*
X161653500Y-90961500D01*
D78*
X130420000Y-99082000D02*
X130420000Y-100165821D01*
D79*
X161990000Y-97498000D02*
X161990000Y-98677500D01*
D74*
X149935634Y-91440000D02*
X149907503Y-91440000D01*
D78*
X135355500Y-124560500D02*
X133926000Y-124560500D01*
D83*
X121733500Y-76835000D02*
X119380000Y-76835000D01*
D79*
X165848000Y-95772000D02*
X165735000Y-95885000D01*
D77*
X182851500Y-73337000D02*
X181332500Y-73337000D01*
D74*
X149827000Y-103693000D02*
X149827000Y-102014113D01*
D77*
X173144000Y-97506000D02*
X173346000Y-97304000D01*
X156896000Y-123908000D02*
X158349500Y-123908000D01*
X143841500Y-82550000D02*
X144005000Y-82386500D01*
X168656000Y-71158000D02*
X169507000Y-71158000D01*
X96908000Y-113814000D02*
X97939000Y-113814000D01*
X177673000Y-123952000D02*
X177800000Y-123825000D01*
X145649500Y-123908000D02*
X145732500Y-123825000D01*
X170210000Y-123952000D02*
X171005500Y-123952000D01*
D78*
X128984000Y-117850000D02*
X128984000Y-116538000D01*
D77*
X99060000Y-114935000D02*
X100330000Y-114935000D01*
X156625000Y-116567000D02*
X156625000Y-113560000D01*
D78*
X141088000Y-78486500D02*
X141088000Y-77352000D01*
D74*
X136152000Y-100018000D02*
X133038000Y-100018000D01*
D77*
X158349500Y-123908000D02*
X158432500Y-123825000D01*
D78*
X141472000Y-72882000D02*
X141478000Y-72888000D01*
X119634000Y-72882000D02*
X122174000Y-72882000D01*
X133468000Y-87398000D02*
X133468000Y-88383000D01*
D79*
X162728500Y-101114000D02*
X163187000Y-101114000D01*
D83*
X118990000Y-78486500D02*
X118990000Y-77225000D01*
D79*
X163187000Y-100004500D02*
X161925000Y-98742500D01*
D77*
X161916000Y-86350000D02*
X165726000Y-86350000D01*
X169553000Y-71204000D02*
X172249500Y-71204000D01*
X176996500Y-78254000D02*
X176847500Y-78105000D01*
X178680000Y-78254000D02*
X176996500Y-78254000D01*
D78*
X145034000Y-72888000D02*
X147568000Y-72888000D01*
X103505000Y-80010000D02*
X103505000Y-81844500D01*
D77*
X186357000Y-96566500D02*
X186324500Y-96599000D01*
D78*
X147568000Y-72888000D02*
X147574000Y-72882000D01*
D77*
X175484000Y-115028500D02*
X174942500Y-115570000D01*
X173144000Y-99963500D02*
X173144000Y-97506000D01*
X173346000Y-97304000D02*
X173346000Y-96193500D01*
D79*
X161990000Y-97498000D02*
X161990000Y-97135068D01*
D77*
X176052000Y-123952000D02*
X177673000Y-123952000D01*
D74*
X137515497Y-95018000D02*
X137795000Y-95297503D01*
D78*
X128990000Y-117856000D02*
X128984000Y-117850000D01*
D83*
X121882000Y-76686500D02*
X121733500Y-76835000D01*
D78*
X141088000Y-77352000D02*
X141778500Y-76661500D01*
X94606000Y-74704000D02*
X94606000Y-78096000D01*
D77*
X170547000Y-91500000D02*
X171314000Y-92267000D01*
D76*
X102734000Y-114858000D02*
X100407000Y-114858000D01*
D77*
X177178000Y-73957500D02*
X176474500Y-73254000D01*
D79*
X161990000Y-98677500D02*
X161925000Y-98742500D01*
D78*
X130420000Y-99082000D02*
X132058000Y-99082000D01*
X163792000Y-71158000D02*
X165726000Y-71158000D01*
D74*
X136152000Y-95018000D02*
X137515497Y-95018000D01*
D77*
X143341521Y-82550000D02*
X143841500Y-82550000D01*
X175484000Y-113915000D02*
X175484000Y-115028500D01*
D78*
X128186000Y-120660500D02*
X128905000Y-120660500D01*
X115020000Y-116544000D02*
X115020000Y-120438000D01*
D79*
X161916000Y-90699000D02*
X161916000Y-88909000D01*
D77*
X144623000Y-117318000D02*
X144157500Y-116852500D01*
D78*
X133446500Y-84604000D02*
X133446500Y-87376500D01*
D74*
X150357634Y-91018000D02*
X149935634Y-91440000D01*
D78*
X113538000Y-72882000D02*
X116078000Y-72882000D01*
D79*
X162831500Y-91711500D02*
X162331500Y-91211500D01*
D77*
X172670000Y-90911000D02*
X171314000Y-92267000D01*
D78*
X121110000Y-124412000D02*
X121017000Y-124505000D01*
D77*
X184628000Y-113915000D02*
X184628000Y-115092000D01*
X181077000Y-84858000D02*
X181715000Y-84220000D01*
D83*
X121882000Y-76661500D02*
X121882000Y-76686500D01*
D77*
X168520000Y-91500000D02*
X170547000Y-91500000D01*
D79*
X163187000Y-101114000D02*
X163187000Y-100614000D01*
D77*
X169507000Y-71158000D02*
X169553000Y-71204000D01*
D78*
X115020000Y-120438000D02*
X114853000Y-120605000D01*
X129120000Y-101465821D02*
X129120000Y-102130000D01*
D74*
X137669500Y-92518000D02*
X137795000Y-92392500D01*
D78*
X133446500Y-87376500D02*
X133468000Y-87398000D01*
D74*
X137827000Y-88343000D02*
X137827000Y-89820500D01*
D77*
X144136000Y-123908000D02*
X145649500Y-123908000D01*
X181374000Y-90911000D02*
X181715000Y-90570000D01*
D83*
X118990000Y-77225000D02*
X119380000Y-76835000D01*
D78*
X160528000Y-72882000D02*
X162068000Y-72882000D01*
X126238000Y-72882000D02*
X128778000Y-72882000D01*
D79*
X176474500Y-71254000D02*
X174625000Y-71254000D01*
D77*
X171314000Y-94161500D02*
X171767500Y-94615000D01*
X171314000Y-92267000D02*
X171314000Y-94161500D01*
X161386500Y-105178000D02*
X160105500Y-105178000D01*
D78*
X130420000Y-100165821D02*
X129120000Y-101465821D01*
D74*
X151502000Y-90018000D02*
X153187000Y-90018000D01*
D78*
X94606000Y-78096000D02*
X94615000Y-78105000D01*
D77*
X158115000Y-113665000D02*
X158010000Y-113560000D01*
X182772500Y-103080000D02*
X183832500Y-104140000D01*
X178680000Y-90911000D02*
X172670000Y-90911000D01*
D79*
X163652500Y-97335500D02*
X165598000Y-97335500D01*
X162990000Y-96135068D02*
X162990000Y-95673000D01*
D77*
X161916000Y-88891000D02*
X161925000Y-88900000D01*
X144157500Y-116852500D02*
X144157500Y-113560000D01*
X161916000Y-86350000D02*
X161916000Y-88891000D01*
X176933000Y-84858000D02*
X176847500Y-84772500D01*
X171005500Y-123952000D02*
X171767500Y-123190000D01*
X158373000Y-117340000D02*
X157398000Y-117340000D01*
D74*
X133038000Y-100018000D02*
X132080000Y-99060000D01*
D79*
X163178500Y-91711500D02*
X162831500Y-91711500D01*
X161916000Y-88909000D02*
X161925000Y-88900000D01*
D74*
X137827000Y-89820500D02*
X137795000Y-89852500D01*
D78*
X135890000Y-125095000D02*
X135355500Y-124560500D01*
D77*
X173346000Y-96193500D02*
X171767500Y-94615000D01*
D78*
X132334000Y-72882000D02*
X134874000Y-72882000D01*
D76*
X106680000Y-105410000D02*
X106680000Y-106330000D01*
D77*
X178680000Y-84858000D02*
X181077000Y-84858000D01*
X145927000Y-117318000D02*
X144623000Y-117318000D01*
D79*
X161653500Y-90961500D02*
X161916000Y-90699000D01*
X161662000Y-101614000D02*
X162228500Y-101614000D01*
X174625000Y-73025000D02*
X174625000Y-71254000D01*
D77*
X158614000Y-94161500D02*
X158432500Y-93980000D01*
X157398000Y-117340000D02*
X156625000Y-116567000D01*
D79*
X163187000Y-100614000D02*
X163187000Y-100004500D01*
D77*
X180712000Y-73957500D02*
X177178000Y-73957500D01*
X184628000Y-115092000D02*
X184150000Y-115570000D01*
D76*
X106680000Y-106330000D02*
X107306000Y-106956000D01*
D74*
X153187000Y-90018000D02*
X153352500Y-89852500D01*
D77*
X145945000Y-113560000D02*
X146050000Y-113665000D01*
D78*
X132058000Y-99082000D02*
X132080000Y-99060000D01*
D77*
X167110500Y-99314000D02*
X165989000Y-99314000D01*
D78*
X151638000Y-72882000D02*
X154178000Y-72882000D01*
X132080000Y-95906000D02*
X130742000Y-95906000D01*
D79*
X165598000Y-97335500D02*
X165735000Y-97472500D01*
X176474500Y-73204000D02*
X174804000Y-73204000D01*
D77*
X181111000Y-78254000D02*
X181595000Y-77770000D01*
X160105500Y-105178000D02*
X160020000Y-105092500D01*
X165735000Y-99060000D02*
X165735000Y-97472500D01*
X178680000Y-90911000D02*
X181374000Y-90911000D01*
D78*
X128905000Y-117941000D02*
X128990000Y-117856000D01*
D77*
X144157500Y-113560000D02*
X145945000Y-113560000D01*
D78*
X133468000Y-88383000D02*
X133985000Y-88900000D01*
D77*
X181332500Y-73337000D02*
X180712000Y-73957500D01*
X158614000Y-89081500D02*
X158432500Y-88900000D01*
X169939000Y-119774000D02*
X169939000Y-118240000D01*
X170180000Y-120015000D02*
X169939000Y-119774000D01*
D78*
X141778500Y-76661500D02*
X144005000Y-76661500D01*
X103505000Y-81844500D02*
X103299500Y-82050000D01*
D79*
X162331500Y-91211500D02*
X161653500Y-91211500D01*
D78*
X138938000Y-72882000D02*
X141472000Y-72882000D01*
X137777000Y-88343000D02*
X137220000Y-88900000D01*
D74*
X151502000Y-91018000D02*
X150357634Y-91018000D01*
X138827000Y-102548634D02*
X139430003Y-101945631D01*
D78*
X121017000Y-124505000D02*
X119392500Y-124505000D01*
D77*
X178680000Y-84858000D02*
X176933000Y-84858000D01*
X165989000Y-99314000D02*
X165735000Y-99060000D01*
D78*
X162068000Y-72882000D02*
X163792000Y-71158000D01*
D74*
X138827000Y-103693000D02*
X138827000Y-102548634D01*
D77*
X165726000Y-71158000D02*
X168656000Y-71158000D01*
D79*
X161990000Y-97135068D02*
X162990000Y-96135068D01*
X167249000Y-95772000D02*
X165848000Y-95772000D01*
D77*
X182236000Y-103080000D02*
X182772500Y-103080000D01*
D76*
X100407000Y-114858000D02*
X100330000Y-114935000D01*
D74*
X149907503Y-91440000D02*
X149860000Y-91487503D01*
D77*
X165735000Y-97472500D02*
X165735000Y-95885000D01*
D74*
X149827000Y-102014113D02*
X149863909Y-101977204D01*
D77*
X158614000Y-90149000D02*
X158614000Y-89081500D01*
D78*
X114853000Y-120605000D02*
X113652500Y-120605000D01*
X137220000Y-88900000D02*
X133985000Y-88900000D01*
D77*
X186974000Y-123952000D02*
X188403000Y-123952000D01*
X188403000Y-123952000D02*
X188530000Y-123825000D01*
X158614000Y-95504500D02*
X158614000Y-94161500D01*
X158010000Y-113560000D02*
X156625000Y-113560000D01*
D79*
%TO.N,/GPIO SPI GEN_PWM/IN1*%
X177410000Y-130324000D02*
X177410000Y-133626000D01*
%TO.N,/CPU/MOT_PWM1*%
X116757500Y-116605000D02*
X116757500Y-119462500D01*
X132182000Y-101180500D02*
X132182000Y-110070500D01*
X132344500Y-101018000D02*
X132182000Y-101180500D01*
X118110000Y-115252500D02*
X116757500Y-116605000D01*
X127000000Y-115252500D02*
X118110000Y-115252500D01*
X116757500Y-119462500D02*
X114965000Y-121255000D01*
X136152000Y-101018000D02*
X132344500Y-101018000D01*
X132182000Y-110070500D02*
X127000000Y-115252500D01*
X114965000Y-121255000D02*
X113652500Y-121255000D01*
%TO.N,/GPIO SPI GEN_PWM/IN2*%
X179950000Y-130308000D02*
X179950000Y-133626000D01*
%TO.N,/GPIO SPI GEN_PWM/GEN_PWM2_EXT*%
X174870000Y-130308000D02*
X174870000Y-133626000D01*
X174870000Y-130308000D02*
X168090500Y-130308000D01*
X167610000Y-129827500D02*
X167610000Y-124902000D01*
X168090500Y-130308000D02*
X167610000Y-129827500D01*
%TO.N,/GPIO SPI GEN_PWM/GEN_PWM1_EXT*%
X174870000Y-136166000D02*
X174870000Y-139484000D01*
X165735000Y-134937500D02*
X173641500Y-134937500D01*
X165288000Y-123002000D02*
X165100000Y-123190000D01*
X173641500Y-134937500D02*
X174870000Y-136166000D01*
X165100000Y-123190000D02*
X165100000Y-134302500D01*
X167610000Y-123002000D02*
X165288000Y-123002000D01*
X165100000Y-134302500D02*
X165735000Y-134937500D01*
%TO.N,/GPIO SPI GEN_PWM/OUT2*%
X179950000Y-136166000D02*
X179950000Y-139484000D01*
%TO.N,/GPIO SPI GEN_PWM/IN3*%
X182490000Y-130308000D02*
X182490000Y-133626000D01*
%TO.N,Net-(J27-Pin_3)*%
X193697000Y-93494000D02*
X194769500Y-94566500D01*
X191856000Y-93494000D02*
X193697000Y-93494000D01*
X194769500Y-94566500D02*
X198389500Y-94566500D01*
%TO.N,Net-(J27-Pin_5)*%
X192334500Y-90544000D02*
X192357000Y-90566500D01*
X191856000Y-90544000D02*
X191856000Y-90401500D01*
X192357000Y-90566500D02*
X198389500Y-90566500D01*
X191856000Y-90544000D02*
X192334500Y-90544000D01*
%TO.N,/GPIO SPI GEN_PWM/SPI_CS_EXT*%
X187538000Y-99844000D02*
X193189000Y-99844000D01*
X193189000Y-99844000D02*
X194016000Y-100671000D01*
X194016000Y-100671000D02*
X194016000Y-103908000D01*
%TO.N,/GPIO SPI GEN_PWM/SPI_MOSI_EXT*%
X201463500Y-107464000D02*
X202016000Y-106911500D01*
X187554000Y-107464000D02*
X201463500Y-107464000D01*
X202016000Y-106911500D02*
X202016000Y-103908000D01*
%TO.N,/GPIO SPI GEN_PWM/SPI_MISO_EXT*%
X187554000Y-104924000D02*
X189379000Y-104924000D01*
X189865000Y-105410000D02*
X199390000Y-105410000D01*
X200016000Y-104784000D02*
X200016000Y-103908000D01*
X189379000Y-104924000D02*
X189865000Y-105410000D01*
X199390000Y-105410000D02*
X200016000Y-104784000D01*
%TO.N,/GPIO SPI GEN_PWM/SPI_CLK_EXT*%
X187538000Y-102384000D02*
X189061500Y-102384000D01*
X189061500Y-102384000D02*
X189230000Y-102552500D01*
%TO.N,Net-(J23-Pin_4)*%
X177482500Y-69850000D02*
X166687500Y-69850000D01*
X177800000Y-70167500D02*
X177482500Y-69850000D01*
X166052500Y-60642500D02*
X166729000Y-59966000D01*
X168266000Y-59966000D02*
X174616000Y-59966000D01*
X166687500Y-69850000D02*
X166052500Y-69215000D01*
X176474500Y-71904000D02*
X177651000Y-71904000D01*
X166729000Y-59966000D02*
X168266000Y-59966000D01*
X177800000Y-71755000D02*
X177800000Y-70167500D01*
X177651000Y-71904000D02*
X177800000Y-71755000D01*
X166052500Y-69215000D02*
X166052500Y-60642500D01*
%TO.N,Net-(J23-Pin_2)*%
X177953500Y-72554000D02*
X176474500Y-72554000D01*
X178200000Y-72307500D02*
X177953500Y-72554000D01*
X174616000Y-63966000D02*
X177631000Y-63966000D01*
X178200000Y-64535000D02*
X178200000Y-72307500D01*
X177631000Y-63966000D02*
X178200000Y-64535000D01*
X174616000Y-63966000D02*
X168266000Y-63966000D01*
%TO.N,Net-(J25-Pin_2)*%
X186476500Y-72687000D02*
X187007500Y-72156000D01*
X185951500Y-72687000D02*
X186476500Y-72687000D01*
X186203500Y-63966000D02*
X184268000Y-63966000D01*
X184268000Y-63966000D02*
X180822000Y-63966000D01*
X180822000Y-63966000D02*
X180086000Y-63230000D01*
X180086000Y-63230000D02*
X180086000Y-63246000D01*
X187007500Y-72156000D02*
X187007500Y-64770000D01*
X187007500Y-64770000D02*
X186203500Y-63966000D01*
%TO.N,Net-(J25-Pin_4)*%
X180086000Y-61214000D02*
X181334000Y-59966000D01*
X189230000Y-73025000D02*
X189547500Y-72707500D01*
X187325000Y-73025000D02*
X189230000Y-73025000D01*
X188871000Y-59966000D02*
X184268000Y-59966000D01*
X189547500Y-60642500D02*
X188871000Y-59966000D01*
X181334000Y-59966000D02*
X184268000Y-59966000D01*
X189547500Y-72707500D02*
X189547500Y-60642500D01*
X185951500Y-73337000D02*
X187013000Y-73337000D01*
X180086000Y-61230000D02*
X180086000Y-61214000D01*
X187013000Y-73337000D02*
X187325000Y-73025000D01*
D81*
%TO.N,Net-(J26-Pin_2)*%
X96146000Y-84096000D02*
X96654000Y-84604000D01*
X92066000Y-84096000D02*
X96146000Y-84096000D01*
D79*
%TO.N,Net-(U4-CH1)*%
X144780000Y-126682500D02*
X144780000Y-127952500D01*
X141991000Y-117318000D02*
X140077000Y-117318000D01*
X142061000Y-122958000D02*
X142557500Y-123454500D01*
X142557500Y-123454500D02*
X142557500Y-125412500D01*
X141536000Y-122941500D02*
X141536000Y-122958000D01*
X142148000Y-117475000D02*
X141991000Y-117318000D01*
X141536000Y-122958000D02*
X142061000Y-122958000D01*
X144780000Y-127952500D02*
X144462500Y-128270000D01*
X143192500Y-126047500D02*
X144145000Y-126047500D01*
X144462500Y-128270000D02*
X140894000Y-128270000D01*
X142557500Y-125412500D02*
X143192500Y-126047500D01*
X142557500Y-121920000D02*
X141536000Y-122941500D01*
X140894000Y-128270000D02*
X139916000Y-127292000D01*
X144145000Y-126047500D02*
X144780000Y-126682500D01*
%TO.N,Net-(U4-CH2)*%
X141536000Y-124858000D02*
X141536000Y-126931000D01*
X141536000Y-126931000D02*
X141897000Y-127292000D01*
X141536000Y-124858000D02*
X139145500Y-124858000D01*
X139065000Y-124777500D02*
X139065000Y-119455000D01*
X139145500Y-124858000D02*
X139065000Y-124777500D01*
X141897000Y-127292000D02*
X142866000Y-127292000D01*
X139252000Y-119268000D02*
X140077000Y-119268000D01*
X139065000Y-119455000D02*
X139252000Y-119268000D01*
%TO.N,Net-(U4-CH3)*%
X146130500Y-124858000D02*
X146685000Y-125412500D01*
X146676000Y-125421500D02*
X146676000Y-127276000D01*
X144136000Y-124858000D02*
X143361000Y-124858000D01*
X143607000Y-119918000D02*
X145927000Y-119918000D01*
X143361000Y-124858000D02*
X143261000Y-124758000D01*
X144136000Y-124858000D02*
X146130500Y-124858000D01*
X146685000Y-125412500D02*
X146676000Y-125421500D01*
X143261000Y-120264000D02*
X143607000Y-119918000D01*
X143261000Y-124758000D02*
X143261000Y-120264000D01*
%TO.N,Net-(U4-CH4)*%
X148993000Y-122958000D02*
X149542500Y-123507500D01*
X144136000Y-122958000D02*
X148993000Y-122958000D01*
X149542500Y-127192500D02*
X149626000Y-127276000D01*
X149542500Y-123507500D02*
X149542500Y-127192500D01*
X149400500Y-117968000D02*
X149542500Y-118110000D01*
X149542500Y-118110000D02*
X149542500Y-123507500D01*
X145927000Y-117968000D02*
X149400500Y-117968000D01*
%TO.N,Net-(U5-B1Y)*%
X126047500Y-129540000D02*
X126047500Y-126365000D01*
X131641000Y-124264000D02*
X131641000Y-122859836D01*
X133032500Y-128301000D02*
X133206000Y-128474500D01*
X133032500Y-126682500D02*
X133032500Y-128301000D01*
X126047500Y-126365000D02*
X126365000Y-126047500D01*
X126976000Y-130468500D02*
X126047500Y-129540000D01*
X126976000Y-131246500D02*
X126976000Y-130468500D01*
X133190336Y-121310500D02*
X133926000Y-121310500D01*
X129857500Y-126047500D02*
X131641000Y-124264000D01*
X131641000Y-122859836D02*
X133190336Y-121310500D01*
X126365000Y-126047500D02*
X129857500Y-126047500D01*
%TO.N,Net-(U5-B2Y)*%
X126976000Y-128452500D02*
X126976000Y-127024000D01*
X129857500Y-126682500D02*
X132041000Y-124499000D01*
X133190336Y-121960500D02*
X133926000Y-121960500D01*
X132041000Y-123109836D02*
X133190336Y-121960500D01*
X133324000Y-130492500D02*
X133206000Y-130374500D01*
X132041000Y-124499000D02*
X132041000Y-123109836D01*
X134620000Y-130492500D02*
X133324000Y-130492500D01*
X127317500Y-126682500D02*
X129857500Y-126682500D01*
X126976000Y-127024000D02*
X127317500Y-126682500D01*
%TO.N,Net-(U5-B3Y)*%
X134934000Y-131246500D02*
X135806000Y-130374500D01*
X129940000Y-129137244D02*
X129940000Y-127235000D01*
X129940000Y-127235000D02*
X132441000Y-124734000D01*
X132441000Y-124734000D02*
X132441000Y-123359836D01*
X131040000Y-131246500D02*
X131040000Y-130237244D01*
X132441000Y-123359836D02*
X133190336Y-122610500D01*
X131040000Y-131246500D02*
X134934000Y-131246500D01*
X131040000Y-130237244D02*
X129940000Y-129137244D01*
X133190336Y-122610500D02*
X133926000Y-122610500D01*
%TO.N,Net-(U5-B4Y)*%
X135806000Y-126281000D02*
X135806000Y-128474500D01*
X133190336Y-123260500D02*
X133926000Y-123260500D01*
X131040000Y-126770000D02*
X132080000Y-125730000D01*
X132841000Y-123609836D02*
X133190336Y-123260500D01*
X131040000Y-128452500D02*
X131040000Y-126770000D01*
X132080000Y-125730000D02*
X135255000Y-125730000D01*
X132080000Y-125730000D02*
X132715000Y-125730000D01*
X132841000Y-125604000D02*
X132841000Y-123609836D01*
X132715000Y-125730000D02*
X132841000Y-125604000D01*
X135255000Y-125730000D02*
X135806000Y-126281000D01*
%TO.N,Net-(U11-1A)*%
X154296000Y-122958000D02*
X155184250Y-122958000D01*
X155575000Y-125730000D02*
X155892500Y-126047500D01*
X155892500Y-126047500D02*
X157321250Y-126047500D01*
X157797500Y-126523750D02*
X157797500Y-127952500D01*
X157797500Y-127952500D02*
X157480000Y-128270000D01*
X154004000Y-128270000D02*
X153026000Y-127292000D01*
X157480000Y-128270000D02*
X154004000Y-128270000D01*
X155184250Y-122958000D02*
X155575000Y-123348750D01*
X155575000Y-123348750D02*
X155575000Y-125730000D01*
X154296000Y-122881500D02*
X154296000Y-122958000D01*
X157321250Y-126047500D02*
X157797500Y-126523750D01*
X154552500Y-117475000D02*
X154417500Y-117340000D01*
X155257500Y-121920000D02*
X154296000Y-122881500D01*
X154417500Y-117340000D02*
X152523000Y-117340000D01*
%TO.N,Net-(U11-2A)*%
X151210500Y-124858000D02*
X151130000Y-124777500D01*
X154296000Y-124858000D02*
X154296000Y-127292000D01*
X151130000Y-119697500D02*
X151537500Y-119290000D01*
X151537500Y-119290000D02*
X152523000Y-119290000D01*
X154296000Y-124858000D02*
X151210500Y-124858000D01*
X151130000Y-124777500D02*
X151130000Y-119697500D01*
X154296000Y-127292000D02*
X155976000Y-127292000D01*
%TO.N,Net-(U11-3A)*%
X155975000Y-124712000D02*
X155975000Y-120250000D01*
X156285000Y-119940000D02*
X158373000Y-119940000D01*
X156896000Y-124858000D02*
X156121000Y-124858000D01*
X158830500Y-124858000D02*
X159385000Y-125412500D01*
X156121000Y-124858000D02*
X155975000Y-124712000D01*
X159376000Y-125421500D02*
X159376000Y-127292000D01*
X159385000Y-125412500D02*
X159376000Y-125421500D01*
X155975000Y-120250000D02*
X156285000Y-119940000D01*
X156896000Y-124858000D02*
X158830500Y-124858000D01*
%TO.N,Net-(U11-4A)*%
X162122500Y-117990000D02*
X162242500Y-118110000D01*
X158373000Y-117990000D02*
X162122500Y-117990000D01*
X162242500Y-118110000D02*
X162242500Y-123507500D01*
X162242500Y-123507500D02*
X162242500Y-127208500D01*
X162242500Y-127208500D02*
X162326000Y-127292000D01*
X156896000Y-122958000D02*
X161693000Y-122958000D01*
X161693000Y-122958000D02*
X162242500Y-123507500D01*
%TO.N,Net-(U9-B1Y)*%
X116357500Y-123355000D02*
X118457500Y-121255000D01*
X111760000Y-129540000D02*
X111760000Y-126682500D01*
X112160000Y-126282500D02*
X115335000Y-126282500D01*
X116357500Y-125260000D02*
X116357500Y-123355000D01*
X112696500Y-131191000D02*
X112696500Y-130476500D01*
X115335000Y-126282500D02*
X116357500Y-125260000D01*
X112696500Y-130476500D02*
X111760000Y-129540000D01*
X111760000Y-126682500D02*
X112160000Y-126282500D01*
X118457500Y-121255000D02*
X119392500Y-121255000D01*
%TO.N,Net-(U9-B2Y)*%
X118442500Y-121905000D02*
X119392500Y-121905000D01*
X116757500Y-125495000D02*
X116757500Y-123590000D01*
X112696500Y-128397000D02*
X112696500Y-127016000D01*
X112696500Y-127016000D02*
X113030000Y-126682500D01*
X115570000Y-126682500D02*
X116757500Y-125495000D01*
X113030000Y-126682500D02*
X115570000Y-126682500D01*
X116757500Y-123590000D02*
X118442500Y-121905000D01*
%TO.N,Net-(U9-B3Y)*%
X116760500Y-130095500D02*
X115860500Y-129195500D01*
X117157500Y-125730000D02*
X117157500Y-123825000D01*
X118427500Y-122555000D02*
X119392500Y-122555000D01*
X115860500Y-127027000D02*
X117157500Y-125730000D01*
X115860500Y-129195500D02*
X115860500Y-127027000D01*
X117157500Y-123825000D02*
X118427500Y-122555000D01*
X116760500Y-131191000D02*
X116760500Y-130095500D01*
%TO.N,Net-(U9-B4Y)*%
X118397500Y-123205000D02*
X119392500Y-123205000D01*
X116760500Y-126762000D02*
X117582000Y-125940500D01*
X117582000Y-125940500D02*
X117582000Y-124020500D01*
X116760500Y-128397000D02*
X116760500Y-126762000D01*
X117582000Y-124020500D02*
X118397500Y-123205000D01*
%TO.N,/CPU/LED_ACTIVITY*%
X139382500Y-108902500D02*
X139382500Y-110172500D01*
X204152500Y-115570000D02*
X202247500Y-113665000D01*
X137860000Y-128335000D02*
X137860000Y-141987500D01*
X191135000Y-141605000D02*
X191135000Y-128977256D01*
X199137000Y-113665000D02*
X196730000Y-111258000D01*
X139382500Y-110172500D02*
X136842500Y-112712500D01*
X203325500Y-128462000D02*
X204152500Y-127635000D01*
X191650256Y-128462000D02*
X203325500Y-128462000D01*
X139327000Y-103693000D02*
X139327000Y-105989500D01*
X191135000Y-128977256D02*
X191650256Y-128462000D01*
X136842500Y-127317500D02*
X137860000Y-128335000D01*
X202247500Y-113665000D02*
X199137000Y-113665000D01*
X139327000Y-105989500D02*
X139382500Y-106045000D01*
X204152500Y-127635000D02*
X204152500Y-115570000D01*
X190182500Y-142557500D02*
X191135000Y-141605000D01*
X138430000Y-142557500D02*
X190182500Y-142557500D01*
X136842500Y-112712500D02*
X136842500Y-127317500D01*
X137860000Y-141987500D02*
X138430000Y-142557500D01*
%TO.N,/CPU/I2C_SDA_INT*%
X167078578Y-90700000D02*
X167120000Y-90700000D01*
X142294686Y-91675000D02*
X139827000Y-89207314D01*
X162416000Y-92854000D02*
X161607500Y-93662500D01*
X165908500Y-92854000D02*
X166287500Y-92475000D01*
X167640000Y-84772500D02*
X167640000Y-89745539D01*
X161990000Y-94997500D02*
X161990000Y-95673000D01*
X159702500Y-94932500D02*
X160020000Y-94615000D01*
X162416000Y-92224000D02*
X162416000Y-92854000D01*
X167640000Y-89745539D02*
X167135539Y-90250000D01*
X165726000Y-84350000D02*
X167217500Y-84350000D01*
X157162500Y-94618000D02*
X157162500Y-95650244D01*
X167217500Y-84350000D02*
X167640000Y-84772500D01*
X166287500Y-90887500D02*
X166475000Y-90700000D01*
X164782500Y-92854000D02*
X165908500Y-92854000D01*
X161662000Y-102114000D02*
X159899000Y-102114000D01*
X158032256Y-96520000D02*
X159702500Y-96520000D01*
X161607500Y-93662500D02*
X161607500Y-94615000D01*
X162416000Y-92854000D02*
X164782500Y-92854000D01*
X157162500Y-95650244D02*
X158032256Y-96520000D01*
X166287500Y-92475000D02*
X166287500Y-90887500D01*
X144697500Y-91675000D02*
X142294686Y-91675000D01*
X159702500Y-101917500D02*
X159702500Y-96520000D01*
X159899000Y-102114000D02*
X159702500Y-101917500D01*
X159702500Y-96520000D02*
X159702500Y-94932500D01*
X167028578Y-90250000D02*
X166970000Y-90308578D01*
X167135539Y-90250000D02*
X167028578Y-90250000D01*
X168774000Y-96272000D02*
X168344500Y-96272000D01*
X144780000Y-91757500D02*
X144697500Y-91675000D01*
X168344500Y-96272000D02*
X167957500Y-95885000D01*
X166970000Y-90308578D02*
X166970000Y-90591422D01*
X167957500Y-95885000D02*
X167957500Y-94297500D01*
X161607500Y-94615000D02*
X161990000Y-94997500D01*
X160020000Y-94615000D02*
X161607500Y-94615000D01*
X166475000Y-90700000D02*
X167120000Y-90700000D01*
X164465000Y-92710000D02*
X164638500Y-92710000D01*
X153352500Y-94618000D02*
X157162500Y-94618000D01*
X166970000Y-90591422D02*
X167078578Y-90700000D01*
X164638500Y-92710000D02*
X164782500Y-92854000D01*
X139827000Y-89207314D02*
X139827000Y-88343000D01*
%TO.N,/UARTS/UART1_TX*%
X182620000Y-77770000D02*
X182620000Y-76460000D01*
X187822000Y-80188000D02*
X187600000Y-79966000D01*
X190008000Y-80188000D02*
X187822000Y-80188000D01*
X182620000Y-76460000D02*
X182880000Y-76200000D01*
X190908000Y-76290500D02*
X190908000Y-79288000D01*
X190908000Y-79288000D02*
X190008000Y-80188000D01*
X190817500Y-76200000D02*
X190908000Y-76290500D01*
X182880000Y-76200000D02*
X190817500Y-76200000D01*
%TO.N,/UARTS/UART1_RX*%
X187942000Y-77724000D02*
X187600000Y-78066000D01*
X183120000Y-77770000D02*
X183120000Y-76912500D01*
X187600000Y-77427500D02*
X187600000Y-78066000D01*
X187007500Y-76835000D02*
X187600000Y-77427500D01*
X183120000Y-76912500D02*
X183197500Y-76835000D01*
X183197500Y-76835000D02*
X187007500Y-76835000D01*
X190008000Y-77724000D02*
X187942000Y-77724000D01*
%TO.N,/UARTS/UART2_TX*%
X182880698Y-82868198D02*
X190500698Y-82868198D01*
X189856000Y-86890000D02*
X188016000Y-86890000D01*
X182740000Y-83008896D02*
X182880698Y-82868198D01*
X190817500Y-85928500D02*
X189856000Y-86890000D01*
X188016000Y-86890000D02*
X187666000Y-86540000D01*
X190817500Y-83185000D02*
X190817500Y-85928500D01*
X190500698Y-82868198D02*
X190817500Y-83185000D01*
X182740000Y-84220000D02*
X182740000Y-83008896D01*
%TO.N,/UARTS/UART2_RX*%
X187325000Y-83502500D02*
X187666000Y-83843500D01*
X189856000Y-84328000D02*
X187978000Y-84328000D01*
X187978000Y-84328000D02*
X187666000Y-84640000D01*
X187666000Y-83843500D02*
X187666000Y-84640000D01*
X183957500Y-83502500D02*
X187325000Y-83502500D01*
X183240000Y-84220000D02*
X183957500Y-83502500D01*
%TO.N,Net-(U22-CH1)*%
X177410000Y-126437500D02*
X177410000Y-128324000D01*
X184628000Y-122487000D02*
X184402000Y-122713000D01*
X184374000Y-123002000D02*
X182433000Y-123002000D01*
X182245000Y-123190000D02*
X182245000Y-125412500D01*
X182433000Y-123002000D02*
X182245000Y-123190000D01*
X184628000Y-119765000D02*
X184628000Y-122487000D01*
X178117500Y-125730000D02*
X177410000Y-126437500D01*
X181927500Y-125730000D02*
X178117500Y-125730000D01*
X182245000Y-125412500D02*
X181927500Y-125730000D01*
%TO.N,Net-(U22-CH2)*%
X185420000Y-124381000D02*
X184899000Y-124902000D01*
X185420000Y-121920000D02*
X185420000Y-124381000D01*
X184374000Y-125823500D02*
X184374000Y-124902000D01*
X186578000Y-120762000D02*
X185420000Y-121920000D01*
X179950000Y-127072500D02*
X180657500Y-126365000D01*
X180657500Y-126365000D02*
X183832500Y-126365000D01*
X184899000Y-124902000D02*
X184374000Y-124902000D01*
X183832500Y-126365000D02*
X184374000Y-125823500D01*
X186578000Y-119765000D02*
X186578000Y-120762000D01*
X179950000Y-128308000D02*
X179950000Y-127072500D01*
%TO.N,Net-(U22-CH3)*%
X187228000Y-115155500D02*
X187325000Y-115252500D01*
X182490000Y-127390000D02*
X182880000Y-127000000D01*
X182490000Y-128308000D02*
X182490000Y-127390000D01*
X187228000Y-113915000D02*
X187228000Y-115155500D01*
X182880000Y-127000000D02*
X186372500Y-127000000D01*
X186974000Y-124902000D02*
X186974000Y-126398500D01*
X186974000Y-126398500D02*
X186372500Y-127000000D01*
%TO.N,/GPIO SPI GEN_PWM/IN4*%
X185030000Y-130292000D02*
X185030000Y-133626000D01*
%TO.N,Net-(U22-CH4)*%
X189042000Y-123002000D02*
X189230000Y-123190000D01*
X190182500Y-116205000D02*
X190500000Y-116522500D01*
X185278000Y-116063000D02*
X185420000Y-116205000D01*
X186974000Y-123002000D02*
X189042000Y-123002000D01*
X185278000Y-113915000D02*
X185278000Y-116063000D01*
X185420000Y-116205000D02*
X190182500Y-116205000D01*
X190053000Y-123002000D02*
X189042000Y-123002000D01*
X189230000Y-127635000D02*
X188573000Y-128292000D01*
X190500000Y-116522500D02*
X190500000Y-122555000D01*
X188573000Y-128292000D02*
X185030000Y-128292000D01*
X189230000Y-123190000D02*
X189230000Y-127635000D01*
X190500000Y-122555000D02*
X190053000Y-123002000D01*
%TO.N,Net-(U23-1Y)*%
X173480000Y-122967000D02*
X173480000Y-121477500D01*
X176212500Y-140335000D02*
X176212500Y-138112500D01*
X173672500Y-121285000D02*
X175489000Y-121285000D01*
X173480000Y-121477500D02*
X173672500Y-121285000D01*
X177377500Y-141500000D02*
X176212500Y-140335000D01*
X175489000Y-121285000D02*
X176134000Y-120640000D01*
X177410000Y-141500000D02*
X177377500Y-141500000D01*
X176134000Y-120640000D02*
X176134000Y-119765000D01*
%TO.N,Net-(U23-2Y)*%
X178768000Y-135588000D02*
X178768000Y-140302000D01*
X176212500Y-134302500D02*
X176847500Y-134937500D01*
X178768000Y-140302000D02*
X179950000Y-141484000D01*
X174625000Y-122237500D02*
X174942500Y-121920000D01*
X174218000Y-124867000D02*
X174625000Y-124460000D01*
X174625000Y-125730000D02*
X176212500Y-127317500D01*
X174942500Y-121920000D02*
X177482500Y-121920000D01*
X178084000Y-121318500D02*
X178084000Y-119765000D01*
X174625000Y-124460000D02*
X174625000Y-125730000D01*
X176212500Y-127317500D02*
X176212500Y-134302500D01*
X174625000Y-124460000D02*
X174625000Y-122237500D01*
X176847500Y-134937500D02*
X178117500Y-134937500D01*
X177482500Y-121920000D02*
X178084000Y-121318500D01*
X173480000Y-124867000D02*
X174218000Y-124867000D01*
X178117500Y-134937500D02*
X178768000Y-135588000D01*
%TO.N,Net-(U23-3Y)*%
X176052000Y-124902000D02*
X177289500Y-124902000D01*
X182490000Y-141484000D02*
X182441500Y-141484000D01*
X181292500Y-140335000D02*
X181292500Y-138112500D01*
X182441500Y-141484000D02*
X181292500Y-140335000D01*
X178834000Y-113915000D02*
X178834000Y-115488500D01*
X178834000Y-115488500D02*
X178752500Y-115570000D01*
X177289500Y-124902000D02*
X177482500Y-125095000D01*
%TO.N,Net-(U23-4Y)*%
X176784000Y-115506500D02*
X176847500Y-115570000D01*
X185030000Y-141500000D02*
X184997500Y-141500000D01*
X184150000Y-140652500D02*
X183832500Y-140335000D01*
X176784000Y-113915000D02*
X176784000Y-115506500D01*
X183832500Y-140335000D02*
X183832500Y-138112500D01*
X184997500Y-141500000D02*
X184150000Y-140652500D01*
X176052000Y-123002000D02*
X177353000Y-123002000D01*
X177353000Y-123002000D02*
X177482500Y-122872500D01*
%TO.N,/GPIO SPI GEN_PWM/OUT4*%
X185030000Y-139500000D02*
X185030000Y-136166000D01*
%TO.N,Net-(U31-CH1)*%
X174444000Y-105688500D02*
X174444000Y-106861000D01*
X183346500Y-99695000D02*
X183197500Y-99844000D01*
X185538000Y-99844000D02*
X183197500Y-99844000D01*
X179636000Y-100399000D02*
X179636000Y-102130000D01*
X183515000Y-99695000D02*
X183346500Y-99695000D01*
X174444000Y-106861000D02*
X174307500Y-106997500D01*
X180191000Y-99844000D02*
X179636000Y-100399000D01*
X183197500Y-99844000D02*
X180191000Y-99844000D01*
%TO.N,/UARTS/UART3_TX*%
X190500000Y-88900000D02*
X190817500Y-89217500D01*
X188252000Y-93494000D02*
X187678000Y-92920000D01*
X190817500Y-89217500D02*
X190817500Y-92532500D01*
X190817500Y-92532500D02*
X189856000Y-93494000D01*
X183198896Y-88900000D02*
X190500000Y-88900000D01*
X182740000Y-89358896D02*
X183198896Y-88900000D01*
X182740000Y-90570000D02*
X182740000Y-89358896D01*
X189856000Y-93494000D02*
X188252000Y-93494000D01*
%TO.N,/UARTS/UART3_RX*%
X183240000Y-89810000D02*
X183515000Y-89535000D01*
X183240000Y-90570000D02*
X183240000Y-89810000D01*
X187007500Y-89535000D02*
X187678000Y-90205500D01*
X189856000Y-90544000D02*
X188154000Y-90544000D01*
X188154000Y-90544000D02*
X187678000Y-91020000D01*
X183515000Y-89535000D02*
X187007500Y-89535000D01*
X187678000Y-90205500D02*
X187678000Y-91020000D01*
%TO.N,Net-(U31-CH2)*%
X184436500Y-101282500D02*
X185538000Y-102384000D01*
X179070000Y-106997500D02*
X179636000Y-106431500D01*
X176530000Y-106997500D02*
X179070000Y-106997500D01*
X180975000Y-101600000D02*
X181292500Y-101282500D01*
X176394000Y-105688500D02*
X176394000Y-106861500D01*
X180767500Y-104030000D02*
X180975000Y-103822500D01*
X179636000Y-106431500D02*
X179636000Y-104030000D01*
X176394000Y-106861500D02*
X176530000Y-106997500D01*
X179636000Y-104030000D02*
X180767500Y-104030000D01*
X181292500Y-101282500D02*
X184436500Y-101282500D01*
X180975000Y-103822500D02*
X180975000Y-101600000D01*
%TO.N,Net-(U31-CH3)*%
X183197500Y-104991500D02*
X182930500Y-104724500D01*
X185554000Y-104924000D02*
X183130000Y-104924000D01*
X183197500Y-105092500D02*
X183197500Y-104991500D01*
X176394000Y-99963500D02*
X176394000Y-98561000D01*
X182930500Y-104724500D02*
X182236000Y-104030000D01*
X176394000Y-98561000D02*
X176530000Y-98425000D01*
X183130000Y-104924000D02*
X182930500Y-104724500D01*
%TO.N,Net-(U31-CH4)*%
X175094000Y-101180000D02*
X175094000Y-99963500D01*
X186372500Y-106362500D02*
X186454000Y-106281000D01*
X186454000Y-106281000D02*
X186454000Y-103904000D01*
X186055000Y-103505000D02*
X184150000Y-103505000D01*
X185554000Y-107464000D02*
X185588500Y-107464000D01*
X185588500Y-107464000D02*
X186372500Y-106680000D01*
X177800000Y-101600000D02*
X175514000Y-101600000D01*
X186454000Y-103904000D02*
X186055000Y-103505000D01*
X184150000Y-103505000D02*
X182775000Y-102130000D01*
X186372500Y-106680000D02*
X186372500Y-106362500D01*
X182775000Y-102130000D02*
X182236000Y-102130000D01*
X175514000Y-101600000D02*
X175094000Y-101180000D01*
%TO.N,Net-(R50-Pad1)*%
X169545000Y-113347500D02*
X169545000Y-113982500D01*
X172720000Y-140970000D02*
X172720000Y-139065000D01*
X169414000Y-114113500D02*
X169414000Y-115440000D01*
X173234000Y-141484000D02*
X172720000Y-140970000D01*
X174870000Y-141484000D02*
X173234000Y-141484000D01*
X169545000Y-113982500D02*
X169414000Y-114113500D01*
%TO.N,Net-(R51-Pad1)*%
X169265500Y-128308000D02*
X168910000Y-127952500D01*
X168910000Y-127952500D02*
X168910000Y-120650000D01*
X169414000Y-120146000D02*
X169414000Y-118240000D01*
X168910000Y-120650000D02*
X169414000Y-120146000D01*
X174870000Y-128308000D02*
X169265500Y-128308000D01*
%TO.N,/CPU/I2C_SCL_ARBITRARY*%
X166811500Y-72072500D02*
X165726000Y-73158000D01*
X170497500Y-72072500D02*
X166811500Y-72072500D01*
X165541500Y-73342500D02*
X165726000Y-73158000D01*
X155589471Y-98018000D02*
X151502000Y-98018000D01*
X172249500Y-71904000D02*
X170666000Y-71904000D01*
X164147500Y-73342500D02*
X165541500Y-73342500D01*
X155678971Y-98107500D02*
X155589471Y-98018000D01*
X170666000Y-71904000D02*
X170497500Y-72072500D01*
X156527500Y-98107500D02*
X155678971Y-98107500D01*
%TO.N,/CPU/I2C_SDA_ARBITRARY*%
X169260000Y-72554000D02*
X168656000Y-73158000D01*
X157162500Y-78073870D02*
X157162500Y-75882500D01*
X155861370Y-79375000D02*
X157162500Y-78073870D01*
X153035000Y-80010000D02*
X153670000Y-79375000D01*
X141327000Y-85441744D02*
X141996244Y-84772500D01*
X153035000Y-83502500D02*
X153035000Y-80010000D01*
X141996244Y-84772500D02*
X144145000Y-84772500D01*
X167322500Y-75247500D02*
X168656000Y-73914000D01*
X168656000Y-73914000D02*
X168656000Y-73158000D01*
X141327000Y-88343000D02*
X141327000Y-85441744D01*
X157797500Y-75247500D02*
X167322500Y-75247500D01*
X153670000Y-79375000D02*
X155861370Y-79375000D01*
X172249500Y-72554000D02*
X169260000Y-72554000D01*
X144145000Y-84772500D02*
X145415000Y-83502500D01*
X157162500Y-75882500D02*
X157797500Y-75247500D01*
X145415000Y-83502500D02*
X153035000Y-83502500D01*
%TO.N,Net-(R72-Pad2)*%
X195656000Y-129562000D02*
X195750000Y-129656000D01*
X195750000Y-129656000D02*
X202250000Y-129656000D01*
X192904000Y-129562000D02*
X195656000Y-129562000D01*
%TO.N,/CPU/USER_BTN*%
X193040000Y-73660000D02*
X191135000Y-71755000D01*
X195750000Y-121906000D02*
X194600000Y-120756000D01*
X196215000Y-108585000D02*
X202210050Y-108585000D01*
X191135000Y-71755000D02*
X191135000Y-58420000D01*
X143827000Y-86360500D02*
X143827500Y-86360000D01*
X189547500Y-56832500D02*
X150812500Y-56832500D01*
X143510000Y-84137500D02*
X142557500Y-84137500D01*
X194600000Y-110200000D02*
X196215000Y-108585000D01*
X202210050Y-108585000D02*
X204432550Y-106362500D01*
X191135000Y-58420000D02*
X189547500Y-56832500D01*
X195580000Y-73660000D02*
X193040000Y-73660000D01*
X194600000Y-120756000D02*
X194600000Y-110200000D01*
X204470000Y-75565000D02*
X202565000Y-73660000D01*
X202565000Y-73660000D02*
X195580000Y-73660000D01*
X202250000Y-121906000D02*
X195750000Y-121906000D01*
X143827000Y-88343000D02*
X143827000Y-86360500D01*
X142557500Y-84137500D02*
X141922500Y-83502500D01*
X204432550Y-106362500D02*
X204470000Y-106362500D01*
X204470000Y-106362500D02*
X204470000Y-75565000D01*
%TO.N,/CPU/FDCAN_STBY*%
X147327000Y-88343000D02*
X147327000Y-85732000D01*
X174390000Y-82150000D02*
X174942500Y-81597500D01*
X160083026Y-82150000D02*
X174390000Y-82150000D01*
X157460526Y-84772500D02*
X160083026Y-82150000D01*
X186055000Y-71933500D02*
X185951500Y-72037000D01*
X174942500Y-81597500D02*
X174942500Y-77470000D01*
X147327000Y-85732000D02*
X147320000Y-85725000D01*
X174942500Y-77470000D02*
X175812500Y-76600000D01*
X183197500Y-75247500D02*
X184467500Y-75247500D01*
X175812500Y-76600000D02*
X181845000Y-76600000D01*
X181845000Y-76600000D02*
X183197500Y-75247500D01*
X148272500Y-84772500D02*
X157460526Y-84772500D01*
X147320000Y-85725000D02*
X148272500Y-84772500D01*
X186055000Y-70485000D02*
X186055000Y-71933500D01*
%TO.N,/CPU/INPUT3*%
X187978000Y-112095500D02*
X187007500Y-111125000D01*
X187007500Y-111125000D02*
X186690000Y-111125000D01*
X144827000Y-107950000D02*
X144827000Y-103693000D01*
X186372500Y-110807500D02*
X180022500Y-110807500D01*
X166069108Y-110255000D02*
X147132000Y-110255000D01*
X186690000Y-111125000D02*
X186372500Y-110807500D01*
X180022500Y-110807500D02*
X179705000Y-110490000D01*
X147132000Y-110255000D02*
X144827000Y-107950000D01*
X166418108Y-110604000D02*
X166069108Y-110255000D01*
X187978000Y-113915000D02*
X187978000Y-112095500D01*
%TO.N,/CPU/OUTPUT4*%
X169164000Y-109220000D02*
X168199000Y-108255000D01*
X148895000Y-108255000D02*
X147827000Y-107187000D01*
X174625000Y-109220000D02*
X169164000Y-109220000D01*
X147827000Y-107187000D02*
X147827000Y-103693000D01*
X168199000Y-108255000D02*
X148895000Y-108255000D01*
X176134000Y-110729000D02*
X174625000Y-109220000D01*
X176134000Y-113915000D02*
X176134000Y-110729000D01*
%TO.N,/CPU/INPUT2*%
X187228000Y-117889500D02*
X187228000Y-117572000D01*
X165576686Y-110655000D02*
X146850000Y-110655000D01*
X146850000Y-110655000D02*
X144327000Y-108132000D01*
X187228000Y-119765000D02*
X187228000Y-117889500D01*
X182327500Y-116605000D02*
X181927500Y-116205000D01*
X181927500Y-116205000D02*
X181927500Y-112395000D01*
X166125686Y-111204000D02*
X165576686Y-110655000D01*
X181927500Y-112395000D02*
X181610000Y-112077500D01*
X181610000Y-112077500D02*
X180975000Y-112077500D01*
X186261000Y-116605000D02*
X182327500Y-116605000D01*
X167988506Y-111204000D02*
X166125686Y-111204000D01*
X187228000Y-117572000D02*
X186261000Y-116605000D01*
X144327000Y-108132000D02*
X144327000Y-103693000D01*
X168091062Y-111101444D02*
X167988506Y-111204000D01*
%TO.N,/CPU/I2C_SDA_EXTERNAL*%
X151502000Y-101018000D02*
X150460341Y-101018000D01*
X122557000Y-79377000D02*
X122872500Y-79692500D01*
X122557000Y-76661500D02*
X122557000Y-79377000D01*
X150319545Y-100877204D02*
X149988173Y-100877204D01*
X139382500Y-79692500D02*
X139700000Y-79375000D01*
X144145000Y-99695000D02*
X144145000Y-99665000D01*
X149988173Y-100877204D02*
X149067890Y-100877204D01*
X150460341Y-101018000D02*
X150319545Y-100877204D01*
X122872500Y-79692500D02*
X139382500Y-79692500D01*
X147885686Y-99695000D02*
X144145000Y-99695000D01*
X139700000Y-79375000D02*
X144145000Y-79375000D01*
X144655000Y-78865000D02*
X144655000Y-76661500D01*
X149067890Y-100877204D02*
X147885686Y-99695000D01*
X144145000Y-79375000D02*
X144655000Y-78865000D01*
%TO.N,/CPU/I2C_SCL_EXTERNAL*%
X123207000Y-79074500D02*
X123425000Y-79292500D01*
X149225000Y-101282500D02*
X148907500Y-101282500D01*
X139700000Y-75882500D02*
X140335000Y-75247500D01*
X143827500Y-100330000D02*
X143510000Y-100330000D01*
X143892500Y-100265000D02*
X143827500Y-100330000D01*
X151502000Y-101518000D02*
X150394655Y-101518000D01*
X139700000Y-78740000D02*
X139700000Y-75882500D01*
X150394655Y-101518000D02*
X150153859Y-101277204D01*
X137477500Y-78975000D02*
X137795000Y-79292500D01*
X123425000Y-79292500D02*
X137795000Y-79292500D01*
X137795000Y-79292500D02*
X139147500Y-79292500D01*
X149230296Y-101277204D02*
X149225000Y-101282500D01*
X148907500Y-101282500D02*
X147890000Y-100265000D01*
X123207000Y-76661500D02*
X123207000Y-79074500D01*
X144780000Y-75247500D02*
X145305000Y-75772500D01*
X145305000Y-75772500D02*
X145305000Y-76661500D01*
X137477500Y-78740000D02*
X137477500Y-78975000D01*
X139147500Y-79292500D02*
X139700000Y-78740000D01*
X150153859Y-101277204D02*
X149230296Y-101277204D01*
X140335000Y-75247500D02*
X144780000Y-75247500D01*
X147890000Y-100265000D02*
X143892500Y-100265000D01*
%TO.N,/CPU/OUTPUT3*%
X168364686Y-107855000D02*
X169329686Y-108820000D01*
X149391265Y-107855000D02*
X168364686Y-107855000D01*
X178182500Y-113816500D02*
X178084000Y-113915000D01*
X147327000Y-105945000D02*
X147327000Y-103693000D01*
X148427000Y-106890735D02*
X149391265Y-107855000D01*
X174897450Y-108820000D02*
X178182500Y-112105050D01*
X147227000Y-106045000D02*
X147327000Y-105945000D01*
X169329686Y-108820000D02*
X174897450Y-108820000D01*
X178182500Y-112105050D02*
X178182500Y-113816500D01*
%TO.N,/CPU/INT_PRESSURE*%
X167005000Y-85725000D02*
X167005000Y-89185000D01*
X157132500Y-86611500D02*
X158336500Y-85407500D01*
X157162500Y-83215000D02*
X157132500Y-83185000D01*
X144827000Y-85360500D02*
X145885000Y-84302500D01*
X164978500Y-91211500D02*
X163178500Y-91211500D01*
X144827000Y-88343000D02*
X144827000Y-85360500D01*
X157132500Y-86677500D02*
X157132500Y-86611500D01*
X145885000Y-84302500D02*
X156997500Y-84302500D01*
X166687500Y-85407500D02*
X167005000Y-85725000D01*
X167005000Y-89185000D02*
X164978500Y-91211500D01*
X158336500Y-85407500D02*
X166687500Y-85407500D01*
X156997500Y-84302500D02*
X157162500Y-84137500D01*
X157162500Y-84137500D02*
X157162500Y-83215000D01*
%TO.N,/CPU/OUTPUT1*%
X175484000Y-117572000D02*
X174834500Y-116922500D01*
X145827000Y-107727000D02*
X145827000Y-103693000D01*
X171786500Y-116922500D02*
X170640000Y-115776000D01*
X148237500Y-108866471D02*
X147886029Y-108515000D01*
X147886029Y-108515000D02*
X146615000Y-108515000D01*
X170640000Y-111908314D02*
X167786686Y-109055000D01*
X170640000Y-115776000D02*
X170640000Y-111908314D01*
X148237500Y-108867500D02*
X148237500Y-108866471D01*
X174834500Y-116922500D02*
X171786500Y-116922500D01*
X148425000Y-109055000D02*
X148237500Y-108867500D01*
X175484000Y-119765000D02*
X175484000Y-117572000D01*
X167786686Y-109055000D02*
X148425000Y-109055000D01*
X146615000Y-108515000D02*
X145827000Y-107727000D01*
D74*
%TO.N,/CPU/INT_IMU*%
X145415000Y-90170000D02*
X145327000Y-90082000D01*
D79*
X161327500Y-97752500D02*
X160337500Y-98742500D01*
X156845000Y-100330000D02*
X156210000Y-99695000D01*
D74*
X145327000Y-88343000D02*
X145327000Y-90082000D01*
D79*
X161327500Y-97335500D02*
X161327500Y-97752500D01*
X156210000Y-99695000D02*
X154622500Y-99695000D01*
X156845000Y-100647500D02*
X156845000Y-100330000D01*
%TO.N,/CPU/SPI_CS*%
X142525500Y-92471500D02*
X139327000Y-89273000D01*
X165429000Y-106255000D02*
X154515000Y-106255000D01*
X145380000Y-91957503D02*
X145380000Y-92006029D01*
X168777000Y-107055000D02*
X168592500Y-106870500D01*
X166274000Y-105410000D02*
X165429000Y-106255000D01*
X173794000Y-106425999D02*
X173672500Y-106547499D01*
X145580003Y-91757500D02*
X145380000Y-91957503D01*
X166322000Y-105410000D02*
X166274000Y-105410000D01*
X168834686Y-107055000D02*
X168777000Y-107055000D01*
X168592500Y-106870500D02*
X168592500Y-106045000D01*
X173310500Y-108010000D02*
X169789686Y-108010000D01*
X153987500Y-105727500D02*
X153987500Y-98707500D01*
X144914529Y-92471500D02*
X142525500Y-92471500D01*
X173672500Y-107648000D02*
X173310500Y-108010000D01*
X169789686Y-108010000D02*
X168834686Y-107055000D01*
X154515000Y-106255000D02*
X153987500Y-105727500D01*
X145380000Y-92006029D02*
X144914529Y-92471500D01*
X173794000Y-105688500D02*
X173794000Y-106425999D01*
X139327000Y-89273000D02*
X139327000Y-88343000D01*
X173672500Y-106547499D02*
X173672500Y-107648000D01*
%TO.N,/CPU/OUTPUT2*%
X171040000Y-111742628D02*
X167952372Y-108655000D01*
X171040000Y-115477500D02*
X171040000Y-111742628D01*
X148051715Y-108115000D02*
X146850000Y-108115000D01*
X146327000Y-107592000D02*
X146327000Y-103693000D01*
X177165000Y-116522500D02*
X172085000Y-116522500D01*
X177547500Y-116905000D02*
X177165000Y-116522500D01*
X167952372Y-108655000D02*
X148591715Y-108655000D01*
X146850000Y-108115000D02*
X146327000Y-107592000D01*
X177547500Y-119651500D02*
X177547500Y-116905000D01*
X177434000Y-119765000D02*
X177547500Y-119651500D01*
X148591715Y-108655000D02*
X148051715Y-108115000D01*
X172085000Y-116522500D02*
X171040000Y-115477500D01*
%TO.N,/CPU/INPUT4*%
X184330500Y-111442500D02*
X180340000Y-111442500D01*
X185928000Y-113915000D02*
X185928000Y-113040000D01*
X167592000Y-110288471D02*
X167158529Y-109855000D01*
X185928000Y-113040000D02*
X184330500Y-111442500D01*
X147320000Y-109855000D02*
X145327000Y-107862000D01*
X167158529Y-109855000D02*
X147320000Y-109855000D01*
X167592000Y-110442000D02*
X167592000Y-110288471D01*
X180340000Y-111442500D02*
X180022500Y-111442500D01*
X145327000Y-107862000D02*
X145327000Y-103693000D01*
%TO.N,/CPU/INT_MAGNETO*%
X146367500Y-91232000D02*
X148798000Y-91232000D01*
X164344000Y-102114000D02*
X164465000Y-102235000D01*
X163187000Y-102114000D02*
X164344000Y-102114000D01*
X157797500Y-103187500D02*
X157480000Y-102870000D01*
D74*
X146465908Y-89852500D02*
X145827000Y-89213592D01*
X145827000Y-89213592D02*
X145827000Y-88343000D01*
D79*
X157480000Y-98038529D02*
X156278971Y-96837500D01*
X161020000Y-103187500D02*
X157797500Y-103187500D01*
X148798000Y-91232000D02*
X148907500Y-91122500D01*
X157480000Y-102870000D02*
X157480000Y-98038529D01*
X156278971Y-96837500D02*
X153352500Y-96837500D01*
X146367500Y-92980000D02*
X146367500Y-91232000D01*
D74*
X146685000Y-89852500D02*
X146465908Y-89852500D01*
D79*
%TO.N,/CPU/INPUT1*%
X185278000Y-119765000D02*
X185278000Y-117460000D01*
X165411000Y-111055000D02*
X146684314Y-111055000D01*
X143827000Y-108197686D02*
X143827000Y-103693000D01*
X182161814Y-117005000D02*
X181527500Y-116370686D01*
X146684314Y-111055000D02*
X143827000Y-108197686D01*
X181527500Y-113201500D02*
X181038500Y-112712500D01*
X185278000Y-117460000D02*
X184823000Y-117005000D01*
X181038500Y-112712500D02*
X180022500Y-112712500D01*
X166068000Y-111712000D02*
X165411000Y-111055000D01*
X184823000Y-117005000D02*
X182161814Y-117005000D01*
X168608000Y-111712000D02*
X166068000Y-111712000D01*
X181527500Y-116370686D02*
X181527500Y-113201500D01*
%TO.N,/CPU/INT_LIGHT*%
X169534500Y-95772000D02*
X169862500Y-96100000D01*
D74*
X144327000Y-90027448D02*
X145104552Y-90805000D01*
D79*
X168774000Y-95772000D02*
X169534500Y-95772000D01*
D74*
X149317000Y-89760500D02*
X149780092Y-89760500D01*
X149780092Y-89760500D02*
X151910592Y-87630000D01*
X160655000Y-87630000D02*
X160972500Y-87947500D01*
X151910592Y-87630000D02*
X160655000Y-87630000D01*
X144327000Y-88343000D02*
X144327000Y-90027448D01*
X145104552Y-90805000D02*
X148272500Y-90805000D01*
X148272500Y-90805000D02*
X149317000Y-89760500D01*
D81*
%TO.N,/Power & Analog/VIN*%
X105049500Y-127147500D02*
X105199500Y-126997500D01*
D80*
X100090000Y-125986000D02*
X100090000Y-127268000D01*
X95516000Y-125986000D02*
X100090000Y-125986000D01*
X100090000Y-127268000D02*
X100536000Y-127714000D01*
X104483000Y-127714000D02*
X105049500Y-127147500D01*
X100536000Y-127714000D02*
X104483000Y-127714000D01*
D76*
X100090000Y-125986000D02*
X100092000Y-125984000D01*
D81*
X105199500Y-125606000D02*
X105199500Y-125296000D01*
X105199500Y-126997500D02*
X105199500Y-125756000D01*
D79*
%TO.N,Net-(U36-EN{slash}UVLO)*%
X103124000Y-123444000D02*
X104246000Y-124566000D01*
X102092000Y-123444000D02*
X103124000Y-123444000D01*
X102092000Y-123444000D02*
X102092000Y-125984000D01*
X104246000Y-124566000D02*
X105199500Y-124566000D01*
%TO.N,Net-(U36-ILIM)*%
X108966000Y-129286000D02*
X107680000Y-129286000D01*
X109220000Y-129032000D02*
X108966000Y-129286000D01*
X108149500Y-124106000D02*
X109120000Y-124106000D01*
X109120000Y-124106000D02*
X109220000Y-124206000D01*
X109220000Y-124206000D02*
X109220000Y-129032000D01*
D74*
%TO.N,/Power & Analog/USB-DN*%
X114148000Y-98383500D02*
X115570000Y-98383500D01*
X96038000Y-96355500D02*
X96202500Y-96520000D01*
X94730000Y-96355500D02*
X94730000Y-96855500D01*
X115570000Y-98383500D02*
X116704000Y-98383500D01*
X94730000Y-96355500D02*
X96038000Y-96355500D01*
D79*
%TO.N,/Power & Analog/USB2-DN*%
X110238001Y-98510500D02*
X110255501Y-98528000D01*
X110255501Y-98528000D02*
X112003500Y-98528000D01*
X109338000Y-98510500D02*
X110238001Y-98510500D01*
X112003500Y-98528000D02*
X112148000Y-98383500D01*
%TD*%
D84*
X205082000Y-55324000D02*
X205082000Y-143824000D01*
X87582000Y-55324000D02*
X205082000Y-55324000D01*
X205082000Y-143824000D02*
X87582000Y-143824000D01*
X87582000Y-143824000D02*
X87582000Y-55324000D01*
M02*
