M48
; DRILL file {KiCad 8.0.9-8.0.9-0~ubuntu22.04.1} date 2025-03-19T18:43:11+0100
; FORMAT={-:-/ absolute / inch / decimal}
; #@! TF.CreationDate,2025-03-19T18:43:11+01:00
; #@! TF.GenerationSoftware,Kicad,Pcbnew,8.0.9-8.0.9-0~ubuntu22.04.1
; #@! TF.FileFunction,Plated,1,4,PTH
FMAT,2
INCH
; #@! TA.AperFunction,Plated,PTH,ViaDrill
T1C0.0118
; #@! TA.AperFunction,Plated,PTH,ViaDrill
T2C0.0157
; #@! TA.AperFunction,Plated,PTH,ViaDrill
T3C0.0197
; #@! TA.AperFunction,Plated,PTH,ComponentDrill
T4C0.0236
; #@! TA.AperFunction,Plated,PTH,ViaDrill
T5C0.0276
; #@! TA.AperFunction,Plated,PTH,ViaDrill
T6C0.0315
; #@! TA.AperFunction,Plated,PTH,ComponentDrill
T7C0.0394
; #@! TA.AperFunction,Plated,PTH,ComponentDrill
T8C0.0402
%
G90
G05
T1
X3.5612Y-4.2281
X3.5709Y-4.6079
X3.6356Y-2.8531
X3.6481Y-3.4406
X3.6731Y-4.6281
X3.7606Y-2.7281
X3.7956Y-3.2499
X3.7956Y-3.2814
X3.8231Y-3.8
X3.8231Y-3.8406
X3.8731Y-3.0531
X3.8856Y-4.6281
X3.8981Y-4.2156
X3.9794Y-3.3844
X4.0093Y-3.4294
X4.0481Y-3.1781
X4.0481Y-3.3656
X4.1625Y-3.7125
X4.1625Y-3.7625
X4.1731Y-3.1156
X4.1872Y-3.8281
X4.3062Y-3.5562
X4.5419Y-2.4594
X4.55Y-3.8734
X4.55Y-3.9734
X4.6481Y-2.4656
X4.6481Y-2.8656
X4.6606Y-2.7031
X4.6856Y-4.6781
X4.6875Y-4.9875
X4.6875Y-5.1875
X4.6981Y-3.5906
X4.7019Y-4.0281
X4.7019Y-4.0656
X4.7481Y-3.4875
X4.7606Y-4.6781
X4.7669Y-2.4594
X4.7731Y-2.7031
X4.95Y-3.175
X4.9731Y-2.9531
X4.9875Y-3.175
X5.0106Y-2.9531
X5.023Y-4.1281
X5.0231Y-4.0781
X5.025Y-4.9625
X5.0425Y-2.7031
X5.0509Y-2.4559
X5.0625Y-4.9875
X5.1125Y-4.7625
X5.1212Y-2.7031
X5.1356Y-3.2044
X5.1606Y-2.4656
X5.1606Y-2.8656
X5.1731Y-2.9656
X5.1747Y-3.5661
X5.1772Y-3.5347
X5.2106Y-2.7031
X5.2106Y-4.5406
X5.2356Y-4.0906
X5.2356Y-4.1406
X5.2375Y-4.9875
X5.25Y-3.8625
X5.2669Y-2.4594
X5.2856Y-2.7031
X5.2875Y-3.8
X5.3Y-5.1375
X5.3106Y-4.5406
X5.3731Y-4.1656
X5.4125Y-4.2625
X5.4231Y-3.1
X5.4236Y-3.15
X5.4266Y-4.2907
X5.4606Y-4.1531
X5.4731Y-4.1906
X5.4947Y-2.9622
X5.5207Y-3.3854
X5.5375Y-3.7531
X5.5471Y-3.5542
X5.5481Y-3.6781
X5.5481Y-3.7156
X5.55Y-3.6375
X5.5523Y-2.7031
X5.5606Y-2.4531
X5.5732Y-4.6464
X5.575Y-4.725
X5.5856Y-3.2906
X5.5877Y-3.4
X5.5964Y-4.625
X5.6Y-3.8125
X5.6001Y-3.3612
X5.6034Y-3.5375
X5.6125Y-4.8
X5.6141Y-3.7843
X5.6158Y-3.4142
X5.6311Y-2.7031
X5.6467Y-3.9031
X5.6481Y-3.4156
X5.6481Y-3.9531
X5.6481Y-4.0281
X5.6606Y-3.3156
X5.6613Y-3.3892
X5.6731Y-2.4656
X5.6731Y-2.8656
X5.6856Y-3.9031
X5.7Y-3.6125
X5.7106Y-3.9781
X5.7106Y-4.0156
X5.7215Y-3.5465
X5.7231Y-2.7031
X5.75Y-3.1625
X5.7606Y-3.3531
X5.7625Y-3.6606
X5.7731Y-2.9406
X5.775Y-3.5375
X5.7794Y-2.4594
X5.7875Y-3.1625
X5.7981Y-2.7031
X5.8Y-4.0125
X5.8106Y-2.9406
X5.8106Y-4.8781
X5.8106Y-4.9531
X5.8375Y-3.15
X5.8375Y-4.7375
X5.8606Y-4.6031
X5.8625Y-3.5875
X5.8625Y-4.675
X5.8749Y-3.1499
X5.8875Y-3.925
X5.925Y-3.425
X5.925Y-4.5681
X6.0375Y-3.05
X6.0375Y-3.7251
X6.0375Y-3.8125
X6.0481Y-3.1781
X6.0514Y-4.725
X6.0606Y-4.1656
X6.0606Y-4.2031
X6.0731Y-2.4531
X6.075Y-3.025
X6.0847Y-4.625
X6.0875Y-3.925
X6.1Y-3.05
X6.1125Y-3.675
X6.1125Y-4.8
X6.1356Y-3.4406
X6.1375Y-3.65
X6.1375Y-3.8375
X6.1625Y-3.5875
X6.1625Y-3.8625
X6.1625Y-4.6625
X6.175Y-3.9625
X6.175Y-4.75
X6.1856Y-2.4656
X6.1856Y-2.8656
X6.1861Y-3.8125
X6.1863Y-3.275
X6.1863Y-3.3781
X6.1981Y-3.7031
X6.2125Y-3.0375
X6.2356Y-2.7031
X6.2389Y-3.0125
X6.2856Y-3.1531
X6.2856Y-3.2106
X6.2919Y-2.4594
X6.3106Y-2.7031
X6.3231Y-4.9531
X6.3481Y-4.8409
X6.3856Y-3.4531
X6.4356Y-3.5906
X6.4481Y-3.4406
X6.4606Y-4.0625
X6.4625Y-2.8875
X6.4964Y-3.9264
X6.4981Y-3.2656
X6.524Y-3.7116
X6.5856Y-2.8015
X6.5999Y-4.025
X6.6043Y-3.7469
X6.6425Y-2.4156
X6.6731Y-2.4406
X6.7231Y-4.7281
X6.7231Y-4.7781
X6.7606Y-2.4656
X6.8106Y-2.4406
X6.8606Y-3.5781
X6.864Y-3.419
X6.8787Y-2.4156
X6.8856Y-2.8531
X6.9606Y-3.2156
X6.9606Y-3.4906
X6.9856Y-4.9531
X6.9856Y-5.0031
X7.0225Y-2.965
X7.2125Y-2.775
X7.2625Y-2.9625
X7.325Y-2.775
X7.3481Y-3.9906
X7.5606Y-2.9906
X7.5606Y-3.0406
X7.7106Y-5.1781
X7.945Y-4.7281
T2
X3.8Y-3.675
X3.8Y-3.925
X4.0125Y-3.675
X4.0125Y-4.0875
X4.2381Y-3.8181
T3
X3.6981Y-4.7781
X3.6981Y-4.8781
X3.6981Y-5.0031
X3.7481Y-4.2281
X3.8231Y-4.6906
X3.8978Y-4.2922
X3.8978Y-4.4172
X3.9463Y-3.9531
X3.95Y-4.525
X3.9852Y-4.641
X4.1856Y-4.4314
X4.2Y-4.15
X4.2319Y-3.3319
X4.4Y-4.275
X4.5281Y-4.5881
X4.5856Y-4.43
X4.7Y-3.025
X4.7186Y-3.2436
X4.75Y-4.9875
X4.7681Y-4.8981
X4.775Y-4.75
X4.85Y-5.0875
X4.9606Y-4.9031
X5.0068Y-3.6521
X5.025Y-3.175
X5.0638Y-4.2
X5.0731Y-4.5906
X5.1356Y-3.6531
X5.2Y-3.7758
X5.2Y-3.9
X5.2475Y-3.0156
X5.275Y-3.5
X5.3Y-5.0
X5.35Y-4.75
X5.35Y-4.9031
X5.4Y-5.1
X5.425Y-3.5375
X5.425Y-3.6375
X5.425Y-3.7125
X5.425Y-3.7519
X5.425Y-3.9125
X5.45Y-4.0125
X5.4559Y-3.1941
X5.4644Y-3.5375
X5.4894Y-4.0125
X5.5125Y-4.875
X5.525Y-4.5
X5.5818Y-3.0182
X5.6356Y-5.4281
X5.6434Y-3.25
X5.6856Y-5.3781
X5.6967Y-3.1717
X5.7375Y-4.875
X5.75Y-4.475
X5.75Y-4.5375
X5.8Y-3.975
X5.9Y-3.175
X5.9Y-3.5625
X5.9Y-3.6019
X5.9231Y-4.0406
X5.9356Y-4.1525
X6.0Y-4.875
X6.0125Y-4.5
X6.0375Y-3.5375
X6.1606Y-5.4281
X6.2106Y-5.3781
X6.225Y-4.475
X6.2375Y-4.5375
X6.2375Y-4.875
X6.3106Y-3.5531
X6.375Y-3.8875
X6.4106Y-4.1281
X6.4356Y-3.6656
X6.4374Y-3.8875
X6.4481Y-3.9781
X6.5856Y-3.9031
X6.5999Y-3.5375
X6.6124Y-4.125
X6.7375Y-2.9375
X6.7919Y-5.3781
X6.7981Y-3.2656
X6.7981Y-3.5531
X6.7981Y-3.8031
X6.8356Y-5.4281
X6.8606Y-3.1156
X6.8696Y-3.6739
X6.9181Y-4.8856
X6.9356Y-3.0531
X6.9968Y-3.4524
X7.0012Y-3.178
X7.0038Y-3.7072
X7.1106Y-2.7531
X7.1106Y-2.9656
X7.1556Y-4.8481
X7.1606Y-3.2656
X7.1635Y-3.7947
X7.1682Y-3.5281
X7.1856Y-4.1281
X7.2106Y-2.4281
X7.2731Y-4.1781
X7.2981Y-2.4156
X7.2981Y-5.3781
X7.3481Y-5.4406
X7.4125Y-2.7625
X7.4835Y-2.925
X7.5231Y-4.1406
X7.7356Y-2.8406
X7.7356Y-3.2406
X7.7981Y-3.4281
X7.8106Y-4.0406
X7.8106Y-4.2531
X7.8481Y-2.9281
X7.9731Y-3.5156
X8.0119Y-4.9031
T5
X4.575Y-4.525
X4.5981Y-4.15
T6
X4.2981Y-4.8156
X4.3625Y-4.9
T7
X4.0483Y-5.2559
X4.1483Y-5.2559
T8
X4.4Y-5.32
X4.4Y-5.42
X4.4Y-5.52
X4.5Y-5.32
X4.5Y-5.42
X4.5Y-5.52
X4.6Y-5.32
X4.6Y-5.42
X4.6Y-5.52
X4.7Y-5.32
X4.7Y-5.42
X4.7Y-5.52
X4.8543Y-5.3181
X4.8543Y-5.4181
X4.8543Y-5.5181
X4.9543Y-5.3181
X4.9543Y-5.4181
X4.9543Y-5.5181
X5.0543Y-5.3181
X5.0543Y-5.4181
X5.0543Y-5.5181
X5.1543Y-5.3181
X5.1543Y-5.4181
X5.1543Y-5.5181
T4
G00X3.5581Y-3.6333
M15
G01X3.5266Y-3.6333
M16
G05
G00X3.5581Y-3.9734
M15
G01X3.5266Y-3.9734
M16
G05
G00X3.7285Y-3.6333
M15
G01X3.6852Y-3.6333
M16
G05
G00X3.7285Y-3.9734
M15
G01X3.6852Y-3.9734
M16
G05
M30
