%TF.GenerationSoftware,KiCad,Pcbnew,8.0.9-8.0.9-0~ubuntu22.04.1*%
%TF.CreationDate,2025-03-19T18:43:03+01:00*%
%TF.ProjectId,carte-io,63617274-652d-4696-9f2e-6b696361645f,1.1*%
%TF.SameCoordinates,Original*%
%TF.FileFunction,Copper,L1,Top*%
%TF.FilePolarity,Positive*%
%FSLAX46Y46*%
G04 Gerber Fmt 4.6, Leading zero omitted, Abs format (unit mm)*
G04 Created by KiCad (PCBNEW 8.0.9-8.0.9-0~ubuntu22.04.1) date 2025-03-19 18:43:03*
%MOMM*%
%LPD*%
G01*
G04 APERTURE LIST*
G04 Aperture macros list*
%AMRoundRect*
0 Rectangle with rounded corners*
0 $1 Rounding radius*
0 $2 $3 $4 $5 $6 $7 $8 $9 X,Y pos of 4 corners*
0 Add a 4 corners polygon primitive as box body*
4,1,4,$2,$3,$4,$5,$6,$7,$8,$9,$2,$3,0*
0 Add four circle primitives for the rounded corners*
1,1,$1+$1,$2,$3*
1,1,$1+$1,$4,$5*
1,1,$1+$1,$6,$7*
1,1,$1+$1,$8,$9*
0 Add four rect primitives between the rounded corners*
20,1,$1+$1,$2,$3,$4,$5,0*
20,1,$1+$1,$4,$5,$6,$7,0*
20,1,$1+$1,$6,$7,$8,$9,0*
20,1,$1+$1,$8,$9,$2,$3,0*%
%AMFreePoly0*
4,1,19,0.500000,-0.750000,0.000000,-0.750000,0.000000,-0.744911,-0.071157,-0.744911,-0.207708,-0.704816,-0.327430,-0.627875,-0.420627,-0.520320,-0.479746,-0.390866,-0.500000,-0.250000,-0.500000,0.250000,-0.479746,0.390866,-0.420627,0.520320,-0.327430,0.627875,-0.207708,0.704816,-0.071157,0.744911,0.000000,0.744911,0.000000,0.750000,0.500000,0.750000,0.500000,-0.750000,0.500000,-0.750000,
$1*%
%AMFreePoly1*
4,1,19,0.000000,0.744911,0.071157,0.744911,0.207708,0.704816,0.327430,0.627875,0.420627,0.520320,0.479746,0.390866,0.500000,0.250000,0.500000,-0.250000,0.479746,-0.390866,0.420627,-0.520320,0.327430,-0.627875,0.207708,-0.704816,0.071157,-0.744911,0.000000,-0.744911,0.000000,-0.750000,-0.500000,-0.750000,-0.500000,0.750000,0.000000,0.750000,0.000000,0.744911,0.000000,0.744911,
$1*%
G04 Aperture macros list end*
%TA.AperFunction,EtchedComponent*%
%ADD10C,0.000000*%
%TD*%
%TA.AperFunction,SMDPad,CuDef*%
%ADD11R,1.000000X3.400000*%
%TD*%
%TA.AperFunction,SMDPad,CuDef*%
%ADD12R,1.500000X3.600000*%
%TD*%
%TA.AperFunction,SMDPad,CuDef*%
%ADD13R,2.030000X0.760000*%
%TD*%
%TA.AperFunction,SMDPad,CuDef*%
%ADD14RoundRect,0.150000X-0.587500X-0.150000X0.587500X-0.150000X0.587500X0.150000X-0.587500X0.150000X0*%
%TD*%
%TA.AperFunction,SMDPad,CuDef*%
%ADD15RoundRect,0.250000X-0.350000X-0.450000X0.350000X-0.450000X0.350000X0.450000X-0.350000X0.450000X0*%
%TD*%
%TA.AperFunction,SMDPad,CuDef*%
%ADD16RoundRect,0.250000X0.450000X-0.350000X0.450000X0.350000X-0.450000X0.350000X-0.450000X-0.350000X0*%
%TD*%
%TA.AperFunction,SMDPad,CuDef*%
%ADD17RoundRect,0.243750X0.243750X0.456250X-0.243750X0.456250X-0.243750X-0.456250X0.243750X-0.456250X0*%
%TD*%
%TA.AperFunction,SMDPad,CuDef*%
%ADD18R,1.150000X0.600000*%
%TD*%
%TA.AperFunction,SMDPad,CuDef*%
%ADD19RoundRect,0.250000X0.337500X0.475000X-0.337500X0.475000X-0.337500X-0.475000X0.337500X-0.475000X0*%
%TD*%
%TA.AperFunction,SMDPad,CuDef*%
%ADD20R,0.400000X1.100000*%
%TD*%
%TA.AperFunction,SMDPad,CuDef*%
%ADD21RoundRect,0.250000X-0.475000X0.337500X-0.475000X-0.337500X0.475000X-0.337500X0.475000X0.337500X0*%
%TD*%
%TA.AperFunction,SMDPad,CuDef*%
%ADD22RoundRect,0.150000X0.825000X0.150000X-0.825000X0.150000X-0.825000X-0.150000X0.825000X-0.150000X0*%
%TD*%
%TA.AperFunction,SMDPad,CuDef*%
%ADD23R,3.400000X1.000000*%
%TD*%
%TA.AperFunction,SMDPad,CuDef*%
%ADD24R,3.600000X1.500000*%
%TD*%
%TA.AperFunction,SMDPad,CuDef*%
%ADD25RoundRect,0.087500X-0.225000X-0.087500X0.225000X-0.087500X0.225000X0.087500X-0.225000X0.087500X0*%
%TD*%
%TA.AperFunction,SMDPad,CuDef*%
%ADD26RoundRect,0.087500X-0.087500X-0.225000X0.087500X-0.225000X0.087500X0.225000X-0.087500X0.225000X0*%
%TD*%
%TA.AperFunction,SMDPad,CuDef*%
%ADD27RoundRect,0.250000X0.350000X0.450000X-0.350000X0.450000X-0.350000X-0.450000X0.350000X-0.450000X0*%
%TD*%
%TA.AperFunction,SMDPad,CuDef*%
%ADD28RoundRect,0.243750X-0.243750X-0.456250X0.243750X-0.456250X0.243750X0.456250X-0.243750X0.456250X0*%
%TD*%
%TA.AperFunction,SMDPad,CuDef*%
%ADD29R,1.200000X0.950000*%
%TD*%
%TA.AperFunction,SMDPad,CuDef*%
%ADD30RoundRect,0.250000X-0.450000X0.350000X-0.450000X-0.350000X0.450000X-0.350000X0.450000X0.350000X0*%
%TD*%
%TA.AperFunction,ComponentPad*%
%ADD31R,1.700000X1.700000*%
%TD*%
%TA.AperFunction,ComponentPad*%
%ADD32O,1.700000X1.700000*%
%TD*%
%TA.AperFunction,SMDPad,CuDef*%
%ADD33R,0.500000X0.300000*%
%TD*%
%TA.AperFunction,SMDPad,CuDef*%
%ADD34R,1.350000X0.600000*%
%TD*%
%TA.AperFunction,SMDPad,CuDef*%
%ADD35R,1.350000X0.400000*%
%TD*%
%TA.AperFunction,ComponentPad*%
%ADD36R,1.370000X1.370000*%
%TD*%
%TA.AperFunction,ComponentPad*%
%ADD37C,1.370000*%
%TD*%
%TA.AperFunction,SMDPad,CuDef*%
%ADD38R,0.650000X0.350000*%
%TD*%
%TA.AperFunction,SMDPad,CuDef*%
%ADD39R,1.550000X2.400000*%
%TD*%
%TA.AperFunction,SMDPad,CuDef*%
%ADD40R,1.000000X1.550000*%
%TD*%
%TA.AperFunction,SMDPad,CuDef*%
%ADD41RoundRect,0.250000X-0.337500X-0.475000X0.337500X-0.475000X0.337500X0.475000X-0.337500X0.475000X0*%
%TD*%
%TA.AperFunction,SMDPad,CuDef*%
%ADD42RoundRect,0.100000X0.100000X-0.637500X0.100000X0.637500X-0.100000X0.637500X-0.100000X-0.637500X0*%
%TD*%
%TA.AperFunction,SMDPad,CuDef*%
%ADD43RoundRect,0.087500X-0.175000X-0.087500X0.175000X-0.087500X0.175000X0.087500X-0.175000X0.087500X0*%
%TD*%
%TA.AperFunction,SMDPad,CuDef*%
%ADD44RoundRect,0.075000X-0.725000X-0.075000X0.725000X-0.075000X0.725000X0.075000X-0.725000X0.075000X0*%
%TD*%
%TA.AperFunction,SMDPad,CuDef*%
%ADD45RoundRect,0.075000X-0.075000X-0.725000X0.075000X-0.725000X0.075000X0.725000X-0.075000X0.725000X0*%
%TD*%
%TA.AperFunction,SMDPad,CuDef*%
%ADD46R,1.300000X1.100000*%
%TD*%
%TA.AperFunction,SMDPad,CuDef*%
%ADD47RoundRect,0.375000X-0.625000X-0.375000X0.625000X-0.375000X0.625000X0.375000X-0.625000X0.375000X0*%
%TD*%
%TA.AperFunction,SMDPad,CuDef*%
%ADD48RoundRect,0.500000X-0.500000X-1.400000X0.500000X-1.400000X0.500000X1.400000X-0.500000X1.400000X0*%
%TD*%
%TA.AperFunction,SMDPad,CuDef*%
%ADD49R,1.200000X0.400000*%
%TD*%
%TA.AperFunction,SMDPad,CuDef*%
%ADD50RoundRect,0.125000X-0.687500X-0.125000X0.687500X-0.125000X0.687500X0.125000X-0.687500X0.125000X0*%
%TD*%
%TA.AperFunction,SMDPad,CuDef*%
%ADD51RoundRect,0.087500X-0.125000X-0.087500X0.125000X-0.087500X0.125000X0.087500X-0.125000X0.087500X0*%
%TD*%
%TA.AperFunction,SMDPad,CuDef*%
%ADD52RoundRect,0.087500X-0.087500X-0.125000X0.087500X-0.125000X0.087500X0.125000X-0.087500X0.125000X0*%
%TD*%
%TA.AperFunction,SMDPad,CuDef*%
%ADD53RoundRect,0.051250X-0.733750X-0.153750X0.733750X-0.153750X0.733750X0.153750X-0.733750X0.153750X0*%
%TD*%
%TA.AperFunction,SMDPad,CuDef*%
%ADD54RoundRect,0.250000X0.475000X-0.337500X0.475000X0.337500X-0.475000X0.337500X-0.475000X-0.337500X0*%
%TD*%
%TA.AperFunction,SMDPad,CuDef*%
%ADD55FreePoly0,0.000000*%
%TD*%
%TA.AperFunction,SMDPad,CuDef*%
%ADD56FreePoly1,0.000000*%
%TD*%
%TA.AperFunction,SMDPad,CuDef*%
%ADD57R,0.375000X0.350000*%
%TD*%
%TA.AperFunction,SMDPad,CuDef*%
%ADD58R,0.350000X0.375000*%
%TD*%
%TA.AperFunction,SMDPad,CuDef*%
%ADD59RoundRect,0.150000X-0.425000X0.150000X-0.425000X-0.150000X0.425000X-0.150000X0.425000X0.150000X0*%
%TD*%
%TA.AperFunction,SMDPad,CuDef*%
%ADD60RoundRect,0.075000X-0.500000X0.075000X-0.500000X-0.075000X0.500000X-0.075000X0.500000X0.075000X0*%
%TD*%
%TA.AperFunction,ComponentPad*%
%ADD61O,2.100000X1.000000*%
%TD*%
%TA.AperFunction,ComponentPad*%
%ADD62O,1.800000X1.000000*%
%TD*%
%TA.AperFunction,ViaPad*%
%ADD63C,0.600000*%
%TD*%
%TA.AperFunction,ViaPad*%
%ADD64C,1.200000*%
%TD*%
%TA.AperFunction,ViaPad*%
%ADD65C,0.800000*%
%TD*%
%TA.AperFunction,Conductor*%
%ADD66C,0.254000*%
%TD*%
%TA.AperFunction,Conductor*%
%ADD67C,0.200000*%
%TD*%
%TA.AperFunction,Conductor*%
%ADD68C,0.500000*%
%TD*%
%TA.AperFunction,Conductor*%
%ADD69C,2.000000*%
%TD*%
%TA.AperFunction,Conductor*%
%ADD70C,1.000000*%
%TD*%
%TA.AperFunction,Conductor*%
%ADD71C,0.300000*%
%TD*%
%TA.AperFunction,Conductor*%
%ADD72C,0.400000*%
%TD*%
%TA.AperFunction,Conductor*%
%ADD73C,1.500000*%
%TD*%
%TA.AperFunction,Conductor*%
%ADD74C,0.700000*%
%TD*%
%TA.AperFunction,Conductor*%
%ADD75C,0.350000*%
%TD*%
%TA.AperFunction,Profile*%
%ADD76C,0.050000*%
%TD*%
G04 APERTURE END LIST*
D10*
%TA.AperFunction,EtchedComponent*%
%TO.C,JP2*%
G36*
X130020000Y-102430000D02*
G01*
X129520000Y-102430000D01*
X129520000Y-101830000D01*
X130020000Y-101830000D01*
X130020000Y-102430000D01*
G37*
%TD.AperFunction*%
%TD*%
D11*
%TO.P,J22,1,Pin_1*%
%TO.N,/GPIO SPI GEN_PWM/IO4*%
X182372000Y-133866500D03*
%TO.P,J22,2,Pin_2*%
%TO.N,unconnected-(J22-Pin_2-Pad2)*%
X184372000Y-133866500D03*
%TO.P,J22,3,Pin_3*%
%TO.N,+3.3V*%
X186372000Y-133866500D03*
%TO.P,J22,4,Pin_4*%
%TO.N,GND*%
X188372000Y-133866500D03*
D12*
%TO.P,J22,SH1*%
%TO.N,N/C*%
X180072000Y-141366500D03*
%TO.P,J22,SH2*%
X190672000Y-141366500D03*
%TD*%
D13*
%TO.P,J3,01,01*%
%TO.N,+3.3V*%
X94244500Y-70534000D03*
%TO.P,J3,02,02*%
%TO.N,/CPU/JTMS-SWDIO*%
X97294500Y-70534000D03*
%TO.P,J3,03,03*%
%TO.N,GND*%
X94244500Y-71804000D03*
%TO.P,J3,04,04*%
%TO.N,/CPU/JTCK-SWCLK*%
X97294500Y-71804000D03*
%TO.P,J3,05,05*%
%TO.N,GND*%
X94244500Y-73074000D03*
%TO.P,J3,06,06*%
%TO.N,/CPU/JTDO-SWO*%
X97294500Y-73074000D03*
%TO.P,J3,07*%
%TO.N,N/C*%
X94244500Y-74344000D03*
%TO.P,J3,08,08*%
%TO.N,unconnected-(J3-Pad08)*%
X97294500Y-74344000D03*
%TO.P,J3,09,09*%
%TO.N,/CPU/GNDDetect*%
X94244500Y-75614000D03*
%TO.P,J3,10,10*%
%TO.N,/CPU/NRST*%
X97294500Y-75614000D03*
%TD*%
D14*
%TO.P,D3,1,A*%
%TO.N,GND*%
X184752000Y-107714000D03*
%TO.P,D3,2,K*%
%TO.N,+3.3V*%
X184752000Y-109614000D03*
%TO.P,D3,3,COM*%
%TO.N,/CPU/ADC_AN1*%
X186627000Y-108664000D03*
%TD*%
D15*
%TO.P,R4,1*%
%TO.N,Net-(J1-CC1)*%
X98162000Y-95329000D03*
%TO.P,R4,2*%
%TO.N,GND*%
X100162000Y-95329000D03*
%TD*%
D11*
%TO.P,J6,1,Pin_1*%
%TO.N,Net-(J6-Pin_1)*%
X154432000Y-133866500D03*
%TO.P,J6,2,Pin_2*%
%TO.N,Net-(J6-Pin_2)*%
X156432000Y-133866500D03*
%TO.P,J6,3,Pin_3*%
%TO.N,+3.3V*%
X158432000Y-133866500D03*
%TO.P,J6,4,Pin_4*%
%TO.N,GND*%
X160432000Y-133866500D03*
D12*
%TO.P,J6,SH1*%
%TO.N,N/C*%
X152132000Y-141366500D03*
%TO.P,J6,SH2*%
X162732000Y-141366500D03*
%TD*%
D16*
%TO.P,R66,1*%
%TO.N,+3.3V*%
X158384500Y-72834000D03*
%TO.P,R66,2*%
%TO.N,Net-(J16-Pin_2)*%
X158384500Y-70834000D03*
%TD*%
D15*
%TO.P,R77,1*%
%TO.N,+3.3V*%
X133207000Y-81041500D03*
%TO.P,R77,2*%
%TO.N,/CPU/I2C_SDA_EXTERNAL*%
X135207000Y-81041500D03*
%TD*%
D17*
%TO.P,D1,1,K*%
%TO.N,Net-(D1-K)*%
X118325000Y-93303500D03*
%TO.P,D1,2,A*%
%TO.N,Net-(D1-A)*%
X116450000Y-93303500D03*
%TD*%
D18*
%TO.P,U10,1,CH1*%
%TO.N,Net-(U10-CH1)*%
X119120500Y-128165000D03*
%TO.P,U10,2,VN*%
%TO.N,GND*%
X119120500Y-129115000D03*
%TO.P,U10,3,CH2*%
%TO.N,Net-(U10-CH2)*%
X119120500Y-130065000D03*
%TO.P,U10,4,CH3*%
%TO.N,Net-(U10-CH3)*%
X121720500Y-130065000D03*
%TO.P,U10,5,VP*%
%TO.N,+5V*%
X121720500Y-129115000D03*
%TO.P,U10,6,CH4*%
%TO.N,Net-(U10-CH4)*%
X121720500Y-128165000D03*
%TD*%
D19*
%TO.P,C12,1*%
%TO.N,VDDA*%
X130674000Y-108226000D03*
%TO.P,C12,2*%
%TO.N,GND*%
X128599000Y-108226000D03*
%TD*%
D20*
%TO.P,U20,1*%
%TO.N,GND*%
X175579500Y-89971500D03*
%TO.P,U20,2*%
%TO.N,/CPU/COM_LIDAR1_TX*%
X176229500Y-89971500D03*
%TO.P,U20,3*%
%TO.N,/CPU/COM_LIDAR1_RX*%
X176879500Y-89971500D03*
%TO.P,U20,4,GND*%
%TO.N,GND*%
X177529500Y-89971500D03*
%TO.P,U20,5*%
%TO.N,/UARTS/UART1_RX*%
X177529500Y-85671500D03*
%TO.P,U20,6*%
%TO.N,/UARTS/UART1_TX*%
X176879500Y-85671500D03*
%TO.P,U20,7*%
%TO.N,GND*%
X176229500Y-85671500D03*
%TO.P,U20,8,VCC*%
%TO.N,+3.3V*%
X175579500Y-85671500D03*
%TD*%
D21*
%TO.P,C36,1*%
%TO.N,+3.3V*%
X141088000Y-78486500D03*
%TO.P,C36,2*%
%TO.N,GND*%
X141088000Y-80561500D03*
%TD*%
D22*
%TO.P,Q1,1,S*%
%TO.N,Net-(JP3-A)*%
X106249500Y-123904000D03*
%TO.P,Q1,2,S*%
X106249500Y-122634000D03*
%TO.P,Q1,3,S*%
X106249500Y-121364000D03*
%TO.P,Q1,4,G*%
%TO.N,GND*%
X106249500Y-120094000D03*
%TO.P,Q1,5,D*%
%TO.N,/Power & Analog/VIN*%
X101299500Y-120094000D03*
%TO.P,Q1,6,D*%
X101299500Y-121364000D03*
%TO.P,Q1,7,D*%
X101299500Y-122634000D03*
%TO.P,Q1,8,D*%
X101299500Y-123904000D03*
%TD*%
D23*
%TO.P,J29,1,Pin_1*%
%TO.N,/GPIO SPI GEN_PWM/AN1*%
X195017000Y-108489000D03*
%TO.P,J29,2,Pin_2*%
%TO.N,unconnected-(J29-Pin_2-Pad2)*%
X195017000Y-106489000D03*
%TO.P,J29,3,Pin_3*%
%TO.N,+3.3V*%
X195017000Y-104489000D03*
%TO.P,J29,4,Pin_4*%
%TO.N,GND*%
X195017000Y-102489000D03*
D24*
%TO.P,J29,SH1*%
%TO.N,N/C*%
X202517000Y-110789000D03*
%TO.P,J29,SH2*%
X202517000Y-100189000D03*
%TD*%
D25*
%TO.P,U12,1,SDO/SA0*%
%TO.N,unconnected-(U12-SDO{slash}SA0-Pad1)*%
X164500500Y-95835500D03*
%TO.P,U12,2,SDX*%
%TO.N,unconnected-(U12-SDX-Pad2)*%
X164500500Y-96335500D03*
%TO.P,U12,3,SCX*%
%TO.N,unconnected-(U12-SCX-Pad3)*%
X164500500Y-96835500D03*
%TO.P,U12,4,INT1*%
%TO.N,/CPU/INT_IMU*%
X164500500Y-97335500D03*
D26*
%TO.P,U12,5,VDDIO*%
%TO.N,+3.3V*%
X165163000Y-97498000D03*
%TO.P,U12,6,GND*%
%TO.N,GND*%
X165663000Y-97498000D03*
%TO.P,U12,7,GND*%
X166163000Y-97498000D03*
D25*
%TO.P,U12,8,VDD*%
%TO.N,+3.3V*%
X166825500Y-97335500D03*
%TO.P,U12,9,INT2*%
%TO.N,unconnected-(U12-INT2-Pad9)*%
X166825500Y-96835500D03*
%TO.P,U12,10,NC*%
%TO.N,unconnected-(U12-NC-Pad10)*%
X166825500Y-96335500D03*
%TO.P,U12,11,NC*%
%TO.N,unconnected-(U12-NC-Pad11)*%
X166825500Y-95835500D03*
D26*
%TO.P,U12,12,CS*%
%TO.N,+3.3V*%
X166163000Y-95673000D03*
%TO.P,U12,13,SCL*%
%TO.N,/CPU/I2C_SCL_INT*%
X165663000Y-95673000D03*
%TO.P,U12,14,SDA*%
%TO.N,/CPU/I2C_SDA_INT*%
X165163000Y-95673000D03*
%TD*%
D15*
%TO.P,R8,1*%
%TO.N,Net-(U2-3V3OUT)*%
X112148000Y-95843500D03*
%TO.P,R8,2*%
%TO.N,Net-(D2-A)*%
X114148000Y-95843500D03*
%TD*%
D27*
%TO.P,R17,1*%
%TO.N,Net-(U5-B3Y)*%
X131040000Y-131246500D03*
%TO.P,R17,2*%
%TO.N,Net-(J8-Pad07)*%
X129040000Y-131246500D03*
%TD*%
D19*
%TO.P,C45,1*%
%TO.N,+3.3V*%
X179742000Y-119776500D03*
%TO.P,C45,2*%
%TO.N,GND*%
X177667000Y-119776500D03*
%TD*%
D16*
%TO.P,R19,1*%
%TO.N,Net-(J6-Pin_1)*%
X154257000Y-129349000D03*
%TO.P,R19,2*%
%TO.N,Net-(U11-1A)*%
X154257000Y-127349000D03*
%TD*%
D28*
%TO.P,D6,1,K*%
%TO.N,GND*%
X90454500Y-108791000D03*
%TO.P,D6,2,A*%
%TO.N,Net-(D6-A)*%
X92329500Y-108791000D03*
%TD*%
D27*
%TO.P,R24,1*%
%TO.N,Net-(U9-B2Y)*%
X112696500Y-128397000D03*
%TO.P,R24,2*%
%TO.N,Net-(U10-CH2)*%
X110696500Y-128397000D03*
%TD*%
D29*
%TO.P,FB1,1*%
%TO.N,VBUS*%
X98028000Y-93303500D03*
%TO.P,FB1,2*%
%TO.N,/Power & Analog/FT231_VCC*%
X100328000Y-93303500D03*
%TD*%
D30*
%TO.P,R55,1*%
%TO.N,+3.3V*%
X168656000Y-71158000D03*
%TO.P,R55,2*%
%TO.N,/CPU/I2C_SDA_ARBITRARY*%
X168656000Y-73158000D03*
%TD*%
D21*
%TO.P,C32,1*%
%TO.N,+3.3V*%
X161787000Y-90149000D03*
%TO.P,C32,2*%
%TO.N,GND*%
X161787000Y-92224000D03*
%TD*%
D27*
%TO.P,R16,1*%
%TO.N,Net-(U5-B2Y)*%
X126976000Y-128452500D03*
%TO.P,R16,2*%
%TO.N,Net-(J8-Pad04)*%
X124976000Y-128452500D03*
%TD*%
D31*
%TO.P,JP3,1,A*%
%TO.N,Net-(JP3-A)*%
X105367000Y-133499000D03*
D32*
%TO.P,JP3,2,B*%
%TO.N,+5V*%
X102827000Y-133499000D03*
%TD*%
D33*
%TO.P,U19,1,SDA*%
%TO.N,/CPU/I2C_SDA_INT*%
X98442000Y-83346500D03*
%TO.P,U19,2,SCL*%
%TO.N,/CPU/I2C_SCL_INT*%
X98442000Y-82546500D03*
%TO.P,U19,3,VDD*%
%TO.N,+3.3V*%
X97042000Y-82546500D03*
%TO.P,U19,4,VSS*%
%TO.N,GND*%
X97042000Y-83346500D03*
%TD*%
D16*
%TO.P,R12,1*%
%TO.N,Net-(J4-Pin_2)*%
X143462000Y-129349000D03*
%TO.P,R12,2*%
%TO.N,Net-(U4-CH2)*%
X143462000Y-127349000D03*
%TD*%
D15*
%TO.P,R46,1*%
%TO.N,/UARTS/UART3_RX*%
X185642000Y-92950500D03*
%TO.P,R46,2*%
%TO.N,Net-(J27-Pin_1)*%
X187642000Y-92950500D03*
%TD*%
D34*
%TO.P,U11,1,1~{OE}*%
%TO.N,GND*%
X152523000Y-116590000D03*
D35*
%TO.P,U11,2,1A*%
%TO.N,Net-(U11-1A)*%
X152523000Y-117340000D03*
%TO.P,U11,3,1Y*%
%TO.N,/CPU/ENCODER_3_PHA*%
X152523000Y-117990000D03*
%TO.P,U11,4,2~{OE}*%
%TO.N,GND*%
X152523000Y-118640000D03*
%TO.P,U11,5,2A*%
%TO.N,Net-(U11-2A)*%
X152523000Y-119290000D03*
%TO.P,U11,6,2Y*%
%TO.N,/CPU/ENCODER_3_PHB*%
X152523000Y-119940000D03*
D34*
%TO.P,U11,7,GND*%
%TO.N,GND*%
X152523000Y-120690000D03*
%TO.P,U11,8,3Y*%
%TO.N,/CPU/ENCODER_4_PHA*%
X158373000Y-120690000D03*
D35*
%TO.P,U11,9,3A*%
%TO.N,Net-(U11-3A)*%
X158373000Y-119940000D03*
%TO.P,U11,10,3~{OE}*%
%TO.N,GND*%
X158373000Y-119290000D03*
%TO.P,U11,11,4Y*%
%TO.N,/CPU/ENCODER_4_PHB*%
X158373000Y-118640000D03*
%TO.P,U11,12,4A*%
%TO.N,Net-(U11-4A)*%
X158373000Y-117990000D03*
%TO.P,U11,13,VCC*%
%TO.N,+3.3V*%
X158373000Y-117340000D03*
D34*
%TO.P,U11,14,4~{OE}*%
%TO.N,GND*%
X158373000Y-116590000D03*
%TD*%
D36*
%TO.P,J8,01,01*%
%TO.N,Net-(J8-Pad01)*%
X123300000Y-140158500D03*
D37*
%TO.P,J8,02,02*%
%TO.N,+5V*%
X123300000Y-137618500D03*
%TO.P,J8,03,03*%
%TO.N,GND*%
X123300000Y-135078500D03*
%TO.P,J8,04,04*%
%TO.N,Net-(J8-Pad04)*%
X125840000Y-140158500D03*
%TO.P,J8,05,05*%
%TO.N,+5V*%
X125840000Y-137618500D03*
%TO.P,J8,06,06*%
%TO.N,GND*%
X125840000Y-135078500D03*
%TO.P,J8,07,07*%
%TO.N,Net-(J8-Pad07)*%
X128380000Y-140158500D03*
%TO.P,J8,08,08*%
%TO.N,+5V*%
X128380000Y-137618500D03*
%TO.P,J8,09,09*%
%TO.N,GND*%
X128380000Y-135078500D03*
%TO.P,J8,10,10*%
%TO.N,Net-(J8-Pad10)*%
X130920000Y-140158500D03*
%TO.P,J8,11,11*%
%TO.N,+5V*%
X130920000Y-137618500D03*
%TO.P,J8,12,12*%
%TO.N,GND*%
X130920000Y-135078500D03*
%TD*%
D16*
%TO.P,R64,1*%
%TO.N,+3.3V*%
X145367000Y-72834000D03*
%TO.P,R64,2*%
%TO.N,Net-(J14-Pin_2)*%
X145367000Y-70834000D03*
%TD*%
D21*
%TO.P,C38,1*%
%TO.N,GND*%
X188078000Y-71882500D03*
%TO.P,C38,2*%
%TO.N,+5V*%
X188078000Y-73957500D03*
%TD*%
D16*
%TO.P,R57,1*%
%TO.N,+3.3V*%
X121237000Y-72834000D03*
%TO.P,R57,2*%
%TO.N,Net-(J10-Pin_1)*%
X121237000Y-70834000D03*
%TD*%
D23*
%TO.P,J2,1,Pin_1*%
%TO.N,GND*%
X97622000Y-121221500D03*
%TO.P,J2,2,Pin_2*%
%TO.N,/Power & Analog/VIN*%
X97622000Y-123221500D03*
%TO.P,J2,3,Pin_3*%
X97622000Y-125221500D03*
%TO.P,J2,4,Pin_4*%
%TO.N,GND*%
X97622000Y-127221500D03*
D24*
%TO.P,J2,SH1*%
%TO.N,N/C*%
X90122000Y-118921500D03*
%TO.P,J2,SH2*%
X90122000Y-129521500D03*
%TD*%
D38*
%TO.P,U33,1,TXD*%
%TO.N,/CPU/FDCAN1_TX*%
X182851500Y-72037000D03*
%TO.P,U33,2,VSS*%
%TO.N,GND*%
X182851500Y-72687000D03*
%TO.P,U33,3,VDD*%
%TO.N,+3.3V*%
X182851500Y-73337000D03*
%TO.P,U33,4,RXD*%
%TO.N,/CPU/FDCAN1_RX*%
X182851500Y-73987000D03*
%TO.P,U33,5,VIO*%
%TO.N,+5V*%
X185951500Y-73987000D03*
%TO.P,U33,6,CANL*%
%TO.N,Net-(J25-Pin_1)*%
X185951500Y-73337000D03*
%TO.P,U33,7,CANH*%
%TO.N,Net-(J25-Pin_2)*%
X185951500Y-72687000D03*
%TO.P,U33,8,STBY*%
%TO.N,/CPU/FDCAN_STBY*%
X185951500Y-72037000D03*
D39*
%TO.P,U33,9,VSS*%
%TO.N,GND*%
X184401500Y-73012000D03*
%TD*%
D23*
%TO.P,J27,1,Pin_1*%
%TO.N,Net-(J27-Pin_1)*%
X195017000Y-93249000D03*
%TO.P,J27,2,Pin_2*%
%TO.N,Net-(J27-Pin_2)*%
X195017000Y-91249000D03*
%TO.P,J27,3,Pin_3*%
%TO.N,+5V*%
X195017000Y-89249000D03*
%TO.P,J27,4,Pin_4*%
%TO.N,GND*%
X195017000Y-87249000D03*
D24*
%TO.P,J27,SH1*%
%TO.N,N/C*%
X202517000Y-95549000D03*
%TO.P,J27,SH2*%
X202517000Y-84949000D03*
%TD*%
D11*
%TO.P,J14,1,Pin_1*%
%TO.N,Net-(J14-Pin_1)*%
X147029500Y-65364000D03*
%TO.P,J14,2,Pin_2*%
%TO.N,Net-(J14-Pin_2)*%
X145029500Y-65364000D03*
%TO.P,J14,3,Pin_3*%
%TO.N,+3.3V_PWR*%
X143029500Y-65364000D03*
%TO.P,J14,4,Pin_4*%
%TO.N,GND*%
X141029500Y-65364000D03*
D12*
%TO.P,J14,SH1*%
%TO.N,N/C*%
X149329500Y-57864000D03*
%TO.P,J14,SH2*%
X138729500Y-57864000D03*
%TD*%
D15*
%TO.P,R31,1*%
%TO.N,/UARTS/UART1_TX*%
X185642000Y-88839500D03*
%TO.P,R31,2*%
%TO.N,Net-(J18-Pin_2)*%
X187642000Y-88839500D03*
%TD*%
D11*
%TO.P,J4,1,Pin_1*%
%TO.N,Net-(J4-Pin_1)*%
X141414500Y-133866500D03*
%TO.P,J4,2,Pin_2*%
%TO.N,Net-(J4-Pin_2)*%
X143414500Y-133866500D03*
%TO.P,J4,3,Pin_3*%
%TO.N,+3.3V*%
X145414500Y-133866500D03*
%TO.P,J4,4,Pin_4*%
%TO.N,GND*%
X147414500Y-133866500D03*
D12*
%TO.P,J4,SH1*%
%TO.N,N/C*%
X139114500Y-141366500D03*
%TO.P,J4,SH2*%
X149714500Y-141366500D03*
%TD*%
D18*
%TO.P,U21,1,CH1*%
%TO.N,/UARTS/UART1_TX*%
X183299500Y-88617500D03*
%TO.P,U21,2,VN*%
%TO.N,GND*%
X183299500Y-87667500D03*
%TO.P,U21,3,CH2*%
%TO.N,/UARTS/UART1_RX*%
X183299500Y-86717500D03*
%TO.P,U21,4,CH3*%
%TO.N,unconnected-(U21-CH3-Pad4)*%
X180699500Y-86717500D03*
%TO.P,U21,5,VP*%
%TO.N,+3.3V*%
X180699500Y-87667500D03*
%TO.P,U21,6,CH4*%
%TO.N,unconnected-(U21-CH4-Pad6)*%
X180699500Y-88617500D03*
%TD*%
%TO.P,U27,1,CH1*%
%TO.N,/UARTS/UART3_TX*%
X183257500Y-95326500D03*
%TO.P,U27,2,VN*%
%TO.N,GND*%
X183257500Y-94376500D03*
%TO.P,U27,3,CH2*%
%TO.N,/UARTS/UART3_RX*%
X183257500Y-93426500D03*
%TO.P,U27,4,CH3*%
%TO.N,unconnected-(U27-CH3-Pad4)*%
X180657500Y-93426500D03*
%TO.P,U27,5,VP*%
%TO.N,+3.3V*%
X180657500Y-94376500D03*
%TO.P,U27,6,CH4*%
%TO.N,unconnected-(U27-CH4-Pad6)*%
X180657500Y-95326500D03*
%TD*%
D11*
%TO.P,J20,1,Pin_1*%
%TO.N,/GPIO SPI GEN_PWM/IO1*%
X169354500Y-133866500D03*
%TO.P,J20,2,Pin_2*%
%TO.N,unconnected-(J20-Pin_2-Pad2)*%
X171354500Y-133866500D03*
%TO.P,J20,3,Pin_3*%
%TO.N,+3.3V*%
X173354500Y-133866500D03*
%TO.P,J20,4,Pin_4*%
%TO.N,GND*%
X175354500Y-133866500D03*
D12*
%TO.P,J20,SH1*%
%TO.N,N/C*%
X167054500Y-141366500D03*
%TO.P,J20,SH2*%
X177654500Y-141366500D03*
%TD*%
D40*
%TO.P,SW1,1,1*%
%TO.N,GND*%
X203502000Y-117786500D03*
X203502000Y-123036500D03*
%TO.P,SW1,2,2*%
%TO.N,/CPU/USER_BTN*%
X201802000Y-117786500D03*
X201802000Y-123036500D03*
%TD*%
D41*
%TO.P,C16,1*%
%TO.N,Net-(U2-3V3OUT)*%
X105782000Y-89239500D03*
%TO.P,C16,2*%
%TO.N,GND*%
X107857000Y-89239500D03*
%TD*%
D23*
%TO.P,J18,1,Pin_1*%
%TO.N,Net-(J18-Pin_1)*%
X195017000Y-79914000D03*
%TO.P,J18,2,Pin_2*%
%TO.N,Net-(J18-Pin_2)*%
X195017000Y-77914000D03*
%TO.P,J18,3,Pin_3*%
%TO.N,+5V*%
X195017000Y-75914000D03*
%TO.P,J18,4,Pin_4*%
%TO.N,GND*%
X195017000Y-73914000D03*
D24*
%TO.P,J18,SH1*%
%TO.N,N/C*%
X202517000Y-82214000D03*
%TO.P,J18,SH2*%
X202517000Y-71614000D03*
%TD*%
D42*
%TO.P,U15,1,A0*%
%TO.N,GND*%
X121907000Y-82386500D03*
%TO.P,U15,2,A1*%
X122557000Y-82386500D03*
%TO.P,U15,3,A2*%
X123207000Y-82386500D03*
%TO.P,U15,4,~{INT0}*%
%TO.N,unconnected-(U15-~{INT0}-Pad4)*%
X123857000Y-82386500D03*
%TO.P,U15,5,SD0*%
%TO.N,Net-(J10-Pin_2)*%
X124507000Y-82386500D03*
%TO.P,U15,6,SC0*%
%TO.N,Net-(J10-Pin_1)*%
X125157000Y-82386500D03*
%TO.P,U15,7,~{INT1}*%
%TO.N,unconnected-(U15-~{INT1}-Pad7)*%
X125807000Y-82386500D03*
%TO.P,U15,8,SD1*%
%TO.N,Net-(J12-Pin_2)*%
X126457000Y-82386500D03*
%TO.P,U15,9,SC1*%
%TO.N,Net-(J12-Pin_1)*%
X127107000Y-82386500D03*
%TO.P,U15,10,VSS*%
%TO.N,GND*%
X127757000Y-82386500D03*
%TO.P,U15,11,~{INT2}*%
%TO.N,unconnected-(U15-~{INT2}-Pad11)*%
X127757000Y-76661500D03*
%TO.P,U15,12,SD2*%
%TO.N,Net-(J11-Pin_2)*%
X127107000Y-76661500D03*
%TO.P,U15,13,SC2*%
%TO.N,Net-(J11-Pin_1)*%
X126457000Y-76661500D03*
%TO.P,U15,14,~{INT3}*%
%TO.N,unconnected-(U15-~{INT3}-Pad14)*%
X125807000Y-76661500D03*
%TO.P,U15,15,SD3*%
%TO.N,Net-(J13-Pin_2)*%
X125157000Y-76661500D03*
%TO.P,U15,16,SC3*%
%TO.N,Net-(J13-Pin_1)*%
X124507000Y-76661500D03*
%TO.P,U15,17,~{INT}*%
%TO.N,unconnected-(U15-~{INT}-Pad17)*%
X123857000Y-76661500D03*
%TO.P,U15,18,SCL*%
%TO.N,/CPU/I2C_SCL_EXTERNAL*%
X123207000Y-76661500D03*
%TO.P,U15,19,SDA*%
%TO.N,/CPU/I2C_SDA_EXTERNAL*%
X122557000Y-76661500D03*
%TO.P,U15,20,VDD*%
%TO.N,+3.3V*%
X121907000Y-76661500D03*
%TD*%
D43*
%TO.P,U18,1,NC*%
%TO.N,unconnected-(U18-NC-Pad1)*%
X89359500Y-82196500D03*
%TO.P,U18,2,VDD*%
%TO.N,+3.3V*%
X89359500Y-82696500D03*
%TO.P,U18,3,GND*%
%TO.N,GND*%
X89359500Y-83196500D03*
%TO.P,U18,4,NC*%
%TO.N,unconnected-(U18-NC-Pad4)*%
X89359500Y-83696500D03*
%TO.P,U18,5,SCL*%
%TO.N,/CPU/I2C_SCL_INT*%
X90884500Y-83696500D03*
%TO.P,U18,6,SDA*%
%TO.N,/CPU/I2C_SDA_INT*%
X90884500Y-83196500D03*
%TO.P,U18,7,INT*%
%TO.N,/CPU/INT_LIGHT*%
X90884500Y-82696500D03*
%TO.P,U18,8,NC*%
%TO.N,unconnected-(U18-NC-Pad8)*%
X90884500Y-82196500D03*
%TD*%
D34*
%TO.P,U6,1,1~{OE}*%
%TO.N,GND*%
X140077000Y-116568000D03*
D35*
%TO.P,U6,2,1A*%
%TO.N,Net-(U4-CH1)*%
X140077000Y-117318000D03*
%TO.P,U6,3,1Y*%
%TO.N,/CPU/ENCODER_1_PHA*%
X140077000Y-117968000D03*
%TO.P,U6,4,2~{OE}*%
%TO.N,GND*%
X140077000Y-118618000D03*
%TO.P,U6,5,2A*%
%TO.N,Net-(U4-CH2)*%
X140077000Y-119268000D03*
%TO.P,U6,6,2Y*%
%TO.N,/CPU/ENCODER_1_PHB*%
X140077000Y-119918000D03*
D34*
%TO.P,U6,7,GND*%
%TO.N,GND*%
X140077000Y-120668000D03*
%TO.P,U6,8,3Y*%
%TO.N,/CPU/ENCODER_2_PHA*%
X145927000Y-120668000D03*
D35*
%TO.P,U6,9,3A*%
%TO.N,Net-(U4-CH3)*%
X145927000Y-119918000D03*
%TO.P,U6,10,3~{OE}*%
%TO.N,GND*%
X145927000Y-119268000D03*
%TO.P,U6,11,4Y*%
%TO.N,/CPU/ENCODER_2_PHB*%
X145927000Y-118618000D03*
%TO.P,U6,12,4A*%
%TO.N,Net-(U4-CH4)*%
X145927000Y-117968000D03*
%TO.P,U6,13,VCC*%
%TO.N,+3.3V*%
X145927000Y-117318000D03*
D34*
%TO.P,U6,14,4~{OE}*%
%TO.N,GND*%
X145927000Y-116568000D03*
%TD*%
D28*
%TO.P,D7,1,K*%
%TO.N,GND*%
X90454500Y-105790500D03*
%TO.P,D7,2,A*%
%TO.N,Net-(D7-A)*%
X92329500Y-105790500D03*
%TD*%
D19*
%TO.P,C11,1*%
%TO.N,VDDA*%
X130695500Y-104924000D03*
%TO.P,C11,2*%
%TO.N,GND*%
X128620500Y-104924000D03*
%TD*%
D28*
%TO.P,D4,1,K*%
%TO.N,GND*%
X90454500Y-111839000D03*
%TO.P,D4,2,A*%
%TO.N,Net-(D4-A)*%
X92329500Y-111839000D03*
%TD*%
D27*
%TO.P,R1,1*%
%TO.N,Net-(U1-PH3)*%
X140580000Y-84604000D03*
%TO.P,R1,2*%
%TO.N,GND*%
X138580000Y-84604000D03*
%TD*%
D41*
%TO.P,C18,1*%
%TO.N,VBUS*%
X102734000Y-106956000D03*
%TO.P,C18,2*%
%TO.N,GND*%
X104809000Y-106956000D03*
%TD*%
D15*
%TO.P,R6,1*%
%TO.N,/Power & Analog/USB2-DP*%
X112164000Y-100923500D03*
%TO.P,R6,2*%
%TO.N,/Power & Analog/USB-DP*%
X114164000Y-100923500D03*
%TD*%
D16*
%TO.P,R30,1*%
%TO.N,+3.3V*%
X165089000Y-86350000D03*
%TO.P,R30,2*%
%TO.N,/CPU/I2C_SCL_INT*%
X165089000Y-84350000D03*
%TD*%
D44*
%TO.P,U1,1,PE2*%
%TO.N,unconnected-(U1-PE2-Pad1)*%
X136152000Y-90018000D03*
%TO.P,U1,2,PE3*%
%TO.N,/CPU/ENCODER_3_PHA*%
X136152000Y-90518000D03*
%TO.P,U1,3,PE4*%
%TO.N,/CPU/ENCODER_3_PHB*%
X136152000Y-91018000D03*
%TO.P,U1,4,PE5*%
%TO.N,/CPU/~{POWEROFF}*%
X136152000Y-91518000D03*
%TO.P,U1,5,PE6*%
%TO.N,unconnected-(U1-PE6-Pad5)*%
X136152000Y-92018000D03*
%TO.P,U1,6,VBAT*%
%TO.N,+3.3V*%
X136152000Y-92518000D03*
%TO.P,U1,7,PC13*%
%TO.N,unconnected-(U1-PC13-Pad7)*%
X136152000Y-93018000D03*
%TO.P,U1,8,PC14*%
%TO.N,unconnected-(U1-PC14-Pad8)*%
X136152000Y-93518000D03*
%TO.P,U1,9,PC15*%
%TO.N,unconnected-(U1-PC15-Pad9)*%
X136152000Y-94018000D03*
%TO.P,U1,10,VSS*%
%TO.N,GND*%
X136152000Y-94518000D03*
%TO.P,U1,11,VDD*%
%TO.N,+3.3V*%
X136152000Y-95018000D03*
%TO.P,U1,12,PH0*%
%TO.N,/CPU/CLK_IN_16Mhz*%
X136152000Y-95518000D03*
%TO.P,U1,13,PH1*%
%TO.N,unconnected-(U1-PH1-Pad13)*%
X136152000Y-96018000D03*
%TO.P,U1,14,NRST*%
%TO.N,/CPU/NRST*%
X136152000Y-96518000D03*
%TO.P,U1,15,PC0*%
%TO.N,/CPU/COM_EXT_RX*%
X136152000Y-97018000D03*
%TO.P,U1,16,PC1*%
%TO.N,/CPU/COM_EXT_TX*%
X136152000Y-97518000D03*
%TO.P,U1,17,PC2*%
%TO.N,/CPU/ENCODER_1_PHB*%
X136152000Y-98018000D03*
%TO.P,U1,18,PC3*%
%TO.N,/CPU/US_PulseStart*%
X136152000Y-98518000D03*
%TO.P,U1,19,VSSA*%
%TO.N,GND*%
X136152000Y-99018000D03*
%TO.P,U1,20,VREF-*%
X136152000Y-99518000D03*
%TO.P,U1,21,VREF+*%
%TO.N,+3.3V*%
X136152000Y-100018000D03*
%TO.P,U1,22,VDDA*%
%TO.N,VDDA*%
X136152000Y-100518000D03*
%TO.P,U1,23,PA0*%
%TO.N,/CPU/MOT_PWM1*%
X136152000Y-101018000D03*
%TO.P,U1,24,PA1*%
%TO.N,/CPU/MOT_PWM2*%
X136152000Y-101518000D03*
%TO.P,U1,25,PA2*%
%TO.N,/CPU/MOT_PWM3*%
X136152000Y-102018000D03*
D45*
%TO.P,U1,26,PA3*%
%TO.N,/CPU/MOT_PWM4*%
X137827000Y-103693000D03*
%TO.P,U1,27,VSS*%
%TO.N,GND*%
X138327000Y-103693000D03*
%TO.P,U1,28,VDD*%
%TO.N,+3.3V*%
X138827000Y-103693000D03*
%TO.P,U1,29,PA4*%
%TO.N,/CPU/LED_ACTIVITY*%
X139327000Y-103693000D03*
%TO.P,U1,30,PA5*%
%TO.N,/CPU/PWR_CSLEEP*%
X139827000Y-103693000D03*
%TO.P,U1,31,PA6*%
%TO.N,unconnected-(U1-PA6-Pad31)*%
X140327000Y-103693000D03*
%TO.P,U1,32,PA7*%
%TO.N,unconnected-(U1-PA7-Pad32)*%
X140827000Y-103693000D03*
%TO.P,U1,33,PC4*%
%TO.N,/CPU/COM_GPS_TX*%
X141327000Y-103693000D03*
%TO.P,U1,34,PC5*%
%TO.N,/CPU/COM_GPS_RX*%
X141827000Y-103693000D03*
%TO.P,U1,35,PB0*%
%TO.N,/CPU/SERVO_PWM2N*%
X142327000Y-103693000D03*
%TO.P,U1,36,PB1*%
%TO.N,/CPU/ENCODER_2_PHA*%
X142827000Y-103693000D03*
%TO.P,U1,37,PB2*%
%TO.N,/CPU/ADC_VBAT*%
X143327000Y-103693000D03*
%TO.P,U1,38,PE7*%
%TO.N,/CPU/IO1*%
X143827000Y-103693000D03*
%TO.P,U1,39,PE8*%
%TO.N,/CPU/IO2*%
X144327000Y-103693000D03*
%TO.P,U1,40,PE9*%
%TO.N,/CPU/IO3*%
X144827000Y-103693000D03*
%TO.P,U1,41,PE10*%
%TO.N,/CPU/IO4*%
X145327000Y-103693000D03*
%TO.P,U1,42,PE11*%
%TO.N,unconnected-(U1-PE11-Pad42)*%
X145827000Y-103693000D03*
%TO.P,U1,43,PE12*%
%TO.N,/CPU/ADC_AN1*%
X146327000Y-103693000D03*
%TO.P,U1,44,PE13*%
%TO.N,/CPU/ADC_AN2*%
X146827000Y-103693000D03*
%TO.P,U1,45,PE14*%
%TO.N,unconnected-(U1-PE14-Pad45)*%
X147327000Y-103693000D03*
%TO.P,U1,46,PE15*%
%TO.N,unconnected-(U1-PE15-Pad46)*%
X147827000Y-103693000D03*
%TO.P,U1,47,PB10*%
%TO.N,unconnected-(U1-PB10-Pad47)*%
X148327000Y-103693000D03*
%TO.P,U1,48,VCAP*%
%TO.N,Net-(U1-VCAP)*%
X148827000Y-103693000D03*
%TO.P,U1,49,VSS*%
%TO.N,GND*%
X149327000Y-103693000D03*
%TO.P,U1,50,VDD*%
%TO.N,+3.3V*%
X149827000Y-103693000D03*
D44*
%TO.P,U1,51,PB12*%
%TO.N,unconnected-(U1-PB12-Pad51)*%
X151502000Y-102018000D03*
%TO.P,U1,52,PB13*%
%TO.N,/CPU/I2C_SCL_EXTERNAL*%
X151502000Y-101518000D03*
%TO.P,U1,53,PB14*%
%TO.N,/CPU/I2C_SDA_EXTERNAL*%
X151502000Y-101018000D03*
%TO.P,U1,54,PB15*%
%TO.N,unconnected-(U1-PB15-Pad54)*%
X151502000Y-100518000D03*
%TO.P,U1,55,PD8*%
%TO.N,unconnected-(U1-PD8-Pad55)*%
X151502000Y-100018000D03*
%TO.P,U1,56,PD9*%
%TO.N,/CPU/ENCODER_2_PHB*%
X151502000Y-99518000D03*
%TO.P,U1,57,PD10*%
%TO.N,unconnected-(U1-PD10-Pad57)*%
X151502000Y-99018000D03*
%TO.P,U1,58,PD11*%
%TO.N,unconnected-(U1-PD11-Pad58)*%
X151502000Y-98518000D03*
%TO.P,U1,59,PD12*%
%TO.N,/CPU/I2C_SCL_ARBITRARY*%
X151502000Y-98018000D03*
%TO.P,U1,60,PD13*%
%TO.N,/CPU/ENCODER_4_PHB*%
X151502000Y-97518000D03*
%TO.P,U1,61,PD14*%
%TO.N,unconnected-(U1-PD14-Pad61)*%
X151502000Y-97018000D03*
%TO.P,U1,62,PD15*%
%TO.N,/CPU/US_PulseEnd*%
X151502000Y-96518000D03*
%TO.P,U1,63,PC6*%
%TO.N,/CPU/SERVO_PWM1*%
X151502000Y-96018000D03*
%TO.P,U1,64,PC7*%
%TO.N,unconnected-(U1-PC7-Pad64)*%
X151502000Y-95518000D03*
%TO.P,U1,65,PC8*%
%TO.N,/CPU/SERVO_PWM3*%
X151502000Y-95018000D03*
%TO.P,U1,66,PC9*%
%TO.N,/CPU/SERVO_PWM4*%
X151502000Y-94518000D03*
%TO.P,U1,67,PA8*%
%TO.N,unconnected-(U1-PA8-Pad67)*%
X151502000Y-94018000D03*
%TO.P,U1,68,PA9*%
%TO.N,/CPU/COM_USB_TX*%
X151502000Y-93518000D03*
%TO.P,U1,69,PA10*%
%TO.N,/CPU/COM_USB_RX*%
X151502000Y-93018000D03*
%TO.P,U1,70,PA11*%
%TO.N,/CPU/FDCAN1_RX*%
X151502000Y-92518000D03*
%TO.P,U1,71,PA12*%
%TO.N,/CPU/FDCAN1_TX*%
X151502000Y-92018000D03*
%TO.P,U1,72,PA13*%
%TO.N,/CPU/JTMS-SWDIO*%
X151502000Y-91518000D03*
%TO.P,U1,73,VDDUSB*%
%TO.N,+3.3V*%
X151502000Y-91018000D03*
%TO.P,U1,74,VSS*%
%TO.N,GND*%
X151502000Y-90518000D03*
%TO.P,U1,75,VDD*%
%TO.N,+3.3V*%
X151502000Y-90018000D03*
D45*
%TO.P,U1,76,PA14*%
%TO.N,/CPU/JTCK-SWCLK*%
X149827000Y-88343000D03*
%TO.P,U1,77,PA15*%
%TO.N,unconnected-(U1-PA15-Pad77)*%
X149327000Y-88343000D03*
%TO.P,U1,78,PC10*%
%TO.N,/CPU/COM_LIDAR1_TX*%
X148827000Y-88343000D03*
%TO.P,U1,79,PC11*%
%TO.N,/CPU/COM_LIDAR1_RX*%
X148327000Y-88343000D03*
%TO.P,U1,80,PC12*%
%TO.N,/CPU/COM_LIDAR2_TX*%
X147827000Y-88343000D03*
%TO.P,U1,81,PD0*%
%TO.N,/CPU/FDCAN_STBY*%
X147327000Y-88343000D03*
%TO.P,U1,82,PD1*%
%TO.N,unconnected-(U1-PD1-Pad82)*%
X146827000Y-88343000D03*
%TO.P,U1,83,PD2*%
%TO.N,/CPU/COM_LIDAR2_RX*%
X146327000Y-88343000D03*
%TO.P,U1,84,PD3*%
%TO.N,/CPU/INT_MAGNETO*%
X145827000Y-88343000D03*
%TO.P,U1,85,PD4*%
%TO.N,/CPU/INT_IMU*%
X145327000Y-88343000D03*
%TO.P,U1,86,PD5*%
%TO.N,/CPU/INT_PRESSURE*%
X144827000Y-88343000D03*
%TO.P,U1,87,PD6*%
%TO.N,/CPU/INT_LIGHT*%
X144327000Y-88343000D03*
%TO.P,U1,88,PD7*%
%TO.N,/CPU/USER_BTN*%
X143827000Y-88343000D03*
%TO.P,U1,89,PB3*%
%TO.N,/CPU/JTDO-SWO*%
X143327000Y-88343000D03*
%TO.P,U1,90,PB4*%
%TO.N,unconnected-(U1-PB4-Pad90)*%
X142827000Y-88343000D03*
%TO.P,U1,91,PB5*%
%TO.N,/CPU/ENCODER_1_PHA*%
X142327000Y-88343000D03*
%TO.P,U1,92,PB6*%
%TO.N,/CPU/ENCODER_4_PHA*%
X141827000Y-88343000D03*
%TO.P,U1,93,PB7*%
%TO.N,/CPU/I2C_SDA_ARBITRARY*%
X141327000Y-88343000D03*
%TO.P,U1,94,PH3*%
%TO.N,Net-(U1-PH3)*%
X140827000Y-88343000D03*
%TO.P,U1,95,PB8*%
%TO.N,/CPU/I2C_SCL_INT*%
X140327000Y-88343000D03*
%TO.P,U1,96,PB9*%
%TO.N,/CPU/I2C_SDA_INT*%
X139827000Y-88343000D03*
%TO.P,U1,97,PE0*%
%TO.N,unconnected-(U1-PE0-Pad97)*%
X139327000Y-88343000D03*
%TO.P,U1,98,PE1*%
%TO.N,unconnected-(U1-PE1-Pad98)*%
X138827000Y-88343000D03*
%TO.P,U1,99,VSS*%
%TO.N,GND*%
X138327000Y-88343000D03*
%TO.P,U1,100,VDD*%
%TO.N,+3.3V*%
X137827000Y-88343000D03*
%TD*%
D15*
%TO.P,R74,1*%
%TO.N,+3.3V*%
X170719500Y-68659000D03*
%TO.P,R74,2*%
%TO.N,Net-(J23-Pin_2)*%
X172719500Y-68659000D03*
%TD*%
D20*
%TO.P,U28,1*%
%TO.N,GND*%
X175579500Y-96526500D03*
%TO.P,U28,2*%
%TO.N,/CPU/COM_GPS_RX*%
X176229500Y-96526500D03*
%TO.P,U28,3*%
%TO.N,/CPU/COM_GPS_TX*%
X176879500Y-96526500D03*
%TO.P,U28,4,GND*%
%TO.N,GND*%
X177529500Y-96526500D03*
%TO.P,U28,5*%
%TO.N,/UARTS/UART3_RX*%
X177529500Y-92226500D03*
%TO.P,U28,6*%
%TO.N,/UARTS/UART3_TX*%
X176879500Y-92226500D03*
%TO.P,U28,7*%
%TO.N,GND*%
X176229500Y-92226500D03*
%TO.P,U28,8,VCC*%
%TO.N,+3.3V*%
X175579500Y-92226500D03*
%TD*%
D16*
%TO.P,R11,1*%
%TO.N,Net-(J4-Pin_1)*%
X141239500Y-129349000D03*
%TO.P,R11,2*%
%TO.N,Net-(U4-CH1)*%
X141239500Y-127349000D03*
%TD*%
D41*
%TO.P,C20,1*%
%TO.N,+5V*%
X113402000Y-106956000D03*
%TO.P,C20,2*%
%TO.N,GND*%
X115477000Y-106956000D03*
%TD*%
D27*
%TO.P,R27,1*%
%TO.N,+3.3V_PWR*%
X96837000Y-108791000D03*
%TO.P,R27,2*%
%TO.N,Net-(D6-A)*%
X94837000Y-108791000D03*
%TD*%
D46*
%TO.P,X1,1,EN*%
%TO.N,Net-(JP1-A)*%
X129272000Y-94256000D03*
%TO.P,X1,2,GND*%
%TO.N,GND*%
X127172000Y-94256000D03*
%TO.P,X1,3,OUT*%
%TO.N,/CPU/CLK_IN_16Mhz*%
X127172000Y-95906000D03*
%TO.P,X1,4,Vdd*%
%TO.N,+3.3V*%
X129272000Y-95906000D03*
%TD*%
D18*
%TO.P,U29,1,CH1*%
%TO.N,/UARTS/UART2_TX*%
X183173000Y-81856500D03*
%TO.P,U29,2,VN*%
%TO.N,GND*%
X183173000Y-80906500D03*
%TO.P,U29,3,CH2*%
%TO.N,/UARTS/UART2_RX*%
X183173000Y-79956500D03*
%TO.P,U29,4,CH3*%
%TO.N,unconnected-(U29-CH3-Pad4)*%
X180573000Y-79956500D03*
%TO.P,U29,5,VP*%
%TO.N,+3.3V*%
X180573000Y-80906500D03*
%TO.P,U29,6,CH4*%
%TO.N,unconnected-(U29-CH4-Pad6)*%
X180573000Y-81856500D03*
%TD*%
D15*
%TO.P,R3,1*%
%TO.N,Net-(J1-CC2)*%
X98162000Y-98891500D03*
%TO.P,R3,2*%
%TO.N,GND*%
X100162000Y-98891500D03*
%TD*%
D41*
%TO.P,C13,1*%
%TO.N,VBUS*%
X98162000Y-101939500D03*
%TO.P,C13,2*%
%TO.N,GND*%
X100237000Y-101939500D03*
%TD*%
D21*
%TO.P,C35,1*%
%TO.N,+3.3V*%
X118990000Y-78486500D03*
%TO.P,C35,2*%
%TO.N,GND*%
X118990000Y-80561500D03*
%TD*%
D11*
%TO.P,J10,1,Pin_1*%
%TO.N,Net-(J10-Pin_1)*%
X121062000Y-65364000D03*
%TO.P,J10,2,Pin_2*%
%TO.N,Net-(J10-Pin_2)*%
X119062000Y-65364000D03*
%TO.P,J10,3,Pin_3*%
%TO.N,+3.3V_PWR*%
X117062000Y-65364000D03*
%TO.P,J10,4,Pin_4*%
%TO.N,GND*%
X115062000Y-65364000D03*
D12*
%TO.P,J10,SH1*%
%TO.N,N/C*%
X123362000Y-57864000D03*
%TO.P,J10,SH2*%
X112762000Y-57864000D03*
%TD*%
D20*
%TO.P,U26,1*%
%TO.N,GND*%
X175507000Y-83086500D03*
%TO.P,U26,2*%
%TO.N,/CPU/COM_LIDAR2_TX*%
X176157000Y-83086500D03*
%TO.P,U26,3*%
%TO.N,/CPU/COM_LIDAR2_RX*%
X176807000Y-83086500D03*
%TO.P,U26,4,GND*%
%TO.N,GND*%
X177457000Y-83086500D03*
%TO.P,U26,5*%
%TO.N,/UARTS/UART2_RX*%
X177457000Y-78786500D03*
%TO.P,U26,6*%
%TO.N,/UARTS/UART2_TX*%
X176807000Y-78786500D03*
%TO.P,U26,7*%
%TO.N,GND*%
X176157000Y-78786500D03*
%TO.P,U26,8,VCC*%
%TO.N,+3.3V*%
X175507000Y-78786500D03*
%TD*%
D16*
%TO.P,R59,1*%
%TO.N,+3.3V*%
X134254500Y-72834000D03*
%TO.P,R59,2*%
%TO.N,Net-(J12-Pin_1)*%
X134254500Y-70834000D03*
%TD*%
D41*
%TO.P,C21,1*%
%TO.N,+3.3V_PWR*%
X117974000Y-106956000D03*
%TO.P,C21,2*%
%TO.N,GND*%
X120049000Y-106956000D03*
%TD*%
D47*
%TO.P,U3,1,IN*%
%TO.N,VBUS*%
X102734000Y-110258000D03*
%TO.P,U3,2,GND*%
%TO.N,GND*%
X102734000Y-112558000D03*
D48*
X109034000Y-112558000D03*
D47*
%TO.P,U3,3,OUT*%
%TO.N,+3.3V*%
X102734000Y-114858000D03*
%TD*%
D11*
%TO.P,J25,1,Pin_1*%
%TO.N,Net-(J25-Pin_1)*%
X189324500Y-65364000D03*
%TO.P,J25,2,Pin_2*%
%TO.N,Net-(J25-Pin_2)*%
X187324500Y-65364000D03*
%TO.P,J25,3,Pin_3*%
%TO.N,+5V*%
X185324500Y-65364000D03*
%TO.P,J25,4,Pin_4*%
%TO.N,GND*%
X183324500Y-65364000D03*
D12*
%TO.P,J25,SH1*%
%TO.N,N/C*%
X191624500Y-57864000D03*
%TO.P,J25,SH2*%
X181024500Y-57864000D03*
%TD*%
D15*
%TO.P,R76,1*%
%TO.N,+3.3V*%
X133207000Y-78091500D03*
%TO.P,R76,2*%
%TO.N,/CPU/I2C_SCL_EXTERNAL*%
X135207000Y-78091500D03*
%TD*%
D41*
%TO.P,C10,1*%
%TO.N,+3.3V*%
X133468000Y-87398000D03*
%TO.P,C10,2*%
%TO.N,GND*%
X135543000Y-87398000D03*
%TD*%
D18*
%TO.P,U24,1,CH1*%
%TO.N,/CPU/IO1*%
X177404500Y-122319000D03*
%TO.P,U24,2,VN*%
%TO.N,GND*%
X177404500Y-123269000D03*
%TO.P,U24,3,CH2*%
%TO.N,/CPU/IO2*%
X177404500Y-124219000D03*
%TO.P,U24,4,CH3*%
%TO.N,/CPU/IO3*%
X180004500Y-124219000D03*
%TO.P,U24,5,VP*%
%TO.N,+3.3V*%
X180004500Y-123269000D03*
%TO.P,U24,6,CH4*%
%TO.N,/CPU/IO4*%
X180004500Y-122319000D03*
%TD*%
D21*
%TO.P,C44,1*%
%TO.N,+3.3V*%
X172672000Y-93339000D03*
%TO.P,C44,2*%
%TO.N,GND*%
X172672000Y-95414000D03*
%TD*%
D27*
%TO.P,R15,1*%
%TO.N,Net-(U5-B1Y)*%
X126976000Y-131246500D03*
%TO.P,R15,2*%
%TO.N,Net-(J8-Pad01)*%
X124976000Y-131246500D03*
%TD*%
D21*
%TO.P,C31,1*%
%TO.N,+3.3V*%
X161787000Y-95504500D03*
%TO.P,C31,2*%
%TO.N,GND*%
X161787000Y-97579500D03*
%TD*%
D30*
%TO.P,R54,1*%
%TO.N,+3.3V*%
X165726000Y-71158000D03*
%TO.P,R54,2*%
%TO.N,/CPU/I2C_SCL_ARBITRARY*%
X165726000Y-73158000D03*
%TD*%
D27*
%TO.P,R23,1*%
%TO.N,Net-(U9-B1Y)*%
X112696500Y-131191000D03*
%TO.P,R23,2*%
%TO.N,Net-(U10-CH1)*%
X110696500Y-131191000D03*
%TD*%
%TO.P,R5,1*%
%TO.N,/Power & Analog/USB-DN*%
X114148000Y-98383500D03*
%TO.P,R5,2*%
%TO.N,/Power & Analog/USB2-DN*%
X112148000Y-98383500D03*
%TD*%
D15*
%TO.P,R45,1*%
%TO.N,/UARTS/UART3_TX*%
X185642000Y-95900500D03*
%TO.P,R45,2*%
%TO.N,Net-(J27-Pin_2)*%
X187642000Y-95900500D03*
%TD*%
D16*
%TO.P,R29,1*%
%TO.N,+3.3V*%
X167272500Y-86350000D03*
%TO.P,R29,2*%
%TO.N,/CPU/I2C_SDA_INT*%
X167272500Y-84350000D03*
%TD*%
D15*
%TO.P,R34,1*%
%TO.N,/UARTS/UART2_RX*%
X185642000Y-79644500D03*
%TO.P,R34,2*%
%TO.N,Net-(J19-Pin_1)*%
X187642000Y-79644500D03*
%TD*%
D49*
%TO.P,U2,1,~{DTR}*%
%TO.N,unconnected-(U2-~{DTR}-Pad1)*%
X104138000Y-93430500D03*
%TO.P,U2,2,~{RTS}*%
%TO.N,unconnected-(U2-~{RTS}-Pad2)*%
X104138000Y-94065500D03*
%TO.P,U2,3,VCCIO*%
%TO.N,Net-(U2-3V3OUT)*%
X104138000Y-94700500D03*
%TO.P,U2,4,RXD*%
%TO.N,/CPU/COM_USB_RX*%
X104138000Y-95335500D03*
%TO.P,U2,5,~{RI}*%
%TO.N,unconnected-(U2-~{RI}-Pad5)*%
X104138000Y-95970500D03*
%TO.P,U2,6,GND*%
%TO.N,GND*%
X104138000Y-96605500D03*
%TO.P,U2,7,~{DSR}*%
%TO.N,unconnected-(U2-~{DSR}-Pad7)*%
X104138000Y-97240500D03*
%TO.P,U2,8,~{DCD}*%
%TO.N,unconnected-(U2-~{DCD}-Pad8)*%
X104138000Y-97875500D03*
%TO.P,U2,9,~{CTS}*%
%TO.N,unconnected-(U2-~{CTS}-Pad9)*%
X104138000Y-98510500D03*
%TO.P,U2,10,CBUS2*%
%TO.N,Net-(D2-K)*%
X104138000Y-99145500D03*
%TO.P,U2,11,USBDP*%
%TO.N,/Power & Analog/USB2-DP*%
X109338000Y-99145500D03*
%TO.P,U2,12,USBDM*%
%TO.N,/Power & Analog/USB2-DN*%
X109338000Y-98510500D03*
%TO.P,U2,13,3V3OUT*%
%TO.N,Net-(U2-3V3OUT)*%
X109338000Y-97875500D03*
%TO.P,U2,14,~{RESET}*%
X109338000Y-97240500D03*
%TO.P,U2,15,VCC*%
%TO.N,/Power & Analog/FT231_VCC*%
X109338000Y-96605500D03*
%TO.P,U2,16,GND*%
%TO.N,GND*%
X109338000Y-95970500D03*
%TO.P,U2,17,CBUS1*%
%TO.N,Net-(D1-K)*%
X109338000Y-95335500D03*
%TO.P,U2,18,CBUS0*%
%TO.N,unconnected-(U2-CBUS0-Pad18)*%
X109338000Y-94700500D03*
%TO.P,U2,19,CBUS3*%
%TO.N,unconnected-(U2-CBUS3-Pad19)*%
X109338000Y-94065500D03*
%TO.P,U2,20,TXD*%
%TO.N,/CPU/COM_USB_TX*%
X109338000Y-93430500D03*
%TD*%
D41*
%TO.P,C30,1*%
%TO.N,+3.3V*%
X164649500Y-104775000D03*
%TO.P,C30,2*%
%TO.N,GND*%
X166724500Y-104775000D03*
%TD*%
%TO.P,C14,1*%
%TO.N,/Power & Analog/USB-DP*%
X116704000Y-100923500D03*
%TO.P,C14,2*%
%TO.N,GND*%
X118779000Y-100923500D03*
%TD*%
D15*
%TO.P,R2,1*%
%TO.N,/CPU/GNDDetect*%
X94837000Y-77549000D03*
%TO.P,R2,2*%
%TO.N,GND*%
X96837000Y-77549000D03*
%TD*%
D27*
%TO.P,R9,1*%
%TO.N,+5V*%
X96837000Y-111839000D03*
%TO.P,R9,2*%
%TO.N,Net-(D4-A)*%
X94837000Y-111839000D03*
%TD*%
D50*
%TO.P,U35,1,VCCA*%
%TO.N,+3.3V*%
X172249500Y-71254000D03*
%TO.P,U35,2,SCLA*%
%TO.N,/CPU/I2C_SCL_ARBITRARY*%
X172249500Y-71904000D03*
%TO.P,U35,3,SDAA*%
%TO.N,/CPU/I2C_SDA_ARBITRARY*%
X172249500Y-72554000D03*
%TO.P,U35,4,GND*%
%TO.N,GND*%
X172249500Y-73204000D03*
%TO.P,U35,5,EN*%
%TO.N,+3.3V*%
X176474500Y-73204000D03*
%TO.P,U35,6,SDAB*%
%TO.N,Net-(J23-Pin_2)*%
X176474500Y-72554000D03*
%TO.P,U35,7,SCLB*%
%TO.N,Net-(J23-Pin_1)*%
X176474500Y-71904000D03*
%TO.P,U35,8,VCCB*%
%TO.N,+3.3V*%
X176474500Y-71254000D03*
%TD*%
D16*
%TO.P,R56,1*%
%TO.N,+3.3V*%
X119332000Y-72834000D03*
%TO.P,R56,2*%
%TO.N,Net-(J10-Pin_2)*%
X119332000Y-70834000D03*
%TD*%
D51*
%TO.P,U14,1,Vdd_IO*%
%TO.N,+3.3V*%
X164826500Y-91211500D03*
%TO.P,U14,2,SCL*%
%TO.N,/CPU/I2C_SCL_INT*%
X164826500Y-91711500D03*
D52*
%TO.P,U14,3,GND*%
%TO.N,GND*%
X165089000Y-92224000D03*
%TO.P,U14,4,SDA*%
%TO.N,/CPU/I2C_SDA_INT*%
X165589000Y-92224000D03*
%TO.P,U14,5,SA0*%
%TO.N,unconnected-(U14-SA0-Pad5)*%
X166089000Y-92224000D03*
D51*
%TO.P,U14,6,~{CS}*%
%TO.N,+3.3V*%
X166351500Y-91711500D03*
%TO.P,U14,7,INT_DRDY*%
%TO.N,/CPU/INT_PRESSURE*%
X166351500Y-91211500D03*
D52*
%TO.P,U14,8,GND_IO*%
%TO.N,GND*%
X166089000Y-90699000D03*
%TO.P,U14,9,GND*%
X165589000Y-90699000D03*
%TO.P,U14,10,VDD*%
%TO.N,+3.3V*%
X165089000Y-90699000D03*
%TD*%
D21*
%TO.P,C43,1*%
%TO.N,+3.3V*%
X172672000Y-79686500D03*
%TO.P,C43,2*%
%TO.N,GND*%
X172672000Y-81761500D03*
%TD*%
%TO.P,C42,1*%
%TO.N,+3.3V*%
X172672000Y-86989000D03*
%TO.P,C42,2*%
%TO.N,GND*%
X172672000Y-89064000D03*
%TD*%
D16*
%TO.P,R65,1*%
%TO.N,+3.3V*%
X147272000Y-72834000D03*
%TO.P,R65,2*%
%TO.N,Net-(J14-Pin_1)*%
X147272000Y-70834000D03*
%TD*%
D28*
%TO.P,D5,1,K*%
%TO.N,GND*%
X90454500Y-114887000D03*
%TO.P,D5,2,A*%
%TO.N,Net-(D5-A)*%
X92329500Y-114887000D03*
%TD*%
D11*
%TO.P,J12,1,Pin_1*%
%TO.N,Net-(J12-Pin_1)*%
X134079500Y-65364000D03*
%TO.P,J12,2,Pin_2*%
%TO.N,Net-(J12-Pin_2)*%
X132079500Y-65364000D03*
%TO.P,J12,3,Pin_3*%
%TO.N,+3.3V_PWR*%
X130079500Y-65364000D03*
%TO.P,J12,4,Pin_4*%
%TO.N,GND*%
X128079500Y-65364000D03*
D12*
%TO.P,J12,SH1*%
%TO.N,N/C*%
X136379500Y-57864000D03*
%TO.P,J12,SH2*%
X125779500Y-57864000D03*
%TD*%
D53*
%TO.P,U9,1,VCCA*%
%TO.N,+3.3V*%
X113652500Y-120605000D03*
%TO.P,U9,2,A1*%
%TO.N,/CPU/MOT_PWM1*%
X113652500Y-121255000D03*
%TO.P,U9,3,A2*%
%TO.N,/CPU/MOT_PWM2*%
X113652500Y-121905000D03*
%TO.P,U9,4,A3*%
%TO.N,/CPU/MOT_PWM3*%
X113652500Y-122555000D03*
%TO.P,U9,5,A4*%
%TO.N,/CPU/MOT_PWM4*%
X113652500Y-123205000D03*
%TO.P,U9,6,NC*%
%TO.N,unconnected-(U9-NC-Pad6)*%
X113652500Y-123855000D03*
%TO.P,U9,7,GND*%
%TO.N,GND*%
X113652500Y-124505000D03*
%TO.P,U9,8,OE*%
%TO.N,+3.3V*%
X119392500Y-124505000D03*
%TO.P,U9,9,NC*%
%TO.N,unconnected-(U9-NC-Pad9)*%
X119392500Y-123855000D03*
%TO.P,U9,10,B4Y*%
%TO.N,Net-(U9-B4Y)*%
X119392500Y-123205000D03*
%TO.P,U9,11,B3Y*%
%TO.N,Net-(U9-B3Y)*%
X119392500Y-122555000D03*
%TO.P,U9,12,B2Y*%
%TO.N,Net-(U9-B2Y)*%
X119392500Y-121905000D03*
%TO.P,U9,13,B1Y*%
%TO.N,Net-(U9-B1Y)*%
X119392500Y-121255000D03*
%TO.P,U9,14,VCCB*%
%TO.N,+5V*%
X119392500Y-120605000D03*
%TD*%
D54*
%TO.P,C1,1*%
%TO.N,+3.3V*%
X132032000Y-94461500D03*
%TO.P,C1,2*%
%TO.N,GND*%
X132032000Y-92386500D03*
%TD*%
D36*
%TO.P,J9,01,01*%
%TO.N,Net-(U10-CH1)*%
X111760000Y-140208000D03*
D37*
%TO.P,J9,02,02*%
%TO.N,+5V*%
X111760000Y-137668000D03*
%TO.P,J9,03,03*%
%TO.N,GND*%
X111760000Y-135128000D03*
%TO.P,J9,04,04*%
%TO.N,Net-(U10-CH2)*%
X114300000Y-140208000D03*
%TO.P,J9,05,05*%
%TO.N,+5V*%
X114300000Y-137668000D03*
%TO.P,J9,06,06*%
%TO.N,GND*%
X114300000Y-135128000D03*
%TO.P,J9,07,07*%
%TO.N,Net-(U10-CH3)*%
X116840000Y-140208000D03*
%TO.P,J9,08,08*%
%TO.N,+5V*%
X116840000Y-137668000D03*
%TO.P,J9,09,09*%
%TO.N,GND*%
X116840000Y-135128000D03*
%TO.P,J9,10,10*%
%TO.N,Net-(U10-CH4)*%
X119380000Y-140208000D03*
%TO.P,J9,11,11*%
%TO.N,+5V*%
X119380000Y-137668000D03*
%TO.P,J9,12,12*%
%TO.N,GND*%
X119380000Y-135128000D03*
%TD*%
D11*
%TO.P,J23,1,Pin_1*%
%TO.N,Net-(J23-Pin_1)*%
X174719500Y-65364000D03*
%TO.P,J23,2,Pin_2*%
%TO.N,Net-(J23-Pin_2)*%
X172719500Y-65364000D03*
%TO.P,J23,3,Pin_3*%
%TO.N,+3.3V_PWR*%
X170719500Y-65364000D03*
%TO.P,J23,4,Pin_4*%
%TO.N,GND*%
X168719500Y-65364000D03*
D12*
%TO.P,J23,SH1*%
%TO.N,N/C*%
X177019500Y-57864000D03*
%TO.P,J23,SH2*%
X166419500Y-57864000D03*
%TD*%
D18*
%TO.P,U8,1,CH1*%
%TO.N,Net-(U11-1A)*%
X154296000Y-122958000D03*
%TO.P,U8,2,VN*%
%TO.N,GND*%
X154296000Y-123908000D03*
%TO.P,U8,3,CH2*%
%TO.N,Net-(U11-2A)*%
X154296000Y-124858000D03*
%TO.P,U8,4,CH3*%
%TO.N,Net-(U11-3A)*%
X156896000Y-124858000D03*
%TO.P,U8,5,VP*%
%TO.N,+3.3V*%
X156896000Y-123908000D03*
%TO.P,U8,6,CH4*%
%TO.N,Net-(U11-4A)*%
X156896000Y-122958000D03*
%TD*%
%TO.P,U4,1,CH1*%
%TO.N,Net-(U4-CH1)*%
X141536000Y-122958000D03*
%TO.P,U4,2,VN*%
%TO.N,GND*%
X141536000Y-123908000D03*
%TO.P,U4,3,CH2*%
%TO.N,Net-(U4-CH2)*%
X141536000Y-124858000D03*
%TO.P,U4,4,CH3*%
%TO.N,Net-(U4-CH3)*%
X144136000Y-124858000D03*
%TO.P,U4,5,VP*%
%TO.N,+3.3V*%
X144136000Y-123908000D03*
%TO.P,U4,6,CH4*%
%TO.N,Net-(U4-CH4)*%
X144136000Y-122958000D03*
%TD*%
D11*
%TO.P,J16,1,Pin_1*%
%TO.N,Net-(J16-Pin_1)*%
X160094500Y-65364000D03*
%TO.P,J16,2,Pin_2*%
%TO.N,Net-(J16-Pin_2)*%
X158094500Y-65364000D03*
%TO.P,J16,3,Pin_3*%
%TO.N,+3.3V_PWR*%
X156094500Y-65364000D03*
%TO.P,J16,4,Pin_4*%
%TO.N,GND*%
X154094500Y-65364000D03*
D12*
%TO.P,J16,SH1*%
%TO.N,N/C*%
X162394500Y-57864000D03*
%TO.P,J16,SH2*%
X151794500Y-57864000D03*
%TD*%
D27*
%TO.P,R73,1*%
%TO.N,+3.3V*%
X176847000Y-68659000D03*
%TO.P,R73,2*%
%TO.N,Net-(J23-Pin_1)*%
X174847000Y-68659000D03*
%TD*%
D55*
%TO.P,JP1,1,A*%
%TO.N,Net-(JP1-A)*%
X129120000Y-99082000D03*
D56*
%TO.P,JP1,2,B*%
%TO.N,+3.3V*%
X130420000Y-99082000D03*
%TD*%
D15*
%TO.P,R32,1*%
%TO.N,/UARTS/UART1_RX*%
X185642000Y-86375500D03*
%TO.P,R32,2*%
%TO.N,Net-(J18-Pin_1)*%
X187642000Y-86375500D03*
%TD*%
D16*
%TO.P,R20,1*%
%TO.N,Net-(J6-Pin_2)*%
X156479500Y-129349000D03*
%TO.P,R20,2*%
%TO.N,Net-(U11-2A)*%
X156479500Y-127349000D03*
%TD*%
D19*
%TO.P,C34,1*%
%TO.N,+3.3V*%
X91477000Y-86439000D03*
%TO.P,C34,2*%
%TO.N,GND*%
X89402000Y-86439000D03*
%TD*%
D40*
%TO.P,SW2,1,1*%
%TO.N,GND*%
X203502000Y-126041500D03*
X203502000Y-131291500D03*
%TO.P,SW2,2,2*%
%TO.N,Net-(R72-Pad2)*%
X201802000Y-126041500D03*
X201802000Y-131291500D03*
%TD*%
D42*
%TO.P,U17,1,A0*%
%TO.N,+3.3V*%
X144005000Y-82386500D03*
%TO.P,U17,2,A1*%
%TO.N,GND*%
X144655000Y-82386500D03*
%TO.P,U17,3,A2*%
X145305000Y-82386500D03*
%TO.P,U17,4,~{INT0}*%
%TO.N,unconnected-(U17-~{INT0}-Pad4)*%
X145955000Y-82386500D03*
%TO.P,U17,5,SD0*%
%TO.N,Net-(J14-Pin_2)*%
X146605000Y-82386500D03*
%TO.P,U17,6,SC0*%
%TO.N,Net-(J14-Pin_1)*%
X147255000Y-82386500D03*
%TO.P,U17,7,~{INT1}*%
%TO.N,unconnected-(U17-~{INT1}-Pad7)*%
X147905000Y-82386500D03*
%TO.P,U17,8,SD1*%
%TO.N,Net-(J16-Pin_2)*%
X148555000Y-82386500D03*
%TO.P,U17,9,SC1*%
%TO.N,Net-(J16-Pin_1)*%
X149205000Y-82386500D03*
%TO.P,U17,10,VSS*%
%TO.N,GND*%
X149855000Y-82386500D03*
%TO.P,U17,11,~{INT2}*%
%TO.N,unconnected-(U17-~{INT2}-Pad11)*%
X149855000Y-76661500D03*
%TO.P,U17,12,SD2*%
%TO.N,Net-(J15-Pin_2)*%
X149205000Y-76661500D03*
%TO.P,U17,13,SC2*%
%TO.N,Net-(J15-Pin_1)*%
X148555000Y-76661500D03*
%TO.P,U17,14,~{INT3}*%
%TO.N,unconnected-(U17-~{INT3}-Pad14)*%
X147905000Y-76661500D03*
%TO.P,U17,15,SD3*%
%TO.N,Net-(J17-Pin_2)*%
X147255000Y-76661500D03*
%TO.P,U17,16,SC3*%
%TO.N,Net-(J17-Pin_1)*%
X146605000Y-76661500D03*
%TO.P,U17,17,~{INT}*%
%TO.N,unconnected-(U17-~{INT}-Pad17)*%
X145955000Y-76661500D03*
%TO.P,U17,18,SCL*%
%TO.N,/CPU/I2C_SCL_EXTERNAL*%
X145305000Y-76661500D03*
%TO.P,U17,19,SDA*%
%TO.N,/CPU/I2C_SDA_EXTERNAL*%
X144655000Y-76661500D03*
%TO.P,U17,20,VDD*%
%TO.N,+3.3V*%
X144005000Y-76661500D03*
%TD*%
D15*
%TO.P,R35,1*%
%TO.N,Net-(J25-Pin_2)*%
X187277000Y-68659000D03*
%TO.P,R35,2*%
%TO.N,Net-(J25-Pin_1)*%
X189277000Y-68659000D03*
%TD*%
D27*
%TO.P,R18,1*%
%TO.N,Net-(U5-B4Y)*%
X131040000Y-128452500D03*
%TO.P,R18,2*%
%TO.N,Net-(J8-Pad10)*%
X129040000Y-128452500D03*
%TD*%
D15*
%TO.P,R7,1*%
%TO.N,Net-(U2-3V3OUT)*%
X112148000Y-93303500D03*
%TO.P,R7,2*%
%TO.N,Net-(D1-A)*%
X114148000Y-93303500D03*
%TD*%
D30*
%TO.P,R43,1*%
%TO.N,/CPU/IO4*%
X182197000Y-127349000D03*
%TO.P,R43,2*%
%TO.N,/GPIO SPI GEN_PWM/IO4*%
X182197000Y-129349000D03*
%TD*%
D54*
%TO.P,C37,1*%
%TO.N,+3.3V*%
X180712000Y-73957500D03*
%TO.P,C37,2*%
%TO.N,GND*%
X180712000Y-71882500D03*
%TD*%
D41*
%TO.P,C15,1*%
%TO.N,/Power & Analog/USB-DN*%
X116704000Y-98383500D03*
%TO.P,C15,2*%
%TO.N,GND*%
X118779000Y-98383500D03*
%TD*%
D16*
%TO.P,R67,1*%
%TO.N,+3.3V*%
X160289500Y-72834000D03*
%TO.P,R67,2*%
%TO.N,Net-(J16-Pin_1)*%
X160289500Y-70834000D03*
%TD*%
D18*
%TO.P,U7,1,CH1*%
%TO.N,Net-(U5-B1Y)*%
X133206000Y-128474500D03*
%TO.P,U7,2,VN*%
%TO.N,GND*%
X133206000Y-129424500D03*
%TO.P,U7,3,CH2*%
%TO.N,Net-(U5-B2Y)*%
X133206000Y-130374500D03*
%TO.P,U7,4,CH3*%
%TO.N,Net-(U5-B3Y)*%
X135806000Y-130374500D03*
%TO.P,U7,5,VP*%
%TO.N,+5V*%
X135806000Y-129424500D03*
%TO.P,U7,6,CH4*%
%TO.N,Net-(U5-B4Y)*%
X135806000Y-128474500D03*
%TD*%
D41*
%TO.P,C9,1*%
%TO.N,+3.3V*%
X133446500Y-84604000D03*
%TO.P,C9,2*%
%TO.N,GND*%
X135521500Y-84604000D03*
%TD*%
D27*
%TO.P,R26,1*%
%TO.N,Net-(U9-B4Y)*%
X116760500Y-128397000D03*
%TO.P,R26,2*%
%TO.N,Net-(U10-CH4)*%
X114760500Y-128397000D03*
%TD*%
D16*
%TO.P,R58,1*%
%TO.N,+3.3V*%
X132349500Y-72834000D03*
%TO.P,R58,2*%
%TO.N,Net-(J12-Pin_2)*%
X132349500Y-70834000D03*
%TD*%
D53*
%TO.P,U5,1,VCCA*%
%TO.N,+3.3V*%
X128186000Y-120660500D03*
%TO.P,U5,2,A1*%
%TO.N,/CPU/SERVO_PWM1*%
X128186000Y-121310500D03*
%TO.P,U5,3,A2*%
%TO.N,/CPU/SERVO_PWM2N*%
X128186000Y-121960500D03*
%TO.P,U5,4,A3*%
%TO.N,/CPU/SERVO_PWM3*%
X128186000Y-122610500D03*
%TO.P,U5,5,A4*%
%TO.N,/CPU/SERVO_PWM4*%
X128186000Y-123260500D03*
%TO.P,U5,6,NC*%
%TO.N,unconnected-(U5-NC-Pad6)*%
X128186000Y-123910500D03*
%TO.P,U5,7,GND*%
%TO.N,GND*%
X128186000Y-124560500D03*
%TO.P,U5,8,OE*%
%TO.N,+3.3V*%
X133926000Y-124560500D03*
%TO.P,U5,9,NC*%
%TO.N,unconnected-(U5-NC-Pad9)*%
X133926000Y-123910500D03*
%TO.P,U5,10,B4Y*%
%TO.N,Net-(U5-B4Y)*%
X133926000Y-123260500D03*
%TO.P,U5,11,B3Y*%
%TO.N,Net-(U5-B3Y)*%
X133926000Y-122610500D03*
%TO.P,U5,12,B2Y*%
%TO.N,Net-(U5-B2Y)*%
X133926000Y-121960500D03*
%TO.P,U5,13,B1Y*%
%TO.N,Net-(U5-B1Y)*%
X133926000Y-121310500D03*
%TO.P,U5,14,VCCB*%
%TO.N,+5V*%
X133926000Y-120660500D03*
%TD*%
D27*
%TO.P,R28,1*%
%TO.N,/CPU/LED_ACTIVITY*%
X96837000Y-105806500D03*
%TO.P,R28,2*%
%TO.N,Net-(D7-A)*%
X94837000Y-105806500D03*
%TD*%
D47*
%TO.P,U16,1,IN*%
%TO.N,+5V*%
X113402000Y-110222000D03*
%TO.P,U16,2,GND*%
%TO.N,GND*%
X113402000Y-112522000D03*
D48*
X119702000Y-112522000D03*
D47*
%TO.P,U16,3,OUT*%
%TO.N,+3.3V_PWR*%
X113402000Y-114822000D03*
%TD*%
D30*
%TO.P,R40,1*%
%TO.N,/CPU/IO1*%
X169497000Y-127349000D03*
%TO.P,R40,2*%
%TO.N,/GPIO SPI GEN_PWM/IO1*%
X169497000Y-129349000D03*
%TD*%
D41*
%TO.P,C19,1*%
%TO.N,+3.3V*%
X107306000Y-106956000D03*
%TO.P,C19,2*%
%TO.N,GND*%
X109381000Y-106956000D03*
%TD*%
D57*
%TO.P,U13,1,SCL/SPC*%
%TO.N,/CPU/I2C_SCL_INT*%
X164835000Y-100614000D03*
%TO.P,U13,2,NC*%
%TO.N,unconnected-(U13-NC-Pad2)*%
X164835000Y-101114000D03*
%TO.P,U13,3,~{CS}*%
%TO.N,+3.3V*%
X164835000Y-101614000D03*
%TO.P,U13,4,SDA/SDI/SDO*%
%TO.N,/CPU/I2C_SDA_INT*%
X164835000Y-102114000D03*
D58*
%TO.P,U13,5,C1*%
%TO.N,unconnected-(U13-C1-Pad5)*%
X165347500Y-102126500D03*
%TO.P,U13,6,GND*%
%TO.N,GND*%
X165847500Y-102126500D03*
D57*
%TO.P,U13,7,DRDY*%
%TO.N,/CPU/INT_MAGNETO*%
X166360000Y-102114000D03*
%TO.P,U13,8,GND*%
%TO.N,GND*%
X166360000Y-101614000D03*
%TO.P,U13,9,Vdd*%
%TO.N,+3.3V*%
X166360000Y-101114000D03*
%TO.P,U13,10,Vdd_IO*%
X166360000Y-100614000D03*
D58*
%TO.P,U13,11,NC*%
%TO.N,unconnected-(U13-NC-Pad11)*%
X165847500Y-100601500D03*
%TO.P,U13,12,NC*%
%TO.N,unconnected-(U13-NC-Pad12)*%
X165347500Y-100601500D03*
%TD*%
D27*
%TO.P,R36,1*%
%TO.N,/GPIO SPI GEN_PWM/AN1*%
X190817000Y-108664000D03*
%TO.P,R36,2*%
%TO.N,/CPU/ADC_AN1*%
X188817000Y-108664000D03*
%TD*%
D15*
%TO.P,R72,1*%
%TO.N,/CPU/NRST*%
X197389500Y-131206500D03*
%TO.P,R72,2*%
%TO.N,Net-(R72-Pad2)*%
X199389500Y-131206500D03*
%TD*%
D27*
%TO.P,R25,1*%
%TO.N,Net-(U9-B3Y)*%
X116760500Y-131191000D03*
%TO.P,R25,2*%
%TO.N,Net-(U10-CH3)*%
X114760500Y-131191000D03*
%TD*%
D59*
%TO.P,J1,A1,GND*%
%TO.N,GND*%
X94730000Y-93405500D03*
%TO.P,J1,A4,VBUS*%
%TO.N,VBUS*%
X94730000Y-94205500D03*
D60*
%TO.P,J1,A5,CC1*%
%TO.N,Net-(J1-CC1)*%
X94730000Y-95355500D03*
%TO.P,J1,A6,D+*%
%TO.N,/Power & Analog/USB-DP*%
X94730000Y-96355500D03*
%TO.P,J1,A7,D-*%
%TO.N,/Power & Analog/USB-DN*%
X94730000Y-96855500D03*
%TO.P,J1,A8*%
%TO.N,N/C*%
X94730000Y-97855500D03*
D59*
%TO.P,J1,A9,VBUS*%
%TO.N,VBUS*%
X94730000Y-99005500D03*
%TO.P,J1,A12,GND*%
%TO.N,GND*%
X94730000Y-99805500D03*
%TO.P,J1,B1,GND*%
X94730000Y-99805500D03*
%TO.P,J1,B4,VBUS*%
%TO.N,VBUS*%
X94730000Y-99005500D03*
D60*
%TO.P,J1,B5,CC2*%
%TO.N,Net-(J1-CC2)*%
X94730000Y-98355500D03*
%TO.P,J1,B6,D+*%
%TO.N,/Power & Analog/USB-DP*%
X94730000Y-97355500D03*
%TO.P,J1,B7,D-*%
%TO.N,/Power & Analog/USB-DN*%
X94730000Y-95855500D03*
%TO.P,J1,B8*%
%TO.N,N/C*%
X94730000Y-94855500D03*
D59*
%TO.P,J1,B9,VBUS*%
%TO.N,VBUS*%
X94730000Y-94205500D03*
%TO.P,J1,B12,GND*%
%TO.N,GND*%
X94730000Y-93405500D03*
D61*
%TO.P,J1,S1,SHIELD*%
X94155000Y-92285500D03*
D62*
X89975000Y-92285500D03*
D61*
X94155000Y-100925500D03*
D62*
X89975000Y-100925500D03*
%TD*%
D55*
%TO.P,JP2,1,A*%
%TO.N,+3.3V*%
X129120000Y-102130000D03*
D56*
%TO.P,JP2,2,B*%
%TO.N,VDDA*%
X130420000Y-102130000D03*
%TD*%
D17*
%TO.P,D2,1,K*%
%TO.N,Net-(D2-K)*%
X118325000Y-95843500D03*
%TO.P,D2,2,A*%
%TO.N,Net-(D2-A)*%
X116450000Y-95843500D03*
%TD*%
D15*
%TO.P,R33,1*%
%TO.N,/UARTS/UART2_TX*%
X185642000Y-82206500D03*
%TO.P,R33,2*%
%TO.N,Net-(J19-Pin_2)*%
X187642000Y-82206500D03*
%TD*%
D27*
%TO.P,R10,1*%
%TO.N,+3.3V*%
X96837000Y-114887000D03*
%TO.P,R10,2*%
%TO.N,Net-(D5-A)*%
X94837000Y-114887000D03*
%TD*%
D63*
%TO.N,/Power & Analog/USB-DP*%
X97107000Y-97551500D03*
X115570000Y-100923500D03*
D64*
%TO.N,+3.3V_PWR*%
X116205000Y-114935000D03*
D63*
X157114500Y-62626500D03*
X171719500Y-62626500D03*
X131079500Y-62626500D03*
X118062000Y-62626500D03*
D64*
X116792000Y-105410000D03*
D63*
X144097000Y-62626500D03*
D65*
X99005000Y-109023000D03*
D63*
%TO.N,Net-(U1-VCAP)*%
X147320000Y-101917500D03*
D65*
%TO.N,VBUS*%
X96520000Y-93345000D03*
X96520000Y-99695000D03*
X101917500Y-103822500D03*
D63*
%TO.N,Net-(U2-3V3OUT)*%
X105727500Y-94297500D03*
X106354500Y-97234000D03*
D65*
%TO.N,+5V*%
X199342000Y-74374000D03*
X135890000Y-120650000D03*
X121285000Y-120650000D03*
X123190000Y-129222500D03*
X99005000Y-112198000D03*
X202517000Y-89296500D03*
X190080000Y-74295000D03*
X185372000Y-61356500D03*
X137160000Y-129540000D03*
X111760000Y-108585000D03*
%TO.N,/Power & Analog/FT231_VCC*%
X101917500Y-93345000D03*
X107648000Y-96980000D03*
D64*
%TO.N,Net-(JP3-A)*%
X109172000Y-122316500D03*
D63*
%TO.N,/CPU/ENCODER_2_PHA*%
X148859500Y-116919000D03*
X148272500Y-120332500D03*
%TO.N,/CPU/COM_GPS_TX*%
X145049500Y-101044000D03*
X153939500Y-105806500D03*
%TO.N,/CPU/COM_LIDAR2_RX*%
X146319500Y-85169000D03*
X153622000Y-80724000D03*
X159654500Y-80089000D03*
X176799500Y-81676500D03*
%TO.N,/CPU/COM_LIDAR1_RX*%
X176799500Y-88661500D03*
X163782000Y-87391500D03*
%TO.N,/CPU/ENCODER_4_PHB*%
X155892500Y-97472500D03*
X156527500Y-118427500D03*
%TO.N,/CPU/SERVO_PWM3*%
X140652500Y-95329000D03*
X137477500Y-108267500D03*
%TO.N,/CPU/ENCODER_2_PHB*%
X148907500Y-118745000D03*
X149542500Y-99695000D03*
%TO.N,Net-(U10-CH2)*%
X119062500Y-131762500D03*
%TO.N,/CPU/ENCODER_3_PHB*%
X142240000Y-96837500D03*
X153705000Y-120015000D03*
%TO.N,/CPU/FDCAN1_TX*%
X183197500Y-70485000D03*
X155892500Y-92710000D03*
X178371500Y-75311000D03*
X157797500Y-77152500D03*
%TO.N,/CPU/COM_GPS_RX*%
X145049500Y-101996500D03*
X153939500Y-106759000D03*
%TO.N,/CPU/ENCODER_4_PHA*%
X156845000Y-120650000D03*
X141927000Y-86360000D03*
%TO.N,Net-(U10-CH1)*%
X119062500Y-126682500D03*
%TO.N,Net-(J10-Pin_1)*%
X118379500Y-68659000D03*
X121237000Y-68659000D03*
%TO.N,Net-(J11-Pin_2)*%
X127269500Y-75009000D03*
%TO.N,/CPU/NRST*%
X195849500Y-131524000D03*
X134302500Y-96520000D03*
X120602000Y-88582500D03*
%TO.N,Net-(J11-Pin_1)*%
X126317000Y-75009000D03*
%TO.N,Net-(J12-Pin_2)*%
X132349500Y-68659000D03*
X125730000Y-80645000D03*
%TO.N,/CPU/SERVO_PWM4*%
X137835272Y-108983044D03*
X140922000Y-94376500D03*
%TO.N,/CPU/JTMS-SWDIO*%
X156527500Y-91122500D03*
X154940000Y-77470000D03*
%TO.N,/CPU/COM_USB_RX*%
X109378750Y-90328750D03*
X140970000Y-92392500D03*
X131500524Y-89782549D03*
X105727500Y-95567500D03*
%TO.N,/CPU/ADC_VBAT*%
X127587000Y-103584000D03*
X143462000Y-102314000D03*
X132984500Y-103901500D03*
X143462000Y-100409000D03*
X119429000Y-102314000D03*
%TO.N,/CPU/ADC_AN2*%
X186642000Y-101361500D03*
%TO.N,Net-(J12-Pin_1)*%
X134254500Y-68659000D03*
X126682500Y-80645000D03*
%TO.N,/CPU/JTCK-SWCLK*%
X154305000Y-76835000D03*
X150495000Y-86995000D03*
%TO.N,/CPU/I2C_SCL_INT*%
X159654500Y-81550000D03*
X140227000Y-85988500D03*
X165710000Y-94274500D03*
X142242387Y-85374887D03*
X101837000Y-87106500D03*
X165009252Y-99731251D03*
X163464500Y-91201500D03*
X165052000Y-82946500D03*
%TO.N,/CPU/FDCAN1_RX*%
X155257500Y-93345000D03*
X158467500Y-76517500D03*
%TO.N,Net-(J13-Pin_1)*%
X128079500Y-68659000D03*
%TO.N,Net-(J13-Pin_2)*%
X130079500Y-68659000D03*
%TO.N,/CPU/COM_LIDAR1_TX*%
X174259500Y-90884000D03*
X162194500Y-87709000D03*
%TO.N,/CPU/ENCODER_1_PHB*%
X141605000Y-120015000D03*
X133350000Y-98107500D03*
%TO.N,/CPU/JTDO-SWO*%
X142641521Y-86719810D03*
X153352500Y-77470000D03*
%TO.N,Net-(J14-Pin_1)*%
X147272000Y-68659000D03*
X147002500Y-80327500D03*
%TO.N,/CPU/ENCODER_1_PHA*%
X141560503Y-118018000D03*
X142327000Y-89852500D03*
%TO.N,/CPU/PWR_CSLEEP*%
X119014500Y-118824000D03*
X134889500Y-115331500D03*
X139017000Y-106441500D03*
X120919500Y-118824000D03*
X132349500Y-115331500D03*
%TO.N,/CPU/COM_USB_TX*%
X140922000Y-93424000D03*
X131437708Y-90580081D03*
%TO.N,/CPU/SERVO_PWM1*%
X129857500Y-120967500D03*
X157127500Y-96837500D03*
D65*
%TO.N,GND*%
X134620000Y-127000000D03*
X127172000Y-92764500D03*
X198389500Y-102631500D03*
X171132500Y-74612500D03*
X150764500Y-105474000D03*
X130444500Y-92789000D03*
X125999500Y-124539000D03*
D64*
X110807500Y-124460000D03*
D65*
X149860000Y-80645000D03*
D63*
X90702000Y-117039500D03*
D65*
X180609500Y-69929000D03*
X176164500Y-77549000D03*
X152717500Y-114300000D03*
D63*
X102822000Y-85486500D03*
D65*
X196484500Y-82311500D03*
X203502000Y-124539000D03*
X158432500Y-115252500D03*
X100237000Y-100409000D03*
D63*
X96408500Y-83346500D03*
D65*
X138795003Y-89852500D03*
X97107000Y-119141500D03*
X140017500Y-123825000D03*
X107489250Y-84629250D03*
X172672000Y-82946500D03*
X167638000Y-89852500D03*
D63*
X115363250Y-62467750D03*
X168719500Y-61356500D03*
D65*
X106314500Y-112558000D03*
D63*
X133778250Y-62467750D03*
D65*
X181952000Y-96386500D03*
X161925000Y-98742500D03*
X93932000Y-121364000D03*
D63*
X141239500Y-62309000D03*
X92344500Y-72469000D03*
D65*
X93932000Y-127079000D03*
X181879500Y-82946500D03*
D63*
X159813250Y-62467750D03*
D65*
X138430000Y-101917500D03*
X143144500Y-137874000D03*
X198072000Y-87074000D03*
X175720000Y-124094500D03*
X128620500Y-106680000D03*
X116474500Y-112522000D03*
X149860000Y-90487500D03*
X152400000Y-123825000D03*
D63*
X128293250Y-62380250D03*
X121078250Y-62467750D03*
X90454500Y-107394000D03*
X174719500Y-61356500D03*
D65*
X172672000Y-96599000D03*
X173624500Y-137874000D03*
X140335000Y-114300000D03*
X167274500Y-99139000D03*
X184737000Y-106124000D03*
X119851500Y-82386500D03*
X137795000Y-94297500D03*
X146050000Y-115252500D03*
X163464500Y-93106500D03*
X147320000Y-100965000D03*
X127635000Y-80645000D03*
X182072000Y-89614000D03*
X172672000Y-90249000D03*
X186642000Y-138191500D03*
X167955500Y-104775000D03*
D63*
X154257000Y-62309000D03*
D65*
X188277500Y-70167500D03*
X101222964Y-117882662D03*
X138580000Y-81130000D03*
D63*
X98377000Y-77549000D03*
D65*
X144696500Y-80561500D03*
X183149500Y-61674000D03*
X156479500Y-137874000D03*
X196484500Y-72151500D03*
X198389500Y-108029000D03*
D63*
X146795750Y-62467750D03*
D65*
X120650000Y-126682500D03*
X93932000Y-123904000D03*
X137795000Y-99377500D03*
D63*
%TO.N,/CPU/ENCODER_3_PHA*%
X150495000Y-116030000D03*
X142597772Y-96121956D03*
%TO.N,Net-(J14-Pin_2)*%
X145367000Y-68659000D03*
X146050000Y-80327500D03*
%TO.N,Net-(J15-Pin_1)*%
X141029500Y-68659000D03*
%TO.N,Net-(J15-Pin_2)*%
X143029500Y-68659000D03*
%TO.N,Net-(J16-Pin_1)*%
X149223602Y-80008602D03*
X160289500Y-68659000D03*
%TO.N,Net-(J16-Pin_2)*%
X148272500Y-80010000D03*
X158384500Y-68659000D03*
%TO.N,Net-(J17-Pin_2)*%
X147589500Y-74691500D03*
%TO.N,Net-(J17-Pin_1)*%
X146637000Y-74691500D03*
%TO.N,Net-(J19-Pin_2)*%
X192039500Y-77231500D03*
%TO.N,+3.3V*%
X157114500Y-72786500D03*
D65*
X132080000Y-99060000D03*
X128857000Y-116601500D03*
X143341521Y-82550000D03*
X181752500Y-123142000D03*
X157749500Y-136604000D03*
X121110000Y-124412000D03*
X180609500Y-75326500D03*
X191087000Y-105171500D03*
X185372000Y-136604000D03*
D63*
X96408500Y-82546500D03*
D65*
X182514500Y-104854000D03*
X106680000Y-105410000D03*
X115014000Y-116538000D03*
X137795000Y-89852500D03*
D63*
X167749750Y-95171250D03*
D65*
X149860000Y-91487503D03*
X174259500Y-79136500D03*
X162829500Y-104854000D03*
X150447000Y-102631500D03*
X137795000Y-95297503D03*
D63*
X131079500Y-72786500D03*
D65*
X163782000Y-101044000D03*
X133985000Y-88900000D03*
X158432500Y-123825000D03*
X144414500Y-136604000D03*
D63*
X118062000Y-72786500D03*
D65*
X133287000Y-76596500D03*
X141778500Y-76661500D03*
D63*
X167274500Y-71158000D03*
D65*
X132080000Y-95906000D03*
X135890000Y-124539000D03*
X153352500Y-89852500D03*
X177830232Y-80720517D03*
X177897000Y-94164000D03*
D63*
X95519500Y-69294000D03*
D65*
X158115000Y-113665000D03*
X146050000Y-113665000D03*
X160289500Y-90249000D03*
X174488500Y-93317500D03*
X119380000Y-76835000D03*
X145732500Y-123825000D03*
X177718225Y-87690275D03*
D63*
X102822000Y-80724000D03*
X92662000Y-87391500D03*
X144097000Y-72786500D03*
D65*
X172513250Y-136604000D03*
D63*
X174345500Y-86841500D03*
D65*
X139430003Y-101917500D03*
X137795000Y-92392500D03*
X95202000Y-107394000D03*
X100330000Y-114935000D03*
D63*
%TO.N,Net-(J23-Pin_1)*%
X169497000Y-61991500D03*
%TO.N,Net-(J23-Pin_2)*%
X172989500Y-61991500D03*
X174894500Y-72469000D03*
%TO.N,Net-(U4-CH1)*%
X142557500Y-121920000D03*
X142148000Y-117475000D03*
%TO.N,Net-(U4-CH3)*%
X147589500Y-125809000D03*
%TO.N,Net-(U4-CH4)*%
X147589500Y-123904000D03*
%TO.N,Net-(U5-B1Y)*%
X133032500Y-126682500D03*
X127635000Y-126047500D03*
%TO.N,Net-(U5-B2Y)*%
X134620000Y-130492500D03*
X128587500Y-126682500D03*
%TO.N,Net-(U11-1A)*%
X154552500Y-117475000D03*
X155257500Y-121920000D03*
%TO.N,Net-(U11-3A)*%
X160607000Y-125809000D03*
%TO.N,Net-(U11-4A)*%
X161242000Y-122958000D03*
%TO.N,/CPU/LED_ACTIVITY*%
X136477000Y-105806500D03*
X138699500Y-105489000D03*
X119429000Y-103266500D03*
X127583000Y-104854000D03*
X99012000Y-107076500D03*
X132984500Y-105171500D03*
%TO.N,/CPU/I2C_SDA_INT*%
X130444500Y-81391500D03*
X153352500Y-94618000D03*
X140895343Y-90275657D03*
X144780000Y-91757500D03*
X101075750Y-85962750D03*
%TO.N,Net-(J19-Pin_1)*%
X192039500Y-75961500D03*
%TO.N,/CPU/I2C_SCL_ARBITRARY*%
X164147500Y-73342500D03*
X156527500Y-98107500D03*
%TO.N,/CPU/USER_BTN*%
X157432000Y-94059000D03*
X201802000Y-120094000D03*
X143462000Y-86756500D03*
X155844500Y-87391500D03*
%TO.N,/CPU/FDCAN_STBY*%
X184467500Y-75247500D03*
X186055000Y-70485000D03*
%TO.N,/CPU/IO2*%
X177434500Y-125809000D03*
X170767000Y-121364000D03*
%TO.N,/CPU/IO3*%
X177434500Y-127079000D03*
X170767000Y-120094000D03*
%TO.N,/CPU/I2C_SDA_EXTERNAL*%
X137760000Y-80010000D03*
X144414500Y-99139000D03*
%TO.N,/CPU/I2C_SCL_EXTERNAL*%
X143425000Y-99139000D03*
X137747000Y-78740000D03*
%TO.N,/CPU/INT_PRESSURE*%
X157132500Y-85804000D03*
X157132500Y-83185000D03*
%TO.N,/CPU/INT_IMU*%
X156845000Y-100647500D03*
X154622500Y-99695000D03*
D65*
X163510500Y-98742500D03*
D63*
X145327000Y-90082000D03*
%TO.N,/CPU/INT_MAGNETO*%
X167638000Y-102235000D03*
X153352500Y-96837500D03*
X146685000Y-89852500D03*
X164099500Y-103187500D03*
X146367500Y-92980000D03*
X148907500Y-91122500D03*
%TO.N,/CPU/~{POWEROFF}*%
X93297000Y-117554000D03*
X98694500Y-117554000D03*
X119332000Y-91201500D03*
%TO.N,/CPU/INT_LIGHT*%
X141874500Y-83581500D03*
X105997000Y-79136500D03*
X139565091Y-75239591D03*
X131397000Y-75326500D03*
X143779500Y-84216500D03*
X143797411Y-86085677D03*
%TO.N,/Power & Analog/USB-DN*%
X97107000Y-96520000D03*
X115570000Y-98383500D03*
%TD*%
D66*
%TO.N,/Power & Analog/USB-DP*%
X95911000Y-96355500D02*
X96154500Y-96599000D01*
X114164000Y-100923500D02*
X115570000Y-100923500D01*
X96281500Y-97551500D02*
X97107000Y-97551500D01*
X115570000Y-100923500D02*
X116704000Y-100923500D01*
X94730000Y-96355500D02*
X95911000Y-96355500D01*
X94730000Y-97355500D02*
X96085500Y-97355500D01*
D67*
X96085500Y-97355500D02*
X96154500Y-97424500D01*
D66*
X96154500Y-97424500D02*
X96281500Y-97551500D01*
X96154500Y-96599000D02*
X96154500Y-97424500D01*
D68*
%TO.N,+3.3V_PWR*%
X143144500Y-62626500D02*
X143029500Y-62741500D01*
X131079500Y-62626500D02*
X130079500Y-62626500D01*
X170767000Y-62626500D02*
X170719500Y-62674000D01*
X157114500Y-62626500D02*
X156162000Y-62626500D01*
D69*
X116092000Y-114822000D02*
X113628000Y-114822000D01*
D68*
X117062000Y-62674000D02*
X117062000Y-65046500D01*
D70*
X117475000Y-105410000D02*
X117974000Y-105909000D01*
D68*
X156162000Y-62626500D02*
X156094500Y-62694000D01*
X170719500Y-62674000D02*
X170719500Y-65046500D01*
D69*
X113628000Y-114822000D02*
X113515000Y-114935000D01*
D71*
X96837000Y-108791000D02*
X98773000Y-108791000D01*
D68*
X118062000Y-62626500D02*
X117109500Y-62626500D01*
D71*
X98773000Y-108791000D02*
X99005000Y-109023000D01*
D68*
X171719500Y-62626500D02*
X170767000Y-62626500D01*
X144097000Y-62626500D02*
X143144500Y-62626500D01*
X143029500Y-62741500D02*
X143029500Y-65056500D01*
D70*
X117974000Y-105909000D02*
X117974000Y-106956000D01*
D68*
X130079500Y-62626500D02*
X130079500Y-65046500D01*
D69*
X116205000Y-114935000D02*
X116092000Y-114822000D01*
D68*
X156094500Y-62694000D02*
X156094500Y-65046500D01*
X117109500Y-62626500D02*
X117062000Y-62674000D01*
D70*
X116792000Y-105410000D02*
X117475000Y-105410000D01*
D66*
%TO.N,Net-(U1-VCAP)*%
X148827000Y-103693000D02*
X148827000Y-102893118D01*
D71*
X148827000Y-102746059D02*
X147998441Y-101917500D01*
X147998441Y-101917500D02*
X147320000Y-101917500D01*
X148827000Y-102893118D02*
X148827000Y-102746059D01*
D72*
%TO.N,VDDA*%
X130695500Y-104924000D02*
X130695500Y-108204500D01*
D67*
X136152000Y-100518000D02*
X131257000Y-100518000D01*
D72*
X130420000Y-102130000D02*
X130420000Y-104648500D01*
D67*
X130420000Y-101355000D02*
X130420000Y-102130000D01*
X131257000Y-100518000D02*
X130420000Y-101355000D01*
D72*
%TO.N,VBUS*%
X95885000Y-99060000D02*
X94784500Y-99060000D01*
D70*
X96561500Y-93303500D02*
X98028000Y-93303500D01*
D73*
X101917500Y-103822500D02*
X102734000Y-104639000D01*
D74*
X95885000Y-93980000D02*
X96520000Y-93345000D01*
D73*
X102734000Y-110258000D02*
X102734000Y-104639000D01*
D72*
X95659500Y-94205500D02*
X95885000Y-93980000D01*
X94730000Y-94205500D02*
X95659500Y-94205500D01*
D70*
X96520000Y-93345000D02*
X96561500Y-93303500D01*
D73*
X96520000Y-99695000D02*
X96520000Y-100297500D01*
D74*
X95885000Y-99060000D02*
X96520000Y-99695000D01*
D73*
X96520000Y-100297500D02*
X98162000Y-101939500D01*
D66*
%TO.N,Net-(U2-3V3OUT)*%
X105324500Y-94700500D02*
X104138000Y-94700500D01*
X109338000Y-97240500D02*
X109338000Y-97875500D01*
X112148000Y-95843500D02*
X112148000Y-93303500D01*
X106996000Y-97875500D02*
X109338000Y-97875500D01*
X105782000Y-89239500D02*
X105782000Y-94243000D01*
X110751000Y-97240500D02*
X112148000Y-95843500D01*
X109338000Y-97240500D02*
X110751000Y-97240500D01*
X105782000Y-94243000D02*
X105324500Y-94700500D01*
X106354500Y-97234000D02*
X106996000Y-97875500D01*
%TO.N,Net-(D6-A)*%
X92456500Y-108791000D02*
X94837000Y-108791000D01*
D68*
%TO.N,+5V*%
X189742500Y-73957500D02*
X190080000Y-74295000D01*
X188078000Y-73957500D02*
X189742500Y-73957500D01*
D71*
X135879500Y-120660500D02*
X135890000Y-120650000D01*
D72*
X133926000Y-120660500D02*
X135879500Y-120660500D01*
D71*
X137044500Y-129424500D02*
X137160000Y-129540000D01*
D73*
X113402000Y-108585000D02*
X113402000Y-110222000D01*
D71*
X121240000Y-120605000D02*
X121285000Y-120650000D01*
D70*
X202489500Y-89269000D02*
X195334500Y-89269000D01*
D71*
X185951500Y-73987000D02*
X188048500Y-73987000D01*
D72*
X119392500Y-120605000D02*
X121240000Y-120605000D01*
D74*
X185324500Y-65046500D02*
X185324500Y-61404000D01*
D71*
X121720500Y-129115000D02*
X123082500Y-129115000D01*
D70*
X199342000Y-74374000D02*
X197802000Y-75914000D01*
D73*
X113402000Y-106956000D02*
X113402000Y-108585000D01*
D68*
X202517000Y-89296500D02*
X202489500Y-89269000D01*
D73*
X111760000Y-108585000D02*
X113402000Y-108585000D01*
D71*
X98646000Y-111839000D02*
X99005000Y-112198000D01*
X123082500Y-129115000D02*
X123190000Y-129222500D01*
X135806000Y-129424500D02*
X137044500Y-129424500D01*
D70*
X197802000Y-75914000D02*
X195334500Y-75914000D01*
D74*
X185324500Y-61404000D02*
X185372000Y-61356500D01*
D71*
X96837000Y-111839000D02*
X98646000Y-111839000D01*
D66*
%TO.N,Net-(D1-K)*%
X110404500Y-95335500D02*
X110807500Y-94932500D01*
X110807500Y-94932500D02*
X110807500Y-92392500D01*
X110807500Y-92392500D02*
X111125000Y-92075000D01*
X111125000Y-92075000D02*
X117096500Y-92075000D01*
X109338000Y-95335500D02*
X110404500Y-95335500D01*
X117096500Y-92075000D02*
X118325000Y-93303500D01*
D67*
%TO.N,Net-(D7-A)*%
X94837000Y-105806500D02*
X92361500Y-105806500D01*
D66*
%TO.N,Net-(D1-A)*%
X114148000Y-93303500D02*
X116450000Y-93303500D01*
D72*
%TO.N,/Power & Analog/FT231_VCC*%
X100328000Y-93303500D02*
X101876000Y-93303500D01*
X107648000Y-96980000D02*
X108022500Y-96605500D01*
X101876000Y-93303500D02*
X101917500Y-93345000D01*
X108022500Y-96605500D02*
X109338000Y-96605500D01*
D67*
%TO.N,Net-(J4-Pin_2)*%
X143462000Y-129349000D02*
X143462000Y-133819000D01*
D66*
%TO.N,Net-(D2-A)*%
X114148000Y-95843500D02*
X116450000Y-95843500D01*
%TO.N,Net-(D2-K)*%
X106680000Y-99377500D02*
X106680000Y-101600000D01*
X117792500Y-101917500D02*
X117792500Y-96376000D01*
X106680000Y-101600000D02*
X107315000Y-102235000D01*
X107315000Y-102235000D02*
X117475000Y-102235000D01*
X106448000Y-99145500D02*
X106680000Y-99377500D01*
X117792500Y-96376000D02*
X118325000Y-95843500D01*
X117475000Y-102235000D02*
X117792500Y-101917500D01*
X104138000Y-99145500D02*
X106448000Y-99145500D01*
%TO.N,Net-(D4-A)*%
X92456500Y-111839000D02*
X94837000Y-111839000D01*
%TO.N,Net-(D5-A)*%
X92456500Y-114887000D02*
X94853000Y-114887000D01*
D73*
%TO.N,Net-(JP3-A)*%
X106249500Y-123904000D02*
X106249500Y-123269000D01*
D69*
X108219500Y-123269000D02*
X109172000Y-122316500D01*
D74*
X106314500Y-121999000D02*
X106249500Y-121934000D01*
D69*
X106249500Y-123269000D02*
X108219500Y-123269000D01*
D74*
X106249500Y-121934000D02*
X106249500Y-121364000D01*
D73*
X106249500Y-123269000D02*
X106249500Y-122064000D01*
X106249500Y-122064000D02*
X106314500Y-121999000D01*
D66*
%TO.N,Net-(J1-CC2)*%
X97626000Y-98355500D02*
X98162000Y-98891500D01*
X94730000Y-98355500D02*
X97626000Y-98355500D01*
%TO.N,Net-(J1-CC1)*%
X94730000Y-95355500D02*
X98135500Y-95355500D01*
D67*
%TO.N,Net-(JP1-A)*%
X129038000Y-91757500D02*
X125847500Y-91757500D01*
X125847500Y-91757500D02*
X125530000Y-92075000D01*
X125530000Y-98352000D02*
X126260000Y-99082000D01*
X125530000Y-92075000D02*
X125530000Y-98352000D01*
X129272000Y-94256000D02*
X129272000Y-91991500D01*
X129272000Y-91991500D02*
X129038000Y-91757500D01*
X126260000Y-99082000D02*
X129120000Y-99082000D01*
%TO.N,Net-(J6-Pin_2)*%
X156479500Y-129349000D02*
X156479500Y-133819000D01*
%TO.N,Net-(U1-PH3)*%
X140827000Y-88343000D02*
X140827000Y-84851000D01*
%TO.N,/CPU/GNDDetect*%
X94244500Y-75614000D02*
X94244500Y-76956500D01*
X94244500Y-76956500D02*
X94837000Y-77549000D01*
%TO.N,/CPU/ENCODER_2_PHA*%
X147589500Y-113426500D02*
X146954500Y-112791500D01*
X143144500Y-112791500D02*
X142827000Y-112474000D01*
X146954500Y-112791500D02*
X143144500Y-112791500D01*
X147589500Y-115649000D02*
X147589500Y-113426500D01*
X142827000Y-112474000D02*
X142827000Y-103693000D01*
X148859500Y-116919000D02*
X147589500Y-115649000D01*
X145927000Y-120668000D02*
X147937000Y-120668000D01*
X147937000Y-120668000D02*
X148272500Y-120332500D01*
%TO.N,/CPU/COM_GPS_TX*%
X176879500Y-106361500D02*
X176879500Y-96526500D01*
X141327000Y-102049026D02*
X142364526Y-101011500D01*
X154574500Y-107711500D02*
X154892000Y-107394000D01*
X153622000Y-107711500D02*
X154574500Y-107711500D01*
X142364526Y-101011500D02*
X145017000Y-101011500D01*
X153304500Y-107394000D02*
X153622000Y-107711500D01*
X153304500Y-106124000D02*
X153304500Y-107394000D01*
X154892000Y-107394000D02*
X175847000Y-107394000D01*
X175847000Y-107394000D02*
X176879500Y-106361500D01*
X145017000Y-101011500D02*
X145049500Y-101044000D01*
X153939500Y-105806500D02*
X153622000Y-105806500D01*
X141327000Y-103693000D02*
X141327000Y-102049026D01*
X153622000Y-105806500D02*
X153304500Y-106124000D01*
%TO.N,/CPU/COM_LIDAR2_RX*%
X159019500Y-80724000D02*
X159654500Y-80089000D01*
X146319500Y-85804000D02*
X146319500Y-85169000D01*
X146327000Y-88343000D02*
X146327000Y-85811500D01*
X153622000Y-80724000D02*
X159019500Y-80724000D01*
X176799500Y-81676500D02*
X176799500Y-83079000D01*
X146327000Y-85811500D02*
X146319500Y-85804000D01*
%TO.N,/CPU/COM_LIDAR1_RX*%
X164097500Y-87391500D02*
X163782000Y-87391500D01*
X155877000Y-85519000D02*
X156797000Y-86439000D01*
X148327000Y-85878974D02*
X148686974Y-85519000D01*
X163145000Y-86439000D02*
X164097500Y-87391500D01*
X148686974Y-85519000D02*
X155877000Y-85519000D01*
X176799500Y-88661500D02*
X176799500Y-89891500D01*
X148327000Y-88343000D02*
X148327000Y-85878974D01*
X156797000Y-86439000D02*
X163145000Y-86439000D01*
%TO.N,/CPU/ENCODER_4_PHB*%
X156527500Y-118427500D02*
X156740000Y-118640000D01*
X155847000Y-97518000D02*
X151502000Y-97518000D01*
X155892500Y-97472500D02*
X155847000Y-97518000D01*
X156740000Y-118640000D02*
X158373000Y-118640000D01*
%TO.N,/CPU/COM_LIDAR2_TX*%
X147827000Y-85884000D02*
X147827000Y-88343000D01*
X161557500Y-82631000D02*
X161557500Y-84218500D01*
X161557500Y-84218500D02*
X160607000Y-85169000D01*
X176157000Y-83086500D02*
X176157000Y-83906500D01*
X160607000Y-85169000D02*
X148542000Y-85169000D01*
X161877000Y-82311500D02*
X161557500Y-82631000D01*
X148542000Y-85169000D02*
X147827000Y-85884000D01*
X170449500Y-84216500D02*
X168544500Y-82311500D01*
X175847000Y-84216500D02*
X170449500Y-84216500D01*
X176157000Y-83906500D02*
X175847000Y-84216500D01*
X168544500Y-82311500D02*
X161877000Y-82311500D01*
%TO.N,/CPU/SERVO_PWM2N*%
X130492500Y-121602500D02*
X130492500Y-114230686D01*
X137090686Y-107632500D02*
X141287500Y-107632500D01*
X130492500Y-114230686D02*
X137090686Y-107632500D01*
X130134500Y-121960500D02*
X130492500Y-121602500D01*
X142327000Y-106593000D02*
X142327000Y-103693000D01*
X141287500Y-107632500D02*
X142327000Y-106593000D01*
X128186000Y-121960500D02*
X130134500Y-121960500D01*
%TO.N,/CPU/SERVO_PWM3*%
X140652500Y-95329000D02*
X141208500Y-95329000D01*
X141208500Y-95329000D02*
X141519500Y-95018000D01*
X137160000Y-108585000D02*
X137477500Y-108267500D01*
X130892500Y-122155000D02*
X130892500Y-114396372D01*
X128186000Y-122610500D02*
X130437000Y-122610500D01*
X136703872Y-108585000D02*
X137160000Y-108585000D01*
X130437000Y-122610500D02*
X130892500Y-122155000D01*
X130892500Y-114396372D02*
X136703872Y-108585000D01*
X141519500Y-95018000D02*
X151502000Y-95018000D01*
%TO.N,Net-(J8-Pad01)*%
X123300000Y-139590000D02*
X124460000Y-138430000D01*
X124460000Y-138430000D02*
X124460000Y-131762500D01*
X124460000Y-131762500D02*
X124976000Y-131246500D01*
%TO.N,/CPU/ENCODER_2_PHB*%
X145927000Y-118618000D02*
X148780500Y-118618000D01*
X149542500Y-99695000D02*
X149860000Y-99695000D01*
X150037000Y-99518000D02*
X151502000Y-99518000D01*
X149860000Y-99695000D02*
X150037000Y-99518000D01*
X148780500Y-118618000D02*
X148907500Y-118745000D01*
%TO.N,Net-(J8-Pad10)*%
X129040000Y-129357500D02*
X129040000Y-128452500D01*
X132080000Y-133985000D02*
X130140000Y-132045000D01*
X130140000Y-132045000D02*
X130140000Y-130457500D01*
X130140000Y-130457500D02*
X129040000Y-129357500D01*
X132080000Y-138998500D02*
X132080000Y-133985000D01*
X130920000Y-140158500D02*
X132080000Y-138998500D01*
%TO.N,Net-(J8-Pad07)*%
X129540000Y-138998500D02*
X129540000Y-131746500D01*
X128380000Y-140158500D02*
X129540000Y-138998500D01*
X129540000Y-131746500D02*
X129040000Y-131246500D01*
%TO.N,Net-(J8-Pad04)*%
X124976000Y-129421000D02*
X124976000Y-128452500D01*
X127000000Y-138998500D02*
X127000000Y-133350000D01*
X126047500Y-130492500D02*
X124976000Y-129421000D01*
X127000000Y-133350000D02*
X126047500Y-132397500D01*
X126047500Y-132397500D02*
X126047500Y-130492500D01*
X125840000Y-140158500D02*
X127000000Y-138998500D01*
%TO.N,Net-(U10-CH2)*%
X111760000Y-130492500D02*
X110696500Y-129429000D01*
X113030000Y-133032500D02*
X112953256Y-133032500D01*
X113030000Y-138938000D02*
X113030000Y-133032500D01*
X111760000Y-131839244D02*
X111760000Y-130492500D01*
X110696500Y-129429000D02*
X110696500Y-128397000D01*
X114300000Y-140208000D02*
X113030000Y-138938000D01*
X119062500Y-131762500D02*
X119062500Y-130123000D01*
X112953256Y-133032500D02*
X111760000Y-131839244D01*
%TO.N,/CPU/ENCODER_3_PHB*%
X139382500Y-91440000D02*
X139382500Y-96329500D01*
X136152000Y-91018000D02*
X138960500Y-91018000D01*
X139890500Y-96837500D02*
X142240000Y-96837500D01*
X138960500Y-91018000D02*
X139382500Y-91440000D01*
X153705000Y-120015000D02*
X152598000Y-120015000D01*
X139382500Y-96329500D02*
X139890500Y-96837500D01*
%TO.N,/CPU/FDCAN1_TX*%
X178035000Y-75647500D02*
X158136471Y-75647500D01*
X157797500Y-77152500D02*
X157715000Y-77070000D01*
X153295500Y-92018000D02*
X151502000Y-92018000D01*
X178371500Y-75311000D02*
X178035000Y-75647500D01*
X158115000Y-75668971D02*
X157867500Y-75916471D01*
X155892500Y-92710000D02*
X153987500Y-92710000D01*
X183197500Y-71691000D02*
X182851500Y-72037000D01*
X157867500Y-75916471D02*
X158136471Y-75647500D01*
X158115000Y-75668971D02*
X158136471Y-75647500D01*
X183197500Y-70485000D02*
X183197500Y-71691000D01*
X157715000Y-77070000D02*
X157715000Y-76068971D01*
X157715000Y-76068971D02*
X158115000Y-75668971D01*
X153987500Y-92710000D02*
X153295500Y-92018000D01*
%TO.N,/CPU/ADC_AN1*%
X186627000Y-110569000D02*
X186627000Y-108664000D01*
X146327000Y-108989000D02*
X146954500Y-109616500D01*
X146327000Y-103693000D02*
X146327000Y-108989000D01*
X186627000Y-108664000D02*
X188817000Y-108664000D01*
X146954500Y-109616500D02*
X181562000Y-109616500D01*
X182514500Y-110569000D02*
X186627000Y-110569000D01*
X181562000Y-109616500D02*
X182514500Y-110569000D01*
%TO.N,/CPU/MOT_PWM4*%
X117957500Y-117171372D02*
X118676372Y-116452500D01*
X137827000Y-106330500D02*
X137827000Y-103693000D01*
X118676372Y-116452500D02*
X127705000Y-116452500D01*
X113652500Y-123205000D02*
X114920000Y-123205000D01*
X127705000Y-116452500D02*
X137827000Y-106330500D01*
X117957500Y-120167500D02*
X117957500Y-117171372D01*
X114920000Y-123205000D02*
X117957500Y-120167500D01*
%TO.N,Net-(U10-CH3)*%
X116840000Y-140208000D02*
X115285000Y-138653000D01*
X115285000Y-131715500D02*
X114760500Y-131191000D01*
X115285000Y-138653000D02*
X115285000Y-131715500D01*
X118237000Y-141605000D02*
X120650000Y-141605000D01*
X120650000Y-141605000D02*
X121720500Y-140534500D01*
X121720500Y-140534500D02*
X121720500Y-130065000D01*
X116840000Y-140208000D02*
X118237000Y-141605000D01*
%TO.N,Net-(U10-CH4)*%
X119380000Y-140208000D02*
X118110000Y-138938000D01*
X117017256Y-133032500D02*
X115860500Y-131875744D01*
X120332500Y-132397500D02*
X119697500Y-133032500D01*
X115860500Y-131875744D02*
X115860500Y-130465500D01*
X119697500Y-133032500D02*
X118110000Y-133032500D01*
X118110000Y-133032500D02*
X117017256Y-133032500D01*
X120332500Y-129153186D02*
X120332500Y-132397500D01*
X114760500Y-129365500D02*
X114760500Y-128397000D01*
X115860500Y-130465500D02*
X114760500Y-129365500D01*
X118110000Y-138938000D02*
X118110000Y-133032500D01*
X121320686Y-128165000D02*
X120332500Y-129153186D01*
%TO.N,/CPU/COM_GPS_RX*%
X153939500Y-106759000D02*
X175529500Y-106759000D01*
X142509500Y-101361500D02*
X144414500Y-101361500D01*
X176229500Y-106059000D02*
X176229500Y-96526500D01*
X144414500Y-101361500D02*
X145049500Y-101996500D01*
X141827000Y-102044000D02*
X142509500Y-101361500D01*
X175529500Y-106759000D02*
X176229500Y-106059000D01*
X141827000Y-103693000D02*
X141827000Y-102044000D01*
%TO.N,/CPU/ENCODER_4_PHA*%
X141827000Y-86460000D02*
X141827000Y-88343000D01*
X158373000Y-120690000D02*
X156885000Y-120690000D01*
X156885000Y-120690000D02*
X156845000Y-120650000D01*
X141927000Y-86360000D02*
X141827000Y-86460000D01*
%TO.N,Net-(U10-CH1)*%
X119062500Y-126682500D02*
X119062500Y-128107000D01*
X110696500Y-139144500D02*
X110696500Y-131191000D01*
X111760000Y-140208000D02*
X110696500Y-139144500D01*
%TO.N,Net-(J10-Pin_1)*%
X117459500Y-84566500D02*
X117427000Y-84534000D01*
X124697000Y-84566500D02*
X117459500Y-84566500D01*
X116759500Y-83581500D02*
X116759500Y-71549000D01*
X118379500Y-69929000D02*
X118379500Y-68659000D01*
X125157000Y-84424000D02*
X125047000Y-84534000D01*
X121237000Y-70834000D02*
X121237000Y-68659000D01*
X117427000Y-84534000D02*
X116759500Y-83866500D01*
X125157000Y-83768900D02*
X125157000Y-84424000D01*
X116759500Y-83866500D02*
X116759500Y-83581500D01*
X124729500Y-84534000D02*
X124697000Y-84566500D01*
X125157000Y-82386500D02*
X125157000Y-83768900D01*
X116759500Y-71549000D02*
X118379500Y-69929000D01*
X125047000Y-84534000D02*
X124729500Y-84534000D01*
X121237000Y-68659000D02*
X121237000Y-65221500D01*
%TO.N,Net-(J10-Pin_2)*%
X117744500Y-84216500D02*
X117109500Y-83581500D01*
X117109500Y-83581500D02*
X117109500Y-72151500D01*
X118427000Y-70834000D02*
X119332000Y-70834000D01*
X124412000Y-84216500D02*
X117744500Y-84216500D01*
X124507000Y-84121500D02*
X124412000Y-84216500D01*
X119332000Y-70834000D02*
X119332000Y-65316500D01*
X124507000Y-82386500D02*
X124507000Y-84121500D01*
X117109500Y-72151500D02*
X118427000Y-70834000D01*
%TO.N,Net-(J11-Pin_2)*%
X127107000Y-76661500D02*
X127107000Y-75140500D01*
X127107000Y-75140500D02*
X127138000Y-75140500D01*
X127138000Y-75140500D02*
X127269500Y-75009000D01*
%TO.N,/CPU/NRST*%
X108585000Y-75961500D02*
X108237500Y-75614000D01*
X109537500Y-88582500D02*
X108585000Y-87630000D01*
X134302500Y-96520000D02*
X136150000Y-96520000D01*
X196167000Y-131206500D02*
X197389500Y-131206500D01*
X108585000Y-87630000D02*
X108585000Y-75961500D01*
X108237500Y-75614000D02*
X97294500Y-75614000D01*
X195849500Y-131524000D02*
X196167000Y-131206500D01*
X120602000Y-88582500D02*
X109537500Y-88582500D01*
%TO.N,Net-(J11-Pin_1)*%
X126457000Y-76661500D02*
X126457000Y-75149000D01*
X126457000Y-75149000D02*
X126317000Y-75009000D01*
%TO.N,Net-(J12-Pin_2)*%
X125730000Y-80962500D02*
X125730000Y-80645000D01*
X132349500Y-70834000D02*
X132349500Y-68659000D01*
X126457000Y-81689500D02*
X125730000Y-80962500D01*
X126457000Y-82386500D02*
X126457000Y-81689500D01*
X132349500Y-68659000D02*
X132349500Y-65316500D01*
%TO.N,/CPU/SERVO_PWM4*%
X141063500Y-94518000D02*
X151502000Y-94518000D01*
X140922000Y-94376500D02*
X141063500Y-94518000D01*
X136921000Y-108985000D02*
X137325685Y-108985000D01*
X131292500Y-122390000D02*
X131292500Y-114613500D01*
X137325685Y-108985000D02*
X137327641Y-108983044D01*
X130422000Y-123260500D02*
X131292500Y-122390000D01*
X131292500Y-114613500D02*
X136921000Y-108985000D01*
X128186000Y-123260500D02*
X130422000Y-123260500D01*
X137327641Y-108983044D02*
X137835272Y-108983044D01*
%TO.N,/CPU/JTMS-SWDIO*%
X99329500Y-70246500D02*
X99329500Y-65957500D01*
X99042000Y-70534000D02*
X99329500Y-70246500D01*
X156132000Y-91518000D02*
X151502000Y-91518000D01*
X156527500Y-91122500D02*
X156132000Y-91518000D01*
X154940000Y-74295000D02*
X154940000Y-77470000D01*
X150953256Y-73782000D02*
X154427000Y-73782000D01*
X97294500Y-70534000D02*
X99042000Y-70534000D01*
X150764500Y-73593244D02*
X150953256Y-73782000D01*
X99647000Y-65640000D02*
X109968500Y-65640000D01*
X110407500Y-60086500D02*
X150764500Y-60086500D01*
X150764500Y-60086500D02*
X150764500Y-73593244D01*
X99329500Y-65957500D02*
X99647000Y-65640000D01*
X110407500Y-65201000D02*
X110407500Y-60086500D01*
X154427000Y-73782000D02*
X154940000Y-74295000D01*
X109968500Y-65640000D02*
X110407500Y-65201000D01*
%TO.N,/CPU/COM_USB_RX*%
X109378750Y-90328750D02*
X109855000Y-89852500D01*
X131430573Y-89852500D02*
X131500524Y-89782549D01*
X140970000Y-92392500D02*
X142157500Y-93580000D01*
X142157500Y-93580000D02*
X150041904Y-93580000D01*
X109855000Y-89852500D02*
X131430573Y-89852500D01*
X150603904Y-93018000D02*
X151502000Y-93018000D01*
X104138000Y-95335500D02*
X105495500Y-95335500D01*
X150041904Y-93580000D02*
X150603904Y-93018000D01*
X105495500Y-95335500D02*
X105727500Y-95567500D01*
%TO.N,/CPU/ADC_VBAT*%
X136794500Y-103901500D02*
X135207000Y-103901500D01*
X119429000Y-102314000D02*
X126317000Y-102314000D01*
X143462000Y-100409000D02*
X138382000Y-100409000D01*
X126317000Y-102314000D02*
X127587000Y-103584000D01*
X138382000Y-100409000D02*
X137202000Y-101589000D01*
X143327000Y-103693000D02*
X143327000Y-102449000D01*
X137202000Y-103494000D02*
X136794500Y-103901500D01*
X135207000Y-103901500D02*
X132984500Y-103901500D01*
X137202000Y-101589000D02*
X137202000Y-103494000D01*
X143327000Y-102449000D02*
X143462000Y-102314000D01*
%TO.N,/CPU/ADC_AN2*%
X146827000Y-103693000D02*
X146827000Y-108536500D01*
X182197000Y-102949000D02*
X185054500Y-102949000D01*
X147272000Y-108981500D02*
X181244500Y-108981500D01*
X181244500Y-108981500D02*
X181244500Y-103901500D01*
X146827000Y-108536500D02*
X147272000Y-108981500D01*
X185054500Y-102949000D02*
X186642000Y-101361500D01*
X181244500Y-103901500D02*
X182197000Y-102949000D01*
%TO.N,Net-(J12-Pin_1)*%
X127107000Y-82386500D02*
X127107000Y-81106950D01*
X126682500Y-80682450D02*
X126682500Y-80645000D01*
X127107000Y-81106950D02*
X126682500Y-80682450D01*
X134254500Y-70834000D02*
X134254500Y-68659000D01*
X134254500Y-68659000D02*
X134254500Y-65221500D01*
%TO.N,/CPU/JTCK-SWCLK*%
X97294500Y-71804000D02*
X99994500Y-71804000D01*
X154305000Y-74628000D02*
X154305000Y-76835000D01*
X150495000Y-86995000D02*
X149860000Y-86995000D01*
X100282000Y-66357500D02*
X100599500Y-66040000D01*
X100599500Y-66040000D02*
X110203500Y-66040000D01*
X100282000Y-71516500D02*
X100282000Y-66357500D01*
X150177500Y-60721500D02*
X150177500Y-73571930D01*
X110807500Y-60721500D02*
X150177500Y-60721500D01*
X110203500Y-66040000D02*
X110807500Y-65436000D01*
X99994500Y-71804000D02*
X100282000Y-71516500D01*
X110807500Y-65436000D02*
X110807500Y-60721500D01*
X150177500Y-73571930D02*
X150900570Y-74295000D01*
X150900570Y-74295000D02*
X153972000Y-74295000D01*
X153972000Y-74295000D02*
X154305000Y-74628000D01*
X149860000Y-86995000D02*
X149860000Y-88310000D01*
%TO.N,/CPU/MOT_PWM2*%
X113652500Y-121905000D02*
X114950000Y-121905000D01*
X117157500Y-116840000D02*
X118345000Y-115652500D01*
X127235000Y-115652500D02*
X132064500Y-110823000D01*
X117157500Y-119697500D02*
X117157500Y-116840000D01*
X118345000Y-115652500D02*
X127235000Y-115652500D01*
X132064500Y-102250500D02*
X132797000Y-101518000D01*
X114950000Y-121905000D02*
X117157500Y-119697500D01*
X132797000Y-101518000D02*
X136152000Y-101518000D01*
X132064500Y-110823000D02*
X132064500Y-102250500D01*
%TO.N,/CPU/I2C_SCL_INT*%
X92979500Y-83899000D02*
X92979500Y-86121500D01*
X140227000Y-85988500D02*
X140327000Y-86088500D01*
X164826500Y-91711500D02*
X163974500Y-91711500D01*
X154601032Y-83902500D02*
X145650000Y-83902500D01*
X101837000Y-87106500D02*
X101984500Y-86959000D01*
X155553185Y-81550000D02*
X155070003Y-82033182D01*
X165710000Y-94274500D02*
X165663000Y-94321500D01*
X90884500Y-83696500D02*
X92777000Y-83696500D01*
X145650000Y-83902500D02*
X144177613Y-85374887D01*
X155070003Y-82033182D02*
X155070003Y-83433529D01*
X159654500Y-81550000D02*
X155553185Y-81550000D01*
X101621000Y-82560000D02*
X98455500Y-82560000D01*
X101984500Y-86959000D02*
X101984500Y-82923500D01*
X92777000Y-83696500D02*
X92979500Y-83899000D01*
X163974500Y-91711500D02*
X163464500Y-91201500D01*
X93964500Y-87106500D02*
X101837000Y-87106500D01*
X144177613Y-85374887D02*
X142242387Y-85374887D01*
X92979500Y-86121500D02*
X93964500Y-87106500D01*
X164835000Y-99905503D02*
X164835000Y-100614000D01*
X155070003Y-83433529D02*
X154601032Y-83902500D01*
X140327000Y-86088500D02*
X140327000Y-88343000D01*
X165052000Y-82946500D02*
X165052000Y-84313000D01*
X101984500Y-82923500D02*
X101621000Y-82560000D01*
X165009251Y-99731252D02*
X164835000Y-99905503D01*
X165663000Y-94321500D02*
X165663000Y-95673000D01*
%TO.N,/CPU/CLK_IN_16Mhz*%
X127172000Y-96892000D02*
X127172000Y-95906000D01*
X136152000Y-95518000D02*
X133399500Y-95518000D01*
X132984500Y-95933000D02*
X132984500Y-96568000D01*
X133399500Y-95518000D02*
X132984500Y-95933000D01*
X127435000Y-97155000D02*
X127172000Y-96892000D01*
X132984500Y-96568000D02*
X132397500Y-97155000D01*
X132397500Y-97155000D02*
X127435000Y-97155000D01*
%TO.N,/CPU/FDCAN1_RX*%
X158467500Y-76517500D02*
X158785000Y-76200000D01*
X181451250Y-76200000D02*
X182851500Y-74799750D01*
X153229814Y-92518000D02*
X151502000Y-92518000D01*
X182851500Y-74799750D02*
X182851500Y-73987000D01*
X154056814Y-93345000D02*
X153229814Y-92518000D01*
X155257500Y-93345000D02*
X154056814Y-93345000D01*
X158785000Y-76200000D02*
X181451250Y-76200000D01*
%TO.N,Net-(J13-Pin_1)*%
X124507000Y-76661500D02*
X124507000Y-69199000D01*
X125047000Y-68659000D02*
X128079500Y-68659000D01*
X124507000Y-69199000D02*
X125047000Y-68659000D01*
%TO.N,Net-(J13-Pin_2)*%
X125157000Y-76661500D02*
X125157000Y-69819000D01*
X125157000Y-69819000D02*
X125682000Y-69294000D01*
X125682000Y-69294000D02*
X129444500Y-69294000D01*
X129444500Y-69294000D02*
X130079500Y-68659000D01*
%TO.N,/CPU/COM_LIDAR1_TX*%
X149494500Y-85869000D02*
X155592000Y-85869000D01*
X155592000Y-85869000D02*
X156797000Y-87074000D01*
X148859500Y-87442736D02*
X148859500Y-86439000D01*
X149429500Y-85869000D02*
X149494500Y-85869000D01*
X148827000Y-88343000D02*
X148827000Y-87475236D01*
X174259500Y-90884000D02*
X176067000Y-90884000D01*
X176229500Y-90721500D02*
X176229500Y-89971500D01*
X156797000Y-87074000D02*
X161559500Y-87074000D01*
X148827000Y-87475236D02*
X148859500Y-87442736D01*
X148859500Y-86439000D02*
X149429500Y-85869000D01*
X176067000Y-90884000D02*
X176229500Y-90721500D01*
X161559500Y-87074000D02*
X162194500Y-87709000D01*
%TO.N,/CPU/ENCODER_1_PHB*%
X133439500Y-98018000D02*
X133350000Y-98107500D01*
X136152000Y-98018000D02*
X133439500Y-98018000D01*
X141605000Y-120015000D02*
X140174000Y-120015000D01*
%TO.N,/CPU/JTDO-SWO*%
X100629500Y-73074000D02*
X100917000Y-72786500D01*
X150734884Y-74695000D02*
X152927000Y-74695000D01*
X152927000Y-74695000D02*
X153352500Y-75120500D01*
X100917000Y-66757500D02*
X101234500Y-66440000D01*
X153352500Y-75120500D02*
X153352500Y-77470000D01*
X110438500Y-66440000D02*
X111207500Y-65671000D01*
X142641521Y-86719810D02*
X143327000Y-87405289D01*
X149777500Y-73737616D02*
X150734884Y-74695000D01*
X97294500Y-73074000D02*
X100629500Y-73074000D01*
X100917000Y-72786500D02*
X100917000Y-66757500D01*
X149777500Y-61356500D02*
X149777500Y-73737616D01*
X111207500Y-65671000D02*
X111207500Y-61356500D01*
X101234500Y-66440000D02*
X110438500Y-66440000D01*
X143327000Y-87405289D02*
X143327000Y-88343000D01*
X111207500Y-61356500D02*
X149777500Y-61356500D01*
%TO.N,Net-(J14-Pin_1)*%
X147272000Y-70834000D02*
X147272000Y-68659000D01*
X147255000Y-82386500D02*
X147255000Y-80580000D01*
X147255000Y-80580000D02*
X147002500Y-80327500D01*
X147272000Y-68659000D02*
X147272000Y-65299000D01*
%TO.N,/CPU/ENCODER_1_PHA*%
X141560503Y-118018000D02*
X140127000Y-118018000D01*
X142327000Y-89852500D02*
X142327000Y-88343000D01*
%TO.N,/CPU/PWR_CSLEEP*%
X120919500Y-118824000D02*
X119014500Y-118824000D01*
X139827000Y-105631500D02*
X139017000Y-106441500D01*
X134889500Y-115331500D02*
X132349500Y-115331500D01*
X139827000Y-103693000D02*
X139827000Y-105631500D01*
%TO.N,/CPU/COM_USB_TX*%
X131127500Y-90252500D02*
X131127500Y-90269873D01*
X150128590Y-94059000D02*
X150669590Y-93518000D01*
X140922000Y-93424000D02*
X141557000Y-94059000D01*
X141557000Y-94059000D02*
X150128590Y-94059000D01*
X150669590Y-93518000D02*
X151502000Y-93518000D01*
X131127500Y-90269873D02*
X131437708Y-90580081D01*
X110172500Y-91122500D02*
X110490000Y-90805000D01*
X110172500Y-93027500D02*
X110172500Y-91122500D01*
X110490000Y-90805000D02*
X111042500Y-90252500D01*
X109769500Y-93430500D02*
X110172500Y-93027500D01*
X112077500Y-90252500D02*
X131127500Y-90252500D01*
X111042500Y-90252500D02*
X112077500Y-90252500D01*
%TO.N,/CPU/MOT_PWM3*%
X117557500Y-117005686D02*
X118510686Y-116052500D01*
X114865686Y-122555000D02*
X117557500Y-119863186D01*
X113652500Y-122555000D02*
X114865686Y-122555000D01*
X132414500Y-111108000D02*
X132414500Y-102868500D01*
X127470000Y-116052500D02*
X132414500Y-111108000D01*
X132414500Y-102868500D02*
X133265000Y-102018000D01*
X133265000Y-102018000D02*
X136152000Y-102018000D01*
X117557500Y-119863186D02*
X117557500Y-117005686D01*
X118510686Y-116052500D02*
X127470000Y-116052500D01*
%TO.N,/CPU/SERVO_PWM1*%
X157127500Y-96837500D02*
X156308000Y-96018000D01*
X128186000Y-121310500D02*
X129514500Y-121310500D01*
X156308000Y-96018000D02*
X151502000Y-96018000D01*
X129514500Y-121310500D02*
X129857500Y-120967500D01*
D73*
%TO.N,GND*%
X93932000Y-121364000D02*
X94074500Y-121221500D01*
D71*
X128682000Y-61991500D02*
X128293250Y-62380250D01*
D67*
X127172000Y-92764500D02*
X127172000Y-94256000D01*
D73*
X111442500Y-112558000D02*
X113366000Y-112558000D01*
D71*
X177117000Y-81041500D02*
X177457000Y-81381500D01*
D68*
X174840500Y-88980500D02*
X172864500Y-88980500D01*
X176140750Y-80820250D02*
X175199500Y-81761500D01*
D74*
X160432000Y-137414000D02*
X160289500Y-137556500D01*
D72*
X106680000Y-95916000D02*
X106680000Y-95885000D01*
D73*
X116474500Y-112522000D02*
X119702000Y-112522000D01*
D68*
X181714500Y-89971500D02*
X182072000Y-89614000D01*
D71*
X133778250Y-62467750D02*
X133302000Y-61991500D01*
X152641000Y-123266500D02*
X152641000Y-120690000D01*
X154296000Y-123908000D02*
X152483000Y-123908000D01*
D67*
X165967186Y-101614000D02*
X166360000Y-101614000D01*
D66*
X138327000Y-103693000D02*
X138327000Y-102020500D01*
D71*
X155527000Y-115331500D02*
X154495500Y-114300000D01*
D66*
X166163000Y-97710000D02*
X166163000Y-97498000D01*
D74*
X188372000Y-133866500D02*
X188372000Y-137096500D01*
D75*
X183173000Y-80906500D02*
X182014500Y-80906500D01*
D71*
X141536000Y-123908000D02*
X140100500Y-123908000D01*
X175919500Y-81041500D02*
X177117000Y-81041500D01*
X90454500Y-105790500D02*
X90454500Y-105186500D01*
X176545500Y-123269000D02*
X175720000Y-124094500D01*
D73*
X120049000Y-106956000D02*
X120049000Y-112175000D01*
D67*
X176157000Y-77556500D02*
X176164500Y-77549000D01*
D68*
X188078000Y-70367000D02*
X188277500Y-70167500D01*
D72*
X104138000Y-96605500D02*
X102955500Y-96605500D01*
D75*
X88919500Y-83196500D02*
X89359500Y-83196500D01*
D70*
X100237000Y-95404000D02*
X100237000Y-101939500D01*
D74*
X172672000Y-95414000D02*
X172672000Y-96599000D01*
D68*
X175199500Y-81761500D02*
X172672000Y-81761500D01*
D73*
X108046000Y-127221500D02*
X97622000Y-127221500D01*
D74*
X159972000Y-137874000D02*
X156479500Y-137874000D01*
D75*
X178069500Y-89971500D02*
X177529500Y-89971500D01*
D73*
X102734000Y-112558000D02*
X104648000Y-112558000D01*
D67*
X134620000Y-128785500D02*
X134620000Y-127000000D01*
D73*
X113402000Y-112522000D02*
X115316000Y-112522000D01*
D68*
X138580000Y-81130000D02*
X138580000Y-84604000D01*
D72*
X126021000Y-124560500D02*
X128186000Y-124560500D01*
D66*
X149327000Y-102468429D02*
X147823571Y-100965000D01*
D71*
X138327000Y-88343000D02*
X138327000Y-89323839D01*
D72*
X118779000Y-100923500D02*
X118779000Y-103938500D01*
D67*
X136152000Y-99018000D02*
X136152000Y-99377500D01*
D72*
X162002000Y-93106500D02*
X161787000Y-92891500D01*
D67*
X133981000Y-129424500D02*
X134620000Y-128785500D01*
D71*
X158491000Y-116590000D02*
X158491000Y-115311000D01*
D70*
X115477000Y-112361000D02*
X116313500Y-112361000D01*
D72*
X107857000Y-89239500D02*
X107857000Y-90898000D01*
D75*
X146795750Y-62467750D02*
X146319500Y-61991500D01*
D73*
X97622000Y-127221500D02*
X94074500Y-127221500D01*
X101249626Y-117856000D02*
X105642500Y-117856000D01*
D70*
X100237000Y-102963000D02*
X100237000Y-101939500D01*
D72*
X106680000Y-92075000D02*
X106680000Y-95885000D01*
D73*
X115316000Y-112522000D02*
X116474500Y-112522000D01*
D71*
X133302000Y-61991500D02*
X128682000Y-61991500D01*
D68*
X167955500Y-104775000D02*
X166634500Y-104775000D01*
D71*
X178387000Y-123161500D02*
X178387000Y-120496500D01*
D68*
X90454500Y-108791000D02*
X90454500Y-105790500D01*
D72*
X120049000Y-105208500D02*
X120049000Y-106956000D01*
D71*
X127635000Y-80645000D02*
X127757000Y-80767000D01*
D72*
X94244500Y-71804000D02*
X94244500Y-72469000D01*
D68*
X178069500Y-89971500D02*
X181714500Y-89971500D01*
D71*
X120602000Y-61991500D02*
X115839500Y-61991500D01*
D75*
X88534500Y-83581500D02*
X88919500Y-83196500D01*
D71*
X176229500Y-87591500D02*
X176229500Y-85671500D01*
D72*
X182072000Y-88344000D02*
X182072000Y-89614000D01*
D68*
X203502000Y-123036500D02*
X203502000Y-126041500D01*
D72*
X94730000Y-99805500D02*
X94730000Y-100350500D01*
X106765500Y-95970500D02*
X109338000Y-95970500D01*
D71*
X128079500Y-62594000D02*
X128079500Y-65046500D01*
D72*
X94244500Y-72469000D02*
X94244500Y-73074000D01*
D67*
X166189500Y-90699000D02*
X166089000Y-90699000D01*
D75*
X159337000Y-61991500D02*
X154574500Y-61991500D01*
D72*
X110807500Y-124460000D02*
X113607500Y-124460000D01*
X145255000Y-82386500D02*
X144705000Y-82386500D01*
X94730000Y-93405500D02*
X94730000Y-92860500D01*
D71*
X177054500Y-88016500D02*
X177529500Y-88491500D01*
D66*
X102955500Y-96605500D02*
X102870000Y-96520000D01*
D72*
X165035500Y-92455000D02*
X164384000Y-93106500D01*
D73*
X106314500Y-112558000D02*
X109034000Y-112558000D01*
D68*
X161925000Y-98742500D02*
X161925000Y-97717500D01*
D72*
X113607500Y-124460000D02*
X113652500Y-124505000D01*
D71*
X175804500Y-88016500D02*
X177054500Y-88016500D01*
D67*
X90702000Y-117039500D02*
X90581500Y-116919000D01*
D66*
X165035500Y-92455000D02*
X165089000Y-92401500D01*
D74*
X106249500Y-120094000D02*
X105642500Y-119487000D01*
D66*
X151502000Y-90518000D02*
X149890500Y-90518000D01*
D71*
X176309500Y-94481500D02*
X176229500Y-94401500D01*
X140195000Y-120690000D02*
X140195000Y-123647500D01*
D72*
X128620500Y-104924000D02*
X128620500Y-106680000D01*
X90454500Y-110251500D02*
X90454500Y-108791000D01*
D74*
X90454500Y-105186500D02*
X89975000Y-104707000D01*
D71*
X181516500Y-72687000D02*
X180712000Y-71882500D01*
X152483000Y-123908000D02*
X152400000Y-123825000D01*
D73*
X115477000Y-106956000D02*
X115477000Y-112361000D01*
D75*
X141029500Y-62519000D02*
X141029500Y-65056500D01*
D72*
X94730000Y-100350500D02*
X94155000Y-100925500D01*
D75*
X89169500Y-86439000D02*
X88534500Y-85804000D01*
D74*
X101044000Y-95329000D02*
X102235000Y-96520000D01*
X184752000Y-107714000D02*
X184752000Y-106139000D01*
D72*
X141033500Y-118618000D02*
X141239500Y-118824000D01*
D68*
X130847000Y-92386500D02*
X132032000Y-92386500D01*
X90454500Y-114887000D02*
X90454500Y-111839000D01*
X139148500Y-80561500D02*
X138580000Y-81130000D01*
D72*
X182382500Y-94376500D02*
X181952000Y-94807000D01*
X161787000Y-92891500D02*
X161787000Y-92224000D01*
D70*
X94155000Y-103172000D02*
X94884500Y-103901500D01*
D72*
X119851500Y-82386500D02*
X121907000Y-82386500D01*
D68*
X146045000Y-116590000D02*
X146045000Y-115257500D01*
D71*
X158491000Y-115311000D02*
X158432500Y-115252500D01*
D73*
X104648000Y-112558000D02*
X105410000Y-112558000D01*
D72*
X165847500Y-104254500D02*
X165847500Y-102755500D01*
D71*
X128293250Y-62380250D02*
X128079500Y-62594000D01*
D72*
X183257500Y-94376500D02*
X182382500Y-94376500D01*
D75*
X146319500Y-61991500D02*
X141557000Y-61991500D01*
D68*
X118990000Y-80561500D02*
X118990000Y-81525000D01*
D67*
X165847500Y-102126500D02*
X165847500Y-102755500D01*
D72*
X107857000Y-90898000D02*
X106680000Y-92075000D01*
X181952000Y-94807000D02*
X181952000Y-96386500D01*
D66*
X149890500Y-90518000D02*
X149860000Y-90487500D01*
D70*
X94155000Y-100925500D02*
X94155000Y-103172000D01*
X115477000Y-112361000D02*
X115316000Y-112522000D01*
X195334500Y-73301500D02*
X196484500Y-72151500D01*
D72*
X141239500Y-118824000D02*
X142859500Y-118824000D01*
D71*
X182851500Y-72687000D02*
X181516500Y-72687000D01*
X175579500Y-96526500D02*
X175579500Y-95051500D01*
D68*
X180609500Y-71598000D02*
X180609500Y-69929000D01*
D75*
X175579500Y-88241500D02*
X176138250Y-87682750D01*
D74*
X175354500Y-133866500D02*
X175354500Y-137414000D01*
D71*
X177404500Y-123269000D02*
X178279500Y-123269000D01*
D75*
X167274500Y-101361500D02*
X167274500Y-99139000D01*
D70*
X195334500Y-73914000D02*
X195334500Y-73301500D01*
D75*
X88534500Y-85804000D02*
X88534500Y-83581500D01*
D71*
X177404500Y-123269000D02*
X176545500Y-123269000D01*
D66*
X138327000Y-102020500D02*
X138430000Y-101917500D01*
D67*
X165589000Y-90699000D02*
X166089000Y-90699000D01*
D75*
X141557000Y-61991500D02*
X141239500Y-62309000D01*
D71*
X176229500Y-94401500D02*
X176229500Y-92226500D01*
D72*
X167036000Y-89852500D02*
X167638000Y-89852500D01*
X105990500Y-96605500D02*
X106680000Y-95916000D01*
D75*
X141239500Y-62309000D02*
X141029500Y-62519000D01*
D74*
X160289500Y-137556500D02*
X159972000Y-137874000D01*
D66*
X106680000Y-95885000D02*
X106765500Y-95970500D01*
D68*
X203502000Y-117786500D02*
X203502000Y-123036500D01*
D67*
X133206000Y-129424500D02*
X133981000Y-129424500D01*
D68*
X141088000Y-80561500D02*
X139148500Y-80561500D01*
D72*
X181879500Y-82946500D02*
X177597000Y-82946500D01*
X121907000Y-82386500D02*
X123182000Y-82386500D01*
D71*
X177529500Y-95424000D02*
X177529500Y-96526500D01*
D73*
X105410000Y-112558000D02*
X106314500Y-112558000D01*
D70*
X89402000Y-91712500D02*
X89975000Y-92285500D01*
D72*
X143715500Y-119268000D02*
X145927000Y-119268000D01*
D74*
X174894500Y-137874000D02*
X173624500Y-137874000D01*
D71*
X152641000Y-114376500D02*
X152717500Y-114300000D01*
D74*
X183324500Y-65046500D02*
X183324500Y-61849000D01*
D72*
X90702000Y-117039500D02*
X90454500Y-116792000D01*
D67*
X165847500Y-102126500D02*
X165847500Y-101733686D01*
D66*
X165089000Y-92401500D02*
X165089000Y-92224000D01*
D71*
X176157000Y-78786500D02*
X176157000Y-77556500D01*
X155152500Y-118640000D02*
X155527000Y-118640000D01*
X138795003Y-89791842D02*
X138795003Y-89852500D01*
D68*
X118990000Y-81525000D02*
X119851500Y-82386500D01*
X175238500Y-95392500D02*
X172744500Y-95392500D01*
D71*
X152523000Y-118640000D02*
X155152500Y-118640000D01*
D73*
X109034000Y-112558000D02*
X111442500Y-112558000D01*
D68*
X203502000Y-126041500D02*
X203502000Y-131291500D01*
D66*
X149327000Y-103693000D02*
X149327000Y-102468429D01*
D72*
X107489250Y-84629250D02*
X107857000Y-84997000D01*
D68*
X140195000Y-116590000D02*
X140195000Y-114440000D01*
X143144500Y-118539000D02*
X143144500Y-115331500D01*
D73*
X109381000Y-106956000D02*
X109381000Y-112211000D01*
D72*
X141088000Y-80561500D02*
X144696500Y-80561500D01*
D73*
X94074500Y-127221500D02*
X93932000Y-127079000D01*
D72*
X128620500Y-106680000D02*
X128620500Y-108204500D01*
D70*
X94884500Y-103901500D02*
X99298500Y-103901500D01*
D74*
X198389500Y-102631500D02*
X198227000Y-102469000D01*
X198227000Y-102469000D02*
X195224500Y-102469000D01*
D73*
X94074500Y-121221500D02*
X97622000Y-121221500D01*
D74*
X105642500Y-119487000D02*
X105642500Y-117856000D01*
D71*
X140195000Y-114440000D02*
X140335000Y-114300000D01*
X175919500Y-81041500D02*
X176140750Y-80820250D01*
D74*
X100162000Y-95329000D02*
X101044000Y-95329000D01*
X102235000Y-96520000D02*
X102870000Y-96520000D01*
D72*
X118779000Y-98383500D02*
X118779000Y-100923500D01*
D68*
X96837000Y-77549000D02*
X98377000Y-77549000D01*
D71*
X121078250Y-62467750D02*
X120602000Y-61991500D01*
X115839500Y-61991500D02*
X115363250Y-62467750D01*
D67*
X165847500Y-101733686D02*
X165967186Y-101614000D01*
D71*
X175505750Y-81455250D02*
X176140750Y-80820250D01*
D68*
X188078000Y-71882500D02*
X188078000Y-70367000D01*
X90454500Y-116792000D02*
X90454500Y-114887000D01*
X90454500Y-107394000D02*
X90454500Y-110251500D01*
D74*
X187594500Y-137874000D02*
X187277000Y-138191500D01*
D71*
X152641000Y-116590000D02*
X152641000Y-114376500D01*
D72*
X164384000Y-93106500D02*
X163464500Y-93106500D01*
D71*
X143065500Y-118618000D02*
X143144500Y-118539000D01*
D67*
X120650000Y-128270000D02*
X120650000Y-126682500D01*
X119805000Y-129115000D02*
X120650000Y-128270000D01*
D71*
X115363250Y-62467750D02*
X115062000Y-62769000D01*
X138327000Y-88343000D02*
X138327000Y-84857000D01*
X176309500Y-94481500D02*
X176587000Y-94481500D01*
X140100500Y-123908000D02*
X140017500Y-123825000D01*
D67*
X165663000Y-97498000D02*
X166163000Y-97498000D01*
D72*
X140077000Y-118618000D02*
X141033500Y-118618000D01*
D71*
X175804500Y-88016500D02*
X176229500Y-87591500D01*
X176140750Y-80820250D02*
X176140750Y-78802750D01*
D68*
X168719500Y-61356500D02*
X168719500Y-65046500D01*
D67*
X166360000Y-101614000D02*
X167022000Y-101614000D01*
D70*
X105410000Y-112558000D02*
X105642500Y-112790500D01*
D67*
X136152000Y-99377500D02*
X137795000Y-99377500D01*
D72*
X135521500Y-84604000D02*
X138580000Y-84604000D01*
X171132500Y-73660000D02*
X171588500Y-73204000D01*
X143065500Y-118618000D02*
X143715500Y-119268000D01*
D75*
X167274500Y-99139000D02*
X167274500Y-98821500D01*
X94244500Y-72469000D02*
X92344500Y-72469000D01*
D68*
X130444500Y-92789000D02*
X130847000Y-92386500D01*
D72*
X166322000Y-90566500D02*
X167036000Y-89852500D01*
X144696500Y-80561500D02*
X145255000Y-81120000D01*
D71*
X182851500Y-72687000D02*
X184076500Y-72687000D01*
D75*
X159813250Y-62467750D02*
X159337000Y-61991500D01*
D71*
X155527000Y-118640000D02*
X156177000Y-119290000D01*
X149860000Y-80645000D02*
X149860000Y-82381500D01*
D72*
X104138000Y-96605500D02*
X105990500Y-96605500D01*
D68*
X166368000Y-104775000D02*
X165847500Y-104254500D01*
D66*
X136152000Y-94518000D02*
X134713500Y-94518000D01*
D68*
X142113000Y-114300000D02*
X140335000Y-114300000D01*
D71*
X178279500Y-123269000D02*
X178387000Y-123161500D01*
D72*
X182238500Y-87667500D02*
X182072000Y-87834000D01*
D74*
X172672000Y-89064000D02*
X172672000Y-90249000D01*
D72*
X142859500Y-118824000D02*
X143065500Y-118618000D01*
D75*
X154094500Y-62471500D02*
X154094500Y-65046500D01*
D73*
X105642500Y-112790500D02*
X105642500Y-117856000D01*
D74*
X143144500Y-137874000D02*
X146954500Y-137874000D01*
D71*
X127757000Y-80767000D02*
X127757000Y-82386500D01*
D75*
X181879500Y-81041500D02*
X181879500Y-82946500D01*
D67*
X119120500Y-129115000D02*
X119805000Y-129115000D01*
D68*
X176229500Y-94401500D02*
X175238500Y-95392500D01*
D72*
X134713500Y-94518000D02*
X132582000Y-92386500D01*
D71*
X175505750Y-83085250D02*
X175505750Y-81455250D01*
X177457000Y-81381500D02*
X177457000Y-83086500D01*
X152400000Y-123507500D02*
X152641000Y-123266500D01*
D72*
X145255000Y-81120000D02*
X145255000Y-82386500D01*
X107857000Y-84997000D02*
X107857000Y-89239500D01*
D71*
X176587000Y-94481500D02*
X177529500Y-95424000D01*
D74*
X172672000Y-81761500D02*
X172672000Y-82946500D01*
D71*
X140195000Y-123647500D02*
X140017500Y-123825000D01*
D74*
X184752000Y-106139000D02*
X184737000Y-106124000D01*
D72*
X135521500Y-84604000D02*
X135521500Y-87376500D01*
D71*
X115062000Y-62769000D02*
X115062000Y-65046500D01*
D66*
X137574500Y-94518000D02*
X137795000Y-94297500D01*
D71*
X155527000Y-118640000D02*
X155527000Y-115331500D01*
D68*
X143144500Y-115331500D02*
X142113000Y-114300000D01*
D72*
X94730000Y-92860500D02*
X94155000Y-92285500D01*
D71*
X175579500Y-88241500D02*
X175804500Y-88016500D01*
D67*
X166322000Y-90566500D02*
X166189500Y-90699000D01*
D71*
X177529500Y-88491500D02*
X177529500Y-89971500D01*
D72*
X183299500Y-87667500D02*
X182238500Y-87667500D01*
D74*
X175354500Y-137414000D02*
X174894500Y-137874000D01*
D66*
X147823571Y-100965000D02*
X147320000Y-100965000D01*
D71*
X175579500Y-89971500D02*
X175579500Y-88241500D01*
D72*
X171588500Y-73204000D02*
X172249500Y-73204000D01*
X163464500Y-93106500D02*
X162002000Y-93106500D01*
D66*
X136152000Y-94518000D02*
X137574500Y-94518000D01*
D70*
X116313500Y-112361000D02*
X116474500Y-112522000D01*
D73*
X93932000Y-127079000D02*
X93932000Y-121364000D01*
D75*
X182014500Y-80906500D02*
X181879500Y-81041500D01*
D74*
X147414500Y-137414000D02*
X147414500Y-133866500D01*
D73*
X104809000Y-106956000D02*
X104809000Y-112397000D01*
D74*
X188372000Y-137096500D02*
X187594500Y-137874000D01*
D71*
X156177000Y-119290000D02*
X158373000Y-119290000D01*
X152400000Y-123825000D02*
X152400000Y-123507500D01*
D74*
X89975000Y-104707000D02*
X89975000Y-100925500D01*
D72*
X171132500Y-74612500D02*
X171132500Y-73660000D01*
D67*
X136152000Y-99377500D02*
X136152000Y-99518000D01*
D75*
X154257000Y-62309000D02*
X154094500Y-62471500D01*
X154574500Y-61991500D02*
X154257000Y-62309000D01*
D71*
X96408500Y-83346500D02*
X97042000Y-83346500D01*
X154495500Y-114300000D02*
X152717500Y-114300000D01*
D68*
X90454500Y-111839000D02*
X90454500Y-110251500D01*
D73*
X101222964Y-117882662D02*
X101249626Y-117856000D01*
D74*
X187277000Y-138191500D02*
X186642000Y-138191500D01*
X183324500Y-61849000D02*
X183149500Y-61674000D01*
D71*
X177669500Y-96386500D02*
X177529500Y-96526500D01*
D75*
X167274500Y-98821500D02*
X166163000Y-97710000D01*
D68*
X176138250Y-87682750D02*
X174840500Y-88980500D01*
D72*
X125999500Y-124539000D02*
X126021000Y-124560500D01*
D74*
X146954500Y-137874000D02*
X147414500Y-137414000D01*
D70*
X104809000Y-112397000D02*
X104648000Y-112558000D01*
D71*
X138327000Y-89323839D02*
X138795003Y-89791842D01*
D74*
X160432000Y-133866500D02*
X160432000Y-137414000D01*
D70*
X89402000Y-86439000D02*
X89402000Y-91712500D01*
D71*
X177597000Y-82946500D02*
X177457000Y-83086500D01*
D70*
X99298500Y-103901500D02*
X100237000Y-102963000D01*
D72*
X118779000Y-103938500D02*
X120049000Y-105208500D01*
D68*
X197877000Y-87269000D02*
X198072000Y-87074000D01*
D73*
X110807500Y-124460000D02*
X108046000Y-127221500D01*
D71*
X178387000Y-120496500D02*
X177667000Y-119776500D01*
D72*
X181952000Y-96386500D02*
X177669500Y-96386500D01*
D71*
X146045000Y-115257500D02*
X146050000Y-115252500D01*
D72*
X182072000Y-87834000D02*
X182072000Y-88344000D01*
D75*
X167022000Y-101614000D02*
X167274500Y-101361500D01*
D70*
X195334500Y-87269000D02*
X197877000Y-87269000D01*
D67*
%TO.N,/CPU/ENCODER_3_PHA*%
X139782500Y-91205000D02*
X139782500Y-95777000D01*
X137505050Y-90552500D02*
X139130000Y-90552500D01*
X150495000Y-117475000D02*
X151010000Y-117990000D01*
X136152000Y-90518000D02*
X137470550Y-90518000D01*
X151010000Y-117990000D02*
X152523000Y-117990000D01*
X137470550Y-90518000D02*
X137505050Y-90552500D01*
X139782500Y-95777000D02*
X140208000Y-96202500D01*
X140208000Y-96202500D02*
X142557500Y-96202500D01*
X150495000Y-116030000D02*
X150495000Y-117475000D01*
X139130000Y-90552500D02*
X139782500Y-91205000D01*
%TO.N,Net-(J14-Pin_2)*%
X145367000Y-68659000D02*
X145367000Y-65394000D01*
X145367000Y-70834000D02*
X145367000Y-68659000D01*
X146605000Y-80882500D02*
X146050000Y-80327500D01*
X146605000Y-82386500D02*
X146605000Y-80882500D01*
%TO.N,/Power & Analog/USB2-DP*%
X111523345Y-100372500D02*
X112073418Y-100372500D01*
X111070923Y-99145500D02*
X111461673Y-99536250D01*
X111551327Y-100310827D02*
X112164000Y-100923500D01*
X109338000Y-99145500D02*
X111070923Y-99145500D01*
X111461673Y-100310827D02*
X111551327Y-100310827D01*
X111461673Y-99536250D02*
X111461673Y-100310827D01*
X111461673Y-100310827D02*
X111523345Y-100372500D01*
%TO.N,Net-(J15-Pin_1)*%
X139652000Y-68659000D02*
X141029500Y-68659000D01*
X148224500Y-74056500D02*
X139969500Y-74056500D01*
X139652000Y-73739000D02*
X139652000Y-68659000D01*
X148555000Y-76661500D02*
X148555000Y-74387000D01*
X148555000Y-74387000D02*
X148224500Y-74056500D01*
X139969500Y-74056500D02*
X139652000Y-73739000D01*
%TO.N,Net-(J15-Pin_2)*%
X149205000Y-72179500D02*
X148859500Y-71834000D01*
X144097000Y-71516500D02*
X144097000Y-68659000D01*
X144414500Y-71834000D02*
X144097000Y-71516500D01*
X144097000Y-68659000D02*
X143029500Y-68659000D01*
X148859500Y-71834000D02*
X144414500Y-71834000D01*
X149205000Y-76661500D02*
X149205000Y-72179500D01*
D66*
%TO.N,Net-(J16-Pin_1)*%
X149225000Y-80010000D02*
X149223602Y-80008602D01*
D67*
X160289500Y-68659000D02*
X160289500Y-65241500D01*
D66*
X149133000Y-80102000D02*
X149225000Y-80010000D01*
D67*
X149133000Y-82314500D02*
X149133000Y-80102000D01*
X160289500Y-70834000D02*
X160289500Y-68659000D01*
%TO.N,Net-(J16-Pin_2)*%
X158384500Y-70834000D02*
X158384500Y-65336500D01*
X148555000Y-80292500D02*
X148272500Y-80010000D01*
X148555000Y-82386500D02*
X148555000Y-80292500D01*
%TO.N,Net-(J17-Pin_2)*%
X147255000Y-76661500D02*
X147255000Y-75026000D01*
X147255000Y-75026000D02*
X147589500Y-74691500D01*
%TO.N,Net-(J17-Pin_1)*%
X146605000Y-74723500D02*
X146637000Y-74691500D01*
X146605000Y-76661500D02*
X146605000Y-74723500D01*
D71*
%TO.N,Net-(J18-Pin_2)*%
X189004000Y-88839500D02*
X189499500Y-88344000D01*
X189499500Y-84216500D02*
X192357000Y-81359000D01*
X189499500Y-88344000D02*
X189499500Y-84216500D01*
X198389500Y-78184000D02*
X198119500Y-77914000D01*
X197754500Y-81359000D02*
X198389500Y-80724000D01*
X187642000Y-88839500D02*
X189004000Y-88839500D01*
X192357000Y-81359000D02*
X197754500Y-81359000D01*
X198119500Y-77914000D02*
X195334500Y-77914000D01*
X198389500Y-80724000D02*
X198389500Y-78184000D01*
%TO.N,Net-(J19-Pin_2)*%
X189499500Y-77231500D02*
X189182000Y-77549000D01*
X189182000Y-81676500D02*
X188652000Y-82206500D01*
X189182000Y-77549000D02*
X189182000Y-81676500D01*
X188652000Y-82206500D02*
X187642000Y-82206500D01*
X192039500Y-77231500D02*
X189499500Y-77231500D01*
D67*
%TO.N,/GPIO SPI GEN_PWM/IO1*%
X169354500Y-130444000D02*
X169497000Y-130301500D01*
X169497000Y-130301500D02*
X169497000Y-129349000D01*
X169354500Y-130444000D02*
X169354500Y-133866500D01*
D66*
%TO.N,+3.3V*%
X165401500Y-101614000D02*
X165901500Y-101114000D01*
D68*
X161787000Y-95504500D02*
X161787000Y-94604000D01*
D66*
X136152000Y-92518000D02*
X137669500Y-92518000D01*
D72*
X174345500Y-86841500D02*
X175444500Y-86841500D01*
D71*
X144144500Y-72834000D02*
X144097000Y-72786500D01*
X89359500Y-82696500D02*
X89672432Y-82696500D01*
D75*
X174625000Y-71254000D02*
X172249500Y-71254000D01*
D66*
X139430003Y-101945631D02*
X139430003Y-101917500D01*
X166360000Y-100614000D02*
X166360000Y-99908250D01*
D68*
X162908500Y-104775000D02*
X164559500Y-104775000D01*
X94279500Y-69899000D02*
X94884500Y-69294000D01*
D71*
X150447000Y-102631500D02*
X149827000Y-103251500D01*
D74*
X183147000Y-109614000D02*
X184752000Y-109614000D01*
D67*
X164826500Y-91211500D02*
X164826500Y-90961500D01*
D72*
X130420000Y-99082000D02*
X130420000Y-100165821D01*
D66*
X149935634Y-91440000D02*
X149907503Y-91440000D01*
D72*
X121733500Y-76835000D02*
X119380000Y-76835000D01*
D74*
X91709500Y-86439000D02*
X92662000Y-87391500D01*
D75*
X176474500Y-71254000D02*
X176474500Y-70889000D01*
D71*
X182851500Y-73337000D02*
X181332500Y-73337000D01*
X176474500Y-73204000D02*
X174359500Y-73204000D01*
X156896000Y-123908000D02*
X158349500Y-123908000D01*
D67*
X167590000Y-95011500D02*
X167749750Y-95171250D01*
D68*
X172744500Y-93317500D02*
X174488500Y-93317500D01*
D74*
X145049500Y-136604000D02*
X145414500Y-136239000D01*
D71*
X143841500Y-82550000D02*
X144005000Y-82386500D01*
X145367000Y-72834000D02*
X144144500Y-72834000D01*
X181625500Y-123269000D02*
X181752500Y-123142000D01*
D68*
X168656000Y-71158000D02*
X170718000Y-71158000D01*
X128905000Y-120094000D02*
X128905000Y-116649500D01*
D71*
X145649500Y-123908000D02*
X145732500Y-123825000D01*
D74*
X191087000Y-104536500D02*
X191087000Y-105171500D01*
D71*
X180004500Y-123269000D02*
X179129500Y-123269000D01*
D66*
X178016215Y-80906500D02*
X180573000Y-80906500D01*
D75*
X167749750Y-95171250D02*
X167907500Y-95329000D01*
D71*
X156625000Y-116567000D02*
X156625000Y-113560000D01*
D72*
X141088000Y-78486500D02*
X141088000Y-77352000D01*
D74*
X191087000Y-105171500D02*
X190769500Y-104854000D01*
D66*
X136152000Y-100018000D02*
X133038000Y-100018000D01*
D75*
X167907500Y-95329000D02*
X167907500Y-97234000D01*
D71*
X158349500Y-123908000D02*
X158432500Y-123825000D01*
D66*
X177830232Y-80720517D02*
X178016215Y-80906500D01*
D74*
X190769500Y-104854000D02*
X182514500Y-104854000D01*
D68*
X133468000Y-87398000D02*
X133468000Y-88383000D01*
D66*
X165901500Y-101114000D02*
X166360000Y-101114000D01*
D75*
X164352000Y-101614000D02*
X163782000Y-101044000D01*
D71*
X96408500Y-82546500D02*
X97042000Y-82546500D01*
X179129500Y-123269000D02*
X179022000Y-123161500D01*
D68*
X118990000Y-78486500D02*
X118990000Y-77225000D01*
D72*
X175001000Y-93317500D02*
X175579500Y-92739000D01*
D71*
X174609500Y-78786500D02*
X174259500Y-79136500D01*
X90122000Y-83146068D02*
X90122000Y-84534000D01*
D74*
X182514500Y-104854000D02*
X182514500Y-108981500D01*
D72*
X186324500Y-136604000D02*
X186372000Y-136556500D01*
D74*
X195224500Y-104469000D02*
X191154500Y-104469000D01*
D66*
X177718225Y-87690275D02*
X177741000Y-87667500D01*
D68*
X157749500Y-136604000D02*
X158067000Y-136604000D01*
X161956000Y-88900000D02*
X165098000Y-88900000D01*
D72*
X135868500Y-124560500D02*
X133926000Y-124560500D01*
D68*
X128905000Y-116649500D02*
X128857000Y-116601500D01*
D72*
X177584500Y-73254000D02*
X176474500Y-73254000D01*
D66*
X164835000Y-101614000D02*
X164352000Y-101614000D01*
D74*
X182514500Y-108981500D02*
X183147000Y-109614000D01*
D72*
X177897000Y-94164000D02*
X178109500Y-94376500D01*
D74*
X185372000Y-136604000D02*
X186324500Y-136604000D01*
D67*
X165163000Y-97498000D02*
X165163000Y-97135068D01*
D71*
X180004500Y-123269000D02*
X181625500Y-123269000D01*
D66*
X137515497Y-95018000D02*
X137795000Y-95297503D01*
D74*
X186372000Y-136556500D02*
X186372000Y-133866500D01*
D68*
X94884500Y-69294000D02*
X95519500Y-69294000D01*
D75*
X121882000Y-76686500D02*
X121733500Y-76835000D01*
D72*
X141088000Y-77352000D02*
X141778500Y-76661500D01*
X115020000Y-119237500D02*
X113652500Y-120605000D01*
D66*
X165163000Y-98711250D02*
X165163000Y-97498000D01*
D71*
X96901000Y-114935000D02*
X100330000Y-114935000D01*
D70*
X102734000Y-114858000D02*
X100407000Y-114858000D01*
D74*
X173307000Y-136604000D02*
X173354500Y-136556500D01*
D75*
X173942000Y-71254000D02*
X173942000Y-72786500D01*
D72*
X130420000Y-99082000D02*
X132058000Y-99082000D01*
D68*
X163792000Y-71158000D02*
X165726000Y-71158000D01*
D66*
X136152000Y-95018000D02*
X137515497Y-95018000D01*
D71*
X175570750Y-86715250D02*
X175579500Y-86706500D01*
X170767000Y-71204000D02*
X170719500Y-71156500D01*
D68*
X160289500Y-72834000D02*
X158384500Y-72834000D01*
D71*
X119332000Y-72834000D02*
X118109500Y-72834000D01*
D72*
X178109500Y-94376500D02*
X180657500Y-94376500D01*
D71*
X143341521Y-82550000D02*
X143841500Y-82550000D01*
D75*
X165089000Y-90699000D02*
X165089000Y-88909000D01*
D71*
X144623000Y-117318000D02*
X144157500Y-116852500D01*
D68*
X133446500Y-84604000D02*
X133446500Y-87376500D01*
D66*
X150357634Y-91018000D02*
X149935634Y-91440000D01*
D71*
X157162000Y-72834000D02*
X157114500Y-72786500D01*
D67*
X166004500Y-91711500D02*
X165504500Y-91211500D01*
D71*
X134254500Y-72834000D02*
X132349500Y-72834000D01*
D72*
X121110000Y-124412000D02*
X121017000Y-124505000D01*
X178704500Y-73957500D02*
X178288000Y-73957500D01*
D68*
X158384500Y-72834000D02*
X157162000Y-72834000D01*
X115020000Y-116544000D02*
X115020000Y-119237500D01*
X174345500Y-86841500D02*
X174281500Y-86905500D01*
D72*
X115014000Y-116538000D02*
X115020000Y-116544000D01*
D68*
X161787000Y-94604000D02*
X160289500Y-93106500D01*
D66*
X166360000Y-101114000D02*
X166360000Y-100614000D01*
X166163000Y-95486000D02*
X166637500Y-95011500D01*
D72*
X129120000Y-101465821D02*
X129120000Y-102130000D01*
D74*
X172672000Y-79686500D02*
X173709500Y-79686500D01*
D66*
X137669500Y-92518000D02*
X137795000Y-92392500D01*
X137827000Y-88343000D02*
X137827000Y-89820500D01*
D71*
X147272000Y-72834000D02*
X145367000Y-72834000D01*
X144136000Y-123908000D02*
X145649500Y-123908000D01*
D68*
X118990000Y-77225000D02*
X119380000Y-76835000D01*
D66*
X166360000Y-99908250D02*
X165163000Y-98711250D01*
D74*
X144414500Y-136604000D02*
X145049500Y-136604000D01*
D68*
X160528000Y-72882000D02*
X162068000Y-72882000D01*
D74*
X173354500Y-136556500D02*
X173354500Y-133866500D01*
D75*
X176474500Y-71254000D02*
X174625000Y-71254000D01*
D71*
X90439500Y-84851500D02*
X91074500Y-84851500D01*
D74*
X191154500Y-104469000D02*
X191087000Y-104536500D01*
X172513250Y-136604000D02*
X173307000Y-136604000D01*
D71*
X167806000Y-97335500D02*
X166825500Y-97335500D01*
D72*
X130420000Y-100165821D02*
X129120000Y-101465821D01*
X132080000Y-95906000D02*
X129272000Y-95906000D01*
D66*
X151502000Y-90018000D02*
X153187000Y-90018000D01*
D71*
X158115000Y-113665000D02*
X158010000Y-113560000D01*
D74*
X158432000Y-136239000D02*
X158432000Y-133866500D01*
D67*
X166163000Y-96135068D02*
X166163000Y-95673000D01*
D68*
X174281500Y-86905500D02*
X172864500Y-86905500D01*
X165089000Y-88891000D02*
X165098000Y-88900000D01*
D75*
X173942000Y-72786500D02*
X174359500Y-73204000D01*
D68*
X161787000Y-90149000D02*
X160389500Y-90149000D01*
D71*
X144157500Y-116852500D02*
X144157500Y-113560000D01*
D68*
X165089000Y-86350000D02*
X165089000Y-88891000D01*
X165089000Y-86350000D02*
X167272500Y-86350000D01*
X162829500Y-104854000D02*
X162908500Y-104775000D01*
D71*
X131127000Y-72834000D02*
X131079500Y-72786500D01*
X158373000Y-117340000D02*
X157398000Y-117340000D01*
D66*
X133038000Y-100018000D02*
X132080000Y-99060000D01*
D68*
X161787000Y-90149000D02*
X161787000Y-89069000D01*
D71*
X91477000Y-85254000D02*
X91477000Y-86439000D01*
D72*
X128905000Y-120094000D02*
X128338500Y-120660500D01*
D71*
X91074500Y-84851500D02*
X91477000Y-85254000D01*
D67*
X166351500Y-91711500D02*
X166004500Y-91711500D01*
D75*
X167907500Y-97234000D02*
X167806000Y-97335500D01*
D67*
X165089000Y-88909000D02*
X165098000Y-88900000D01*
D72*
X180712000Y-73957500D02*
X178704500Y-73957500D01*
D66*
X137827000Y-89820500D02*
X137795000Y-89852500D01*
D71*
X118109500Y-72834000D02*
X118062000Y-72786500D01*
D70*
X106680000Y-105410000D02*
X106680000Y-106330000D01*
D71*
X133207000Y-76676500D02*
X133287000Y-76596500D01*
X145927000Y-117318000D02*
X144623000Y-117318000D01*
D67*
X164826500Y-90961500D02*
X165089000Y-90699000D01*
D74*
X158067000Y-136604000D02*
X158432000Y-136239000D01*
D66*
X164835000Y-101614000D02*
X165401500Y-101614000D01*
D68*
X165726000Y-71158000D02*
X168656000Y-71158000D01*
X176847000Y-70516500D02*
X176847000Y-68659000D01*
D71*
X157398000Y-117340000D02*
X156625000Y-116567000D01*
D70*
X106680000Y-106330000D02*
X107306000Y-106956000D01*
D66*
X153187000Y-90018000D02*
X153352500Y-89852500D01*
X177741000Y-87667500D02*
X180699500Y-87667500D01*
D71*
X145945000Y-113560000D02*
X146050000Y-113665000D01*
D68*
X133446500Y-84604000D02*
X133446500Y-81281000D01*
D72*
X132058000Y-99082000D02*
X132080000Y-99060000D01*
D68*
X174488500Y-93317500D02*
X175001000Y-93317500D01*
D71*
X132349500Y-72834000D02*
X131127000Y-72834000D01*
D74*
X145414500Y-136239000D02*
X145414500Y-133866500D01*
D71*
X90122000Y-84534000D02*
X90439500Y-84851500D01*
X144157500Y-113560000D02*
X145945000Y-113560000D01*
D68*
X161787000Y-89069000D02*
X161956000Y-88900000D01*
X133468000Y-88383000D02*
X133985000Y-88900000D01*
X160289500Y-93106500D02*
X160289500Y-90249000D01*
D71*
X179022000Y-123161500D02*
X179022000Y-120496500D01*
X181332500Y-73337000D02*
X180712000Y-73957500D01*
D72*
X135890000Y-124539000D02*
X135868500Y-124560500D01*
X141778500Y-76661500D02*
X144005000Y-76661500D01*
D67*
X165504500Y-91211500D02*
X164826500Y-91211500D01*
D72*
X137777000Y-88343000D02*
X137220000Y-88900000D01*
D71*
X175507000Y-78786500D02*
X174609500Y-78786500D01*
D66*
X151502000Y-91018000D02*
X150357634Y-91018000D01*
D72*
X132080000Y-95906000D02*
X132080000Y-94509500D01*
X170767000Y-71204000D02*
X172249500Y-71204000D01*
D66*
X138827000Y-102548634D02*
X139430003Y-101945631D01*
D71*
X119014500Y-72834000D02*
X121237000Y-72834000D01*
D72*
X121017000Y-124505000D02*
X119392500Y-124505000D01*
D75*
X166637500Y-95011500D02*
X167590000Y-95011500D01*
D68*
X162068000Y-72882000D02*
X163792000Y-71158000D01*
D66*
X138827000Y-103693000D02*
X138827000Y-102548634D01*
D74*
X173709500Y-79686500D02*
X174259500Y-79136500D01*
D72*
X178288000Y-73957500D02*
X177584500Y-73254000D01*
X175444500Y-86841500D02*
X175570750Y-86715250D01*
D67*
X165163000Y-97135068D02*
X166163000Y-96135068D01*
D71*
X179022000Y-120496500D02*
X179742000Y-119776500D01*
D68*
X180712000Y-73957500D02*
X180712000Y-75224000D01*
X170719500Y-71156500D02*
X170719500Y-68659000D01*
D70*
X100407000Y-114858000D02*
X100330000Y-114935000D01*
D71*
X175579500Y-86706500D02*
X175579500Y-85671500D01*
D66*
X149907503Y-91440000D02*
X149860000Y-91487503D01*
D68*
X94279500Y-70534000D02*
X94279500Y-69899000D01*
D71*
X89672432Y-82696500D02*
X90122000Y-83146068D01*
D68*
X180712000Y-75224000D02*
X180609500Y-75326500D01*
X160389500Y-90149000D02*
X160289500Y-90249000D01*
D71*
X133207000Y-78091500D02*
X133207000Y-76676500D01*
D72*
X137220000Y-88900000D02*
X133985000Y-88900000D01*
X176474500Y-70889000D02*
X176847000Y-70516500D01*
D75*
X175579500Y-92739000D02*
X175579500Y-92226500D01*
D71*
X158010000Y-113560000D02*
X156625000Y-113560000D01*
D67*
%TO.N,/CPU/MOT_PWM1*%
X132344500Y-101018000D02*
X131714500Y-101648000D01*
X131714500Y-110538000D02*
X127000000Y-115252500D01*
X116757500Y-116605000D02*
X116757500Y-119462500D01*
X114965000Y-121255000D02*
X113652500Y-121255000D01*
X116757500Y-119462500D02*
X114965000Y-121255000D01*
X136152000Y-101018000D02*
X132344500Y-101018000D01*
X131714500Y-101648000D02*
X131714500Y-110538000D01*
X118110000Y-115252500D02*
X116757500Y-116605000D01*
X127000000Y-115252500D02*
X118110000Y-115252500D01*
%TO.N,/GPIO SPI GEN_PWM/AN1*%
X190817000Y-108664000D02*
X195029500Y-108664000D01*
%TO.N,/GPIO SPI GEN_PWM/IO4*%
X182372000Y-130476500D02*
X182197000Y-130301500D01*
X182372000Y-133866500D02*
X182372000Y-130476500D01*
X182197000Y-130301500D02*
X182197000Y-129349000D01*
%TO.N,Net-(J23-Pin_1)*%
X174847000Y-67389000D02*
X174847000Y-65174000D01*
X176474500Y-71904000D02*
X177651000Y-71904000D01*
X169497000Y-61991500D02*
X170047000Y-61441500D01*
X177651000Y-71904000D02*
X178038500Y-71516500D01*
X178069500Y-67389000D02*
X174847000Y-67389000D01*
X170047000Y-61441500D02*
X173392000Y-61441500D01*
X173392000Y-61441500D02*
X174719500Y-62769000D01*
X174719500Y-62769000D02*
X174719500Y-65046500D01*
X174847000Y-68659000D02*
X174847000Y-67389000D01*
X178038500Y-71516500D02*
X178069500Y-71516500D01*
X178069500Y-71516500D02*
X178069500Y-67389000D01*
%TO.N,Net-(J25-Pin_1)*%
X188689000Y-73025000D02*
X189277000Y-72437000D01*
X189277000Y-72437000D02*
X189277000Y-68659000D01*
X189324500Y-65046500D02*
X189324500Y-68611500D01*
X187325000Y-73025000D02*
X188689000Y-73025000D01*
X187013000Y-73337000D02*
X187325000Y-73025000D01*
X185951500Y-73337000D02*
X187013000Y-73337000D01*
%TO.N,Net-(J23-Pin_2)*%
X172989500Y-61991500D02*
X172989500Y-64531500D01*
X176474500Y-72554000D02*
X174979500Y-72554000D01*
X174979500Y-72554000D02*
X174894500Y-72469000D01*
X172719500Y-68659000D02*
X172719500Y-65046500D01*
%TO.N,Net-(J25-Pin_2)*%
X186476500Y-72687000D02*
X187007500Y-72156000D01*
X185951500Y-72687000D02*
X186476500Y-72687000D01*
X187324500Y-65046500D02*
X187324500Y-68611500D01*
X187007500Y-72156000D02*
X187007500Y-68928500D01*
%TO.N,Net-(U4-CH1)*%
X142827000Y-125332750D02*
X142827000Y-123269000D01*
X141991000Y-117318000D02*
X140077000Y-117318000D01*
X142148000Y-117475000D02*
X141991000Y-117318000D01*
X142827000Y-123269000D02*
X142516000Y-122958000D01*
X142516000Y-122958000D02*
X141536000Y-122958000D01*
X142557500Y-121920000D02*
X141536000Y-122941500D01*
X141239500Y-126920250D02*
X142827000Y-125332750D01*
%TO.N,Net-(U4-CH2)*%
X141536000Y-124858000D02*
X139145500Y-124858000D01*
X139065000Y-124777500D02*
X139065000Y-119455000D01*
X143462000Y-127349000D02*
X143462000Y-128031500D01*
X143144500Y-128349000D02*
X139969500Y-128349000D01*
X139145500Y-124858000D02*
X139065000Y-124777500D01*
X143462000Y-128031500D02*
X143144500Y-128349000D01*
X139334500Y-125047000D02*
X139145500Y-124858000D01*
X139969500Y-128349000D02*
X139334500Y-127714000D01*
X139252000Y-119268000D02*
X140077000Y-119268000D01*
X139065000Y-119455000D02*
X139252000Y-119268000D01*
X139334500Y-127714000D02*
X139334500Y-125047000D01*
%TO.N,Net-(U4-CH3)*%
X146638500Y-124858000D02*
X144136000Y-124858000D01*
X147589500Y-125809000D02*
X146638500Y-124858000D01*
X144136000Y-124858000D02*
X143361000Y-124858000D01*
X143607000Y-119918000D02*
X145927000Y-119918000D01*
X143361000Y-124858000D02*
X143261000Y-124758000D01*
X143261000Y-120264000D02*
X143607000Y-119918000D01*
X143261000Y-124758000D02*
X143261000Y-120264000D01*
%TO.N,Net-(U4-CH4)*%
X147589500Y-123904000D02*
X149177000Y-123904000D01*
X149494500Y-123586500D02*
X149494500Y-118062000D01*
X146643500Y-122958000D02*
X147589500Y-123904000D01*
X149494500Y-118062000D02*
X149400500Y-117968000D01*
X149400500Y-117968000D02*
X145927000Y-117968000D01*
X149177000Y-123904000D02*
X149494500Y-123586500D01*
X144136000Y-122958000D02*
X146643500Y-122958000D01*
%TO.N,Net-(U5-B1Y)*%
X126047500Y-129540000D02*
X126047500Y-126365000D01*
X131641000Y-124264000D02*
X131641000Y-122859836D01*
X133032500Y-126682500D02*
X133032500Y-128301000D01*
X126047500Y-126365000D02*
X126365000Y-126047500D01*
X126976000Y-130468500D02*
X126047500Y-129540000D01*
X126976000Y-131246500D02*
X126976000Y-130468500D01*
X133190336Y-121310500D02*
X133926000Y-121310500D01*
X129857500Y-126047500D02*
X131641000Y-124264000D01*
X131641000Y-122859836D02*
X133190336Y-121310500D01*
X126365000Y-126047500D02*
X129857500Y-126047500D01*
%TO.N,Net-(U5-B2Y)*%
X126976000Y-128452500D02*
X126976000Y-127024000D01*
X129857500Y-126682500D02*
X132041000Y-124499000D01*
X133190336Y-121960500D02*
X133926000Y-121960500D01*
X132041000Y-123109836D02*
X133190336Y-121960500D01*
X132041000Y-124499000D02*
X132041000Y-123109836D01*
X134620000Y-130492500D02*
X133324000Y-130492500D01*
X127317500Y-126682500D02*
X129857500Y-126682500D01*
X126976000Y-127024000D02*
X127317500Y-126682500D01*
%TO.N,Net-(U5-B3Y)*%
X134934000Y-131246500D02*
X135806000Y-130374500D01*
X129940000Y-129137244D02*
X129940000Y-127235000D01*
X129940000Y-127235000D02*
X132441000Y-124734000D01*
X132441000Y-124734000D02*
X132441000Y-123359836D01*
X131040000Y-131246500D02*
X131040000Y-130237244D01*
X132441000Y-123359836D02*
X133190336Y-122610500D01*
X131040000Y-131246500D02*
X134934000Y-131246500D01*
X131040000Y-130237244D02*
X129940000Y-129137244D01*
X133190336Y-122610500D02*
X133926000Y-122610500D01*
%TO.N,Net-(U5-B4Y)*%
X135806000Y-126281000D02*
X135806000Y-128474500D01*
X133190336Y-123260500D02*
X133926000Y-123260500D01*
X131040000Y-126770000D02*
X132080000Y-125730000D01*
X132841000Y-123609836D02*
X133190336Y-123260500D01*
X131040000Y-128452500D02*
X131040000Y-126770000D01*
X132080000Y-125730000D02*
X135255000Y-125730000D01*
X132080000Y-125730000D02*
X132715000Y-125730000D01*
X132841000Y-125604000D02*
X132841000Y-123609836D01*
X132715000Y-125730000D02*
X132841000Y-125604000D01*
X135255000Y-125730000D02*
X135806000Y-126281000D01*
%TO.N,Net-(U11-1A)*%
X154257000Y-127349000D02*
X154257000Y-126444000D01*
X155575000Y-123348750D02*
X155184250Y-122958000D01*
X155575000Y-125126000D02*
X155575000Y-123348750D01*
X155184250Y-122958000D02*
X154296000Y-122958000D01*
X154257000Y-126444000D02*
X155575000Y-125126000D01*
X154552500Y-117475000D02*
X154417500Y-117340000D01*
X155257500Y-121920000D02*
X154296000Y-122881500D01*
X154417500Y-117340000D02*
X152523000Y-117340000D01*
%TO.N,Net-(U11-2A)*%
X154296000Y-124858000D02*
X151717000Y-124858000D01*
X156012000Y-128499000D02*
X151867000Y-128499000D01*
X151867000Y-128499000D02*
X151399500Y-128031500D01*
X151399500Y-124858000D02*
X151717000Y-124858000D01*
X156479500Y-127349000D02*
X156479500Y-128031500D01*
X151210500Y-124858000D02*
X151130000Y-124777500D01*
X151717000Y-124858000D02*
X151210500Y-124858000D01*
X151399500Y-128031500D02*
X151399500Y-124858000D01*
X151130000Y-119697500D02*
X151537500Y-119290000D01*
X151537500Y-119290000D02*
X152523000Y-119290000D01*
X156479500Y-128031500D02*
X156012000Y-128499000D01*
X151130000Y-124777500D02*
X151130000Y-119697500D01*
%TO.N,Net-(U11-3A)*%
X159656000Y-124858000D02*
X160607000Y-125809000D01*
X155975000Y-124712000D02*
X155975000Y-120250000D01*
X156285000Y-119940000D02*
X158373000Y-119940000D01*
X156896000Y-124858000D02*
X159656000Y-124858000D01*
X156896000Y-124858000D02*
X156121000Y-124858000D01*
X156121000Y-124858000D02*
X155975000Y-124712000D01*
X155975000Y-120250000D02*
X156285000Y-119940000D01*
%TO.N,Net-(U11-4A)*%
X162122500Y-117990000D02*
X162242500Y-118110000D01*
X162242500Y-118110000D02*
X162242500Y-122958000D01*
X161242000Y-122958000D02*
X156896000Y-122958000D01*
X162242500Y-122958000D02*
X161242000Y-122958000D01*
X158373000Y-117990000D02*
X162122500Y-117990000D01*
%TO.N,Net-(U9-B1Y)*%
X116357500Y-123355000D02*
X118457500Y-121255000D01*
X111760000Y-129540000D02*
X111760000Y-126682500D01*
X112160000Y-126282500D02*
X115335000Y-126282500D01*
X116357500Y-125260000D02*
X116357500Y-123355000D01*
X112696500Y-131191000D02*
X112696500Y-130476500D01*
X115335000Y-126282500D02*
X116357500Y-125260000D01*
X112696500Y-130476500D02*
X111760000Y-129540000D01*
X111760000Y-126682500D02*
X112160000Y-126282500D01*
X118457500Y-121255000D02*
X119392500Y-121255000D01*
%TO.N,Net-(U9-B2Y)*%
X118442500Y-121905000D02*
X119392500Y-121905000D01*
X116757500Y-125495000D02*
X116757500Y-123590000D01*
X112696500Y-128397000D02*
X112696500Y-127016000D01*
X112696500Y-127016000D02*
X113030000Y-126682500D01*
X115570000Y-126682500D02*
X116757500Y-125495000D01*
X113030000Y-126682500D02*
X115570000Y-126682500D01*
X116757500Y-123590000D02*
X118442500Y-121905000D01*
%TO.N,Net-(U9-B3Y)*%
X116760500Y-130095500D02*
X115860500Y-129195500D01*
X117157500Y-125730000D02*
X117157500Y-123825000D01*
X118427500Y-122555000D02*
X119392500Y-122555000D01*
X115860500Y-127027000D02*
X117157500Y-125730000D01*
X115860500Y-129195500D02*
X115860500Y-127027000D01*
X117157500Y-123825000D02*
X118427500Y-122555000D01*
X116760500Y-131191000D02*
X116760500Y-130095500D01*
%TO.N,Net-(U9-B4Y)*%
X118397500Y-123205000D02*
X119392500Y-123205000D01*
X116760500Y-126762000D02*
X117582000Y-125940500D01*
X117582000Y-125940500D02*
X117582000Y-124020500D01*
X116760500Y-128397000D02*
X116760500Y-126762000D01*
X117582000Y-124020500D02*
X118397500Y-123205000D01*
%TO.N,/CPU/LED_ACTIVITY*%
X139327000Y-104861500D02*
X139327000Y-103693000D01*
X138699500Y-105489000D02*
X139327000Y-104861500D01*
X135842000Y-105171500D02*
X136477000Y-105806500D01*
X97742000Y-105806500D02*
X99012000Y-107076500D01*
X125995500Y-103266500D02*
X127583000Y-104854000D01*
X119429000Y-103266500D02*
X125995500Y-103266500D01*
X132984500Y-105171500D02*
X135842000Y-105171500D01*
X96472000Y-105806500D02*
X97742000Y-105806500D01*
%TO.N,/CPU/I2C_SDA_INT*%
X169081500Y-92854000D02*
X169210000Y-92725500D01*
X162875500Y-96520000D02*
X162875500Y-94932500D01*
X139827000Y-89207314D02*
X139827000Y-88343000D01*
X144780000Y-91757500D02*
X144697500Y-91675000D01*
X93614500Y-83581500D02*
X93614500Y-85804000D01*
X167955500Y-92854000D02*
X169081500Y-92854000D01*
X160724500Y-102114000D02*
X159972000Y-101361500D01*
X165589000Y-92854000D02*
X164780500Y-93662500D01*
X142294686Y-91675000D02*
X139827000Y-89207314D01*
X153428500Y-94694000D02*
X159015756Y-94694000D01*
X165163000Y-94997500D02*
X165163000Y-95673000D01*
X93229500Y-83196500D02*
X93614500Y-83581500D01*
X162875500Y-94932500D02*
X163193000Y-94615000D01*
X165589000Y-92224000D02*
X165589000Y-92854000D01*
X90884500Y-83196500D02*
X93229500Y-83196500D01*
X159972000Y-96599000D02*
X160051000Y-96520000D01*
X159972000Y-101361500D02*
X159972000Y-95650244D01*
X101634500Y-83346500D02*
X98442000Y-83346500D01*
X100282000Y-86756500D02*
X101634500Y-85404000D01*
X101634500Y-85404000D02*
X101634500Y-83346500D01*
X163193000Y-94615000D02*
X164780500Y-94615000D01*
X169210000Y-84446000D02*
X169210000Y-85454000D01*
X160051000Y-96520000D02*
X162875500Y-96520000D01*
X164780500Y-93662500D02*
X164780500Y-94615000D01*
X165589000Y-92854000D02*
X167955500Y-92854000D01*
X159972000Y-95650244D02*
X159972000Y-96599000D01*
X94567000Y-86756500D02*
X100282000Y-86756500D01*
X169210000Y-92725500D02*
X169210000Y-85454000D01*
X169114000Y-84350000D02*
X169210000Y-84446000D01*
X93614500Y-85804000D02*
X94567000Y-86756500D01*
X167272500Y-84350000D02*
X169114000Y-84350000D01*
X144697500Y-91675000D02*
X142294686Y-91675000D01*
X164835000Y-102114000D02*
X160724500Y-102114000D01*
X164780500Y-94615000D02*
X165163000Y-94997500D01*
X159015756Y-94694000D02*
X159972000Y-95650244D01*
X153352500Y-94618000D02*
X153428500Y-94694000D01*
%TO.N,/UARTS/UART1_TX*%
X186610948Y-87870552D02*
X185642000Y-88839500D01*
X184597500Y-88839500D02*
X184375500Y-88617500D01*
X176879500Y-84798724D02*
X176879500Y-85671500D01*
X186610948Y-85169000D02*
X186610948Y-87870552D01*
X185975948Y-84534000D02*
X186610948Y-85169000D01*
X184375500Y-88617500D02*
X183299500Y-88617500D01*
X185642000Y-88839500D02*
X184597500Y-88839500D01*
X185975948Y-84534000D02*
X177144224Y-84534000D01*
X177144224Y-84534000D02*
X176879500Y-84798724D01*
%TO.N,/UARTS/UART1_RX*%
X183299500Y-86079000D02*
X182707000Y-85486500D01*
X185642000Y-86375500D02*
X184761500Y-86375500D01*
X177529500Y-85671500D02*
X177714500Y-85486500D01*
X184761500Y-86375500D02*
X184419500Y-86717500D01*
X184419500Y-86717500D02*
X183299500Y-86717500D01*
X182707000Y-85486500D02*
X177714500Y-85486500D01*
X183299500Y-86717500D02*
X183299500Y-86079000D01*
%TO.N,/UARTS/UART2_TX*%
X186603500Y-81245000D02*
X185642000Y-82206500D01*
X184632000Y-82206500D02*
X184282000Y-81856500D01*
X186603500Y-78463000D02*
X186603500Y-78501500D01*
X176807000Y-78786500D02*
X176807000Y-78086500D01*
X186603500Y-78501500D02*
X186603500Y-81245000D01*
X177027000Y-77866500D02*
X186007000Y-77866500D01*
X185642000Y-82206500D02*
X184632000Y-82206500D01*
X184282000Y-81856500D02*
X183173000Y-81856500D01*
X176807000Y-78086500D02*
X177027000Y-77866500D01*
X186007000Y-77866500D02*
X186603500Y-78463000D01*
%TO.N,/UARTS/UART2_RX*%
X184546500Y-79644500D02*
X184234500Y-79956500D01*
X182514500Y-78501500D02*
X183173000Y-79160000D01*
X184234500Y-79956500D02*
X183173000Y-79956500D01*
X177742000Y-78501500D02*
X182514500Y-78501500D01*
X183173000Y-79160000D02*
X183173000Y-79956500D01*
X185642000Y-79644500D02*
X184546500Y-79644500D01*
X177457000Y-78786500D02*
X177742000Y-78501500D01*
D71*
%TO.N,Net-(J27-Pin_1)*%
X189979500Y-93269000D02*
X195334500Y-93269000D01*
X189661000Y-92950500D02*
X189979500Y-93269000D01*
X187642000Y-92950500D02*
X189661000Y-92950500D01*
%TO.N,Net-(J27-Pin_2)*%
X198389500Y-94376500D02*
X198389500Y-91519000D01*
X187642000Y-95900500D02*
X190833000Y-95900500D01*
X190833000Y-95900500D02*
X191722000Y-95011500D01*
X198139500Y-91269000D02*
X195334500Y-91269000D01*
X191722000Y-95011500D02*
X197754500Y-95011500D01*
X197754500Y-95011500D02*
X198389500Y-94376500D01*
X198389500Y-91519000D02*
X198139500Y-91269000D01*
D67*
%TO.N,Net-(J4-Pin_1)*%
X141414500Y-129524000D02*
X141414500Y-133866500D01*
%TO.N,Net-(J6-Pin_1)*%
X154432000Y-129524000D02*
X154432000Y-133866500D01*
D71*
%TO.N,Net-(J18-Pin_1)*%
X190627000Y-79914000D02*
X195334500Y-79914000D01*
X190134500Y-82311500D02*
X190134500Y-80406500D01*
X187642000Y-84804000D02*
X190134500Y-82311500D01*
X190134500Y-80406500D02*
X190627000Y-79914000D01*
X187642000Y-86375500D02*
X187642000Y-84804000D01*
D67*
%TO.N,/UARTS/UART3_TX*%
X176879500Y-92226500D02*
X176879500Y-91350448D01*
X186108000Y-91128500D02*
X186603500Y-91624000D01*
X186603500Y-94939000D02*
X185642000Y-95900500D01*
X184991000Y-95900500D02*
X184417000Y-95326500D01*
X177101448Y-91128500D02*
X186108000Y-91128500D01*
X176879500Y-91350448D02*
X177101448Y-91128500D01*
X184417000Y-95326500D02*
X183257500Y-95326500D01*
X185642000Y-95900500D02*
X184991000Y-95900500D01*
X186603500Y-91624000D02*
X186603500Y-94939000D01*
%TO.N,/UARTS/UART3_RX*%
X185642000Y-92950500D02*
X184893000Y-92950500D01*
X182587000Y-91941500D02*
X177814500Y-91941500D01*
X184417000Y-93426500D02*
X183257500Y-93426500D01*
X183257500Y-93426500D02*
X183257500Y-92612000D01*
X183257500Y-92612000D02*
X182587000Y-91941500D01*
X184893000Y-92950500D02*
X184417000Y-93426500D01*
X177814500Y-91941500D02*
X177529500Y-92226500D01*
D71*
%TO.N,Net-(J19-Pin_1)*%
X187642000Y-76549000D02*
X187642000Y-79644500D01*
X188229500Y-75961500D02*
X187642000Y-76549000D01*
X192039500Y-75961500D02*
X188229500Y-75961500D01*
D67*
%TO.N,/CPU/IO1*%
X144414500Y-112156500D02*
X167909500Y-112156500D01*
X143827000Y-111569000D02*
X144414500Y-112156500D01*
X169497000Y-122951500D02*
X169497000Y-127349000D01*
X143827000Y-103693000D02*
X143827000Y-111569000D01*
X169497000Y-122319000D02*
X169497000Y-122951500D01*
X177404500Y-122319000D02*
X169497000Y-122319000D01*
X169497000Y-113744000D02*
X169497000Y-122951500D01*
X167909500Y-112156500D02*
X169497000Y-113744000D01*
%TO.N,/CPU/I2C_SCL_ARBITRARY*%
X166811500Y-72072500D02*
X165726000Y-73158000D01*
X170497500Y-72072500D02*
X166811500Y-72072500D01*
X155589471Y-98018000D02*
X151502000Y-98018000D01*
X172249500Y-71904000D02*
X170666000Y-71904000D01*
X164147500Y-73342500D02*
X165541500Y-73342500D01*
X155678971Y-98107500D02*
X155589471Y-98018000D01*
X170666000Y-71904000D02*
X170497500Y-72072500D01*
X156527500Y-98107500D02*
X155678971Y-98107500D01*
%TO.N,/CPU/I2C_SDA_ARBITRARY*%
X169260000Y-72554000D02*
X168656000Y-73158000D01*
X157162500Y-78073870D02*
X157162500Y-75882500D01*
X155861370Y-79375000D02*
X157162500Y-78073870D01*
X153035000Y-80010000D02*
X153670000Y-79375000D01*
X141327000Y-85441744D02*
X141996244Y-84772500D01*
X153035000Y-83502500D02*
X153035000Y-80010000D01*
X141996244Y-84772500D02*
X144145000Y-84772500D01*
X167322500Y-75247500D02*
X168656000Y-73914000D01*
X168656000Y-73914000D02*
X168656000Y-73158000D01*
X141327000Y-88343000D02*
X141327000Y-85441744D01*
X157797500Y-75247500D02*
X167322500Y-75247500D01*
X153670000Y-79375000D02*
X155861370Y-79375000D01*
X172249500Y-72554000D02*
X169260000Y-72554000D01*
X144145000Y-84772500D02*
X145415000Y-83502500D01*
X157162500Y-75882500D02*
X157797500Y-75247500D01*
X145415000Y-83502500D02*
X153035000Y-83502500D01*
%TO.N,Net-(R72-Pad2)*%
X201802000Y-126041500D02*
X201802000Y-131291500D01*
X201802000Y-131291500D02*
X199474500Y-131291500D01*
%TO.N,/CPU/USER_BTN*%
X157114500Y-93741500D02*
X157432000Y-94059000D01*
X157114500Y-88661500D02*
X157114500Y-93741500D01*
X143827000Y-88343000D02*
X143827000Y-87121500D01*
X143827000Y-87121500D02*
X143462000Y-86756500D01*
X201802000Y-120094000D02*
X201802000Y-123036500D01*
X201802000Y-117786500D02*
X201802000Y-120094000D01*
X155844500Y-87391500D02*
X157114500Y-88661500D01*
%TO.N,/CPU/FDCAN_STBY*%
X160924500Y-84216500D02*
X160924500Y-83899000D01*
X160924500Y-83899000D02*
X160939026Y-83884474D01*
X148272500Y-84772500D02*
X160368500Y-84772500D01*
X147327000Y-85732000D02*
X147320000Y-85725000D01*
X147320000Y-85725000D02*
X148272500Y-84772500D01*
X186055000Y-71933500D02*
X185951500Y-72037000D01*
X160939026Y-83884474D02*
X160939026Y-77216974D01*
X160368500Y-84772500D02*
X160924500Y-84216500D01*
X147327000Y-88343000D02*
X147327000Y-85732000D01*
X160939026Y-77216974D02*
X161556000Y-76600000D01*
X181845000Y-76600000D02*
X183197500Y-75247500D01*
X183197500Y-75247500D02*
X184467500Y-75247500D01*
X161556000Y-76600000D02*
X181845000Y-76600000D01*
X186055000Y-70485000D02*
X186055000Y-71933500D01*
%TO.N,/CPU/IO2*%
X170767000Y-121364000D02*
X170132000Y-120729000D01*
X170132000Y-113109000D02*
X168544500Y-111521500D01*
X170132000Y-120729000D02*
X170132000Y-113109000D01*
X145088250Y-111521500D02*
X144327000Y-110760250D01*
X177404500Y-124219000D02*
X177404500Y-125779000D01*
X144327000Y-110760250D02*
X144327000Y-103693000D01*
X168544500Y-111521500D02*
X145088250Y-111521500D01*
X177404500Y-125779000D02*
X177434500Y-125809000D01*
%TO.N,/CPU/IO3*%
X145684500Y-110886500D02*
X169179500Y-110886500D01*
X144827000Y-110029000D02*
X145684500Y-110886500D01*
X180004500Y-124219000D02*
X180004500Y-126731500D01*
X179657000Y-127079000D02*
X177434500Y-127079000D01*
X169179500Y-110886500D02*
X170767000Y-112474000D01*
X170767000Y-112474000D02*
X170767000Y-120094000D01*
X180004500Y-126731500D02*
X179657000Y-127079000D01*
X144827000Y-103693000D02*
X144827000Y-110029000D01*
%TO.N,/CPU/IO4*%
X182829500Y-122319000D02*
X182832000Y-122316500D01*
X145367000Y-109299000D02*
X146319500Y-110251500D01*
X181244500Y-118506500D02*
X181562000Y-118824000D01*
X171719500Y-118506500D02*
X181244500Y-118506500D01*
X182832000Y-122316500D02*
X182832000Y-126714000D01*
X146319500Y-110251500D02*
X170132000Y-110251500D01*
X181562000Y-122319000D02*
X182829500Y-122319000D01*
X145367000Y-103733000D02*
X145367000Y-109299000D01*
X182832000Y-126714000D02*
X182197000Y-127349000D01*
X171719500Y-111839000D02*
X171719500Y-118506500D01*
X181562000Y-118824000D02*
X181562000Y-122319000D01*
X170132000Y-110251500D02*
X171719500Y-111839000D01*
X180004500Y-122319000D02*
X181562000Y-122319000D01*
%TO.N,/CPU/I2C_SDA_EXTERNAL*%
X144655000Y-78865000D02*
X144655000Y-76661500D01*
X122951500Y-79771500D02*
X122557000Y-79377000D01*
X137760000Y-80010000D02*
X138395000Y-79375000D01*
X150460341Y-101018000D02*
X151502000Y-101018000D01*
X149067890Y-100877204D02*
X150319545Y-100877204D01*
X135207000Y-81041500D02*
X135207000Y-80010000D01*
X138395000Y-79375000D02*
X144145000Y-79375000D01*
X150319545Y-100877204D02*
X150460341Y-101018000D01*
X147329686Y-99139000D02*
X149067890Y-100877204D01*
X134968500Y-79771500D02*
X122951500Y-79771500D01*
X122557000Y-79377000D02*
X122557000Y-76661500D01*
X144145000Y-79375000D02*
X144655000Y-78865000D01*
X144414500Y-99139000D02*
X147329686Y-99139000D01*
X135207000Y-80010000D02*
X134968500Y-79771500D01*
X135207000Y-80010000D02*
X137760000Y-80010000D01*
%TO.N,/CPU/I2C_SCL_EXTERNAL*%
X145305000Y-75772500D02*
X145305000Y-76661500D01*
X123207000Y-79074500D02*
X123425000Y-79292500D01*
X144588000Y-100265000D02*
X147890000Y-100265000D01*
X149230296Y-101277204D02*
X150153859Y-101277204D01*
X139652000Y-78501500D02*
X139652000Y-75930500D01*
X137747000Y-78740000D02*
X139413500Y-78740000D01*
X135207000Y-78091500D02*
X135207000Y-79292500D01*
X140335000Y-75247500D02*
X144780000Y-75247500D01*
X123425000Y-79292500D02*
X135524500Y-79292500D01*
X143462000Y-99139000D02*
X144588000Y-100265000D01*
X137747000Y-78740000D02*
X137194500Y-79292500D01*
X137194500Y-79292500D02*
X135524500Y-79292500D01*
X123207000Y-76661500D02*
X123207000Y-79074500D01*
X143425000Y-99139000D02*
X143462000Y-99139000D01*
X148907500Y-101282500D02*
X149225000Y-101282500D01*
X150394655Y-101518000D02*
X151502000Y-101518000D01*
X149225000Y-101282500D02*
X149230296Y-101277204D01*
X139413500Y-78740000D02*
X139652000Y-78501500D01*
X144780000Y-75247500D02*
X145305000Y-75772500D01*
X150153859Y-101277204D02*
X150394655Y-101518000D01*
X147890000Y-100265000D02*
X148907500Y-101282500D01*
X139652000Y-75930500D02*
X140335000Y-75247500D01*
X135207000Y-79292500D02*
X135524500Y-79292500D01*
%TO.N,/CPU/INT_PRESSURE*%
X161509500Y-85407500D02*
X168860000Y-85407500D01*
X168151500Y-91211500D02*
X166351500Y-91211500D01*
X168860000Y-85407500D02*
X168860000Y-90503000D01*
X157162500Y-83215000D02*
X157132500Y-83185000D01*
X144827000Y-85360500D02*
X145885000Y-84302500D01*
X144827000Y-88343000D02*
X144827000Y-85360500D01*
X157132500Y-85804000D02*
X161113000Y-85804000D01*
X161113000Y-85804000D02*
X161509500Y-85407500D01*
X145885000Y-84302500D02*
X156997500Y-84302500D01*
X168860000Y-90503000D02*
X168151500Y-91211500D01*
X156997500Y-84302500D02*
X157162500Y-84137500D01*
X157162500Y-84137500D02*
X157162500Y-83215000D01*
%TO.N,/CPU/INT_IMU*%
X164500500Y-97752500D02*
X163510500Y-98742500D01*
X156845000Y-100330000D02*
X156210000Y-99695000D01*
D66*
X145327000Y-88343000D02*
X145327000Y-90082000D01*
D67*
X164500500Y-97335500D02*
X164500500Y-97752500D01*
X156210000Y-99695000D02*
X154622500Y-99695000D01*
X156845000Y-100647500D02*
X156845000Y-100330000D01*
%TO.N,/CPU/INT_MAGNETO*%
X146367500Y-91232000D02*
X148798000Y-91232000D01*
X167517000Y-102114000D02*
X167638000Y-102235000D01*
X164099500Y-103187500D02*
X158036000Y-103187500D01*
X166360000Y-102114000D02*
X167517000Y-102114000D01*
D66*
X146465908Y-89852500D02*
X145827000Y-89213592D01*
D67*
X157480000Y-98038529D02*
X156278971Y-96837500D01*
D66*
X145827000Y-89213592D02*
X145827000Y-88343000D01*
D67*
X148798000Y-91232000D02*
X148907500Y-91122500D01*
X146367500Y-92980000D02*
X146367500Y-91232000D01*
D66*
X146685000Y-89852500D02*
X146465908Y-89852500D01*
D67*
X158036000Y-103187500D02*
X157480000Y-102631500D01*
X157480000Y-102631500D02*
X157480000Y-98038529D01*
X156278971Y-96837500D02*
X153352500Y-96837500D01*
%TO.N,/CPU/~{POWEROFF}*%
X119931000Y-90602500D02*
X130480500Y-90602500D01*
X130480500Y-90602500D02*
X131396000Y-91518000D01*
X131396000Y-91518000D02*
X136152000Y-91518000D01*
X93297000Y-117554000D02*
X98694500Y-117554000D01*
X119332000Y-91201500D02*
X119931000Y-90602500D01*
%TO.N,/CPU/INT_LIGHT*%
X93614500Y-79136500D02*
X103457000Y-79136500D01*
X131397000Y-75326500D02*
X139478182Y-75326500D01*
X139478182Y-75326500D02*
X139565091Y-75239591D01*
X92912000Y-82696500D02*
X93297000Y-82311500D01*
X93297000Y-82311500D02*
X93297000Y-79454000D01*
X90884500Y-82696500D02*
X92912000Y-82696500D01*
X143144500Y-83581500D02*
X143779500Y-84216500D01*
X144327000Y-86669000D02*
X143779500Y-86121500D01*
X141874500Y-83581500D02*
X143144500Y-83581500D01*
X144327000Y-88343000D02*
X144327000Y-86669000D01*
X103457000Y-79136500D02*
X105997000Y-79136500D01*
X93297000Y-79454000D02*
X93614500Y-79136500D01*
D73*
%TO.N,/Power & Analog/VIN*%
X101299500Y-123904000D02*
X101299500Y-120094000D01*
X98304500Y-123904000D02*
X98304500Y-124539000D01*
X101299500Y-123904000D02*
X98304500Y-123904000D01*
X98304500Y-124539000D02*
X97622000Y-125221500D01*
X98304500Y-123904000D02*
X97622000Y-123221500D01*
D66*
%TO.N,/Power & Analog/USB-DN*%
X114148000Y-98383500D02*
X115570000Y-98383500D01*
X94730000Y-96855500D02*
X93553500Y-96855500D01*
X94730000Y-95855500D02*
X93532500Y-95855500D01*
X93553500Y-96855500D02*
X93345000Y-96647000D01*
X96442500Y-95855500D02*
X94730000Y-95855500D01*
X115570000Y-98383500D02*
X116704000Y-98383500D01*
X97107000Y-96520000D02*
X96442500Y-95855500D01*
X93345000Y-96647000D02*
X93345000Y-96043000D01*
X93532500Y-95855500D02*
X93345000Y-96043000D01*
D67*
%TO.N,/Power & Analog/USB2-DN*%
X110238001Y-98510500D02*
X110255501Y-98528000D01*
X110255501Y-98528000D02*
X112003500Y-98528000D01*
X109338000Y-98510500D02*
X110238001Y-98510500D01*
%TD*%
D76*
X99556500Y-84093000D02*
X100556500Y-84093000D01*
X205082000Y-55324000D02*
X205082000Y-143824000D01*
X87582000Y-55324000D02*
X205082000Y-55324000D01*
X99556500Y-84093000D02*
G75*
G02*
X99556500Y-81933000I-1870600J1080000D01*
G01*
X205082000Y-143824000D02*
X87582000Y-143824000D01*
X99556500Y-81933000D02*
X100556500Y-81933000D01*
X87582000Y-143824000D02*
X87582000Y-55324000D01*
X100556500Y-84093000D02*
G75*
G02*
X100556500Y-81933000I-2888600J1080000D01*
G01*
M02*
