%TF.GenerationSoftware,KiCad,Pcbnew,8.0.9-8.0.9-0~ubuntu22.04.1*%
%TF.CreationDate,2025-03-19T18:43:04+01:00*%
%TF.ProjectId,carte-io,63617274-652d-4696-9f2e-6b696361645f,1.1*%
%TF.SameCoordinates,Original*%
%TF.FileFunction,Paste,Bot*%
%TF.FilePolarity,Positive*%
%FSLAX46Y46*%
G04 Gerber Fmt 4.6, Leading zero omitted, Abs format (unit mm)*
G04 Created by KiCad (PCBNEW 8.0.9-8.0.9-0~ubuntu22.04.1) date 2025-03-19 18:43:04*
%MOMM*%
%LPD*%
G01*
G04 APERTURE LIST*
G04 Aperture macros list*
%AMRoundRect*
0 Rectangle with rounded corners*
0 $1 Rounding radius*
0 $2 $3 $4 $5 $6 $7 $8 $9 X,Y pos of 4 corners*
0 Add a 4 corners polygon primitive as box body*
4,1,4,$2,$3,$4,$5,$6,$7,$8,$9,$2,$3,0*
0 Add four circle primitives for the rounded corners*
1,1,$1+$1,$2,$3*
1,1,$1+$1,$4,$5*
1,1,$1+$1,$6,$7*
1,1,$1+$1,$8,$9*
0 Add four rect primitives between the rounded corners*
20,1,$1+$1,$2,$3,$4,$5,0*
20,1,$1+$1,$4,$5,$6,$7,0*
20,1,$1+$1,$6,$7,$8,$9,0*
20,1,$1+$1,$8,$9,$2,$3,0*%
G04 Aperture macros list end*
%ADD10RoundRect,0.250000X-0.450000X0.350000X-0.450000X-0.350000X0.450000X-0.350000X0.450000X0.350000X0*%
%ADD11RoundRect,0.250000X0.450000X-0.350000X0.450000X0.350000X-0.450000X0.350000X-0.450000X-0.350000X0*%
%ADD12RoundRect,0.250000X0.350000X0.450000X-0.350000X0.450000X-0.350000X-0.450000X0.350000X-0.450000X0*%
%ADD13R,1.000000X3.400000*%
%ADD14R,1.500000X3.600000*%
%ADD15RoundRect,0.250000X0.337500X0.475000X-0.337500X0.475000X-0.337500X-0.475000X0.337500X-0.475000X0*%
%ADD16RoundRect,0.250000X0.475000X-0.337500X0.475000X0.337500X-0.475000X0.337500X-0.475000X-0.337500X0*%
%ADD17RoundRect,0.150000X-0.587500X-0.150000X0.587500X-0.150000X0.587500X0.150000X-0.587500X0.150000X0*%
%ADD18RoundRect,0.250000X-0.337500X-0.475000X0.337500X-0.475000X0.337500X0.475000X-0.337500X0.475000X0*%
%ADD19RoundRect,0.250000X-0.475000X0.337500X-0.475000X-0.337500X0.475000X-0.337500X0.475000X0.337500X0*%
%ADD20R,3.400000X1.000000*%
%ADD21R,3.600000X1.500000*%
%ADD22RoundRect,0.150000X-0.150000X0.587500X-0.150000X-0.587500X0.150000X-0.587500X0.150000X0.587500X0*%
%TA.AperFunction,Profile*%
%ADD23C,0.050000*%
%TD*%
G04 APERTURE END LIST*
D10*
%TO.C,R63*%
X116792000Y-70834000D03*
X116792000Y-72834000D03*
%TD*%
D11*
%TO.C,R21*%
X160607000Y-129349000D03*
X160607000Y-127349000D03*
%TD*%
D12*
%TO.C,R37*%
X190817000Y-102631500D03*
X188817000Y-102631500D03*
%TD*%
D13*
%TO.C,J5*%
X147414500Y-133866500D03*
X145414500Y-133866500D03*
X143414500Y-133866500D03*
X141414500Y-133866500D03*
D14*
X149714500Y-141366500D03*
X139114500Y-141366500D03*
%TD*%
D10*
%TO.C,R42*%
X175212000Y-127349000D03*
X175212000Y-129349000D03*
%TD*%
%TO.C,R71*%
X142827000Y-70834000D03*
X142827000Y-72834000D03*
%TD*%
D15*
%TO.C,C7*%
X138515000Y-103505000D03*
X136440000Y-103505000D03*
%TD*%
D10*
%TO.C,R62*%
X114887000Y-70834000D03*
X114887000Y-72834000D03*
%TD*%
D11*
%TO.C,R60*%
X129809500Y-72834000D03*
X129809500Y-70834000D03*
%TD*%
D16*
%TO.C,C3*%
X152264000Y-90890000D03*
X152264000Y-88815000D03*
%TD*%
D11*
%TO.C,R52*%
X94249500Y-115061500D03*
X94249500Y-113061500D03*
%TD*%
D13*
%TO.C,J7*%
X160432000Y-133866500D03*
X158432000Y-133866500D03*
X156432000Y-133866500D03*
X154432000Y-133866500D03*
D14*
X162732000Y-141366500D03*
X152132000Y-141366500D03*
%TD*%
D17*
%TO.C,D8*%
X184752000Y-103581500D03*
X184752000Y-101681500D03*
X186627000Y-102631500D03*
%TD*%
D11*
%TO.C,R68*%
X155844500Y-72834000D03*
X155844500Y-70834000D03*
%TD*%
D10*
%TO.C,R41*%
X188547000Y-127349000D03*
X188547000Y-129349000D03*
%TD*%
D18*
%TO.C,C2*%
X148686500Y-103908000D03*
X150761500Y-103908000D03*
%TD*%
D13*
%TO.C,J11*%
X115062000Y-65364000D03*
X117062000Y-65364000D03*
X119062000Y-65364000D03*
X121062000Y-65364000D03*
D14*
X112762000Y-57864000D03*
X123362000Y-57864000D03*
%TD*%
D13*
%TO.C,J13*%
X128079500Y-65364000D03*
X130079500Y-65364000D03*
X132079500Y-65364000D03*
X134079500Y-65364000D03*
D14*
X125779500Y-57864000D03*
X136379500Y-57864000D03*
%TD*%
D19*
%TO.C,C33*%
X102822000Y-81909000D03*
X102822000Y-83984000D03*
%TD*%
D16*
%TO.C,C6*%
X136207500Y-96287500D03*
X136207500Y-94212500D03*
%TD*%
D15*
%TO.C,C4*%
X150761500Y-101368000D03*
X148686500Y-101368000D03*
%TD*%
D20*
%TO.C,J30*%
X195017000Y-102489000D03*
X195017000Y-104489000D03*
X195017000Y-106489000D03*
X195017000Y-108489000D03*
D21*
X202517000Y-100189000D03*
X202517000Y-110789000D03*
%TD*%
D11*
%TO.C,R61*%
X127904500Y-72834000D03*
X127904500Y-70834000D03*
%TD*%
D13*
%TO.C,J15*%
X141029500Y-65364000D03*
X143029500Y-65364000D03*
X145029500Y-65364000D03*
X147029500Y-65364000D03*
D14*
X138729500Y-57864000D03*
X149329500Y-57864000D03*
%TD*%
D13*
%TO.C,J21*%
X175354500Y-133866500D03*
X173354500Y-133866500D03*
X171354500Y-133866500D03*
X169354500Y-133866500D03*
D14*
X177654500Y-141366500D03*
X167054500Y-141366500D03*
%TD*%
D11*
%TO.C,R14*%
X145367000Y-129349000D03*
X145367000Y-127349000D03*
%TD*%
%TO.C,R13*%
X147589500Y-129349000D03*
X147589500Y-127349000D03*
%TD*%
D13*
%TO.C,J28*%
X188372000Y-133866500D03*
X186372000Y-133866500D03*
X184372000Y-133866500D03*
X182372000Y-133866500D03*
D14*
X190672000Y-141366500D03*
X180072000Y-141366500D03*
%TD*%
D13*
%TO.C,J17*%
X154094500Y-65364000D03*
X156094500Y-65364000D03*
X158094500Y-65364000D03*
X160094500Y-65364000D03*
D14*
X151794500Y-57864000D03*
X162394500Y-57864000D03*
%TD*%
D10*
%TO.C,R53*%
X92027000Y-113061500D03*
X92027000Y-115061500D03*
%TD*%
D18*
%TO.C,C5*%
X136757500Y-87947500D03*
X138832500Y-87947500D03*
%TD*%
D11*
%TO.C,R69*%
X153939500Y-72834000D03*
X153939500Y-70834000D03*
%TD*%
D10*
%TO.C,R70*%
X140922000Y-70834000D03*
X140922000Y-72834000D03*
%TD*%
D20*
%TO.C,J26*%
X97622000Y-127221500D03*
X97622000Y-125221500D03*
X97622000Y-123221500D03*
X97622000Y-121221500D03*
D21*
X90122000Y-129521500D03*
X90122000Y-118921500D03*
%TD*%
D22*
%TO.C,D9*%
X92228000Y-108168500D03*
X94128000Y-108168500D03*
X93178000Y-110043500D03*
%TD*%
D16*
%TO.C,C8*%
X136207500Y-92160000D03*
X136207500Y-90085000D03*
%TD*%
D20*
%TO.C,J19*%
X195017000Y-73914000D03*
X195017000Y-75914000D03*
X195017000Y-77914000D03*
X195017000Y-79914000D03*
D21*
X202517000Y-71614000D03*
X202517000Y-82214000D03*
%TD*%
D13*
%TO.C,J24*%
X168719500Y-65364000D03*
X170719500Y-65364000D03*
X172719500Y-65364000D03*
X174719500Y-65364000D03*
D14*
X166419500Y-57864000D03*
X177019500Y-57864000D03*
%TD*%
D11*
%TO.C,R22*%
X158384500Y-129349000D03*
X158384500Y-127349000D03*
%TD*%
D23*
X99556500Y-84093000D02*
X100556500Y-84093000D01*
X205082000Y-55324000D02*
X205082000Y-143824000D01*
X87582000Y-55324000D02*
X205082000Y-55324000D01*
X99556500Y-84093000D02*
G75*
G02*
X99556500Y-81933000I-1870600J1080000D01*
G01*
X205082000Y-143824000D02*
X87582000Y-143824000D01*
X99556500Y-81933000D02*
X100556500Y-81933000D01*
X87582000Y-143824000D02*
X87582000Y-55324000D01*
X100556500Y-84093000D02*
G75*
G02*
X100556500Y-81933000I-2888600J1080000D01*
G01*
M02*
