M48
; DRILL file {KiCad 8.0.8-8.0.8-0~ubuntu22.04.1} date 2025-01-21T09:43:55+0100
; FORMAT={-:-/ absolute / inch / decimal}
; #@! TF.CreationDate,2025-01-21T09:43:55+01:00
; #@! TF.GenerationSoftware,Kicad,Pcbnew,8.0.8-8.0.8-0~ubuntu22.04.1
; #@! TF.FileFunction,Plated,1,4,PTH
FMAT,2
INCH
; #@! TA.AperFunction,Plated,PTH,ViaDrill
T1C0.0118
; #@! TA.AperFunction,Plated,PTH,ComponentDrill
T2C0.0118
; #@! TA.AperFunction,Plated,PTH,ViaDrill
T3C0.0157
; #@! TA.AperFunction,Plated,PTH,ViaDrill
T4C0.0197
; #@! TA.AperFunction,Plated,PTH,ComponentDrill
T5C0.0236
; #@! TA.AperFunction,Plated,PTH,ViaDrill
T6C0.0276
; #@! TA.AperFunction,Plated,PTH,ComponentDrill
T7C0.0295
; #@! TA.AperFunction,Plated,PTH,ComponentDrill
T8C0.0394
; #@! TA.AperFunction,Plated,PTH,ComponentDrill
T9C0.0402
%
G90
G05
T1
X3.7875Y-3.8
X3.7875Y-3.8375
X3.975Y-3.375
X4.1625Y-3.7125
X4.1625Y-3.7625
X4.1872Y-3.8281
X4.3062Y-3.5562
X4.55Y-3.8734
X4.55Y-3.9734
X4.57Y-2.72
X4.675Y-2.725
X4.6875Y-4.9875
X4.6875Y-5.1875
X4.725Y-3.4875
X4.925Y-2.7
X4.9254Y-3.3
X4.95Y-3.175
X4.9875Y-3.175
X5.0125Y-2.95
X5.025Y-4.9625
X5.0625Y-4.9875
X5.075Y-2.7
X5.1125Y-4.7625
X5.1747Y-3.5661
X5.1772Y-3.5347
X5.2375Y-4.9875
X5.25Y-3.8625
X5.2875Y-3.8
X5.3Y-5.1375
X5.4125Y-3.1
X5.4125Y-4.2625
X5.4236Y-3.15
X5.4266Y-4.2907
X5.4875Y-4.175
X5.4875Y-4.2875
X5.5139Y-4.3625
X5.5157Y-4.1891
X5.5207Y-3.3854
X5.5375Y-3.75
X5.5375Y-4.2125
X5.5375Y-4.4
X5.55Y-3.6375
X5.55Y-3.6875
X5.5567Y-3.7226
X5.5732Y-4.6464
X5.575Y-2.7
X5.575Y-4.725
X5.5875Y-3.2875
X5.5877Y-3.4
X5.5964Y-4.625
X5.6Y-3.8125
X5.6001Y-3.3612
X5.6034Y-3.5375
X5.6125Y-4.8
X5.6141Y-3.7843
X5.6158Y-3.4142
X5.65Y-3.3125
X5.65Y-3.95
X5.65Y-4.2875
X5.65Y-4.3685
X5.65Y-4.4
X5.6625Y-3.4
X5.675Y-3.9238
X5.6859Y-4.0157
X5.7Y-3.6125
X5.7Y-3.9875
X5.7215Y-3.5465
X5.7315Y-3.6125
X5.75Y-3.1625
X5.7625Y-3.4
X5.7625Y-3.6606
X5.7625Y-4.0125
X5.775Y-3.5375
X5.7875Y-3.1625
X5.7963Y-4.175
X5.8Y-4.0125
X5.8125Y-4.2959
X5.8375Y-3.15
X5.8375Y-3.375
X5.8375Y-4.7375
X5.8436Y-4.1625
X5.8436Y-4.2083
X5.8625Y-3.5875
X5.8625Y-4.675
X5.8749Y-3.1499
X5.875Y-4.6125
X5.8757Y-3.4132
X5.8875Y-3.3639
X5.8875Y-3.925
X5.9Y-4.425
X5.9141Y-4.3968
X5.925Y-3.425
X5.925Y-4.2
X5.925Y-4.5681
X5.9375Y-2.2375
X5.95Y-4.1625
X5.975Y-4.2
X6.0375Y-3.05
X6.0375Y-3.7251
X6.0375Y-3.8125
X6.05Y-3.275
X6.0514Y-4.725
X6.0625Y-3.8861
X6.075Y-2.7
X6.075Y-3.025
X6.0815Y-3.275
X6.0847Y-4.625
X6.0875Y-3.925
X6.1Y-3.05
X6.1125Y-3.675
X6.1125Y-4.8
X6.1375Y-3.65
X6.1375Y-3.8375
X6.1625Y-3.5875
X6.1625Y-3.8625
X6.1625Y-4.6625
X6.175Y-3.9625
X6.175Y-4.75
X6.1861Y-3.8125
X6.1863Y-3.275
X6.1863Y-3.4125
X6.2Y-3.6875
X6.2125Y-3.0375
X6.2389Y-3.0125
X6.3Y-3.2106
X6.3Y-3.325
X6.3125Y-3.8875
X6.325Y-3.6
X6.3375Y-3.4625
X6.3394Y-4.0625
X6.375Y-3.9229
X6.3769Y-4.425
X6.3986Y-4.4
X6.4Y-3.7125
X6.4625Y-2.8875
X6.475Y-3.65
X6.475Y-4.025
X6.5481Y-4.15
X6.5519Y-4.3545
X6.5981Y-4.3481
X6.6125Y-3.7125
X6.6125Y-4.725
X6.6178Y-4.3741
X6.6295Y-4.6
X6.6375Y-4.175
X6.6381Y-4.3981
X6.65Y-4.0875
X6.675Y-4.4625
X6.6875Y-3.7835
X6.7Y-4.725
X6.7375Y-4.025
X6.8Y-5.475
X6.8125Y-3.2106
X6.8375Y-4.775
X6.85Y-3.1875
X6.8625Y-4.2125
X6.9375Y-5.4375
X6.95Y-3.875
X6.95Y-4.0375
X6.9625Y-4.55
X6.9875Y-4.8375
X6.9875Y-4.925
X7.0Y-4.0
X7.0125Y-3.9375
X7.0375Y-2.95
X7.0375Y-4.55
X7.075Y-4.35
X7.0875Y-4.3875
X7.0875Y-4.4375
X7.1125Y-3.4875
X7.1125Y-3.519
X7.125Y-4.4125
X7.1375Y-5.4375
X7.15Y-3.775
X7.1875Y-3.775
X7.2125Y-2.775
X7.2125Y-4.1375
X7.225Y-3.925
X7.225Y-4.05
X7.2375Y-5.4375
X7.2625Y-2.9625
X7.325Y-2.775
X7.3625Y-4.9625
X7.375Y-4.5375
X7.45Y-4.0375
X7.5875Y-4.9625
T2
X4.1809Y-4.8916
X4.1809Y-4.9593
X4.1998Y-4.9254
X4.2187Y-4.8916
X4.2187Y-4.9593
T3
X3.8Y-3.675
X3.8Y-3.925
X4.0125Y-3.675
X4.0125Y-4.0875
X4.2381Y-3.8181
T4
X3.725Y-3.075
X3.9Y-4.25
X3.9Y-4.375
X3.9463Y-3.9531
X3.95Y-4.525
X3.98Y-4.64
X4.0106Y-3.025
X4.075Y-3.15
X4.1856Y-4.4314
X4.2Y-4.15
X4.2319Y-3.3319
X4.26Y-5.01
X4.31Y-4.64
X4.3625Y-4.9
X4.4Y-4.275
X4.52Y-2.8694
X4.5281Y-4.5881
X4.5856Y-4.43
X4.7Y-3.025
X4.7186Y-3.2436
X4.75Y-4.9875
X4.76Y-2.8694
X4.7681Y-4.8981
X4.775Y-4.75
X4.85Y-3.175
X4.85Y-5.0875
X4.9625Y-4.8935
X5.02Y-2.8694
X5.025Y-3.175
X5.0625Y-3.65
X5.0638Y-4.2
X5.0781Y-4.5881
X5.2Y-3.7758
X5.2Y-3.9
X5.26Y-2.8694
X5.275Y-3.5
X5.3Y-5.0
X5.35Y-4.75
X5.35Y-4.925
X5.4Y-5.1
X5.425Y-3.5375
X5.425Y-3.6375
X5.425Y-3.7125
X5.425Y-3.7519
X5.425Y-3.9125
X5.45Y-4.0125
X5.4559Y-3.1941
X5.4644Y-3.5375
X5.4894Y-4.0125
X5.5125Y-4.875
X5.52Y-2.8694
X5.525Y-4.5
X5.5818Y-3.0182
X5.6434Y-3.25
X5.6967Y-3.1717
X5.7375Y-4.875
X5.75Y-4.475
X5.75Y-4.5375
X5.76Y-2.8694
X5.8Y-3.975
X5.9Y-3.175
X5.9Y-3.5625
X5.9Y-3.6019
X5.9002Y-4.0149
X6.0Y-4.875
X6.0125Y-4.5
X6.02Y-2.8694
X6.0375Y-3.5375
X6.225Y-4.475
X6.2375Y-3.5
X6.2375Y-3.7
X6.2375Y-3.9
X6.2375Y-4.5375
X6.2375Y-4.875
X6.27Y-2.8694
X6.275Y-3.6875
X6.3Y-4.1375
X6.375Y-3.5
X6.375Y-3.8875
X6.4375Y-3.8875
X6.475Y-3.5375
X6.5Y-4.1125
X6.525Y-3.8375
X6.5375Y-4.875
X6.6625Y-3.975
X6.7375Y-2.9375
X6.7375Y-3.4875
X6.7625Y-3.725
X6.7625Y-4.85
X6.7625Y-4.9125
X6.825Y-4.7125
X6.875Y-4.425
X6.8875Y-4.55
X6.9625Y-3.075
X6.9625Y-3.1625
X6.9625Y-3.3375
X6.9625Y-3.425
X6.9625Y-3.5792
X6.9625Y-4.625
X6.9641Y-3.6609
X6.9781Y-3.8081
X6.9875Y-4.425
X6.9917Y-4.0583
X7.0Y-4.875
X7.1375Y-4.7152
X7.1625Y-2.775
X7.2026Y-4.875
X7.2257Y-3.1118
X7.2375Y-3.6125
X7.2375Y-4.1
X7.2375Y-4.425
X7.2377Y-3.3624
X7.25Y-4.55
X7.325Y-4.625
X7.3356Y-3.8031
X7.3375Y-3.1875
X7.3375Y-3.45
X7.3375Y-3.7
X7.35Y-4.425
X7.4125Y-2.7625
X7.4224Y-4.875
X7.4625Y-4.7125
X7.4835Y-2.925
X7.975Y-4.3
T6
X4.575Y-4.525
X4.5981Y-4.15
T7
X3.6246Y-3.2321
X3.6246Y-3.3109
X4.4946Y-2.3609
X4.4946Y-2.4396
X4.4946Y-2.5183
X4.4946Y-2.5971
X4.741Y-2.3609
X4.741Y-2.4396
X4.741Y-2.5183
X4.741Y-2.5971
X4.9946Y-2.3609
X4.9946Y-2.4396
X4.9946Y-2.5183
X4.9946Y-2.5971
X5.2446Y-2.3609
X5.2446Y-2.4396
X5.2446Y-2.5183
X5.2446Y-2.5971
X5.4946Y-2.3609
X5.4946Y-2.4396
X5.4946Y-2.5183
X5.4946Y-2.5971
X5.551Y-5.2509
X5.551Y-5.3296
X5.551Y-5.4083
X5.551Y-5.4871
X5.7446Y-2.3609
X5.7446Y-2.4396
X5.7446Y-2.5183
X5.7446Y-2.5971
X5.8046Y-5.2509
X5.8046Y-5.3296
X5.8046Y-5.4083
X5.8046Y-5.4871
X5.9946Y-2.3609
X5.9946Y-2.4396
X5.9946Y-2.5183
X5.9946Y-2.5971
X6.063Y-5.2509
X6.063Y-5.3296
X6.063Y-5.4083
X6.063Y-5.4871
X6.2446Y-2.3609
X6.2446Y-2.4396
X6.2446Y-2.5183
X6.2446Y-2.5971
X6.313Y-5.2528
X6.313Y-5.3315
X6.313Y-5.4102
X6.313Y-5.489
X6.6246Y-2.3609
X6.6246Y-2.4396
X6.6246Y-2.5183
X6.6246Y-2.5971
X6.8746Y-2.3609
X6.8746Y-2.4396
X6.8746Y-2.5183
X6.8746Y-2.5971
X7.2546Y-2.3609
X7.2546Y-2.4396
X7.2546Y-2.5183
X7.2546Y-2.5971
X7.5597Y-4.0909
X7.6384Y-4.0909
X7.7165Y-3.0709
X7.7165Y-3.3371
X7.7172Y-4.0909
X7.7953Y-3.0709
X7.7953Y-3.3371
X7.7959Y-4.0909
X7.8106Y-3.5656
X7.8106Y-3.6444
X7.8106Y-3.7231
X7.8106Y-3.8018
X7.8106Y-3.8806
X7.874Y-3.0709
X7.874Y-3.3371
X7.8746Y-4.0909
X7.9528Y-3.0709
X7.9528Y-3.3371
X7.9534Y-4.0909
T8
X3.7605Y-4.8617
X3.7605Y-4.9601
X6.6846Y-5.2609
X6.6846Y-5.3609
X6.7846Y-5.2609
X6.7846Y-5.3609
X6.8846Y-5.2609
X6.8846Y-5.3609
X6.9846Y-5.2609
X6.9846Y-5.3609
X7.0846Y-5.2609
X7.0846Y-5.3609
X7.1846Y-5.2609
X7.1846Y-5.3609
X7.2846Y-5.2609
X7.2846Y-5.3609
X7.7067Y-4.6223
X7.7067Y-4.7994
X7.7067Y-4.9274
X7.7067Y-5.1046
X7.9626Y-4.6223
X7.9626Y-4.7994
X7.9626Y-4.9274
X7.9626Y-5.1046
T9
X4.4Y-5.32
X4.4Y-5.42
X4.4Y-5.52
X4.5Y-5.32
X4.5Y-5.42
X4.5Y-5.52
X4.6Y-5.32
X4.6Y-5.42
X4.6Y-5.52
X4.7Y-5.32
X4.7Y-5.42
X4.7Y-5.52
X4.8543Y-5.3181
X4.8543Y-5.4181
X4.8543Y-5.5181
X4.9543Y-5.3181
X4.9543Y-5.4181
X4.9543Y-5.5181
X5.0543Y-5.3181
X5.0543Y-5.4181
X5.0543Y-5.5181
X5.1543Y-5.3181
X5.1543Y-5.4181
X5.1543Y-5.5181
T5
G00X3.5581Y-3.6333
M15
G01X3.5266Y-3.6333
M16
G05
G00X3.5581Y-3.9734
M15
G01X3.5266Y-3.9734
M16
G05
G00X3.7285Y-3.6333
M15
G01X3.6852Y-3.6333
M16
G05
G00X3.7285Y-3.9734
M15
G01X3.6852Y-3.9734
M16
G05
M30
