%TF.GenerationSoftware,KiCad,Pcbnew,8.0.9-8.0.9-0~ubuntu22.04.1*%
%TF.CreationDate,2025-03-19T18:43:12+01:00*%
%TF.ProjectId,carte-io,63617274-652d-4696-9f2e-6b696361645f,1.1*%
%TF.SameCoordinates,Original*%
%TF.FileFunction,Drillmap*%
%TF.FilePolarity,Positive*%
%FSLAX45Y45*%
G04 Gerber Fmt 4.5, Leading zero omitted, Abs format (unit mm)*
G04 Created by KiCad (PCBNEW 8.0.9-8.0.9-0~ubuntu22.04.1) date 2025-03-19 18:43:12*
%MOMM*%
%LPD*%
G01*
G04 APERTURE LIST*
%ADD10C,0.050000*%
%ADD11C,0.200000*%
%ADD12C,0.100000*%
%ADD13C,0.102000*%
G04 APERTURE END LIST*
D10*
X9955650Y-8409300D02*
X10055650Y-8409300D01*
X20508200Y-5532400D02*
X20508200Y-14382400D01*
X8758200Y-5532400D02*
X20508200Y-5532400D01*
X9955650Y-8409300D02*
G75*
G02*
X9955650Y-8193300I-187060J108000D01*
G01*
X20508200Y-14382400D02*
X8758200Y-14382400D01*
X9955650Y-8193300D02*
X10055650Y-8193300D01*
X8758200Y-14382400D02*
X8758200Y-5532400D01*
X10055650Y-8409300D02*
G75*
G02*
X10055650Y-8193300I-288860J108000D01*
G01*
D11*
D12*
X9030450Y-10724400D02*
X9060450Y-10754400D01*
X9060450Y-10724400D02*
X9030450Y-10754400D01*
X9055200Y-11688950D02*
X9085200Y-11718950D01*
X9085200Y-11688950D02*
X9055200Y-11718950D01*
X9219450Y-7231900D02*
X9249450Y-7261900D01*
X9249450Y-7231900D02*
X9219450Y-7261900D01*
X9251200Y-8724150D02*
X9281200Y-8754150D01*
X9281200Y-8724150D02*
X9251200Y-8754150D01*
X9314700Y-11740400D02*
X9344700Y-11770400D01*
X9344700Y-11740400D02*
X9314700Y-11770400D01*
X9536950Y-6914400D02*
X9566950Y-6944400D01*
X9566950Y-6914400D02*
X9536950Y-6944400D01*
X9625850Y-8239650D02*
X9655850Y-8269650D01*
X9655850Y-8239650D02*
X9625850Y-8269650D01*
X9625850Y-8319650D02*
X9655850Y-8349650D01*
X9655850Y-8319650D02*
X9625850Y-8349650D01*
X9695700Y-9637000D02*
X9725700Y-9667000D01*
X9725700Y-9637000D02*
X9695700Y-9667000D01*
X9695700Y-9740150D02*
X9725700Y-9770150D01*
X9725700Y-9740150D02*
X9695700Y-9770150D01*
X9822700Y-7739900D02*
X9852700Y-7769900D01*
X9852700Y-7739900D02*
X9822700Y-7769900D01*
X9854450Y-11740400D02*
X9884450Y-11770400D01*
X9884450Y-11740400D02*
X9854450Y-11770400D01*
X9886200Y-10692650D02*
X9916200Y-10722650D01*
X9916200Y-10692650D02*
X9886200Y-10722650D01*
X10092575Y-8581275D02*
X10122575Y-8611275D01*
X10122575Y-8581275D02*
X10092575Y-8611275D01*
X10168700Y-8695650D02*
X10198700Y-8725650D01*
X10198700Y-8695650D02*
X10168700Y-8725650D01*
X10267200Y-8057400D02*
X10297200Y-8087400D01*
X10297200Y-8057400D02*
X10267200Y-8087400D01*
X10267200Y-8533650D02*
X10297200Y-8563650D01*
X10297200Y-8533650D02*
X10267200Y-8563650D01*
X10557750Y-9414750D02*
X10587750Y-9444750D01*
X10587750Y-9414750D02*
X10557750Y-9444750D01*
X10557750Y-9541750D02*
X10587750Y-9571750D01*
X10587750Y-9541750D02*
X10557750Y-9571750D01*
X10584700Y-7898650D02*
X10614700Y-7928650D01*
X10614700Y-7898650D02*
X10584700Y-7928650D01*
X10620450Y-9708400D02*
X10650450Y-9738400D01*
X10650450Y-9708400D02*
X10620450Y-9738400D01*
X10922875Y-9017875D02*
X10952875Y-9047875D01*
X10952875Y-9017875D02*
X10922875Y-9047875D01*
X11521325Y-6231775D02*
X11551325Y-6261775D01*
X11551325Y-6231775D02*
X11521325Y-6261775D01*
X11542000Y-9823350D02*
X11572000Y-9853350D01*
X11572000Y-9823350D02*
X11542000Y-9853350D01*
X11542000Y-10077350D02*
X11572000Y-10107350D01*
X11572000Y-10077350D02*
X11542000Y-10107350D01*
X11791200Y-6247650D02*
X11821200Y-6277650D01*
X11821200Y-6247650D02*
X11791200Y-6277650D01*
X11791200Y-7263650D02*
X11821200Y-7293650D01*
X11821200Y-7263650D02*
X11791200Y-7293650D01*
X11822950Y-6850900D02*
X11852950Y-6880900D01*
X11852950Y-6850900D02*
X11822950Y-6880900D01*
X11886450Y-11867400D02*
X11916450Y-11897400D01*
X11916450Y-11867400D02*
X11886450Y-11897400D01*
X11891250Y-12653250D02*
X11921250Y-12683250D01*
X11921250Y-12653250D02*
X11891250Y-12683250D01*
X11891250Y-13161250D02*
X11921250Y-13191250D01*
X11921250Y-13161250D02*
X11891250Y-13191250D01*
X11918200Y-9105150D02*
X11948200Y-9135150D01*
X11948200Y-9105150D02*
X11918200Y-9135150D01*
X11927900Y-10216400D02*
X11957900Y-10246400D01*
X11957900Y-10216400D02*
X11927900Y-10246400D01*
X11927900Y-10311650D02*
X11957900Y-10341650D01*
X11957900Y-10311650D02*
X11927900Y-10341650D01*
X12045200Y-8843250D02*
X12075200Y-8873250D01*
X12075200Y-8843250D02*
X12045200Y-8873250D01*
X12076950Y-11867400D02*
X12106950Y-11897400D01*
X12106950Y-11867400D02*
X12076950Y-11897400D01*
X12092825Y-6231775D02*
X12122825Y-6261775D01*
X12122825Y-6231775D02*
X12092825Y-6261775D01*
X12108700Y-6850900D02*
X12138700Y-6880900D01*
X12138700Y-6850900D02*
X12108700Y-6880900D01*
X12558000Y-8049500D02*
X12588000Y-8079500D01*
X12588000Y-8049500D02*
X12558000Y-8079500D01*
X12616700Y-7485900D02*
X12646700Y-7515900D01*
X12646700Y-7485900D02*
X12616700Y-7515900D01*
X12653250Y-8049500D02*
X12683250Y-8079500D01*
X12683250Y-8049500D02*
X12653250Y-8079500D01*
X12711950Y-7485900D02*
X12741950Y-7515900D01*
X12741950Y-7485900D02*
X12711950Y-7515900D01*
X12743300Y-10470400D02*
X12773300Y-10500400D01*
X12773300Y-10470400D02*
X12743300Y-10500400D01*
X12743700Y-10343400D02*
X12773700Y-10373400D01*
X12773700Y-10343400D02*
X12743700Y-10373400D01*
X12748500Y-12589750D02*
X12778500Y-12619750D01*
X12778500Y-12589750D02*
X12748500Y-12619750D01*
X12792950Y-6850900D02*
X12822950Y-6880900D01*
X12822950Y-6850900D02*
X12792950Y-6880900D01*
X12814325Y-6223025D02*
X12844325Y-6253025D01*
X12844325Y-6223025D02*
X12814325Y-6253025D01*
X12843750Y-12653250D02*
X12873750Y-12683250D01*
X12873750Y-12653250D02*
X12843750Y-12683250D01*
X12970750Y-12081750D02*
X13000750Y-12111750D01*
X13000750Y-12081750D02*
X12970750Y-12111750D01*
X12992950Y-6850900D02*
X13022950Y-6880900D01*
X13022950Y-6850900D02*
X12992950Y-6880900D01*
X13029450Y-8124150D02*
X13059450Y-8154150D01*
X13059450Y-8124150D02*
X13029450Y-8154150D01*
X13092950Y-6247650D02*
X13122950Y-6277650D01*
X13122950Y-6247650D02*
X13092950Y-6277650D01*
X13092950Y-7263650D02*
X13122950Y-7293650D01*
X13122950Y-7263650D02*
X13092950Y-7293650D01*
X13124700Y-7517650D02*
X13154700Y-7547650D01*
X13154700Y-7517650D02*
X13124700Y-7547650D01*
X13128771Y-9043008D02*
X13158771Y-9073008D01*
X13158771Y-9043008D02*
X13128771Y-9073008D01*
X13135052Y-8963255D02*
X13165052Y-8993255D01*
X13165052Y-8963255D02*
X13135052Y-8993255D01*
X13219950Y-6850900D02*
X13249950Y-6880900D01*
X13249950Y-6850900D02*
X13219950Y-6880900D01*
X13219950Y-11518150D02*
X13249950Y-11548150D01*
X13249950Y-11518150D02*
X13219950Y-11548150D01*
X13283450Y-10375150D02*
X13313450Y-10405150D01*
X13313450Y-10375150D02*
X13283450Y-10405150D01*
X13283450Y-10502150D02*
X13313450Y-10532150D01*
X13313450Y-10502150D02*
X13283450Y-10532150D01*
X13288250Y-12653250D02*
X13318250Y-12683250D01*
X13318250Y-12653250D02*
X13288250Y-12683250D01*
X13320000Y-9795750D02*
X13350000Y-9825750D01*
X13350000Y-9795750D02*
X13320000Y-9825750D01*
X13362825Y-6231775D02*
X13392825Y-6261775D01*
X13392825Y-6231775D02*
X13362825Y-6261775D01*
X13410450Y-6850900D02*
X13440450Y-6880900D01*
X13440450Y-6850900D02*
X13410450Y-6880900D01*
X13415250Y-9637000D02*
X13445250Y-9667000D01*
X13445250Y-9637000D02*
X13415250Y-9667000D01*
X13447000Y-13034250D02*
X13477000Y-13064250D01*
X13477000Y-13034250D02*
X13447000Y-13064250D01*
X13473950Y-11518150D02*
X13503950Y-11548150D01*
X13503950Y-11518150D02*
X13473950Y-11548150D01*
X13632700Y-10565650D02*
X13662700Y-10595650D01*
X13662700Y-10565650D02*
X13632700Y-10595650D01*
X13732750Y-10811750D02*
X13762750Y-10841750D01*
X13762750Y-10811750D02*
X13732750Y-10841750D01*
X13759700Y-7859000D02*
X13789700Y-7889000D01*
X13789700Y-7859000D02*
X13759700Y-7889000D01*
X13761000Y-7986000D02*
X13791000Y-8016000D01*
X13791000Y-7986000D02*
X13761000Y-8016000D01*
X13768527Y-10883304D02*
X13798527Y-10913304D01*
X13798527Y-10883304D02*
X13768527Y-10913304D01*
X13854950Y-10533900D02*
X13884950Y-10563900D01*
X13884950Y-10533900D02*
X13854950Y-10563900D01*
X13886700Y-10629150D02*
X13916700Y-10659150D01*
X13916700Y-10629150D02*
X13886700Y-10659150D01*
X13941509Y-7508959D02*
X13971509Y-7538959D01*
X13971509Y-7508959D02*
X13941509Y-7538959D01*
X14007700Y-8583850D02*
X14037700Y-8613850D01*
X14037700Y-8583850D02*
X14007700Y-8613850D01*
X14050250Y-9517900D02*
X14080250Y-9547900D01*
X14080250Y-9517900D02*
X14050250Y-9547900D01*
X14074534Y-9012566D02*
X14104534Y-9042566D01*
X14104534Y-9012566D02*
X14074534Y-9042566D01*
X14077200Y-9327400D02*
X14107200Y-9357400D01*
X14107200Y-9327400D02*
X14077200Y-9357400D01*
X14077200Y-9422650D02*
X14107200Y-9452650D01*
X14107200Y-9422650D02*
X14077200Y-9452650D01*
X14082000Y-9224250D02*
X14112000Y-9254250D01*
X14112000Y-9224250D02*
X14082000Y-9254250D01*
X14087950Y-6850900D02*
X14117950Y-6880900D01*
X14117950Y-6850900D02*
X14087950Y-6880900D01*
X14108950Y-6215900D02*
X14138950Y-6245900D01*
X14138950Y-6215900D02*
X14108950Y-6245900D01*
X14141050Y-11786800D02*
X14171050Y-11816800D01*
X14171050Y-11786800D02*
X14141050Y-11816800D01*
X14145500Y-11986500D02*
X14175500Y-12016500D01*
X14175500Y-11986500D02*
X14145500Y-12016500D01*
X14172450Y-8343150D02*
X14202450Y-8373150D01*
X14202450Y-8343150D02*
X14172450Y-8373150D01*
X14177700Y-8621000D02*
X14207700Y-8651000D01*
X14207700Y-8621000D02*
X14177700Y-8651000D01*
X14199800Y-11732500D02*
X14229800Y-11762500D01*
X14229800Y-11732500D02*
X14199800Y-11762500D01*
X14209000Y-9668750D02*
X14239000Y-9698750D01*
X14239000Y-9668750D02*
X14209000Y-9698750D01*
X14209239Y-8522489D02*
X14239239Y-8552489D01*
X14239239Y-8522489D02*
X14209239Y-8552489D01*
X14217700Y-8970250D02*
X14247700Y-9000250D01*
X14247700Y-8970250D02*
X14217700Y-9000250D01*
X14240750Y-12177000D02*
X14270750Y-12207000D01*
X14270750Y-12177000D02*
X14240750Y-12207000D01*
X14244777Y-9597196D02*
X14274777Y-9627196D01*
X14274777Y-9597196D02*
X14244777Y-9627196D01*
X14249152Y-8656981D02*
X14279152Y-8686981D01*
X14279152Y-8656981D02*
X14249152Y-8686981D01*
X14287950Y-6850900D02*
X14317950Y-6880900D01*
X14317950Y-6850900D02*
X14287950Y-6880900D01*
X14327500Y-9898900D02*
X14357500Y-9928900D01*
X14357500Y-9898900D02*
X14327500Y-9928900D01*
X14331200Y-8660650D02*
X14361200Y-8690650D01*
X14361200Y-8660650D02*
X14331200Y-8690650D01*
X14331200Y-10025900D02*
X14361200Y-10055900D01*
X14361200Y-10025900D02*
X14331200Y-10055900D01*
X14331200Y-10216400D02*
X14361200Y-10246400D01*
X14361200Y-10216400D02*
X14331200Y-10246400D01*
X14362950Y-8406650D02*
X14392950Y-8436650D01*
X14392950Y-8406650D02*
X14362950Y-8436650D01*
X14364741Y-8593568D02*
X14394741Y-8623568D01*
X14394741Y-8593568D02*
X14364741Y-8623568D01*
X14394700Y-6247650D02*
X14424700Y-6277650D01*
X14424700Y-6247650D02*
X14394700Y-6277650D01*
X14394700Y-7263650D02*
X14424700Y-7293650D01*
X14424700Y-7263650D02*
X14394700Y-7293650D01*
X14426450Y-9898900D02*
X14456450Y-9928900D01*
X14456450Y-9898900D02*
X14426450Y-9928900D01*
X14463000Y-9160750D02*
X14493000Y-9190750D01*
X14493000Y-9160750D02*
X14463000Y-9190750D01*
X14489950Y-10089400D02*
X14519950Y-10119400D01*
X14519950Y-10089400D02*
X14489950Y-10119400D01*
X14489950Y-10184650D02*
X14519950Y-10214650D01*
X14519950Y-10184650D02*
X14489950Y-10214650D01*
X14517700Y-8993200D02*
X14547700Y-9023200D01*
X14547700Y-8993200D02*
X14517700Y-9023200D01*
X14521700Y-6850900D02*
X14551700Y-6880900D01*
X14551700Y-6850900D02*
X14521700Y-6880900D01*
X14590000Y-8017750D02*
X14620000Y-8047750D01*
X14620000Y-8017750D02*
X14590000Y-8047750D01*
X14616950Y-8501900D02*
X14646950Y-8531900D01*
X14646950Y-8501900D02*
X14616950Y-8531900D01*
X14621750Y-9283000D02*
X14651750Y-9313000D01*
X14651750Y-9283000D02*
X14621750Y-9313000D01*
X14648700Y-7454150D02*
X14678700Y-7484150D01*
X14678700Y-7454150D02*
X14648700Y-7484150D01*
X14653500Y-8970250D02*
X14683500Y-9000250D01*
X14683500Y-8970250D02*
X14653500Y-9000250D01*
X14664575Y-6231775D02*
X14694575Y-6261775D01*
X14694575Y-6231775D02*
X14664575Y-6261775D01*
X14685250Y-8017750D02*
X14715250Y-8047750D01*
X14715250Y-8017750D02*
X14685250Y-8047750D01*
X14712200Y-6850900D02*
X14742200Y-6880900D01*
X14742200Y-6850900D02*
X14712200Y-6880900D01*
X14717000Y-10176750D02*
X14747000Y-10206750D01*
X14747000Y-10176750D02*
X14717000Y-10206750D01*
X14743950Y-7454150D02*
X14773950Y-7484150D01*
X14773950Y-7454150D02*
X14743950Y-7484150D01*
X14743950Y-12375400D02*
X14773950Y-12405400D01*
X14773950Y-12375400D02*
X14743950Y-12405400D01*
X14743950Y-12565900D02*
X14773950Y-12595900D01*
X14773950Y-12565900D02*
X14743950Y-12595900D01*
X14812250Y-7986000D02*
X14842250Y-8016000D01*
X14842250Y-7986000D02*
X14812250Y-8016000D01*
X14812250Y-12018250D02*
X14842250Y-12048250D01*
X14842250Y-12018250D02*
X14812250Y-12048250D01*
X14870950Y-11676900D02*
X14900950Y-11706900D01*
X14900950Y-11676900D02*
X14870950Y-11706900D01*
X14875750Y-9097250D02*
X14905750Y-9127250D01*
X14905750Y-9097250D02*
X14875750Y-9127250D01*
X14875750Y-11859500D02*
X14905750Y-11889500D01*
X14905750Y-11859500D02*
X14875750Y-11889500D01*
X14907360Y-7985860D02*
X14937360Y-8015860D01*
X14937360Y-7985860D02*
X14907360Y-8015860D01*
X14939250Y-9954500D02*
X14969250Y-9984500D01*
X14969250Y-9954500D02*
X14939250Y-9984500D01*
X15034500Y-8684500D02*
X15064500Y-8714500D01*
X15064500Y-8684500D02*
X15034500Y-8714500D01*
X15034500Y-11588000D02*
X15064500Y-11618000D01*
X15064500Y-11588000D02*
X15034500Y-11618000D01*
X15320250Y-7732000D02*
X15350250Y-7762000D01*
X15350250Y-7732000D02*
X15320250Y-7762000D01*
X15320250Y-9446800D02*
X15350250Y-9476800D01*
X15350250Y-9446800D02*
X15320250Y-9476800D01*
X15320250Y-9668750D02*
X15350250Y-9698750D01*
X15350250Y-9668750D02*
X15320250Y-9698750D01*
X15347200Y-8057400D02*
X15377200Y-8087400D01*
X15377200Y-8057400D02*
X15347200Y-8087400D01*
X15355500Y-11986500D02*
X15385500Y-12016500D01*
X15385500Y-11986500D02*
X15355500Y-12016500D01*
X15378950Y-10565650D02*
X15408950Y-10595650D01*
X15408950Y-10565650D02*
X15378950Y-10595650D01*
X15378950Y-10660900D02*
X15408950Y-10690900D01*
X15408950Y-10660900D02*
X15378950Y-10690900D01*
X15410700Y-6215900D02*
X15440700Y-6245900D01*
X15440700Y-6215900D02*
X15410700Y-6245900D01*
X15415500Y-7668500D02*
X15445500Y-7698500D01*
X15445500Y-7668500D02*
X15415500Y-7698500D01*
X15440250Y-11732500D02*
X15470250Y-11762500D01*
X15470250Y-11732500D02*
X15440250Y-11762500D01*
X15447250Y-9954500D02*
X15477250Y-9984500D01*
X15477250Y-9954500D02*
X15447250Y-9984500D01*
X15479000Y-7732000D02*
X15509000Y-7762000D01*
X15509000Y-7732000D02*
X15479000Y-7762000D01*
X15510750Y-9319500D02*
X15540750Y-9349500D01*
X15540750Y-9319500D02*
X15510750Y-9349500D01*
X15510750Y-12177000D02*
X15540750Y-12207000D01*
X15540750Y-12177000D02*
X15510750Y-12207000D01*
X15569450Y-8724150D02*
X15599450Y-8754150D01*
X15599450Y-8724150D02*
X15569450Y-8754150D01*
X15574250Y-9256000D02*
X15604250Y-9286000D01*
X15604250Y-9256000D02*
X15574250Y-9286000D01*
X15574250Y-9732250D02*
X15604250Y-9762250D01*
X15604250Y-9732250D02*
X15574250Y-9762250D01*
X15637750Y-9097250D02*
X15667750Y-9127250D01*
X15667750Y-9097250D02*
X15637750Y-9127250D01*
X15637750Y-9795750D02*
X15667750Y-9825750D01*
X15667750Y-9795750D02*
X15637750Y-9825750D01*
X15637750Y-11827750D02*
X15667750Y-11857750D01*
X15667750Y-11827750D02*
X15637750Y-11857750D01*
X15669500Y-10049750D02*
X15699500Y-10079750D01*
X15699500Y-10049750D02*
X15669500Y-10079750D01*
X15669500Y-12050000D02*
X15699500Y-12080000D01*
X15699500Y-12050000D02*
X15669500Y-12080000D01*
X15696450Y-6247650D02*
X15726450Y-6277650D01*
X15726450Y-6247650D02*
X15696450Y-6277650D01*
X15696450Y-7263650D02*
X15726450Y-7293650D01*
X15726450Y-7263650D02*
X15696450Y-7293650D01*
X15697750Y-9668750D02*
X15727750Y-9698750D01*
X15727750Y-9668750D02*
X15697750Y-9698750D01*
X15698250Y-8303500D02*
X15728250Y-8333500D01*
X15728250Y-8303500D02*
X15698250Y-8333500D01*
X15698250Y-8565400D02*
X15728250Y-8595400D01*
X15728250Y-8565400D02*
X15698250Y-8595400D01*
X15728200Y-9390900D02*
X15758200Y-9420900D01*
X15758200Y-9390900D02*
X15728200Y-9420900D01*
X15764750Y-7700250D02*
X15794750Y-7730250D01*
X15794750Y-7700250D02*
X15764750Y-7730250D01*
X15823450Y-6850900D02*
X15853450Y-6880900D01*
X15853450Y-6850900D02*
X15823450Y-6880900D01*
X15831750Y-7636750D02*
X15861750Y-7666750D01*
X15861750Y-7636750D02*
X15831750Y-7666750D01*
X15950450Y-7993900D02*
X15980450Y-8023900D01*
X15980450Y-7993900D02*
X15950450Y-8023900D01*
X15950450Y-8140000D02*
X15980450Y-8170000D01*
X15980450Y-8140000D02*
X15950450Y-8170000D01*
X15966325Y-6231775D02*
X15996325Y-6261775D01*
X15996325Y-6231775D02*
X15966325Y-6261775D01*
X16013950Y-6850900D02*
X16043950Y-6880900D01*
X16043950Y-6850900D02*
X16013950Y-6880900D01*
X16045700Y-12565900D02*
X16075700Y-12595900D01*
X16075700Y-12565900D02*
X16045700Y-12595900D01*
X16109200Y-12280800D02*
X16139200Y-12310800D01*
X16139200Y-12280800D02*
X16109200Y-12310800D01*
X16204450Y-8755900D02*
X16234450Y-8785900D01*
X16234450Y-8755900D02*
X16204450Y-8785900D01*
X16331450Y-9105150D02*
X16361450Y-9135150D01*
X16361450Y-9105150D02*
X16331450Y-9135150D01*
X16363200Y-8724150D02*
X16393200Y-8754150D01*
X16393200Y-8724150D02*
X16363200Y-8754150D01*
X16394950Y-10303750D02*
X16424950Y-10333750D01*
X16424950Y-10303750D02*
X16394950Y-10333750D01*
X16399750Y-7319250D02*
X16429750Y-7349250D01*
X16429750Y-7319250D02*
X16399750Y-7349250D01*
X16485925Y-9958125D02*
X16515925Y-9988125D01*
X16515925Y-9958125D02*
X16485925Y-9988125D01*
X16490200Y-8279650D02*
X16520200Y-8309650D01*
X16520200Y-8279650D02*
X16490200Y-8309650D01*
X16556000Y-9412450D02*
X16586000Y-9442450D01*
X16586000Y-9412450D02*
X16556000Y-9442450D01*
X16712450Y-7100800D02*
X16742450Y-7130800D01*
X16742450Y-7100800D02*
X16712450Y-7130800D01*
X16748800Y-10208500D02*
X16778800Y-10238500D01*
X16778800Y-10208500D02*
X16748800Y-10238500D01*
X16759975Y-9502125D02*
X16789975Y-9532125D01*
X16789975Y-9502125D02*
X16759975Y-9532125D01*
X16856950Y-6120650D02*
X16886950Y-6150650D01*
X16886950Y-6120650D02*
X16856950Y-6150650D01*
X16934700Y-6184150D02*
X16964700Y-6214150D01*
X16964700Y-6184150D02*
X16934700Y-6214150D01*
X17061700Y-11994400D02*
X17091700Y-12024400D01*
X17091700Y-11994400D02*
X17061700Y-12024400D01*
X17061700Y-12121400D02*
X17091700Y-12151400D01*
X17091700Y-12121400D02*
X17061700Y-12151400D01*
X17156950Y-6247650D02*
X17186950Y-6277650D01*
X17186950Y-6247650D02*
X17156950Y-6277650D01*
X17283950Y-6184150D02*
X17313950Y-6214150D01*
X17313950Y-6184150D02*
X17283950Y-6214150D01*
X17410950Y-9073400D02*
X17440950Y-9103400D01*
X17440950Y-9073400D02*
X17410950Y-9103400D01*
X17419550Y-8669150D02*
X17449550Y-8699150D01*
X17449550Y-8669150D02*
X17419550Y-8699150D01*
X17456950Y-6120650D02*
X17486950Y-6150650D01*
X17486950Y-6120650D02*
X17456950Y-6150650D01*
X17474450Y-7231900D02*
X17504450Y-7261900D01*
X17504450Y-7231900D02*
X17474450Y-7261900D01*
X17664950Y-8152650D02*
X17694950Y-8182650D01*
X17694950Y-8152650D02*
X17664950Y-8182650D01*
X17664950Y-8851150D02*
X17694950Y-8881150D01*
X17694950Y-8851150D02*
X17664950Y-8881150D01*
X17728450Y-12565900D02*
X17758450Y-12595900D01*
X17758450Y-12565900D02*
X17728450Y-12595900D01*
X17728450Y-12692900D02*
X17758450Y-12722900D01*
X17758450Y-12692900D02*
X17728450Y-12722900D01*
X17822150Y-7516100D02*
X17852150Y-7546100D01*
X17852150Y-7516100D02*
X17822150Y-7546100D01*
X18304750Y-7033500D02*
X18334750Y-7063500D01*
X18334750Y-7033500D02*
X18304750Y-7063500D01*
X18431750Y-7509750D02*
X18461750Y-7539750D01*
X18461750Y-7509750D02*
X18431750Y-7539750D01*
X18590500Y-7033500D02*
X18620500Y-7063500D01*
X18620500Y-7033500D02*
X18590500Y-7063500D01*
X18649200Y-10121150D02*
X18679200Y-10151150D01*
X18679200Y-10121150D02*
X18649200Y-10151150D01*
X19188950Y-7581150D02*
X19218950Y-7611150D01*
X19218950Y-7581150D02*
X19188950Y-7611150D01*
X19188950Y-7708150D02*
X19218950Y-7738150D01*
X19218950Y-7708150D02*
X19188950Y-7738150D01*
X19569950Y-13137400D02*
X19599950Y-13167400D01*
X19599950Y-13137400D02*
X19569950Y-13167400D01*
X20165200Y-11994400D02*
X20195200Y-12024400D01*
X20195200Y-11994400D02*
X20165200Y-12024400D01*
X9672000Y-9334500D02*
G75*
G02*
X9632000Y-9334500I-20000J0D01*
G01*
X9632000Y-9334500D02*
G75*
G02*
X9672000Y-9334500I20000J0D01*
G01*
X9672000Y-9969500D02*
G75*
G02*
X9632000Y-9969500I-20000J0D01*
G01*
X9632000Y-9969500D02*
G75*
G02*
X9672000Y-9969500I20000J0D01*
G01*
X10211750Y-9334500D02*
G75*
G02*
X10171750Y-9334500I-20000J0D01*
G01*
X10171750Y-9334500D02*
G75*
G02*
X10211750Y-9334500I20000J0D01*
G01*
X10211750Y-10382250D02*
G75*
G02*
X10171750Y-10382250I-20000J0D01*
G01*
X10171750Y-10382250D02*
G75*
G02*
X10211750Y-10382250I20000J0D01*
G01*
X10784800Y-9698000D02*
G75*
G02*
X10744800Y-9698000I-20000J0D01*
G01*
X10744800Y-9698000D02*
G75*
G02*
X10784800Y-9698000I20000J0D01*
G01*
X9393200Y-12111400D02*
X9393200Y-12161400D01*
X9368200Y-12136400D02*
X9418200Y-12136400D01*
X9393200Y-12365400D02*
X9393200Y-12415400D01*
X9368200Y-12390400D02*
X9418200Y-12390400D01*
X9393200Y-12682900D02*
X9393200Y-12732900D01*
X9368200Y-12707900D02*
X9418200Y-12707900D01*
X9520200Y-10714400D02*
X9520200Y-10764400D01*
X9495200Y-10739400D02*
X9545200Y-10739400D01*
X9710700Y-11889150D02*
X9710700Y-11939150D01*
X9685700Y-11914150D02*
X9735700Y-11914150D01*
X9900500Y-10877300D02*
X9900500Y-10927300D01*
X9875500Y-10902300D02*
X9925500Y-10902300D01*
X9900500Y-11194800D02*
X9900500Y-11244800D01*
X9875500Y-11219800D02*
X9925500Y-11219800D01*
X10023700Y-10015900D02*
X10023700Y-10065900D01*
X9998700Y-10040900D02*
X10048700Y-10040900D01*
X10033000Y-11468500D02*
X10033000Y-11518500D01*
X10008000Y-11493500D02*
X10058000Y-11493500D01*
X10122296Y-11763266D02*
X10122296Y-11813266D01*
X10097296Y-11788266D02*
X10147296Y-11788266D01*
X10631450Y-11230800D02*
X10631450Y-11280800D01*
X10606450Y-11255800D02*
X10656450Y-11255800D01*
X10668000Y-10516000D02*
X10668000Y-10566000D01*
X10643000Y-10541000D02*
X10693000Y-10541000D01*
X10748925Y-8437925D02*
X10748925Y-8487925D01*
X10723925Y-8462925D02*
X10773925Y-8462925D01*
X11176000Y-10833500D02*
X11176000Y-10883500D01*
X11151000Y-10858500D02*
X11201000Y-10858500D01*
X11501400Y-11628800D02*
X11501400Y-11678800D01*
X11476400Y-11653800D02*
X11526400Y-11653800D01*
X11647450Y-11227200D02*
X11647450Y-11277200D01*
X11622450Y-11252200D02*
X11672450Y-11252200D01*
X11938000Y-7658500D02*
X11938000Y-7708500D01*
X11913000Y-7683500D02*
X11963000Y-7683500D01*
X11985150Y-8213650D02*
X11985150Y-8263650D01*
X11960150Y-8238650D02*
X12010150Y-8238650D01*
X12065000Y-12643250D02*
X12065000Y-12693250D01*
X12040000Y-12668250D02*
X12090000Y-12668250D01*
X12111000Y-12416200D02*
X12111000Y-12466200D01*
X12086000Y-12441200D02*
X12136000Y-12441200D01*
X12128500Y-12040000D02*
X12128500Y-12090000D01*
X12103500Y-12065000D02*
X12153500Y-12065000D01*
X12319000Y-12897250D02*
X12319000Y-12947250D01*
X12294000Y-12922250D02*
X12344000Y-12922250D01*
X12599950Y-12428900D02*
X12599950Y-12478900D01*
X12574950Y-12453900D02*
X12624950Y-12453900D01*
X12717200Y-9251450D02*
X12717200Y-9301450D01*
X12692200Y-9276450D02*
X12742200Y-9276450D01*
X12763500Y-8039500D02*
X12763500Y-8089500D01*
X12738500Y-8064500D02*
X12788500Y-8064500D01*
X12862050Y-10643000D02*
X12862050Y-10693000D01*
X12837050Y-10668000D02*
X12887050Y-10668000D01*
X12885700Y-11635150D02*
X12885700Y-11685150D01*
X12860700Y-11660150D02*
X12910700Y-11660150D01*
X13044450Y-9253900D02*
X13044450Y-9303900D01*
X13019450Y-9278900D02*
X13069450Y-9278900D01*
X13208000Y-9565600D02*
X13208000Y-9615600D01*
X13183000Y-9590600D02*
X13233000Y-9590600D01*
X13208000Y-9881000D02*
X13208000Y-9931000D01*
X13183000Y-9906000D02*
X13233000Y-9906000D01*
X13328700Y-7634650D02*
X13328700Y-7684650D01*
X13303700Y-7659650D02*
X13353700Y-7659650D01*
X13398500Y-8865000D02*
X13398500Y-8915000D01*
X13373500Y-8890000D02*
X13423500Y-8890000D01*
X13462000Y-12675000D02*
X13462000Y-12725000D01*
X13437000Y-12700000D02*
X13487000Y-12700000D01*
X13589000Y-12040000D02*
X13589000Y-12090000D01*
X13564000Y-12065000D02*
X13614000Y-12065000D01*
X13589000Y-12428900D02*
X13589000Y-12478900D01*
X13564000Y-12453900D02*
X13614000Y-12453900D01*
X13716000Y-12929000D02*
X13716000Y-12979000D01*
X13691000Y-12954000D02*
X13741000Y-12954000D01*
X13779500Y-8960250D02*
X13779500Y-9010250D01*
X13754500Y-8985250D02*
X13804500Y-8985250D01*
X13779500Y-9214250D02*
X13779500Y-9264250D01*
X13754500Y-9239250D02*
X13804500Y-9239250D01*
X13779500Y-9404750D02*
X13779500Y-9454750D01*
X13754500Y-9429750D02*
X13804500Y-9429750D01*
X13779500Y-9504750D02*
X13779500Y-9554750D01*
X13754500Y-9529750D02*
X13804500Y-9529750D01*
X13779500Y-9912750D02*
X13779500Y-9962750D01*
X13754500Y-9937750D02*
X13804500Y-9937750D01*
X13843000Y-10166750D02*
X13843000Y-10216750D01*
X13818000Y-10191750D02*
X13868000Y-10191750D01*
X13858000Y-8088000D02*
X13858000Y-8138000D01*
X13833000Y-8113000D02*
X13883000Y-8113000D01*
X13879500Y-8960250D02*
X13879500Y-9010250D01*
X13854500Y-8985250D02*
X13904500Y-8985250D01*
X13943000Y-10166750D02*
X13943000Y-10216750D01*
X13918000Y-10191750D02*
X13968000Y-10191750D01*
X14001750Y-12357500D02*
X14001750Y-12407500D01*
X13976750Y-12382500D02*
X14026750Y-12382500D01*
X14033500Y-11405000D02*
X14033500Y-11455000D01*
X14008500Y-11430000D02*
X14058500Y-11430000D01*
X14177850Y-7641150D02*
X14177850Y-7691150D01*
X14152850Y-7666150D02*
X14202850Y-7666150D01*
X14314450Y-13762400D02*
X14314450Y-13812400D01*
X14289450Y-13787400D02*
X14339450Y-13787400D01*
X14334152Y-8230000D02*
X14334152Y-8280000D01*
X14309152Y-8255000D02*
X14359152Y-8255000D01*
X14441450Y-13635400D02*
X14441450Y-13685400D01*
X14416450Y-13660400D02*
X14466450Y-13660400D01*
X14469650Y-8031150D02*
X14469650Y-8081150D01*
X14444650Y-8056150D02*
X14494650Y-8056150D01*
X14573250Y-12357500D02*
X14573250Y-12407500D01*
X14548250Y-12382500D02*
X14598250Y-12382500D01*
X14605000Y-11341500D02*
X14605000Y-11391500D01*
X14580000Y-11366500D02*
X14630000Y-11366500D01*
X14605000Y-11500250D02*
X14605000Y-11550250D01*
X14580000Y-11525250D02*
X14630000Y-11525250D01*
X14732000Y-10071500D02*
X14732000Y-10121500D01*
X14707000Y-10096500D02*
X14757000Y-10096500D01*
X14986000Y-8039500D02*
X14986000Y-8089500D01*
X14961000Y-8064500D02*
X15011000Y-8064500D01*
X14986000Y-9023750D02*
X14986000Y-9073750D01*
X14961000Y-9048750D02*
X15011000Y-9048750D01*
X14986000Y-9123750D02*
X14986000Y-9173750D01*
X14961000Y-9148750D02*
X15011000Y-9148750D01*
X15044700Y-10238150D02*
X15044700Y-10288150D01*
X15019700Y-10263150D02*
X15069700Y-10263150D01*
X15076450Y-10522400D02*
X15076450Y-10572400D01*
X15051450Y-10547400D02*
X15101450Y-10547400D01*
X15240000Y-12357500D02*
X15240000Y-12407500D01*
X15215000Y-12382500D02*
X15265000Y-12382500D01*
X15271750Y-11405000D02*
X15271750Y-11455000D01*
X15246750Y-11430000D02*
X15296750Y-11430000D01*
X15335250Y-8960250D02*
X15335250Y-9010250D01*
X15310250Y-8985250D02*
X15360250Y-8985250D01*
X15647950Y-13762400D02*
X15647950Y-13812400D01*
X15622950Y-13787400D02*
X15672950Y-13787400D01*
X15774950Y-13635400D02*
X15774950Y-13685400D01*
X15749950Y-13660400D02*
X15799950Y-13660400D01*
X15811500Y-11341500D02*
X15811500Y-11391500D01*
X15786500Y-11366500D02*
X15836500Y-11366500D01*
X15843250Y-11500250D02*
X15843250Y-11550250D01*
X15818250Y-11525250D02*
X15868250Y-11525250D01*
X15843250Y-12357500D02*
X15843250Y-12407500D01*
X15818250Y-12382500D02*
X15868250Y-12382500D01*
X16028950Y-8999900D02*
X16028950Y-9049900D01*
X16003950Y-9024900D02*
X16053950Y-9024900D01*
X16192500Y-9849250D02*
X16192500Y-9899250D01*
X16167500Y-9874250D02*
X16217500Y-9874250D01*
X16282950Y-10460400D02*
X16282950Y-10510400D01*
X16257950Y-10485400D02*
X16307950Y-10485400D01*
X16346450Y-9285650D02*
X16346450Y-9335650D01*
X16321450Y-9310650D02*
X16371450Y-9310650D01*
X16351050Y-9849250D02*
X16351050Y-9899250D01*
X16326050Y-9874250D02*
X16376050Y-9874250D01*
X16378200Y-10079400D02*
X16378200Y-10129400D01*
X16353200Y-10104400D02*
X16403200Y-10104400D01*
X16727450Y-9888900D02*
X16727450Y-9938900D01*
X16702450Y-9913900D02*
X16752450Y-9913900D01*
X16763800Y-8960250D02*
X16763800Y-9010250D01*
X16738800Y-8985250D02*
X16788800Y-8985250D01*
X16795550Y-10452500D02*
X16795550Y-10502500D01*
X16770550Y-10477500D02*
X16820550Y-10477500D01*
X17113250Y-7436250D02*
X17113250Y-7486250D01*
X17088250Y-7461250D02*
X17138250Y-7461250D01*
X17251325Y-13635400D02*
X17251325Y-13685400D01*
X17226325Y-13660400D02*
X17276325Y-13660400D01*
X17267200Y-8269650D02*
X17267200Y-8319650D01*
X17242200Y-8294650D02*
X17292200Y-8294650D01*
X17267200Y-8999900D02*
X17267200Y-9049900D01*
X17242200Y-9024900D02*
X17292200Y-9024900D01*
X17267200Y-9634900D02*
X17267200Y-9684900D01*
X17242200Y-9659900D02*
X17292200Y-9659900D01*
X17362450Y-13762400D02*
X17362450Y-13812400D01*
X17337450Y-13787400D02*
X17387450Y-13787400D01*
X17425950Y-7888650D02*
X17425950Y-7938650D01*
X17400950Y-7913650D02*
X17450950Y-7913650D01*
X17448850Y-9306750D02*
X17448850Y-9356750D01*
X17423850Y-9331750D02*
X17473850Y-9331750D01*
X17572000Y-12384450D02*
X17572000Y-12434450D01*
X17547000Y-12409450D02*
X17597000Y-12409450D01*
X17616450Y-7729900D02*
X17616450Y-7779900D01*
X17591450Y-7754900D02*
X17641450Y-7754900D01*
X17771823Y-8744028D02*
X17771823Y-8794028D01*
X17746823Y-8769028D02*
X17796823Y-8769028D01*
X17783023Y-8047052D02*
X17783023Y-8097052D01*
X17758023Y-8072052D02*
X17808023Y-8072052D01*
X17789700Y-9391400D02*
X17789700Y-9441400D01*
X17764700Y-9416400D02*
X17814700Y-9416400D01*
X18060950Y-6967900D02*
X18060950Y-7017900D01*
X18035950Y-6992900D02*
X18085950Y-6992900D01*
X18060950Y-7507650D02*
X18060950Y-7557650D01*
X18035950Y-7532650D02*
X18085950Y-7532650D01*
X18175250Y-12289200D02*
X18175250Y-12339200D01*
X18150250Y-12314200D02*
X18200250Y-12314200D01*
X18187950Y-8269650D02*
X18187950Y-8319650D01*
X18162950Y-8294650D02*
X18212950Y-8294650D01*
X18195200Y-9613650D02*
X18195200Y-9663650D01*
X18170200Y-9638650D02*
X18220200Y-9638650D01*
X18207200Y-8936400D02*
X18207200Y-8986400D01*
X18182200Y-8961400D02*
X18232200Y-8961400D01*
X18251450Y-10460400D02*
X18251450Y-10510400D01*
X18226450Y-10485400D02*
X18276450Y-10485400D01*
X18314950Y-6142400D02*
X18314950Y-6192400D01*
X18289950Y-6167400D02*
X18339950Y-6167400D01*
X18473700Y-10587400D02*
X18473700Y-10637400D01*
X18448700Y-10612400D02*
X18498700Y-10612400D01*
X18537200Y-6110650D02*
X18537200Y-6160650D01*
X18512200Y-6135650D02*
X18562200Y-6135650D01*
X18537200Y-13635400D02*
X18537200Y-13685400D01*
X18512200Y-13660400D02*
X18562200Y-13660400D01*
X18664200Y-13794150D02*
X18664200Y-13844150D01*
X18639200Y-13819150D02*
X18689200Y-13819150D01*
X18827750Y-6991750D02*
X18827750Y-7041750D01*
X18802750Y-7016750D02*
X18852750Y-7016750D01*
X19008000Y-7404500D02*
X19008000Y-7454500D01*
X18983000Y-7429500D02*
X19033000Y-7429500D01*
X19108700Y-10492150D02*
X19108700Y-10542150D01*
X19083700Y-10517150D02*
X19133700Y-10517150D01*
X19648450Y-7190150D02*
X19648450Y-7240150D01*
X19623450Y-7215150D02*
X19673450Y-7215150D01*
X19648450Y-8206150D02*
X19648450Y-8256150D01*
X19623450Y-8231150D02*
X19673450Y-8231150D01*
X19807200Y-8682400D02*
X19807200Y-8732400D01*
X19782200Y-8707400D02*
X19832200Y-8707400D01*
X19838950Y-10238150D02*
X19838950Y-10288150D01*
X19813950Y-10263150D02*
X19863950Y-10263150D01*
X19838950Y-10777900D02*
X19838950Y-10827900D01*
X19813950Y-10802900D02*
X19863950Y-10802900D01*
X19934200Y-7412400D02*
X19934200Y-7462400D01*
X19909200Y-7437400D02*
X19959200Y-7437400D01*
X20251700Y-8904650D02*
X20251700Y-8954650D01*
X20226700Y-8929650D02*
X20276700Y-8929650D01*
X20350200Y-12428900D02*
X20350200Y-12478900D01*
X20325200Y-12453900D02*
X20375200Y-12453900D01*
X9018713Y-9249763D02*
X9018713Y-9207337D01*
X8976287Y-9207337D01*
X8976287Y-9249763D01*
X9018713Y-9249763D01*
X9037500Y-9198550D02*
X8957500Y-9198550D01*
X8957500Y-9258550D02*
G75*
G02*
X8957500Y-9198550I0J30000D01*
G01*
X8957500Y-9258550D02*
X9037500Y-9258550D01*
X9037500Y-9258550D02*
G75*
G03*
X9037500Y-9198550I0J30000D01*
G01*
X9018713Y-10113763D02*
X9018713Y-10071337D01*
X8976287Y-10071337D01*
X8976287Y-10113763D01*
X9018713Y-10113763D01*
X9037500Y-10062550D02*
X8957500Y-10062550D01*
X8957500Y-10122550D02*
G75*
G02*
X8957500Y-10062550I0J30000D01*
G01*
X8957500Y-10122550D02*
X9037500Y-10122550D01*
X9037500Y-10122550D02*
G75*
G03*
X9037500Y-10062550I0J30000D01*
G01*
X9436713Y-9249763D02*
X9436713Y-9207337D01*
X9394287Y-9207337D01*
X9394287Y-9249763D01*
X9436713Y-9249763D01*
X9470500Y-9198550D02*
X9360500Y-9198550D01*
X9360500Y-9258550D02*
G75*
G02*
X9360500Y-9198550I0J30000D01*
G01*
X9360500Y-9258550D02*
X9470500Y-9258550D01*
X9470500Y-9258550D02*
G75*
G03*
X9470500Y-9198550I0J30000D01*
G01*
X9436713Y-10113763D02*
X9436713Y-10071337D01*
X9394287Y-10071337D01*
X9394287Y-10113763D01*
X9436713Y-10113763D01*
X9470500Y-10062550D02*
X9360500Y-10062550D01*
X9360500Y-10122550D02*
G75*
G02*
X9360500Y-10062550I0J30000D01*
G01*
X9360500Y-10122550D02*
X9470500Y-10122550D01*
X9470500Y-10122550D02*
G75*
G03*
X9470500Y-10062550I0J30000D01*
G01*
X11620500Y-11528500D02*
X11655500Y-11493500D01*
X11620500Y-11458500D01*
X11585500Y-11493500D01*
X11620500Y-11528500D01*
X11679200Y-10576000D02*
X11714200Y-10541000D01*
X11679200Y-10506000D01*
X11644200Y-10541000D01*
X11679200Y-10576000D01*
X10877200Y-12191650D02*
X10957200Y-12271650D01*
X10957200Y-12191650D02*
X10877200Y-12271650D01*
X10957200Y-12231650D02*
G75*
G02*
X10877200Y-12231650I-40000J0D01*
G01*
X10877200Y-12231650D02*
G75*
G02*
X10957200Y-12231650I40000J0D01*
G01*
X11040750Y-12406000D02*
X11120750Y-12486000D01*
X11120750Y-12406000D02*
X11040750Y-12486000D01*
X11120750Y-12446000D02*
G75*
G02*
X11040750Y-12446000I-40000J0D01*
G01*
X11040750Y-12446000D02*
G75*
G02*
X11120750Y-12446000I40000J0D01*
G01*
X10232700Y-13299900D02*
X10332700Y-13399900D01*
X10332700Y-13299900D02*
X10232700Y-13399900D01*
X10282700Y-13299900D02*
X10282700Y-13399900D01*
X10232700Y-13349900D02*
X10332700Y-13349900D01*
X10486700Y-13299900D02*
X10586700Y-13399900D01*
X10586700Y-13299900D02*
X10486700Y-13399900D01*
X10536700Y-13299900D02*
X10536700Y-13399900D01*
X10486700Y-13349900D02*
X10586700Y-13349900D01*
D13*
X11125000Y-13461800D02*
X11227000Y-13563800D01*
X11227000Y-13461800D02*
X11125000Y-13563800D01*
X11212063Y-13548863D02*
X11212063Y-13476737D01*
X11139937Y-13476737D01*
X11139937Y-13548863D01*
X11212063Y-13548863D01*
X11125000Y-13715800D02*
X11227000Y-13817800D01*
X11227000Y-13715800D02*
X11125000Y-13817800D01*
X11212063Y-13802863D02*
X11212063Y-13730737D01*
X11139937Y-13730737D01*
X11139937Y-13802863D01*
X11212063Y-13802863D01*
X11125000Y-13969800D02*
X11227000Y-14071800D01*
X11227000Y-13969800D02*
X11125000Y-14071800D01*
X11212063Y-14056863D02*
X11212063Y-13984737D01*
X11139937Y-13984737D01*
X11139937Y-14056863D01*
X11212063Y-14056863D01*
X11379000Y-13461800D02*
X11481000Y-13563800D01*
X11481000Y-13461800D02*
X11379000Y-13563800D01*
X11466063Y-13548863D02*
X11466063Y-13476737D01*
X11393937Y-13476737D01*
X11393937Y-13548863D01*
X11466063Y-13548863D01*
X11379000Y-13715800D02*
X11481000Y-13817800D01*
X11481000Y-13715800D02*
X11379000Y-13817800D01*
X11466063Y-13802863D02*
X11466063Y-13730737D01*
X11393937Y-13730737D01*
X11393937Y-13802863D01*
X11466063Y-13802863D01*
X11379000Y-13969800D02*
X11481000Y-14071800D01*
X11481000Y-13969800D02*
X11379000Y-14071800D01*
X11466063Y-14056863D02*
X11466063Y-13984737D01*
X11393937Y-13984737D01*
X11393937Y-14056863D01*
X11466063Y-14056863D01*
X11633000Y-13461800D02*
X11735000Y-13563800D01*
X11735000Y-13461800D02*
X11633000Y-13563800D01*
X11720063Y-13548863D02*
X11720063Y-13476737D01*
X11647937Y-13476737D01*
X11647937Y-13548863D01*
X11720063Y-13548863D01*
X11633000Y-13715800D02*
X11735000Y-13817800D01*
X11735000Y-13715800D02*
X11633000Y-13817800D01*
X11720063Y-13802863D02*
X11720063Y-13730737D01*
X11647937Y-13730737D01*
X11647937Y-13802863D01*
X11720063Y-13802863D01*
X11633000Y-13969800D02*
X11735000Y-14071800D01*
X11735000Y-13969800D02*
X11633000Y-14071800D01*
X11720063Y-14056863D02*
X11720063Y-13984737D01*
X11647937Y-13984737D01*
X11647937Y-14056863D01*
X11720063Y-14056863D01*
X11887000Y-13461800D02*
X11989000Y-13563800D01*
X11989000Y-13461800D02*
X11887000Y-13563800D01*
X11974063Y-13548863D02*
X11974063Y-13476737D01*
X11901937Y-13476737D01*
X11901937Y-13548863D01*
X11974063Y-13548863D01*
X11887000Y-13715800D02*
X11989000Y-13817800D01*
X11989000Y-13715800D02*
X11887000Y-13817800D01*
X11974063Y-13802863D02*
X11974063Y-13730737D01*
X11901937Y-13730737D01*
X11901937Y-13802863D01*
X11974063Y-13802863D01*
X11887000Y-13969800D02*
X11989000Y-14071800D01*
X11989000Y-13969800D02*
X11887000Y-14071800D01*
X11974063Y-14056863D02*
X11974063Y-13984737D01*
X11901937Y-13984737D01*
X11901937Y-14056863D01*
X11974063Y-14056863D01*
X12279000Y-13456850D02*
X12381000Y-13558850D01*
X12381000Y-13456850D02*
X12279000Y-13558850D01*
X12366063Y-13543913D02*
X12366063Y-13471787D01*
X12293937Y-13471787D01*
X12293937Y-13543913D01*
X12366063Y-13543913D01*
X12279000Y-13710850D02*
X12381000Y-13812850D01*
X12381000Y-13710850D02*
X12279000Y-13812850D01*
X12366063Y-13797913D02*
X12366063Y-13725787D01*
X12293937Y-13725787D01*
X12293937Y-13797913D01*
X12366063Y-13797913D01*
X12279000Y-13964850D02*
X12381000Y-14066850D01*
X12381000Y-13964850D02*
X12279000Y-14066850D01*
X12366063Y-14051913D02*
X12366063Y-13979787D01*
X12293937Y-13979787D01*
X12293937Y-14051913D01*
X12366063Y-14051913D01*
X12533000Y-13456850D02*
X12635000Y-13558850D01*
X12635000Y-13456850D02*
X12533000Y-13558850D01*
X12620063Y-13543913D02*
X12620063Y-13471787D01*
X12547937Y-13471787D01*
X12547937Y-13543913D01*
X12620063Y-13543913D01*
X12533000Y-13710850D02*
X12635000Y-13812850D01*
X12635000Y-13710850D02*
X12533000Y-13812850D01*
X12620063Y-13797913D02*
X12620063Y-13725787D01*
X12547937Y-13725787D01*
X12547937Y-13797913D01*
X12620063Y-13797913D01*
X12533000Y-13964850D02*
X12635000Y-14066850D01*
X12635000Y-13964850D02*
X12533000Y-14066850D01*
X12620063Y-14051913D02*
X12620063Y-13979787D01*
X12547937Y-13979787D01*
X12547937Y-14051913D01*
X12620063Y-14051913D01*
X12787000Y-13456850D02*
X12889000Y-13558850D01*
X12889000Y-13456850D02*
X12787000Y-13558850D01*
X12874063Y-13543913D02*
X12874063Y-13471787D01*
X12801937Y-13471787D01*
X12801937Y-13543913D01*
X12874063Y-13543913D01*
X12787000Y-13710850D02*
X12889000Y-13812850D01*
X12889000Y-13710850D02*
X12787000Y-13812850D01*
X12874063Y-13797913D02*
X12874063Y-13725787D01*
X12801937Y-13725787D01*
X12801937Y-13797913D01*
X12874063Y-13797913D01*
X12787000Y-13964850D02*
X12889000Y-14066850D01*
X12889000Y-13964850D02*
X12787000Y-14066850D01*
X12874063Y-14051913D02*
X12874063Y-13979787D01*
X12801937Y-13979787D01*
X12801937Y-14051913D01*
X12874063Y-14051913D01*
X13041000Y-13456850D02*
X13143000Y-13558850D01*
X13143000Y-13456850D02*
X13041000Y-13558850D01*
X13128063Y-13543913D02*
X13128063Y-13471787D01*
X13055937Y-13471787D01*
X13055937Y-13543913D01*
X13128063Y-13543913D01*
X13041000Y-13710850D02*
X13143000Y-13812850D01*
X13143000Y-13710850D02*
X13041000Y-13812850D01*
X13128063Y-13797913D02*
X13128063Y-13725787D01*
X13055937Y-13725787D01*
X13055937Y-13797913D01*
X13128063Y-13797913D01*
X13041000Y-13964850D02*
X13143000Y-14066850D01*
X13143000Y-13964850D02*
X13041000Y-14066850D01*
X13128063Y-14051913D02*
X13128063Y-13979787D01*
X13055937Y-13979787D01*
X13055937Y-14051913D01*
X13128063Y-14051913D01*
D11*
X9016477Y-14696384D02*
X9016477Y-14496384D01*
X9016477Y-14496384D02*
X9064096Y-14496384D01*
X9064096Y-14496384D02*
X9092667Y-14505908D01*
X9092667Y-14505908D02*
X9111715Y-14524955D01*
X9111715Y-14524955D02*
X9121239Y-14544003D01*
X9121239Y-14544003D02*
X9130763Y-14582098D01*
X9130763Y-14582098D02*
X9130763Y-14610669D01*
X9130763Y-14610669D02*
X9121239Y-14648765D01*
X9121239Y-14648765D02*
X9111715Y-14667812D01*
X9111715Y-14667812D02*
X9092667Y-14686860D01*
X9092667Y-14686860D02*
X9064096Y-14696384D01*
X9064096Y-14696384D02*
X9016477Y-14696384D01*
X9216477Y-14696384D02*
X9216477Y-14563050D01*
X9216477Y-14601146D02*
X9226001Y-14582098D01*
X9226001Y-14582098D02*
X9235524Y-14572574D01*
X9235524Y-14572574D02*
X9254572Y-14563050D01*
X9254572Y-14563050D02*
X9273620Y-14563050D01*
X9340286Y-14696384D02*
X9340286Y-14563050D01*
X9340286Y-14496384D02*
X9330763Y-14505908D01*
X9330763Y-14505908D02*
X9340286Y-14515431D01*
X9340286Y-14515431D02*
X9349810Y-14505908D01*
X9349810Y-14505908D02*
X9340286Y-14496384D01*
X9340286Y-14496384D02*
X9340286Y-14515431D01*
X9464096Y-14696384D02*
X9445048Y-14686860D01*
X9445048Y-14686860D02*
X9435524Y-14667812D01*
X9435524Y-14667812D02*
X9435524Y-14496384D01*
X9568858Y-14696384D02*
X9549810Y-14686860D01*
X9549810Y-14686860D02*
X9540286Y-14667812D01*
X9540286Y-14667812D02*
X9540286Y-14496384D01*
X9797429Y-14696384D02*
X9797429Y-14496384D01*
X9797429Y-14496384D02*
X9864096Y-14639241D01*
X9864096Y-14639241D02*
X9930763Y-14496384D01*
X9930763Y-14496384D02*
X9930763Y-14696384D01*
X10111715Y-14696384D02*
X10111715Y-14591622D01*
X10111715Y-14591622D02*
X10102191Y-14572574D01*
X10102191Y-14572574D02*
X10083144Y-14563050D01*
X10083144Y-14563050D02*
X10045048Y-14563050D01*
X10045048Y-14563050D02*
X10026001Y-14572574D01*
X10111715Y-14686860D02*
X10092667Y-14696384D01*
X10092667Y-14696384D02*
X10045048Y-14696384D01*
X10045048Y-14696384D02*
X10026001Y-14686860D01*
X10026001Y-14686860D02*
X10016477Y-14667812D01*
X10016477Y-14667812D02*
X10016477Y-14648765D01*
X10016477Y-14648765D02*
X10026001Y-14629717D01*
X10026001Y-14629717D02*
X10045048Y-14620193D01*
X10045048Y-14620193D02*
X10092667Y-14620193D01*
X10092667Y-14620193D02*
X10111715Y-14610669D01*
X10206953Y-14563050D02*
X10206953Y-14763050D01*
X10206953Y-14572574D02*
X10226001Y-14563050D01*
X10226001Y-14563050D02*
X10264096Y-14563050D01*
X10264096Y-14563050D02*
X10283144Y-14572574D01*
X10283144Y-14572574D02*
X10292667Y-14582098D01*
X10292667Y-14582098D02*
X10302191Y-14601146D01*
X10302191Y-14601146D02*
X10302191Y-14658288D01*
X10302191Y-14658288D02*
X10292667Y-14677336D01*
X10292667Y-14677336D02*
X10283144Y-14686860D01*
X10283144Y-14686860D02*
X10264096Y-14696384D01*
X10264096Y-14696384D02*
X10226001Y-14696384D01*
X10226001Y-14696384D02*
X10206953Y-14686860D01*
X10387905Y-14677336D02*
X10397429Y-14686860D01*
X10397429Y-14686860D02*
X10387905Y-14696384D01*
X10387905Y-14696384D02*
X10378382Y-14686860D01*
X10378382Y-14686860D02*
X10387905Y-14677336D01*
X10387905Y-14677336D02*
X10387905Y-14696384D01*
X10387905Y-14572574D02*
X10397429Y-14582098D01*
X10397429Y-14582098D02*
X10387905Y-14591622D01*
X10387905Y-14591622D02*
X10378382Y-14582098D01*
X10378382Y-14582098D02*
X10387905Y-14572574D01*
X10387905Y-14572574D02*
X10387905Y-14591622D01*
D12*
X8725700Y-15009900D02*
X8755700Y-15039900D01*
X8755700Y-15009900D02*
X8725700Y-15039900D01*
D11*
X9054572Y-14916384D02*
X9073620Y-14916384D01*
X9073620Y-14916384D02*
X9092667Y-14925908D01*
X9092667Y-14925908D02*
X9102191Y-14935431D01*
X9102191Y-14935431D02*
X9111715Y-14954479D01*
X9111715Y-14954479D02*
X9121239Y-14992574D01*
X9121239Y-14992574D02*
X9121239Y-15040193D01*
X9121239Y-15040193D02*
X9111715Y-15078288D01*
X9111715Y-15078288D02*
X9102191Y-15097336D01*
X9102191Y-15097336D02*
X9092667Y-15106860D01*
X9092667Y-15106860D02*
X9073620Y-15116384D01*
X9073620Y-15116384D02*
X9054572Y-15116384D01*
X9054572Y-15116384D02*
X9035524Y-15106860D01*
X9035524Y-15106860D02*
X9026001Y-15097336D01*
X9026001Y-15097336D02*
X9016477Y-15078288D01*
X9016477Y-15078288D02*
X9006953Y-15040193D01*
X9006953Y-15040193D02*
X9006953Y-14992574D01*
X9006953Y-14992574D02*
X9016477Y-14954479D01*
X9016477Y-14954479D02*
X9026001Y-14935431D01*
X9026001Y-14935431D02*
X9035524Y-14925908D01*
X9035524Y-14925908D02*
X9054572Y-14916384D01*
X9206953Y-15097336D02*
X9216477Y-15106860D01*
X9216477Y-15106860D02*
X9206953Y-15116384D01*
X9206953Y-15116384D02*
X9197429Y-15106860D01*
X9197429Y-15106860D02*
X9206953Y-15097336D01*
X9206953Y-15097336D02*
X9206953Y-15116384D01*
X9283144Y-14916384D02*
X9406953Y-14916384D01*
X9406953Y-14916384D02*
X9340286Y-14992574D01*
X9340286Y-14992574D02*
X9368858Y-14992574D01*
X9368858Y-14992574D02*
X9387905Y-15002098D01*
X9387905Y-15002098D02*
X9397429Y-15011622D01*
X9397429Y-15011622D02*
X9406953Y-15030669D01*
X9406953Y-15030669D02*
X9406953Y-15078288D01*
X9406953Y-15078288D02*
X9397429Y-15097336D01*
X9397429Y-15097336D02*
X9387905Y-15106860D01*
X9387905Y-15106860D02*
X9368858Y-15116384D01*
X9368858Y-15116384D02*
X9311715Y-15116384D01*
X9311715Y-15116384D02*
X9292667Y-15106860D01*
X9292667Y-15106860D02*
X9283144Y-15097336D01*
X9530763Y-14916384D02*
X9549810Y-14916384D01*
X9549810Y-14916384D02*
X9568858Y-14925908D01*
X9568858Y-14925908D02*
X9578382Y-14935431D01*
X9578382Y-14935431D02*
X9587905Y-14954479D01*
X9587905Y-14954479D02*
X9597429Y-14992574D01*
X9597429Y-14992574D02*
X9597429Y-15040193D01*
X9597429Y-15040193D02*
X9587905Y-15078288D01*
X9587905Y-15078288D02*
X9578382Y-15097336D01*
X9578382Y-15097336D02*
X9568858Y-15106860D01*
X9568858Y-15106860D02*
X9549810Y-15116384D01*
X9549810Y-15116384D02*
X9530763Y-15116384D01*
X9530763Y-15116384D02*
X9511715Y-15106860D01*
X9511715Y-15106860D02*
X9502191Y-15097336D01*
X9502191Y-15097336D02*
X9492667Y-15078288D01*
X9492667Y-15078288D02*
X9483144Y-15040193D01*
X9483144Y-15040193D02*
X9483144Y-14992574D01*
X9483144Y-14992574D02*
X9492667Y-14954479D01*
X9492667Y-14954479D02*
X9502191Y-14935431D01*
X9502191Y-14935431D02*
X9511715Y-14925908D01*
X9511715Y-14925908D02*
X9530763Y-14916384D01*
X9721239Y-14916384D02*
X9740286Y-14916384D01*
X9740286Y-14916384D02*
X9759334Y-14925908D01*
X9759334Y-14925908D02*
X9768858Y-14935431D01*
X9768858Y-14935431D02*
X9778382Y-14954479D01*
X9778382Y-14954479D02*
X9787905Y-14992574D01*
X9787905Y-14992574D02*
X9787905Y-15040193D01*
X9787905Y-15040193D02*
X9778382Y-15078288D01*
X9778382Y-15078288D02*
X9768858Y-15097336D01*
X9768858Y-15097336D02*
X9759334Y-15106860D01*
X9759334Y-15106860D02*
X9740286Y-15116384D01*
X9740286Y-15116384D02*
X9721239Y-15116384D01*
X9721239Y-15116384D02*
X9702191Y-15106860D01*
X9702191Y-15106860D02*
X9692667Y-15097336D01*
X9692667Y-15097336D02*
X9683144Y-15078288D01*
X9683144Y-15078288D02*
X9673620Y-15040193D01*
X9673620Y-15040193D02*
X9673620Y-14992574D01*
X9673620Y-14992574D02*
X9683144Y-14954479D01*
X9683144Y-14954479D02*
X9692667Y-14935431D01*
X9692667Y-14935431D02*
X9702191Y-14925908D01*
X9702191Y-14925908D02*
X9721239Y-14916384D01*
X9873620Y-15116384D02*
X9873620Y-14983050D01*
X9873620Y-15002098D02*
X9883144Y-14992574D01*
X9883144Y-14992574D02*
X9902191Y-14983050D01*
X9902191Y-14983050D02*
X9930763Y-14983050D01*
X9930763Y-14983050D02*
X9949810Y-14992574D01*
X9949810Y-14992574D02*
X9959334Y-15011622D01*
X9959334Y-15011622D02*
X9959334Y-15116384D01*
X9959334Y-15011622D02*
X9968858Y-14992574D01*
X9968858Y-14992574D02*
X9987905Y-14983050D01*
X9987905Y-14983050D02*
X10016477Y-14983050D01*
X10016477Y-14983050D02*
X10035525Y-14992574D01*
X10035525Y-14992574D02*
X10045048Y-15011622D01*
X10045048Y-15011622D02*
X10045048Y-15116384D01*
X10140286Y-15116384D02*
X10140286Y-14983050D01*
X10140286Y-15002098D02*
X10149810Y-14992574D01*
X10149810Y-14992574D02*
X10168858Y-14983050D01*
X10168858Y-14983050D02*
X10197429Y-14983050D01*
X10197429Y-14983050D02*
X10216477Y-14992574D01*
X10216477Y-14992574D02*
X10226001Y-15011622D01*
X10226001Y-15011622D02*
X10226001Y-15116384D01*
X10226001Y-15011622D02*
X10235525Y-14992574D01*
X10235525Y-14992574D02*
X10254572Y-14983050D01*
X10254572Y-14983050D02*
X10283144Y-14983050D01*
X10283144Y-14983050D02*
X10302191Y-14992574D01*
X10302191Y-14992574D02*
X10311715Y-15011622D01*
X10311715Y-15011622D02*
X10311715Y-15116384D01*
X10702191Y-14906860D02*
X10530763Y-15164003D01*
X10959334Y-14916384D02*
X10978382Y-14916384D01*
X10978382Y-14916384D02*
X10997429Y-14925908D01*
X10997429Y-14925908D02*
X11006953Y-14935431D01*
X11006953Y-14935431D02*
X11016477Y-14954479D01*
X11016477Y-14954479D02*
X11026001Y-14992574D01*
X11026001Y-14992574D02*
X11026001Y-15040193D01*
X11026001Y-15040193D02*
X11016477Y-15078288D01*
X11016477Y-15078288D02*
X11006953Y-15097336D01*
X11006953Y-15097336D02*
X10997429Y-15106860D01*
X10997429Y-15106860D02*
X10978382Y-15116384D01*
X10978382Y-15116384D02*
X10959334Y-15116384D01*
X10959334Y-15116384D02*
X10940287Y-15106860D01*
X10940287Y-15106860D02*
X10930763Y-15097336D01*
X10930763Y-15097336D02*
X10921239Y-15078288D01*
X10921239Y-15078288D02*
X10911715Y-15040193D01*
X10911715Y-15040193D02*
X10911715Y-14992574D01*
X10911715Y-14992574D02*
X10921239Y-14954479D01*
X10921239Y-14954479D02*
X10930763Y-14935431D01*
X10930763Y-14935431D02*
X10940287Y-14925908D01*
X10940287Y-14925908D02*
X10959334Y-14916384D01*
X11111715Y-15097336D02*
X11121239Y-15106860D01*
X11121239Y-15106860D02*
X11111715Y-15116384D01*
X11111715Y-15116384D02*
X11102191Y-15106860D01*
X11102191Y-15106860D02*
X11111715Y-15097336D01*
X11111715Y-15097336D02*
X11111715Y-15116384D01*
X11245048Y-14916384D02*
X11264096Y-14916384D01*
X11264096Y-14916384D02*
X11283144Y-14925908D01*
X11283144Y-14925908D02*
X11292667Y-14935431D01*
X11292667Y-14935431D02*
X11302191Y-14954479D01*
X11302191Y-14954479D02*
X11311715Y-14992574D01*
X11311715Y-14992574D02*
X11311715Y-15040193D01*
X11311715Y-15040193D02*
X11302191Y-15078288D01*
X11302191Y-15078288D02*
X11292667Y-15097336D01*
X11292667Y-15097336D02*
X11283144Y-15106860D01*
X11283144Y-15106860D02*
X11264096Y-15116384D01*
X11264096Y-15116384D02*
X11245048Y-15116384D01*
X11245048Y-15116384D02*
X11226001Y-15106860D01*
X11226001Y-15106860D02*
X11216477Y-15097336D01*
X11216477Y-15097336D02*
X11206953Y-15078288D01*
X11206953Y-15078288D02*
X11197429Y-15040193D01*
X11197429Y-15040193D02*
X11197429Y-14992574D01*
X11197429Y-14992574D02*
X11206953Y-14954479D01*
X11206953Y-14954479D02*
X11216477Y-14935431D01*
X11216477Y-14935431D02*
X11226001Y-14925908D01*
X11226001Y-14925908D02*
X11245048Y-14916384D01*
X11502191Y-15116384D02*
X11387906Y-15116384D01*
X11445048Y-15116384D02*
X11445048Y-14916384D01*
X11445048Y-14916384D02*
X11426001Y-14944955D01*
X11426001Y-14944955D02*
X11406953Y-14964003D01*
X11406953Y-14964003D02*
X11387906Y-14973527D01*
X11692667Y-15116384D02*
X11578382Y-15116384D01*
X11635525Y-15116384D02*
X11635525Y-14916384D01*
X11635525Y-14916384D02*
X11616477Y-14944955D01*
X11616477Y-14944955D02*
X11597429Y-14964003D01*
X11597429Y-14964003D02*
X11578382Y-14973527D01*
X11806953Y-15002098D02*
X11787906Y-14992574D01*
X11787906Y-14992574D02*
X11778382Y-14983050D01*
X11778382Y-14983050D02*
X11768858Y-14964003D01*
X11768858Y-14964003D02*
X11768858Y-14954479D01*
X11768858Y-14954479D02*
X11778382Y-14935431D01*
X11778382Y-14935431D02*
X11787906Y-14925908D01*
X11787906Y-14925908D02*
X11806953Y-14916384D01*
X11806953Y-14916384D02*
X11845048Y-14916384D01*
X11845048Y-14916384D02*
X11864096Y-14925908D01*
X11864096Y-14925908D02*
X11873620Y-14935431D01*
X11873620Y-14935431D02*
X11883144Y-14954479D01*
X11883144Y-14954479D02*
X11883144Y-14964003D01*
X11883144Y-14964003D02*
X11873620Y-14983050D01*
X11873620Y-14983050D02*
X11864096Y-14992574D01*
X11864096Y-14992574D02*
X11845048Y-15002098D01*
X11845048Y-15002098D02*
X11806953Y-15002098D01*
X11806953Y-15002098D02*
X11787906Y-15011622D01*
X11787906Y-15011622D02*
X11778382Y-15021146D01*
X11778382Y-15021146D02*
X11768858Y-15040193D01*
X11768858Y-15040193D02*
X11768858Y-15078288D01*
X11768858Y-15078288D02*
X11778382Y-15097336D01*
X11778382Y-15097336D02*
X11787906Y-15106860D01*
X11787906Y-15106860D02*
X11806953Y-15116384D01*
X11806953Y-15116384D02*
X11845048Y-15116384D01*
X11845048Y-15116384D02*
X11864096Y-15106860D01*
X11864096Y-15106860D02*
X11873620Y-15097336D01*
X11873620Y-15097336D02*
X11883144Y-15078288D01*
X11883144Y-15078288D02*
X11883144Y-15040193D01*
X11883144Y-15040193D02*
X11873620Y-15021146D01*
X11873620Y-15021146D02*
X11864096Y-15011622D01*
X11864096Y-15011622D02*
X11845048Y-15002098D01*
X11959334Y-14916384D02*
X11959334Y-14954479D01*
X12035525Y-14916384D02*
X12035525Y-14954479D01*
X12330763Y-15192574D02*
X12321239Y-15183050D01*
X12321239Y-15183050D02*
X12302191Y-15154479D01*
X12302191Y-15154479D02*
X12292668Y-15135431D01*
X12292668Y-15135431D02*
X12283144Y-15106860D01*
X12283144Y-15106860D02*
X12273620Y-15059241D01*
X12273620Y-15059241D02*
X12273620Y-15021146D01*
X12273620Y-15021146D02*
X12283144Y-14973527D01*
X12283144Y-14973527D02*
X12292668Y-14944955D01*
X12292668Y-14944955D02*
X12302191Y-14925908D01*
X12302191Y-14925908D02*
X12321239Y-14897336D01*
X12321239Y-14897336D02*
X12330763Y-14887812D01*
X12397429Y-14935431D02*
X12406953Y-14925908D01*
X12406953Y-14925908D02*
X12426001Y-14916384D01*
X12426001Y-14916384D02*
X12473620Y-14916384D01*
X12473620Y-14916384D02*
X12492668Y-14925908D01*
X12492668Y-14925908D02*
X12502191Y-14935431D01*
X12502191Y-14935431D02*
X12511715Y-14954479D01*
X12511715Y-14954479D02*
X12511715Y-14973527D01*
X12511715Y-14973527D02*
X12502191Y-15002098D01*
X12502191Y-15002098D02*
X12387906Y-15116384D01*
X12387906Y-15116384D02*
X12511715Y-15116384D01*
X12635525Y-14916384D02*
X12654572Y-14916384D01*
X12654572Y-14916384D02*
X12673620Y-14925908D01*
X12673620Y-14925908D02*
X12683144Y-14935431D01*
X12683144Y-14935431D02*
X12692668Y-14954479D01*
X12692668Y-14954479D02*
X12702191Y-14992574D01*
X12702191Y-14992574D02*
X12702191Y-15040193D01*
X12702191Y-15040193D02*
X12692668Y-15078288D01*
X12692668Y-15078288D02*
X12683144Y-15097336D01*
X12683144Y-15097336D02*
X12673620Y-15106860D01*
X12673620Y-15106860D02*
X12654572Y-15116384D01*
X12654572Y-15116384D02*
X12635525Y-15116384D01*
X12635525Y-15116384D02*
X12616477Y-15106860D01*
X12616477Y-15106860D02*
X12606953Y-15097336D01*
X12606953Y-15097336D02*
X12597429Y-15078288D01*
X12597429Y-15078288D02*
X12587906Y-15040193D01*
X12587906Y-15040193D02*
X12587906Y-14992574D01*
X12587906Y-14992574D02*
X12597429Y-14954479D01*
X12597429Y-14954479D02*
X12606953Y-14935431D01*
X12606953Y-14935431D02*
X12616477Y-14925908D01*
X12616477Y-14925908D02*
X12635525Y-14916384D01*
X12892668Y-15116384D02*
X12778382Y-15116384D01*
X12835525Y-15116384D02*
X12835525Y-14916384D01*
X12835525Y-14916384D02*
X12816477Y-14944955D01*
X12816477Y-14944955D02*
X12797429Y-14964003D01*
X12797429Y-14964003D02*
X12778382Y-14973527D01*
X13130763Y-15116384D02*
X13130763Y-14916384D01*
X13216477Y-15116384D02*
X13216477Y-15011622D01*
X13216477Y-15011622D02*
X13206953Y-14992574D01*
X13206953Y-14992574D02*
X13187906Y-14983050D01*
X13187906Y-14983050D02*
X13159334Y-14983050D01*
X13159334Y-14983050D02*
X13140287Y-14992574D01*
X13140287Y-14992574D02*
X13130763Y-15002098D01*
X13340287Y-15116384D02*
X13321239Y-15106860D01*
X13321239Y-15106860D02*
X13311715Y-15097336D01*
X13311715Y-15097336D02*
X13302191Y-15078288D01*
X13302191Y-15078288D02*
X13302191Y-15021146D01*
X13302191Y-15021146D02*
X13311715Y-15002098D01*
X13311715Y-15002098D02*
X13321239Y-14992574D01*
X13321239Y-14992574D02*
X13340287Y-14983050D01*
X13340287Y-14983050D02*
X13368858Y-14983050D01*
X13368858Y-14983050D02*
X13387906Y-14992574D01*
X13387906Y-14992574D02*
X13397430Y-15002098D01*
X13397430Y-15002098D02*
X13406953Y-15021146D01*
X13406953Y-15021146D02*
X13406953Y-15078288D01*
X13406953Y-15078288D02*
X13397430Y-15097336D01*
X13397430Y-15097336D02*
X13387906Y-15106860D01*
X13387906Y-15106860D02*
X13368858Y-15116384D01*
X13368858Y-15116384D02*
X13340287Y-15116384D01*
X13521239Y-15116384D02*
X13502191Y-15106860D01*
X13502191Y-15106860D02*
X13492668Y-15087812D01*
X13492668Y-15087812D02*
X13492668Y-14916384D01*
X13673620Y-15106860D02*
X13654572Y-15116384D01*
X13654572Y-15116384D02*
X13616477Y-15116384D01*
X13616477Y-15116384D02*
X13597430Y-15106860D01*
X13597430Y-15106860D02*
X13587906Y-15087812D01*
X13587906Y-15087812D02*
X13587906Y-15011622D01*
X13587906Y-15011622D02*
X13597430Y-14992574D01*
X13597430Y-14992574D02*
X13616477Y-14983050D01*
X13616477Y-14983050D02*
X13654572Y-14983050D01*
X13654572Y-14983050D02*
X13673620Y-14992574D01*
X13673620Y-14992574D02*
X13683144Y-15011622D01*
X13683144Y-15011622D02*
X13683144Y-15030669D01*
X13683144Y-15030669D02*
X13587906Y-15049717D01*
X13759334Y-15106860D02*
X13778382Y-15116384D01*
X13778382Y-15116384D02*
X13816477Y-15116384D01*
X13816477Y-15116384D02*
X13835525Y-15106860D01*
X13835525Y-15106860D02*
X13845049Y-15087812D01*
X13845049Y-15087812D02*
X13845049Y-15078288D01*
X13845049Y-15078288D02*
X13835525Y-15059241D01*
X13835525Y-15059241D02*
X13816477Y-15049717D01*
X13816477Y-15049717D02*
X13787906Y-15049717D01*
X13787906Y-15049717D02*
X13768858Y-15040193D01*
X13768858Y-15040193D02*
X13759334Y-15021146D01*
X13759334Y-15021146D02*
X13759334Y-15011622D01*
X13759334Y-15011622D02*
X13768858Y-14992574D01*
X13768858Y-14992574D02*
X13787906Y-14983050D01*
X13787906Y-14983050D02*
X13816477Y-14983050D01*
X13816477Y-14983050D02*
X13835525Y-14992574D01*
X13911715Y-15192574D02*
X13921239Y-15183050D01*
X13921239Y-15183050D02*
X13940287Y-15154479D01*
X13940287Y-15154479D02*
X13949811Y-15135431D01*
X13949811Y-15135431D02*
X13959334Y-15106860D01*
X13959334Y-15106860D02*
X13968858Y-15059241D01*
X13968858Y-15059241D02*
X13968858Y-15021146D01*
X13968858Y-15021146D02*
X13959334Y-14973527D01*
X13959334Y-14973527D02*
X13949811Y-14944955D01*
X13949811Y-14944955D02*
X13940287Y-14925908D01*
X13940287Y-14925908D02*
X13921239Y-14897336D01*
X13921239Y-14897336D02*
X13911715Y-14887812D01*
D12*
X8755700Y-15288900D02*
G75*
G02*
X8715700Y-15288900I-20000J0D01*
G01*
X8715700Y-15288900D02*
G75*
G02*
X8755700Y-15288900I20000J0D01*
G01*
D11*
X9054572Y-15180384D02*
X9073620Y-15180384D01*
X9073620Y-15180384D02*
X9092667Y-15189908D01*
X9092667Y-15189908D02*
X9102191Y-15199431D01*
X9102191Y-15199431D02*
X9111715Y-15218479D01*
X9111715Y-15218479D02*
X9121239Y-15256574D01*
X9121239Y-15256574D02*
X9121239Y-15304193D01*
X9121239Y-15304193D02*
X9111715Y-15342288D01*
X9111715Y-15342288D02*
X9102191Y-15361336D01*
X9102191Y-15361336D02*
X9092667Y-15370860D01*
X9092667Y-15370860D02*
X9073620Y-15380384D01*
X9073620Y-15380384D02*
X9054572Y-15380384D01*
X9054572Y-15380384D02*
X9035524Y-15370860D01*
X9035524Y-15370860D02*
X9026001Y-15361336D01*
X9026001Y-15361336D02*
X9016477Y-15342288D01*
X9016477Y-15342288D02*
X9006953Y-15304193D01*
X9006953Y-15304193D02*
X9006953Y-15256574D01*
X9006953Y-15256574D02*
X9016477Y-15218479D01*
X9016477Y-15218479D02*
X9026001Y-15199431D01*
X9026001Y-15199431D02*
X9035524Y-15189908D01*
X9035524Y-15189908D02*
X9054572Y-15180384D01*
X9206953Y-15361336D02*
X9216477Y-15370860D01*
X9216477Y-15370860D02*
X9206953Y-15380384D01*
X9206953Y-15380384D02*
X9197429Y-15370860D01*
X9197429Y-15370860D02*
X9206953Y-15361336D01*
X9206953Y-15361336D02*
X9206953Y-15380384D01*
X9387905Y-15247050D02*
X9387905Y-15380384D01*
X9340286Y-15170860D02*
X9292667Y-15313717D01*
X9292667Y-15313717D02*
X9416477Y-15313717D01*
X9530763Y-15180384D02*
X9549810Y-15180384D01*
X9549810Y-15180384D02*
X9568858Y-15189908D01*
X9568858Y-15189908D02*
X9578382Y-15199431D01*
X9578382Y-15199431D02*
X9587905Y-15218479D01*
X9587905Y-15218479D02*
X9597429Y-15256574D01*
X9597429Y-15256574D02*
X9597429Y-15304193D01*
X9597429Y-15304193D02*
X9587905Y-15342288D01*
X9587905Y-15342288D02*
X9578382Y-15361336D01*
X9578382Y-15361336D02*
X9568858Y-15370860D01*
X9568858Y-15370860D02*
X9549810Y-15380384D01*
X9549810Y-15380384D02*
X9530763Y-15380384D01*
X9530763Y-15380384D02*
X9511715Y-15370860D01*
X9511715Y-15370860D02*
X9502191Y-15361336D01*
X9502191Y-15361336D02*
X9492667Y-15342288D01*
X9492667Y-15342288D02*
X9483144Y-15304193D01*
X9483144Y-15304193D02*
X9483144Y-15256574D01*
X9483144Y-15256574D02*
X9492667Y-15218479D01*
X9492667Y-15218479D02*
X9502191Y-15199431D01*
X9502191Y-15199431D02*
X9511715Y-15189908D01*
X9511715Y-15189908D02*
X9530763Y-15180384D01*
X9721239Y-15180384D02*
X9740286Y-15180384D01*
X9740286Y-15180384D02*
X9759334Y-15189908D01*
X9759334Y-15189908D02*
X9768858Y-15199431D01*
X9768858Y-15199431D02*
X9778382Y-15218479D01*
X9778382Y-15218479D02*
X9787905Y-15256574D01*
X9787905Y-15256574D02*
X9787905Y-15304193D01*
X9787905Y-15304193D02*
X9778382Y-15342288D01*
X9778382Y-15342288D02*
X9768858Y-15361336D01*
X9768858Y-15361336D02*
X9759334Y-15370860D01*
X9759334Y-15370860D02*
X9740286Y-15380384D01*
X9740286Y-15380384D02*
X9721239Y-15380384D01*
X9721239Y-15380384D02*
X9702191Y-15370860D01*
X9702191Y-15370860D02*
X9692667Y-15361336D01*
X9692667Y-15361336D02*
X9683144Y-15342288D01*
X9683144Y-15342288D02*
X9673620Y-15304193D01*
X9673620Y-15304193D02*
X9673620Y-15256574D01*
X9673620Y-15256574D02*
X9683144Y-15218479D01*
X9683144Y-15218479D02*
X9692667Y-15199431D01*
X9692667Y-15199431D02*
X9702191Y-15189908D01*
X9702191Y-15189908D02*
X9721239Y-15180384D01*
X9873620Y-15380384D02*
X9873620Y-15247050D01*
X9873620Y-15266098D02*
X9883144Y-15256574D01*
X9883144Y-15256574D02*
X9902191Y-15247050D01*
X9902191Y-15247050D02*
X9930763Y-15247050D01*
X9930763Y-15247050D02*
X9949810Y-15256574D01*
X9949810Y-15256574D02*
X9959334Y-15275622D01*
X9959334Y-15275622D02*
X9959334Y-15380384D01*
X9959334Y-15275622D02*
X9968858Y-15256574D01*
X9968858Y-15256574D02*
X9987905Y-15247050D01*
X9987905Y-15247050D02*
X10016477Y-15247050D01*
X10016477Y-15247050D02*
X10035525Y-15256574D01*
X10035525Y-15256574D02*
X10045048Y-15275622D01*
X10045048Y-15275622D02*
X10045048Y-15380384D01*
X10140286Y-15380384D02*
X10140286Y-15247050D01*
X10140286Y-15266098D02*
X10149810Y-15256574D01*
X10149810Y-15256574D02*
X10168858Y-15247050D01*
X10168858Y-15247050D02*
X10197429Y-15247050D01*
X10197429Y-15247050D02*
X10216477Y-15256574D01*
X10216477Y-15256574D02*
X10226001Y-15275622D01*
X10226001Y-15275622D02*
X10226001Y-15380384D01*
X10226001Y-15275622D02*
X10235525Y-15256574D01*
X10235525Y-15256574D02*
X10254572Y-15247050D01*
X10254572Y-15247050D02*
X10283144Y-15247050D01*
X10283144Y-15247050D02*
X10302191Y-15256574D01*
X10302191Y-15256574D02*
X10311715Y-15275622D01*
X10311715Y-15275622D02*
X10311715Y-15380384D01*
X10702191Y-15170860D02*
X10530763Y-15428003D01*
X10959334Y-15180384D02*
X10978382Y-15180384D01*
X10978382Y-15180384D02*
X10997429Y-15189908D01*
X10997429Y-15189908D02*
X11006953Y-15199431D01*
X11006953Y-15199431D02*
X11016477Y-15218479D01*
X11016477Y-15218479D02*
X11026001Y-15256574D01*
X11026001Y-15256574D02*
X11026001Y-15304193D01*
X11026001Y-15304193D02*
X11016477Y-15342288D01*
X11016477Y-15342288D02*
X11006953Y-15361336D01*
X11006953Y-15361336D02*
X10997429Y-15370860D01*
X10997429Y-15370860D02*
X10978382Y-15380384D01*
X10978382Y-15380384D02*
X10959334Y-15380384D01*
X10959334Y-15380384D02*
X10940287Y-15370860D01*
X10940287Y-15370860D02*
X10930763Y-15361336D01*
X10930763Y-15361336D02*
X10921239Y-15342288D01*
X10921239Y-15342288D02*
X10911715Y-15304193D01*
X10911715Y-15304193D02*
X10911715Y-15256574D01*
X10911715Y-15256574D02*
X10921239Y-15218479D01*
X10921239Y-15218479D02*
X10930763Y-15199431D01*
X10930763Y-15199431D02*
X10940287Y-15189908D01*
X10940287Y-15189908D02*
X10959334Y-15180384D01*
X11111715Y-15361336D02*
X11121239Y-15370860D01*
X11121239Y-15370860D02*
X11111715Y-15380384D01*
X11111715Y-15380384D02*
X11102191Y-15370860D01*
X11102191Y-15370860D02*
X11111715Y-15361336D01*
X11111715Y-15361336D02*
X11111715Y-15380384D01*
X11245048Y-15180384D02*
X11264096Y-15180384D01*
X11264096Y-15180384D02*
X11283144Y-15189908D01*
X11283144Y-15189908D02*
X11292667Y-15199431D01*
X11292667Y-15199431D02*
X11302191Y-15218479D01*
X11302191Y-15218479D02*
X11311715Y-15256574D01*
X11311715Y-15256574D02*
X11311715Y-15304193D01*
X11311715Y-15304193D02*
X11302191Y-15342288D01*
X11302191Y-15342288D02*
X11292667Y-15361336D01*
X11292667Y-15361336D02*
X11283144Y-15370860D01*
X11283144Y-15370860D02*
X11264096Y-15380384D01*
X11264096Y-15380384D02*
X11245048Y-15380384D01*
X11245048Y-15380384D02*
X11226001Y-15370860D01*
X11226001Y-15370860D02*
X11216477Y-15361336D01*
X11216477Y-15361336D02*
X11206953Y-15342288D01*
X11206953Y-15342288D02*
X11197429Y-15304193D01*
X11197429Y-15304193D02*
X11197429Y-15256574D01*
X11197429Y-15256574D02*
X11206953Y-15218479D01*
X11206953Y-15218479D02*
X11216477Y-15199431D01*
X11216477Y-15199431D02*
X11226001Y-15189908D01*
X11226001Y-15189908D02*
X11245048Y-15180384D01*
X11502191Y-15380384D02*
X11387906Y-15380384D01*
X11445048Y-15380384D02*
X11445048Y-15180384D01*
X11445048Y-15180384D02*
X11426001Y-15208955D01*
X11426001Y-15208955D02*
X11406953Y-15228003D01*
X11406953Y-15228003D02*
X11387906Y-15237527D01*
X11683144Y-15180384D02*
X11587906Y-15180384D01*
X11587906Y-15180384D02*
X11578382Y-15275622D01*
X11578382Y-15275622D02*
X11587906Y-15266098D01*
X11587906Y-15266098D02*
X11606953Y-15256574D01*
X11606953Y-15256574D02*
X11654572Y-15256574D01*
X11654572Y-15256574D02*
X11673620Y-15266098D01*
X11673620Y-15266098D02*
X11683144Y-15275622D01*
X11683144Y-15275622D02*
X11692667Y-15294669D01*
X11692667Y-15294669D02*
X11692667Y-15342288D01*
X11692667Y-15342288D02*
X11683144Y-15361336D01*
X11683144Y-15361336D02*
X11673620Y-15370860D01*
X11673620Y-15370860D02*
X11654572Y-15380384D01*
X11654572Y-15380384D02*
X11606953Y-15380384D01*
X11606953Y-15380384D02*
X11587906Y-15370860D01*
X11587906Y-15370860D02*
X11578382Y-15361336D01*
X11759334Y-15180384D02*
X11892667Y-15180384D01*
X11892667Y-15180384D02*
X11806953Y-15380384D01*
X11959334Y-15180384D02*
X11959334Y-15218479D01*
X12035525Y-15180384D02*
X12035525Y-15218479D01*
X12330763Y-15456574D02*
X12321239Y-15447050D01*
X12321239Y-15447050D02*
X12302191Y-15418479D01*
X12302191Y-15418479D02*
X12292668Y-15399431D01*
X12292668Y-15399431D02*
X12283144Y-15370860D01*
X12283144Y-15370860D02*
X12273620Y-15323241D01*
X12273620Y-15323241D02*
X12273620Y-15285146D01*
X12273620Y-15285146D02*
X12283144Y-15237527D01*
X12283144Y-15237527D02*
X12292668Y-15208955D01*
X12292668Y-15208955D02*
X12302191Y-15189908D01*
X12302191Y-15189908D02*
X12321239Y-15161336D01*
X12321239Y-15161336D02*
X12330763Y-15151812D01*
X12502191Y-15180384D02*
X12406953Y-15180384D01*
X12406953Y-15180384D02*
X12397429Y-15275622D01*
X12397429Y-15275622D02*
X12406953Y-15266098D01*
X12406953Y-15266098D02*
X12426001Y-15256574D01*
X12426001Y-15256574D02*
X12473620Y-15256574D01*
X12473620Y-15256574D02*
X12492668Y-15266098D01*
X12492668Y-15266098D02*
X12502191Y-15275622D01*
X12502191Y-15275622D02*
X12511715Y-15294669D01*
X12511715Y-15294669D02*
X12511715Y-15342288D01*
X12511715Y-15342288D02*
X12502191Y-15361336D01*
X12502191Y-15361336D02*
X12492668Y-15370860D01*
X12492668Y-15370860D02*
X12473620Y-15380384D01*
X12473620Y-15380384D02*
X12426001Y-15380384D01*
X12426001Y-15380384D02*
X12406953Y-15370860D01*
X12406953Y-15370860D02*
X12397429Y-15361336D01*
X12749810Y-15380384D02*
X12749810Y-15180384D01*
X12835525Y-15380384D02*
X12835525Y-15275622D01*
X12835525Y-15275622D02*
X12826001Y-15256574D01*
X12826001Y-15256574D02*
X12806953Y-15247050D01*
X12806953Y-15247050D02*
X12778382Y-15247050D01*
X12778382Y-15247050D02*
X12759334Y-15256574D01*
X12759334Y-15256574D02*
X12749810Y-15266098D01*
X12959334Y-15380384D02*
X12940287Y-15370860D01*
X12940287Y-15370860D02*
X12930763Y-15361336D01*
X12930763Y-15361336D02*
X12921239Y-15342288D01*
X12921239Y-15342288D02*
X12921239Y-15285146D01*
X12921239Y-15285146D02*
X12930763Y-15266098D01*
X12930763Y-15266098D02*
X12940287Y-15256574D01*
X12940287Y-15256574D02*
X12959334Y-15247050D01*
X12959334Y-15247050D02*
X12987906Y-15247050D01*
X12987906Y-15247050D02*
X13006953Y-15256574D01*
X13006953Y-15256574D02*
X13016477Y-15266098D01*
X13016477Y-15266098D02*
X13026001Y-15285146D01*
X13026001Y-15285146D02*
X13026001Y-15342288D01*
X13026001Y-15342288D02*
X13016477Y-15361336D01*
X13016477Y-15361336D02*
X13006953Y-15370860D01*
X13006953Y-15370860D02*
X12987906Y-15380384D01*
X12987906Y-15380384D02*
X12959334Y-15380384D01*
X13140287Y-15380384D02*
X13121239Y-15370860D01*
X13121239Y-15370860D02*
X13111715Y-15351812D01*
X13111715Y-15351812D02*
X13111715Y-15180384D01*
X13292668Y-15370860D02*
X13273620Y-15380384D01*
X13273620Y-15380384D02*
X13235525Y-15380384D01*
X13235525Y-15380384D02*
X13216477Y-15370860D01*
X13216477Y-15370860D02*
X13206953Y-15351812D01*
X13206953Y-15351812D02*
X13206953Y-15275622D01*
X13206953Y-15275622D02*
X13216477Y-15256574D01*
X13216477Y-15256574D02*
X13235525Y-15247050D01*
X13235525Y-15247050D02*
X13273620Y-15247050D01*
X13273620Y-15247050D02*
X13292668Y-15256574D01*
X13292668Y-15256574D02*
X13302191Y-15275622D01*
X13302191Y-15275622D02*
X13302191Y-15294669D01*
X13302191Y-15294669D02*
X13206953Y-15313717D01*
X13378382Y-15370860D02*
X13397430Y-15380384D01*
X13397430Y-15380384D02*
X13435525Y-15380384D01*
X13435525Y-15380384D02*
X13454572Y-15370860D01*
X13454572Y-15370860D02*
X13464096Y-15351812D01*
X13464096Y-15351812D02*
X13464096Y-15342288D01*
X13464096Y-15342288D02*
X13454572Y-15323241D01*
X13454572Y-15323241D02*
X13435525Y-15313717D01*
X13435525Y-15313717D02*
X13406953Y-15313717D01*
X13406953Y-15313717D02*
X13387906Y-15304193D01*
X13387906Y-15304193D02*
X13378382Y-15285146D01*
X13378382Y-15285146D02*
X13378382Y-15275622D01*
X13378382Y-15275622D02*
X13387906Y-15256574D01*
X13387906Y-15256574D02*
X13406953Y-15247050D01*
X13406953Y-15247050D02*
X13435525Y-15247050D01*
X13435525Y-15247050D02*
X13454572Y-15256574D01*
X13530763Y-15456574D02*
X13540287Y-15447050D01*
X13540287Y-15447050D02*
X13559334Y-15418479D01*
X13559334Y-15418479D02*
X13568858Y-15399431D01*
X13568858Y-15399431D02*
X13578382Y-15370860D01*
X13578382Y-15370860D02*
X13587906Y-15323241D01*
X13587906Y-15323241D02*
X13587906Y-15285146D01*
X13587906Y-15285146D02*
X13578382Y-15237527D01*
X13578382Y-15237527D02*
X13568858Y-15208955D01*
X13568858Y-15208955D02*
X13559334Y-15189908D01*
X13559334Y-15189908D02*
X13540287Y-15161336D01*
X13540287Y-15161336D02*
X13530763Y-15151812D01*
D12*
X8730700Y-15527900D02*
X8730700Y-15577900D01*
X8705700Y-15552900D02*
X8755700Y-15552900D01*
D11*
X9054572Y-15444384D02*
X9073620Y-15444384D01*
X9073620Y-15444384D02*
X9092667Y-15453908D01*
X9092667Y-15453908D02*
X9102191Y-15463431D01*
X9102191Y-15463431D02*
X9111715Y-15482479D01*
X9111715Y-15482479D02*
X9121239Y-15520574D01*
X9121239Y-15520574D02*
X9121239Y-15568193D01*
X9121239Y-15568193D02*
X9111715Y-15606288D01*
X9111715Y-15606288D02*
X9102191Y-15625336D01*
X9102191Y-15625336D02*
X9092667Y-15634860D01*
X9092667Y-15634860D02*
X9073620Y-15644384D01*
X9073620Y-15644384D02*
X9054572Y-15644384D01*
X9054572Y-15644384D02*
X9035524Y-15634860D01*
X9035524Y-15634860D02*
X9026001Y-15625336D01*
X9026001Y-15625336D02*
X9016477Y-15606288D01*
X9016477Y-15606288D02*
X9006953Y-15568193D01*
X9006953Y-15568193D02*
X9006953Y-15520574D01*
X9006953Y-15520574D02*
X9016477Y-15482479D01*
X9016477Y-15482479D02*
X9026001Y-15463431D01*
X9026001Y-15463431D02*
X9035524Y-15453908D01*
X9035524Y-15453908D02*
X9054572Y-15444384D01*
X9206953Y-15625336D02*
X9216477Y-15634860D01*
X9216477Y-15634860D02*
X9206953Y-15644384D01*
X9206953Y-15644384D02*
X9197429Y-15634860D01*
X9197429Y-15634860D02*
X9206953Y-15625336D01*
X9206953Y-15625336D02*
X9206953Y-15644384D01*
X9397429Y-15444384D02*
X9302191Y-15444384D01*
X9302191Y-15444384D02*
X9292667Y-15539622D01*
X9292667Y-15539622D02*
X9302191Y-15530098D01*
X9302191Y-15530098D02*
X9321239Y-15520574D01*
X9321239Y-15520574D02*
X9368858Y-15520574D01*
X9368858Y-15520574D02*
X9387905Y-15530098D01*
X9387905Y-15530098D02*
X9397429Y-15539622D01*
X9397429Y-15539622D02*
X9406953Y-15558669D01*
X9406953Y-15558669D02*
X9406953Y-15606288D01*
X9406953Y-15606288D02*
X9397429Y-15625336D01*
X9397429Y-15625336D02*
X9387905Y-15634860D01*
X9387905Y-15634860D02*
X9368858Y-15644384D01*
X9368858Y-15644384D02*
X9321239Y-15644384D01*
X9321239Y-15644384D02*
X9302191Y-15634860D01*
X9302191Y-15634860D02*
X9292667Y-15625336D01*
X9530763Y-15444384D02*
X9549810Y-15444384D01*
X9549810Y-15444384D02*
X9568858Y-15453908D01*
X9568858Y-15453908D02*
X9578382Y-15463431D01*
X9578382Y-15463431D02*
X9587905Y-15482479D01*
X9587905Y-15482479D02*
X9597429Y-15520574D01*
X9597429Y-15520574D02*
X9597429Y-15568193D01*
X9597429Y-15568193D02*
X9587905Y-15606288D01*
X9587905Y-15606288D02*
X9578382Y-15625336D01*
X9578382Y-15625336D02*
X9568858Y-15634860D01*
X9568858Y-15634860D02*
X9549810Y-15644384D01*
X9549810Y-15644384D02*
X9530763Y-15644384D01*
X9530763Y-15644384D02*
X9511715Y-15634860D01*
X9511715Y-15634860D02*
X9502191Y-15625336D01*
X9502191Y-15625336D02*
X9492667Y-15606288D01*
X9492667Y-15606288D02*
X9483144Y-15568193D01*
X9483144Y-15568193D02*
X9483144Y-15520574D01*
X9483144Y-15520574D02*
X9492667Y-15482479D01*
X9492667Y-15482479D02*
X9502191Y-15463431D01*
X9502191Y-15463431D02*
X9511715Y-15453908D01*
X9511715Y-15453908D02*
X9530763Y-15444384D01*
X9721239Y-15444384D02*
X9740286Y-15444384D01*
X9740286Y-15444384D02*
X9759334Y-15453908D01*
X9759334Y-15453908D02*
X9768858Y-15463431D01*
X9768858Y-15463431D02*
X9778382Y-15482479D01*
X9778382Y-15482479D02*
X9787905Y-15520574D01*
X9787905Y-15520574D02*
X9787905Y-15568193D01*
X9787905Y-15568193D02*
X9778382Y-15606288D01*
X9778382Y-15606288D02*
X9768858Y-15625336D01*
X9768858Y-15625336D02*
X9759334Y-15634860D01*
X9759334Y-15634860D02*
X9740286Y-15644384D01*
X9740286Y-15644384D02*
X9721239Y-15644384D01*
X9721239Y-15644384D02*
X9702191Y-15634860D01*
X9702191Y-15634860D02*
X9692667Y-15625336D01*
X9692667Y-15625336D02*
X9683144Y-15606288D01*
X9683144Y-15606288D02*
X9673620Y-15568193D01*
X9673620Y-15568193D02*
X9673620Y-15520574D01*
X9673620Y-15520574D02*
X9683144Y-15482479D01*
X9683144Y-15482479D02*
X9692667Y-15463431D01*
X9692667Y-15463431D02*
X9702191Y-15453908D01*
X9702191Y-15453908D02*
X9721239Y-15444384D01*
X9873620Y-15644384D02*
X9873620Y-15511050D01*
X9873620Y-15530098D02*
X9883144Y-15520574D01*
X9883144Y-15520574D02*
X9902191Y-15511050D01*
X9902191Y-15511050D02*
X9930763Y-15511050D01*
X9930763Y-15511050D02*
X9949810Y-15520574D01*
X9949810Y-15520574D02*
X9959334Y-15539622D01*
X9959334Y-15539622D02*
X9959334Y-15644384D01*
X9959334Y-15539622D02*
X9968858Y-15520574D01*
X9968858Y-15520574D02*
X9987905Y-15511050D01*
X9987905Y-15511050D02*
X10016477Y-15511050D01*
X10016477Y-15511050D02*
X10035525Y-15520574D01*
X10035525Y-15520574D02*
X10045048Y-15539622D01*
X10045048Y-15539622D02*
X10045048Y-15644384D01*
X10140286Y-15644384D02*
X10140286Y-15511050D01*
X10140286Y-15530098D02*
X10149810Y-15520574D01*
X10149810Y-15520574D02*
X10168858Y-15511050D01*
X10168858Y-15511050D02*
X10197429Y-15511050D01*
X10197429Y-15511050D02*
X10216477Y-15520574D01*
X10216477Y-15520574D02*
X10226001Y-15539622D01*
X10226001Y-15539622D02*
X10226001Y-15644384D01*
X10226001Y-15539622D02*
X10235525Y-15520574D01*
X10235525Y-15520574D02*
X10254572Y-15511050D01*
X10254572Y-15511050D02*
X10283144Y-15511050D01*
X10283144Y-15511050D02*
X10302191Y-15520574D01*
X10302191Y-15520574D02*
X10311715Y-15539622D01*
X10311715Y-15539622D02*
X10311715Y-15644384D01*
X10702191Y-15434860D02*
X10530763Y-15692003D01*
X10959334Y-15444384D02*
X10978382Y-15444384D01*
X10978382Y-15444384D02*
X10997429Y-15453908D01*
X10997429Y-15453908D02*
X11006953Y-15463431D01*
X11006953Y-15463431D02*
X11016477Y-15482479D01*
X11016477Y-15482479D02*
X11026001Y-15520574D01*
X11026001Y-15520574D02*
X11026001Y-15568193D01*
X11026001Y-15568193D02*
X11016477Y-15606288D01*
X11016477Y-15606288D02*
X11006953Y-15625336D01*
X11006953Y-15625336D02*
X10997429Y-15634860D01*
X10997429Y-15634860D02*
X10978382Y-15644384D01*
X10978382Y-15644384D02*
X10959334Y-15644384D01*
X10959334Y-15644384D02*
X10940287Y-15634860D01*
X10940287Y-15634860D02*
X10930763Y-15625336D01*
X10930763Y-15625336D02*
X10921239Y-15606288D01*
X10921239Y-15606288D02*
X10911715Y-15568193D01*
X10911715Y-15568193D02*
X10911715Y-15520574D01*
X10911715Y-15520574D02*
X10921239Y-15482479D01*
X10921239Y-15482479D02*
X10930763Y-15463431D01*
X10930763Y-15463431D02*
X10940287Y-15453908D01*
X10940287Y-15453908D02*
X10959334Y-15444384D01*
X11111715Y-15625336D02*
X11121239Y-15634860D01*
X11121239Y-15634860D02*
X11111715Y-15644384D01*
X11111715Y-15644384D02*
X11102191Y-15634860D01*
X11102191Y-15634860D02*
X11111715Y-15625336D01*
X11111715Y-15625336D02*
X11111715Y-15644384D01*
X11245048Y-15444384D02*
X11264096Y-15444384D01*
X11264096Y-15444384D02*
X11283144Y-15453908D01*
X11283144Y-15453908D02*
X11292667Y-15463431D01*
X11292667Y-15463431D02*
X11302191Y-15482479D01*
X11302191Y-15482479D02*
X11311715Y-15520574D01*
X11311715Y-15520574D02*
X11311715Y-15568193D01*
X11311715Y-15568193D02*
X11302191Y-15606288D01*
X11302191Y-15606288D02*
X11292667Y-15625336D01*
X11292667Y-15625336D02*
X11283144Y-15634860D01*
X11283144Y-15634860D02*
X11264096Y-15644384D01*
X11264096Y-15644384D02*
X11245048Y-15644384D01*
X11245048Y-15644384D02*
X11226001Y-15634860D01*
X11226001Y-15634860D02*
X11216477Y-15625336D01*
X11216477Y-15625336D02*
X11206953Y-15606288D01*
X11206953Y-15606288D02*
X11197429Y-15568193D01*
X11197429Y-15568193D02*
X11197429Y-15520574D01*
X11197429Y-15520574D02*
X11206953Y-15482479D01*
X11206953Y-15482479D02*
X11216477Y-15463431D01*
X11216477Y-15463431D02*
X11226001Y-15453908D01*
X11226001Y-15453908D02*
X11245048Y-15444384D01*
X11502191Y-15644384D02*
X11387906Y-15644384D01*
X11445048Y-15644384D02*
X11445048Y-15444384D01*
X11445048Y-15444384D02*
X11426001Y-15472955D01*
X11426001Y-15472955D02*
X11406953Y-15492003D01*
X11406953Y-15492003D02*
X11387906Y-15501527D01*
X11597429Y-15644384D02*
X11635525Y-15644384D01*
X11635525Y-15644384D02*
X11654572Y-15634860D01*
X11654572Y-15634860D02*
X11664096Y-15625336D01*
X11664096Y-15625336D02*
X11683144Y-15596765D01*
X11683144Y-15596765D02*
X11692667Y-15558669D01*
X11692667Y-15558669D02*
X11692667Y-15482479D01*
X11692667Y-15482479D02*
X11683144Y-15463431D01*
X11683144Y-15463431D02*
X11673620Y-15453908D01*
X11673620Y-15453908D02*
X11654572Y-15444384D01*
X11654572Y-15444384D02*
X11616477Y-15444384D01*
X11616477Y-15444384D02*
X11597429Y-15453908D01*
X11597429Y-15453908D02*
X11587906Y-15463431D01*
X11587906Y-15463431D02*
X11578382Y-15482479D01*
X11578382Y-15482479D02*
X11578382Y-15530098D01*
X11578382Y-15530098D02*
X11587906Y-15549146D01*
X11587906Y-15549146D02*
X11597429Y-15558669D01*
X11597429Y-15558669D02*
X11616477Y-15568193D01*
X11616477Y-15568193D02*
X11654572Y-15568193D01*
X11654572Y-15568193D02*
X11673620Y-15558669D01*
X11673620Y-15558669D02*
X11683144Y-15549146D01*
X11683144Y-15549146D02*
X11692667Y-15530098D01*
X11759334Y-15444384D02*
X11892667Y-15444384D01*
X11892667Y-15444384D02*
X11806953Y-15644384D01*
X11959334Y-15444384D02*
X11959334Y-15482479D01*
X12035525Y-15444384D02*
X12035525Y-15482479D01*
X12330763Y-15720574D02*
X12321239Y-15711050D01*
X12321239Y-15711050D02*
X12302191Y-15682479D01*
X12302191Y-15682479D02*
X12292668Y-15663431D01*
X12292668Y-15663431D02*
X12283144Y-15634860D01*
X12283144Y-15634860D02*
X12273620Y-15587241D01*
X12273620Y-15587241D02*
X12273620Y-15549146D01*
X12273620Y-15549146D02*
X12283144Y-15501527D01*
X12283144Y-15501527D02*
X12292668Y-15472955D01*
X12292668Y-15472955D02*
X12302191Y-15453908D01*
X12302191Y-15453908D02*
X12321239Y-15425336D01*
X12321239Y-15425336D02*
X12330763Y-15415812D01*
X12511715Y-15644384D02*
X12397429Y-15644384D01*
X12454572Y-15644384D02*
X12454572Y-15444384D01*
X12454572Y-15444384D02*
X12435525Y-15472955D01*
X12435525Y-15472955D02*
X12416477Y-15492003D01*
X12416477Y-15492003D02*
X12397429Y-15501527D01*
X12702191Y-15644384D02*
X12587906Y-15644384D01*
X12645048Y-15644384D02*
X12645048Y-15444384D01*
X12645048Y-15444384D02*
X12626001Y-15472955D01*
X12626001Y-15472955D02*
X12606953Y-15492003D01*
X12606953Y-15492003D02*
X12587906Y-15501527D01*
X12873620Y-15511050D02*
X12873620Y-15644384D01*
X12826001Y-15434860D02*
X12778382Y-15577717D01*
X12778382Y-15577717D02*
X12902191Y-15577717D01*
X13130763Y-15644384D02*
X13130763Y-15444384D01*
X13216477Y-15644384D02*
X13216477Y-15539622D01*
X13216477Y-15539622D02*
X13206953Y-15520574D01*
X13206953Y-15520574D02*
X13187906Y-15511050D01*
X13187906Y-15511050D02*
X13159334Y-15511050D01*
X13159334Y-15511050D02*
X13140287Y-15520574D01*
X13140287Y-15520574D02*
X13130763Y-15530098D01*
X13340287Y-15644384D02*
X13321239Y-15634860D01*
X13321239Y-15634860D02*
X13311715Y-15625336D01*
X13311715Y-15625336D02*
X13302191Y-15606288D01*
X13302191Y-15606288D02*
X13302191Y-15549146D01*
X13302191Y-15549146D02*
X13311715Y-15530098D01*
X13311715Y-15530098D02*
X13321239Y-15520574D01*
X13321239Y-15520574D02*
X13340287Y-15511050D01*
X13340287Y-15511050D02*
X13368858Y-15511050D01*
X13368858Y-15511050D02*
X13387906Y-15520574D01*
X13387906Y-15520574D02*
X13397430Y-15530098D01*
X13397430Y-15530098D02*
X13406953Y-15549146D01*
X13406953Y-15549146D02*
X13406953Y-15606288D01*
X13406953Y-15606288D02*
X13397430Y-15625336D01*
X13397430Y-15625336D02*
X13387906Y-15634860D01*
X13387906Y-15634860D02*
X13368858Y-15644384D01*
X13368858Y-15644384D02*
X13340287Y-15644384D01*
X13521239Y-15644384D02*
X13502191Y-15634860D01*
X13502191Y-15634860D02*
X13492668Y-15615812D01*
X13492668Y-15615812D02*
X13492668Y-15444384D01*
X13673620Y-15634860D02*
X13654572Y-15644384D01*
X13654572Y-15644384D02*
X13616477Y-15644384D01*
X13616477Y-15644384D02*
X13597430Y-15634860D01*
X13597430Y-15634860D02*
X13587906Y-15615812D01*
X13587906Y-15615812D02*
X13587906Y-15539622D01*
X13587906Y-15539622D02*
X13597430Y-15520574D01*
X13597430Y-15520574D02*
X13616477Y-15511050D01*
X13616477Y-15511050D02*
X13654572Y-15511050D01*
X13654572Y-15511050D02*
X13673620Y-15520574D01*
X13673620Y-15520574D02*
X13683144Y-15539622D01*
X13683144Y-15539622D02*
X13683144Y-15558669D01*
X13683144Y-15558669D02*
X13587906Y-15577717D01*
X13759334Y-15634860D02*
X13778382Y-15644384D01*
X13778382Y-15644384D02*
X13816477Y-15644384D01*
X13816477Y-15644384D02*
X13835525Y-15634860D01*
X13835525Y-15634860D02*
X13845049Y-15615812D01*
X13845049Y-15615812D02*
X13845049Y-15606288D01*
X13845049Y-15606288D02*
X13835525Y-15587241D01*
X13835525Y-15587241D02*
X13816477Y-15577717D01*
X13816477Y-15577717D02*
X13787906Y-15577717D01*
X13787906Y-15577717D02*
X13768858Y-15568193D01*
X13768858Y-15568193D02*
X13759334Y-15549146D01*
X13759334Y-15549146D02*
X13759334Y-15539622D01*
X13759334Y-15539622D02*
X13768858Y-15520574D01*
X13768858Y-15520574D02*
X13787906Y-15511050D01*
X13787906Y-15511050D02*
X13816477Y-15511050D01*
X13816477Y-15511050D02*
X13835525Y-15520574D01*
X13911715Y-15720574D02*
X13921239Y-15711050D01*
X13921239Y-15711050D02*
X13940287Y-15682479D01*
X13940287Y-15682479D02*
X13949811Y-15663431D01*
X13949811Y-15663431D02*
X13959334Y-15634860D01*
X13959334Y-15634860D02*
X13968858Y-15587241D01*
X13968858Y-15587241D02*
X13968858Y-15549146D01*
X13968858Y-15549146D02*
X13959334Y-15501527D01*
X13959334Y-15501527D02*
X13949811Y-15472955D01*
X13949811Y-15472955D02*
X13940287Y-15453908D01*
X13940287Y-15453908D02*
X13921239Y-15425336D01*
X13921239Y-15425336D02*
X13911715Y-15415812D01*
D12*
X8746913Y-15838113D02*
X8746913Y-15795687D01*
X8704487Y-15795687D01*
X8704487Y-15838113D01*
X8746913Y-15838113D01*
D11*
X9054572Y-15708384D02*
X9073620Y-15708384D01*
X9073620Y-15708384D02*
X9092667Y-15717908D01*
X9092667Y-15717908D02*
X9102191Y-15727431D01*
X9102191Y-15727431D02*
X9111715Y-15746479D01*
X9111715Y-15746479D02*
X9121239Y-15784574D01*
X9121239Y-15784574D02*
X9121239Y-15832193D01*
X9121239Y-15832193D02*
X9111715Y-15870288D01*
X9111715Y-15870288D02*
X9102191Y-15889336D01*
X9102191Y-15889336D02*
X9092667Y-15898860D01*
X9092667Y-15898860D02*
X9073620Y-15908384D01*
X9073620Y-15908384D02*
X9054572Y-15908384D01*
X9054572Y-15908384D02*
X9035524Y-15898860D01*
X9035524Y-15898860D02*
X9026001Y-15889336D01*
X9026001Y-15889336D02*
X9016477Y-15870288D01*
X9016477Y-15870288D02*
X9006953Y-15832193D01*
X9006953Y-15832193D02*
X9006953Y-15784574D01*
X9006953Y-15784574D02*
X9016477Y-15746479D01*
X9016477Y-15746479D02*
X9026001Y-15727431D01*
X9026001Y-15727431D02*
X9035524Y-15717908D01*
X9035524Y-15717908D02*
X9054572Y-15708384D01*
X9206953Y-15889336D02*
X9216477Y-15898860D01*
X9216477Y-15898860D02*
X9206953Y-15908384D01*
X9206953Y-15908384D02*
X9197429Y-15898860D01*
X9197429Y-15898860D02*
X9206953Y-15889336D01*
X9206953Y-15889336D02*
X9206953Y-15908384D01*
X9387905Y-15708384D02*
X9349810Y-15708384D01*
X9349810Y-15708384D02*
X9330763Y-15717908D01*
X9330763Y-15717908D02*
X9321239Y-15727431D01*
X9321239Y-15727431D02*
X9302191Y-15756003D01*
X9302191Y-15756003D02*
X9292667Y-15794098D01*
X9292667Y-15794098D02*
X9292667Y-15870288D01*
X9292667Y-15870288D02*
X9302191Y-15889336D01*
X9302191Y-15889336D02*
X9311715Y-15898860D01*
X9311715Y-15898860D02*
X9330763Y-15908384D01*
X9330763Y-15908384D02*
X9368858Y-15908384D01*
X9368858Y-15908384D02*
X9387905Y-15898860D01*
X9387905Y-15898860D02*
X9397429Y-15889336D01*
X9397429Y-15889336D02*
X9406953Y-15870288D01*
X9406953Y-15870288D02*
X9406953Y-15822669D01*
X9406953Y-15822669D02*
X9397429Y-15803622D01*
X9397429Y-15803622D02*
X9387905Y-15794098D01*
X9387905Y-15794098D02*
X9368858Y-15784574D01*
X9368858Y-15784574D02*
X9330763Y-15784574D01*
X9330763Y-15784574D02*
X9311715Y-15794098D01*
X9311715Y-15794098D02*
X9302191Y-15803622D01*
X9302191Y-15803622D02*
X9292667Y-15822669D01*
X9530763Y-15708384D02*
X9549810Y-15708384D01*
X9549810Y-15708384D02*
X9568858Y-15717908D01*
X9568858Y-15717908D02*
X9578382Y-15727431D01*
X9578382Y-15727431D02*
X9587905Y-15746479D01*
X9587905Y-15746479D02*
X9597429Y-15784574D01*
X9597429Y-15784574D02*
X9597429Y-15832193D01*
X9597429Y-15832193D02*
X9587905Y-15870288D01*
X9587905Y-15870288D02*
X9578382Y-15889336D01*
X9578382Y-15889336D02*
X9568858Y-15898860D01*
X9568858Y-15898860D02*
X9549810Y-15908384D01*
X9549810Y-15908384D02*
X9530763Y-15908384D01*
X9530763Y-15908384D02*
X9511715Y-15898860D01*
X9511715Y-15898860D02*
X9502191Y-15889336D01*
X9502191Y-15889336D02*
X9492667Y-15870288D01*
X9492667Y-15870288D02*
X9483144Y-15832193D01*
X9483144Y-15832193D02*
X9483144Y-15784574D01*
X9483144Y-15784574D02*
X9492667Y-15746479D01*
X9492667Y-15746479D02*
X9502191Y-15727431D01*
X9502191Y-15727431D02*
X9511715Y-15717908D01*
X9511715Y-15717908D02*
X9530763Y-15708384D01*
X9721239Y-15708384D02*
X9740286Y-15708384D01*
X9740286Y-15708384D02*
X9759334Y-15717908D01*
X9759334Y-15717908D02*
X9768858Y-15727431D01*
X9768858Y-15727431D02*
X9778382Y-15746479D01*
X9778382Y-15746479D02*
X9787905Y-15784574D01*
X9787905Y-15784574D02*
X9787905Y-15832193D01*
X9787905Y-15832193D02*
X9778382Y-15870288D01*
X9778382Y-15870288D02*
X9768858Y-15889336D01*
X9768858Y-15889336D02*
X9759334Y-15898860D01*
X9759334Y-15898860D02*
X9740286Y-15908384D01*
X9740286Y-15908384D02*
X9721239Y-15908384D01*
X9721239Y-15908384D02*
X9702191Y-15898860D01*
X9702191Y-15898860D02*
X9692667Y-15889336D01*
X9692667Y-15889336D02*
X9683144Y-15870288D01*
X9683144Y-15870288D02*
X9673620Y-15832193D01*
X9673620Y-15832193D02*
X9673620Y-15784574D01*
X9673620Y-15784574D02*
X9683144Y-15746479D01*
X9683144Y-15746479D02*
X9692667Y-15727431D01*
X9692667Y-15727431D02*
X9702191Y-15717908D01*
X9702191Y-15717908D02*
X9721239Y-15708384D01*
X9873620Y-15908384D02*
X9873620Y-15775050D01*
X9873620Y-15794098D02*
X9883144Y-15784574D01*
X9883144Y-15784574D02*
X9902191Y-15775050D01*
X9902191Y-15775050D02*
X9930763Y-15775050D01*
X9930763Y-15775050D02*
X9949810Y-15784574D01*
X9949810Y-15784574D02*
X9959334Y-15803622D01*
X9959334Y-15803622D02*
X9959334Y-15908384D01*
X9959334Y-15803622D02*
X9968858Y-15784574D01*
X9968858Y-15784574D02*
X9987905Y-15775050D01*
X9987905Y-15775050D02*
X10016477Y-15775050D01*
X10016477Y-15775050D02*
X10035525Y-15784574D01*
X10035525Y-15784574D02*
X10045048Y-15803622D01*
X10045048Y-15803622D02*
X10045048Y-15908384D01*
X10140286Y-15908384D02*
X10140286Y-15775050D01*
X10140286Y-15794098D02*
X10149810Y-15784574D01*
X10149810Y-15784574D02*
X10168858Y-15775050D01*
X10168858Y-15775050D02*
X10197429Y-15775050D01*
X10197429Y-15775050D02*
X10216477Y-15784574D01*
X10216477Y-15784574D02*
X10226001Y-15803622D01*
X10226001Y-15803622D02*
X10226001Y-15908384D01*
X10226001Y-15803622D02*
X10235525Y-15784574D01*
X10235525Y-15784574D02*
X10254572Y-15775050D01*
X10254572Y-15775050D02*
X10283144Y-15775050D01*
X10283144Y-15775050D02*
X10302191Y-15784574D01*
X10302191Y-15784574D02*
X10311715Y-15803622D01*
X10311715Y-15803622D02*
X10311715Y-15908384D01*
X10702191Y-15698860D02*
X10530763Y-15956003D01*
X10959334Y-15708384D02*
X10978382Y-15708384D01*
X10978382Y-15708384D02*
X10997429Y-15717908D01*
X10997429Y-15717908D02*
X11006953Y-15727431D01*
X11006953Y-15727431D02*
X11016477Y-15746479D01*
X11016477Y-15746479D02*
X11026001Y-15784574D01*
X11026001Y-15784574D02*
X11026001Y-15832193D01*
X11026001Y-15832193D02*
X11016477Y-15870288D01*
X11016477Y-15870288D02*
X11006953Y-15889336D01*
X11006953Y-15889336D02*
X10997429Y-15898860D01*
X10997429Y-15898860D02*
X10978382Y-15908384D01*
X10978382Y-15908384D02*
X10959334Y-15908384D01*
X10959334Y-15908384D02*
X10940287Y-15898860D01*
X10940287Y-15898860D02*
X10930763Y-15889336D01*
X10930763Y-15889336D02*
X10921239Y-15870288D01*
X10921239Y-15870288D02*
X10911715Y-15832193D01*
X10911715Y-15832193D02*
X10911715Y-15784574D01*
X10911715Y-15784574D02*
X10921239Y-15746479D01*
X10921239Y-15746479D02*
X10930763Y-15727431D01*
X10930763Y-15727431D02*
X10940287Y-15717908D01*
X10940287Y-15717908D02*
X10959334Y-15708384D01*
X11111715Y-15889336D02*
X11121239Y-15898860D01*
X11121239Y-15898860D02*
X11111715Y-15908384D01*
X11111715Y-15908384D02*
X11102191Y-15898860D01*
X11102191Y-15898860D02*
X11111715Y-15889336D01*
X11111715Y-15889336D02*
X11111715Y-15908384D01*
X11245048Y-15708384D02*
X11264096Y-15708384D01*
X11264096Y-15708384D02*
X11283144Y-15717908D01*
X11283144Y-15717908D02*
X11292667Y-15727431D01*
X11292667Y-15727431D02*
X11302191Y-15746479D01*
X11302191Y-15746479D02*
X11311715Y-15784574D01*
X11311715Y-15784574D02*
X11311715Y-15832193D01*
X11311715Y-15832193D02*
X11302191Y-15870288D01*
X11302191Y-15870288D02*
X11292667Y-15889336D01*
X11292667Y-15889336D02*
X11283144Y-15898860D01*
X11283144Y-15898860D02*
X11264096Y-15908384D01*
X11264096Y-15908384D02*
X11245048Y-15908384D01*
X11245048Y-15908384D02*
X11226001Y-15898860D01*
X11226001Y-15898860D02*
X11216477Y-15889336D01*
X11216477Y-15889336D02*
X11206953Y-15870288D01*
X11206953Y-15870288D02*
X11197429Y-15832193D01*
X11197429Y-15832193D02*
X11197429Y-15784574D01*
X11197429Y-15784574D02*
X11206953Y-15746479D01*
X11206953Y-15746479D02*
X11216477Y-15727431D01*
X11216477Y-15727431D02*
X11226001Y-15717908D01*
X11226001Y-15717908D02*
X11245048Y-15708384D01*
X11387906Y-15727431D02*
X11397429Y-15717908D01*
X11397429Y-15717908D02*
X11416477Y-15708384D01*
X11416477Y-15708384D02*
X11464096Y-15708384D01*
X11464096Y-15708384D02*
X11483144Y-15717908D01*
X11483144Y-15717908D02*
X11492667Y-15727431D01*
X11492667Y-15727431D02*
X11502191Y-15746479D01*
X11502191Y-15746479D02*
X11502191Y-15765527D01*
X11502191Y-15765527D02*
X11492667Y-15794098D01*
X11492667Y-15794098D02*
X11378382Y-15908384D01*
X11378382Y-15908384D02*
X11502191Y-15908384D01*
X11568858Y-15708384D02*
X11692667Y-15708384D01*
X11692667Y-15708384D02*
X11626001Y-15784574D01*
X11626001Y-15784574D02*
X11654572Y-15784574D01*
X11654572Y-15784574D02*
X11673620Y-15794098D01*
X11673620Y-15794098D02*
X11683144Y-15803622D01*
X11683144Y-15803622D02*
X11692667Y-15822669D01*
X11692667Y-15822669D02*
X11692667Y-15870288D01*
X11692667Y-15870288D02*
X11683144Y-15889336D01*
X11683144Y-15889336D02*
X11673620Y-15898860D01*
X11673620Y-15898860D02*
X11654572Y-15908384D01*
X11654572Y-15908384D02*
X11597429Y-15908384D01*
X11597429Y-15908384D02*
X11578382Y-15898860D01*
X11578382Y-15898860D02*
X11568858Y-15889336D01*
X11864096Y-15708384D02*
X11826001Y-15708384D01*
X11826001Y-15708384D02*
X11806953Y-15717908D01*
X11806953Y-15717908D02*
X11797429Y-15727431D01*
X11797429Y-15727431D02*
X11778382Y-15756003D01*
X11778382Y-15756003D02*
X11768858Y-15794098D01*
X11768858Y-15794098D02*
X11768858Y-15870288D01*
X11768858Y-15870288D02*
X11778382Y-15889336D01*
X11778382Y-15889336D02*
X11787906Y-15898860D01*
X11787906Y-15898860D02*
X11806953Y-15908384D01*
X11806953Y-15908384D02*
X11845048Y-15908384D01*
X11845048Y-15908384D02*
X11864096Y-15898860D01*
X11864096Y-15898860D02*
X11873620Y-15889336D01*
X11873620Y-15889336D02*
X11883144Y-15870288D01*
X11883144Y-15870288D02*
X11883144Y-15822669D01*
X11883144Y-15822669D02*
X11873620Y-15803622D01*
X11873620Y-15803622D02*
X11864096Y-15794098D01*
X11864096Y-15794098D02*
X11845048Y-15784574D01*
X11845048Y-15784574D02*
X11806953Y-15784574D01*
X11806953Y-15784574D02*
X11787906Y-15794098D01*
X11787906Y-15794098D02*
X11778382Y-15803622D01*
X11778382Y-15803622D02*
X11768858Y-15822669D01*
X11959334Y-15708384D02*
X11959334Y-15746479D01*
X12035525Y-15708384D02*
X12035525Y-15746479D01*
X12330763Y-15984574D02*
X12321239Y-15975050D01*
X12321239Y-15975050D02*
X12302191Y-15946479D01*
X12302191Y-15946479D02*
X12292668Y-15927431D01*
X12292668Y-15927431D02*
X12283144Y-15898860D01*
X12283144Y-15898860D02*
X12273620Y-15851241D01*
X12273620Y-15851241D02*
X12273620Y-15813146D01*
X12273620Y-15813146D02*
X12283144Y-15765527D01*
X12283144Y-15765527D02*
X12292668Y-15736955D01*
X12292668Y-15736955D02*
X12302191Y-15717908D01*
X12302191Y-15717908D02*
X12321239Y-15689336D01*
X12321239Y-15689336D02*
X12330763Y-15679812D01*
X12445048Y-15708384D02*
X12464096Y-15708384D01*
X12464096Y-15708384D02*
X12483144Y-15717908D01*
X12483144Y-15717908D02*
X12492668Y-15727431D01*
X12492668Y-15727431D02*
X12502191Y-15746479D01*
X12502191Y-15746479D02*
X12511715Y-15784574D01*
X12511715Y-15784574D02*
X12511715Y-15832193D01*
X12511715Y-15832193D02*
X12502191Y-15870288D01*
X12502191Y-15870288D02*
X12492668Y-15889336D01*
X12492668Y-15889336D02*
X12483144Y-15898860D01*
X12483144Y-15898860D02*
X12464096Y-15908384D01*
X12464096Y-15908384D02*
X12445048Y-15908384D01*
X12445048Y-15908384D02*
X12426001Y-15898860D01*
X12426001Y-15898860D02*
X12416477Y-15889336D01*
X12416477Y-15889336D02*
X12406953Y-15870288D01*
X12406953Y-15870288D02*
X12397429Y-15832193D01*
X12397429Y-15832193D02*
X12397429Y-15784574D01*
X12397429Y-15784574D02*
X12406953Y-15746479D01*
X12406953Y-15746479D02*
X12416477Y-15727431D01*
X12416477Y-15727431D02*
X12426001Y-15717908D01*
X12426001Y-15717908D02*
X12445048Y-15708384D01*
X12749810Y-15908384D02*
X12749810Y-15708384D01*
X12835525Y-15908384D02*
X12835525Y-15803622D01*
X12835525Y-15803622D02*
X12826001Y-15784574D01*
X12826001Y-15784574D02*
X12806953Y-15775050D01*
X12806953Y-15775050D02*
X12778382Y-15775050D01*
X12778382Y-15775050D02*
X12759334Y-15784574D01*
X12759334Y-15784574D02*
X12749810Y-15794098D01*
X12959334Y-15908384D02*
X12940287Y-15898860D01*
X12940287Y-15898860D02*
X12930763Y-15889336D01*
X12930763Y-15889336D02*
X12921239Y-15870288D01*
X12921239Y-15870288D02*
X12921239Y-15813146D01*
X12921239Y-15813146D02*
X12930763Y-15794098D01*
X12930763Y-15794098D02*
X12940287Y-15784574D01*
X12940287Y-15784574D02*
X12959334Y-15775050D01*
X12959334Y-15775050D02*
X12987906Y-15775050D01*
X12987906Y-15775050D02*
X13006953Y-15784574D01*
X13006953Y-15784574D02*
X13016477Y-15794098D01*
X13016477Y-15794098D02*
X13026001Y-15813146D01*
X13026001Y-15813146D02*
X13026001Y-15870288D01*
X13026001Y-15870288D02*
X13016477Y-15889336D01*
X13016477Y-15889336D02*
X13006953Y-15898860D01*
X13006953Y-15898860D02*
X12987906Y-15908384D01*
X12987906Y-15908384D02*
X12959334Y-15908384D01*
X13140287Y-15908384D02*
X13121239Y-15898860D01*
X13121239Y-15898860D02*
X13111715Y-15879812D01*
X13111715Y-15879812D02*
X13111715Y-15708384D01*
X13292668Y-15898860D02*
X13273620Y-15908384D01*
X13273620Y-15908384D02*
X13235525Y-15908384D01*
X13235525Y-15908384D02*
X13216477Y-15898860D01*
X13216477Y-15898860D02*
X13206953Y-15879812D01*
X13206953Y-15879812D02*
X13206953Y-15803622D01*
X13206953Y-15803622D02*
X13216477Y-15784574D01*
X13216477Y-15784574D02*
X13235525Y-15775050D01*
X13235525Y-15775050D02*
X13273620Y-15775050D01*
X13273620Y-15775050D02*
X13292668Y-15784574D01*
X13292668Y-15784574D02*
X13302191Y-15803622D01*
X13302191Y-15803622D02*
X13302191Y-15822669D01*
X13302191Y-15822669D02*
X13206953Y-15841717D01*
X13378382Y-15898860D02*
X13397430Y-15908384D01*
X13397430Y-15908384D02*
X13435525Y-15908384D01*
X13435525Y-15908384D02*
X13454572Y-15898860D01*
X13454572Y-15898860D02*
X13464096Y-15879812D01*
X13464096Y-15879812D02*
X13464096Y-15870288D01*
X13464096Y-15870288D02*
X13454572Y-15851241D01*
X13454572Y-15851241D02*
X13435525Y-15841717D01*
X13435525Y-15841717D02*
X13406953Y-15841717D01*
X13406953Y-15841717D02*
X13387906Y-15832193D01*
X13387906Y-15832193D02*
X13378382Y-15813146D01*
X13378382Y-15813146D02*
X13378382Y-15803622D01*
X13378382Y-15803622D02*
X13387906Y-15784574D01*
X13387906Y-15784574D02*
X13406953Y-15775050D01*
X13406953Y-15775050D02*
X13435525Y-15775050D01*
X13435525Y-15775050D02*
X13454572Y-15784574D01*
X13702192Y-15832193D02*
X13854573Y-15832193D01*
X13778382Y-15908384D02*
X13778382Y-15756003D01*
X14187906Y-15775050D02*
X14187906Y-15908384D01*
X14140287Y-15698860D02*
X14092668Y-15841717D01*
X14092668Y-15841717D02*
X14216477Y-15841717D01*
X14435525Y-15898860D02*
X14454573Y-15908384D01*
X14454573Y-15908384D02*
X14492668Y-15908384D01*
X14492668Y-15908384D02*
X14511715Y-15898860D01*
X14511715Y-15898860D02*
X14521239Y-15879812D01*
X14521239Y-15879812D02*
X14521239Y-15870288D01*
X14521239Y-15870288D02*
X14511715Y-15851241D01*
X14511715Y-15851241D02*
X14492668Y-15841717D01*
X14492668Y-15841717D02*
X14464096Y-15841717D01*
X14464096Y-15841717D02*
X14445049Y-15832193D01*
X14445049Y-15832193D02*
X14435525Y-15813146D01*
X14435525Y-15813146D02*
X14435525Y-15803622D01*
X14435525Y-15803622D02*
X14445049Y-15784574D01*
X14445049Y-15784574D02*
X14464096Y-15775050D01*
X14464096Y-15775050D02*
X14492668Y-15775050D01*
X14492668Y-15775050D02*
X14511715Y-15784574D01*
X14635525Y-15908384D02*
X14616477Y-15898860D01*
X14616477Y-15898860D02*
X14606954Y-15879812D01*
X14606954Y-15879812D02*
X14606954Y-15708384D01*
X14740287Y-15908384D02*
X14721239Y-15898860D01*
X14721239Y-15898860D02*
X14711715Y-15889336D01*
X14711715Y-15889336D02*
X14702192Y-15870288D01*
X14702192Y-15870288D02*
X14702192Y-15813146D01*
X14702192Y-15813146D02*
X14711715Y-15794098D01*
X14711715Y-15794098D02*
X14721239Y-15784574D01*
X14721239Y-15784574D02*
X14740287Y-15775050D01*
X14740287Y-15775050D02*
X14768858Y-15775050D01*
X14768858Y-15775050D02*
X14787906Y-15784574D01*
X14787906Y-15784574D02*
X14797430Y-15794098D01*
X14797430Y-15794098D02*
X14806954Y-15813146D01*
X14806954Y-15813146D02*
X14806954Y-15870288D01*
X14806954Y-15870288D02*
X14797430Y-15889336D01*
X14797430Y-15889336D02*
X14787906Y-15898860D01*
X14787906Y-15898860D02*
X14768858Y-15908384D01*
X14768858Y-15908384D02*
X14740287Y-15908384D01*
X14864096Y-15775050D02*
X14940287Y-15775050D01*
X14892668Y-15708384D02*
X14892668Y-15879812D01*
X14892668Y-15879812D02*
X14902192Y-15898860D01*
X14902192Y-15898860D02*
X14921239Y-15908384D01*
X14921239Y-15908384D02*
X14940287Y-15908384D01*
X14997430Y-15898860D02*
X15016477Y-15908384D01*
X15016477Y-15908384D02*
X15054573Y-15908384D01*
X15054573Y-15908384D02*
X15073620Y-15898860D01*
X15073620Y-15898860D02*
X15083144Y-15879812D01*
X15083144Y-15879812D02*
X15083144Y-15870288D01*
X15083144Y-15870288D02*
X15073620Y-15851241D01*
X15073620Y-15851241D02*
X15054573Y-15841717D01*
X15054573Y-15841717D02*
X15026001Y-15841717D01*
X15026001Y-15841717D02*
X15006954Y-15832193D01*
X15006954Y-15832193D02*
X14997430Y-15813146D01*
X14997430Y-15813146D02*
X14997430Y-15803622D01*
X14997430Y-15803622D02*
X15006954Y-15784574D01*
X15006954Y-15784574D02*
X15026001Y-15775050D01*
X15026001Y-15775050D02*
X15054573Y-15775050D01*
X15054573Y-15775050D02*
X15073620Y-15784574D01*
X15149811Y-15984574D02*
X15159335Y-15975050D01*
X15159335Y-15975050D02*
X15178382Y-15946479D01*
X15178382Y-15946479D02*
X15187906Y-15927431D01*
X15187906Y-15927431D02*
X15197430Y-15898860D01*
X15197430Y-15898860D02*
X15206954Y-15851241D01*
X15206954Y-15851241D02*
X15206954Y-15813146D01*
X15206954Y-15813146D02*
X15197430Y-15765527D01*
X15197430Y-15765527D02*
X15187906Y-15736955D01*
X15187906Y-15736955D02*
X15178382Y-15717908D01*
X15178382Y-15717908D02*
X15159335Y-15689336D01*
X15159335Y-15689336D02*
X15149811Y-15679812D01*
D12*
X8720700Y-16115900D02*
X8755700Y-16080900D01*
X8720700Y-16045900D01*
X8685700Y-16080900D01*
X8720700Y-16115900D01*
D11*
X9054572Y-15972384D02*
X9073620Y-15972384D01*
X9073620Y-15972384D02*
X9092667Y-15981908D01*
X9092667Y-15981908D02*
X9102191Y-15991431D01*
X9102191Y-15991431D02*
X9111715Y-16010479D01*
X9111715Y-16010479D02*
X9121239Y-16048574D01*
X9121239Y-16048574D02*
X9121239Y-16096193D01*
X9121239Y-16096193D02*
X9111715Y-16134288D01*
X9111715Y-16134288D02*
X9102191Y-16153336D01*
X9102191Y-16153336D02*
X9092667Y-16162860D01*
X9092667Y-16162860D02*
X9073620Y-16172384D01*
X9073620Y-16172384D02*
X9054572Y-16172384D01*
X9054572Y-16172384D02*
X9035524Y-16162860D01*
X9035524Y-16162860D02*
X9026001Y-16153336D01*
X9026001Y-16153336D02*
X9016477Y-16134288D01*
X9016477Y-16134288D02*
X9006953Y-16096193D01*
X9006953Y-16096193D02*
X9006953Y-16048574D01*
X9006953Y-16048574D02*
X9016477Y-16010479D01*
X9016477Y-16010479D02*
X9026001Y-15991431D01*
X9026001Y-15991431D02*
X9035524Y-15981908D01*
X9035524Y-15981908D02*
X9054572Y-15972384D01*
X9206953Y-16153336D02*
X9216477Y-16162860D01*
X9216477Y-16162860D02*
X9206953Y-16172384D01*
X9206953Y-16172384D02*
X9197429Y-16162860D01*
X9197429Y-16162860D02*
X9206953Y-16153336D01*
X9206953Y-16153336D02*
X9206953Y-16172384D01*
X9283144Y-15972384D02*
X9416477Y-15972384D01*
X9416477Y-15972384D02*
X9330763Y-16172384D01*
X9530763Y-15972384D02*
X9549810Y-15972384D01*
X9549810Y-15972384D02*
X9568858Y-15981908D01*
X9568858Y-15981908D02*
X9578382Y-15991431D01*
X9578382Y-15991431D02*
X9587905Y-16010479D01*
X9587905Y-16010479D02*
X9597429Y-16048574D01*
X9597429Y-16048574D02*
X9597429Y-16096193D01*
X9597429Y-16096193D02*
X9587905Y-16134288D01*
X9587905Y-16134288D02*
X9578382Y-16153336D01*
X9578382Y-16153336D02*
X9568858Y-16162860D01*
X9568858Y-16162860D02*
X9549810Y-16172384D01*
X9549810Y-16172384D02*
X9530763Y-16172384D01*
X9530763Y-16172384D02*
X9511715Y-16162860D01*
X9511715Y-16162860D02*
X9502191Y-16153336D01*
X9502191Y-16153336D02*
X9492667Y-16134288D01*
X9492667Y-16134288D02*
X9483144Y-16096193D01*
X9483144Y-16096193D02*
X9483144Y-16048574D01*
X9483144Y-16048574D02*
X9492667Y-16010479D01*
X9492667Y-16010479D02*
X9502191Y-15991431D01*
X9502191Y-15991431D02*
X9511715Y-15981908D01*
X9511715Y-15981908D02*
X9530763Y-15972384D01*
X9721239Y-15972384D02*
X9740286Y-15972384D01*
X9740286Y-15972384D02*
X9759334Y-15981908D01*
X9759334Y-15981908D02*
X9768858Y-15991431D01*
X9768858Y-15991431D02*
X9778382Y-16010479D01*
X9778382Y-16010479D02*
X9787905Y-16048574D01*
X9787905Y-16048574D02*
X9787905Y-16096193D01*
X9787905Y-16096193D02*
X9778382Y-16134288D01*
X9778382Y-16134288D02*
X9768858Y-16153336D01*
X9768858Y-16153336D02*
X9759334Y-16162860D01*
X9759334Y-16162860D02*
X9740286Y-16172384D01*
X9740286Y-16172384D02*
X9721239Y-16172384D01*
X9721239Y-16172384D02*
X9702191Y-16162860D01*
X9702191Y-16162860D02*
X9692667Y-16153336D01*
X9692667Y-16153336D02*
X9683144Y-16134288D01*
X9683144Y-16134288D02*
X9673620Y-16096193D01*
X9673620Y-16096193D02*
X9673620Y-16048574D01*
X9673620Y-16048574D02*
X9683144Y-16010479D01*
X9683144Y-16010479D02*
X9692667Y-15991431D01*
X9692667Y-15991431D02*
X9702191Y-15981908D01*
X9702191Y-15981908D02*
X9721239Y-15972384D01*
X9873620Y-16172384D02*
X9873620Y-16039050D01*
X9873620Y-16058098D02*
X9883144Y-16048574D01*
X9883144Y-16048574D02*
X9902191Y-16039050D01*
X9902191Y-16039050D02*
X9930763Y-16039050D01*
X9930763Y-16039050D02*
X9949810Y-16048574D01*
X9949810Y-16048574D02*
X9959334Y-16067622D01*
X9959334Y-16067622D02*
X9959334Y-16172384D01*
X9959334Y-16067622D02*
X9968858Y-16048574D01*
X9968858Y-16048574D02*
X9987905Y-16039050D01*
X9987905Y-16039050D02*
X10016477Y-16039050D01*
X10016477Y-16039050D02*
X10035525Y-16048574D01*
X10035525Y-16048574D02*
X10045048Y-16067622D01*
X10045048Y-16067622D02*
X10045048Y-16172384D01*
X10140286Y-16172384D02*
X10140286Y-16039050D01*
X10140286Y-16058098D02*
X10149810Y-16048574D01*
X10149810Y-16048574D02*
X10168858Y-16039050D01*
X10168858Y-16039050D02*
X10197429Y-16039050D01*
X10197429Y-16039050D02*
X10216477Y-16048574D01*
X10216477Y-16048574D02*
X10226001Y-16067622D01*
X10226001Y-16067622D02*
X10226001Y-16172384D01*
X10226001Y-16067622D02*
X10235525Y-16048574D01*
X10235525Y-16048574D02*
X10254572Y-16039050D01*
X10254572Y-16039050D02*
X10283144Y-16039050D01*
X10283144Y-16039050D02*
X10302191Y-16048574D01*
X10302191Y-16048574D02*
X10311715Y-16067622D01*
X10311715Y-16067622D02*
X10311715Y-16172384D01*
X10702191Y-15962860D02*
X10530763Y-16220003D01*
X10959334Y-15972384D02*
X10978382Y-15972384D01*
X10978382Y-15972384D02*
X10997429Y-15981908D01*
X10997429Y-15981908D02*
X11006953Y-15991431D01*
X11006953Y-15991431D02*
X11016477Y-16010479D01*
X11016477Y-16010479D02*
X11026001Y-16048574D01*
X11026001Y-16048574D02*
X11026001Y-16096193D01*
X11026001Y-16096193D02*
X11016477Y-16134288D01*
X11016477Y-16134288D02*
X11006953Y-16153336D01*
X11006953Y-16153336D02*
X10997429Y-16162860D01*
X10997429Y-16162860D02*
X10978382Y-16172384D01*
X10978382Y-16172384D02*
X10959334Y-16172384D01*
X10959334Y-16172384D02*
X10940287Y-16162860D01*
X10940287Y-16162860D02*
X10930763Y-16153336D01*
X10930763Y-16153336D02*
X10921239Y-16134288D01*
X10921239Y-16134288D02*
X10911715Y-16096193D01*
X10911715Y-16096193D02*
X10911715Y-16048574D01*
X10911715Y-16048574D02*
X10921239Y-16010479D01*
X10921239Y-16010479D02*
X10930763Y-15991431D01*
X10930763Y-15991431D02*
X10940287Y-15981908D01*
X10940287Y-15981908D02*
X10959334Y-15972384D01*
X11111715Y-16153336D02*
X11121239Y-16162860D01*
X11121239Y-16162860D02*
X11111715Y-16172384D01*
X11111715Y-16172384D02*
X11102191Y-16162860D01*
X11102191Y-16162860D02*
X11111715Y-16153336D01*
X11111715Y-16153336D02*
X11111715Y-16172384D01*
X11245048Y-15972384D02*
X11264096Y-15972384D01*
X11264096Y-15972384D02*
X11283144Y-15981908D01*
X11283144Y-15981908D02*
X11292667Y-15991431D01*
X11292667Y-15991431D02*
X11302191Y-16010479D01*
X11302191Y-16010479D02*
X11311715Y-16048574D01*
X11311715Y-16048574D02*
X11311715Y-16096193D01*
X11311715Y-16096193D02*
X11302191Y-16134288D01*
X11302191Y-16134288D02*
X11292667Y-16153336D01*
X11292667Y-16153336D02*
X11283144Y-16162860D01*
X11283144Y-16162860D02*
X11264096Y-16172384D01*
X11264096Y-16172384D02*
X11245048Y-16172384D01*
X11245048Y-16172384D02*
X11226001Y-16162860D01*
X11226001Y-16162860D02*
X11216477Y-16153336D01*
X11216477Y-16153336D02*
X11206953Y-16134288D01*
X11206953Y-16134288D02*
X11197429Y-16096193D01*
X11197429Y-16096193D02*
X11197429Y-16048574D01*
X11197429Y-16048574D02*
X11206953Y-16010479D01*
X11206953Y-16010479D02*
X11216477Y-15991431D01*
X11216477Y-15991431D02*
X11226001Y-15981908D01*
X11226001Y-15981908D02*
X11245048Y-15972384D01*
X11387906Y-15991431D02*
X11397429Y-15981908D01*
X11397429Y-15981908D02*
X11416477Y-15972384D01*
X11416477Y-15972384D02*
X11464096Y-15972384D01*
X11464096Y-15972384D02*
X11483144Y-15981908D01*
X11483144Y-15981908D02*
X11492667Y-15991431D01*
X11492667Y-15991431D02*
X11502191Y-16010479D01*
X11502191Y-16010479D02*
X11502191Y-16029527D01*
X11502191Y-16029527D02*
X11492667Y-16058098D01*
X11492667Y-16058098D02*
X11378382Y-16172384D01*
X11378382Y-16172384D02*
X11502191Y-16172384D01*
X11568858Y-15972384D02*
X11702191Y-15972384D01*
X11702191Y-15972384D02*
X11616477Y-16172384D01*
X11864096Y-15972384D02*
X11826001Y-15972384D01*
X11826001Y-15972384D02*
X11806953Y-15981908D01*
X11806953Y-15981908D02*
X11797429Y-15991431D01*
X11797429Y-15991431D02*
X11778382Y-16020003D01*
X11778382Y-16020003D02*
X11768858Y-16058098D01*
X11768858Y-16058098D02*
X11768858Y-16134288D01*
X11768858Y-16134288D02*
X11778382Y-16153336D01*
X11778382Y-16153336D02*
X11787906Y-16162860D01*
X11787906Y-16162860D02*
X11806953Y-16172384D01*
X11806953Y-16172384D02*
X11845048Y-16172384D01*
X11845048Y-16172384D02*
X11864096Y-16162860D01*
X11864096Y-16162860D02*
X11873620Y-16153336D01*
X11873620Y-16153336D02*
X11883144Y-16134288D01*
X11883144Y-16134288D02*
X11883144Y-16086669D01*
X11883144Y-16086669D02*
X11873620Y-16067622D01*
X11873620Y-16067622D02*
X11864096Y-16058098D01*
X11864096Y-16058098D02*
X11845048Y-16048574D01*
X11845048Y-16048574D02*
X11806953Y-16048574D01*
X11806953Y-16048574D02*
X11787906Y-16058098D01*
X11787906Y-16058098D02*
X11778382Y-16067622D01*
X11778382Y-16067622D02*
X11768858Y-16086669D01*
X11959334Y-15972384D02*
X11959334Y-16010479D01*
X12035525Y-15972384D02*
X12035525Y-16010479D01*
X12330763Y-16248574D02*
X12321239Y-16239050D01*
X12321239Y-16239050D02*
X12302191Y-16210479D01*
X12302191Y-16210479D02*
X12292668Y-16191431D01*
X12292668Y-16191431D02*
X12283144Y-16162860D01*
X12283144Y-16162860D02*
X12273620Y-16115241D01*
X12273620Y-16115241D02*
X12273620Y-16077146D01*
X12273620Y-16077146D02*
X12283144Y-16029527D01*
X12283144Y-16029527D02*
X12292668Y-16000955D01*
X12292668Y-16000955D02*
X12302191Y-15981908D01*
X12302191Y-15981908D02*
X12321239Y-15953336D01*
X12321239Y-15953336D02*
X12330763Y-15943812D01*
X12397429Y-15991431D02*
X12406953Y-15981908D01*
X12406953Y-15981908D02*
X12426001Y-15972384D01*
X12426001Y-15972384D02*
X12473620Y-15972384D01*
X12473620Y-15972384D02*
X12492668Y-15981908D01*
X12492668Y-15981908D02*
X12502191Y-15991431D01*
X12502191Y-15991431D02*
X12511715Y-16010479D01*
X12511715Y-16010479D02*
X12511715Y-16029527D01*
X12511715Y-16029527D02*
X12502191Y-16058098D01*
X12502191Y-16058098D02*
X12387906Y-16172384D01*
X12387906Y-16172384D02*
X12511715Y-16172384D01*
X12749810Y-16172384D02*
X12749810Y-15972384D01*
X12835525Y-16172384D02*
X12835525Y-16067622D01*
X12835525Y-16067622D02*
X12826001Y-16048574D01*
X12826001Y-16048574D02*
X12806953Y-16039050D01*
X12806953Y-16039050D02*
X12778382Y-16039050D01*
X12778382Y-16039050D02*
X12759334Y-16048574D01*
X12759334Y-16048574D02*
X12749810Y-16058098D01*
X12959334Y-16172384D02*
X12940287Y-16162860D01*
X12940287Y-16162860D02*
X12930763Y-16153336D01*
X12930763Y-16153336D02*
X12921239Y-16134288D01*
X12921239Y-16134288D02*
X12921239Y-16077146D01*
X12921239Y-16077146D02*
X12930763Y-16058098D01*
X12930763Y-16058098D02*
X12940287Y-16048574D01*
X12940287Y-16048574D02*
X12959334Y-16039050D01*
X12959334Y-16039050D02*
X12987906Y-16039050D01*
X12987906Y-16039050D02*
X13006953Y-16048574D01*
X13006953Y-16048574D02*
X13016477Y-16058098D01*
X13016477Y-16058098D02*
X13026001Y-16077146D01*
X13026001Y-16077146D02*
X13026001Y-16134288D01*
X13026001Y-16134288D02*
X13016477Y-16153336D01*
X13016477Y-16153336D02*
X13006953Y-16162860D01*
X13006953Y-16162860D02*
X12987906Y-16172384D01*
X12987906Y-16172384D02*
X12959334Y-16172384D01*
X13140287Y-16172384D02*
X13121239Y-16162860D01*
X13121239Y-16162860D02*
X13111715Y-16143812D01*
X13111715Y-16143812D02*
X13111715Y-15972384D01*
X13292668Y-16162860D02*
X13273620Y-16172384D01*
X13273620Y-16172384D02*
X13235525Y-16172384D01*
X13235525Y-16172384D02*
X13216477Y-16162860D01*
X13216477Y-16162860D02*
X13206953Y-16143812D01*
X13206953Y-16143812D02*
X13206953Y-16067622D01*
X13206953Y-16067622D02*
X13216477Y-16048574D01*
X13216477Y-16048574D02*
X13235525Y-16039050D01*
X13235525Y-16039050D02*
X13273620Y-16039050D01*
X13273620Y-16039050D02*
X13292668Y-16048574D01*
X13292668Y-16048574D02*
X13302191Y-16067622D01*
X13302191Y-16067622D02*
X13302191Y-16086669D01*
X13302191Y-16086669D02*
X13206953Y-16105717D01*
X13378382Y-16162860D02*
X13397430Y-16172384D01*
X13397430Y-16172384D02*
X13435525Y-16172384D01*
X13435525Y-16172384D02*
X13454572Y-16162860D01*
X13454572Y-16162860D02*
X13464096Y-16143812D01*
X13464096Y-16143812D02*
X13464096Y-16134288D01*
X13464096Y-16134288D02*
X13454572Y-16115241D01*
X13454572Y-16115241D02*
X13435525Y-16105717D01*
X13435525Y-16105717D02*
X13406953Y-16105717D01*
X13406953Y-16105717D02*
X13387906Y-16096193D01*
X13387906Y-16096193D02*
X13378382Y-16077146D01*
X13378382Y-16077146D02*
X13378382Y-16067622D01*
X13378382Y-16067622D02*
X13387906Y-16048574D01*
X13387906Y-16048574D02*
X13406953Y-16039050D01*
X13406953Y-16039050D02*
X13435525Y-16039050D01*
X13435525Y-16039050D02*
X13454572Y-16048574D01*
X13530763Y-16248574D02*
X13540287Y-16239050D01*
X13540287Y-16239050D02*
X13559334Y-16210479D01*
X13559334Y-16210479D02*
X13568858Y-16191431D01*
X13568858Y-16191431D02*
X13578382Y-16162860D01*
X13578382Y-16162860D02*
X13587906Y-16115241D01*
X13587906Y-16115241D02*
X13587906Y-16077146D01*
X13587906Y-16077146D02*
X13578382Y-16029527D01*
X13578382Y-16029527D02*
X13568858Y-16000955D01*
X13568858Y-16000955D02*
X13559334Y-15981908D01*
X13559334Y-15981908D02*
X13540287Y-15953336D01*
X13540287Y-15953336D02*
X13530763Y-15943812D01*
D12*
X8675700Y-16304900D02*
X8755700Y-16384900D01*
X8755700Y-16304900D02*
X8675700Y-16384900D01*
X8755700Y-16344900D02*
G75*
G02*
X8675700Y-16344900I-40000J0D01*
G01*
X8675700Y-16344900D02*
G75*
G02*
X8755700Y-16344900I40000J0D01*
G01*
D11*
X9054572Y-16236384D02*
X9073620Y-16236384D01*
X9073620Y-16236384D02*
X9092667Y-16245908D01*
X9092667Y-16245908D02*
X9102191Y-16255431D01*
X9102191Y-16255431D02*
X9111715Y-16274479D01*
X9111715Y-16274479D02*
X9121239Y-16312574D01*
X9121239Y-16312574D02*
X9121239Y-16360193D01*
X9121239Y-16360193D02*
X9111715Y-16398288D01*
X9111715Y-16398288D02*
X9102191Y-16417336D01*
X9102191Y-16417336D02*
X9092667Y-16426860D01*
X9092667Y-16426860D02*
X9073620Y-16436384D01*
X9073620Y-16436384D02*
X9054572Y-16436384D01*
X9054572Y-16436384D02*
X9035524Y-16426860D01*
X9035524Y-16426860D02*
X9026001Y-16417336D01*
X9026001Y-16417336D02*
X9016477Y-16398288D01*
X9016477Y-16398288D02*
X9006953Y-16360193D01*
X9006953Y-16360193D02*
X9006953Y-16312574D01*
X9006953Y-16312574D02*
X9016477Y-16274479D01*
X9016477Y-16274479D02*
X9026001Y-16255431D01*
X9026001Y-16255431D02*
X9035524Y-16245908D01*
X9035524Y-16245908D02*
X9054572Y-16236384D01*
X9206953Y-16417336D02*
X9216477Y-16426860D01*
X9216477Y-16426860D02*
X9206953Y-16436384D01*
X9206953Y-16436384D02*
X9197429Y-16426860D01*
X9197429Y-16426860D02*
X9206953Y-16417336D01*
X9206953Y-16417336D02*
X9206953Y-16436384D01*
X9330763Y-16322098D02*
X9311715Y-16312574D01*
X9311715Y-16312574D02*
X9302191Y-16303050D01*
X9302191Y-16303050D02*
X9292667Y-16284003D01*
X9292667Y-16284003D02*
X9292667Y-16274479D01*
X9292667Y-16274479D02*
X9302191Y-16255431D01*
X9302191Y-16255431D02*
X9311715Y-16245908D01*
X9311715Y-16245908D02*
X9330763Y-16236384D01*
X9330763Y-16236384D02*
X9368858Y-16236384D01*
X9368858Y-16236384D02*
X9387905Y-16245908D01*
X9387905Y-16245908D02*
X9397429Y-16255431D01*
X9397429Y-16255431D02*
X9406953Y-16274479D01*
X9406953Y-16274479D02*
X9406953Y-16284003D01*
X9406953Y-16284003D02*
X9397429Y-16303050D01*
X9397429Y-16303050D02*
X9387905Y-16312574D01*
X9387905Y-16312574D02*
X9368858Y-16322098D01*
X9368858Y-16322098D02*
X9330763Y-16322098D01*
X9330763Y-16322098D02*
X9311715Y-16331622D01*
X9311715Y-16331622D02*
X9302191Y-16341146D01*
X9302191Y-16341146D02*
X9292667Y-16360193D01*
X9292667Y-16360193D02*
X9292667Y-16398288D01*
X9292667Y-16398288D02*
X9302191Y-16417336D01*
X9302191Y-16417336D02*
X9311715Y-16426860D01*
X9311715Y-16426860D02*
X9330763Y-16436384D01*
X9330763Y-16436384D02*
X9368858Y-16436384D01*
X9368858Y-16436384D02*
X9387905Y-16426860D01*
X9387905Y-16426860D02*
X9397429Y-16417336D01*
X9397429Y-16417336D02*
X9406953Y-16398288D01*
X9406953Y-16398288D02*
X9406953Y-16360193D01*
X9406953Y-16360193D02*
X9397429Y-16341146D01*
X9397429Y-16341146D02*
X9387905Y-16331622D01*
X9387905Y-16331622D02*
X9368858Y-16322098D01*
X9530763Y-16236384D02*
X9549810Y-16236384D01*
X9549810Y-16236384D02*
X9568858Y-16245908D01*
X9568858Y-16245908D02*
X9578382Y-16255431D01*
X9578382Y-16255431D02*
X9587905Y-16274479D01*
X9587905Y-16274479D02*
X9597429Y-16312574D01*
X9597429Y-16312574D02*
X9597429Y-16360193D01*
X9597429Y-16360193D02*
X9587905Y-16398288D01*
X9587905Y-16398288D02*
X9578382Y-16417336D01*
X9578382Y-16417336D02*
X9568858Y-16426860D01*
X9568858Y-16426860D02*
X9549810Y-16436384D01*
X9549810Y-16436384D02*
X9530763Y-16436384D01*
X9530763Y-16436384D02*
X9511715Y-16426860D01*
X9511715Y-16426860D02*
X9502191Y-16417336D01*
X9502191Y-16417336D02*
X9492667Y-16398288D01*
X9492667Y-16398288D02*
X9483144Y-16360193D01*
X9483144Y-16360193D02*
X9483144Y-16312574D01*
X9483144Y-16312574D02*
X9492667Y-16274479D01*
X9492667Y-16274479D02*
X9502191Y-16255431D01*
X9502191Y-16255431D02*
X9511715Y-16245908D01*
X9511715Y-16245908D02*
X9530763Y-16236384D01*
X9721239Y-16236384D02*
X9740286Y-16236384D01*
X9740286Y-16236384D02*
X9759334Y-16245908D01*
X9759334Y-16245908D02*
X9768858Y-16255431D01*
X9768858Y-16255431D02*
X9778382Y-16274479D01*
X9778382Y-16274479D02*
X9787905Y-16312574D01*
X9787905Y-16312574D02*
X9787905Y-16360193D01*
X9787905Y-16360193D02*
X9778382Y-16398288D01*
X9778382Y-16398288D02*
X9768858Y-16417336D01*
X9768858Y-16417336D02*
X9759334Y-16426860D01*
X9759334Y-16426860D02*
X9740286Y-16436384D01*
X9740286Y-16436384D02*
X9721239Y-16436384D01*
X9721239Y-16436384D02*
X9702191Y-16426860D01*
X9702191Y-16426860D02*
X9692667Y-16417336D01*
X9692667Y-16417336D02*
X9683144Y-16398288D01*
X9683144Y-16398288D02*
X9673620Y-16360193D01*
X9673620Y-16360193D02*
X9673620Y-16312574D01*
X9673620Y-16312574D02*
X9683144Y-16274479D01*
X9683144Y-16274479D02*
X9692667Y-16255431D01*
X9692667Y-16255431D02*
X9702191Y-16245908D01*
X9702191Y-16245908D02*
X9721239Y-16236384D01*
X9873620Y-16436384D02*
X9873620Y-16303050D01*
X9873620Y-16322098D02*
X9883144Y-16312574D01*
X9883144Y-16312574D02*
X9902191Y-16303050D01*
X9902191Y-16303050D02*
X9930763Y-16303050D01*
X9930763Y-16303050D02*
X9949810Y-16312574D01*
X9949810Y-16312574D02*
X9959334Y-16331622D01*
X9959334Y-16331622D02*
X9959334Y-16436384D01*
X9959334Y-16331622D02*
X9968858Y-16312574D01*
X9968858Y-16312574D02*
X9987905Y-16303050D01*
X9987905Y-16303050D02*
X10016477Y-16303050D01*
X10016477Y-16303050D02*
X10035525Y-16312574D01*
X10035525Y-16312574D02*
X10045048Y-16331622D01*
X10045048Y-16331622D02*
X10045048Y-16436384D01*
X10140286Y-16436384D02*
X10140286Y-16303050D01*
X10140286Y-16322098D02*
X10149810Y-16312574D01*
X10149810Y-16312574D02*
X10168858Y-16303050D01*
X10168858Y-16303050D02*
X10197429Y-16303050D01*
X10197429Y-16303050D02*
X10216477Y-16312574D01*
X10216477Y-16312574D02*
X10226001Y-16331622D01*
X10226001Y-16331622D02*
X10226001Y-16436384D01*
X10226001Y-16331622D02*
X10235525Y-16312574D01*
X10235525Y-16312574D02*
X10254572Y-16303050D01*
X10254572Y-16303050D02*
X10283144Y-16303050D01*
X10283144Y-16303050D02*
X10302191Y-16312574D01*
X10302191Y-16312574D02*
X10311715Y-16331622D01*
X10311715Y-16331622D02*
X10311715Y-16436384D01*
X10702191Y-16226860D02*
X10530763Y-16484003D01*
X10959334Y-16236384D02*
X10978382Y-16236384D01*
X10978382Y-16236384D02*
X10997429Y-16245908D01*
X10997429Y-16245908D02*
X11006953Y-16255431D01*
X11006953Y-16255431D02*
X11016477Y-16274479D01*
X11016477Y-16274479D02*
X11026001Y-16312574D01*
X11026001Y-16312574D02*
X11026001Y-16360193D01*
X11026001Y-16360193D02*
X11016477Y-16398288D01*
X11016477Y-16398288D02*
X11006953Y-16417336D01*
X11006953Y-16417336D02*
X10997429Y-16426860D01*
X10997429Y-16426860D02*
X10978382Y-16436384D01*
X10978382Y-16436384D02*
X10959334Y-16436384D01*
X10959334Y-16436384D02*
X10940287Y-16426860D01*
X10940287Y-16426860D02*
X10930763Y-16417336D01*
X10930763Y-16417336D02*
X10921239Y-16398288D01*
X10921239Y-16398288D02*
X10911715Y-16360193D01*
X10911715Y-16360193D02*
X10911715Y-16312574D01*
X10911715Y-16312574D02*
X10921239Y-16274479D01*
X10921239Y-16274479D02*
X10930763Y-16255431D01*
X10930763Y-16255431D02*
X10940287Y-16245908D01*
X10940287Y-16245908D02*
X10959334Y-16236384D01*
X11111715Y-16417336D02*
X11121239Y-16426860D01*
X11121239Y-16426860D02*
X11111715Y-16436384D01*
X11111715Y-16436384D02*
X11102191Y-16426860D01*
X11102191Y-16426860D02*
X11111715Y-16417336D01*
X11111715Y-16417336D02*
X11111715Y-16436384D01*
X11245048Y-16236384D02*
X11264096Y-16236384D01*
X11264096Y-16236384D02*
X11283144Y-16245908D01*
X11283144Y-16245908D02*
X11292667Y-16255431D01*
X11292667Y-16255431D02*
X11302191Y-16274479D01*
X11302191Y-16274479D02*
X11311715Y-16312574D01*
X11311715Y-16312574D02*
X11311715Y-16360193D01*
X11311715Y-16360193D02*
X11302191Y-16398288D01*
X11302191Y-16398288D02*
X11292667Y-16417336D01*
X11292667Y-16417336D02*
X11283144Y-16426860D01*
X11283144Y-16426860D02*
X11264096Y-16436384D01*
X11264096Y-16436384D02*
X11245048Y-16436384D01*
X11245048Y-16436384D02*
X11226001Y-16426860D01*
X11226001Y-16426860D02*
X11216477Y-16417336D01*
X11216477Y-16417336D02*
X11206953Y-16398288D01*
X11206953Y-16398288D02*
X11197429Y-16360193D01*
X11197429Y-16360193D02*
X11197429Y-16312574D01*
X11197429Y-16312574D02*
X11206953Y-16274479D01*
X11206953Y-16274479D02*
X11216477Y-16255431D01*
X11216477Y-16255431D02*
X11226001Y-16245908D01*
X11226001Y-16245908D02*
X11245048Y-16236384D01*
X11378382Y-16236384D02*
X11502191Y-16236384D01*
X11502191Y-16236384D02*
X11435525Y-16312574D01*
X11435525Y-16312574D02*
X11464096Y-16312574D01*
X11464096Y-16312574D02*
X11483144Y-16322098D01*
X11483144Y-16322098D02*
X11492667Y-16331622D01*
X11492667Y-16331622D02*
X11502191Y-16350669D01*
X11502191Y-16350669D02*
X11502191Y-16398288D01*
X11502191Y-16398288D02*
X11492667Y-16417336D01*
X11492667Y-16417336D02*
X11483144Y-16426860D01*
X11483144Y-16426860D02*
X11464096Y-16436384D01*
X11464096Y-16436384D02*
X11406953Y-16436384D01*
X11406953Y-16436384D02*
X11387906Y-16426860D01*
X11387906Y-16426860D02*
X11378382Y-16417336D01*
X11692667Y-16436384D02*
X11578382Y-16436384D01*
X11635525Y-16436384D02*
X11635525Y-16236384D01*
X11635525Y-16236384D02*
X11616477Y-16264955D01*
X11616477Y-16264955D02*
X11597429Y-16284003D01*
X11597429Y-16284003D02*
X11578382Y-16293527D01*
X11873620Y-16236384D02*
X11778382Y-16236384D01*
X11778382Y-16236384D02*
X11768858Y-16331622D01*
X11768858Y-16331622D02*
X11778382Y-16322098D01*
X11778382Y-16322098D02*
X11797429Y-16312574D01*
X11797429Y-16312574D02*
X11845048Y-16312574D01*
X11845048Y-16312574D02*
X11864096Y-16322098D01*
X11864096Y-16322098D02*
X11873620Y-16331622D01*
X11873620Y-16331622D02*
X11883144Y-16350669D01*
X11883144Y-16350669D02*
X11883144Y-16398288D01*
X11883144Y-16398288D02*
X11873620Y-16417336D01*
X11873620Y-16417336D02*
X11864096Y-16426860D01*
X11864096Y-16426860D02*
X11845048Y-16436384D01*
X11845048Y-16436384D02*
X11797429Y-16436384D01*
X11797429Y-16436384D02*
X11778382Y-16426860D01*
X11778382Y-16426860D02*
X11768858Y-16417336D01*
X11959334Y-16236384D02*
X11959334Y-16274479D01*
X12035525Y-16236384D02*
X12035525Y-16274479D01*
X12330763Y-16512574D02*
X12321239Y-16503050D01*
X12321239Y-16503050D02*
X12302191Y-16474479D01*
X12302191Y-16474479D02*
X12292668Y-16455431D01*
X12292668Y-16455431D02*
X12283144Y-16426860D01*
X12283144Y-16426860D02*
X12273620Y-16379241D01*
X12273620Y-16379241D02*
X12273620Y-16341146D01*
X12273620Y-16341146D02*
X12283144Y-16293527D01*
X12283144Y-16293527D02*
X12292668Y-16264955D01*
X12292668Y-16264955D02*
X12302191Y-16245908D01*
X12302191Y-16245908D02*
X12321239Y-16217336D01*
X12321239Y-16217336D02*
X12330763Y-16207812D01*
X12397429Y-16255431D02*
X12406953Y-16245908D01*
X12406953Y-16245908D02*
X12426001Y-16236384D01*
X12426001Y-16236384D02*
X12473620Y-16236384D01*
X12473620Y-16236384D02*
X12492668Y-16245908D01*
X12492668Y-16245908D02*
X12502191Y-16255431D01*
X12502191Y-16255431D02*
X12511715Y-16274479D01*
X12511715Y-16274479D02*
X12511715Y-16293527D01*
X12511715Y-16293527D02*
X12502191Y-16322098D01*
X12502191Y-16322098D02*
X12387906Y-16436384D01*
X12387906Y-16436384D02*
X12511715Y-16436384D01*
X12749810Y-16436384D02*
X12749810Y-16236384D01*
X12835525Y-16436384D02*
X12835525Y-16331622D01*
X12835525Y-16331622D02*
X12826001Y-16312574D01*
X12826001Y-16312574D02*
X12806953Y-16303050D01*
X12806953Y-16303050D02*
X12778382Y-16303050D01*
X12778382Y-16303050D02*
X12759334Y-16312574D01*
X12759334Y-16312574D02*
X12749810Y-16322098D01*
X12959334Y-16436384D02*
X12940287Y-16426860D01*
X12940287Y-16426860D02*
X12930763Y-16417336D01*
X12930763Y-16417336D02*
X12921239Y-16398288D01*
X12921239Y-16398288D02*
X12921239Y-16341146D01*
X12921239Y-16341146D02*
X12930763Y-16322098D01*
X12930763Y-16322098D02*
X12940287Y-16312574D01*
X12940287Y-16312574D02*
X12959334Y-16303050D01*
X12959334Y-16303050D02*
X12987906Y-16303050D01*
X12987906Y-16303050D02*
X13006953Y-16312574D01*
X13006953Y-16312574D02*
X13016477Y-16322098D01*
X13016477Y-16322098D02*
X13026001Y-16341146D01*
X13026001Y-16341146D02*
X13026001Y-16398288D01*
X13026001Y-16398288D02*
X13016477Y-16417336D01*
X13016477Y-16417336D02*
X13006953Y-16426860D01*
X13006953Y-16426860D02*
X12987906Y-16436384D01*
X12987906Y-16436384D02*
X12959334Y-16436384D01*
X13140287Y-16436384D02*
X13121239Y-16426860D01*
X13121239Y-16426860D02*
X13111715Y-16407812D01*
X13111715Y-16407812D02*
X13111715Y-16236384D01*
X13292668Y-16426860D02*
X13273620Y-16436384D01*
X13273620Y-16436384D02*
X13235525Y-16436384D01*
X13235525Y-16436384D02*
X13216477Y-16426860D01*
X13216477Y-16426860D02*
X13206953Y-16407812D01*
X13206953Y-16407812D02*
X13206953Y-16331622D01*
X13206953Y-16331622D02*
X13216477Y-16312574D01*
X13216477Y-16312574D02*
X13235525Y-16303050D01*
X13235525Y-16303050D02*
X13273620Y-16303050D01*
X13273620Y-16303050D02*
X13292668Y-16312574D01*
X13292668Y-16312574D02*
X13302191Y-16331622D01*
X13302191Y-16331622D02*
X13302191Y-16350669D01*
X13302191Y-16350669D02*
X13206953Y-16369717D01*
X13378382Y-16426860D02*
X13397430Y-16436384D01*
X13397430Y-16436384D02*
X13435525Y-16436384D01*
X13435525Y-16436384D02*
X13454572Y-16426860D01*
X13454572Y-16426860D02*
X13464096Y-16407812D01*
X13464096Y-16407812D02*
X13464096Y-16398288D01*
X13464096Y-16398288D02*
X13454572Y-16379241D01*
X13454572Y-16379241D02*
X13435525Y-16369717D01*
X13435525Y-16369717D02*
X13406953Y-16369717D01*
X13406953Y-16369717D02*
X13387906Y-16360193D01*
X13387906Y-16360193D02*
X13378382Y-16341146D01*
X13378382Y-16341146D02*
X13378382Y-16331622D01*
X13378382Y-16331622D02*
X13387906Y-16312574D01*
X13387906Y-16312574D02*
X13406953Y-16303050D01*
X13406953Y-16303050D02*
X13435525Y-16303050D01*
X13435525Y-16303050D02*
X13454572Y-16312574D01*
X13530763Y-16512574D02*
X13540287Y-16503050D01*
X13540287Y-16503050D02*
X13559334Y-16474479D01*
X13559334Y-16474479D02*
X13568858Y-16455431D01*
X13568858Y-16455431D02*
X13578382Y-16426860D01*
X13578382Y-16426860D02*
X13587906Y-16379241D01*
X13587906Y-16379241D02*
X13587906Y-16341146D01*
X13587906Y-16341146D02*
X13578382Y-16293527D01*
X13578382Y-16293527D02*
X13568858Y-16264955D01*
X13568858Y-16264955D02*
X13559334Y-16245908D01*
X13559334Y-16245908D02*
X13540287Y-16217336D01*
X13540287Y-16217336D02*
X13530763Y-16207812D01*
D12*
X8655700Y-16558900D02*
X8755700Y-16658900D01*
X8755700Y-16558900D02*
X8655700Y-16658900D01*
X8705700Y-16558900D02*
X8705700Y-16658900D01*
X8655700Y-16608900D02*
X8755700Y-16608900D01*
D11*
X9121239Y-16700384D02*
X9006953Y-16700384D01*
X9064096Y-16700384D02*
X9064096Y-16500384D01*
X9064096Y-16500384D02*
X9045048Y-16528955D01*
X9045048Y-16528955D02*
X9026001Y-16548003D01*
X9026001Y-16548003D02*
X9006953Y-16557527D01*
X9206953Y-16681336D02*
X9216477Y-16690860D01*
X9216477Y-16690860D02*
X9206953Y-16700384D01*
X9206953Y-16700384D02*
X9197429Y-16690860D01*
X9197429Y-16690860D02*
X9206953Y-16681336D01*
X9206953Y-16681336D02*
X9206953Y-16700384D01*
X9340286Y-16500384D02*
X9359334Y-16500384D01*
X9359334Y-16500384D02*
X9378382Y-16509908D01*
X9378382Y-16509908D02*
X9387905Y-16519431D01*
X9387905Y-16519431D02*
X9397429Y-16538479D01*
X9397429Y-16538479D02*
X9406953Y-16576574D01*
X9406953Y-16576574D02*
X9406953Y-16624193D01*
X9406953Y-16624193D02*
X9397429Y-16662288D01*
X9397429Y-16662288D02*
X9387905Y-16681336D01*
X9387905Y-16681336D02*
X9378382Y-16690860D01*
X9378382Y-16690860D02*
X9359334Y-16700384D01*
X9359334Y-16700384D02*
X9340286Y-16700384D01*
X9340286Y-16700384D02*
X9321239Y-16690860D01*
X9321239Y-16690860D02*
X9311715Y-16681336D01*
X9311715Y-16681336D02*
X9302191Y-16662288D01*
X9302191Y-16662288D02*
X9292667Y-16624193D01*
X9292667Y-16624193D02*
X9292667Y-16576574D01*
X9292667Y-16576574D02*
X9302191Y-16538479D01*
X9302191Y-16538479D02*
X9311715Y-16519431D01*
X9311715Y-16519431D02*
X9321239Y-16509908D01*
X9321239Y-16509908D02*
X9340286Y-16500384D01*
X9530763Y-16500384D02*
X9549810Y-16500384D01*
X9549810Y-16500384D02*
X9568858Y-16509908D01*
X9568858Y-16509908D02*
X9578382Y-16519431D01*
X9578382Y-16519431D02*
X9587905Y-16538479D01*
X9587905Y-16538479D02*
X9597429Y-16576574D01*
X9597429Y-16576574D02*
X9597429Y-16624193D01*
X9597429Y-16624193D02*
X9587905Y-16662288D01*
X9587905Y-16662288D02*
X9578382Y-16681336D01*
X9578382Y-16681336D02*
X9568858Y-16690860D01*
X9568858Y-16690860D02*
X9549810Y-16700384D01*
X9549810Y-16700384D02*
X9530763Y-16700384D01*
X9530763Y-16700384D02*
X9511715Y-16690860D01*
X9511715Y-16690860D02*
X9502191Y-16681336D01*
X9502191Y-16681336D02*
X9492667Y-16662288D01*
X9492667Y-16662288D02*
X9483144Y-16624193D01*
X9483144Y-16624193D02*
X9483144Y-16576574D01*
X9483144Y-16576574D02*
X9492667Y-16538479D01*
X9492667Y-16538479D02*
X9502191Y-16519431D01*
X9502191Y-16519431D02*
X9511715Y-16509908D01*
X9511715Y-16509908D02*
X9530763Y-16500384D01*
X9721239Y-16500384D02*
X9740286Y-16500384D01*
X9740286Y-16500384D02*
X9759334Y-16509908D01*
X9759334Y-16509908D02*
X9768858Y-16519431D01*
X9768858Y-16519431D02*
X9778382Y-16538479D01*
X9778382Y-16538479D02*
X9787905Y-16576574D01*
X9787905Y-16576574D02*
X9787905Y-16624193D01*
X9787905Y-16624193D02*
X9778382Y-16662288D01*
X9778382Y-16662288D02*
X9768858Y-16681336D01*
X9768858Y-16681336D02*
X9759334Y-16690860D01*
X9759334Y-16690860D02*
X9740286Y-16700384D01*
X9740286Y-16700384D02*
X9721239Y-16700384D01*
X9721239Y-16700384D02*
X9702191Y-16690860D01*
X9702191Y-16690860D02*
X9692667Y-16681336D01*
X9692667Y-16681336D02*
X9683144Y-16662288D01*
X9683144Y-16662288D02*
X9673620Y-16624193D01*
X9673620Y-16624193D02*
X9673620Y-16576574D01*
X9673620Y-16576574D02*
X9683144Y-16538479D01*
X9683144Y-16538479D02*
X9692667Y-16519431D01*
X9692667Y-16519431D02*
X9702191Y-16509908D01*
X9702191Y-16509908D02*
X9721239Y-16500384D01*
X9873620Y-16700384D02*
X9873620Y-16567050D01*
X9873620Y-16586098D02*
X9883144Y-16576574D01*
X9883144Y-16576574D02*
X9902191Y-16567050D01*
X9902191Y-16567050D02*
X9930763Y-16567050D01*
X9930763Y-16567050D02*
X9949810Y-16576574D01*
X9949810Y-16576574D02*
X9959334Y-16595622D01*
X9959334Y-16595622D02*
X9959334Y-16700384D01*
X9959334Y-16595622D02*
X9968858Y-16576574D01*
X9968858Y-16576574D02*
X9987905Y-16567050D01*
X9987905Y-16567050D02*
X10016477Y-16567050D01*
X10016477Y-16567050D02*
X10035525Y-16576574D01*
X10035525Y-16576574D02*
X10045048Y-16595622D01*
X10045048Y-16595622D02*
X10045048Y-16700384D01*
X10140286Y-16700384D02*
X10140286Y-16567050D01*
X10140286Y-16586098D02*
X10149810Y-16576574D01*
X10149810Y-16576574D02*
X10168858Y-16567050D01*
X10168858Y-16567050D02*
X10197429Y-16567050D01*
X10197429Y-16567050D02*
X10216477Y-16576574D01*
X10216477Y-16576574D02*
X10226001Y-16595622D01*
X10226001Y-16595622D02*
X10226001Y-16700384D01*
X10226001Y-16595622D02*
X10235525Y-16576574D01*
X10235525Y-16576574D02*
X10254572Y-16567050D01*
X10254572Y-16567050D02*
X10283144Y-16567050D01*
X10283144Y-16567050D02*
X10302191Y-16576574D01*
X10302191Y-16576574D02*
X10311715Y-16595622D01*
X10311715Y-16595622D02*
X10311715Y-16700384D01*
X10702191Y-16490860D02*
X10530763Y-16748003D01*
X10959334Y-16500384D02*
X10978382Y-16500384D01*
X10978382Y-16500384D02*
X10997429Y-16509908D01*
X10997429Y-16509908D02*
X11006953Y-16519431D01*
X11006953Y-16519431D02*
X11016477Y-16538479D01*
X11016477Y-16538479D02*
X11026001Y-16576574D01*
X11026001Y-16576574D02*
X11026001Y-16624193D01*
X11026001Y-16624193D02*
X11016477Y-16662288D01*
X11016477Y-16662288D02*
X11006953Y-16681336D01*
X11006953Y-16681336D02*
X10997429Y-16690860D01*
X10997429Y-16690860D02*
X10978382Y-16700384D01*
X10978382Y-16700384D02*
X10959334Y-16700384D01*
X10959334Y-16700384D02*
X10940287Y-16690860D01*
X10940287Y-16690860D02*
X10930763Y-16681336D01*
X10930763Y-16681336D02*
X10921239Y-16662288D01*
X10921239Y-16662288D02*
X10911715Y-16624193D01*
X10911715Y-16624193D02*
X10911715Y-16576574D01*
X10911715Y-16576574D02*
X10921239Y-16538479D01*
X10921239Y-16538479D02*
X10930763Y-16519431D01*
X10930763Y-16519431D02*
X10940287Y-16509908D01*
X10940287Y-16509908D02*
X10959334Y-16500384D01*
X11111715Y-16681336D02*
X11121239Y-16690860D01*
X11121239Y-16690860D02*
X11111715Y-16700384D01*
X11111715Y-16700384D02*
X11102191Y-16690860D01*
X11102191Y-16690860D02*
X11111715Y-16681336D01*
X11111715Y-16681336D02*
X11111715Y-16700384D01*
X11245048Y-16500384D02*
X11264096Y-16500384D01*
X11264096Y-16500384D02*
X11283144Y-16509908D01*
X11283144Y-16509908D02*
X11292667Y-16519431D01*
X11292667Y-16519431D02*
X11302191Y-16538479D01*
X11302191Y-16538479D02*
X11311715Y-16576574D01*
X11311715Y-16576574D02*
X11311715Y-16624193D01*
X11311715Y-16624193D02*
X11302191Y-16662288D01*
X11302191Y-16662288D02*
X11292667Y-16681336D01*
X11292667Y-16681336D02*
X11283144Y-16690860D01*
X11283144Y-16690860D02*
X11264096Y-16700384D01*
X11264096Y-16700384D02*
X11245048Y-16700384D01*
X11245048Y-16700384D02*
X11226001Y-16690860D01*
X11226001Y-16690860D02*
X11216477Y-16681336D01*
X11216477Y-16681336D02*
X11206953Y-16662288D01*
X11206953Y-16662288D02*
X11197429Y-16624193D01*
X11197429Y-16624193D02*
X11197429Y-16576574D01*
X11197429Y-16576574D02*
X11206953Y-16538479D01*
X11206953Y-16538479D02*
X11216477Y-16519431D01*
X11216477Y-16519431D02*
X11226001Y-16509908D01*
X11226001Y-16509908D02*
X11245048Y-16500384D01*
X11378382Y-16500384D02*
X11502191Y-16500384D01*
X11502191Y-16500384D02*
X11435525Y-16576574D01*
X11435525Y-16576574D02*
X11464096Y-16576574D01*
X11464096Y-16576574D02*
X11483144Y-16586098D01*
X11483144Y-16586098D02*
X11492667Y-16595622D01*
X11492667Y-16595622D02*
X11502191Y-16614669D01*
X11502191Y-16614669D02*
X11502191Y-16662288D01*
X11502191Y-16662288D02*
X11492667Y-16681336D01*
X11492667Y-16681336D02*
X11483144Y-16690860D01*
X11483144Y-16690860D02*
X11464096Y-16700384D01*
X11464096Y-16700384D02*
X11406953Y-16700384D01*
X11406953Y-16700384D02*
X11387906Y-16690860D01*
X11387906Y-16690860D02*
X11378382Y-16681336D01*
X11597429Y-16700384D02*
X11635525Y-16700384D01*
X11635525Y-16700384D02*
X11654572Y-16690860D01*
X11654572Y-16690860D02*
X11664096Y-16681336D01*
X11664096Y-16681336D02*
X11683144Y-16652765D01*
X11683144Y-16652765D02*
X11692667Y-16614669D01*
X11692667Y-16614669D02*
X11692667Y-16538479D01*
X11692667Y-16538479D02*
X11683144Y-16519431D01*
X11683144Y-16519431D02*
X11673620Y-16509908D01*
X11673620Y-16509908D02*
X11654572Y-16500384D01*
X11654572Y-16500384D02*
X11616477Y-16500384D01*
X11616477Y-16500384D02*
X11597429Y-16509908D01*
X11597429Y-16509908D02*
X11587906Y-16519431D01*
X11587906Y-16519431D02*
X11578382Y-16538479D01*
X11578382Y-16538479D02*
X11578382Y-16586098D01*
X11578382Y-16586098D02*
X11587906Y-16605146D01*
X11587906Y-16605146D02*
X11597429Y-16614669D01*
X11597429Y-16614669D02*
X11616477Y-16624193D01*
X11616477Y-16624193D02*
X11654572Y-16624193D01*
X11654572Y-16624193D02*
X11673620Y-16614669D01*
X11673620Y-16614669D02*
X11683144Y-16605146D01*
X11683144Y-16605146D02*
X11692667Y-16586098D01*
X11864096Y-16567050D02*
X11864096Y-16700384D01*
X11816477Y-16490860D02*
X11768858Y-16633717D01*
X11768858Y-16633717D02*
X11892667Y-16633717D01*
X11959334Y-16500384D02*
X11959334Y-16538479D01*
X12035525Y-16500384D02*
X12035525Y-16538479D01*
X12330763Y-16776574D02*
X12321239Y-16767050D01*
X12321239Y-16767050D02*
X12302191Y-16738479D01*
X12302191Y-16738479D02*
X12292668Y-16719431D01*
X12292668Y-16719431D02*
X12283144Y-16690860D01*
X12283144Y-16690860D02*
X12273620Y-16643241D01*
X12273620Y-16643241D02*
X12273620Y-16605146D01*
X12273620Y-16605146D02*
X12283144Y-16557527D01*
X12283144Y-16557527D02*
X12292668Y-16528955D01*
X12292668Y-16528955D02*
X12302191Y-16509908D01*
X12302191Y-16509908D02*
X12321239Y-16481336D01*
X12321239Y-16481336D02*
X12330763Y-16471812D01*
X12397429Y-16519431D02*
X12406953Y-16509908D01*
X12406953Y-16509908D02*
X12426001Y-16500384D01*
X12426001Y-16500384D02*
X12473620Y-16500384D01*
X12473620Y-16500384D02*
X12492668Y-16509908D01*
X12492668Y-16509908D02*
X12502191Y-16519431D01*
X12502191Y-16519431D02*
X12511715Y-16538479D01*
X12511715Y-16538479D02*
X12511715Y-16557527D01*
X12511715Y-16557527D02*
X12502191Y-16586098D01*
X12502191Y-16586098D02*
X12387906Y-16700384D01*
X12387906Y-16700384D02*
X12511715Y-16700384D01*
X12749810Y-16700384D02*
X12749810Y-16500384D01*
X12835525Y-16700384D02*
X12835525Y-16595622D01*
X12835525Y-16595622D02*
X12826001Y-16576574D01*
X12826001Y-16576574D02*
X12806953Y-16567050D01*
X12806953Y-16567050D02*
X12778382Y-16567050D01*
X12778382Y-16567050D02*
X12759334Y-16576574D01*
X12759334Y-16576574D02*
X12749810Y-16586098D01*
X12959334Y-16700384D02*
X12940287Y-16690860D01*
X12940287Y-16690860D02*
X12930763Y-16681336D01*
X12930763Y-16681336D02*
X12921239Y-16662288D01*
X12921239Y-16662288D02*
X12921239Y-16605146D01*
X12921239Y-16605146D02*
X12930763Y-16586098D01*
X12930763Y-16586098D02*
X12940287Y-16576574D01*
X12940287Y-16576574D02*
X12959334Y-16567050D01*
X12959334Y-16567050D02*
X12987906Y-16567050D01*
X12987906Y-16567050D02*
X13006953Y-16576574D01*
X13006953Y-16576574D02*
X13016477Y-16586098D01*
X13016477Y-16586098D02*
X13026001Y-16605146D01*
X13026001Y-16605146D02*
X13026001Y-16662288D01*
X13026001Y-16662288D02*
X13016477Y-16681336D01*
X13016477Y-16681336D02*
X13006953Y-16690860D01*
X13006953Y-16690860D02*
X12987906Y-16700384D01*
X12987906Y-16700384D02*
X12959334Y-16700384D01*
X13140287Y-16700384D02*
X13121239Y-16690860D01*
X13121239Y-16690860D02*
X13111715Y-16671812D01*
X13111715Y-16671812D02*
X13111715Y-16500384D01*
X13292668Y-16690860D02*
X13273620Y-16700384D01*
X13273620Y-16700384D02*
X13235525Y-16700384D01*
X13235525Y-16700384D02*
X13216477Y-16690860D01*
X13216477Y-16690860D02*
X13206953Y-16671812D01*
X13206953Y-16671812D02*
X13206953Y-16595622D01*
X13206953Y-16595622D02*
X13216477Y-16576574D01*
X13216477Y-16576574D02*
X13235525Y-16567050D01*
X13235525Y-16567050D02*
X13273620Y-16567050D01*
X13273620Y-16567050D02*
X13292668Y-16576574D01*
X13292668Y-16576574D02*
X13302191Y-16595622D01*
X13302191Y-16595622D02*
X13302191Y-16614669D01*
X13302191Y-16614669D02*
X13206953Y-16633717D01*
X13378382Y-16690860D02*
X13397430Y-16700384D01*
X13397430Y-16700384D02*
X13435525Y-16700384D01*
X13435525Y-16700384D02*
X13454572Y-16690860D01*
X13454572Y-16690860D02*
X13464096Y-16671812D01*
X13464096Y-16671812D02*
X13464096Y-16662288D01*
X13464096Y-16662288D02*
X13454572Y-16643241D01*
X13454572Y-16643241D02*
X13435525Y-16633717D01*
X13435525Y-16633717D02*
X13406953Y-16633717D01*
X13406953Y-16633717D02*
X13387906Y-16624193D01*
X13387906Y-16624193D02*
X13378382Y-16605146D01*
X13378382Y-16605146D02*
X13378382Y-16595622D01*
X13378382Y-16595622D02*
X13387906Y-16576574D01*
X13387906Y-16576574D02*
X13406953Y-16567050D01*
X13406953Y-16567050D02*
X13435525Y-16567050D01*
X13435525Y-16567050D02*
X13454572Y-16576574D01*
X13530763Y-16776574D02*
X13540287Y-16767050D01*
X13540287Y-16767050D02*
X13559334Y-16738479D01*
X13559334Y-16738479D02*
X13568858Y-16719431D01*
X13568858Y-16719431D02*
X13578382Y-16690860D01*
X13578382Y-16690860D02*
X13587906Y-16643241D01*
X13587906Y-16643241D02*
X13587906Y-16605146D01*
X13587906Y-16605146D02*
X13578382Y-16557527D01*
X13578382Y-16557527D02*
X13568858Y-16528955D01*
X13568858Y-16528955D02*
X13559334Y-16509908D01*
X13559334Y-16509908D02*
X13540287Y-16481336D01*
X13540287Y-16481336D02*
X13530763Y-16471812D01*
D13*
X8653700Y-16821900D02*
X8755700Y-16923900D01*
X8755700Y-16821900D02*
X8653700Y-16923900D01*
X8740763Y-16908963D02*
X8740763Y-16836837D01*
X8668637Y-16836837D01*
X8668637Y-16908963D01*
X8740763Y-16908963D01*
D11*
X9121239Y-16964384D02*
X9006953Y-16964384D01*
X9064096Y-16964384D02*
X9064096Y-16764384D01*
X9064096Y-16764384D02*
X9045048Y-16792955D01*
X9045048Y-16792955D02*
X9026001Y-16812003D01*
X9026001Y-16812003D02*
X9006953Y-16821527D01*
X9206953Y-16945336D02*
X9216477Y-16954860D01*
X9216477Y-16954860D02*
X9206953Y-16964384D01*
X9206953Y-16964384D02*
X9197429Y-16954860D01*
X9197429Y-16954860D02*
X9206953Y-16945336D01*
X9206953Y-16945336D02*
X9206953Y-16964384D01*
X9340286Y-16764384D02*
X9359334Y-16764384D01*
X9359334Y-16764384D02*
X9378382Y-16773908D01*
X9378382Y-16773908D02*
X9387905Y-16783431D01*
X9387905Y-16783431D02*
X9397429Y-16802479D01*
X9397429Y-16802479D02*
X9406953Y-16840574D01*
X9406953Y-16840574D02*
X9406953Y-16888193D01*
X9406953Y-16888193D02*
X9397429Y-16926289D01*
X9397429Y-16926289D02*
X9387905Y-16945336D01*
X9387905Y-16945336D02*
X9378382Y-16954860D01*
X9378382Y-16954860D02*
X9359334Y-16964384D01*
X9359334Y-16964384D02*
X9340286Y-16964384D01*
X9340286Y-16964384D02*
X9321239Y-16954860D01*
X9321239Y-16954860D02*
X9311715Y-16945336D01*
X9311715Y-16945336D02*
X9302191Y-16926289D01*
X9302191Y-16926289D02*
X9292667Y-16888193D01*
X9292667Y-16888193D02*
X9292667Y-16840574D01*
X9292667Y-16840574D02*
X9302191Y-16802479D01*
X9302191Y-16802479D02*
X9311715Y-16783431D01*
X9311715Y-16783431D02*
X9321239Y-16773908D01*
X9321239Y-16773908D02*
X9340286Y-16764384D01*
X9483144Y-16783431D02*
X9492667Y-16773908D01*
X9492667Y-16773908D02*
X9511715Y-16764384D01*
X9511715Y-16764384D02*
X9559334Y-16764384D01*
X9559334Y-16764384D02*
X9578382Y-16773908D01*
X9578382Y-16773908D02*
X9587905Y-16783431D01*
X9587905Y-16783431D02*
X9597429Y-16802479D01*
X9597429Y-16802479D02*
X9597429Y-16821527D01*
X9597429Y-16821527D02*
X9587905Y-16850098D01*
X9587905Y-16850098D02*
X9473620Y-16964384D01*
X9473620Y-16964384D02*
X9597429Y-16964384D01*
X9721239Y-16764384D02*
X9740286Y-16764384D01*
X9740286Y-16764384D02*
X9759334Y-16773908D01*
X9759334Y-16773908D02*
X9768858Y-16783431D01*
X9768858Y-16783431D02*
X9778382Y-16802479D01*
X9778382Y-16802479D02*
X9787905Y-16840574D01*
X9787905Y-16840574D02*
X9787905Y-16888193D01*
X9787905Y-16888193D02*
X9778382Y-16926289D01*
X9778382Y-16926289D02*
X9768858Y-16945336D01*
X9768858Y-16945336D02*
X9759334Y-16954860D01*
X9759334Y-16954860D02*
X9740286Y-16964384D01*
X9740286Y-16964384D02*
X9721239Y-16964384D01*
X9721239Y-16964384D02*
X9702191Y-16954860D01*
X9702191Y-16954860D02*
X9692667Y-16945336D01*
X9692667Y-16945336D02*
X9683144Y-16926289D01*
X9683144Y-16926289D02*
X9673620Y-16888193D01*
X9673620Y-16888193D02*
X9673620Y-16840574D01*
X9673620Y-16840574D02*
X9683144Y-16802479D01*
X9683144Y-16802479D02*
X9692667Y-16783431D01*
X9692667Y-16783431D02*
X9702191Y-16773908D01*
X9702191Y-16773908D02*
X9721239Y-16764384D01*
X9873620Y-16964384D02*
X9873620Y-16831050D01*
X9873620Y-16850098D02*
X9883144Y-16840574D01*
X9883144Y-16840574D02*
X9902191Y-16831050D01*
X9902191Y-16831050D02*
X9930763Y-16831050D01*
X9930763Y-16831050D02*
X9949810Y-16840574D01*
X9949810Y-16840574D02*
X9959334Y-16859622D01*
X9959334Y-16859622D02*
X9959334Y-16964384D01*
X9959334Y-16859622D02*
X9968858Y-16840574D01*
X9968858Y-16840574D02*
X9987905Y-16831050D01*
X9987905Y-16831050D02*
X10016477Y-16831050D01*
X10016477Y-16831050D02*
X10035525Y-16840574D01*
X10035525Y-16840574D02*
X10045048Y-16859622D01*
X10045048Y-16859622D02*
X10045048Y-16964384D01*
X10140286Y-16964384D02*
X10140286Y-16831050D01*
X10140286Y-16850098D02*
X10149810Y-16840574D01*
X10149810Y-16840574D02*
X10168858Y-16831050D01*
X10168858Y-16831050D02*
X10197429Y-16831050D01*
X10197429Y-16831050D02*
X10216477Y-16840574D01*
X10216477Y-16840574D02*
X10226001Y-16859622D01*
X10226001Y-16859622D02*
X10226001Y-16964384D01*
X10226001Y-16859622D02*
X10235525Y-16840574D01*
X10235525Y-16840574D02*
X10254572Y-16831050D01*
X10254572Y-16831050D02*
X10283144Y-16831050D01*
X10283144Y-16831050D02*
X10302191Y-16840574D01*
X10302191Y-16840574D02*
X10311715Y-16859622D01*
X10311715Y-16859622D02*
X10311715Y-16964384D01*
X10702191Y-16754860D02*
X10530763Y-17012003D01*
X10959334Y-16764384D02*
X10978382Y-16764384D01*
X10978382Y-16764384D02*
X10997429Y-16773908D01*
X10997429Y-16773908D02*
X11006953Y-16783431D01*
X11006953Y-16783431D02*
X11016477Y-16802479D01*
X11016477Y-16802479D02*
X11026001Y-16840574D01*
X11026001Y-16840574D02*
X11026001Y-16888193D01*
X11026001Y-16888193D02*
X11016477Y-16926289D01*
X11016477Y-16926289D02*
X11006953Y-16945336D01*
X11006953Y-16945336D02*
X10997429Y-16954860D01*
X10997429Y-16954860D02*
X10978382Y-16964384D01*
X10978382Y-16964384D02*
X10959334Y-16964384D01*
X10959334Y-16964384D02*
X10940287Y-16954860D01*
X10940287Y-16954860D02*
X10930763Y-16945336D01*
X10930763Y-16945336D02*
X10921239Y-16926289D01*
X10921239Y-16926289D02*
X10911715Y-16888193D01*
X10911715Y-16888193D02*
X10911715Y-16840574D01*
X10911715Y-16840574D02*
X10921239Y-16802479D01*
X10921239Y-16802479D02*
X10930763Y-16783431D01*
X10930763Y-16783431D02*
X10940287Y-16773908D01*
X10940287Y-16773908D02*
X10959334Y-16764384D01*
X11111715Y-16945336D02*
X11121239Y-16954860D01*
X11121239Y-16954860D02*
X11111715Y-16964384D01*
X11111715Y-16964384D02*
X11102191Y-16954860D01*
X11102191Y-16954860D02*
X11111715Y-16945336D01*
X11111715Y-16945336D02*
X11111715Y-16964384D01*
X11245048Y-16764384D02*
X11264096Y-16764384D01*
X11264096Y-16764384D02*
X11283144Y-16773908D01*
X11283144Y-16773908D02*
X11292667Y-16783431D01*
X11292667Y-16783431D02*
X11302191Y-16802479D01*
X11302191Y-16802479D02*
X11311715Y-16840574D01*
X11311715Y-16840574D02*
X11311715Y-16888193D01*
X11311715Y-16888193D02*
X11302191Y-16926289D01*
X11302191Y-16926289D02*
X11292667Y-16945336D01*
X11292667Y-16945336D02*
X11283144Y-16954860D01*
X11283144Y-16954860D02*
X11264096Y-16964384D01*
X11264096Y-16964384D02*
X11245048Y-16964384D01*
X11245048Y-16964384D02*
X11226001Y-16954860D01*
X11226001Y-16954860D02*
X11216477Y-16945336D01*
X11216477Y-16945336D02*
X11206953Y-16926289D01*
X11206953Y-16926289D02*
X11197429Y-16888193D01*
X11197429Y-16888193D02*
X11197429Y-16840574D01*
X11197429Y-16840574D02*
X11206953Y-16802479D01*
X11206953Y-16802479D02*
X11216477Y-16783431D01*
X11216477Y-16783431D02*
X11226001Y-16773908D01*
X11226001Y-16773908D02*
X11245048Y-16764384D01*
X11483144Y-16831050D02*
X11483144Y-16964384D01*
X11435525Y-16754860D02*
X11387906Y-16897717D01*
X11387906Y-16897717D02*
X11511715Y-16897717D01*
X11626001Y-16764384D02*
X11645048Y-16764384D01*
X11645048Y-16764384D02*
X11664096Y-16773908D01*
X11664096Y-16773908D02*
X11673620Y-16783431D01*
X11673620Y-16783431D02*
X11683144Y-16802479D01*
X11683144Y-16802479D02*
X11692667Y-16840574D01*
X11692667Y-16840574D02*
X11692667Y-16888193D01*
X11692667Y-16888193D02*
X11683144Y-16926289D01*
X11683144Y-16926289D02*
X11673620Y-16945336D01*
X11673620Y-16945336D02*
X11664096Y-16954860D01*
X11664096Y-16954860D02*
X11645048Y-16964384D01*
X11645048Y-16964384D02*
X11626001Y-16964384D01*
X11626001Y-16964384D02*
X11606953Y-16954860D01*
X11606953Y-16954860D02*
X11597429Y-16945336D01*
X11597429Y-16945336D02*
X11587906Y-16926289D01*
X11587906Y-16926289D02*
X11578382Y-16888193D01*
X11578382Y-16888193D02*
X11578382Y-16840574D01*
X11578382Y-16840574D02*
X11587906Y-16802479D01*
X11587906Y-16802479D02*
X11597429Y-16783431D01*
X11597429Y-16783431D02*
X11606953Y-16773908D01*
X11606953Y-16773908D02*
X11626001Y-16764384D01*
X11768858Y-16783431D02*
X11778382Y-16773908D01*
X11778382Y-16773908D02*
X11797429Y-16764384D01*
X11797429Y-16764384D02*
X11845048Y-16764384D01*
X11845048Y-16764384D02*
X11864096Y-16773908D01*
X11864096Y-16773908D02*
X11873620Y-16783431D01*
X11873620Y-16783431D02*
X11883144Y-16802479D01*
X11883144Y-16802479D02*
X11883144Y-16821527D01*
X11883144Y-16821527D02*
X11873620Y-16850098D01*
X11873620Y-16850098D02*
X11759334Y-16964384D01*
X11759334Y-16964384D02*
X11883144Y-16964384D01*
X11959334Y-16764384D02*
X11959334Y-16802479D01*
X12035525Y-16764384D02*
X12035525Y-16802479D01*
X12330763Y-17040574D02*
X12321239Y-17031050D01*
X12321239Y-17031050D02*
X12302191Y-17002479D01*
X12302191Y-17002479D02*
X12292668Y-16983431D01*
X12292668Y-16983431D02*
X12283144Y-16954860D01*
X12283144Y-16954860D02*
X12273620Y-16907241D01*
X12273620Y-16907241D02*
X12273620Y-16869146D01*
X12273620Y-16869146D02*
X12283144Y-16821527D01*
X12283144Y-16821527D02*
X12292668Y-16792955D01*
X12292668Y-16792955D02*
X12302191Y-16773908D01*
X12302191Y-16773908D02*
X12321239Y-16745336D01*
X12321239Y-16745336D02*
X12330763Y-16735812D01*
X12397429Y-16783431D02*
X12406953Y-16773908D01*
X12406953Y-16773908D02*
X12426001Y-16764384D01*
X12426001Y-16764384D02*
X12473620Y-16764384D01*
X12473620Y-16764384D02*
X12492668Y-16773908D01*
X12492668Y-16773908D02*
X12502191Y-16783431D01*
X12502191Y-16783431D02*
X12511715Y-16802479D01*
X12511715Y-16802479D02*
X12511715Y-16821527D01*
X12511715Y-16821527D02*
X12502191Y-16850098D01*
X12502191Y-16850098D02*
X12387906Y-16964384D01*
X12387906Y-16964384D02*
X12511715Y-16964384D01*
X12683144Y-16831050D02*
X12683144Y-16964384D01*
X12635525Y-16754860D02*
X12587906Y-16897717D01*
X12587906Y-16897717D02*
X12711715Y-16897717D01*
X12940287Y-16964384D02*
X12940287Y-16764384D01*
X13026001Y-16964384D02*
X13026001Y-16859622D01*
X13026001Y-16859622D02*
X13016477Y-16840574D01*
X13016477Y-16840574D02*
X12997430Y-16831050D01*
X12997430Y-16831050D02*
X12968858Y-16831050D01*
X12968858Y-16831050D02*
X12949810Y-16840574D01*
X12949810Y-16840574D02*
X12940287Y-16850098D01*
X13149810Y-16964384D02*
X13130763Y-16954860D01*
X13130763Y-16954860D02*
X13121239Y-16945336D01*
X13121239Y-16945336D02*
X13111715Y-16926289D01*
X13111715Y-16926289D02*
X13111715Y-16869146D01*
X13111715Y-16869146D02*
X13121239Y-16850098D01*
X13121239Y-16850098D02*
X13130763Y-16840574D01*
X13130763Y-16840574D02*
X13149810Y-16831050D01*
X13149810Y-16831050D02*
X13178382Y-16831050D01*
X13178382Y-16831050D02*
X13197430Y-16840574D01*
X13197430Y-16840574D02*
X13206953Y-16850098D01*
X13206953Y-16850098D02*
X13216477Y-16869146D01*
X13216477Y-16869146D02*
X13216477Y-16926289D01*
X13216477Y-16926289D02*
X13206953Y-16945336D01*
X13206953Y-16945336D02*
X13197430Y-16954860D01*
X13197430Y-16954860D02*
X13178382Y-16964384D01*
X13178382Y-16964384D02*
X13149810Y-16964384D01*
X13330763Y-16964384D02*
X13311715Y-16954860D01*
X13311715Y-16954860D02*
X13302191Y-16935812D01*
X13302191Y-16935812D02*
X13302191Y-16764384D01*
X13483144Y-16954860D02*
X13464096Y-16964384D01*
X13464096Y-16964384D02*
X13426001Y-16964384D01*
X13426001Y-16964384D02*
X13406953Y-16954860D01*
X13406953Y-16954860D02*
X13397430Y-16935812D01*
X13397430Y-16935812D02*
X13397430Y-16859622D01*
X13397430Y-16859622D02*
X13406953Y-16840574D01*
X13406953Y-16840574D02*
X13426001Y-16831050D01*
X13426001Y-16831050D02*
X13464096Y-16831050D01*
X13464096Y-16831050D02*
X13483144Y-16840574D01*
X13483144Y-16840574D02*
X13492668Y-16859622D01*
X13492668Y-16859622D02*
X13492668Y-16878670D01*
X13492668Y-16878670D02*
X13397430Y-16897717D01*
X13568858Y-16954860D02*
X13587906Y-16964384D01*
X13587906Y-16964384D02*
X13626001Y-16964384D01*
X13626001Y-16964384D02*
X13645049Y-16954860D01*
X13645049Y-16954860D02*
X13654572Y-16935812D01*
X13654572Y-16935812D02*
X13654572Y-16926289D01*
X13654572Y-16926289D02*
X13645049Y-16907241D01*
X13645049Y-16907241D02*
X13626001Y-16897717D01*
X13626001Y-16897717D02*
X13597430Y-16897717D01*
X13597430Y-16897717D02*
X13578382Y-16888193D01*
X13578382Y-16888193D02*
X13568858Y-16869146D01*
X13568858Y-16869146D02*
X13568858Y-16859622D01*
X13568858Y-16859622D02*
X13578382Y-16840574D01*
X13578382Y-16840574D02*
X13597430Y-16831050D01*
X13597430Y-16831050D02*
X13626001Y-16831050D01*
X13626001Y-16831050D02*
X13645049Y-16840574D01*
X13721239Y-17040574D02*
X13730763Y-17031050D01*
X13730763Y-17031050D02*
X13749811Y-17002479D01*
X13749811Y-17002479D02*
X13759334Y-16983431D01*
X13759334Y-16983431D02*
X13768858Y-16954860D01*
X13768858Y-16954860D02*
X13778382Y-16907241D01*
X13778382Y-16907241D02*
X13778382Y-16869146D01*
X13778382Y-16869146D02*
X13768858Y-16821527D01*
X13768858Y-16821527D02*
X13759334Y-16792955D01*
X13759334Y-16792955D02*
X13749811Y-16773908D01*
X13749811Y-16773908D02*
X13730763Y-16745336D01*
X13730763Y-16745336D02*
X13721239Y-16735812D01*
M02*
