%TF.GenerationSoftware,KiCad,Pcbnew,8.0.9-8.0.9-0~ubuntu22.04.1*%
%TF.CreationDate,2025-12-05T16:43:01+01:00*%
%TF.ProjectId,hat-servomoteurs,6861742d-7365-4727-966f-6d6f74657572,rev?*%
%TF.SameCoordinates,Original*%
%TF.FileFunction,Copper,L1,Top*%
%TF.FilePolarity,Positive*%
%FSLAX46Y46*%
G04 Gerber Fmt 4.6, Leading zero omitted, Abs format (unit mm)*
G04 Created by KiCad (PCBNEW 8.0.9-8.0.9-0~ubuntu22.04.1) date 2025-12-05 16:43:01*
%MOMM*%
%LPD*%
G01*
G04 APERTURE LIST*
G04 Aperture macros list*
%AMRoundRect*
0 Rectangle with rounded corners*
0 $1 Rounding radius*
0 $2 $3 $4 $5 $6 $7 $8 $9 X,Y pos of 4 corners*
0 Add a 4 corners polygon primitive as box body*
4,1,4,$2,$3,$4,$5,$6,$7,$8,$9,$2,$3,0*
0 Add four circle primitives for the rounded corners*
1,1,$1+$1,$2,$3*
1,1,$1+$1,$4,$5*
1,1,$1+$1,$6,$7*
1,1,$1+$1,$8,$9*
0 Add four rect primitives between the rounded corners*
20,1,$1+$1,$2,$3,$4,$5,0*
20,1,$1+$1,$4,$5,$6,$7,0*
20,1,$1+$1,$6,$7,$8,$9,0*
20,1,$1+$1,$8,$9,$2,$3,0*%
G04 Aperture macros list end*
%TA.AperFunction,ComponentPad*%
%ADD10C,1.600000*%
%TD*%
%TA.AperFunction,ComponentPad*%
%ADD11O,1.600000X1.600000*%
%TD*%
%TA.AperFunction,ComponentPad*%
%ADD12R,1.700000X1.700000*%
%TD*%
%TA.AperFunction,ComponentPad*%
%ADD13O,1.700000X1.700000*%
%TD*%
%TA.AperFunction,ComponentPad*%
%ADD14R,3.960000X1.980000*%
%TD*%
%TA.AperFunction,ComponentPad*%
%ADD15O,3.960000X1.980000*%
%TD*%
%TA.AperFunction,SMDPad,CuDef*%
%ADD16RoundRect,0.100000X0.100000X-0.637500X0.100000X0.637500X-0.100000X0.637500X-0.100000X-0.637500X0*%
%TD*%
%TA.AperFunction,Conductor*%
%ADD17C,1.000000*%
%TD*%
%TA.AperFunction,Conductor*%
%ADD18C,0.300000*%
%TD*%
%TA.AperFunction,Profile*%
%ADD19C,0.100000*%
%TD*%
G04 APERTURE END LIST*
D10*
X139370000Y-69560000D03*
X139370000Y-74560000D03*
X139370000Y-55296000D03*
D11*
X139370000Y-65456000D03*
D12*
X134290000Y-94920000D03*
D13*
X134290000Y-92380000D03*
X136830000Y-94920000D03*
X136830000Y-92380000D03*
X139370000Y-94920000D03*
X139370000Y-92380000D03*
X141910000Y-94920000D03*
X141910000Y-92380000D03*
D10*
X115240000Y-59360000D03*
D11*
X125400000Y-59360000D03*
D10*
X115240000Y-64440000D03*
D11*
X125400000Y-64440000D03*
D12*
X119050000Y-94920000D03*
D13*
X119050000Y-92380000D03*
X121590000Y-94920000D03*
X121590000Y-92380000D03*
X124130000Y-94920000D03*
X124130000Y-92380000D03*
X126670000Y-94920000D03*
X126670000Y-92380000D03*
D12*
X134290000Y-89840000D03*
D13*
X136830000Y-89840000D03*
X139370000Y-89840000D03*
X141910000Y-89840000D03*
D12*
X119050000Y-89840000D03*
D13*
X121590000Y-89840000D03*
X124130000Y-89840000D03*
X126670000Y-89840000D03*
D14*
X105080000Y-77365000D03*
D15*
X105080000Y-72365000D03*
D16*
X124985000Y-74922500D03*
X125635000Y-74922500D03*
X126285000Y-74922500D03*
X126935000Y-74922500D03*
X127585000Y-74922500D03*
X128235000Y-74922500D03*
X128885000Y-74922500D03*
X129535000Y-74922500D03*
X130185000Y-74922500D03*
X130835000Y-74922500D03*
X131485000Y-74922500D03*
X132135000Y-74922500D03*
X132785000Y-74922500D03*
X133435000Y-74922500D03*
X133435000Y-69197500D03*
X132785000Y-69197500D03*
X132135000Y-69197500D03*
X131485000Y-69197500D03*
X130835000Y-69197500D03*
X130185000Y-69197500D03*
X129535000Y-69197500D03*
X128885000Y-69197500D03*
X128235000Y-69197500D03*
X127585000Y-69197500D03*
X126935000Y-69197500D03*
X126285000Y-69197500D03*
X125635000Y-69197500D03*
X124985000Y-69197500D03*
D12*
X108370000Y-48770000D03*
D13*
X108370000Y-46230000D03*
X110910000Y-48770000D03*
X110910000Y-46230000D03*
X113450000Y-48770000D03*
X113450000Y-46230000D03*
X115990000Y-48770000D03*
X115990000Y-46230000D03*
X118530000Y-48770000D03*
X118530000Y-46230000D03*
X121070000Y-48770000D03*
X121070000Y-46230000D03*
X123610000Y-48770000D03*
X123610000Y-46230000D03*
X126150000Y-48770000D03*
X126150000Y-46230000D03*
X128690000Y-48770000D03*
X128690000Y-46230000D03*
X131230000Y-48770000D03*
X131230000Y-46230000D03*
X133770000Y-48770000D03*
X133770000Y-46230000D03*
X136310000Y-48770000D03*
X136310000Y-46230000D03*
X138850000Y-48770000D03*
X138850000Y-46230000D03*
X141390000Y-48770000D03*
X141390000Y-46230000D03*
X143930000Y-48770000D03*
X143930000Y-46230000D03*
X146470000Y-48770000D03*
X146470000Y-46230000D03*
X149010000Y-48770000D03*
X149010000Y-46230000D03*
X151550000Y-48770000D03*
X151550000Y-46230000D03*
X154090000Y-48770000D03*
X154090000Y-46230000D03*
X156630000Y-48770000D03*
X156630000Y-46230000D03*
D17*
X108890000Y-94920000D02*
X101270000Y-87300000D01*
X119050000Y-94920000D02*
X108890000Y-94920000D01*
X119050000Y-94920000D02*
X141910000Y-94920000D01*
X101270000Y-73240000D02*
X101910000Y-72600000D01*
X101270000Y-87300000D02*
X101270000Y-73240000D01*
X101910000Y-72600000D02*
X103810000Y-72600000D01*
D18*
X125635000Y-69197500D02*
X125635000Y-64675000D01*
X119050000Y-54280000D02*
X119050000Y-63170000D01*
X111430000Y-53010000D02*
X117780000Y-53010000D01*
X110910000Y-52490000D02*
X111430000Y-53010000D01*
X110910000Y-48770000D02*
X110910000Y-52490000D01*
X119050000Y-63170000D02*
X120320000Y-64440000D01*
X120320000Y-64440000D02*
X125400000Y-64440000D01*
X125635000Y-64675000D02*
X125400000Y-64440000D01*
X117780000Y-53010000D02*
X119050000Y-54280000D01*
X119050000Y-51740000D02*
X120320000Y-53010000D01*
X126285000Y-67365000D02*
X127940000Y-65710000D01*
X127940000Y-60630000D02*
X126670000Y-59360000D01*
X126285000Y-69197500D02*
X126285000Y-67365000D01*
X126670000Y-59360000D02*
X125400000Y-59360000D01*
X121590000Y-59360000D02*
X125400000Y-59360000D01*
X113970000Y-51740000D02*
X119050000Y-51740000D01*
X120320000Y-53010000D02*
X120320000Y-58090000D01*
X120320000Y-58090000D02*
X121590000Y-59360000D01*
X113450000Y-48770000D02*
X113450000Y-51220000D01*
X113450000Y-51220000D02*
X113970000Y-51740000D01*
X127940000Y-65710000D02*
X127940000Y-60630000D01*
X121590000Y-55550000D02*
X122860000Y-56820000D01*
X122860000Y-56820000D02*
X127940000Y-56820000D01*
X127940000Y-56820000D02*
X129210000Y-58090000D01*
X121590000Y-51740000D02*
X121590000Y-55550000D01*
X126935000Y-67422106D02*
X126935000Y-69197500D01*
X115990000Y-48770000D02*
X115990000Y-49950000D01*
X116510000Y-50470000D02*
X120320000Y-50470000D01*
X129210000Y-58090000D02*
X129210000Y-65147106D01*
X115990000Y-49950000D02*
X116510000Y-50470000D01*
X129210000Y-65147106D02*
X126935000Y-67422106D01*
X120320000Y-50470000D02*
X121590000Y-51740000D01*
X128235000Y-69197500D02*
X128235000Y-66829212D01*
X130480000Y-64440000D02*
X138354000Y-64440000D01*
X138354000Y-64440000D02*
X139370000Y-65456000D01*
X130480000Y-56820000D02*
X130480000Y-64440000D01*
X124130000Y-55550000D02*
X129210000Y-55550000D01*
X128235000Y-66829212D02*
X130480000Y-64584212D01*
X129210000Y-55550000D02*
X130480000Y-56820000D01*
X122860000Y-54280000D02*
X124130000Y-55550000D01*
X130480000Y-64584212D02*
X130480000Y-64440000D01*
X139370000Y-65456000D02*
X138989000Y-65456000D01*
X121070000Y-48770000D02*
X122860000Y-50560000D01*
X122860000Y-50560000D02*
X122860000Y-54280000D01*
X119050000Y-66980000D02*
X117780000Y-65710000D01*
X117780000Y-55550000D02*
X116510000Y-54280000D01*
X109652000Y-53772000D02*
X109652000Y-46288000D01*
X124985000Y-71645000D02*
X124985000Y-74922500D01*
X124985000Y-69197500D02*
X124985000Y-71645000D01*
X125400000Y-72060000D02*
X138100000Y-72060000D01*
X117780000Y-65710000D02*
X117780000Y-55550000D01*
X124985000Y-66980000D02*
X119050000Y-66980000D01*
X124985000Y-69197500D02*
X124985000Y-66980000D01*
X110160000Y-46230000D02*
X110910000Y-46230000D01*
X138100000Y-72060000D02*
X139370000Y-70790000D01*
X139370000Y-70790000D02*
X139370000Y-69560000D01*
X109652000Y-46288000D02*
X109710000Y-46230000D01*
X116510000Y-54280000D02*
X110160000Y-54280000D01*
X124985000Y-71645000D02*
X125400000Y-72060000D01*
X110160000Y-54280000D02*
X109652000Y-53772000D01*
X108370000Y-46230000D02*
X110160000Y-46230000D01*
X108370000Y-58840000D02*
X108890000Y-59360000D01*
X108890000Y-59360000D02*
X115240000Y-59360000D01*
X108370000Y-48770000D02*
X108370000Y-58840000D01*
X115240000Y-59360000D02*
X115240000Y-64440000D01*
X119050000Y-83490000D02*
X119050000Y-89840000D01*
X120320000Y-82220000D02*
X119050000Y-83490000D01*
X127940000Y-82220000D02*
X120320000Y-82220000D01*
X128235000Y-81925000D02*
X127940000Y-82220000D01*
X128235000Y-74922500D02*
X128235000Y-81925000D01*
X127940000Y-86030000D02*
X126670000Y-87300000D01*
X129210000Y-86030000D02*
X127940000Y-86030000D01*
X130185000Y-74922500D02*
X130185000Y-85055000D01*
X126670000Y-87300000D02*
X126670000Y-89840000D01*
X130185000Y-85055000D02*
X129210000Y-86030000D01*
X127922345Y-84749028D02*
X125410972Y-84749028D01*
X124130000Y-86030000D02*
X124130000Y-89840000D01*
X125410972Y-84749028D02*
X124130000Y-86030000D01*
X129535000Y-74922500D02*
X129535000Y-83136373D01*
X129535000Y-83136373D02*
X127922345Y-84749028D01*
X127940000Y-83490000D02*
X122860000Y-83490000D01*
X121590000Y-84760000D02*
X121590000Y-89840000D01*
X128885000Y-82545000D02*
X127940000Y-83490000D01*
X122860000Y-83490000D02*
X121590000Y-84760000D01*
X128885000Y-74922500D02*
X128885000Y-82545000D01*
X133435000Y-67615000D02*
X141910000Y-67615000D01*
X141910000Y-67615000D02*
X141910000Y-89840000D01*
X133435000Y-69197500D02*
X133435000Y-67615000D01*
X132135000Y-83875000D02*
X133020000Y-84760000D01*
X133020000Y-84760000D02*
X135560000Y-84760000D01*
X136830000Y-86030000D02*
X136830000Y-89840000D01*
X132135000Y-74922500D02*
X132135000Y-83875000D01*
X135560000Y-84760000D02*
X136830000Y-86030000D01*
X131485000Y-89575000D02*
X131750000Y-89840000D01*
X131485000Y-74922500D02*
X131485000Y-89575000D01*
X131750000Y-89840000D02*
X134290000Y-89840000D01*
X138100000Y-83490000D02*
X139370000Y-84760000D01*
X132785000Y-83255000D02*
X133020000Y-83490000D01*
X139370000Y-84760000D02*
X139370000Y-89840000D01*
X132785000Y-74922500D02*
X132785000Y-83255000D01*
X133020000Y-83490000D02*
X138100000Y-83490000D01*
D17*
X105080000Y-87300000D02*
X110160000Y-92380000D01*
X110160000Y-92380000D02*
X126670000Y-92380000D01*
X105080000Y-77365000D02*
X105080000Y-87300000D01*
X141910000Y-92380000D02*
X126670000Y-92380000D01*
%TA.AperFunction,Conductor*%
G36*
X121124075Y-94727007D02*
G01*
X121090000Y-94854174D01*
X121090000Y-94985826D01*
X121124075Y-95112993D01*
X121156988Y-95170000D01*
X119483012Y-95170000D01*
X119515925Y-95112993D01*
X119550000Y-94985826D01*
X119550000Y-94854174D01*
X119515925Y-94727007D01*
X119483012Y-94670000D01*
X121156988Y-94670000D01*
X121124075Y-94727007D01*
G37*
%TD.AperFunction*%
%TA.AperFunction,Conductor*%
G36*
X123664075Y-94727007D02*
G01*
X123630000Y-94854174D01*
X123630000Y-94985826D01*
X123664075Y-95112993D01*
X123696988Y-95170000D01*
X122023012Y-95170000D01*
X122055925Y-95112993D01*
X122090000Y-94985826D01*
X122090000Y-94854174D01*
X122055925Y-94727007D01*
X122023012Y-94670000D01*
X123696988Y-94670000D01*
X123664075Y-94727007D01*
G37*
%TD.AperFunction*%
%TA.AperFunction,Conductor*%
G36*
X126204075Y-94727007D02*
G01*
X126170000Y-94854174D01*
X126170000Y-94985826D01*
X126204075Y-95112993D01*
X126236988Y-95170000D01*
X124563012Y-95170000D01*
X124595925Y-95112993D01*
X124630000Y-94985826D01*
X124630000Y-94854174D01*
X124595925Y-94727007D01*
X124563012Y-94670000D01*
X126236988Y-94670000D01*
X126204075Y-94727007D01*
G37*
%TD.AperFunction*%
%TA.AperFunction,Conductor*%
G36*
X136364075Y-94727007D02*
G01*
X136330000Y-94854174D01*
X136330000Y-94985826D01*
X136364075Y-95112993D01*
X136396988Y-95170000D01*
X134723012Y-95170000D01*
X134755925Y-95112993D01*
X134790000Y-94985826D01*
X134790000Y-94854174D01*
X134755925Y-94727007D01*
X134723012Y-94670000D01*
X136396988Y-94670000D01*
X136364075Y-94727007D01*
G37*
%TD.AperFunction*%
%TA.AperFunction,Conductor*%
G36*
X138904075Y-94727007D02*
G01*
X138870000Y-94854174D01*
X138870000Y-94985826D01*
X138904075Y-95112993D01*
X138936988Y-95170000D01*
X137263012Y-95170000D01*
X137295925Y-95112993D01*
X137330000Y-94985826D01*
X137330000Y-94854174D01*
X137295925Y-94727007D01*
X137263012Y-94670000D01*
X138936988Y-94670000D01*
X138904075Y-94727007D01*
G37*
%TD.AperFunction*%
%TA.AperFunction,Conductor*%
G36*
X141444075Y-94727007D02*
G01*
X141410000Y-94854174D01*
X141410000Y-94985826D01*
X141444075Y-95112993D01*
X141476988Y-95170000D01*
X139803012Y-95170000D01*
X139835925Y-95112993D01*
X139870000Y-94985826D01*
X139870000Y-94854174D01*
X139835925Y-94727007D01*
X139803012Y-94670000D01*
X141476988Y-94670000D01*
X141444075Y-94727007D01*
G37*
%TD.AperFunction*%
%TA.AperFunction,Conductor*%
G36*
X162003472Y-44050695D02*
G01*
X162323297Y-44068656D01*
X162337094Y-44070210D01*
X162649457Y-44123283D01*
X162663014Y-44126377D01*
X162967469Y-44214089D01*
X162980593Y-44218682D01*
X163273304Y-44339926D01*
X163285826Y-44345955D01*
X163452594Y-44438125D01*
X163563139Y-44499221D01*
X163574900Y-44506611D01*
X163833314Y-44689966D01*
X163844174Y-44698627D01*
X164080418Y-44909749D01*
X164090250Y-44919581D01*
X164301372Y-45155825D01*
X164310035Y-45166687D01*
X164493385Y-45425094D01*
X164500778Y-45436860D01*
X164654040Y-45714166D01*
X164660073Y-45726695D01*
X164781317Y-46019406D01*
X164785910Y-46032530D01*
X164873622Y-46336985D01*
X164876716Y-46350542D01*
X164929787Y-46662894D01*
X164931344Y-46676712D01*
X164949305Y-46996527D01*
X164949500Y-47003480D01*
X164949500Y-96996519D01*
X164949305Y-97003472D01*
X164931344Y-97323287D01*
X164929787Y-97337105D01*
X164876716Y-97649457D01*
X164873622Y-97663014D01*
X164785910Y-97967469D01*
X164781317Y-97980593D01*
X164660073Y-98273304D01*
X164654040Y-98285833D01*
X164500778Y-98563139D01*
X164493380Y-98574913D01*
X164310043Y-98833302D01*
X164301372Y-98844174D01*
X164090250Y-99080418D01*
X164080418Y-99090250D01*
X163844174Y-99301372D01*
X163833302Y-99310043D01*
X163574913Y-99493380D01*
X163563139Y-99500778D01*
X163285833Y-99654040D01*
X163273304Y-99660073D01*
X162980593Y-99781317D01*
X162967469Y-99785910D01*
X162663014Y-99873622D01*
X162649457Y-99876716D01*
X162337105Y-99929787D01*
X162323287Y-99931344D01*
X162003472Y-99949305D01*
X161996519Y-99949500D01*
X103003481Y-99949500D01*
X102996528Y-99949305D01*
X102676712Y-99931344D01*
X102662894Y-99929787D01*
X102350542Y-99876716D01*
X102336985Y-99873622D01*
X102032530Y-99785910D01*
X102019406Y-99781317D01*
X101726695Y-99660073D01*
X101714166Y-99654040D01*
X101436860Y-99500778D01*
X101425094Y-99493385D01*
X101166687Y-99310035D01*
X101155825Y-99301372D01*
X100919581Y-99090250D01*
X100909749Y-99080418D01*
X100698627Y-98844174D01*
X100689966Y-98833314D01*
X100506611Y-98574900D01*
X100499221Y-98563139D01*
X100345959Y-98285833D01*
X100339926Y-98273304D01*
X100218682Y-97980593D01*
X100214089Y-97967469D01*
X100126377Y-97663014D01*
X100123283Y-97649457D01*
X100094127Y-97477858D01*
X100070210Y-97337094D01*
X100068656Y-97323297D01*
X100050695Y-97003472D01*
X100050500Y-96996519D01*
X100050500Y-76330131D01*
X102799500Y-76330131D01*
X102799500Y-78399856D01*
X102799502Y-78399882D01*
X102802413Y-78424987D01*
X102802415Y-78424991D01*
X102847793Y-78527764D01*
X102847794Y-78527765D01*
X102927235Y-78607206D01*
X103030009Y-78652585D01*
X103055135Y-78655500D01*
X104155500Y-78655499D01*
X104222539Y-78675184D01*
X104268294Y-78727987D01*
X104279500Y-78779499D01*
X104279500Y-87378846D01*
X104310261Y-87533489D01*
X104310264Y-87533501D01*
X104370602Y-87679172D01*
X104370609Y-87679185D01*
X104458210Y-87810288D01*
X104458213Y-87810292D01*
X109538211Y-92890289D01*
X109636175Y-92988253D01*
X109649712Y-93001790D01*
X109780814Y-93089390D01*
X109780827Y-93089397D01*
X109926498Y-93149735D01*
X109926503Y-93149737D01*
X110081153Y-93180499D01*
X110081156Y-93180500D01*
X110081158Y-93180500D01*
X118172324Y-93180500D01*
X118239363Y-93200185D01*
X118255862Y-93212863D01*
X118353697Y-93302051D01*
X118353699Y-93302053D01*
X118415911Y-93340573D01*
X118462547Y-93392601D01*
X118473651Y-93461582D01*
X118445698Y-93525617D01*
X118387563Y-93564373D01*
X118350634Y-93570000D01*
X118152155Y-93570000D01*
X118092627Y-93576401D01*
X118092620Y-93576403D01*
X117957913Y-93626645D01*
X117957906Y-93626649D01*
X117842812Y-93712809D01*
X117842809Y-93712812D01*
X117756649Y-93827906D01*
X117756645Y-93827913D01*
X117706403Y-93962620D01*
X117706401Y-93962627D01*
X117700000Y-94022155D01*
X117700000Y-94670000D01*
X118616988Y-94670000D01*
X118584075Y-94727007D01*
X118550000Y-94854174D01*
X118550000Y-94985826D01*
X118584075Y-95112993D01*
X118616988Y-95170000D01*
X117700000Y-95170000D01*
X117700000Y-95817844D01*
X117706401Y-95877372D01*
X117706403Y-95877379D01*
X117756645Y-96012086D01*
X117756649Y-96012093D01*
X117842809Y-96127187D01*
X117842812Y-96127190D01*
X117957906Y-96213350D01*
X117957913Y-96213354D01*
X118092620Y-96263596D01*
X118092627Y-96263598D01*
X118152155Y-96269999D01*
X118152172Y-96270000D01*
X118800000Y-96270000D01*
X118800000Y-95353012D01*
X118857007Y-95385925D01*
X118984174Y-95420000D01*
X119115826Y-95420000D01*
X119242993Y-95385925D01*
X119300000Y-95353012D01*
X119300000Y-96270000D01*
X119947828Y-96270000D01*
X119947844Y-96269999D01*
X120007372Y-96263598D01*
X120007379Y-96263596D01*
X120142086Y-96213354D01*
X120142093Y-96213350D01*
X120257187Y-96127190D01*
X120257190Y-96127187D01*
X120343350Y-96012093D01*
X120343354Y-96012086D01*
X120392614Y-95880013D01*
X120434485Y-95824079D01*
X120499949Y-95799662D01*
X120568222Y-95814513D01*
X120596477Y-95835665D01*
X120718917Y-95958105D01*
X120912421Y-96093600D01*
X121126507Y-96193429D01*
X121126516Y-96193433D01*
X121340000Y-96250634D01*
X121340000Y-95353012D01*
X121397007Y-95385925D01*
X121524174Y-95420000D01*
X121655826Y-95420000D01*
X121782993Y-95385925D01*
X121840000Y-95353012D01*
X121840000Y-96250634D01*
X122053483Y-96193433D01*
X122053492Y-96193429D01*
X122267578Y-96093600D01*
X122461082Y-95958105D01*
X122628105Y-95791082D01*
X122758425Y-95604968D01*
X122813002Y-95561344D01*
X122882501Y-95554151D01*
X122944855Y-95585673D01*
X122961575Y-95604968D01*
X123091894Y-95791082D01*
X123258917Y-95958105D01*
X123452421Y-96093600D01*
X123666507Y-96193429D01*
X123666516Y-96193433D01*
X123880000Y-96250634D01*
X123880000Y-95353012D01*
X123937007Y-95385925D01*
X124064174Y-95420000D01*
X124195826Y-95420000D01*
X124322993Y-95385925D01*
X124380000Y-95353012D01*
X124380000Y-96250634D01*
X124593483Y-96193433D01*
X124593492Y-96193429D01*
X124807578Y-96093600D01*
X125001082Y-95958105D01*
X125168105Y-95791082D01*
X125298425Y-95604968D01*
X125353002Y-95561344D01*
X125422501Y-95554151D01*
X125484855Y-95585673D01*
X125501575Y-95604968D01*
X125631894Y-95791082D01*
X125798917Y-95958105D01*
X125992421Y-96093600D01*
X126206507Y-96193429D01*
X126206516Y-96193433D01*
X126420000Y-96250634D01*
X126420000Y-95353012D01*
X126477007Y-95385925D01*
X126604174Y-95420000D01*
X126735826Y-95420000D01*
X126862993Y-95385925D01*
X126920000Y-95353012D01*
X126920000Y-96250634D01*
X127133483Y-96193433D01*
X127133492Y-96193429D01*
X127347578Y-96093600D01*
X127541082Y-95958105D01*
X127708105Y-95791082D01*
X127843600Y-95597578D01*
X127943429Y-95383492D01*
X127943432Y-95383486D01*
X128000636Y-95170000D01*
X127103012Y-95170000D01*
X127135925Y-95112993D01*
X127170000Y-94985826D01*
X127170000Y-94854174D01*
X127135925Y-94727007D01*
X127103012Y-94670000D01*
X128000636Y-94670000D01*
X128000635Y-94669999D01*
X127943432Y-94456513D01*
X127943429Y-94456507D01*
X127843600Y-94242422D01*
X127843599Y-94242420D01*
X127708113Y-94048926D01*
X127708108Y-94048920D01*
X127541082Y-93881894D01*
X127347578Y-93746399D01*
X127148426Y-93653533D01*
X127095987Y-93607360D01*
X127076835Y-93540167D01*
X127097051Y-93473286D01*
X127150216Y-93427951D01*
X127156005Y-93425537D01*
X127185019Y-93414298D01*
X127366302Y-93302052D01*
X127415046Y-93257615D01*
X127464138Y-93212863D01*
X127526942Y-93182246D01*
X127547676Y-93180500D01*
X133412324Y-93180500D01*
X133479363Y-93200185D01*
X133495862Y-93212863D01*
X133593697Y-93302051D01*
X133593699Y-93302053D01*
X133655911Y-93340573D01*
X133702547Y-93392601D01*
X133713651Y-93461582D01*
X133685698Y-93525617D01*
X133627563Y-93564373D01*
X133590634Y-93570000D01*
X133392155Y-93570000D01*
X133332627Y-93576401D01*
X133332620Y-93576403D01*
X133197913Y-93626645D01*
X133197906Y-93626649D01*
X133082812Y-93712809D01*
X133082809Y-93712812D01*
X132996649Y-93827906D01*
X132996645Y-93827913D01*
X132946403Y-93962620D01*
X132946401Y-93962627D01*
X132940000Y-94022155D01*
X132940000Y-94670000D01*
X133856988Y-94670000D01*
X133824075Y-94727007D01*
X133790000Y-94854174D01*
X133790000Y-94985826D01*
X133824075Y-95112993D01*
X133856988Y-95170000D01*
X132940000Y-95170000D01*
X132940000Y-95817844D01*
X132946401Y-95877372D01*
X132946403Y-95877379D01*
X132996645Y-96012086D01*
X132996649Y-96012093D01*
X133082809Y-96127187D01*
X133082812Y-96127190D01*
X133197906Y-96213350D01*
X133197913Y-96213354D01*
X133332620Y-96263596D01*
X133332627Y-96263598D01*
X133392155Y-96269999D01*
X133392172Y-96270000D01*
X134040000Y-96270000D01*
X134040000Y-95353012D01*
X134097007Y-95385925D01*
X134224174Y-95420000D01*
X134355826Y-95420000D01*
X134482993Y-95385925D01*
X134540000Y-95353012D01*
X134540000Y-96270000D01*
X135187828Y-96270000D01*
X135187844Y-96269999D01*
X135247372Y-96263598D01*
X135247379Y-96263596D01*
X135382086Y-96213354D01*
X135382093Y-96213350D01*
X135497187Y-96127190D01*
X135497190Y-96127187D01*
X135583350Y-96012093D01*
X135583354Y-96012086D01*
X135632614Y-95880013D01*
X135674485Y-95824079D01*
X135739949Y-95799662D01*
X135808222Y-95814513D01*
X135836477Y-95835665D01*
X135958917Y-95958105D01*
X136152421Y-96093600D01*
X136366507Y-96193429D01*
X136366516Y-96193433D01*
X136580000Y-96250634D01*
X136580000Y-95353012D01*
X136637007Y-95385925D01*
X136764174Y-95420000D01*
X136895826Y-95420000D01*
X137022993Y-95385925D01*
X137080000Y-95353012D01*
X137080000Y-96250634D01*
X137293483Y-96193433D01*
X137293492Y-96193429D01*
X137507578Y-96093600D01*
X137701082Y-95958105D01*
X137868105Y-95791082D01*
X137998425Y-95604968D01*
X138053002Y-95561344D01*
X138122501Y-95554151D01*
X138184855Y-95585673D01*
X138201575Y-95604968D01*
X138331894Y-95791082D01*
X138498917Y-95958105D01*
X138692421Y-96093600D01*
X138906507Y-96193429D01*
X138906516Y-96193433D01*
X139120000Y-96250634D01*
X139120000Y-95353012D01*
X139177007Y-95385925D01*
X139304174Y-95420000D01*
X139435826Y-95420000D01*
X139562993Y-95385925D01*
X139620000Y-95353012D01*
X139620000Y-96250633D01*
X139833483Y-96193433D01*
X139833492Y-96193429D01*
X140047578Y-96093600D01*
X140241082Y-95958105D01*
X140408105Y-95791082D01*
X140538425Y-95604968D01*
X140593002Y-95561344D01*
X140662501Y-95554151D01*
X140724855Y-95585673D01*
X140741575Y-95604968D01*
X140871894Y-95791082D01*
X141038917Y-95958105D01*
X141232421Y-96093600D01*
X141446507Y-96193429D01*
X141446516Y-96193433D01*
X141660000Y-96250634D01*
X141660000Y-95353012D01*
X141717007Y-95385925D01*
X141844174Y-95420000D01*
X141975826Y-95420000D01*
X142102993Y-95385925D01*
X142160000Y-95353012D01*
X142160000Y-96250633D01*
X142373483Y-96193433D01*
X142373492Y-96193429D01*
X142587578Y-96093600D01*
X142781082Y-95958105D01*
X142948105Y-95791082D01*
X143083600Y-95597578D01*
X143183429Y-95383492D01*
X143183432Y-95383486D01*
X143240636Y-95170000D01*
X142343012Y-95170000D01*
X142375925Y-95112993D01*
X142410000Y-94985826D01*
X142410000Y-94854174D01*
X142375925Y-94727007D01*
X142343012Y-94670000D01*
X143240636Y-94670000D01*
X143240635Y-94669999D01*
X143183432Y-94456513D01*
X143183429Y-94456507D01*
X143083600Y-94242422D01*
X143083599Y-94242420D01*
X142948113Y-94048926D01*
X142948108Y-94048920D01*
X142781082Y-93881894D01*
X142587578Y-93746399D01*
X142388426Y-93653533D01*
X142335987Y-93607360D01*
X142316835Y-93540167D01*
X142337051Y-93473286D01*
X142390216Y-93427951D01*
X142396005Y-93425537D01*
X142425019Y-93414298D01*
X142606302Y-93302052D01*
X142763872Y-93158407D01*
X142892366Y-92988255D01*
X142987405Y-92797389D01*
X143045756Y-92592310D01*
X143065429Y-92380000D01*
X143045756Y-92167690D01*
X142987405Y-91962611D01*
X142987403Y-91962606D01*
X142987403Y-91962605D01*
X142892367Y-91771746D01*
X142763872Y-91601593D01*
X142704137Y-91547137D01*
X142606302Y-91457948D01*
X142425019Y-91345702D01*
X142425017Y-91345701D01*
X142325608Y-91307190D01*
X142226198Y-91268679D01*
X142029385Y-91231888D01*
X141967106Y-91200221D01*
X141931833Y-91139908D01*
X141934767Y-91070100D01*
X141974976Y-91012960D01*
X142029384Y-90988111D01*
X142226198Y-90951321D01*
X142425019Y-90874298D01*
X142606302Y-90762052D01*
X142763872Y-90618407D01*
X142892366Y-90448255D01*
X142970918Y-90290500D01*
X142987403Y-90257394D01*
X142987405Y-90257389D01*
X143003595Y-90200488D01*
X143045756Y-90052310D01*
X143065429Y-89840000D01*
X143045756Y-89627690D01*
X142987405Y-89422611D01*
X142987403Y-89422606D01*
X142987403Y-89422605D01*
X142892367Y-89231746D01*
X142763872Y-89061593D01*
X142636133Y-88945143D01*
X142606302Y-88917948D01*
X142488530Y-88845026D01*
X142420145Y-88802684D01*
X142421441Y-88800589D01*
X142377969Y-88760257D01*
X142360500Y-88696797D01*
X142360500Y-67555693D01*
X142360500Y-67555691D01*
X142329799Y-67441114D01*
X142270489Y-67338387D01*
X142186613Y-67254511D01*
X142083886Y-67195201D01*
X141969309Y-67164500D01*
X133494309Y-67164500D01*
X133375691Y-67164500D01*
X133261114Y-67195201D01*
X133261112Y-67195201D01*
X133261112Y-67195202D01*
X133158387Y-67254511D01*
X133158384Y-67254513D01*
X133074513Y-67338384D01*
X133074511Y-67338387D01*
X133045922Y-67387905D01*
X133015201Y-67441114D01*
X132984500Y-67555691D01*
X132984500Y-67555693D01*
X132984500Y-68035500D01*
X132964815Y-68102539D01*
X132912011Y-68148294D01*
X132860501Y-68159500D01*
X132653482Y-68159500D01*
X132559693Y-68174354D01*
X132559691Y-68174355D01*
X132516293Y-68196468D01*
X132447624Y-68209364D01*
X132403706Y-68196468D01*
X132385083Y-68186979D01*
X132360303Y-68174353D01*
X132360299Y-68174352D01*
X132266524Y-68159500D01*
X132003482Y-68159500D01*
X131909693Y-68174354D01*
X131909691Y-68174355D01*
X131866293Y-68196468D01*
X131797624Y-68209364D01*
X131753706Y-68196468D01*
X131735083Y-68186979D01*
X131710303Y-68174353D01*
X131710299Y-68174352D01*
X131616524Y-68159500D01*
X131353482Y-68159500D01*
X131259693Y-68174354D01*
X131259691Y-68174355D01*
X131216293Y-68196468D01*
X131147624Y-68209364D01*
X131103706Y-68196468D01*
X131085083Y-68186979D01*
X131060303Y-68174353D01*
X131060299Y-68174352D01*
X130966524Y-68159500D01*
X130703482Y-68159500D01*
X130609693Y-68174354D01*
X130609691Y-68174355D01*
X130566293Y-68196468D01*
X130497624Y-68209364D01*
X130453706Y-68196468D01*
X130435083Y-68186979D01*
X130410303Y-68174353D01*
X130410299Y-68174352D01*
X130316524Y-68159500D01*
X130053482Y-68159500D01*
X129959693Y-68174354D01*
X129959691Y-68174355D01*
X129916293Y-68196468D01*
X129847624Y-68209364D01*
X129803706Y-68196468D01*
X129785083Y-68186979D01*
X129760303Y-68174353D01*
X129760299Y-68174352D01*
X129666524Y-68159500D01*
X129403482Y-68159500D01*
X129309693Y-68174354D01*
X129309691Y-68174355D01*
X129266293Y-68196468D01*
X129197624Y-68209364D01*
X129153706Y-68196468D01*
X129135083Y-68186979D01*
X129110303Y-68174353D01*
X129110299Y-68174352D01*
X129016524Y-68159500D01*
X128809500Y-68159500D01*
X128742461Y-68139815D01*
X128696706Y-68087011D01*
X128685500Y-68035500D01*
X128685500Y-67067177D01*
X128705185Y-67000138D01*
X128721819Y-66979496D01*
X130774496Y-64926819D01*
X130835819Y-64893334D01*
X130862177Y-64890500D01*
X138116035Y-64890500D01*
X138183074Y-64910185D01*
X138203716Y-64926819D01*
X138286612Y-65009715D01*
X138320097Y-65071038D01*
X138318197Y-65131330D01*
X138283603Y-65252915D01*
X138264785Y-65455999D01*
X138264785Y-65456000D01*
X138283602Y-65659082D01*
X138339417Y-65855247D01*
X138339422Y-65855260D01*
X138430327Y-66037821D01*
X138553237Y-66200581D01*
X138703958Y-66337980D01*
X138703960Y-66337982D01*
X138803141Y-66399392D01*
X138877363Y-66445348D01*
X139067544Y-66519024D01*
X139268024Y-66556500D01*
X139268026Y-66556500D01*
X139471974Y-66556500D01*
X139471976Y-66556500D01*
X139672456Y-66519024D01*
X139862637Y-66445348D01*
X140036041Y-66337981D01*
X140186764Y-66200579D01*
X140309673Y-66037821D01*
X140400582Y-65855250D01*
X140456397Y-65659083D01*
X140475215Y-65456000D01*
X140463493Y-65329502D01*
X140456397Y-65252917D01*
X140427486Y-65151306D01*
X140400582Y-65056750D01*
X140377161Y-65009715D01*
X140335884Y-64926819D01*
X140309673Y-64874179D01*
X140186764Y-64711421D01*
X140186762Y-64711418D01*
X140036041Y-64574019D01*
X140036039Y-64574017D01*
X139862642Y-64466655D01*
X139862635Y-64466651D01*
X139761444Y-64427450D01*
X139672456Y-64392976D01*
X139471976Y-64355500D01*
X139268024Y-64355500D01*
X139188760Y-64370317D01*
X139067542Y-64392976D01*
X139067537Y-64392978D01*
X139053889Y-64398265D01*
X138984266Y-64404123D01*
X138922527Y-64371411D01*
X138921420Y-64370317D01*
X138630616Y-64079513D01*
X138630614Y-64079511D01*
X138563460Y-64040739D01*
X138527888Y-64020201D01*
X138515780Y-64016957D01*
X138503673Y-64013713D01*
X138503670Y-64013712D01*
X138465478Y-64003478D01*
X138413309Y-63989500D01*
X138413308Y-63989500D01*
X131054500Y-63989500D01*
X130987461Y-63969815D01*
X130941706Y-63917011D01*
X130930500Y-63865500D01*
X130930500Y-56760693D01*
X130930500Y-56760691D01*
X130899799Y-56646114D01*
X130899799Y-56646113D01*
X130840489Y-56543386D01*
X129593100Y-55295997D01*
X138065034Y-55295997D01*
X138065034Y-55296002D01*
X138084858Y-55522599D01*
X138084860Y-55522610D01*
X138143730Y-55742317D01*
X138143735Y-55742331D01*
X138239863Y-55948478D01*
X138290974Y-56021472D01*
X138970000Y-55342446D01*
X138970000Y-55348661D01*
X138997259Y-55450394D01*
X139049920Y-55541606D01*
X139124394Y-55616080D01*
X139215606Y-55668741D01*
X139317339Y-55696000D01*
X139323553Y-55696000D01*
X138644526Y-56375025D01*
X138717513Y-56426132D01*
X138717521Y-56426136D01*
X138923668Y-56522264D01*
X138923682Y-56522269D01*
X139143389Y-56581139D01*
X139143400Y-56581141D01*
X139369998Y-56600966D01*
X139370002Y-56600966D01*
X139596599Y-56581141D01*
X139596610Y-56581139D01*
X139816317Y-56522269D01*
X139816331Y-56522264D01*
X140022478Y-56426136D01*
X140095471Y-56375024D01*
X139416447Y-55696000D01*
X139422661Y-55696000D01*
X139524394Y-55668741D01*
X139615606Y-55616080D01*
X139690080Y-55541606D01*
X139742741Y-55450394D01*
X139770000Y-55348661D01*
X139770000Y-55342447D01*
X140449024Y-56021471D01*
X140500136Y-55948478D01*
X140596264Y-55742331D01*
X140596269Y-55742317D01*
X140655139Y-55522610D01*
X140655141Y-55522599D01*
X140674966Y-55296002D01*
X140674966Y-55295997D01*
X140655141Y-55069400D01*
X140655139Y-55069389D01*
X140596269Y-54849682D01*
X140596264Y-54849668D01*
X140500136Y-54643521D01*
X140500132Y-54643513D01*
X140449025Y-54570526D01*
X139770000Y-55249551D01*
X139770000Y-55243339D01*
X139742741Y-55141606D01*
X139690080Y-55050394D01*
X139615606Y-54975920D01*
X139524394Y-54923259D01*
X139422661Y-54896000D01*
X139416445Y-54896000D01*
X140095472Y-54216974D01*
X140022478Y-54165863D01*
X139816331Y-54069735D01*
X139816317Y-54069730D01*
X139596610Y-54010860D01*
X139596599Y-54010858D01*
X139370002Y-53991034D01*
X139369998Y-53991034D01*
X139143400Y-54010858D01*
X139143389Y-54010860D01*
X138923682Y-54069730D01*
X138923673Y-54069734D01*
X138717516Y-54165866D01*
X138717512Y-54165868D01*
X138644526Y-54216973D01*
X138644526Y-54216974D01*
X139323553Y-54896000D01*
X139317339Y-54896000D01*
X139215606Y-54923259D01*
X139124394Y-54975920D01*
X139049920Y-55050394D01*
X138997259Y-55141606D01*
X138970000Y-55243339D01*
X138970000Y-55249552D01*
X138290974Y-54570526D01*
X138290973Y-54570526D01*
X138239868Y-54643512D01*
X138239866Y-54643516D01*
X138143734Y-54849673D01*
X138143730Y-54849682D01*
X138084860Y-55069389D01*
X138084858Y-55069400D01*
X138065034Y-55295997D01*
X129593100Y-55295997D01*
X129486614Y-55189511D01*
X129403641Y-55141606D01*
X129383888Y-55130201D01*
X129371780Y-55126957D01*
X129359673Y-55123713D01*
X129359670Y-55123712D01*
X129321478Y-55113478D01*
X129269309Y-55099500D01*
X129269308Y-55099500D01*
X124367965Y-55099500D01*
X124300926Y-55079815D01*
X124280284Y-55063181D01*
X123346819Y-54129716D01*
X123313334Y-54068393D01*
X123310500Y-54042035D01*
X123310500Y-50500693D01*
X123310500Y-50500691D01*
X123279799Y-50386114D01*
X123279797Y-50386110D01*
X123254731Y-50342694D01*
X123220493Y-50283392D01*
X123220487Y-50283384D01*
X122922292Y-49985189D01*
X122888807Y-49923866D01*
X122893791Y-49854174D01*
X122935663Y-49798241D01*
X123001127Y-49773824D01*
X123069400Y-49788676D01*
X123075251Y-49792082D01*
X123094972Y-49804293D01*
X123094976Y-49804295D01*
X123094981Y-49804298D01*
X123293802Y-49881321D01*
X123503390Y-49920500D01*
X123503392Y-49920500D01*
X123716608Y-49920500D01*
X123716610Y-49920500D01*
X123926198Y-49881321D01*
X124125019Y-49804298D01*
X124306302Y-49692052D01*
X124463872Y-49548407D01*
X124592366Y-49378255D01*
X124652866Y-49256753D01*
X124687403Y-49187394D01*
X124687403Y-49187393D01*
X124687405Y-49187389D01*
X124745756Y-48982310D01*
X124756529Y-48866047D01*
X124782315Y-48801111D01*
X124826869Y-48769194D01*
X124790497Y-48748331D01*
X124758307Y-48686318D01*
X124756529Y-48673951D01*
X124755849Y-48666613D01*
X124745756Y-48557690D01*
X124687405Y-48352611D01*
X124687403Y-48352606D01*
X124687403Y-48352605D01*
X124592367Y-48161746D01*
X124463872Y-47991593D01*
X124417500Y-47949319D01*
X124306302Y-47847948D01*
X124125019Y-47735702D01*
X124125014Y-47735700D01*
X124115169Y-47731886D01*
X124096037Y-47724474D01*
X124040636Y-47681903D01*
X124017045Y-47616136D01*
X124032756Y-47548056D01*
X124082779Y-47499276D01*
X124088426Y-47496466D01*
X124287578Y-47403599D01*
X124481082Y-47268105D01*
X124648105Y-47101082D01*
X124783600Y-46907578D01*
X124877294Y-46706651D01*
X124923466Y-46654212D01*
X124990660Y-46635060D01*
X125057541Y-46655276D01*
X125100676Y-46703785D01*
X125167632Y-46838253D01*
X125289779Y-47000000D01*
X125296128Y-47008407D01*
X125453698Y-47152052D01*
X125634981Y-47264298D01*
X125833802Y-47341321D01*
X126030613Y-47378111D01*
X126092893Y-47409779D01*
X126128166Y-47470092D01*
X126125232Y-47539900D01*
X126085023Y-47597040D01*
X126030613Y-47621888D01*
X125833802Y-47658679D01*
X125833799Y-47658679D01*
X125833799Y-47658680D01*
X125634982Y-47735701D01*
X125634980Y-47735702D01*
X125453699Y-47847947D01*
X125296127Y-47991593D01*
X125167632Y-48161746D01*
X125072596Y-48352605D01*
X125072596Y-48352607D01*
X125014244Y-48557689D01*
X125003471Y-48673951D01*
X124977685Y-48738888D01*
X124933130Y-48770804D01*
X124969503Y-48791668D01*
X125001693Y-48853681D01*
X125003470Y-48866047D01*
X125014244Y-48982310D01*
X125067675Y-49170099D01*
X125072596Y-49187392D01*
X125072596Y-49187394D01*
X125167632Y-49378253D01*
X125224125Y-49453061D01*
X125296128Y-49548407D01*
X125453698Y-49692052D01*
X125634981Y-49804298D01*
X125833802Y-49881321D01*
X126043390Y-49920500D01*
X126043392Y-49920500D01*
X126256608Y-49920500D01*
X126256610Y-49920500D01*
X126466198Y-49881321D01*
X126665019Y-49804298D01*
X126846302Y-49692052D01*
X127003872Y-49548407D01*
X127132366Y-49378255D01*
X127192866Y-49256753D01*
X127227403Y-49187394D01*
X127227403Y-49187393D01*
X127227405Y-49187389D01*
X127285756Y-48982310D01*
X127296529Y-48866047D01*
X127322315Y-48801111D01*
X127366869Y-48769194D01*
X127330497Y-48748331D01*
X127298307Y-48686318D01*
X127296529Y-48673951D01*
X127295849Y-48666613D01*
X127285756Y-48557690D01*
X127227405Y-48352611D01*
X127227403Y-48352606D01*
X127227403Y-48352605D01*
X127132367Y-48161746D01*
X127003872Y-47991593D01*
X126957500Y-47949319D01*
X126846302Y-47847948D01*
X126665019Y-47735702D01*
X126665017Y-47735701D01*
X126557827Y-47694176D01*
X126466198Y-47658679D01*
X126269385Y-47621888D01*
X126207106Y-47590221D01*
X126171833Y-47529908D01*
X126174767Y-47460100D01*
X126214976Y-47402960D01*
X126269384Y-47378111D01*
X126466198Y-47341321D01*
X126665019Y-47264298D01*
X126846302Y-47152052D01*
X127003872Y-47008407D01*
X127132366Y-46838255D01*
X127186270Y-46730000D01*
X127227403Y-46647394D01*
X127227403Y-46647393D01*
X127227405Y-46647389D01*
X127285756Y-46442310D01*
X127296529Y-46326047D01*
X127322315Y-46261111D01*
X127364622Y-46230804D01*
X127473130Y-46230804D01*
X127509503Y-46251668D01*
X127541693Y-46313681D01*
X127543470Y-46326047D01*
X127554244Y-46442310D01*
X127607675Y-46630099D01*
X127612596Y-46647392D01*
X127612596Y-46647394D01*
X127707632Y-46838253D01*
X127829779Y-47000000D01*
X127836128Y-47008407D01*
X127993698Y-47152052D01*
X128174981Y-47264298D01*
X128373802Y-47341321D01*
X128570613Y-47378111D01*
X128632893Y-47409779D01*
X128668166Y-47470092D01*
X128665232Y-47539900D01*
X128625023Y-47597040D01*
X128570613Y-47621888D01*
X128373802Y-47658679D01*
X128373799Y-47658679D01*
X128373799Y-47658680D01*
X128174982Y-47735701D01*
X128174980Y-47735702D01*
X127993699Y-47847947D01*
X127836127Y-47991593D01*
X127707632Y-48161746D01*
X127612596Y-48352605D01*
X127612596Y-48352607D01*
X127554244Y-48557689D01*
X127543471Y-48673951D01*
X127517685Y-48738888D01*
X127473130Y-48770804D01*
X127509503Y-48791668D01*
X127541693Y-48853681D01*
X127543470Y-48866047D01*
X127554244Y-48982310D01*
X127607675Y-49170099D01*
X127612596Y-49187392D01*
X127612596Y-49187394D01*
X127707632Y-49378253D01*
X127764125Y-49453061D01*
X127836128Y-49548407D01*
X127993698Y-49692052D01*
X128174981Y-49804298D01*
X128373802Y-49881321D01*
X128583390Y-49920500D01*
X128583392Y-49920500D01*
X128796608Y-49920500D01*
X128796610Y-49920500D01*
X129006198Y-49881321D01*
X129205019Y-49804298D01*
X129386302Y-49692052D01*
X129543872Y-49548407D01*
X129672366Y-49378255D01*
X129732866Y-49256753D01*
X129767403Y-49187394D01*
X129767403Y-49187393D01*
X129767405Y-49187389D01*
X129825756Y-48982310D01*
X129836529Y-48866047D01*
X129862315Y-48801111D01*
X129906869Y-48769194D01*
X129870497Y-48748331D01*
X129838307Y-48686318D01*
X129836529Y-48673951D01*
X129835849Y-48666613D01*
X129825756Y-48557690D01*
X129767405Y-48352611D01*
X129767403Y-48352606D01*
X129767403Y-48352605D01*
X129672367Y-48161746D01*
X129543872Y-47991593D01*
X129497500Y-47949319D01*
X129386302Y-47847948D01*
X129205019Y-47735702D01*
X129205017Y-47735701D01*
X129097827Y-47694176D01*
X129006198Y-47658679D01*
X128809385Y-47621888D01*
X128747106Y-47590221D01*
X128711833Y-47529908D01*
X128714767Y-47460100D01*
X128754976Y-47402960D01*
X128809384Y-47378111D01*
X129006198Y-47341321D01*
X129205019Y-47264298D01*
X129386302Y-47152052D01*
X129543872Y-47008407D01*
X129672366Y-46838255D01*
X129739325Y-46703781D01*
X129786825Y-46652548D01*
X129854488Y-46635126D01*
X129920828Y-46657051D01*
X129962705Y-46706651D01*
X130056399Y-46907578D01*
X130191894Y-47101082D01*
X130358917Y-47268105D01*
X130552421Y-47403600D01*
X130751573Y-47496466D01*
X130804012Y-47542638D01*
X130823164Y-47609832D01*
X130802948Y-47676713D01*
X130749783Y-47722048D01*
X130743968Y-47724472D01*
X130736771Y-47727260D01*
X130714982Y-47735701D01*
X130714980Y-47735702D01*
X130533699Y-47847947D01*
X130376127Y-47991593D01*
X130247632Y-48161746D01*
X130152596Y-48352605D01*
X130152596Y-48352607D01*
X130094244Y-48557689D01*
X130083471Y-48673951D01*
X130057685Y-48738888D01*
X130013130Y-48770804D01*
X130049503Y-48791668D01*
X130081693Y-48853681D01*
X130083470Y-48866047D01*
X130094244Y-48982310D01*
X130147675Y-49170099D01*
X130152596Y-49187392D01*
X130152596Y-49187394D01*
X130247632Y-49378253D01*
X130304125Y-49453061D01*
X130376128Y-49548407D01*
X130533698Y-49692052D01*
X130714981Y-49804298D01*
X130913802Y-49881321D01*
X131123390Y-49920500D01*
X131123392Y-49920500D01*
X131336608Y-49920500D01*
X131336610Y-49920500D01*
X131546198Y-49881321D01*
X131745019Y-49804298D01*
X131926302Y-49692052D01*
X132083872Y-49548407D01*
X132212366Y-49378255D01*
X132272866Y-49256753D01*
X132307403Y-49187394D01*
X132307403Y-49187393D01*
X132307405Y-49187389D01*
X132365756Y-48982310D01*
X132376529Y-48866047D01*
X132402315Y-48801111D01*
X132446869Y-48769194D01*
X132410497Y-48748331D01*
X132378307Y-48686318D01*
X132376529Y-48673951D01*
X132375849Y-48666613D01*
X132365756Y-48557690D01*
X132307405Y-48352611D01*
X132307403Y-48352606D01*
X132307403Y-48352605D01*
X132212367Y-48161746D01*
X132083872Y-47991593D01*
X132037500Y-47949319D01*
X131926302Y-47847948D01*
X131745019Y-47735702D01*
X131745014Y-47735700D01*
X131735169Y-47731886D01*
X131716037Y-47724474D01*
X131660636Y-47681903D01*
X131637045Y-47616136D01*
X131652756Y-47548056D01*
X131702779Y-47499276D01*
X131708426Y-47496466D01*
X131907578Y-47403599D01*
X132101082Y-47268105D01*
X132268105Y-47101082D01*
X132403600Y-46907578D01*
X132497294Y-46706651D01*
X132543466Y-46654212D01*
X132610660Y-46635060D01*
X132677541Y-46655276D01*
X132720676Y-46703785D01*
X132787632Y-46838253D01*
X132909779Y-47000000D01*
X132916128Y-47008407D01*
X133073698Y-47152052D01*
X133254981Y-47264298D01*
X133453802Y-47341321D01*
X133650613Y-47378111D01*
X133712893Y-47409779D01*
X133748166Y-47470092D01*
X133745232Y-47539900D01*
X133705023Y-47597040D01*
X133650613Y-47621888D01*
X133453802Y-47658679D01*
X133453799Y-47658679D01*
X133453799Y-47658680D01*
X133254982Y-47735701D01*
X133254980Y-47735702D01*
X133073699Y-47847947D01*
X132916127Y-47991593D01*
X132787632Y-48161746D01*
X132692596Y-48352605D01*
X132692596Y-48352607D01*
X132634244Y-48557689D01*
X132623471Y-48673951D01*
X132597685Y-48738888D01*
X132553130Y-48770804D01*
X132589503Y-48791668D01*
X132621693Y-48853681D01*
X132623470Y-48866047D01*
X132634244Y-48982310D01*
X132687675Y-49170099D01*
X132692596Y-49187392D01*
X132692596Y-49187394D01*
X132787632Y-49378253D01*
X132844125Y-49453061D01*
X132916128Y-49548407D01*
X133073698Y-49692052D01*
X133254981Y-49804298D01*
X133453802Y-49881321D01*
X133663390Y-49920500D01*
X133663392Y-49920500D01*
X133876608Y-49920500D01*
X133876610Y-49920500D01*
X134086198Y-49881321D01*
X134285019Y-49804298D01*
X134466302Y-49692052D01*
X134623872Y-49548407D01*
X134752366Y-49378255D01*
X134812866Y-49256753D01*
X134847403Y-49187394D01*
X134847403Y-49187393D01*
X134847405Y-49187389D01*
X134905756Y-48982310D01*
X134916529Y-48866047D01*
X134942315Y-48801111D01*
X134986869Y-48769194D01*
X134950497Y-48748331D01*
X134918307Y-48686318D01*
X134916529Y-48673951D01*
X134915849Y-48666613D01*
X134905756Y-48557690D01*
X134847405Y-48352611D01*
X134847403Y-48352606D01*
X134847403Y-48352605D01*
X134752367Y-48161746D01*
X134623872Y-47991593D01*
X134577500Y-47949319D01*
X134466302Y-47847948D01*
X134285019Y-47735702D01*
X134285017Y-47735701D01*
X134177827Y-47694176D01*
X134086198Y-47658679D01*
X133889385Y-47621888D01*
X133827106Y-47590221D01*
X133791833Y-47529908D01*
X133794767Y-47460100D01*
X133834976Y-47402960D01*
X133889384Y-47378111D01*
X134086198Y-47341321D01*
X134285019Y-47264298D01*
X134466302Y-47152052D01*
X134623872Y-47008407D01*
X134752366Y-46838255D01*
X134806270Y-46730000D01*
X134847403Y-46647394D01*
X134847403Y-46647393D01*
X134847405Y-46647389D01*
X134905756Y-46442310D01*
X134916529Y-46326047D01*
X134942315Y-46261111D01*
X134984622Y-46230804D01*
X135093130Y-46230804D01*
X135129503Y-46251668D01*
X135161693Y-46313681D01*
X135163470Y-46326047D01*
X135174244Y-46442310D01*
X135227675Y-46630099D01*
X135232596Y-46647392D01*
X135232596Y-46647394D01*
X135327632Y-46838253D01*
X135449779Y-47000000D01*
X135456128Y-47008407D01*
X135613698Y-47152052D01*
X135794981Y-47264298D01*
X135993802Y-47341321D01*
X136190613Y-47378111D01*
X136252893Y-47409779D01*
X136288166Y-47470092D01*
X136285232Y-47539900D01*
X136245023Y-47597040D01*
X136190613Y-47621888D01*
X135993802Y-47658679D01*
X135993799Y-47658679D01*
X135993799Y-47658680D01*
X135794982Y-47735701D01*
X135794980Y-47735702D01*
X135613699Y-47847947D01*
X135456127Y-47991593D01*
X135327632Y-48161746D01*
X135232596Y-48352605D01*
X135232596Y-48352607D01*
X135174244Y-48557689D01*
X135163471Y-48673951D01*
X135137685Y-48738888D01*
X135093130Y-48770804D01*
X135129503Y-48791668D01*
X135161693Y-48853681D01*
X135163470Y-48866047D01*
X135174244Y-48982310D01*
X135227675Y-49170099D01*
X135232596Y-49187392D01*
X135232596Y-49187394D01*
X135327632Y-49378253D01*
X135384125Y-49453061D01*
X135456128Y-49548407D01*
X135613698Y-49692052D01*
X135794981Y-49804298D01*
X135993802Y-49881321D01*
X136203390Y-49920500D01*
X136203392Y-49920500D01*
X136416608Y-49920500D01*
X136416610Y-49920500D01*
X136626198Y-49881321D01*
X136825019Y-49804298D01*
X137006302Y-49692052D01*
X137163872Y-49548407D01*
X137292366Y-49378255D01*
X137359325Y-49243781D01*
X137406825Y-49192548D01*
X137474488Y-49175126D01*
X137540828Y-49197051D01*
X137582705Y-49246651D01*
X137676399Y-49447578D01*
X137811894Y-49641082D01*
X137978917Y-49808105D01*
X138172421Y-49943600D01*
X138386507Y-50043429D01*
X138386516Y-50043433D01*
X138600000Y-50100634D01*
X138600000Y-49203012D01*
X138657007Y-49235925D01*
X138784174Y-49270000D01*
X138915826Y-49270000D01*
X139042993Y-49235925D01*
X139100000Y-49203012D01*
X139100000Y-50100633D01*
X139313483Y-50043433D01*
X139313492Y-50043429D01*
X139527578Y-49943600D01*
X139721082Y-49808105D01*
X139888105Y-49641082D01*
X140023600Y-49447578D01*
X140117294Y-49246651D01*
X140163466Y-49194212D01*
X140230660Y-49175060D01*
X140297541Y-49195276D01*
X140340676Y-49243785D01*
X140407632Y-49378253D01*
X140464125Y-49453061D01*
X140536128Y-49548407D01*
X140693698Y-49692052D01*
X140874981Y-49804298D01*
X141073802Y-49881321D01*
X141283390Y-49920500D01*
X141283392Y-49920500D01*
X141496608Y-49920500D01*
X141496610Y-49920500D01*
X141706198Y-49881321D01*
X141905019Y-49804298D01*
X142086302Y-49692052D01*
X142243872Y-49548407D01*
X142372366Y-49378255D01*
X142432866Y-49256753D01*
X142467403Y-49187394D01*
X142467403Y-49187393D01*
X142467405Y-49187389D01*
X142525756Y-48982310D01*
X142536529Y-48866047D01*
X142562315Y-48801111D01*
X142606869Y-48769194D01*
X142570497Y-48748331D01*
X142538307Y-48686318D01*
X142536529Y-48673951D01*
X142535849Y-48666613D01*
X142525756Y-48557690D01*
X142467405Y-48352611D01*
X142467403Y-48352606D01*
X142467403Y-48352605D01*
X142372367Y-48161746D01*
X142243872Y-47991593D01*
X142197500Y-47949319D01*
X142086302Y-47847948D01*
X141905019Y-47735702D01*
X141905017Y-47735701D01*
X141797827Y-47694176D01*
X141706198Y-47658679D01*
X141509385Y-47621888D01*
X141447106Y-47590221D01*
X141411833Y-47529908D01*
X141414767Y-47460100D01*
X141454976Y-47402960D01*
X141509384Y-47378111D01*
X141706198Y-47341321D01*
X141905019Y-47264298D01*
X142086302Y-47152052D01*
X142243872Y-47008407D01*
X142372366Y-46838255D01*
X142439325Y-46703781D01*
X142486825Y-46652548D01*
X142554488Y-46635126D01*
X142620828Y-46657051D01*
X142662705Y-46706651D01*
X142756399Y-46907578D01*
X142891894Y-47101082D01*
X143058917Y-47268105D01*
X143252421Y-47403600D01*
X143451573Y-47496466D01*
X143504012Y-47542638D01*
X143523164Y-47609832D01*
X143502948Y-47676713D01*
X143449783Y-47722048D01*
X143443968Y-47724472D01*
X143436771Y-47727260D01*
X143414982Y-47735701D01*
X143414980Y-47735702D01*
X143233699Y-47847947D01*
X143076127Y-47991593D01*
X142947632Y-48161746D01*
X142852596Y-48352605D01*
X142852596Y-48352607D01*
X142794244Y-48557689D01*
X142783471Y-48673951D01*
X142757685Y-48738888D01*
X142713130Y-48770804D01*
X142749503Y-48791668D01*
X142781693Y-48853681D01*
X142783470Y-48866047D01*
X142794244Y-48982310D01*
X142847675Y-49170099D01*
X142852596Y-49187392D01*
X142852596Y-49187394D01*
X142947632Y-49378253D01*
X143004125Y-49453061D01*
X143076128Y-49548407D01*
X143233698Y-49692052D01*
X143414981Y-49804298D01*
X143613802Y-49881321D01*
X143823390Y-49920500D01*
X143823392Y-49920500D01*
X144036608Y-49920500D01*
X144036610Y-49920500D01*
X144246198Y-49881321D01*
X144445019Y-49804298D01*
X144626302Y-49692052D01*
X144783872Y-49548407D01*
X144912366Y-49378255D01*
X144972866Y-49256753D01*
X145007403Y-49187394D01*
X145007403Y-49187393D01*
X145007405Y-49187389D01*
X145065756Y-48982310D01*
X145076529Y-48866047D01*
X145102315Y-48801111D01*
X145146869Y-48769194D01*
X145110497Y-48748331D01*
X145078307Y-48686318D01*
X145076529Y-48673951D01*
X145075849Y-48666613D01*
X145065756Y-48557690D01*
X145007405Y-48352611D01*
X145007403Y-48352606D01*
X145007403Y-48352605D01*
X144912367Y-48161746D01*
X144783872Y-47991593D01*
X144737500Y-47949319D01*
X144626302Y-47847948D01*
X144445019Y-47735702D01*
X144445014Y-47735700D01*
X144435169Y-47731886D01*
X144416037Y-47724474D01*
X144360636Y-47681903D01*
X144337045Y-47616136D01*
X144352756Y-47548056D01*
X144402779Y-47499276D01*
X144408426Y-47496466D01*
X144607578Y-47403599D01*
X144801082Y-47268105D01*
X144968105Y-47101082D01*
X145103600Y-46907578D01*
X145197294Y-46706651D01*
X145243466Y-46654212D01*
X145310660Y-46635060D01*
X145377541Y-46655276D01*
X145420676Y-46703785D01*
X145487632Y-46838253D01*
X145609779Y-47000000D01*
X145616128Y-47008407D01*
X145773698Y-47152052D01*
X145954981Y-47264298D01*
X146153802Y-47341321D01*
X146350613Y-47378111D01*
X146412893Y-47409779D01*
X146448166Y-47470092D01*
X146445232Y-47539900D01*
X146405023Y-47597040D01*
X146350613Y-47621888D01*
X146153802Y-47658679D01*
X146153799Y-47658679D01*
X146153799Y-47658680D01*
X145954982Y-47735701D01*
X145954980Y-47735702D01*
X145773699Y-47847947D01*
X145616127Y-47991593D01*
X145487632Y-48161746D01*
X145392596Y-48352605D01*
X145392596Y-48352607D01*
X145334244Y-48557689D01*
X145323471Y-48673951D01*
X145297685Y-48738888D01*
X145253130Y-48770804D01*
X145289503Y-48791668D01*
X145321693Y-48853681D01*
X145323470Y-48866047D01*
X145334244Y-48982310D01*
X145387675Y-49170099D01*
X145392596Y-49187392D01*
X145392596Y-49187394D01*
X145487632Y-49378253D01*
X145544125Y-49453061D01*
X145616128Y-49548407D01*
X145773698Y-49692052D01*
X145954981Y-49804298D01*
X146153802Y-49881321D01*
X146363390Y-49920500D01*
X146363392Y-49920500D01*
X146576608Y-49920500D01*
X146576610Y-49920500D01*
X146786198Y-49881321D01*
X146985019Y-49804298D01*
X147166302Y-49692052D01*
X147323872Y-49548407D01*
X147452366Y-49378255D01*
X147512866Y-49256753D01*
X147547403Y-49187394D01*
X147547403Y-49187393D01*
X147547405Y-49187389D01*
X147605756Y-48982310D01*
X147616529Y-48866047D01*
X147642315Y-48801111D01*
X147686869Y-48769194D01*
X147650497Y-48748331D01*
X147618307Y-48686318D01*
X147616529Y-48673951D01*
X147615849Y-48666613D01*
X147605756Y-48557690D01*
X147547405Y-48352611D01*
X147547403Y-48352606D01*
X147547403Y-48352605D01*
X147452367Y-48161746D01*
X147323872Y-47991593D01*
X147277500Y-47949319D01*
X147166302Y-47847948D01*
X146985019Y-47735702D01*
X146985017Y-47735701D01*
X146877827Y-47694176D01*
X146786198Y-47658679D01*
X146589385Y-47621888D01*
X146527106Y-47590221D01*
X146491833Y-47529908D01*
X146494767Y-47460100D01*
X146534976Y-47402960D01*
X146589384Y-47378111D01*
X146786198Y-47341321D01*
X146985019Y-47264298D01*
X147166302Y-47152052D01*
X147323872Y-47008407D01*
X147452366Y-46838255D01*
X147519325Y-46703781D01*
X147566825Y-46652548D01*
X147634488Y-46635126D01*
X147700828Y-46657051D01*
X147742705Y-46706651D01*
X147836399Y-46907578D01*
X147971894Y-47101082D01*
X148138917Y-47268105D01*
X148332421Y-47403600D01*
X148531573Y-47496466D01*
X148584012Y-47542638D01*
X148603164Y-47609832D01*
X148582948Y-47676713D01*
X148529783Y-47722048D01*
X148523968Y-47724472D01*
X148516771Y-47727260D01*
X148494982Y-47735701D01*
X148494980Y-47735702D01*
X148313699Y-47847947D01*
X148156127Y-47991593D01*
X148027632Y-48161746D01*
X147932596Y-48352605D01*
X147932596Y-48352607D01*
X147874244Y-48557689D01*
X147863471Y-48673951D01*
X147837685Y-48738888D01*
X147793130Y-48770804D01*
X147829503Y-48791668D01*
X147861693Y-48853681D01*
X147863470Y-48866047D01*
X147874244Y-48982310D01*
X147927675Y-49170099D01*
X147932596Y-49187392D01*
X147932596Y-49187394D01*
X148027632Y-49378253D01*
X148084125Y-49453061D01*
X148156128Y-49548407D01*
X148313698Y-49692052D01*
X148494981Y-49804298D01*
X148693802Y-49881321D01*
X148903390Y-49920500D01*
X148903392Y-49920500D01*
X149116608Y-49920500D01*
X149116610Y-49920500D01*
X149326198Y-49881321D01*
X149525019Y-49804298D01*
X149706302Y-49692052D01*
X149863872Y-49548407D01*
X149992366Y-49378255D01*
X150052866Y-49256753D01*
X150087403Y-49187394D01*
X150087403Y-49187393D01*
X150087405Y-49187389D01*
X150145756Y-48982310D01*
X150156529Y-48866047D01*
X150182315Y-48801111D01*
X150226869Y-48769194D01*
X150190497Y-48748331D01*
X150158307Y-48686318D01*
X150156529Y-48673951D01*
X150155849Y-48666613D01*
X150145756Y-48557690D01*
X150087405Y-48352611D01*
X150087403Y-48352606D01*
X150087403Y-48352605D01*
X149992367Y-48161746D01*
X149863872Y-47991593D01*
X149817500Y-47949319D01*
X149706302Y-47847948D01*
X149525019Y-47735702D01*
X149525014Y-47735700D01*
X149515169Y-47731886D01*
X149496037Y-47724474D01*
X149440636Y-47681903D01*
X149417045Y-47616136D01*
X149432756Y-47548056D01*
X149482779Y-47499276D01*
X149488426Y-47496466D01*
X149687578Y-47403599D01*
X149881082Y-47268105D01*
X150048105Y-47101082D01*
X150183600Y-46907578D01*
X150277294Y-46706651D01*
X150323466Y-46654212D01*
X150390660Y-46635060D01*
X150457541Y-46655276D01*
X150500676Y-46703785D01*
X150567632Y-46838253D01*
X150689779Y-47000000D01*
X150696128Y-47008407D01*
X150853698Y-47152052D01*
X151034981Y-47264298D01*
X151233802Y-47341321D01*
X151430613Y-47378111D01*
X151492893Y-47409779D01*
X151528166Y-47470092D01*
X151525232Y-47539900D01*
X151485023Y-47597040D01*
X151430613Y-47621888D01*
X151233802Y-47658679D01*
X151233799Y-47658679D01*
X151233799Y-47658680D01*
X151034982Y-47735701D01*
X151034980Y-47735702D01*
X150853699Y-47847947D01*
X150696127Y-47991593D01*
X150567632Y-48161746D01*
X150472596Y-48352605D01*
X150472596Y-48352607D01*
X150414244Y-48557689D01*
X150403471Y-48673951D01*
X150377685Y-48738888D01*
X150333130Y-48770804D01*
X150369503Y-48791668D01*
X150401693Y-48853681D01*
X150403470Y-48866047D01*
X150414244Y-48982310D01*
X150467675Y-49170099D01*
X150472596Y-49187392D01*
X150472596Y-49187394D01*
X150567632Y-49378253D01*
X150624125Y-49453061D01*
X150696128Y-49548407D01*
X150853698Y-49692052D01*
X151034981Y-49804298D01*
X151233802Y-49881321D01*
X151443390Y-49920500D01*
X151443392Y-49920500D01*
X151656608Y-49920500D01*
X151656610Y-49920500D01*
X151866198Y-49881321D01*
X152065019Y-49804298D01*
X152246302Y-49692052D01*
X152403872Y-49548407D01*
X152532366Y-49378255D01*
X152592866Y-49256753D01*
X152627403Y-49187394D01*
X152627403Y-49187393D01*
X152627405Y-49187389D01*
X152685756Y-48982310D01*
X152696529Y-48866047D01*
X152722315Y-48801111D01*
X152766869Y-48769194D01*
X152730497Y-48748331D01*
X152698307Y-48686318D01*
X152696529Y-48673951D01*
X152695849Y-48666613D01*
X152685756Y-48557690D01*
X152627405Y-48352611D01*
X152627403Y-48352606D01*
X152627403Y-48352605D01*
X152532367Y-48161746D01*
X152403872Y-47991593D01*
X152357500Y-47949319D01*
X152246302Y-47847948D01*
X152065019Y-47735702D01*
X152065017Y-47735701D01*
X151957827Y-47694176D01*
X151866198Y-47658679D01*
X151669385Y-47621888D01*
X151607106Y-47590221D01*
X151571833Y-47529908D01*
X151574767Y-47460100D01*
X151614976Y-47402960D01*
X151669384Y-47378111D01*
X151866198Y-47341321D01*
X152065019Y-47264298D01*
X152246302Y-47152052D01*
X152403872Y-47008407D01*
X152532366Y-46838255D01*
X152586270Y-46730000D01*
X152627403Y-46647394D01*
X152627403Y-46647393D01*
X152627405Y-46647389D01*
X152685756Y-46442310D01*
X152696529Y-46326047D01*
X152722315Y-46261111D01*
X152764622Y-46230804D01*
X152873130Y-46230804D01*
X152909503Y-46251668D01*
X152941693Y-46313681D01*
X152943470Y-46326047D01*
X152954244Y-46442310D01*
X153007675Y-46630099D01*
X153012596Y-46647392D01*
X153012596Y-46647394D01*
X153107632Y-46838253D01*
X153229779Y-47000000D01*
X153236128Y-47008407D01*
X153393698Y-47152052D01*
X153574981Y-47264298D01*
X153773802Y-47341321D01*
X153970613Y-47378111D01*
X154032893Y-47409779D01*
X154068166Y-47470092D01*
X154065232Y-47539900D01*
X154025023Y-47597040D01*
X153970613Y-47621888D01*
X153773802Y-47658679D01*
X153773799Y-47658679D01*
X153773799Y-47658680D01*
X153574982Y-47735701D01*
X153574980Y-47735702D01*
X153393699Y-47847947D01*
X153236127Y-47991593D01*
X153107632Y-48161746D01*
X153012596Y-48352605D01*
X153012596Y-48352607D01*
X152954244Y-48557689D01*
X152943471Y-48673951D01*
X152917685Y-48738888D01*
X152873130Y-48770804D01*
X152909503Y-48791668D01*
X152941693Y-48853681D01*
X152943470Y-48866047D01*
X152954244Y-48982310D01*
X153007675Y-49170099D01*
X153012596Y-49187392D01*
X153012596Y-49187394D01*
X153107632Y-49378253D01*
X153164125Y-49453061D01*
X153236128Y-49548407D01*
X153393698Y-49692052D01*
X153574981Y-49804298D01*
X153773802Y-49881321D01*
X153983390Y-49920500D01*
X153983392Y-49920500D01*
X154196608Y-49920500D01*
X154196610Y-49920500D01*
X154406198Y-49881321D01*
X154605019Y-49804298D01*
X154786302Y-49692052D01*
X154943872Y-49548407D01*
X155072366Y-49378255D01*
X155139325Y-49243781D01*
X155186825Y-49192548D01*
X155254488Y-49175126D01*
X155320828Y-49197051D01*
X155362705Y-49246651D01*
X155456399Y-49447578D01*
X155591894Y-49641082D01*
X155758917Y-49808105D01*
X155952421Y-49943600D01*
X156166507Y-50043429D01*
X156166516Y-50043433D01*
X156380000Y-50100634D01*
X156380000Y-49203012D01*
X156437007Y-49235925D01*
X156564174Y-49270000D01*
X156695826Y-49270000D01*
X156822993Y-49235925D01*
X156880000Y-49203012D01*
X156880000Y-50100633D01*
X157093483Y-50043433D01*
X157093492Y-50043429D01*
X157307578Y-49943600D01*
X157501082Y-49808105D01*
X157668105Y-49641082D01*
X157803600Y-49447578D01*
X157903429Y-49233492D01*
X157903432Y-49233486D01*
X157960636Y-49020000D01*
X157063012Y-49020000D01*
X157095925Y-48962993D01*
X157130000Y-48835826D01*
X157130000Y-48704174D01*
X157095925Y-48577007D01*
X157063012Y-48520000D01*
X157960636Y-48520000D01*
X157960635Y-48519999D01*
X157903432Y-48306513D01*
X157903429Y-48306507D01*
X157803600Y-48092422D01*
X157803599Y-48092420D01*
X157668113Y-47898926D01*
X157668108Y-47898920D01*
X157501082Y-47731894D01*
X157307578Y-47596399D01*
X157108426Y-47503533D01*
X157055987Y-47457360D01*
X157036835Y-47390167D01*
X157057051Y-47323286D01*
X157110216Y-47277951D01*
X157116005Y-47275537D01*
X157145019Y-47264298D01*
X157326302Y-47152052D01*
X157483872Y-47008407D01*
X157612366Y-46838255D01*
X157666270Y-46730000D01*
X157707403Y-46647394D01*
X157707403Y-46647393D01*
X157707405Y-46647389D01*
X157765756Y-46442310D01*
X157785429Y-46230000D01*
X157765756Y-46017690D01*
X157707405Y-45812611D01*
X157707403Y-45812606D01*
X157707403Y-45812605D01*
X157612367Y-45621746D01*
X157483872Y-45451593D01*
X157467711Y-45436860D01*
X157326302Y-45307948D01*
X157145019Y-45195702D01*
X157145017Y-45195701D01*
X157042084Y-45155825D01*
X156946198Y-45118679D01*
X156736610Y-45079500D01*
X156523390Y-45079500D01*
X156313802Y-45118679D01*
X156313799Y-45118679D01*
X156313799Y-45118680D01*
X156114982Y-45195701D01*
X156114980Y-45195702D01*
X155933699Y-45307947D01*
X155776127Y-45451593D01*
X155647632Y-45621746D01*
X155552596Y-45812605D01*
X155552596Y-45812607D01*
X155494244Y-46017689D01*
X155483471Y-46133951D01*
X155457685Y-46198888D01*
X155413130Y-46230804D01*
X155449503Y-46251668D01*
X155481693Y-46313681D01*
X155483470Y-46326047D01*
X155494244Y-46442310D01*
X155547675Y-46630099D01*
X155552596Y-46647392D01*
X155552596Y-46647394D01*
X155647632Y-46838253D01*
X155769779Y-47000000D01*
X155776128Y-47008407D01*
X155933698Y-47152052D01*
X156114981Y-47264298D01*
X156143961Y-47275525D01*
X156199362Y-47318095D01*
X156222954Y-47383861D01*
X156207244Y-47451942D01*
X156157222Y-47500722D01*
X156151573Y-47503533D01*
X155952422Y-47596399D01*
X155952420Y-47596400D01*
X155758926Y-47731886D01*
X155758920Y-47731891D01*
X155591891Y-47898920D01*
X155591886Y-47898926D01*
X155456400Y-48092420D01*
X155456399Y-48092422D01*
X155362705Y-48293348D01*
X155316532Y-48345787D01*
X155249339Y-48364939D01*
X155182457Y-48344723D01*
X155139323Y-48296215D01*
X155072366Y-48161745D01*
X154943872Y-47991593D01*
X154786302Y-47847948D01*
X154605019Y-47735702D01*
X154605017Y-47735701D01*
X154497827Y-47694176D01*
X154406198Y-47658679D01*
X154209385Y-47621888D01*
X154147106Y-47590221D01*
X154111833Y-47529908D01*
X154114767Y-47460100D01*
X154154976Y-47402960D01*
X154209384Y-47378111D01*
X154406198Y-47341321D01*
X154605019Y-47264298D01*
X154786302Y-47152052D01*
X154943872Y-47008407D01*
X155072366Y-46838255D01*
X155126270Y-46730000D01*
X155167403Y-46647394D01*
X155167403Y-46647393D01*
X155167405Y-46647389D01*
X155225756Y-46442310D01*
X155236529Y-46326047D01*
X155262315Y-46261111D01*
X155306869Y-46229194D01*
X155270497Y-46208331D01*
X155238307Y-46146318D01*
X155236529Y-46133951D01*
X155233939Y-46106000D01*
X155225756Y-46017690D01*
X155167405Y-45812611D01*
X155167403Y-45812606D01*
X155167403Y-45812605D01*
X155072367Y-45621746D01*
X154943872Y-45451593D01*
X154927711Y-45436860D01*
X154786302Y-45307948D01*
X154605019Y-45195702D01*
X154605017Y-45195701D01*
X154502084Y-45155825D01*
X154406198Y-45118679D01*
X154196610Y-45079500D01*
X153983390Y-45079500D01*
X153773802Y-45118679D01*
X153773799Y-45118679D01*
X153773799Y-45118680D01*
X153574982Y-45195701D01*
X153574980Y-45195702D01*
X153393699Y-45307947D01*
X153236127Y-45451593D01*
X153107632Y-45621746D01*
X153012596Y-45812605D01*
X153012596Y-45812607D01*
X152954244Y-46017689D01*
X152943471Y-46133951D01*
X152917685Y-46198888D01*
X152873130Y-46230804D01*
X152764622Y-46230804D01*
X152766869Y-46229194D01*
X152730497Y-46208331D01*
X152698307Y-46146318D01*
X152696529Y-46133951D01*
X152693939Y-46106000D01*
X152685756Y-46017690D01*
X152627405Y-45812611D01*
X152627403Y-45812606D01*
X152627403Y-45812605D01*
X152532367Y-45621746D01*
X152403872Y-45451593D01*
X152387711Y-45436860D01*
X152246302Y-45307948D01*
X152065019Y-45195702D01*
X152065017Y-45195701D01*
X151962084Y-45155825D01*
X151866198Y-45118679D01*
X151656610Y-45079500D01*
X151443390Y-45079500D01*
X151233802Y-45118679D01*
X151233799Y-45118679D01*
X151233799Y-45118680D01*
X151034982Y-45195701D01*
X151034980Y-45195702D01*
X150853699Y-45307947D01*
X150696127Y-45451593D01*
X150567634Y-45621744D01*
X150500676Y-45756215D01*
X150453173Y-45807452D01*
X150385510Y-45824873D01*
X150319170Y-45802947D01*
X150277294Y-45753348D01*
X150183600Y-45552422D01*
X150183599Y-45552420D01*
X150048113Y-45358926D01*
X150048108Y-45358920D01*
X149881082Y-45191894D01*
X149687578Y-45056399D01*
X149473492Y-44956570D01*
X149473486Y-44956567D01*
X149260000Y-44899364D01*
X149260000Y-45796988D01*
X149202993Y-45764075D01*
X149075826Y-45730000D01*
X148944174Y-45730000D01*
X148817007Y-45764075D01*
X148760000Y-45796988D01*
X148760000Y-44899364D01*
X148759999Y-44899364D01*
X148546513Y-44956567D01*
X148546507Y-44956570D01*
X148332422Y-45056399D01*
X148332420Y-45056400D01*
X148138926Y-45191886D01*
X148138920Y-45191891D01*
X147971891Y-45358920D01*
X147971886Y-45358926D01*
X147836400Y-45552420D01*
X147836399Y-45552422D01*
X147742705Y-45753348D01*
X147696532Y-45805787D01*
X147629339Y-45824939D01*
X147562457Y-45804723D01*
X147519323Y-45756215D01*
X147452366Y-45621745D01*
X147323872Y-45451593D01*
X147166302Y-45307948D01*
X146985019Y-45195702D01*
X146985017Y-45195701D01*
X146882084Y-45155825D01*
X146786198Y-45118679D01*
X146576610Y-45079500D01*
X146363390Y-45079500D01*
X146153802Y-45118679D01*
X146153799Y-45118679D01*
X146153799Y-45118680D01*
X145954982Y-45195701D01*
X145954980Y-45195702D01*
X145773699Y-45307947D01*
X145616127Y-45451593D01*
X145487634Y-45621744D01*
X145420676Y-45756215D01*
X145373173Y-45807452D01*
X145305510Y-45824873D01*
X145239170Y-45802947D01*
X145197294Y-45753348D01*
X145103600Y-45552422D01*
X145103599Y-45552420D01*
X144968113Y-45358926D01*
X144968108Y-45358920D01*
X144801082Y-45191894D01*
X144607578Y-45056399D01*
X144393492Y-44956570D01*
X144393486Y-44956567D01*
X144180000Y-44899364D01*
X144180000Y-45796988D01*
X144122993Y-45764075D01*
X143995826Y-45730000D01*
X143864174Y-45730000D01*
X143737007Y-45764075D01*
X143680000Y-45796988D01*
X143680000Y-44899364D01*
X143679999Y-44899364D01*
X143466513Y-44956567D01*
X143466507Y-44956570D01*
X143252422Y-45056399D01*
X143252420Y-45056400D01*
X143058926Y-45191886D01*
X143058920Y-45191891D01*
X142891891Y-45358920D01*
X142891886Y-45358926D01*
X142756400Y-45552420D01*
X142756399Y-45552422D01*
X142662705Y-45753348D01*
X142616532Y-45805787D01*
X142549339Y-45824939D01*
X142482457Y-45804723D01*
X142439323Y-45756215D01*
X142372366Y-45621745D01*
X142243872Y-45451593D01*
X142086302Y-45307948D01*
X141905019Y-45195702D01*
X141905017Y-45195701D01*
X141802084Y-45155825D01*
X141706198Y-45118679D01*
X141496610Y-45079500D01*
X141283390Y-45079500D01*
X141073802Y-45118679D01*
X141073799Y-45118679D01*
X141073799Y-45118680D01*
X140874982Y-45195701D01*
X140874980Y-45195702D01*
X140693699Y-45307947D01*
X140536127Y-45451593D01*
X140407632Y-45621746D01*
X140312596Y-45812605D01*
X140312596Y-45812607D01*
X140254244Y-46017689D01*
X140243471Y-46133951D01*
X140217685Y-46198888D01*
X140173130Y-46230804D01*
X140209503Y-46251668D01*
X140241693Y-46313681D01*
X140243470Y-46326047D01*
X140254244Y-46442310D01*
X140307675Y-46630099D01*
X140312596Y-46647392D01*
X140312596Y-46647394D01*
X140407632Y-46838253D01*
X140529779Y-47000000D01*
X140536128Y-47008407D01*
X140693698Y-47152052D01*
X140874981Y-47264298D01*
X141073802Y-47341321D01*
X141270613Y-47378111D01*
X141332893Y-47409779D01*
X141368166Y-47470092D01*
X141365232Y-47539900D01*
X141325023Y-47597040D01*
X141270613Y-47621888D01*
X141073802Y-47658679D01*
X141073799Y-47658679D01*
X141073799Y-47658680D01*
X140874982Y-47735701D01*
X140874980Y-47735702D01*
X140693699Y-47847947D01*
X140536127Y-47991593D01*
X140407634Y-48161744D01*
X140340676Y-48296215D01*
X140293173Y-48347452D01*
X140225510Y-48364873D01*
X140159170Y-48342947D01*
X140117294Y-48293348D01*
X140023600Y-48092422D01*
X140023599Y-48092420D01*
X139888113Y-47898926D01*
X139888108Y-47898920D01*
X139721082Y-47731894D01*
X139527578Y-47596399D01*
X139328426Y-47503533D01*
X139275987Y-47457360D01*
X139256835Y-47390167D01*
X139277051Y-47323286D01*
X139330216Y-47277951D01*
X139336005Y-47275537D01*
X139365019Y-47264298D01*
X139546302Y-47152052D01*
X139703872Y-47008407D01*
X139832366Y-46838255D01*
X139886270Y-46730000D01*
X139927403Y-46647394D01*
X139927403Y-46647393D01*
X139927405Y-46647389D01*
X139985756Y-46442310D01*
X139996529Y-46326047D01*
X140022315Y-46261111D01*
X140066869Y-46229194D01*
X140030497Y-46208331D01*
X139998307Y-46146318D01*
X139996529Y-46133951D01*
X139993939Y-46106000D01*
X139985756Y-46017690D01*
X139927405Y-45812611D01*
X139927403Y-45812606D01*
X139927403Y-45812605D01*
X139832367Y-45621746D01*
X139703872Y-45451593D01*
X139687711Y-45436860D01*
X139546302Y-45307948D01*
X139365019Y-45195702D01*
X139365017Y-45195701D01*
X139262084Y-45155825D01*
X139166198Y-45118679D01*
X138956610Y-45079500D01*
X138743390Y-45079500D01*
X138533802Y-45118679D01*
X138533799Y-45118679D01*
X138533799Y-45118680D01*
X138334982Y-45195701D01*
X138334980Y-45195702D01*
X138153699Y-45307947D01*
X137996127Y-45451593D01*
X137867632Y-45621746D01*
X137772596Y-45812605D01*
X137772596Y-45812607D01*
X137714244Y-46017689D01*
X137703471Y-46133951D01*
X137677685Y-46198888D01*
X137633130Y-46230804D01*
X137669503Y-46251668D01*
X137701693Y-46313681D01*
X137703470Y-46326047D01*
X137714244Y-46442310D01*
X137767675Y-46630099D01*
X137772596Y-46647392D01*
X137772596Y-46647394D01*
X137867632Y-46838253D01*
X137989779Y-47000000D01*
X137996128Y-47008407D01*
X138153698Y-47152052D01*
X138334981Y-47264298D01*
X138363961Y-47275525D01*
X138419362Y-47318095D01*
X138442954Y-47383861D01*
X138427244Y-47451942D01*
X138377222Y-47500722D01*
X138371573Y-47503533D01*
X138172422Y-47596399D01*
X138172420Y-47596400D01*
X137978926Y-47731886D01*
X137978920Y-47731891D01*
X137811891Y-47898920D01*
X137811886Y-47898926D01*
X137676400Y-48092420D01*
X137676399Y-48092422D01*
X137582705Y-48293348D01*
X137536532Y-48345787D01*
X137469339Y-48364939D01*
X137402457Y-48344723D01*
X137359323Y-48296215D01*
X137292366Y-48161745D01*
X137163872Y-47991593D01*
X137006302Y-47847948D01*
X136825019Y-47735702D01*
X136825017Y-47735701D01*
X136717827Y-47694176D01*
X136626198Y-47658679D01*
X136429385Y-47621888D01*
X136367106Y-47590221D01*
X136331833Y-47529908D01*
X136334767Y-47460100D01*
X136374976Y-47402960D01*
X136429384Y-47378111D01*
X136626198Y-47341321D01*
X136825019Y-47264298D01*
X137006302Y-47152052D01*
X137163872Y-47008407D01*
X137292366Y-46838255D01*
X137346270Y-46730000D01*
X137387403Y-46647394D01*
X137387403Y-46647393D01*
X137387405Y-46647389D01*
X137445756Y-46442310D01*
X137456529Y-46326047D01*
X137482315Y-46261111D01*
X137526869Y-46229194D01*
X137490497Y-46208331D01*
X137458307Y-46146318D01*
X137456529Y-46133951D01*
X137453939Y-46106000D01*
X137445756Y-46017690D01*
X137387405Y-45812611D01*
X137387403Y-45812606D01*
X137387403Y-45812605D01*
X137292367Y-45621746D01*
X137163872Y-45451593D01*
X137147711Y-45436860D01*
X137006302Y-45307948D01*
X136825019Y-45195702D01*
X136825017Y-45195701D01*
X136722084Y-45155825D01*
X136626198Y-45118679D01*
X136416610Y-45079500D01*
X136203390Y-45079500D01*
X135993802Y-45118679D01*
X135993799Y-45118679D01*
X135993799Y-45118680D01*
X135794982Y-45195701D01*
X135794980Y-45195702D01*
X135613699Y-45307947D01*
X135456127Y-45451593D01*
X135327632Y-45621746D01*
X135232596Y-45812605D01*
X135232596Y-45812607D01*
X135174244Y-46017689D01*
X135163471Y-46133951D01*
X135137685Y-46198888D01*
X135093130Y-46230804D01*
X134984622Y-46230804D01*
X134986869Y-46229194D01*
X134950497Y-46208331D01*
X134918307Y-46146318D01*
X134916529Y-46133951D01*
X134913939Y-46106000D01*
X134905756Y-46017690D01*
X134847405Y-45812611D01*
X134847403Y-45812606D01*
X134847403Y-45812605D01*
X134752367Y-45621746D01*
X134623872Y-45451593D01*
X134607711Y-45436860D01*
X134466302Y-45307948D01*
X134285019Y-45195702D01*
X134285017Y-45195701D01*
X134182084Y-45155825D01*
X134086198Y-45118679D01*
X133876610Y-45079500D01*
X133663390Y-45079500D01*
X133453802Y-45118679D01*
X133453799Y-45118679D01*
X133453799Y-45118680D01*
X133254982Y-45195701D01*
X133254980Y-45195702D01*
X133073699Y-45307947D01*
X132916127Y-45451593D01*
X132787634Y-45621744D01*
X132720676Y-45756215D01*
X132673173Y-45807452D01*
X132605510Y-45824873D01*
X132539170Y-45802947D01*
X132497294Y-45753348D01*
X132403600Y-45552422D01*
X132403599Y-45552420D01*
X132268113Y-45358926D01*
X132268108Y-45358920D01*
X132101082Y-45191894D01*
X131907578Y-45056399D01*
X131693492Y-44956570D01*
X131693486Y-44956567D01*
X131480000Y-44899364D01*
X131480000Y-45796988D01*
X131422993Y-45764075D01*
X131295826Y-45730000D01*
X131164174Y-45730000D01*
X131037007Y-45764075D01*
X130980000Y-45796988D01*
X130980000Y-44899364D01*
X130979999Y-44899364D01*
X130766513Y-44956567D01*
X130766507Y-44956570D01*
X130552422Y-45056399D01*
X130552420Y-45056400D01*
X130358926Y-45191886D01*
X130358920Y-45191891D01*
X130191891Y-45358920D01*
X130191886Y-45358926D01*
X130056400Y-45552420D01*
X130056399Y-45552422D01*
X129962705Y-45753348D01*
X129916532Y-45805787D01*
X129849339Y-45824939D01*
X129782457Y-45804723D01*
X129739323Y-45756215D01*
X129672366Y-45621745D01*
X129543872Y-45451593D01*
X129386302Y-45307948D01*
X129205019Y-45195702D01*
X129205017Y-45195701D01*
X129102084Y-45155825D01*
X129006198Y-45118679D01*
X128796610Y-45079500D01*
X128583390Y-45079500D01*
X128373802Y-45118679D01*
X128373799Y-45118679D01*
X128373799Y-45118680D01*
X128174982Y-45195701D01*
X128174980Y-45195702D01*
X127993699Y-45307947D01*
X127836127Y-45451593D01*
X127707632Y-45621746D01*
X127612596Y-45812605D01*
X127612596Y-45812607D01*
X127554244Y-46017689D01*
X127543471Y-46133951D01*
X127517685Y-46198888D01*
X127473130Y-46230804D01*
X127364622Y-46230804D01*
X127366869Y-46229194D01*
X127330497Y-46208331D01*
X127298307Y-46146318D01*
X127296529Y-46133951D01*
X127293939Y-46106000D01*
X127285756Y-46017690D01*
X127227405Y-45812611D01*
X127227403Y-45812606D01*
X127227403Y-45812605D01*
X127132367Y-45621746D01*
X127003872Y-45451593D01*
X126987711Y-45436860D01*
X126846302Y-45307948D01*
X126665019Y-45195702D01*
X126665017Y-45195701D01*
X126562084Y-45155825D01*
X126466198Y-45118679D01*
X126256610Y-45079500D01*
X126043390Y-45079500D01*
X125833802Y-45118679D01*
X125833799Y-45118679D01*
X125833799Y-45118680D01*
X125634982Y-45195701D01*
X125634980Y-45195702D01*
X125453699Y-45307947D01*
X125296127Y-45451593D01*
X125167634Y-45621744D01*
X125100676Y-45756215D01*
X125053173Y-45807452D01*
X124985510Y-45824873D01*
X124919170Y-45802947D01*
X124877294Y-45753348D01*
X124783600Y-45552422D01*
X124783599Y-45552420D01*
X124648113Y-45358926D01*
X124648108Y-45358920D01*
X124481082Y-45191894D01*
X124287578Y-45056399D01*
X124073492Y-44956570D01*
X124073486Y-44956567D01*
X123860000Y-44899364D01*
X123860000Y-45796988D01*
X123802993Y-45764075D01*
X123675826Y-45730000D01*
X123544174Y-45730000D01*
X123417007Y-45764075D01*
X123360000Y-45796988D01*
X123360000Y-44899364D01*
X123359999Y-44899364D01*
X123146513Y-44956567D01*
X123146507Y-44956570D01*
X122932422Y-45056399D01*
X122932420Y-45056400D01*
X122738926Y-45191886D01*
X122738920Y-45191891D01*
X122571891Y-45358920D01*
X122571886Y-45358926D01*
X122436400Y-45552420D01*
X122436399Y-45552422D01*
X122342705Y-45753348D01*
X122296532Y-45805787D01*
X122229339Y-45824939D01*
X122162457Y-45804723D01*
X122119323Y-45756215D01*
X122052366Y-45621745D01*
X121923872Y-45451593D01*
X121766302Y-45307948D01*
X121585019Y-45195702D01*
X121585017Y-45195701D01*
X121482084Y-45155825D01*
X121386198Y-45118679D01*
X121176610Y-45079500D01*
X120963390Y-45079500D01*
X120753802Y-45118679D01*
X120753799Y-45118679D01*
X120753799Y-45118680D01*
X120554982Y-45195701D01*
X120554980Y-45195702D01*
X120373699Y-45307947D01*
X120216127Y-45451593D01*
X120087632Y-45621746D01*
X119992596Y-45812605D01*
X119992596Y-45812607D01*
X119934244Y-46017689D01*
X119923471Y-46133951D01*
X119897685Y-46198888D01*
X119853130Y-46230804D01*
X119889503Y-46251668D01*
X119921693Y-46313681D01*
X119923470Y-46326047D01*
X119934244Y-46442310D01*
X119987675Y-46630099D01*
X119992596Y-46647392D01*
X119992596Y-46647394D01*
X120087632Y-46838253D01*
X120209779Y-47000000D01*
X120216128Y-47008407D01*
X120373698Y-47152052D01*
X120554981Y-47264298D01*
X120753802Y-47341321D01*
X120950613Y-47378111D01*
X121012893Y-47409779D01*
X121048166Y-47470092D01*
X121045232Y-47539900D01*
X121005023Y-47597040D01*
X120950613Y-47621888D01*
X120753802Y-47658679D01*
X120753799Y-47658679D01*
X120753799Y-47658680D01*
X120554982Y-47735701D01*
X120554980Y-47735702D01*
X120373699Y-47847947D01*
X120216127Y-47991593D01*
X120087634Y-48161744D01*
X120020676Y-48296215D01*
X119973173Y-48347452D01*
X119905510Y-48364873D01*
X119839170Y-48342947D01*
X119797294Y-48293348D01*
X119703600Y-48092422D01*
X119703599Y-48092420D01*
X119568113Y-47898926D01*
X119568108Y-47898920D01*
X119401082Y-47731894D01*
X119207578Y-47596399D01*
X119008426Y-47503533D01*
X118955987Y-47457360D01*
X118936835Y-47390167D01*
X118957051Y-47323286D01*
X119010216Y-47277951D01*
X119016005Y-47275537D01*
X119045019Y-47264298D01*
X119226302Y-47152052D01*
X119383872Y-47008407D01*
X119512366Y-46838255D01*
X119566270Y-46730000D01*
X119607403Y-46647394D01*
X119607403Y-46647393D01*
X119607405Y-46647389D01*
X119665756Y-46442310D01*
X119676529Y-46326047D01*
X119702315Y-46261111D01*
X119746869Y-46229194D01*
X119710497Y-46208331D01*
X119678307Y-46146318D01*
X119676529Y-46133951D01*
X119673939Y-46106000D01*
X119665756Y-46017690D01*
X119607405Y-45812611D01*
X119607403Y-45812606D01*
X119607403Y-45812605D01*
X119512367Y-45621746D01*
X119383872Y-45451593D01*
X119367711Y-45436860D01*
X119226302Y-45307948D01*
X119045019Y-45195702D01*
X119045017Y-45195701D01*
X118942084Y-45155825D01*
X118846198Y-45118679D01*
X118636610Y-45079500D01*
X118423390Y-45079500D01*
X118213802Y-45118679D01*
X118213799Y-45118679D01*
X118213799Y-45118680D01*
X118014982Y-45195701D01*
X118014980Y-45195702D01*
X117833699Y-45307947D01*
X117676127Y-45451593D01*
X117547632Y-45621746D01*
X117452596Y-45812605D01*
X117452596Y-45812607D01*
X117394244Y-46017689D01*
X117383471Y-46133951D01*
X117357685Y-46198888D01*
X117313130Y-46230804D01*
X117349503Y-46251668D01*
X117381693Y-46313681D01*
X117383470Y-46326047D01*
X117394244Y-46442310D01*
X117447675Y-46630099D01*
X117452596Y-46647392D01*
X117452596Y-46647394D01*
X117547632Y-46838253D01*
X117669779Y-47000000D01*
X117676128Y-47008407D01*
X117833698Y-47152052D01*
X118014981Y-47264298D01*
X118043961Y-47275525D01*
X118099362Y-47318095D01*
X118122954Y-47383861D01*
X118107244Y-47451942D01*
X118057222Y-47500722D01*
X118051573Y-47503533D01*
X117852422Y-47596399D01*
X117852420Y-47596400D01*
X117658926Y-47731886D01*
X117658920Y-47731891D01*
X117491891Y-47898920D01*
X117491886Y-47898926D01*
X117356400Y-48092420D01*
X117356399Y-48092422D01*
X117262705Y-48293348D01*
X117216532Y-48345787D01*
X117149339Y-48364939D01*
X117082457Y-48344723D01*
X117039323Y-48296215D01*
X116972366Y-48161745D01*
X116843872Y-47991593D01*
X116686302Y-47847948D01*
X116505019Y-47735702D01*
X116505017Y-47735701D01*
X116397827Y-47694176D01*
X116306198Y-47658679D01*
X116109385Y-47621888D01*
X116047106Y-47590221D01*
X116011833Y-47529908D01*
X116014767Y-47460100D01*
X116054976Y-47402960D01*
X116109384Y-47378111D01*
X116306198Y-47341321D01*
X116505019Y-47264298D01*
X116686302Y-47152052D01*
X116843872Y-47008407D01*
X116972366Y-46838255D01*
X117026270Y-46730000D01*
X117067403Y-46647394D01*
X117067403Y-46647393D01*
X117067405Y-46647389D01*
X117125756Y-46442310D01*
X117136529Y-46326047D01*
X117162315Y-46261111D01*
X117206869Y-46229194D01*
X117170497Y-46208331D01*
X117138307Y-46146318D01*
X117136529Y-46133951D01*
X117133939Y-46106000D01*
X117125756Y-46017690D01*
X117067405Y-45812611D01*
X117067403Y-45812606D01*
X117067403Y-45812605D01*
X116972367Y-45621746D01*
X116843872Y-45451593D01*
X116827711Y-45436860D01*
X116686302Y-45307948D01*
X116505019Y-45195702D01*
X116505017Y-45195701D01*
X116402084Y-45155825D01*
X116306198Y-45118679D01*
X116096610Y-45079500D01*
X115883390Y-45079500D01*
X115673802Y-45118679D01*
X115673799Y-45118679D01*
X115673799Y-45118680D01*
X115474982Y-45195701D01*
X115474980Y-45195702D01*
X115293699Y-45307947D01*
X115136127Y-45451593D01*
X115007634Y-45621744D01*
X114940676Y-45756215D01*
X114893173Y-45807452D01*
X114825510Y-45824873D01*
X114759170Y-45802947D01*
X114717294Y-45753348D01*
X114623600Y-45552422D01*
X114623599Y-45552420D01*
X114488113Y-45358926D01*
X114488108Y-45358920D01*
X114321082Y-45191894D01*
X114127578Y-45056399D01*
X113913492Y-44956570D01*
X113913486Y-44956567D01*
X113700000Y-44899364D01*
X113700000Y-45796988D01*
X113642993Y-45764075D01*
X113515826Y-45730000D01*
X113384174Y-45730000D01*
X113257007Y-45764075D01*
X113200000Y-45796988D01*
X113200000Y-44899364D01*
X113199999Y-44899364D01*
X112986513Y-44956567D01*
X112986507Y-44956570D01*
X112772422Y-45056399D01*
X112772420Y-45056400D01*
X112578926Y-45191886D01*
X112578920Y-45191891D01*
X112411891Y-45358920D01*
X112411886Y-45358926D01*
X112276400Y-45552420D01*
X112276399Y-45552422D01*
X112182705Y-45753348D01*
X112136532Y-45805787D01*
X112069339Y-45824939D01*
X112002457Y-45804723D01*
X111959323Y-45756215D01*
X111892366Y-45621745D01*
X111763872Y-45451593D01*
X111606302Y-45307948D01*
X111425019Y-45195702D01*
X111425017Y-45195701D01*
X111322084Y-45155825D01*
X111226198Y-45118679D01*
X111016610Y-45079500D01*
X110803390Y-45079500D01*
X110593802Y-45118679D01*
X110593799Y-45118679D01*
X110593799Y-45118680D01*
X110394982Y-45195701D01*
X110394980Y-45195702D01*
X110213699Y-45307947D01*
X110056127Y-45451593D01*
X109934085Y-45613202D01*
X109927634Y-45621745D01*
X109883303Y-45710774D01*
X109835803Y-45762008D01*
X109772305Y-45779500D01*
X109507695Y-45779500D01*
X109440656Y-45759815D01*
X109396696Y-45710774D01*
X109352366Y-45621745D01*
X109223872Y-45451593D01*
X109066302Y-45307948D01*
X108885019Y-45195702D01*
X108885017Y-45195701D01*
X108782084Y-45155825D01*
X108686198Y-45118679D01*
X108476610Y-45079500D01*
X108263390Y-45079500D01*
X108053802Y-45118679D01*
X108053799Y-45118679D01*
X108053799Y-45118680D01*
X107854982Y-45195701D01*
X107854980Y-45195702D01*
X107673699Y-45307947D01*
X107516127Y-45451593D01*
X107387632Y-45621746D01*
X107292596Y-45812605D01*
X107292596Y-45812607D01*
X107234244Y-46017689D01*
X107220671Y-46164174D01*
X107214571Y-46230000D01*
X107234244Y-46442310D01*
X107287675Y-46630099D01*
X107292596Y-46647392D01*
X107292596Y-46647394D01*
X107387632Y-46838253D01*
X107509779Y-47000000D01*
X107516128Y-47008407D01*
X107673698Y-47152052D01*
X107854981Y-47264298D01*
X108053802Y-47341321D01*
X108226544Y-47373612D01*
X108288823Y-47405279D01*
X108324096Y-47465591D01*
X108321162Y-47535400D01*
X108280953Y-47592540D01*
X108216235Y-47618871D01*
X108203757Y-47619500D01*
X107475143Y-47619500D01*
X107475117Y-47619502D01*
X107450012Y-47622413D01*
X107450008Y-47622415D01*
X107347235Y-47667793D01*
X107267794Y-47747234D01*
X107222415Y-47850006D01*
X107222415Y-47850008D01*
X107219500Y-47875131D01*
X107219500Y-49664856D01*
X107219502Y-49664882D01*
X107222413Y-49689987D01*
X107222415Y-49689991D01*
X107267793Y-49792764D01*
X107267794Y-49792765D01*
X107347235Y-49872206D01*
X107450009Y-49917585D01*
X107475135Y-49920500D01*
X107795500Y-49920499D01*
X107862539Y-49940183D01*
X107908294Y-49992987D01*
X107919500Y-50044499D01*
X107919500Y-58899309D01*
X107935963Y-58960750D01*
X107950201Y-59013887D01*
X108009511Y-59116614D01*
X108613386Y-59720489D01*
X108716113Y-59779799D01*
X108740321Y-59786284D01*
X108740324Y-59786286D01*
X108740325Y-59786286D01*
X108770447Y-59794357D01*
X108830691Y-59810500D01*
X114158160Y-59810500D01*
X114225199Y-59830185D01*
X114269158Y-59879226D01*
X114300327Y-59941821D01*
X114300329Y-59941823D01*
X114423237Y-60104581D01*
X114573958Y-60241980D01*
X114573960Y-60241982D01*
X114650074Y-60289109D01*
X114730777Y-60339078D01*
X114777413Y-60391105D01*
X114789500Y-60444505D01*
X114789500Y-63355494D01*
X114769815Y-63422533D01*
X114730778Y-63460921D01*
X114573957Y-63558020D01*
X114423237Y-63695418D01*
X114300327Y-63858178D01*
X114209422Y-64040739D01*
X114209417Y-64040752D01*
X114153602Y-64236917D01*
X114134785Y-64439999D01*
X114134785Y-64440000D01*
X114153602Y-64643082D01*
X114209417Y-64839247D01*
X114209422Y-64839260D01*
X114300327Y-65021821D01*
X114423237Y-65184581D01*
X114573958Y-65321980D01*
X114573960Y-65321982D01*
X114633734Y-65358992D01*
X114747363Y-65429348D01*
X114937544Y-65503024D01*
X115138024Y-65540500D01*
X115138026Y-65540500D01*
X115341974Y-65540500D01*
X115341976Y-65540500D01*
X115542456Y-65503024D01*
X115732637Y-65429348D01*
X115906041Y-65321981D01*
X116056764Y-65184579D01*
X116179673Y-65021821D01*
X116270582Y-64839250D01*
X116326397Y-64643083D01*
X116345215Y-64440000D01*
X116326397Y-64236917D01*
X116270582Y-64040750D01*
X116257119Y-64013713D01*
X116210840Y-63920771D01*
X116179673Y-63858179D01*
X116056764Y-63695421D01*
X116056762Y-63695418D01*
X115906042Y-63558020D01*
X115906041Y-63558019D01*
X115749221Y-63460920D01*
X115702587Y-63408893D01*
X115690500Y-63355494D01*
X115690500Y-60444505D01*
X115710185Y-60377466D01*
X115749221Y-60339079D01*
X115906041Y-60241981D01*
X116056764Y-60104579D01*
X116179673Y-59941821D01*
X116270582Y-59759250D01*
X116326397Y-59563083D01*
X116345215Y-59360000D01*
X116326397Y-59156917D01*
X116270582Y-58960750D01*
X116257119Y-58933713D01*
X116210840Y-58840771D01*
X116179673Y-58778179D01*
X116056764Y-58615421D01*
X116056762Y-58615418D01*
X115906041Y-58478019D01*
X115906039Y-58478017D01*
X115732642Y-58370655D01*
X115732635Y-58370651D01*
X115554410Y-58301607D01*
X115542456Y-58296976D01*
X115341976Y-58259500D01*
X115138024Y-58259500D01*
X114937544Y-58296976D01*
X114937541Y-58296976D01*
X114937541Y-58296977D01*
X114747364Y-58370651D01*
X114747357Y-58370655D01*
X114573960Y-58478017D01*
X114573958Y-58478019D01*
X114423237Y-58615418D01*
X114300329Y-58778176D01*
X114300327Y-58778179D01*
X114269158Y-58840773D01*
X114221658Y-58892008D01*
X114158160Y-58909500D01*
X109127965Y-58909500D01*
X109060926Y-58889815D01*
X109040284Y-58873181D01*
X108856819Y-58689716D01*
X108823334Y-58628393D01*
X108820500Y-58602035D01*
X108820500Y-50044499D01*
X108840185Y-49977460D01*
X108892989Y-49931705D01*
X108944500Y-49920499D01*
X109077500Y-49920499D01*
X109144539Y-49940184D01*
X109190294Y-49992988D01*
X109201500Y-50044499D01*
X109201500Y-53831311D01*
X109209241Y-53860198D01*
X109209241Y-53860201D01*
X109209242Y-53860201D01*
X109232201Y-53945887D01*
X109291511Y-54048614D01*
X109883386Y-54640489D01*
X109883387Y-54640490D01*
X109883389Y-54640491D01*
X109942693Y-54674729D01*
X109942696Y-54674732D01*
X109976937Y-54694500D01*
X109986114Y-54699799D01*
X110100691Y-54730500D01*
X116272035Y-54730500D01*
X116339074Y-54750185D01*
X116359716Y-54766819D01*
X117293181Y-55700284D01*
X117326666Y-55761607D01*
X117329500Y-55787965D01*
X117329500Y-65769309D01*
X117334458Y-65787811D01*
X117360201Y-65883887D01*
X117419511Y-65986614D01*
X118773386Y-67340489D01*
X118876113Y-67399799D01*
X118900321Y-67406284D01*
X118900324Y-67406286D01*
X118900325Y-67406286D01*
X118930447Y-67414357D01*
X118990691Y-67430500D01*
X124410500Y-67430500D01*
X124477539Y-67450185D01*
X124523294Y-67502989D01*
X124534500Y-67554500D01*
X124534500Y-68335948D01*
X124520985Y-68392242D01*
X124499352Y-68434698D01*
X124484500Y-68528475D01*
X124484500Y-69866517D01*
X124499354Y-69960304D01*
X124520985Y-70002756D01*
X124534500Y-70059051D01*
X124534500Y-74060948D01*
X124520985Y-74117242D01*
X124499352Y-74159698D01*
X124484500Y-74253475D01*
X124484500Y-75591517D01*
X124495292Y-75659657D01*
X124499354Y-75685304D01*
X124556950Y-75798342D01*
X124556952Y-75798344D01*
X124556954Y-75798347D01*
X124646652Y-75888045D01*
X124646654Y-75888046D01*
X124646658Y-75888050D01*
X124759696Y-75945646D01*
X124759698Y-75945647D01*
X124853475Y-75960499D01*
X124853481Y-75960500D01*
X125029241Y-75960499D01*
X125096280Y-75980183D01*
X125104728Y-75986123D01*
X125232414Y-76084100D01*
X125378366Y-76144555D01*
X125378372Y-76144557D01*
X125434998Y-76152011D01*
X125435000Y-76152010D01*
X125835000Y-76152010D01*
X125835001Y-76152011D01*
X125891622Y-76144558D01*
X125891631Y-76144555D01*
X125912547Y-76135892D01*
X125982017Y-76128423D01*
X126007453Y-76135892D01*
X126028368Y-76144555D01*
X126028377Y-76144558D01*
X126084998Y-76152011D01*
X126085000Y-76152010D01*
X126485000Y-76152010D01*
X126485001Y-76152011D01*
X126541622Y-76144558D01*
X126541631Y-76144555D01*
X126562547Y-76135892D01*
X126632017Y-76128423D01*
X126657453Y-76135892D01*
X126678368Y-76144555D01*
X126678377Y-76144558D01*
X126734998Y-76152011D01*
X126735000Y-76152010D01*
X127135000Y-76152010D01*
X127135001Y-76152011D01*
X127191622Y-76144558D01*
X127191631Y-76144555D01*
X127212547Y-76135892D01*
X127282017Y-76128423D01*
X127307453Y-76135892D01*
X127328368Y-76144555D01*
X127328377Y-76144558D01*
X127384998Y-76152011D01*
X127385000Y-76152010D01*
X127385000Y-75122500D01*
X127135000Y-75122500D01*
X127135000Y-76152010D01*
X126735000Y-76152010D01*
X126735000Y-75122500D01*
X126485000Y-75122500D01*
X126485000Y-76152010D01*
X126085000Y-76152010D01*
X126085000Y-75122500D01*
X125835000Y-75122500D01*
X125835000Y-76152010D01*
X125435000Y-76152010D01*
X125435000Y-75785031D01*
X125448515Y-75728737D01*
X125470646Y-75685304D01*
X125470646Y-75685302D01*
X125470647Y-75685301D01*
X125485499Y-75591524D01*
X125485500Y-75591519D01*
X125485499Y-74253482D01*
X125470646Y-74159696D01*
X125470645Y-74159694D01*
X125470645Y-74159692D01*
X125449015Y-74117241D01*
X125435500Y-74060947D01*
X125435500Y-73692987D01*
X125835000Y-73692987D01*
X125835000Y-74722500D01*
X126085000Y-74722500D01*
X126085000Y-73692987D01*
X126485000Y-73692987D01*
X126485000Y-74722500D01*
X126735000Y-74722500D01*
X126735000Y-73692987D01*
X127135000Y-73692987D01*
X127135000Y-74722500D01*
X127385000Y-74722500D01*
X127385000Y-73692987D01*
X127328370Y-73700443D01*
X127307449Y-73709109D01*
X127237980Y-73716575D01*
X127212551Y-73709109D01*
X127191629Y-73700443D01*
X127135000Y-73692987D01*
X126735000Y-73692987D01*
X126678370Y-73700443D01*
X126657449Y-73709109D01*
X126587980Y-73716575D01*
X126562551Y-73709109D01*
X126541629Y-73700443D01*
X126485000Y-73692987D01*
X126085000Y-73692987D01*
X126028370Y-73700443D01*
X126007449Y-73709109D01*
X125937980Y-73716575D01*
X125912551Y-73709109D01*
X125891629Y-73700443D01*
X125835000Y-73692987D01*
X125435500Y-73692987D01*
X125435500Y-72634500D01*
X125455185Y-72567461D01*
X125507989Y-72521706D01*
X125559500Y-72510500D01*
X138159308Y-72510500D01*
X138159309Y-72510500D01*
X138249673Y-72486286D01*
X138273887Y-72479799D01*
X138376614Y-72420489D01*
X139730489Y-71066614D01*
X139789799Y-70963887D01*
X139796285Y-70939675D01*
X139796286Y-70939675D01*
X139796286Y-70939671D01*
X139820500Y-70849309D01*
X139820500Y-70644505D01*
X139840185Y-70577466D01*
X139879221Y-70539079D01*
X140036041Y-70441981D01*
X140186764Y-70304579D01*
X140309673Y-70141821D01*
X140400582Y-69959250D01*
X140456397Y-69763083D01*
X140475215Y-69560000D01*
X140456397Y-69356917D01*
X140400582Y-69160750D01*
X140309673Y-68978179D01*
X140186764Y-68815421D01*
X140186762Y-68815418D01*
X140036041Y-68678019D01*
X140036039Y-68678017D01*
X139862642Y-68570655D01*
X139862635Y-68570651D01*
X139753765Y-68528475D01*
X139672456Y-68496976D01*
X139471976Y-68459500D01*
X139268024Y-68459500D01*
X139067544Y-68496976D01*
X139067541Y-68496976D01*
X139067541Y-68496977D01*
X138877364Y-68570651D01*
X138877357Y-68570655D01*
X138703960Y-68678017D01*
X138703958Y-68678019D01*
X138553237Y-68815418D01*
X138430327Y-68978178D01*
X138339422Y-69160739D01*
X138339417Y-69160752D01*
X138283602Y-69356917D01*
X138264785Y-69559999D01*
X138264785Y-69560000D01*
X138283602Y-69763082D01*
X138339417Y-69959247D01*
X138339422Y-69959260D01*
X138430327Y-70141821D01*
X138553237Y-70304581D01*
X138703958Y-70441980D01*
X138703960Y-70441982D01*
X138749204Y-70469995D01*
X138803667Y-70503718D01*
X138850303Y-70555744D01*
X138861407Y-70624726D01*
X138833454Y-70688760D01*
X138826071Y-70696825D01*
X137949716Y-71573181D01*
X137888393Y-71606666D01*
X137862035Y-71609500D01*
X125637966Y-71609500D01*
X125570927Y-71589815D01*
X125550285Y-71573181D01*
X125471819Y-71494715D01*
X125438334Y-71433392D01*
X125435500Y-71407034D01*
X125435500Y-70359499D01*
X125455185Y-70292460D01*
X125507989Y-70246705D01*
X125559496Y-70235499D01*
X125766518Y-70235499D01*
X125860304Y-70220646D01*
X125903705Y-70198531D01*
X125972372Y-70185635D01*
X126016292Y-70198530D01*
X126059694Y-70220645D01*
X126059698Y-70220647D01*
X126153475Y-70235499D01*
X126153481Y-70235500D01*
X126329241Y-70235499D01*
X126396280Y-70255183D01*
X126404728Y-70261123D01*
X126532414Y-70359100D01*
X126678366Y-70419555D01*
X126678372Y-70419557D01*
X126734998Y-70427011D01*
X126735000Y-70427010D01*
X126735000Y-70060031D01*
X126748515Y-70003737D01*
X126770646Y-69960304D01*
X126770646Y-69960302D01*
X126770647Y-69960301D01*
X126785500Y-69866524D01*
X126785500Y-69772000D01*
X126805185Y-69704961D01*
X126857989Y-69659206D01*
X126909500Y-69648000D01*
X126994306Y-69648000D01*
X126994309Y-69648000D01*
X126994311Y-69647999D01*
X126994807Y-69647934D01*
X126995230Y-69648000D01*
X127002436Y-69648000D01*
X127002436Y-69649123D01*
X127063843Y-69658695D01*
X127116102Y-69705072D01*
X127135000Y-69770872D01*
X127135000Y-70427010D01*
X127135001Y-70427011D01*
X127191622Y-70419558D01*
X127191631Y-70419555D01*
X127212547Y-70410892D01*
X127282017Y-70403423D01*
X127307453Y-70410892D01*
X127328368Y-70419555D01*
X127328377Y-70419558D01*
X127384998Y-70427011D01*
X127385000Y-70427010D01*
X127385000Y-69268733D01*
X127385500Y-69261103D01*
X127385500Y-67660071D01*
X127405185Y-67593032D01*
X127421819Y-67572390D01*
X127572819Y-67421390D01*
X127634142Y-67387905D01*
X127703834Y-67392889D01*
X127759767Y-67434761D01*
X127784184Y-67500225D01*
X127784500Y-67509071D01*
X127784500Y-68335948D01*
X127770985Y-68392242D01*
X127749352Y-68434698D01*
X127734500Y-68528475D01*
X127734500Y-68528480D01*
X127734500Y-68528481D01*
X127734500Y-69160752D01*
X127734501Y-69197500D01*
X127734501Y-69866517D01*
X127749354Y-69960304D01*
X127749354Y-69960305D01*
X127758680Y-69978608D01*
X127771484Y-70003737D01*
X127785000Y-70060031D01*
X127785000Y-70427010D01*
X127785001Y-70427011D01*
X127841627Y-70419557D01*
X127841633Y-70419555D01*
X127987587Y-70359100D01*
X127987589Y-70359098D01*
X128115274Y-70261123D01*
X128180443Y-70235929D01*
X128190743Y-70235499D01*
X128366518Y-70235499D01*
X128460304Y-70220646D01*
X128503705Y-70198531D01*
X128572372Y-70185635D01*
X128616292Y-70198530D01*
X128659694Y-70220645D01*
X128659698Y-70220647D01*
X128753475Y-70235499D01*
X128753481Y-70235500D01*
X129016518Y-70235499D01*
X129110304Y-70220646D01*
X129153705Y-70198531D01*
X129222372Y-70185635D01*
X129266292Y-70198530D01*
X129309694Y-70220645D01*
X129309698Y-70220647D01*
X129403475Y-70235499D01*
X129403481Y-70235500D01*
X129666518Y-70235499D01*
X129760304Y-70220646D01*
X129803705Y-70198531D01*
X129872372Y-70185635D01*
X129916292Y-70198530D01*
X129959694Y-70220645D01*
X129959698Y-70220647D01*
X130053475Y-70235499D01*
X130053481Y-70235500D01*
X130316518Y-70235499D01*
X130410304Y-70220646D01*
X130453705Y-70198531D01*
X130522372Y-70185635D01*
X130566292Y-70198530D01*
X130609694Y-70220645D01*
X130609698Y-70220647D01*
X130703475Y-70235499D01*
X130703481Y-70235500D01*
X130966518Y-70235499D01*
X131060304Y-70220646D01*
X131103705Y-70198531D01*
X131172372Y-70185635D01*
X131216292Y-70198530D01*
X131259694Y-70220645D01*
X131259698Y-70220647D01*
X131353475Y-70235499D01*
X131353481Y-70235500D01*
X131616518Y-70235499D01*
X131710304Y-70220646D01*
X131753705Y-70198531D01*
X131822372Y-70185635D01*
X131866292Y-70198530D01*
X131909694Y-70220645D01*
X131909698Y-70220647D01*
X132003475Y-70235499D01*
X132003481Y-70235500D01*
X132266518Y-70235499D01*
X132360304Y-70220646D01*
X132403705Y-70198531D01*
X132472372Y-70185635D01*
X132516292Y-70198530D01*
X132559694Y-70220645D01*
X132559698Y-70220647D01*
X132653475Y-70235499D01*
X132653481Y-70235500D01*
X132916518Y-70235499D01*
X133010304Y-70220646D01*
X133053705Y-70198531D01*
X133122372Y-70185635D01*
X133166292Y-70198530D01*
X133209694Y-70220645D01*
X133209698Y-70220647D01*
X133303475Y-70235499D01*
X133303481Y-70235500D01*
X133566518Y-70235499D01*
X133660304Y-70220646D01*
X133773342Y-70163050D01*
X133863050Y-70073342D01*
X133920646Y-69960304D01*
X133920646Y-69960302D01*
X133920647Y-69960301D01*
X133935499Y-69866524D01*
X133935500Y-69866519D01*
X133935499Y-68528482D01*
X133920646Y-68434696D01*
X133920645Y-68434694D01*
X133920645Y-68434692D01*
X133899015Y-68392241D01*
X133885500Y-68335947D01*
X133885500Y-68189500D01*
X133905185Y-68122461D01*
X133957989Y-68076706D01*
X134009500Y-68065500D01*
X141335500Y-68065500D01*
X141402539Y-68085185D01*
X141448294Y-68137989D01*
X141459500Y-68189500D01*
X141459500Y-88696797D01*
X141439815Y-88763836D01*
X141398654Y-88800744D01*
X141399855Y-88802684D01*
X141213699Y-88917947D01*
X141056127Y-89061593D01*
X140927632Y-89231746D01*
X140832596Y-89422605D01*
X140832596Y-89422607D01*
X140774244Y-89627689D01*
X140763471Y-89743951D01*
X140737685Y-89808888D01*
X140693130Y-89840804D01*
X140729503Y-89861668D01*
X140761693Y-89923681D01*
X140763471Y-89936048D01*
X140774244Y-90052310D01*
X140832595Y-90257389D01*
X140832596Y-90257394D01*
X140927632Y-90448253D01*
X140927634Y-90448255D01*
X141056128Y-90618407D01*
X141213698Y-90762052D01*
X141394981Y-90874298D01*
X141593802Y-90951321D01*
X141790613Y-90988111D01*
X141852893Y-91019779D01*
X141888166Y-91080092D01*
X141885232Y-91149900D01*
X141845023Y-91207040D01*
X141790613Y-91231888D01*
X141593802Y-91268679D01*
X141593799Y-91268679D01*
X141593799Y-91268680D01*
X141394982Y-91345701D01*
X141394980Y-91345702D01*
X141213696Y-91457949D01*
X141115862Y-91547137D01*
X141053058Y-91577754D01*
X141032324Y-91579500D01*
X140247676Y-91579500D01*
X140180637Y-91559815D01*
X140164138Y-91547137D01*
X140066303Y-91457949D01*
X140066302Y-91457948D01*
X139885019Y-91345702D01*
X139885017Y-91345701D01*
X139785608Y-91307190D01*
X139686198Y-91268679D01*
X139489385Y-91231888D01*
X139427106Y-91200221D01*
X139391833Y-91139908D01*
X139394767Y-91070100D01*
X139434976Y-91012960D01*
X139489384Y-90988111D01*
X139686198Y-90951321D01*
X139885019Y-90874298D01*
X140066302Y-90762052D01*
X140223872Y-90618407D01*
X140352366Y-90448255D01*
X140430918Y-90290500D01*
X140447403Y-90257394D01*
X140447405Y-90257389D01*
X140463595Y-90200488D01*
X140505756Y-90052310D01*
X140516529Y-89936047D01*
X140542315Y-89871111D01*
X140586869Y-89839194D01*
X140550497Y-89818331D01*
X140518307Y-89756318D01*
X140516529Y-89743951D01*
X140514743Y-89724673D01*
X140505756Y-89627690D01*
X140447405Y-89422611D01*
X140447403Y-89422606D01*
X140447403Y-89422605D01*
X140352367Y-89231746D01*
X140223872Y-89061593D01*
X140096133Y-88945143D01*
X140066302Y-88917948D01*
X139948530Y-88845026D01*
X139880145Y-88802684D01*
X139881441Y-88800589D01*
X139837969Y-88760257D01*
X139820500Y-88696797D01*
X139820500Y-84700693D01*
X139820500Y-84700691D01*
X139789799Y-84586114D01*
X139789799Y-84586113D01*
X139730489Y-84483386D01*
X138376614Y-83129511D01*
X138325250Y-83099856D01*
X138273888Y-83070201D01*
X138261780Y-83066957D01*
X138249673Y-83063713D01*
X138249670Y-83063712D01*
X138211478Y-83053478D01*
X138159309Y-83039500D01*
X138159308Y-83039500D01*
X133359500Y-83039500D01*
X133292461Y-83019815D01*
X133246706Y-82967011D01*
X133235500Y-82915500D01*
X133235500Y-76152010D01*
X133635000Y-76152010D01*
X133635001Y-76152011D01*
X133691627Y-76144557D01*
X133691633Y-76144555D01*
X133837585Y-76084100D01*
X133962924Y-75987924D01*
X134059100Y-75862586D01*
X134119554Y-75716634D01*
X134119555Y-75716630D01*
X134134999Y-75599330D01*
X134135000Y-75599316D01*
X134135000Y-75122500D01*
X133635000Y-75122500D01*
X133635000Y-76152010D01*
X133235500Y-76152010D01*
X133235500Y-75784051D01*
X133249015Y-75727756D01*
X133254684Y-75716630D01*
X133270646Y-75685304D01*
X133270646Y-75685302D01*
X133270647Y-75685301D01*
X133285499Y-75591524D01*
X133285500Y-75591519D01*
X133285499Y-74722500D01*
X133635000Y-74722500D01*
X134134999Y-74722500D01*
X134134999Y-74559997D01*
X138065034Y-74559997D01*
X138065034Y-74560002D01*
X138084858Y-74786599D01*
X138084860Y-74786610D01*
X138143730Y-75006317D01*
X138143735Y-75006331D01*
X138239863Y-75212478D01*
X138290974Y-75285472D01*
X138970000Y-74606446D01*
X138970000Y-74612661D01*
X138997259Y-74714394D01*
X139049920Y-74805606D01*
X139124394Y-74880080D01*
X139215606Y-74932741D01*
X139317339Y-74960000D01*
X139323553Y-74960000D01*
X138644526Y-75639025D01*
X138717513Y-75690132D01*
X138717521Y-75690136D01*
X138923668Y-75786264D01*
X138923682Y-75786269D01*
X139143389Y-75845139D01*
X139143400Y-75845141D01*
X139369998Y-75864966D01*
X139370002Y-75864966D01*
X139596599Y-75845141D01*
X139596610Y-75845139D01*
X139816317Y-75786269D01*
X139816331Y-75786264D01*
X140022478Y-75690136D01*
X140095471Y-75639024D01*
X139416447Y-74960000D01*
X139422661Y-74960000D01*
X139524394Y-74932741D01*
X139615606Y-74880080D01*
X139690080Y-74805606D01*
X139742741Y-74714394D01*
X139770000Y-74612661D01*
X139770000Y-74606447D01*
X140449024Y-75285471D01*
X140500136Y-75212478D01*
X140596264Y-75006331D01*
X140596269Y-75006317D01*
X140655139Y-74786610D01*
X140655141Y-74786599D01*
X140674966Y-74560002D01*
X140674966Y-74559997D01*
X140655141Y-74333400D01*
X140655139Y-74333389D01*
X140596269Y-74113682D01*
X140596264Y-74113668D01*
X140500136Y-73907521D01*
X140500132Y-73907513D01*
X140449025Y-73834526D01*
X139770000Y-74513551D01*
X139770000Y-74507339D01*
X139742741Y-74405606D01*
X139690080Y-74314394D01*
X139615606Y-74239920D01*
X139524394Y-74187259D01*
X139422661Y-74160000D01*
X139416445Y-74160000D01*
X140095472Y-73480974D01*
X140022478Y-73429863D01*
X139816331Y-73333735D01*
X139816317Y-73333730D01*
X139596610Y-73274860D01*
X139596599Y-73274858D01*
X139370002Y-73255034D01*
X139369998Y-73255034D01*
X139143400Y-73274858D01*
X139143389Y-73274860D01*
X138923682Y-73333730D01*
X138923673Y-73333734D01*
X138717516Y-73429866D01*
X138717512Y-73429868D01*
X138644526Y-73480973D01*
X138644526Y-73480974D01*
X139323553Y-74160000D01*
X139317339Y-74160000D01*
X139215606Y-74187259D01*
X139124394Y-74239920D01*
X139049920Y-74314394D01*
X138997259Y-74405606D01*
X138970000Y-74507339D01*
X138970000Y-74513552D01*
X138290974Y-73834526D01*
X138290973Y-73834526D01*
X138239868Y-73907512D01*
X138239866Y-73907516D01*
X138143734Y-74113673D01*
X138143730Y-74113682D01*
X138084860Y-74333389D01*
X138084858Y-74333400D01*
X138065034Y-74559997D01*
X134134999Y-74559997D01*
X134134999Y-74245675D01*
X134119557Y-74128371D01*
X134119555Y-74128366D01*
X134059100Y-73982414D01*
X133962924Y-73857075D01*
X133837586Y-73760899D01*
X133691631Y-73700444D01*
X133635000Y-73692987D01*
X133635000Y-74722500D01*
X133285499Y-74722500D01*
X133285499Y-74253482D01*
X133270646Y-74159696D01*
X133254685Y-74128371D01*
X133248515Y-74116261D01*
X133235000Y-74059967D01*
X133235000Y-73692987D01*
X133178368Y-73700444D01*
X133032412Y-73760900D01*
X133032410Y-73760901D01*
X132904726Y-73858876D01*
X132839557Y-73884070D01*
X132829241Y-73884500D01*
X132653482Y-73884500D01*
X132559693Y-73899354D01*
X132559691Y-73899355D01*
X132516293Y-73921468D01*
X132447624Y-73934364D01*
X132403706Y-73921468D01*
X132376317Y-73907513D01*
X132360303Y-73899353D01*
X132360299Y-73899352D01*
X132266524Y-73884500D01*
X132003482Y-73884500D01*
X131909693Y-73899354D01*
X131909691Y-73899355D01*
X131866293Y-73921468D01*
X131797624Y-73934364D01*
X131753706Y-73921468D01*
X131726317Y-73907513D01*
X131710303Y-73899353D01*
X131710299Y-73899352D01*
X131616524Y-73884500D01*
X131353482Y-73884500D01*
X131259693Y-73899354D01*
X131259691Y-73899355D01*
X131216293Y-73921468D01*
X131147624Y-73934364D01*
X131103706Y-73921468D01*
X131076317Y-73907513D01*
X131060303Y-73899353D01*
X131060299Y-73899352D01*
X130966524Y-73884500D01*
X130703482Y-73884500D01*
X130609693Y-73899354D01*
X130609691Y-73899355D01*
X130566293Y-73921468D01*
X130497624Y-73934364D01*
X130453706Y-73921468D01*
X130426317Y-73907513D01*
X130410303Y-73899353D01*
X130410299Y-73899352D01*
X130316524Y-73884500D01*
X130053482Y-73884500D01*
X129959693Y-73899354D01*
X129959691Y-73899355D01*
X129916293Y-73921468D01*
X129847624Y-73934364D01*
X129803706Y-73921468D01*
X129776317Y-73907513D01*
X129760303Y-73899353D01*
X129760299Y-73899352D01*
X129666524Y-73884500D01*
X129403482Y-73884500D01*
X129309693Y-73899354D01*
X129309691Y-73899355D01*
X129266293Y-73921468D01*
X129197624Y-73934364D01*
X129153706Y-73921468D01*
X129126317Y-73907513D01*
X129110303Y-73899353D01*
X129110299Y-73899352D01*
X129016524Y-73884500D01*
X128753482Y-73884500D01*
X128659693Y-73899354D01*
X128659691Y-73899355D01*
X128616293Y-73921468D01*
X128547624Y-73934364D01*
X128503706Y-73921468D01*
X128476317Y-73907513D01*
X128460303Y-73899353D01*
X128460299Y-73899352D01*
X128366524Y-73884500D01*
X128190758Y-73884500D01*
X128123719Y-73864815D01*
X128115271Y-73858876D01*
X127987586Y-73760899D01*
X127841631Y-73700444D01*
X127785000Y-73692987D01*
X127785000Y-74059966D01*
X127771485Y-74116260D01*
X127749353Y-74159695D01*
X127749352Y-74159698D01*
X127734500Y-74253475D01*
X127734500Y-74253480D01*
X127734500Y-74253481D01*
X127734500Y-74913553D01*
X127734501Y-74922500D01*
X127734501Y-75591517D01*
X127749354Y-75685304D01*
X127770985Y-75727756D01*
X127784500Y-75784051D01*
X127784500Y-81645500D01*
X127764815Y-81712539D01*
X127712011Y-81758294D01*
X127660500Y-81769500D01*
X120260691Y-81769500D01*
X120170325Y-81793713D01*
X120170324Y-81793712D01*
X120146116Y-81800199D01*
X120146113Y-81800200D01*
X120043386Y-81859511D01*
X120043383Y-81859513D01*
X118689513Y-83213383D01*
X118689509Y-83213389D01*
X118630201Y-83316112D01*
X118630200Y-83316117D01*
X118599500Y-83430691D01*
X118599500Y-88565500D01*
X118579815Y-88632539D01*
X118527011Y-88678294D01*
X118475500Y-88689500D01*
X118155143Y-88689500D01*
X118155117Y-88689502D01*
X118130012Y-88692413D01*
X118130008Y-88692415D01*
X118027235Y-88737793D01*
X117947794Y-88817234D01*
X117902415Y-88920006D01*
X117902415Y-88920008D01*
X117899500Y-88945131D01*
X117899500Y-90734856D01*
X117899502Y-90734882D01*
X117902413Y-90759987D01*
X117902415Y-90759991D01*
X117947793Y-90862764D01*
X117947794Y-90862765D01*
X118027235Y-90942206D01*
X118130009Y-90987585D01*
X118155135Y-90990500D01*
X118883758Y-90990499D01*
X118950795Y-91010183D01*
X118996550Y-91062987D01*
X119006494Y-91132146D01*
X118977469Y-91195702D01*
X118918691Y-91233476D01*
X118906542Y-91236388D01*
X118850116Y-91246935D01*
X118733802Y-91268679D01*
X118733800Y-91268679D01*
X118733798Y-91268680D01*
X118534982Y-91345701D01*
X118534980Y-91345702D01*
X118353696Y-91457949D01*
X118255862Y-91547137D01*
X118193058Y-91577754D01*
X118172324Y-91579500D01*
X110542940Y-91579500D01*
X110475901Y-91559815D01*
X110455259Y-91543181D01*
X105916819Y-87004741D01*
X105883334Y-86943418D01*
X105880500Y-86917060D01*
X105880500Y-78779499D01*
X105900185Y-78712460D01*
X105952989Y-78666705D01*
X106004500Y-78655499D01*
X107104856Y-78655499D01*
X107104864Y-78655499D01*
X107104879Y-78655497D01*
X107104882Y-78655497D01*
X107129987Y-78652586D01*
X107129988Y-78652585D01*
X107129991Y-78652585D01*
X107232765Y-78607206D01*
X107312206Y-78527765D01*
X107357585Y-78424991D01*
X107360500Y-78399865D01*
X107360499Y-76330136D01*
X107360497Y-76330117D01*
X107357586Y-76305012D01*
X107357585Y-76305010D01*
X107357585Y-76305009D01*
X107312206Y-76202235D01*
X107232765Y-76122794D01*
X107232763Y-76122793D01*
X107129992Y-76077415D01*
X107104865Y-76074500D01*
X103055143Y-76074500D01*
X103055117Y-76074502D01*
X103030012Y-76077413D01*
X103030008Y-76077415D01*
X102927235Y-76122793D01*
X102847794Y-76202234D01*
X102802415Y-76305006D01*
X102802415Y-76305008D01*
X102799500Y-76330131D01*
X100050500Y-76330131D01*
X100050500Y-72115000D01*
X102621023Y-72115000D01*
X104469175Y-72115000D01*
X104445364Y-72172485D01*
X104420000Y-72299996D01*
X104420000Y-72430004D01*
X104445364Y-72557515D01*
X104469175Y-72615000D01*
X102621023Y-72615000D01*
X102636688Y-72713905D01*
X102636688Y-72713906D01*
X102709164Y-72936963D01*
X102815638Y-73145930D01*
X102953494Y-73335672D01*
X103119327Y-73501505D01*
X103309069Y-73639361D01*
X103518034Y-73745835D01*
X103741090Y-73818310D01*
X103972735Y-73855000D01*
X104830000Y-73855000D01*
X104830000Y-72975824D01*
X104887485Y-72999636D01*
X105014996Y-73025000D01*
X105145004Y-73025000D01*
X105272515Y-72999636D01*
X105330000Y-72975824D01*
X105330000Y-73855000D01*
X106187265Y-73855000D01*
X106418909Y-73818310D01*
X106641965Y-73745835D01*
X106850930Y-73639361D01*
X107040672Y-73501505D01*
X107206505Y-73335672D01*
X107344361Y-73145930D01*
X107450835Y-72936963D01*
X107523311Y-72713906D01*
X107523311Y-72713905D01*
X107538977Y-72615000D01*
X105690825Y-72615000D01*
X105714636Y-72557515D01*
X105740000Y-72430004D01*
X105740000Y-72299996D01*
X105714636Y-72172485D01*
X105690825Y-72115000D01*
X107538977Y-72115000D01*
X107523311Y-72016094D01*
X107523311Y-72016093D01*
X107450835Y-71793036D01*
X107344361Y-71584069D01*
X107206505Y-71394327D01*
X107040672Y-71228494D01*
X106850930Y-71090638D01*
X106641965Y-70984164D01*
X106418909Y-70911689D01*
X106187265Y-70875000D01*
X105330000Y-70875000D01*
X105330000Y-71754175D01*
X105272515Y-71730364D01*
X105145004Y-71705000D01*
X105014996Y-71705000D01*
X104887485Y-71730364D01*
X104830000Y-71754175D01*
X104830000Y-70875000D01*
X103972735Y-70875000D01*
X103741090Y-70911689D01*
X103518034Y-70984164D01*
X103309069Y-71090638D01*
X103119327Y-71228494D01*
X102953494Y-71394327D01*
X102815638Y-71584069D01*
X102709164Y-71793036D01*
X102636688Y-72016093D01*
X102636688Y-72016094D01*
X102621023Y-72115000D01*
X100050500Y-72115000D01*
X100050500Y-47003480D01*
X100050695Y-46996527D01*
X100059583Y-46838255D01*
X100068656Y-46676700D01*
X100070210Y-46662907D01*
X100123283Y-46350537D01*
X100126377Y-46336985D01*
X100150957Y-46251668D01*
X100214090Y-46032526D01*
X100218682Y-46019406D01*
X100297177Y-45829901D01*
X100339929Y-45726686D01*
X100345951Y-45714180D01*
X100499227Y-45436850D01*
X100506605Y-45425107D01*
X100689972Y-45166676D01*
X100698619Y-45155834D01*
X100909750Y-44919579D01*
X100919581Y-44909749D01*
X100931202Y-44899364D01*
X101155834Y-44698619D01*
X101166676Y-44689972D01*
X101425107Y-44506605D01*
X101436850Y-44499227D01*
X101714180Y-44345951D01*
X101726686Y-44339929D01*
X102019406Y-44218682D01*
X102032526Y-44214090D01*
X102336990Y-44126375D01*
X102350537Y-44123283D01*
X102662907Y-44070210D01*
X102676700Y-44068656D01*
X102996528Y-44050695D01*
X103003481Y-44050500D01*
X103016408Y-44050500D01*
X161983592Y-44050500D01*
X161996519Y-44050500D01*
X162003472Y-44050695D01*
G37*
%TD.AperFunction*%
%TA.AperFunction,NonConductor*%
G36*
X109146282Y-47187788D02*
G01*
X109191144Y-47241353D01*
X109201500Y-47290963D01*
X109201500Y-47495500D01*
X109181815Y-47562539D01*
X109129011Y-47608294D01*
X109077500Y-47619500D01*
X108536243Y-47619500D01*
X108469204Y-47599815D01*
X108423449Y-47547011D01*
X108413505Y-47477853D01*
X108442530Y-47414297D01*
X108501308Y-47376523D01*
X108513441Y-47373614D01*
X108686198Y-47341321D01*
X108885019Y-47264298D01*
X109012224Y-47185535D01*
X109079583Y-47166980D01*
X109146282Y-47187788D01*
G37*
%TD.AperFunction*%
%TA.AperFunction,NonConductor*%
G36*
X110291773Y-47200394D02*
G01*
X110394981Y-47264298D01*
X110593802Y-47341321D01*
X110790613Y-47378111D01*
X110852893Y-47409779D01*
X110888166Y-47470092D01*
X110885232Y-47539900D01*
X110845023Y-47597040D01*
X110790613Y-47621888D01*
X110593802Y-47658679D01*
X110593799Y-47658679D01*
X110593799Y-47658680D01*
X110394982Y-47735701D01*
X110394980Y-47735702D01*
X110319411Y-47782492D01*
X110295417Y-47797350D01*
X110291778Y-47799603D01*
X110224417Y-47818159D01*
X110157718Y-47797350D01*
X110112856Y-47743785D01*
X110102500Y-47694176D01*
X110102500Y-47305823D01*
X110122185Y-47238784D01*
X110174989Y-47193029D01*
X110244147Y-47183085D01*
X110291773Y-47200394D01*
G37*
%TD.AperFunction*%
%TA.AperFunction,NonConductor*%
G36*
X122300828Y-46657051D02*
G01*
X122342705Y-46706651D01*
X122436399Y-46907578D01*
X122571894Y-47101082D01*
X122738917Y-47268105D01*
X122932421Y-47403600D01*
X123131573Y-47496466D01*
X123184012Y-47542638D01*
X123203164Y-47609832D01*
X123182948Y-47676713D01*
X123129783Y-47722048D01*
X123123968Y-47724472D01*
X123116771Y-47727260D01*
X123094982Y-47735701D01*
X123094980Y-47735702D01*
X122913699Y-47847947D01*
X122756127Y-47991593D01*
X122627632Y-48161746D01*
X122532596Y-48352605D01*
X122532596Y-48352607D01*
X122474244Y-48557689D01*
X122463471Y-48673951D01*
X122437685Y-48738888D01*
X122393130Y-48770804D01*
X122429503Y-48791668D01*
X122461693Y-48853681D01*
X122463470Y-48866047D01*
X122474244Y-48982310D01*
X122532595Y-49187389D01*
X122556763Y-49235925D01*
X122598518Y-49319781D01*
X122610778Y-49388566D01*
X122583905Y-49453061D01*
X122526428Y-49492789D01*
X122456598Y-49495135D01*
X122399836Y-49462733D01*
X122193856Y-49256753D01*
X122160371Y-49195430D01*
X122162270Y-49135141D01*
X122205756Y-48982310D01*
X122216529Y-48866047D01*
X122242315Y-48801111D01*
X122286869Y-48769194D01*
X122250497Y-48748331D01*
X122218307Y-48686318D01*
X122216529Y-48673951D01*
X122215849Y-48666613D01*
X122205756Y-48557690D01*
X122147405Y-48352611D01*
X122147403Y-48352606D01*
X122147403Y-48352605D01*
X122052367Y-48161746D01*
X121923872Y-47991593D01*
X121877500Y-47949319D01*
X121766302Y-47847948D01*
X121585019Y-47735702D01*
X121585017Y-47735701D01*
X121477827Y-47694176D01*
X121386198Y-47658679D01*
X121189385Y-47621888D01*
X121127106Y-47590221D01*
X121091833Y-47529908D01*
X121094767Y-47460100D01*
X121134976Y-47402960D01*
X121189384Y-47378111D01*
X121386198Y-47341321D01*
X121585019Y-47264298D01*
X121766302Y-47152052D01*
X121923872Y-47008407D01*
X122052366Y-46838255D01*
X122119325Y-46703781D01*
X122166825Y-46652548D01*
X122234488Y-46635126D01*
X122300828Y-46657051D01*
G37*
%TD.AperFunction*%
%TA.AperFunction,NonConductor*%
G36*
X117220828Y-49197051D02*
G01*
X117262705Y-49246651D01*
X117356399Y-49447578D01*
X117491894Y-49641082D01*
X117658631Y-49807819D01*
X117692116Y-49869142D01*
X117687132Y-49938834D01*
X117645260Y-49994767D01*
X117579796Y-50019184D01*
X117570950Y-50019500D01*
X116747965Y-50019500D01*
X116680926Y-49999815D01*
X116660284Y-49983181D01*
X116601128Y-49924025D01*
X116567643Y-49862702D01*
X116572627Y-49793010D01*
X116614499Y-49737077D01*
X116623516Y-49730927D01*
X116686302Y-49692052D01*
X116843872Y-49548407D01*
X116972366Y-49378255D01*
X117039325Y-49243781D01*
X117086825Y-49192548D01*
X117154488Y-49175126D01*
X117220828Y-49197051D01*
G37*
%TD.AperFunction*%
%TA.AperFunction,NonConductor*%
G36*
X119977541Y-49195276D02*
G01*
X120020676Y-49243785D01*
X120087632Y-49378253D01*
X120144125Y-49453061D01*
X120216128Y-49548407D01*
X120373698Y-49692052D01*
X120554981Y-49804298D01*
X120753802Y-49881321D01*
X120963390Y-49920500D01*
X120963392Y-49920500D01*
X121176608Y-49920500D01*
X121176610Y-49920500D01*
X121386198Y-49881321D01*
X121424752Y-49866384D01*
X121494374Y-49860522D01*
X121556115Y-49893231D01*
X121557227Y-49894330D01*
X122373181Y-50710284D01*
X122406666Y-50771607D01*
X122409500Y-50797965D01*
X122409500Y-54339308D01*
X122433712Y-54429672D01*
X122440200Y-54453885D01*
X122440200Y-54453886D01*
X122461979Y-54491607D01*
X122499511Y-54556614D01*
X123853386Y-55910489D01*
X123956113Y-55969799D01*
X123980321Y-55976284D01*
X123980324Y-55976286D01*
X123980325Y-55976286D01*
X124010447Y-55984357D01*
X124070691Y-56000500D01*
X128972035Y-56000500D01*
X129039074Y-56020185D01*
X129059716Y-56036819D01*
X129993181Y-56970284D01*
X130026666Y-57031607D01*
X130029500Y-57057965D01*
X130029500Y-64346247D01*
X130009815Y-64413286D01*
X129993181Y-64433928D01*
X129872181Y-64554928D01*
X129810858Y-64588413D01*
X129741166Y-64583429D01*
X129685233Y-64541557D01*
X129660816Y-64476093D01*
X129660500Y-64467247D01*
X129660500Y-58030693D01*
X129660500Y-58030691D01*
X129629799Y-57916114D01*
X129629799Y-57916113D01*
X129570489Y-57813386D01*
X128216614Y-56459511D01*
X128158807Y-56426136D01*
X128113888Y-56400201D01*
X128101780Y-56396957D01*
X128089673Y-56393713D01*
X128089670Y-56393712D01*
X128051478Y-56383478D01*
X127999309Y-56369500D01*
X127999308Y-56369500D01*
X123097965Y-56369500D01*
X123030926Y-56349815D01*
X123010284Y-56333181D01*
X122076819Y-55399716D01*
X122043334Y-55338393D01*
X122040500Y-55312035D01*
X122040500Y-51680693D01*
X122040500Y-51680691D01*
X122009799Y-51566114D01*
X122009799Y-51566113D01*
X121950489Y-51463386D01*
X120596614Y-50109511D01*
X120545250Y-50079856D01*
X120493888Y-50050201D01*
X120472606Y-50044499D01*
X120469673Y-50043713D01*
X120469670Y-50043712D01*
X120431478Y-50033478D01*
X120379309Y-50019500D01*
X120379308Y-50019500D01*
X119489050Y-50019500D01*
X119422011Y-49999815D01*
X119376256Y-49947011D01*
X119366312Y-49877853D01*
X119395337Y-49814297D01*
X119401369Y-49807819D01*
X119568105Y-49641082D01*
X119703600Y-49447578D01*
X119797294Y-49246651D01*
X119843466Y-49194212D01*
X119910660Y-49175060D01*
X119977541Y-49195276D01*
G37*
%TD.AperFunction*%
%TA.AperFunction,NonConductor*%
G36*
X114897541Y-46655276D02*
G01*
X114940676Y-46703785D01*
X115007632Y-46838253D01*
X115129779Y-47000000D01*
X115136128Y-47008407D01*
X115293698Y-47152052D01*
X115474981Y-47264298D01*
X115673802Y-47341321D01*
X115870613Y-47378111D01*
X115932893Y-47409779D01*
X115968166Y-47470092D01*
X115965232Y-47539900D01*
X115925023Y-47597040D01*
X115870613Y-47621888D01*
X115673802Y-47658679D01*
X115673799Y-47658679D01*
X115673799Y-47658680D01*
X115474982Y-47735701D01*
X115474980Y-47735702D01*
X115293699Y-47847947D01*
X115136127Y-47991593D01*
X115007632Y-48161746D01*
X114912596Y-48352605D01*
X114912596Y-48352607D01*
X114854244Y-48557689D01*
X114843471Y-48673951D01*
X114817685Y-48738888D01*
X114773130Y-48770804D01*
X114809503Y-48791668D01*
X114841693Y-48853681D01*
X114843470Y-48866047D01*
X114854244Y-48982310D01*
X114907675Y-49170099D01*
X114912596Y-49187392D01*
X114912596Y-49187394D01*
X115007632Y-49378253D01*
X115064125Y-49453061D01*
X115136128Y-49548407D01*
X115293698Y-49692052D01*
X115474981Y-49804298D01*
X115474983Y-49804298D01*
X115479856Y-49807316D01*
X115478553Y-49809419D01*
X115522003Y-49849695D01*
X115539500Y-49913202D01*
X115539500Y-50009308D01*
X115563712Y-50099672D01*
X115570200Y-50123885D01*
X115570200Y-50123886D01*
X115570201Y-50123887D01*
X115629511Y-50226614D01*
X116233386Y-50830489D01*
X116336113Y-50889799D01*
X116360321Y-50896284D01*
X116360324Y-50896286D01*
X116360325Y-50896286D01*
X116390447Y-50904357D01*
X116450691Y-50920500D01*
X120082035Y-50920500D01*
X120149074Y-50940185D01*
X120169716Y-50956819D01*
X121103181Y-51890284D01*
X121136666Y-51951607D01*
X121139500Y-51977965D01*
X121139500Y-55609308D01*
X121163712Y-55699672D01*
X121170200Y-55723885D01*
X121170200Y-55723886D01*
X121180850Y-55742331D01*
X121229511Y-55826614D01*
X122583386Y-57180489D01*
X122686113Y-57239799D01*
X122710321Y-57246284D01*
X122710324Y-57246286D01*
X122710325Y-57246286D01*
X122740447Y-57254357D01*
X122800691Y-57270500D01*
X127702035Y-57270500D01*
X127769074Y-57290185D01*
X127789716Y-57306819D01*
X128723181Y-58240284D01*
X128756666Y-58301607D01*
X128759500Y-58327965D01*
X128759500Y-64909140D01*
X128739815Y-64976179D01*
X128723181Y-64996821D01*
X128602181Y-65117821D01*
X128540858Y-65151306D01*
X128471166Y-65146322D01*
X128415233Y-65104450D01*
X128390816Y-65038986D01*
X128390500Y-65030140D01*
X128390500Y-60570693D01*
X128390500Y-60570691D01*
X128359799Y-60456114D01*
X128359799Y-60456113D01*
X128300489Y-60353386D01*
X126946614Y-58999511D01*
X126879460Y-58960739D01*
X126843888Y-58940201D01*
X126831780Y-58936957D01*
X126819673Y-58933713D01*
X126819670Y-58933712D01*
X126781478Y-58923478D01*
X126729309Y-58909500D01*
X126729308Y-58909500D01*
X126481840Y-58909500D01*
X126414801Y-58889815D01*
X126370841Y-58840773D01*
X126339673Y-58778179D01*
X126216764Y-58615421D01*
X126216762Y-58615418D01*
X126066041Y-58478019D01*
X126066039Y-58478017D01*
X125892642Y-58370655D01*
X125892635Y-58370651D01*
X125714410Y-58301607D01*
X125702456Y-58296976D01*
X125501976Y-58259500D01*
X125298024Y-58259500D01*
X125097544Y-58296976D01*
X125097541Y-58296976D01*
X125097541Y-58296977D01*
X124907364Y-58370651D01*
X124907357Y-58370655D01*
X124733960Y-58478017D01*
X124733958Y-58478019D01*
X124583237Y-58615418D01*
X124460329Y-58778176D01*
X124460327Y-58778179D01*
X124429158Y-58840773D01*
X124381658Y-58892008D01*
X124318160Y-58909500D01*
X121827965Y-58909500D01*
X121760926Y-58889815D01*
X121740284Y-58873181D01*
X120806819Y-57939716D01*
X120773334Y-57878393D01*
X120770500Y-57852035D01*
X120770500Y-52950693D01*
X120770500Y-52950691D01*
X120739799Y-52836114D01*
X120739799Y-52836113D01*
X120680489Y-52733386D01*
X119326614Y-51379511D01*
X119275250Y-51349856D01*
X119223888Y-51320201D01*
X119211780Y-51316957D01*
X119199673Y-51313713D01*
X119199670Y-51313712D01*
X119161478Y-51303478D01*
X119109309Y-51289500D01*
X119109308Y-51289500D01*
X114207965Y-51289500D01*
X114140926Y-51269815D01*
X114120284Y-51253181D01*
X113936819Y-51069716D01*
X113903334Y-51008393D01*
X113900500Y-50982035D01*
X113900500Y-49913202D01*
X113920185Y-49846163D01*
X113961351Y-49809265D01*
X113960144Y-49807316D01*
X113965016Y-49804298D01*
X113965019Y-49804298D01*
X114146302Y-49692052D01*
X114303872Y-49548407D01*
X114432366Y-49378255D01*
X114492866Y-49256753D01*
X114527403Y-49187394D01*
X114527403Y-49187393D01*
X114527405Y-49187389D01*
X114585756Y-48982310D01*
X114596529Y-48866047D01*
X114622315Y-48801111D01*
X114666869Y-48769194D01*
X114630497Y-48748331D01*
X114598307Y-48686318D01*
X114596529Y-48673951D01*
X114595849Y-48666613D01*
X114585756Y-48557690D01*
X114527405Y-48352611D01*
X114527403Y-48352606D01*
X114527403Y-48352605D01*
X114432367Y-48161746D01*
X114303872Y-47991593D01*
X114257500Y-47949319D01*
X114146302Y-47847948D01*
X113965019Y-47735702D01*
X113965014Y-47735700D01*
X113955169Y-47731886D01*
X113936037Y-47724474D01*
X113880636Y-47681903D01*
X113857045Y-47616136D01*
X113872756Y-47548056D01*
X113922779Y-47499276D01*
X113928426Y-47496466D01*
X114127578Y-47403599D01*
X114321082Y-47268105D01*
X114488105Y-47101082D01*
X114623600Y-46907578D01*
X114717294Y-46706651D01*
X114763466Y-46654212D01*
X114830660Y-46635060D01*
X114897541Y-46655276D01*
G37*
%TD.AperFunction*%
%TA.AperFunction,NonConductor*%
G36*
X110291773Y-49740394D02*
G01*
X110394981Y-49804298D01*
X110394983Y-49804298D01*
X110399856Y-49807316D01*
X110398553Y-49809419D01*
X110442003Y-49849695D01*
X110459500Y-49913202D01*
X110459500Y-52549308D01*
X110483712Y-52639672D01*
X110490200Y-52663885D01*
X110490200Y-52663886D01*
X110490201Y-52663887D01*
X110549511Y-52766614D01*
X111153386Y-53370489D01*
X111256113Y-53429799D01*
X111280321Y-53436284D01*
X111280324Y-53436286D01*
X111280325Y-53436286D01*
X111310447Y-53444357D01*
X111370691Y-53460500D01*
X117542035Y-53460500D01*
X117609074Y-53480185D01*
X117629716Y-53496819D01*
X118563181Y-54430284D01*
X118596666Y-54491607D01*
X118599500Y-54517965D01*
X118599500Y-63229308D01*
X118623712Y-63319672D01*
X118630200Y-63343885D01*
X118630200Y-63343886D01*
X118630201Y-63343887D01*
X118689511Y-63446614D01*
X120043386Y-64800489D01*
X120146113Y-64859799D01*
X120170321Y-64866284D01*
X120170324Y-64866286D01*
X120170325Y-64866286D01*
X120199778Y-64874178D01*
X120260691Y-64890500D01*
X124318160Y-64890500D01*
X124385199Y-64910185D01*
X124429158Y-64959226D01*
X124460327Y-65021821D01*
X124497494Y-65071038D01*
X124583237Y-65184581D01*
X124733958Y-65321980D01*
X124733960Y-65321982D01*
X124793734Y-65358992D01*
X124907363Y-65429348D01*
X125017552Y-65472035D01*
X125102890Y-65505095D01*
X125102145Y-65507015D01*
X125153496Y-65539382D01*
X125183078Y-65602681D01*
X125184500Y-65621405D01*
X125184500Y-66406561D01*
X125164815Y-66473600D01*
X125112011Y-66519355D01*
X125052436Y-66528285D01*
X125052436Y-66529500D01*
X125044331Y-66529500D01*
X125044324Y-66529501D01*
X125044316Y-66529500D01*
X125044309Y-66529500D01*
X119287965Y-66529500D01*
X119220926Y-66509815D01*
X119200284Y-66493181D01*
X118266819Y-65559716D01*
X118233334Y-65498393D01*
X118230500Y-65472035D01*
X118230500Y-55490693D01*
X118230500Y-55490691D01*
X118199799Y-55376114D01*
X118199799Y-55376113D01*
X118140489Y-55273386D01*
X116786614Y-53919511D01*
X116735250Y-53889856D01*
X116683888Y-53860201D01*
X116671780Y-53856957D01*
X116659673Y-53853713D01*
X116659670Y-53853712D01*
X116621478Y-53843478D01*
X116569309Y-53829500D01*
X116569308Y-53829500D01*
X110397965Y-53829500D01*
X110330926Y-53809815D01*
X110310284Y-53793181D01*
X110138819Y-53621716D01*
X110105334Y-53560393D01*
X110102500Y-53534035D01*
X110102500Y-49845823D01*
X110122185Y-49778784D01*
X110174989Y-49733029D01*
X110244147Y-49723085D01*
X110291773Y-49740394D01*
G37*
%TD.AperFunction*%
%TA.AperFunction,NonConductor*%
G36*
X112140828Y-46657051D02*
G01*
X112182705Y-46706651D01*
X112276399Y-46907578D01*
X112411894Y-47101082D01*
X112578917Y-47268105D01*
X112772421Y-47403600D01*
X112971573Y-47496466D01*
X113024012Y-47542638D01*
X113043164Y-47609832D01*
X113022948Y-47676713D01*
X112969783Y-47722048D01*
X112963968Y-47724472D01*
X112956771Y-47727260D01*
X112934982Y-47735701D01*
X112934980Y-47735702D01*
X112753699Y-47847947D01*
X112596127Y-47991593D01*
X112467632Y-48161746D01*
X112372596Y-48352605D01*
X112372596Y-48352607D01*
X112314244Y-48557689D01*
X112303471Y-48673951D01*
X112277685Y-48738888D01*
X112233130Y-48770804D01*
X112269503Y-48791668D01*
X112301693Y-48853681D01*
X112303470Y-48866047D01*
X112314244Y-48982310D01*
X112367675Y-49170099D01*
X112372596Y-49187392D01*
X112372596Y-49187394D01*
X112467632Y-49378253D01*
X112524125Y-49453061D01*
X112596128Y-49548407D01*
X112753698Y-49692052D01*
X112934981Y-49804298D01*
X112934983Y-49804298D01*
X112939856Y-49807316D01*
X112938553Y-49809419D01*
X112982003Y-49849695D01*
X112999500Y-49913202D01*
X112999500Y-51279308D01*
X113023712Y-51369672D01*
X113030200Y-51393885D01*
X113030200Y-51393886D01*
X113030201Y-51393887D01*
X113089511Y-51496614D01*
X113693386Y-52100489D01*
X113796113Y-52159799D01*
X113820321Y-52166284D01*
X113820324Y-52166286D01*
X113820325Y-52166286D01*
X113850447Y-52174357D01*
X113910691Y-52190500D01*
X118812035Y-52190500D01*
X118879074Y-52210185D01*
X118899716Y-52226819D01*
X119833181Y-53160284D01*
X119866666Y-53221607D01*
X119869500Y-53247965D01*
X119869500Y-58149308D01*
X119893712Y-58239672D01*
X119900200Y-58263885D01*
X119900200Y-58263886D01*
X119919305Y-58296976D01*
X119959511Y-58366614D01*
X121313386Y-59720489D01*
X121416113Y-59779799D01*
X121440321Y-59786284D01*
X121440324Y-59786286D01*
X121440325Y-59786286D01*
X121470447Y-59794357D01*
X121530691Y-59810500D01*
X124318160Y-59810500D01*
X124385199Y-59830185D01*
X124429158Y-59879226D01*
X124460327Y-59941821D01*
X124460329Y-59941823D01*
X124583237Y-60104581D01*
X124733958Y-60241980D01*
X124733960Y-60241982D01*
X124833141Y-60303392D01*
X124907363Y-60349348D01*
X125097544Y-60423024D01*
X125298024Y-60460500D01*
X125298026Y-60460500D01*
X125501974Y-60460500D01*
X125501976Y-60460500D01*
X125702456Y-60423024D01*
X125892637Y-60349348D01*
X126066041Y-60241981D01*
X126216764Y-60104579D01*
X126339673Y-59941821D01*
X126354284Y-59912477D01*
X126401785Y-59861241D01*
X126469448Y-59843819D01*
X126535789Y-59865744D01*
X126552965Y-59880068D01*
X127453181Y-60780284D01*
X127486666Y-60841607D01*
X127489500Y-60867965D01*
X127489500Y-65472035D01*
X127469815Y-65539074D01*
X127453181Y-65559716D01*
X126297181Y-66715716D01*
X126235858Y-66749201D01*
X126166166Y-66744217D01*
X126110233Y-66702345D01*
X126085816Y-66636881D01*
X126085500Y-66628035D01*
X126085500Y-65358992D01*
X126105185Y-65291953D01*
X126125963Y-65267354D01*
X126141802Y-65252915D01*
X126216764Y-65184579D01*
X126339673Y-65021821D01*
X126430582Y-64839250D01*
X126486397Y-64643083D01*
X126505215Y-64440000D01*
X126486397Y-64236917D01*
X126430582Y-64040750D01*
X126417119Y-64013713D01*
X126370840Y-63920771D01*
X126339673Y-63858179D01*
X126216764Y-63695421D01*
X126216762Y-63695418D01*
X126066041Y-63558019D01*
X126066039Y-63558017D01*
X125892642Y-63450655D01*
X125892635Y-63450651D01*
X125784844Y-63408893D01*
X125702456Y-63376976D01*
X125501976Y-63339500D01*
X125298024Y-63339500D01*
X125097544Y-63376976D01*
X125097541Y-63376976D01*
X125097541Y-63376977D01*
X124907364Y-63450651D01*
X124907357Y-63450655D01*
X124733960Y-63558017D01*
X124733958Y-63558019D01*
X124583237Y-63695418D01*
X124460329Y-63858176D01*
X124460327Y-63858179D01*
X124429158Y-63920773D01*
X124381658Y-63972008D01*
X124318160Y-63989500D01*
X120557965Y-63989500D01*
X120490926Y-63969815D01*
X120470284Y-63953181D01*
X119536819Y-63019716D01*
X119503334Y-62958393D01*
X119500500Y-62932035D01*
X119500500Y-54220693D01*
X119500500Y-54220691D01*
X119469799Y-54106114D01*
X119469799Y-54106113D01*
X119410489Y-54003386D01*
X118056614Y-52649511D01*
X118005250Y-52619856D01*
X117953888Y-52590201D01*
X117941780Y-52586957D01*
X117929673Y-52583713D01*
X117929670Y-52583712D01*
X117891478Y-52573478D01*
X117839309Y-52559500D01*
X117839308Y-52559500D01*
X111667965Y-52559500D01*
X111600926Y-52539815D01*
X111580284Y-52523181D01*
X111396819Y-52339716D01*
X111363334Y-52278393D01*
X111360500Y-52252035D01*
X111360500Y-49913202D01*
X111380185Y-49846163D01*
X111421351Y-49809265D01*
X111420144Y-49807316D01*
X111425016Y-49804298D01*
X111425019Y-49804298D01*
X111606302Y-49692052D01*
X111763872Y-49548407D01*
X111892366Y-49378255D01*
X111952866Y-49256753D01*
X111987403Y-49187394D01*
X111987403Y-49187393D01*
X111987405Y-49187389D01*
X112045756Y-48982310D01*
X112056529Y-48866047D01*
X112082315Y-48801111D01*
X112126869Y-48769194D01*
X112090497Y-48748331D01*
X112058307Y-48686318D01*
X112056529Y-48673951D01*
X112055849Y-48666613D01*
X112045756Y-48557690D01*
X111987405Y-48352611D01*
X111987403Y-48352606D01*
X111987403Y-48352605D01*
X111892367Y-48161746D01*
X111763872Y-47991593D01*
X111717500Y-47949319D01*
X111606302Y-47847948D01*
X111425019Y-47735702D01*
X111425017Y-47735701D01*
X111317827Y-47694176D01*
X111226198Y-47658679D01*
X111029385Y-47621888D01*
X110967106Y-47590221D01*
X110931833Y-47529908D01*
X110934767Y-47460100D01*
X110974976Y-47402960D01*
X111029384Y-47378111D01*
X111226198Y-47341321D01*
X111425019Y-47264298D01*
X111606302Y-47152052D01*
X111763872Y-47008407D01*
X111892366Y-46838255D01*
X111959325Y-46703781D01*
X112006825Y-46652548D01*
X112074488Y-46635126D01*
X112140828Y-46657051D01*
G37*
%TD.AperFunction*%
%TA.AperFunction,NonConductor*%
G36*
X132140703Y-84518252D02*
G01*
X132147181Y-84524284D01*
X132743386Y-85120489D01*
X132846113Y-85179799D01*
X132870321Y-85186284D01*
X132870324Y-85186286D01*
X132870325Y-85186286D01*
X132900447Y-85194357D01*
X132960691Y-85210500D01*
X135322035Y-85210500D01*
X135389074Y-85230185D01*
X135409716Y-85246819D01*
X136343181Y-86180284D01*
X136376666Y-86241607D01*
X136379500Y-86267965D01*
X136379500Y-88696797D01*
X136359815Y-88763836D01*
X136318654Y-88800744D01*
X136319855Y-88802684D01*
X136133699Y-88917947D01*
X135976127Y-89061593D01*
X135847632Y-89231746D01*
X135752596Y-89422605D01*
X135752596Y-89422607D01*
X135694244Y-89627689D01*
X135687970Y-89695394D01*
X135662183Y-89760331D01*
X135605383Y-89801018D01*
X135535602Y-89804538D01*
X135474995Y-89769772D01*
X135442806Y-89707759D01*
X135440499Y-89683952D01*
X135440499Y-88945143D01*
X135440499Y-88945136D01*
X135440497Y-88945117D01*
X135437586Y-88920012D01*
X135437585Y-88920010D01*
X135437585Y-88920009D01*
X135392206Y-88817235D01*
X135312765Y-88737794D01*
X135312763Y-88737793D01*
X135209992Y-88692415D01*
X135184865Y-88689500D01*
X133395143Y-88689500D01*
X133395117Y-88689502D01*
X133370012Y-88692413D01*
X133370008Y-88692415D01*
X133267235Y-88737793D01*
X133187794Y-88817234D01*
X133142415Y-88920006D01*
X133142415Y-88920008D01*
X133139500Y-88945131D01*
X133139500Y-89265500D01*
X133119815Y-89332539D01*
X133067011Y-89378294D01*
X133015500Y-89389500D01*
X132059500Y-89389500D01*
X131992461Y-89369815D01*
X131946706Y-89317011D01*
X131935500Y-89265500D01*
X131935500Y-84611965D01*
X131955185Y-84544926D01*
X132007989Y-84499171D01*
X132077147Y-84489227D01*
X132140703Y-84518252D01*
G37*
%TD.AperFunction*%
%TA.AperFunction,NonConductor*%
G36*
X127890073Y-82690185D02*
G01*
X127935828Y-82742989D01*
X127945772Y-82812147D01*
X127916747Y-82875703D01*
X127910725Y-82882170D01*
X127789714Y-83003182D01*
X127728394Y-83036666D01*
X127702035Y-83039500D01*
X122800691Y-83039500D01*
X122710325Y-83063713D01*
X122710324Y-83063712D01*
X122686116Y-83070199D01*
X122686113Y-83070200D01*
X122583386Y-83129511D01*
X122583383Y-83129513D01*
X121229513Y-84483383D01*
X121229509Y-84483389D01*
X121170201Y-84586112D01*
X121170200Y-84586117D01*
X121139500Y-84700691D01*
X121139500Y-88696797D01*
X121119815Y-88763836D01*
X121078654Y-88800744D01*
X121079855Y-88802684D01*
X120893699Y-88917947D01*
X120736127Y-89061593D01*
X120607632Y-89231746D01*
X120512596Y-89422605D01*
X120512596Y-89422607D01*
X120454244Y-89627689D01*
X120447970Y-89695394D01*
X120422183Y-89760331D01*
X120365383Y-89801018D01*
X120295602Y-89804538D01*
X120234995Y-89769772D01*
X120202806Y-89707759D01*
X120200499Y-89683952D01*
X120200499Y-88945143D01*
X120200499Y-88945136D01*
X120200497Y-88945117D01*
X120197586Y-88920012D01*
X120197585Y-88920010D01*
X120197585Y-88920009D01*
X120152206Y-88817235D01*
X120072765Y-88737794D01*
X120072763Y-88737793D01*
X119969992Y-88692415D01*
X119944868Y-88689500D01*
X119944865Y-88689500D01*
X119624500Y-88689500D01*
X119557461Y-88669815D01*
X119511706Y-88617011D01*
X119500500Y-88565500D01*
X119500500Y-83727965D01*
X119520185Y-83660926D01*
X119536819Y-83640284D01*
X120470284Y-82706819D01*
X120531607Y-82673334D01*
X120557965Y-82670500D01*
X127823034Y-82670500D01*
X127890073Y-82690185D01*
G37*
%TD.AperFunction*%
%TA.AperFunction,NonConductor*%
G36*
X137929074Y-83960185D02*
G01*
X137949716Y-83976819D01*
X138883181Y-84910284D01*
X138916666Y-84971607D01*
X138919500Y-84997965D01*
X138919500Y-88696797D01*
X138899815Y-88763836D01*
X138858654Y-88800744D01*
X138859855Y-88802684D01*
X138673699Y-88917947D01*
X138516127Y-89061593D01*
X138387632Y-89231746D01*
X138292596Y-89422605D01*
X138292596Y-89422607D01*
X138234244Y-89627689D01*
X138223471Y-89743951D01*
X138197685Y-89808888D01*
X138153130Y-89840804D01*
X138189503Y-89861668D01*
X138221693Y-89923681D01*
X138223471Y-89936048D01*
X138234244Y-90052310D01*
X138292595Y-90257389D01*
X138292596Y-90257394D01*
X138387632Y-90448253D01*
X138387634Y-90448255D01*
X138516128Y-90618407D01*
X138673698Y-90762052D01*
X138854981Y-90874298D01*
X139053802Y-90951321D01*
X139250613Y-90988111D01*
X139312893Y-91019779D01*
X139348166Y-91080092D01*
X139345232Y-91149900D01*
X139305023Y-91207040D01*
X139250613Y-91231888D01*
X139053802Y-91268679D01*
X139053799Y-91268679D01*
X139053799Y-91268680D01*
X138854982Y-91345701D01*
X138854980Y-91345702D01*
X138673696Y-91457949D01*
X138575862Y-91547137D01*
X138513058Y-91577754D01*
X138492324Y-91579500D01*
X137707676Y-91579500D01*
X137640637Y-91559815D01*
X137624138Y-91547137D01*
X137526303Y-91457949D01*
X137526302Y-91457948D01*
X137345019Y-91345702D01*
X137345017Y-91345701D01*
X137245608Y-91307190D01*
X137146198Y-91268679D01*
X136949385Y-91231888D01*
X136887106Y-91200221D01*
X136851833Y-91139908D01*
X136854767Y-91070100D01*
X136894976Y-91012960D01*
X136949384Y-90988111D01*
X137146198Y-90951321D01*
X137345019Y-90874298D01*
X137526302Y-90762052D01*
X137683872Y-90618407D01*
X137812366Y-90448255D01*
X137890918Y-90290500D01*
X137907403Y-90257394D01*
X137907405Y-90257389D01*
X137923595Y-90200488D01*
X137965756Y-90052310D01*
X137976529Y-89936047D01*
X138002315Y-89871111D01*
X138046869Y-89839194D01*
X138010497Y-89818331D01*
X137978307Y-89756318D01*
X137976529Y-89743951D01*
X137974743Y-89724673D01*
X137965756Y-89627690D01*
X137907405Y-89422611D01*
X137907403Y-89422606D01*
X137907403Y-89422605D01*
X137812367Y-89231746D01*
X137683872Y-89061593D01*
X137556133Y-88945143D01*
X137526302Y-88917948D01*
X137408530Y-88845026D01*
X137340145Y-88802684D01*
X137341441Y-88800589D01*
X137297969Y-88760257D01*
X137280500Y-88696797D01*
X137280500Y-85970693D01*
X137280500Y-85970691D01*
X137249799Y-85856114D01*
X137249799Y-85856113D01*
X137190489Y-85753386D01*
X135836614Y-84399511D01*
X135785250Y-84369856D01*
X135733888Y-84340201D01*
X135721780Y-84336957D01*
X135709673Y-84333713D01*
X135709670Y-84333712D01*
X135668721Y-84322740D01*
X135619309Y-84309500D01*
X135619308Y-84309500D01*
X133257965Y-84309500D01*
X133190926Y-84289815D01*
X133170284Y-84273181D01*
X133049284Y-84152181D01*
X133015799Y-84090858D01*
X133020783Y-84021166D01*
X133062655Y-83965233D01*
X133128119Y-83940816D01*
X133136965Y-83940500D01*
X137862035Y-83940500D01*
X137929074Y-83960185D01*
G37*
%TD.AperFunction*%
%TA.AperFunction,NonConductor*%
G36*
X135645702Y-89902335D02*
G01*
X135683476Y-89961113D01*
X135687970Y-89984606D01*
X135694244Y-90052310D01*
X135752595Y-90257389D01*
X135752596Y-90257394D01*
X135847632Y-90448253D01*
X135847634Y-90448255D01*
X135976128Y-90618407D01*
X136133698Y-90762052D01*
X136314981Y-90874298D01*
X136513802Y-90951321D01*
X136710613Y-90988111D01*
X136772893Y-91019779D01*
X136808166Y-91080092D01*
X136805232Y-91149900D01*
X136765023Y-91207040D01*
X136710613Y-91231888D01*
X136513802Y-91268679D01*
X136513799Y-91268679D01*
X136513799Y-91268680D01*
X136314982Y-91345701D01*
X136314980Y-91345702D01*
X136133696Y-91457949D01*
X136035862Y-91547137D01*
X135973058Y-91577754D01*
X135952324Y-91579500D01*
X135167676Y-91579500D01*
X135100637Y-91559815D01*
X135084138Y-91547137D01*
X134986303Y-91457949D01*
X134986302Y-91457948D01*
X134805019Y-91345702D01*
X134805017Y-91345701D01*
X134705608Y-91307190D01*
X134606198Y-91268679D01*
X134433456Y-91236387D01*
X134371176Y-91204719D01*
X134335903Y-91144407D01*
X134338837Y-91074599D01*
X134379046Y-91017459D01*
X134443764Y-90991128D01*
X134456233Y-90990499D01*
X135184864Y-90990499D01*
X135184879Y-90990497D01*
X135184882Y-90990497D01*
X135209987Y-90987586D01*
X135209988Y-90987585D01*
X135209991Y-90987585D01*
X135312765Y-90942206D01*
X135392206Y-90862765D01*
X135437585Y-90759991D01*
X135440500Y-90734865D01*
X135440499Y-89996046D01*
X135460183Y-89929009D01*
X135512987Y-89883254D01*
X135582146Y-89873310D01*
X135645702Y-89902335D01*
G37*
%TD.AperFunction*%
%TA.AperFunction,NonConductor*%
G36*
X130977539Y-75980184D02*
G01*
X131023294Y-76032988D01*
X131034500Y-76084499D01*
X131034500Y-89634308D01*
X131058712Y-89724672D01*
X131065200Y-89748885D01*
X131065200Y-89748886D01*
X131065201Y-89748887D01*
X131124511Y-89851614D01*
X131473386Y-90200490D01*
X131571936Y-90257387D01*
X131571939Y-90257390D01*
X131576110Y-90259797D01*
X131576111Y-90259797D01*
X131576114Y-90259799D01*
X131690691Y-90290500D01*
X133015501Y-90290500D01*
X133082540Y-90310185D01*
X133128295Y-90362989D01*
X133139501Y-90414500D01*
X133139501Y-90734856D01*
X133139502Y-90734882D01*
X133142413Y-90759987D01*
X133142415Y-90759991D01*
X133187793Y-90862764D01*
X133187794Y-90862765D01*
X133267235Y-90942206D01*
X133370009Y-90987585D01*
X133395135Y-90990500D01*
X134123758Y-90990499D01*
X134190795Y-91010183D01*
X134236550Y-91062987D01*
X134246494Y-91132146D01*
X134217469Y-91195702D01*
X134158691Y-91233476D01*
X134146542Y-91236388D01*
X134090116Y-91246935D01*
X133973802Y-91268679D01*
X133973800Y-91268679D01*
X133973798Y-91268680D01*
X133774982Y-91345701D01*
X133774980Y-91345702D01*
X133593696Y-91457949D01*
X133495862Y-91547137D01*
X133433058Y-91577754D01*
X133412324Y-91579500D01*
X127547676Y-91579500D01*
X127480637Y-91559815D01*
X127464138Y-91547137D01*
X127366303Y-91457949D01*
X127366302Y-91457948D01*
X127185019Y-91345702D01*
X127185017Y-91345701D01*
X127085608Y-91307190D01*
X126986198Y-91268679D01*
X126789385Y-91231888D01*
X126727106Y-91200221D01*
X126691833Y-91139908D01*
X126694767Y-91070100D01*
X126734976Y-91012960D01*
X126789384Y-90988111D01*
X126986198Y-90951321D01*
X127185019Y-90874298D01*
X127366302Y-90762052D01*
X127523872Y-90618407D01*
X127652366Y-90448255D01*
X127730918Y-90290500D01*
X127747403Y-90257394D01*
X127747405Y-90257389D01*
X127763595Y-90200488D01*
X127805756Y-90052310D01*
X127825429Y-89840000D01*
X127805756Y-89627690D01*
X127747405Y-89422611D01*
X127747403Y-89422606D01*
X127747403Y-89422605D01*
X127652367Y-89231746D01*
X127523872Y-89061593D01*
X127396133Y-88945143D01*
X127366302Y-88917948D01*
X127248530Y-88845026D01*
X127180145Y-88802684D01*
X127181441Y-88800589D01*
X127137969Y-88760257D01*
X127120500Y-88696797D01*
X127120500Y-87537965D01*
X127140185Y-87470926D01*
X127156819Y-87450284D01*
X128090284Y-86516819D01*
X128151607Y-86483334D01*
X128177965Y-86480500D01*
X129269308Y-86480500D01*
X129269309Y-86480500D01*
X129359673Y-86456286D01*
X129383887Y-86449799D01*
X129486614Y-86390489D01*
X130545489Y-85331614D01*
X130604799Y-85228887D01*
X130617952Y-85179799D01*
X130635500Y-85114309D01*
X130635500Y-76084499D01*
X130655185Y-76017460D01*
X130707989Y-75971705D01*
X130759496Y-75960499D01*
X130910500Y-75960499D01*
X130977539Y-75980184D01*
G37*
%TD.AperFunction*%
%TA.AperFunction,NonConductor*%
G36*
X129653834Y-83757156D02*
G01*
X129709767Y-83799028D01*
X129734184Y-83864492D01*
X129734500Y-83873338D01*
X129734500Y-84817035D01*
X129714815Y-84884074D01*
X129698181Y-84904716D01*
X129059716Y-85543181D01*
X128998393Y-85576666D01*
X128972035Y-85579500D01*
X127880691Y-85579500D01*
X127790325Y-85603713D01*
X127790324Y-85603712D01*
X127766116Y-85610199D01*
X127766113Y-85610200D01*
X127663386Y-85669511D01*
X127663383Y-85669513D01*
X126309513Y-87023383D01*
X126309509Y-87023389D01*
X126250201Y-87126112D01*
X126250200Y-87126117D01*
X126219500Y-87240691D01*
X126219500Y-88696797D01*
X126199815Y-88763836D01*
X126158654Y-88800744D01*
X126159855Y-88802684D01*
X125973699Y-88917947D01*
X125816127Y-89061593D01*
X125687632Y-89231746D01*
X125592596Y-89422605D01*
X125592596Y-89422607D01*
X125534244Y-89627689D01*
X125523471Y-89743951D01*
X125497685Y-89808888D01*
X125453130Y-89840804D01*
X125489503Y-89861668D01*
X125521693Y-89923681D01*
X125523471Y-89936048D01*
X125534244Y-90052310D01*
X125592595Y-90257389D01*
X125592596Y-90257394D01*
X125687632Y-90448253D01*
X125687634Y-90448255D01*
X125816128Y-90618407D01*
X125973698Y-90762052D01*
X126154981Y-90874298D01*
X126353802Y-90951321D01*
X126550613Y-90988111D01*
X126612893Y-91019779D01*
X126648166Y-91080092D01*
X126645232Y-91149900D01*
X126605023Y-91207040D01*
X126550613Y-91231888D01*
X126353802Y-91268679D01*
X126353799Y-91268679D01*
X126353799Y-91268680D01*
X126154982Y-91345701D01*
X126154980Y-91345702D01*
X125973696Y-91457949D01*
X125875862Y-91547137D01*
X125813058Y-91577754D01*
X125792324Y-91579500D01*
X125007676Y-91579500D01*
X124940637Y-91559815D01*
X124924138Y-91547137D01*
X124826303Y-91457949D01*
X124826302Y-91457948D01*
X124645019Y-91345702D01*
X124645017Y-91345701D01*
X124545608Y-91307190D01*
X124446198Y-91268679D01*
X124249385Y-91231888D01*
X124187106Y-91200221D01*
X124151833Y-91139908D01*
X124154767Y-91070100D01*
X124194976Y-91012960D01*
X124249384Y-90988111D01*
X124446198Y-90951321D01*
X124645019Y-90874298D01*
X124826302Y-90762052D01*
X124983872Y-90618407D01*
X125112366Y-90448255D01*
X125190918Y-90290500D01*
X125207403Y-90257394D01*
X125207405Y-90257389D01*
X125223595Y-90200488D01*
X125265756Y-90052310D01*
X125276529Y-89936047D01*
X125302315Y-89871111D01*
X125346869Y-89839194D01*
X125310497Y-89818331D01*
X125278307Y-89756318D01*
X125276529Y-89743951D01*
X125274743Y-89724673D01*
X125265756Y-89627690D01*
X125207405Y-89422611D01*
X125207403Y-89422606D01*
X125207403Y-89422605D01*
X125112367Y-89231746D01*
X124983872Y-89061593D01*
X124856133Y-88945143D01*
X124826302Y-88917948D01*
X124708530Y-88845026D01*
X124640145Y-88802684D01*
X124641441Y-88800589D01*
X124597969Y-88760257D01*
X124580500Y-88696797D01*
X124580500Y-86267965D01*
X124600185Y-86200926D01*
X124616819Y-86180284D01*
X125561256Y-85235847D01*
X125622579Y-85202362D01*
X125648937Y-85199528D01*
X127981653Y-85199528D01*
X127981654Y-85199528D01*
X128052925Y-85180429D01*
X128072011Y-85175316D01*
X128072012Y-85175315D01*
X128072018Y-85175314D01*
X128096232Y-85168827D01*
X128198959Y-85109517D01*
X129522819Y-83785657D01*
X129584142Y-83752172D01*
X129653834Y-83757156D01*
G37*
%TD.AperFunction*%
%TA.AperFunction,NonConductor*%
G36*
X127861447Y-83960185D02*
G01*
X127907202Y-84012989D01*
X127917146Y-84082147D01*
X127888121Y-84145703D01*
X127882089Y-84152181D01*
X127772061Y-84262209D01*
X127710738Y-84295694D01*
X127684380Y-84298528D01*
X125351663Y-84298528D01*
X125261297Y-84322741D01*
X125261296Y-84322740D01*
X125237088Y-84329227D01*
X125237085Y-84329228D01*
X125134358Y-84388539D01*
X125134355Y-84388541D01*
X123769513Y-85753383D01*
X123769509Y-85753389D01*
X123710201Y-85856112D01*
X123710200Y-85856117D01*
X123679500Y-85970691D01*
X123679500Y-88696797D01*
X123659815Y-88763836D01*
X123618654Y-88800744D01*
X123619855Y-88802684D01*
X123433699Y-88917947D01*
X123276127Y-89061593D01*
X123147632Y-89231746D01*
X123052596Y-89422605D01*
X123052596Y-89422607D01*
X122994244Y-89627689D01*
X122983471Y-89743951D01*
X122957685Y-89808888D01*
X122913130Y-89840804D01*
X122949503Y-89861668D01*
X122981693Y-89923681D01*
X122983471Y-89936048D01*
X122994244Y-90052310D01*
X123052595Y-90257389D01*
X123052596Y-90257394D01*
X123147632Y-90448253D01*
X123147634Y-90448255D01*
X123276128Y-90618407D01*
X123433698Y-90762052D01*
X123614981Y-90874298D01*
X123813802Y-90951321D01*
X124010613Y-90988111D01*
X124072893Y-91019779D01*
X124108166Y-91080092D01*
X124105232Y-91149900D01*
X124065023Y-91207040D01*
X124010613Y-91231888D01*
X123813802Y-91268679D01*
X123813799Y-91268679D01*
X123813799Y-91268680D01*
X123614982Y-91345701D01*
X123614980Y-91345702D01*
X123433696Y-91457949D01*
X123335862Y-91547137D01*
X123273058Y-91577754D01*
X123252324Y-91579500D01*
X122467676Y-91579500D01*
X122400637Y-91559815D01*
X122384138Y-91547137D01*
X122286303Y-91457949D01*
X122286302Y-91457948D01*
X122105019Y-91345702D01*
X122105017Y-91345701D01*
X122005608Y-91307190D01*
X121906198Y-91268679D01*
X121709385Y-91231888D01*
X121647106Y-91200221D01*
X121611833Y-91139908D01*
X121614767Y-91070100D01*
X121654976Y-91012960D01*
X121709384Y-90988111D01*
X121906198Y-90951321D01*
X122105019Y-90874298D01*
X122286302Y-90762052D01*
X122443872Y-90618407D01*
X122572366Y-90448255D01*
X122650918Y-90290500D01*
X122667403Y-90257394D01*
X122667405Y-90257389D01*
X122683595Y-90200488D01*
X122725756Y-90052310D01*
X122736529Y-89936047D01*
X122762315Y-89871111D01*
X122806869Y-89839194D01*
X122770497Y-89818331D01*
X122738307Y-89756318D01*
X122736529Y-89743951D01*
X122734743Y-89724673D01*
X122725756Y-89627690D01*
X122667405Y-89422611D01*
X122667403Y-89422606D01*
X122667403Y-89422605D01*
X122572367Y-89231746D01*
X122443872Y-89061593D01*
X122316133Y-88945143D01*
X122286302Y-88917948D01*
X122168530Y-88845026D01*
X122100145Y-88802684D01*
X122101441Y-88800589D01*
X122057969Y-88760257D01*
X122040500Y-88696797D01*
X122040500Y-84997965D01*
X122060185Y-84930926D01*
X122076819Y-84910284D01*
X123010284Y-83976819D01*
X123071607Y-83943334D01*
X123097965Y-83940500D01*
X127794408Y-83940500D01*
X127861447Y-83960185D01*
G37*
%TD.AperFunction*%
%TA.AperFunction,NonConductor*%
G36*
X120405702Y-89902335D02*
G01*
X120443476Y-89961113D01*
X120447970Y-89984606D01*
X120454244Y-90052310D01*
X120512595Y-90257389D01*
X120512596Y-90257394D01*
X120607632Y-90448253D01*
X120607634Y-90448255D01*
X120736128Y-90618407D01*
X120893698Y-90762052D01*
X121074981Y-90874298D01*
X121273802Y-90951321D01*
X121470613Y-90988111D01*
X121532893Y-91019779D01*
X121568166Y-91080092D01*
X121565232Y-91149900D01*
X121525023Y-91207040D01*
X121470613Y-91231888D01*
X121273802Y-91268679D01*
X121273799Y-91268679D01*
X121273799Y-91268680D01*
X121074982Y-91345701D01*
X121074980Y-91345702D01*
X120893696Y-91457949D01*
X120795862Y-91547137D01*
X120733058Y-91577754D01*
X120712324Y-91579500D01*
X119927676Y-91579500D01*
X119860637Y-91559815D01*
X119844138Y-91547137D01*
X119746303Y-91457949D01*
X119746302Y-91457948D01*
X119565019Y-91345702D01*
X119565017Y-91345701D01*
X119465608Y-91307190D01*
X119366198Y-91268679D01*
X119193456Y-91236387D01*
X119131176Y-91204719D01*
X119095903Y-91144407D01*
X119098837Y-91074599D01*
X119139046Y-91017459D01*
X119203764Y-90991128D01*
X119216233Y-90990499D01*
X119944864Y-90990499D01*
X119944879Y-90990497D01*
X119944882Y-90990497D01*
X119969987Y-90987586D01*
X119969988Y-90987585D01*
X119969991Y-90987585D01*
X120072765Y-90942206D01*
X120152206Y-90862765D01*
X120197585Y-90759991D01*
X120200500Y-90734865D01*
X120200499Y-89996046D01*
X120220183Y-89929009D01*
X120272987Y-89883254D01*
X120342146Y-89873310D01*
X120405702Y-89902335D01*
G37*
%TD.AperFunction*%
%TA.AperFunction,NonConductor*%
G36*
X136019363Y-93200185D02*
G01*
X136035862Y-93212863D01*
X136120111Y-93289666D01*
X136133698Y-93302052D01*
X136314981Y-93414298D01*
X136343961Y-93425525D01*
X136399362Y-93468095D01*
X136422954Y-93533861D01*
X136407244Y-93601942D01*
X136357222Y-93650722D01*
X136351573Y-93653533D01*
X136152422Y-93746399D01*
X136152420Y-93746400D01*
X135958926Y-93881886D01*
X135836477Y-94004335D01*
X135775154Y-94037819D01*
X135705462Y-94032835D01*
X135649529Y-93990963D01*
X135632614Y-93959986D01*
X135583354Y-93827913D01*
X135583350Y-93827906D01*
X135497190Y-93712812D01*
X135497187Y-93712809D01*
X135382093Y-93626649D01*
X135382086Y-93626645D01*
X135247379Y-93576403D01*
X135247372Y-93576401D01*
X135187844Y-93570000D01*
X134989366Y-93570000D01*
X134922327Y-93550315D01*
X134876572Y-93497511D01*
X134866628Y-93428353D01*
X134895653Y-93364797D01*
X134924089Y-93340573D01*
X134986300Y-93302053D01*
X134986299Y-93302053D01*
X134986302Y-93302052D01*
X135032975Y-93259502D01*
X135084138Y-93212863D01*
X135146942Y-93182246D01*
X135167676Y-93180500D01*
X135952324Y-93180500D01*
X136019363Y-93200185D01*
G37*
%TD.AperFunction*%
%TA.AperFunction,NonConductor*%
G36*
X120779363Y-93200185D02*
G01*
X120795862Y-93212863D01*
X120880111Y-93289666D01*
X120893698Y-93302052D01*
X121074981Y-93414298D01*
X121103961Y-93425525D01*
X121159362Y-93468095D01*
X121182954Y-93533861D01*
X121167244Y-93601942D01*
X121117222Y-93650722D01*
X121111573Y-93653533D01*
X120912422Y-93746399D01*
X120912420Y-93746400D01*
X120718926Y-93881886D01*
X120596477Y-94004335D01*
X120535154Y-94037819D01*
X120465462Y-94032835D01*
X120409529Y-93990963D01*
X120392614Y-93959986D01*
X120343354Y-93827913D01*
X120343350Y-93827906D01*
X120257190Y-93712812D01*
X120257187Y-93712809D01*
X120142093Y-93626649D01*
X120142086Y-93626645D01*
X120007379Y-93576403D01*
X120007372Y-93576401D01*
X119947844Y-93570000D01*
X119749366Y-93570000D01*
X119682327Y-93550315D01*
X119636572Y-93497511D01*
X119626628Y-93428353D01*
X119655653Y-93364797D01*
X119684089Y-93340573D01*
X119746300Y-93302053D01*
X119746299Y-93302053D01*
X119746302Y-93302052D01*
X119792975Y-93259502D01*
X119844138Y-93212863D01*
X119906942Y-93182246D01*
X119927676Y-93180500D01*
X120712324Y-93180500D01*
X120779363Y-93200185D01*
G37*
%TD.AperFunction*%
%TA.AperFunction,NonConductor*%
G36*
X141099363Y-93200185D02*
G01*
X141115862Y-93212863D01*
X141200111Y-93289666D01*
X141213698Y-93302052D01*
X141394981Y-93414298D01*
X141423961Y-93425525D01*
X141479362Y-93468095D01*
X141502954Y-93533861D01*
X141487244Y-93601942D01*
X141437222Y-93650722D01*
X141431573Y-93653533D01*
X141232422Y-93746399D01*
X141232420Y-93746400D01*
X141038926Y-93881886D01*
X141038920Y-93881891D01*
X140871891Y-94048920D01*
X140871890Y-94048922D01*
X140741575Y-94235031D01*
X140686998Y-94278655D01*
X140617499Y-94285848D01*
X140555145Y-94254326D01*
X140538425Y-94235031D01*
X140408109Y-94048922D01*
X140408108Y-94048920D01*
X140241082Y-93881894D01*
X140047578Y-93746399D01*
X139848426Y-93653533D01*
X139795987Y-93607360D01*
X139776835Y-93540167D01*
X139797051Y-93473286D01*
X139850216Y-93427951D01*
X139856005Y-93425537D01*
X139885019Y-93414298D01*
X140066302Y-93302052D01*
X140115046Y-93257615D01*
X140164138Y-93212863D01*
X140226942Y-93182246D01*
X140247676Y-93180500D01*
X141032324Y-93180500D01*
X141099363Y-93200185D01*
G37*
%TD.AperFunction*%
%TA.AperFunction,NonConductor*%
G36*
X138559363Y-93200185D02*
G01*
X138575862Y-93212863D01*
X138660111Y-93289666D01*
X138673698Y-93302052D01*
X138854981Y-93414298D01*
X138883961Y-93425525D01*
X138939362Y-93468095D01*
X138962954Y-93533861D01*
X138947244Y-93601942D01*
X138897222Y-93650722D01*
X138891573Y-93653533D01*
X138692422Y-93746399D01*
X138692420Y-93746400D01*
X138498926Y-93881886D01*
X138498920Y-93881891D01*
X138331891Y-94048920D01*
X138331890Y-94048922D01*
X138201575Y-94235031D01*
X138146998Y-94278655D01*
X138077499Y-94285848D01*
X138015145Y-94254326D01*
X137998425Y-94235031D01*
X137868109Y-94048922D01*
X137868108Y-94048920D01*
X137701082Y-93881894D01*
X137507578Y-93746399D01*
X137308426Y-93653533D01*
X137255987Y-93607360D01*
X137236835Y-93540167D01*
X137257051Y-93473286D01*
X137310216Y-93427951D01*
X137316005Y-93425537D01*
X137345019Y-93414298D01*
X137526302Y-93302052D01*
X137575046Y-93257615D01*
X137624138Y-93212863D01*
X137686942Y-93182246D01*
X137707676Y-93180500D01*
X138492324Y-93180500D01*
X138559363Y-93200185D01*
G37*
%TD.AperFunction*%
%TA.AperFunction,NonConductor*%
G36*
X125859363Y-93200185D02*
G01*
X125875862Y-93212863D01*
X125960111Y-93289666D01*
X125973698Y-93302052D01*
X126154981Y-93414298D01*
X126183961Y-93425525D01*
X126239362Y-93468095D01*
X126262954Y-93533861D01*
X126247244Y-93601942D01*
X126197222Y-93650722D01*
X126191573Y-93653533D01*
X125992422Y-93746399D01*
X125992420Y-93746400D01*
X125798926Y-93881886D01*
X125798920Y-93881891D01*
X125631891Y-94048920D01*
X125631890Y-94048922D01*
X125501575Y-94235031D01*
X125446998Y-94278655D01*
X125377499Y-94285848D01*
X125315145Y-94254326D01*
X125298425Y-94235031D01*
X125168109Y-94048922D01*
X125168108Y-94048920D01*
X125001082Y-93881894D01*
X124807578Y-93746399D01*
X124608426Y-93653533D01*
X124555987Y-93607360D01*
X124536835Y-93540167D01*
X124557051Y-93473286D01*
X124610216Y-93427951D01*
X124616005Y-93425537D01*
X124645019Y-93414298D01*
X124826302Y-93302052D01*
X124875046Y-93257615D01*
X124924138Y-93212863D01*
X124986942Y-93182246D01*
X125007676Y-93180500D01*
X125792324Y-93180500D01*
X125859363Y-93200185D01*
G37*
%TD.AperFunction*%
%TA.AperFunction,NonConductor*%
G36*
X123319363Y-93200185D02*
G01*
X123335862Y-93212863D01*
X123420111Y-93289666D01*
X123433698Y-93302052D01*
X123614981Y-93414298D01*
X123643961Y-93425525D01*
X123699362Y-93468095D01*
X123722954Y-93533861D01*
X123707244Y-93601942D01*
X123657222Y-93650722D01*
X123651573Y-93653533D01*
X123452422Y-93746399D01*
X123452420Y-93746400D01*
X123258926Y-93881886D01*
X123258920Y-93881891D01*
X123091891Y-94048920D01*
X123091890Y-94048922D01*
X122961575Y-94235031D01*
X122906998Y-94278655D01*
X122837499Y-94285848D01*
X122775145Y-94254326D01*
X122758425Y-94235031D01*
X122628109Y-94048922D01*
X122628108Y-94048920D01*
X122461082Y-93881894D01*
X122267578Y-93746399D01*
X122068426Y-93653533D01*
X122015987Y-93607360D01*
X121996835Y-93540167D01*
X122017051Y-93473286D01*
X122070216Y-93427951D01*
X122076005Y-93425537D01*
X122105019Y-93414298D01*
X122286302Y-93302052D01*
X122335046Y-93257615D01*
X122384138Y-93212863D01*
X122446942Y-93182246D01*
X122467676Y-93180500D01*
X123252324Y-93180500D01*
X123319363Y-93200185D01*
G37*
%TD.AperFunction*%
D19*
X162000000Y-44000000D02*
G75*
G02*
X165000000Y-47000000I0J-3000000D01*
G01*
X165000000Y-97000000D02*
X165000000Y-47000000D01*
X100000000Y-47000000D02*
X100000000Y-63000000D01*
X100000000Y-63000000D02*
X100000000Y-81000000D01*
X103000000Y-100000000D02*
G75*
G02*
X100000000Y-97000000I0J3000000D01*
G01*
X103000000Y-100000000D02*
X162000000Y-100000000D01*
X165000000Y-97000000D02*
G75*
G02*
X162000000Y-100000000I-3000000J0D01*
G01*
X100000000Y-47000000D02*
G75*
G02*
X103000000Y-44000000I3000000J0D01*
G01*
X100000000Y-81000000D02*
X100000000Y-97000000D01*
X162000000Y-44000000D02*
X103000000Y-44000000D01*
M02*
