%TF.GenerationSoftware,KiCad,Pcbnew,8.0.9-8.0.9-0~ubuntu22.04.1*%
%TF.CreationDate,2025-12-05T16:43:01+01:00*%
%TF.ProjectId,hat-servomoteurs,6861742d-7365-4727-966f-6d6f74657572,rev?*%
%TF.SameCoordinates,Original*%
%TF.FileFunction,Copper,L2,Bot*%
%TF.FilePolarity,Positive*%
%FSLAX46Y46*%
G04 Gerber Fmt 4.6, Leading zero omitted, Abs format (unit mm)*
G04 Created by KiCad (PCBNEW 8.0.9-8.0.9-0~ubuntu22.04.1) date 2025-12-05 16:43:01*
%MOMM*%
%LPD*%
G01*
G04 APERTURE LIST*
%TA.AperFunction,ComponentPad*%
%ADD10C,1.600000*%
%TD*%
%TA.AperFunction,ComponentPad*%
%ADD11O,1.600000X1.600000*%
%TD*%
%TA.AperFunction,ComponentPad*%
%ADD12R,1.700000X1.700000*%
%TD*%
%TA.AperFunction,ComponentPad*%
%ADD13O,1.700000X1.700000*%
%TD*%
%TA.AperFunction,ComponentPad*%
%ADD14R,3.960000X1.980000*%
%TD*%
%TA.AperFunction,ComponentPad*%
%ADD15O,3.960000X1.980000*%
%TD*%
%TA.AperFunction,Profile*%
%ADD16C,0.100000*%
%TD*%
G04 APERTURE END LIST*
D10*
X139370000Y-69560000D03*
X139370000Y-74560000D03*
X139370000Y-55296000D03*
D11*
X139370000Y-65456000D03*
D12*
X134290000Y-94920000D03*
D13*
X134290000Y-92380000D03*
X136830000Y-94920000D03*
X136830000Y-92380000D03*
X139370000Y-94920000D03*
X139370000Y-92380000D03*
X141910000Y-94920000D03*
X141910000Y-92380000D03*
D10*
X115240000Y-59360000D03*
D11*
X125400000Y-59360000D03*
D10*
X115240000Y-64440000D03*
D11*
X125400000Y-64440000D03*
D12*
X119050000Y-94920000D03*
D13*
X119050000Y-92380000D03*
X121590000Y-94920000D03*
X121590000Y-92380000D03*
X124130000Y-94920000D03*
X124130000Y-92380000D03*
X126670000Y-94920000D03*
X126670000Y-92380000D03*
D12*
X134290000Y-89840000D03*
D13*
X136830000Y-89840000D03*
X139370000Y-89840000D03*
X141910000Y-89840000D03*
D12*
X119050000Y-89840000D03*
D13*
X121590000Y-89840000D03*
X124130000Y-89840000D03*
X126670000Y-89840000D03*
D14*
X105080000Y-77365000D03*
D15*
X105080000Y-72365000D03*
D12*
X108370000Y-48770000D03*
D13*
X108370000Y-46230000D03*
X110910000Y-48770000D03*
X110910000Y-46230000D03*
X113450000Y-48770000D03*
X113450000Y-46230000D03*
X115990000Y-48770000D03*
X115990000Y-46230000D03*
X118530000Y-48770000D03*
X118530000Y-46230000D03*
X121070000Y-48770000D03*
X121070000Y-46230000D03*
X123610000Y-48770000D03*
X123610000Y-46230000D03*
X126150000Y-48770000D03*
X126150000Y-46230000D03*
X128690000Y-48770000D03*
X128690000Y-46230000D03*
X131230000Y-48770000D03*
X131230000Y-46230000D03*
X133770000Y-48770000D03*
X133770000Y-46230000D03*
X136310000Y-48770000D03*
X136310000Y-46230000D03*
X138850000Y-48770000D03*
X138850000Y-46230000D03*
X141390000Y-48770000D03*
X141390000Y-46230000D03*
X143930000Y-48770000D03*
X143930000Y-46230000D03*
X146470000Y-48770000D03*
X146470000Y-46230000D03*
X149010000Y-48770000D03*
X149010000Y-46230000D03*
X151550000Y-48770000D03*
X151550000Y-46230000D03*
X154090000Y-48770000D03*
X154090000Y-46230000D03*
X156630000Y-48770000D03*
X156630000Y-46230000D03*
%TA.AperFunction,Conductor*%
G36*
X162003472Y-44050695D02*
G01*
X162323297Y-44068656D01*
X162337094Y-44070210D01*
X162649457Y-44123283D01*
X162663014Y-44126377D01*
X162967469Y-44214089D01*
X162980593Y-44218682D01*
X163273304Y-44339926D01*
X163285826Y-44345955D01*
X163452594Y-44438125D01*
X163563139Y-44499221D01*
X163574900Y-44506611D01*
X163833314Y-44689966D01*
X163844174Y-44698627D01*
X164080418Y-44909749D01*
X164090250Y-44919581D01*
X164301372Y-45155825D01*
X164310035Y-45166687D01*
X164493385Y-45425094D01*
X164500778Y-45436860D01*
X164654040Y-45714166D01*
X164660073Y-45726695D01*
X164781317Y-46019406D01*
X164785910Y-46032530D01*
X164873622Y-46336985D01*
X164876716Y-46350542D01*
X164929787Y-46662894D01*
X164931344Y-46676712D01*
X164949305Y-46996527D01*
X164949500Y-47003480D01*
X164949500Y-96996519D01*
X164949305Y-97003472D01*
X164931344Y-97323287D01*
X164929787Y-97337105D01*
X164876716Y-97649457D01*
X164873622Y-97663014D01*
X164785910Y-97967469D01*
X164781317Y-97980593D01*
X164660073Y-98273304D01*
X164654040Y-98285833D01*
X164500778Y-98563139D01*
X164493380Y-98574913D01*
X164310043Y-98833302D01*
X164301372Y-98844174D01*
X164090250Y-99080418D01*
X164080418Y-99090250D01*
X163844174Y-99301372D01*
X163833302Y-99310043D01*
X163574913Y-99493380D01*
X163563139Y-99500778D01*
X163285833Y-99654040D01*
X163273304Y-99660073D01*
X162980593Y-99781317D01*
X162967469Y-99785910D01*
X162663014Y-99873622D01*
X162649457Y-99876716D01*
X162337105Y-99929787D01*
X162323287Y-99931344D01*
X162003472Y-99949305D01*
X161996519Y-99949500D01*
X103003481Y-99949500D01*
X102996528Y-99949305D01*
X102676712Y-99931344D01*
X102662894Y-99929787D01*
X102350542Y-99876716D01*
X102336985Y-99873622D01*
X102032530Y-99785910D01*
X102019406Y-99781317D01*
X101726695Y-99660073D01*
X101714166Y-99654040D01*
X101436860Y-99500778D01*
X101425094Y-99493385D01*
X101166687Y-99310035D01*
X101155825Y-99301372D01*
X100919581Y-99090250D01*
X100909749Y-99080418D01*
X100698627Y-98844174D01*
X100689966Y-98833314D01*
X100506611Y-98574900D01*
X100499221Y-98563139D01*
X100345959Y-98285833D01*
X100339926Y-98273304D01*
X100218682Y-97980593D01*
X100214089Y-97967469D01*
X100126377Y-97663014D01*
X100123283Y-97649457D01*
X100094127Y-97477858D01*
X100070210Y-97337094D01*
X100068656Y-97323297D01*
X100050695Y-97003472D01*
X100050500Y-96996519D01*
X100050500Y-92379999D01*
X117894571Y-92379999D01*
X117894571Y-92380000D01*
X117914244Y-92592310D01*
X117972596Y-92797392D01*
X117972596Y-92797394D01*
X118067632Y-92988253D01*
X118067634Y-92988255D01*
X118196128Y-93158407D01*
X118353698Y-93302052D01*
X118534981Y-93414298D01*
X118733802Y-93491321D01*
X118906544Y-93523612D01*
X118968823Y-93555279D01*
X119004096Y-93615591D01*
X119001162Y-93685400D01*
X118960953Y-93742540D01*
X118896235Y-93768871D01*
X118883757Y-93769500D01*
X118155143Y-93769500D01*
X118155117Y-93769502D01*
X118130012Y-93772413D01*
X118130008Y-93772415D01*
X118027235Y-93817793D01*
X117947794Y-93897234D01*
X117902415Y-94000006D01*
X117902415Y-94000008D01*
X117899500Y-94025131D01*
X117899500Y-95814856D01*
X117899502Y-95814882D01*
X117902413Y-95839987D01*
X117902415Y-95839991D01*
X117947793Y-95942764D01*
X117947794Y-95942765D01*
X118027235Y-96022206D01*
X118130009Y-96067585D01*
X118155135Y-96070500D01*
X119944864Y-96070499D01*
X119944879Y-96070497D01*
X119944882Y-96070497D01*
X119969987Y-96067586D01*
X119969988Y-96067585D01*
X119969991Y-96067585D01*
X120072765Y-96022206D01*
X120152206Y-95942765D01*
X120197585Y-95839991D01*
X120200500Y-95814865D01*
X120200499Y-95076046D01*
X120220183Y-95009009D01*
X120272987Y-94963254D01*
X120342146Y-94953310D01*
X120405702Y-94982335D01*
X120443476Y-95041113D01*
X120447970Y-95064606D01*
X120454244Y-95132310D01*
X120512596Y-95337392D01*
X120512596Y-95337394D01*
X120607632Y-95528253D01*
X120607634Y-95528255D01*
X120736128Y-95698407D01*
X120893698Y-95842052D01*
X121074981Y-95954298D01*
X121273802Y-96031321D01*
X121483390Y-96070500D01*
X121483392Y-96070500D01*
X121696608Y-96070500D01*
X121696610Y-96070500D01*
X121906198Y-96031321D01*
X122105019Y-95954298D01*
X122286302Y-95842052D01*
X122443872Y-95698407D01*
X122572366Y-95528255D01*
X122667405Y-95337389D01*
X122725756Y-95132310D01*
X122736529Y-95016047D01*
X122762315Y-94951111D01*
X122806869Y-94919194D01*
X122770497Y-94898331D01*
X122738307Y-94836318D01*
X122736529Y-94823951D01*
X122733175Y-94787759D01*
X122725756Y-94707690D01*
X122667405Y-94502611D01*
X122667403Y-94502606D01*
X122667403Y-94502605D01*
X122572367Y-94311746D01*
X122443872Y-94141593D01*
X122316133Y-94025143D01*
X122286302Y-93997948D01*
X122105019Y-93885702D01*
X122105017Y-93885701D01*
X122005608Y-93847190D01*
X121906198Y-93808679D01*
X121709385Y-93771888D01*
X121647106Y-93740221D01*
X121611833Y-93679908D01*
X121614767Y-93610100D01*
X121654976Y-93552960D01*
X121709384Y-93528111D01*
X121906198Y-93491321D01*
X122105019Y-93414298D01*
X122286302Y-93302052D01*
X122443872Y-93158407D01*
X122572366Y-92988255D01*
X122667405Y-92797389D01*
X122725756Y-92592310D01*
X122736529Y-92476047D01*
X122762315Y-92411111D01*
X122806869Y-92379194D01*
X122770497Y-92358331D01*
X122738307Y-92296318D01*
X122736529Y-92283951D01*
X122735849Y-92276613D01*
X122725756Y-92167690D01*
X122667405Y-91962611D01*
X122667403Y-91962606D01*
X122667403Y-91962605D01*
X122572367Y-91771746D01*
X122443872Y-91601593D01*
X122286302Y-91457948D01*
X122105019Y-91345702D01*
X122105017Y-91345701D01*
X122005608Y-91307190D01*
X121906198Y-91268679D01*
X121709385Y-91231888D01*
X121647106Y-91200221D01*
X121611833Y-91139908D01*
X121614767Y-91070100D01*
X121654976Y-91012960D01*
X121709384Y-90988111D01*
X121906198Y-90951321D01*
X122105019Y-90874298D01*
X122286302Y-90762052D01*
X122443872Y-90618407D01*
X122572366Y-90448255D01*
X122667405Y-90257389D01*
X122725756Y-90052310D01*
X122736529Y-89936047D01*
X122762315Y-89871111D01*
X122804622Y-89840804D01*
X122913130Y-89840804D01*
X122949503Y-89861668D01*
X122981693Y-89923681D01*
X122983471Y-89936048D01*
X122994244Y-90052310D01*
X123052596Y-90257392D01*
X123052596Y-90257394D01*
X123147632Y-90448253D01*
X123147634Y-90448255D01*
X123276128Y-90618407D01*
X123433698Y-90762052D01*
X123614981Y-90874298D01*
X123813802Y-90951321D01*
X124010613Y-90988111D01*
X124072893Y-91019779D01*
X124108166Y-91080092D01*
X124105232Y-91149900D01*
X124065023Y-91207040D01*
X124010613Y-91231888D01*
X123813802Y-91268679D01*
X123813799Y-91268679D01*
X123813799Y-91268680D01*
X123614982Y-91345701D01*
X123614980Y-91345702D01*
X123433699Y-91457947D01*
X123276127Y-91601593D01*
X123147632Y-91771746D01*
X123052596Y-91962605D01*
X123052596Y-91962607D01*
X122994244Y-92167689D01*
X122983471Y-92283951D01*
X122957685Y-92348888D01*
X122913130Y-92380804D01*
X122949503Y-92401668D01*
X122981693Y-92463681D01*
X122983471Y-92476048D01*
X122994244Y-92592310D01*
X123052596Y-92797392D01*
X123052596Y-92797394D01*
X123147632Y-92988253D01*
X123147634Y-92988255D01*
X123276128Y-93158407D01*
X123433698Y-93302052D01*
X123614981Y-93414298D01*
X123813802Y-93491321D01*
X124010613Y-93528111D01*
X124072893Y-93559779D01*
X124108166Y-93620092D01*
X124105232Y-93689900D01*
X124065023Y-93747040D01*
X124010613Y-93771888D01*
X123813802Y-93808679D01*
X123813799Y-93808679D01*
X123813799Y-93808680D01*
X123614982Y-93885701D01*
X123614980Y-93885702D01*
X123433699Y-93997947D01*
X123276127Y-94141593D01*
X123147632Y-94311746D01*
X123052596Y-94502605D01*
X123052596Y-94502607D01*
X122994244Y-94707689D01*
X122983471Y-94823951D01*
X122957685Y-94888888D01*
X122913130Y-94920804D01*
X122949503Y-94941668D01*
X122981693Y-95003681D01*
X122983471Y-95016048D01*
X122994244Y-95132310D01*
X123052596Y-95337392D01*
X123052596Y-95337394D01*
X123147632Y-95528253D01*
X123147634Y-95528255D01*
X123276128Y-95698407D01*
X123433698Y-95842052D01*
X123614981Y-95954298D01*
X123813802Y-96031321D01*
X124023390Y-96070500D01*
X124023392Y-96070500D01*
X124236608Y-96070500D01*
X124236610Y-96070500D01*
X124446198Y-96031321D01*
X124645019Y-95954298D01*
X124826302Y-95842052D01*
X124983872Y-95698407D01*
X125112366Y-95528255D01*
X125207405Y-95337389D01*
X125265756Y-95132310D01*
X125276529Y-95016047D01*
X125302315Y-94951111D01*
X125346869Y-94919194D01*
X125310497Y-94898331D01*
X125278307Y-94836318D01*
X125276529Y-94823951D01*
X125273175Y-94787759D01*
X125265756Y-94707690D01*
X125207405Y-94502611D01*
X125207403Y-94502606D01*
X125207403Y-94502605D01*
X125112367Y-94311746D01*
X124983872Y-94141593D01*
X124856133Y-94025143D01*
X124826302Y-93997948D01*
X124645019Y-93885702D01*
X124645017Y-93885701D01*
X124545608Y-93847190D01*
X124446198Y-93808679D01*
X124249385Y-93771888D01*
X124187106Y-93740221D01*
X124151833Y-93679908D01*
X124154767Y-93610100D01*
X124194976Y-93552960D01*
X124249384Y-93528111D01*
X124446198Y-93491321D01*
X124645019Y-93414298D01*
X124826302Y-93302052D01*
X124983872Y-93158407D01*
X125112366Y-92988255D01*
X125207405Y-92797389D01*
X125265756Y-92592310D01*
X125276529Y-92476047D01*
X125302315Y-92411111D01*
X125346869Y-92379194D01*
X125310497Y-92358331D01*
X125278307Y-92296318D01*
X125276529Y-92283951D01*
X125275849Y-92276613D01*
X125265756Y-92167690D01*
X125207405Y-91962611D01*
X125207403Y-91962606D01*
X125207403Y-91962605D01*
X125112367Y-91771746D01*
X124983872Y-91601593D01*
X124826302Y-91457948D01*
X124645019Y-91345702D01*
X124645017Y-91345701D01*
X124545608Y-91307190D01*
X124446198Y-91268679D01*
X124249385Y-91231888D01*
X124187106Y-91200221D01*
X124151833Y-91139908D01*
X124154767Y-91070100D01*
X124194976Y-91012960D01*
X124249384Y-90988111D01*
X124446198Y-90951321D01*
X124645019Y-90874298D01*
X124826302Y-90762052D01*
X124983872Y-90618407D01*
X125112366Y-90448255D01*
X125207405Y-90257389D01*
X125265756Y-90052310D01*
X125276529Y-89936047D01*
X125302315Y-89871111D01*
X125344622Y-89840804D01*
X125453130Y-89840804D01*
X125489503Y-89861668D01*
X125521693Y-89923681D01*
X125523471Y-89936048D01*
X125534244Y-90052310D01*
X125592596Y-90257392D01*
X125592596Y-90257394D01*
X125687632Y-90448253D01*
X125687634Y-90448255D01*
X125816128Y-90618407D01*
X125973698Y-90762052D01*
X126154981Y-90874298D01*
X126353802Y-90951321D01*
X126550613Y-90988111D01*
X126612893Y-91019779D01*
X126648166Y-91080092D01*
X126645232Y-91149900D01*
X126605023Y-91207040D01*
X126550613Y-91231888D01*
X126353802Y-91268679D01*
X126353799Y-91268679D01*
X126353799Y-91268680D01*
X126154982Y-91345701D01*
X126154980Y-91345702D01*
X125973699Y-91457947D01*
X125816127Y-91601593D01*
X125687632Y-91771746D01*
X125592596Y-91962605D01*
X125592596Y-91962607D01*
X125534244Y-92167689D01*
X125523471Y-92283951D01*
X125497685Y-92348888D01*
X125453130Y-92380804D01*
X125489503Y-92401668D01*
X125521693Y-92463681D01*
X125523471Y-92476048D01*
X125534244Y-92592310D01*
X125592596Y-92797392D01*
X125592596Y-92797394D01*
X125687632Y-92988253D01*
X125687634Y-92988255D01*
X125816128Y-93158407D01*
X125973698Y-93302052D01*
X126154981Y-93414298D01*
X126353802Y-93491321D01*
X126550613Y-93528111D01*
X126612893Y-93559779D01*
X126648166Y-93620092D01*
X126645232Y-93689900D01*
X126605023Y-93747040D01*
X126550613Y-93771888D01*
X126353802Y-93808679D01*
X126353799Y-93808679D01*
X126353799Y-93808680D01*
X126154982Y-93885701D01*
X126154980Y-93885702D01*
X125973699Y-93997947D01*
X125816127Y-94141593D01*
X125687632Y-94311746D01*
X125592596Y-94502605D01*
X125592596Y-94502607D01*
X125534244Y-94707689D01*
X125523471Y-94823951D01*
X125497685Y-94888888D01*
X125453130Y-94920804D01*
X125489503Y-94941668D01*
X125521693Y-95003681D01*
X125523471Y-95016048D01*
X125534244Y-95132310D01*
X125592596Y-95337392D01*
X125592596Y-95337394D01*
X125687632Y-95528253D01*
X125687634Y-95528255D01*
X125816128Y-95698407D01*
X125973698Y-95842052D01*
X126154981Y-95954298D01*
X126353802Y-96031321D01*
X126563390Y-96070500D01*
X126563392Y-96070500D01*
X126776608Y-96070500D01*
X126776610Y-96070500D01*
X126986198Y-96031321D01*
X127185019Y-95954298D01*
X127366302Y-95842052D01*
X127523872Y-95698407D01*
X127652366Y-95528255D01*
X127747405Y-95337389D01*
X127805756Y-95132310D01*
X127825429Y-94920000D01*
X127805756Y-94707690D01*
X127747405Y-94502611D01*
X127747403Y-94502606D01*
X127747403Y-94502605D01*
X127652367Y-94311746D01*
X127523872Y-94141593D01*
X127396133Y-94025143D01*
X127366302Y-93997948D01*
X127185019Y-93885702D01*
X127185017Y-93885701D01*
X127085608Y-93847190D01*
X126986198Y-93808679D01*
X126789385Y-93771888D01*
X126727106Y-93740221D01*
X126691833Y-93679908D01*
X126694767Y-93610100D01*
X126734976Y-93552960D01*
X126789384Y-93528111D01*
X126986198Y-93491321D01*
X127185019Y-93414298D01*
X127366302Y-93302052D01*
X127523872Y-93158407D01*
X127652366Y-92988255D01*
X127747405Y-92797389D01*
X127805756Y-92592310D01*
X127825429Y-92380000D01*
X127825429Y-92379999D01*
X133134571Y-92379999D01*
X133134571Y-92380000D01*
X133154244Y-92592310D01*
X133212596Y-92797392D01*
X133212596Y-92797394D01*
X133307632Y-92988253D01*
X133307634Y-92988255D01*
X133436128Y-93158407D01*
X133593698Y-93302052D01*
X133774981Y-93414298D01*
X133973802Y-93491321D01*
X134146544Y-93523612D01*
X134208823Y-93555279D01*
X134244096Y-93615591D01*
X134241162Y-93685400D01*
X134200953Y-93742540D01*
X134136235Y-93768871D01*
X134123757Y-93769500D01*
X133395143Y-93769500D01*
X133395117Y-93769502D01*
X133370012Y-93772413D01*
X133370008Y-93772415D01*
X133267235Y-93817793D01*
X133187794Y-93897234D01*
X133142415Y-94000006D01*
X133142415Y-94000008D01*
X133139500Y-94025131D01*
X133139500Y-95814856D01*
X133139502Y-95814882D01*
X133142413Y-95839987D01*
X133142415Y-95839991D01*
X133187793Y-95942764D01*
X133187794Y-95942765D01*
X133267235Y-96022206D01*
X133370009Y-96067585D01*
X133395135Y-96070500D01*
X135184864Y-96070499D01*
X135184879Y-96070497D01*
X135184882Y-96070497D01*
X135209987Y-96067586D01*
X135209988Y-96067585D01*
X135209991Y-96067585D01*
X135312765Y-96022206D01*
X135392206Y-95942765D01*
X135437585Y-95839991D01*
X135440500Y-95814865D01*
X135440499Y-95076046D01*
X135460183Y-95009009D01*
X135512987Y-94963254D01*
X135582146Y-94953310D01*
X135645702Y-94982335D01*
X135683476Y-95041113D01*
X135687970Y-95064606D01*
X135694244Y-95132310D01*
X135752596Y-95337392D01*
X135752596Y-95337394D01*
X135847632Y-95528253D01*
X135847634Y-95528255D01*
X135976128Y-95698407D01*
X136133698Y-95842052D01*
X136314981Y-95954298D01*
X136513802Y-96031321D01*
X136723390Y-96070500D01*
X136723392Y-96070500D01*
X136936608Y-96070500D01*
X136936610Y-96070500D01*
X137146198Y-96031321D01*
X137345019Y-95954298D01*
X137526302Y-95842052D01*
X137683872Y-95698407D01*
X137812366Y-95528255D01*
X137907405Y-95337389D01*
X137965756Y-95132310D01*
X137976529Y-95016047D01*
X138002315Y-94951111D01*
X138046869Y-94919194D01*
X138010497Y-94898331D01*
X137978307Y-94836318D01*
X137976529Y-94823951D01*
X137973175Y-94787759D01*
X137965756Y-94707690D01*
X137907405Y-94502611D01*
X137907403Y-94502606D01*
X137907403Y-94502605D01*
X137812367Y-94311746D01*
X137683872Y-94141593D01*
X137556133Y-94025143D01*
X137526302Y-93997948D01*
X137345019Y-93885702D01*
X137345017Y-93885701D01*
X137245608Y-93847190D01*
X137146198Y-93808679D01*
X136949385Y-93771888D01*
X136887106Y-93740221D01*
X136851833Y-93679908D01*
X136854767Y-93610100D01*
X136894976Y-93552960D01*
X136949384Y-93528111D01*
X137146198Y-93491321D01*
X137345019Y-93414298D01*
X137526302Y-93302052D01*
X137683872Y-93158407D01*
X137812366Y-92988255D01*
X137907405Y-92797389D01*
X137965756Y-92592310D01*
X137976529Y-92476047D01*
X138002315Y-92411111D01*
X138046869Y-92379194D01*
X138010497Y-92358331D01*
X137978307Y-92296318D01*
X137976529Y-92283951D01*
X137975849Y-92276613D01*
X137965756Y-92167690D01*
X137907405Y-91962611D01*
X137907403Y-91962606D01*
X137907403Y-91962605D01*
X137812367Y-91771746D01*
X137683872Y-91601593D01*
X137526302Y-91457948D01*
X137345019Y-91345702D01*
X137345017Y-91345701D01*
X137245608Y-91307190D01*
X137146198Y-91268679D01*
X136949385Y-91231888D01*
X136887106Y-91200221D01*
X136851833Y-91139908D01*
X136854767Y-91070100D01*
X136894976Y-91012960D01*
X136949384Y-90988111D01*
X137146198Y-90951321D01*
X137345019Y-90874298D01*
X137526302Y-90762052D01*
X137683872Y-90618407D01*
X137812366Y-90448255D01*
X137907405Y-90257389D01*
X137965756Y-90052310D01*
X137976529Y-89936047D01*
X138002315Y-89871111D01*
X138044622Y-89840804D01*
X138153130Y-89840804D01*
X138189503Y-89861668D01*
X138221693Y-89923681D01*
X138223471Y-89936048D01*
X138234244Y-90052310D01*
X138292596Y-90257392D01*
X138292596Y-90257394D01*
X138387632Y-90448253D01*
X138387634Y-90448255D01*
X138516128Y-90618407D01*
X138673698Y-90762052D01*
X138854981Y-90874298D01*
X139053802Y-90951321D01*
X139250613Y-90988111D01*
X139312893Y-91019779D01*
X139348166Y-91080092D01*
X139345232Y-91149900D01*
X139305023Y-91207040D01*
X139250613Y-91231888D01*
X139053802Y-91268679D01*
X139053799Y-91268679D01*
X139053799Y-91268680D01*
X138854982Y-91345701D01*
X138854980Y-91345702D01*
X138673699Y-91457947D01*
X138516127Y-91601593D01*
X138387632Y-91771746D01*
X138292596Y-91962605D01*
X138292596Y-91962607D01*
X138234244Y-92167689D01*
X138223471Y-92283951D01*
X138197685Y-92348888D01*
X138153130Y-92380804D01*
X138189503Y-92401668D01*
X138221693Y-92463681D01*
X138223471Y-92476048D01*
X138234244Y-92592310D01*
X138292596Y-92797392D01*
X138292596Y-92797394D01*
X138387632Y-92988253D01*
X138387634Y-92988255D01*
X138516128Y-93158407D01*
X138673698Y-93302052D01*
X138854981Y-93414298D01*
X139053802Y-93491321D01*
X139250613Y-93528111D01*
X139312893Y-93559779D01*
X139348166Y-93620092D01*
X139345232Y-93689900D01*
X139305023Y-93747040D01*
X139250613Y-93771888D01*
X139053802Y-93808679D01*
X139053799Y-93808679D01*
X139053799Y-93808680D01*
X138854982Y-93885701D01*
X138854980Y-93885702D01*
X138673699Y-93997947D01*
X138516127Y-94141593D01*
X138387632Y-94311746D01*
X138292596Y-94502605D01*
X138292596Y-94502607D01*
X138234244Y-94707689D01*
X138223471Y-94823951D01*
X138197685Y-94888888D01*
X138153130Y-94920804D01*
X138189503Y-94941668D01*
X138221693Y-95003681D01*
X138223471Y-95016048D01*
X138234244Y-95132310D01*
X138292596Y-95337392D01*
X138292596Y-95337394D01*
X138387632Y-95528253D01*
X138387634Y-95528255D01*
X138516128Y-95698407D01*
X138673698Y-95842052D01*
X138854981Y-95954298D01*
X139053802Y-96031321D01*
X139263390Y-96070500D01*
X139263392Y-96070500D01*
X139476608Y-96070500D01*
X139476610Y-96070500D01*
X139686198Y-96031321D01*
X139885019Y-95954298D01*
X140066302Y-95842052D01*
X140223872Y-95698407D01*
X140352366Y-95528255D01*
X140447405Y-95337389D01*
X140505756Y-95132310D01*
X140516529Y-95016047D01*
X140542315Y-94951111D01*
X140586869Y-94919194D01*
X140550497Y-94898331D01*
X140518307Y-94836318D01*
X140516529Y-94823951D01*
X140513175Y-94787759D01*
X140505756Y-94707690D01*
X140447405Y-94502611D01*
X140447403Y-94502606D01*
X140447403Y-94502605D01*
X140352367Y-94311746D01*
X140223872Y-94141593D01*
X140096133Y-94025143D01*
X140066302Y-93997948D01*
X139885019Y-93885702D01*
X139885017Y-93885701D01*
X139785608Y-93847190D01*
X139686198Y-93808679D01*
X139489385Y-93771888D01*
X139427106Y-93740221D01*
X139391833Y-93679908D01*
X139394767Y-93610100D01*
X139434976Y-93552960D01*
X139489384Y-93528111D01*
X139686198Y-93491321D01*
X139885019Y-93414298D01*
X140066302Y-93302052D01*
X140223872Y-93158407D01*
X140352366Y-92988255D01*
X140447405Y-92797389D01*
X140505756Y-92592310D01*
X140516529Y-92476047D01*
X140542315Y-92411111D01*
X140586869Y-92379194D01*
X140550497Y-92358331D01*
X140518307Y-92296318D01*
X140516529Y-92283951D01*
X140515849Y-92276613D01*
X140505756Y-92167690D01*
X140447405Y-91962611D01*
X140447403Y-91962606D01*
X140447403Y-91962605D01*
X140352367Y-91771746D01*
X140223872Y-91601593D01*
X140066302Y-91457948D01*
X139885019Y-91345702D01*
X139885017Y-91345701D01*
X139785608Y-91307190D01*
X139686198Y-91268679D01*
X139489385Y-91231888D01*
X139427106Y-91200221D01*
X139391833Y-91139908D01*
X139394767Y-91070100D01*
X139434976Y-91012960D01*
X139489384Y-90988111D01*
X139686198Y-90951321D01*
X139885019Y-90874298D01*
X140066302Y-90762052D01*
X140223872Y-90618407D01*
X140352366Y-90448255D01*
X140447405Y-90257389D01*
X140505756Y-90052310D01*
X140516529Y-89936047D01*
X140542315Y-89871111D01*
X140584622Y-89840804D01*
X140693130Y-89840804D01*
X140729503Y-89861668D01*
X140761693Y-89923681D01*
X140763471Y-89936048D01*
X140774244Y-90052310D01*
X140832596Y-90257392D01*
X140832596Y-90257394D01*
X140927632Y-90448253D01*
X140927634Y-90448255D01*
X141056128Y-90618407D01*
X141213698Y-90762052D01*
X141394981Y-90874298D01*
X141593802Y-90951321D01*
X141790613Y-90988111D01*
X141852893Y-91019779D01*
X141888166Y-91080092D01*
X141885232Y-91149900D01*
X141845023Y-91207040D01*
X141790613Y-91231888D01*
X141593802Y-91268679D01*
X141593799Y-91268679D01*
X141593799Y-91268680D01*
X141394982Y-91345701D01*
X141394980Y-91345702D01*
X141213699Y-91457947D01*
X141056127Y-91601593D01*
X140927632Y-91771746D01*
X140832596Y-91962605D01*
X140832596Y-91962607D01*
X140774244Y-92167689D01*
X140763471Y-92283951D01*
X140737685Y-92348888D01*
X140693130Y-92380804D01*
X140729503Y-92401668D01*
X140761693Y-92463681D01*
X140763471Y-92476048D01*
X140774244Y-92592310D01*
X140832596Y-92797392D01*
X140832596Y-92797394D01*
X140927632Y-92988253D01*
X140927634Y-92988255D01*
X141056128Y-93158407D01*
X141213698Y-93302052D01*
X141394981Y-93414298D01*
X141593802Y-93491321D01*
X141790613Y-93528111D01*
X141852893Y-93559779D01*
X141888166Y-93620092D01*
X141885232Y-93689900D01*
X141845023Y-93747040D01*
X141790613Y-93771888D01*
X141593802Y-93808679D01*
X141593799Y-93808679D01*
X141593799Y-93808680D01*
X141394982Y-93885701D01*
X141394980Y-93885702D01*
X141213699Y-93997947D01*
X141056127Y-94141593D01*
X140927632Y-94311746D01*
X140832596Y-94502605D01*
X140832596Y-94502607D01*
X140774244Y-94707689D01*
X140763471Y-94823951D01*
X140737685Y-94888888D01*
X140693130Y-94920804D01*
X140729503Y-94941668D01*
X140761693Y-95003681D01*
X140763471Y-95016048D01*
X140774244Y-95132310D01*
X140832596Y-95337392D01*
X140832596Y-95337394D01*
X140927632Y-95528253D01*
X140927634Y-95528255D01*
X141056128Y-95698407D01*
X141213698Y-95842052D01*
X141394981Y-95954298D01*
X141593802Y-96031321D01*
X141803390Y-96070500D01*
X141803392Y-96070500D01*
X142016608Y-96070500D01*
X142016610Y-96070500D01*
X142226198Y-96031321D01*
X142425019Y-95954298D01*
X142606302Y-95842052D01*
X142763872Y-95698407D01*
X142892366Y-95528255D01*
X142987405Y-95337389D01*
X143045756Y-95132310D01*
X143065429Y-94920000D01*
X143045756Y-94707690D01*
X142987405Y-94502611D01*
X142987403Y-94502606D01*
X142987403Y-94502605D01*
X142892367Y-94311746D01*
X142763872Y-94141593D01*
X142636133Y-94025143D01*
X142606302Y-93997948D01*
X142425019Y-93885702D01*
X142425017Y-93885701D01*
X142325608Y-93847190D01*
X142226198Y-93808679D01*
X142029385Y-93771888D01*
X141967106Y-93740221D01*
X141931833Y-93679908D01*
X141934767Y-93610100D01*
X141974976Y-93552960D01*
X142029384Y-93528111D01*
X142226198Y-93491321D01*
X142425019Y-93414298D01*
X142606302Y-93302052D01*
X142763872Y-93158407D01*
X142892366Y-92988255D01*
X142987405Y-92797389D01*
X143045756Y-92592310D01*
X143065429Y-92380000D01*
X143045756Y-92167690D01*
X142987405Y-91962611D01*
X142987403Y-91962606D01*
X142987403Y-91962605D01*
X142892367Y-91771746D01*
X142763872Y-91601593D01*
X142606302Y-91457948D01*
X142425019Y-91345702D01*
X142425017Y-91345701D01*
X142325608Y-91307190D01*
X142226198Y-91268679D01*
X142029385Y-91231888D01*
X141967106Y-91200221D01*
X141931833Y-91139908D01*
X141934767Y-91070100D01*
X141974976Y-91012960D01*
X142029384Y-90988111D01*
X142226198Y-90951321D01*
X142425019Y-90874298D01*
X142606302Y-90762052D01*
X142763872Y-90618407D01*
X142892366Y-90448255D01*
X142987405Y-90257389D01*
X143045756Y-90052310D01*
X143065429Y-89840000D01*
X143045756Y-89627690D01*
X142987405Y-89422611D01*
X142987403Y-89422606D01*
X142987403Y-89422605D01*
X142892367Y-89231746D01*
X142763872Y-89061593D01*
X142636133Y-88945143D01*
X142606302Y-88917948D01*
X142425019Y-88805702D01*
X142425017Y-88805701D01*
X142325608Y-88767190D01*
X142226198Y-88728679D01*
X142016610Y-88689500D01*
X141803390Y-88689500D01*
X141593802Y-88728679D01*
X141593799Y-88728679D01*
X141593799Y-88728680D01*
X141394982Y-88805701D01*
X141394980Y-88805702D01*
X141213699Y-88917947D01*
X141056127Y-89061593D01*
X140927632Y-89231746D01*
X140832596Y-89422605D01*
X140832596Y-89422607D01*
X140774244Y-89627689D01*
X140763471Y-89743951D01*
X140737685Y-89808888D01*
X140693130Y-89840804D01*
X140584622Y-89840804D01*
X140586869Y-89839194D01*
X140550497Y-89818331D01*
X140518307Y-89756318D01*
X140516529Y-89743951D01*
X140513175Y-89707759D01*
X140505756Y-89627690D01*
X140447405Y-89422611D01*
X140447403Y-89422606D01*
X140447403Y-89422605D01*
X140352367Y-89231746D01*
X140223872Y-89061593D01*
X140096133Y-88945143D01*
X140066302Y-88917948D01*
X139885019Y-88805702D01*
X139885017Y-88805701D01*
X139785608Y-88767190D01*
X139686198Y-88728679D01*
X139476610Y-88689500D01*
X139263390Y-88689500D01*
X139053802Y-88728679D01*
X139053799Y-88728679D01*
X139053799Y-88728680D01*
X138854982Y-88805701D01*
X138854980Y-88805702D01*
X138673699Y-88917947D01*
X138516127Y-89061593D01*
X138387632Y-89231746D01*
X138292596Y-89422605D01*
X138292596Y-89422607D01*
X138234244Y-89627689D01*
X138223471Y-89743951D01*
X138197685Y-89808888D01*
X138153130Y-89840804D01*
X138044622Y-89840804D01*
X138046869Y-89839194D01*
X138010497Y-89818331D01*
X137978307Y-89756318D01*
X137976529Y-89743951D01*
X137973175Y-89707759D01*
X137965756Y-89627690D01*
X137907405Y-89422611D01*
X137907403Y-89422606D01*
X137907403Y-89422605D01*
X137812367Y-89231746D01*
X137683872Y-89061593D01*
X137556133Y-88945143D01*
X137526302Y-88917948D01*
X137345019Y-88805702D01*
X137345017Y-88805701D01*
X137245608Y-88767190D01*
X137146198Y-88728679D01*
X136936610Y-88689500D01*
X136723390Y-88689500D01*
X136513802Y-88728679D01*
X136513799Y-88728679D01*
X136513799Y-88728680D01*
X136314982Y-88805701D01*
X136314980Y-88805702D01*
X136133699Y-88917947D01*
X135976127Y-89061593D01*
X135847632Y-89231746D01*
X135752596Y-89422605D01*
X135752596Y-89422607D01*
X135694244Y-89627689D01*
X135687970Y-89695394D01*
X135662183Y-89760331D01*
X135605383Y-89801018D01*
X135535602Y-89804538D01*
X135474995Y-89769772D01*
X135442806Y-89707759D01*
X135440499Y-89683952D01*
X135440499Y-88945143D01*
X135440499Y-88945136D01*
X135440497Y-88945117D01*
X135437586Y-88920012D01*
X135437585Y-88920010D01*
X135437585Y-88920009D01*
X135392206Y-88817235D01*
X135312765Y-88737794D01*
X135292124Y-88728680D01*
X135209992Y-88692415D01*
X135184865Y-88689500D01*
X133395143Y-88689500D01*
X133395117Y-88689502D01*
X133370012Y-88692413D01*
X133370008Y-88692415D01*
X133267235Y-88737793D01*
X133187794Y-88817234D01*
X133142415Y-88920006D01*
X133142415Y-88920008D01*
X133139500Y-88945131D01*
X133139500Y-90734856D01*
X133139502Y-90734882D01*
X133142413Y-90759987D01*
X133142415Y-90759991D01*
X133187793Y-90862764D01*
X133187794Y-90862765D01*
X133267235Y-90942206D01*
X133370009Y-90987585D01*
X133395135Y-90990500D01*
X134123758Y-90990499D01*
X134190795Y-91010183D01*
X134236550Y-91062987D01*
X134246494Y-91132146D01*
X134217469Y-91195702D01*
X134158691Y-91233476D01*
X134146542Y-91236388D01*
X134090116Y-91246935D01*
X133973802Y-91268679D01*
X133973800Y-91268679D01*
X133973798Y-91268680D01*
X133774982Y-91345701D01*
X133774980Y-91345702D01*
X133593699Y-91457947D01*
X133436127Y-91601593D01*
X133307632Y-91771746D01*
X133212596Y-91962605D01*
X133212596Y-91962607D01*
X133154244Y-92167689D01*
X133134571Y-92379999D01*
X127825429Y-92379999D01*
X127805756Y-92167690D01*
X127747405Y-91962611D01*
X127747403Y-91962606D01*
X127747403Y-91962605D01*
X127652367Y-91771746D01*
X127523872Y-91601593D01*
X127366302Y-91457948D01*
X127185019Y-91345702D01*
X127185017Y-91345701D01*
X127085608Y-91307190D01*
X126986198Y-91268679D01*
X126789385Y-91231888D01*
X126727106Y-91200221D01*
X126691833Y-91139908D01*
X126694767Y-91070100D01*
X126734976Y-91012960D01*
X126789384Y-90988111D01*
X126986198Y-90951321D01*
X127185019Y-90874298D01*
X127366302Y-90762052D01*
X127523872Y-90618407D01*
X127652366Y-90448255D01*
X127747405Y-90257389D01*
X127805756Y-90052310D01*
X127825429Y-89840000D01*
X127805756Y-89627690D01*
X127747405Y-89422611D01*
X127747403Y-89422606D01*
X127747403Y-89422605D01*
X127652367Y-89231746D01*
X127523872Y-89061593D01*
X127396133Y-88945143D01*
X127366302Y-88917948D01*
X127185019Y-88805702D01*
X127185017Y-88805701D01*
X127085608Y-88767190D01*
X126986198Y-88728679D01*
X126776610Y-88689500D01*
X126563390Y-88689500D01*
X126353802Y-88728679D01*
X126353799Y-88728679D01*
X126353799Y-88728680D01*
X126154982Y-88805701D01*
X126154980Y-88805702D01*
X125973699Y-88917947D01*
X125816127Y-89061593D01*
X125687632Y-89231746D01*
X125592596Y-89422605D01*
X125592596Y-89422607D01*
X125534244Y-89627689D01*
X125523471Y-89743951D01*
X125497685Y-89808888D01*
X125453130Y-89840804D01*
X125344622Y-89840804D01*
X125346869Y-89839194D01*
X125310497Y-89818331D01*
X125278307Y-89756318D01*
X125276529Y-89743951D01*
X125273175Y-89707759D01*
X125265756Y-89627690D01*
X125207405Y-89422611D01*
X125207403Y-89422606D01*
X125207403Y-89422605D01*
X125112367Y-89231746D01*
X124983872Y-89061593D01*
X124856133Y-88945143D01*
X124826302Y-88917948D01*
X124645019Y-88805702D01*
X124645017Y-88805701D01*
X124545608Y-88767190D01*
X124446198Y-88728679D01*
X124236610Y-88689500D01*
X124023390Y-88689500D01*
X123813802Y-88728679D01*
X123813799Y-88728679D01*
X123813799Y-88728680D01*
X123614982Y-88805701D01*
X123614980Y-88805702D01*
X123433699Y-88917947D01*
X123276127Y-89061593D01*
X123147632Y-89231746D01*
X123052596Y-89422605D01*
X123052596Y-89422607D01*
X122994244Y-89627689D01*
X122983471Y-89743951D01*
X122957685Y-89808888D01*
X122913130Y-89840804D01*
X122804622Y-89840804D01*
X122806869Y-89839194D01*
X122770497Y-89818331D01*
X122738307Y-89756318D01*
X122736529Y-89743951D01*
X122733175Y-89707759D01*
X122725756Y-89627690D01*
X122667405Y-89422611D01*
X122667403Y-89422606D01*
X122667403Y-89422605D01*
X122572367Y-89231746D01*
X122443872Y-89061593D01*
X122316133Y-88945143D01*
X122286302Y-88917948D01*
X122105019Y-88805702D01*
X122105017Y-88805701D01*
X122005608Y-88767190D01*
X121906198Y-88728679D01*
X121696610Y-88689500D01*
X121483390Y-88689500D01*
X121273802Y-88728679D01*
X121273799Y-88728679D01*
X121273799Y-88728680D01*
X121074982Y-88805701D01*
X121074980Y-88805702D01*
X120893699Y-88917947D01*
X120736127Y-89061593D01*
X120607632Y-89231746D01*
X120512596Y-89422605D01*
X120512596Y-89422607D01*
X120454244Y-89627689D01*
X120447970Y-89695394D01*
X120422183Y-89760331D01*
X120365383Y-89801018D01*
X120295602Y-89804538D01*
X120234995Y-89769772D01*
X120202806Y-89707759D01*
X120200499Y-89683952D01*
X120200499Y-88945143D01*
X120200499Y-88945136D01*
X120200497Y-88945117D01*
X120197586Y-88920012D01*
X120197585Y-88920010D01*
X120197585Y-88920009D01*
X120152206Y-88817235D01*
X120072765Y-88737794D01*
X120052124Y-88728680D01*
X119969992Y-88692415D01*
X119944865Y-88689500D01*
X118155143Y-88689500D01*
X118155117Y-88689502D01*
X118130012Y-88692413D01*
X118130008Y-88692415D01*
X118027235Y-88737793D01*
X117947794Y-88817234D01*
X117902415Y-88920006D01*
X117902415Y-88920008D01*
X117899500Y-88945131D01*
X117899500Y-90734856D01*
X117899502Y-90734882D01*
X117902413Y-90759987D01*
X117902415Y-90759991D01*
X117947793Y-90862764D01*
X117947794Y-90862765D01*
X118027235Y-90942206D01*
X118130009Y-90987585D01*
X118155135Y-90990500D01*
X118883758Y-90990499D01*
X118950795Y-91010183D01*
X118996550Y-91062987D01*
X119006494Y-91132146D01*
X118977469Y-91195702D01*
X118918691Y-91233476D01*
X118906542Y-91236388D01*
X118850116Y-91246935D01*
X118733802Y-91268679D01*
X118733800Y-91268679D01*
X118733798Y-91268680D01*
X118534982Y-91345701D01*
X118534980Y-91345702D01*
X118353699Y-91457947D01*
X118196127Y-91601593D01*
X118067632Y-91771746D01*
X117972596Y-91962605D01*
X117972596Y-91962607D01*
X117914244Y-92167689D01*
X117894571Y-92379999D01*
X100050500Y-92379999D01*
X100050500Y-76330131D01*
X102799500Y-76330131D01*
X102799500Y-78399856D01*
X102799502Y-78399882D01*
X102802413Y-78424987D01*
X102802415Y-78424991D01*
X102847793Y-78527764D01*
X102847794Y-78527765D01*
X102927235Y-78607206D01*
X103030009Y-78652585D01*
X103055135Y-78655500D01*
X107104864Y-78655499D01*
X107104879Y-78655497D01*
X107104882Y-78655497D01*
X107129987Y-78652586D01*
X107129988Y-78652585D01*
X107129991Y-78652585D01*
X107232765Y-78607206D01*
X107312206Y-78527765D01*
X107357585Y-78424991D01*
X107360500Y-78399865D01*
X107360499Y-76330136D01*
X107360497Y-76330117D01*
X107357586Y-76305012D01*
X107357585Y-76305010D01*
X107357585Y-76305009D01*
X107312206Y-76202235D01*
X107232765Y-76122794D01*
X107232763Y-76122793D01*
X107129992Y-76077415D01*
X107104865Y-76074500D01*
X103055143Y-76074500D01*
X103055117Y-76074502D01*
X103030012Y-76077413D01*
X103030008Y-76077415D01*
X102927235Y-76122793D01*
X102847794Y-76202234D01*
X102802415Y-76305006D01*
X102802415Y-76305008D01*
X102799500Y-76330131D01*
X100050500Y-76330131D01*
X100050500Y-74559999D01*
X138264785Y-74559999D01*
X138264785Y-74560000D01*
X138283602Y-74763082D01*
X138339417Y-74959247D01*
X138339422Y-74959260D01*
X138430327Y-75141821D01*
X138553237Y-75304581D01*
X138703958Y-75441980D01*
X138703960Y-75441982D01*
X138803141Y-75503392D01*
X138877363Y-75549348D01*
X139067544Y-75623024D01*
X139268024Y-75660500D01*
X139268026Y-75660500D01*
X139471974Y-75660500D01*
X139471976Y-75660500D01*
X139672456Y-75623024D01*
X139862637Y-75549348D01*
X140036041Y-75441981D01*
X140186764Y-75304579D01*
X140309673Y-75141821D01*
X140400582Y-74959250D01*
X140456397Y-74763083D01*
X140475215Y-74560000D01*
X140456397Y-74356917D01*
X140400582Y-74160750D01*
X140309673Y-73978179D01*
X140186764Y-73815421D01*
X140186762Y-73815418D01*
X140036041Y-73678019D01*
X140036039Y-73678017D01*
X139862642Y-73570655D01*
X139862635Y-73570651D01*
X139767546Y-73533814D01*
X139672456Y-73496976D01*
X139471976Y-73459500D01*
X139268024Y-73459500D01*
X139067544Y-73496976D01*
X139067541Y-73496976D01*
X139067541Y-73496977D01*
X138877364Y-73570651D01*
X138877357Y-73570655D01*
X138703960Y-73678017D01*
X138703958Y-73678019D01*
X138553237Y-73815418D01*
X138430327Y-73978178D01*
X138339422Y-74160739D01*
X138339417Y-74160752D01*
X138283602Y-74356917D01*
X138264785Y-74559999D01*
X100050500Y-74559999D01*
X100050500Y-72263435D01*
X102799500Y-72263435D01*
X102799500Y-72466564D01*
X102831277Y-72667194D01*
X102831277Y-72667197D01*
X102894045Y-72860377D01*
X102986268Y-73041372D01*
X103105656Y-73205697D01*
X103105660Y-73205702D01*
X103249297Y-73349339D01*
X103249302Y-73349343D01*
X103392635Y-73453480D01*
X103413631Y-73468734D01*
X103594620Y-73560953D01*
X103594622Y-73560954D01*
X103787803Y-73623722D01*
X103787804Y-73623722D01*
X103787807Y-73623723D01*
X103988435Y-73655500D01*
X103988436Y-73655500D01*
X106171564Y-73655500D01*
X106171565Y-73655500D01*
X106372193Y-73623723D01*
X106372196Y-73623722D01*
X106372197Y-73623722D01*
X106565377Y-73560954D01*
X106565377Y-73560953D01*
X106565380Y-73560953D01*
X106746369Y-73468734D01*
X106910704Y-73349338D01*
X107054338Y-73205704D01*
X107173734Y-73041369D01*
X107265953Y-72860380D01*
X107328723Y-72667193D01*
X107360500Y-72466565D01*
X107360500Y-72263435D01*
X107328723Y-72062807D01*
X107328722Y-72062803D01*
X107328722Y-72062802D01*
X107265954Y-71869622D01*
X107265953Y-71869620D01*
X107173734Y-71688631D01*
X107158480Y-71667635D01*
X107054343Y-71524302D01*
X107054339Y-71524297D01*
X106910702Y-71380660D01*
X106910697Y-71380656D01*
X106746372Y-71261268D01*
X106746371Y-71261267D01*
X106746369Y-71261266D01*
X106655874Y-71215156D01*
X106565377Y-71169045D01*
X106372196Y-71106277D01*
X106221722Y-71082444D01*
X106171565Y-71074500D01*
X103988435Y-71074500D01*
X103921559Y-71085092D01*
X103787805Y-71106277D01*
X103787802Y-71106277D01*
X103594622Y-71169045D01*
X103413627Y-71261268D01*
X103249302Y-71380656D01*
X103249297Y-71380660D01*
X103105660Y-71524297D01*
X103105656Y-71524302D01*
X102986268Y-71688627D01*
X102894045Y-71869622D01*
X102831277Y-72062802D01*
X102831277Y-72062805D01*
X102799500Y-72263435D01*
X100050500Y-72263435D01*
X100050500Y-69559999D01*
X138264785Y-69559999D01*
X138264785Y-69560000D01*
X138283602Y-69763082D01*
X138339417Y-69959247D01*
X138339422Y-69959260D01*
X138430327Y-70141821D01*
X138553237Y-70304581D01*
X138703958Y-70441980D01*
X138703960Y-70441982D01*
X138803141Y-70503392D01*
X138877363Y-70549348D01*
X139067544Y-70623024D01*
X139268024Y-70660500D01*
X139268026Y-70660500D01*
X139471974Y-70660500D01*
X139471976Y-70660500D01*
X139672456Y-70623024D01*
X139862637Y-70549348D01*
X140036041Y-70441981D01*
X140186764Y-70304579D01*
X140309673Y-70141821D01*
X140400582Y-69959250D01*
X140456397Y-69763083D01*
X140475215Y-69560000D01*
X140456397Y-69356917D01*
X140400582Y-69160750D01*
X140309673Y-68978179D01*
X140186764Y-68815421D01*
X140186762Y-68815418D01*
X140036041Y-68678019D01*
X140036039Y-68678017D01*
X139862642Y-68570655D01*
X139862635Y-68570651D01*
X139767546Y-68533814D01*
X139672456Y-68496976D01*
X139471976Y-68459500D01*
X139268024Y-68459500D01*
X139067544Y-68496976D01*
X139067541Y-68496976D01*
X139067541Y-68496977D01*
X138877364Y-68570651D01*
X138877357Y-68570655D01*
X138703960Y-68678017D01*
X138703958Y-68678019D01*
X138553237Y-68815418D01*
X138430327Y-68978178D01*
X138339422Y-69160739D01*
X138339417Y-69160752D01*
X138283602Y-69356917D01*
X138264785Y-69559999D01*
X100050500Y-69559999D01*
X100050500Y-64439997D01*
X113935034Y-64439997D01*
X113935034Y-64440002D01*
X113954858Y-64666599D01*
X113954860Y-64666610D01*
X114013730Y-64886317D01*
X114013735Y-64886331D01*
X114109863Y-65092478D01*
X114160974Y-65165472D01*
X114840000Y-64486446D01*
X114840000Y-64492661D01*
X114867259Y-64594394D01*
X114919920Y-64685606D01*
X114994394Y-64760080D01*
X115085606Y-64812741D01*
X115187339Y-64840000D01*
X115193553Y-64840000D01*
X114514526Y-65519025D01*
X114587513Y-65570132D01*
X114587521Y-65570136D01*
X114793668Y-65666264D01*
X114793682Y-65666269D01*
X115013389Y-65725139D01*
X115013400Y-65725141D01*
X115239998Y-65744966D01*
X115240002Y-65744966D01*
X115466599Y-65725141D01*
X115466610Y-65725139D01*
X115686317Y-65666269D01*
X115686331Y-65666264D01*
X115892478Y-65570136D01*
X115965471Y-65519024D01*
X115286447Y-64840000D01*
X115292661Y-64840000D01*
X115394394Y-64812741D01*
X115485606Y-64760080D01*
X115560080Y-64685606D01*
X115612741Y-64594394D01*
X115640000Y-64492661D01*
X115640000Y-64486447D01*
X116319024Y-65165471D01*
X116370136Y-65092478D01*
X116466264Y-64886331D01*
X116466269Y-64886317D01*
X116525139Y-64666610D01*
X116525141Y-64666599D01*
X116544966Y-64440002D01*
X116544966Y-64439999D01*
X124294785Y-64439999D01*
X124294785Y-64440000D01*
X124313602Y-64643082D01*
X124369417Y-64839247D01*
X124369422Y-64839260D01*
X124460327Y-65021821D01*
X124583237Y-65184581D01*
X124733958Y-65321980D01*
X124733960Y-65321982D01*
X124833141Y-65383392D01*
X124907363Y-65429348D01*
X125097544Y-65503024D01*
X125298024Y-65540500D01*
X125298026Y-65540500D01*
X125501974Y-65540500D01*
X125501976Y-65540500D01*
X125702456Y-65503024D01*
X125823842Y-65455999D01*
X138264785Y-65455999D01*
X138264785Y-65456000D01*
X138283602Y-65659082D01*
X138339417Y-65855247D01*
X138339422Y-65855260D01*
X138430327Y-66037821D01*
X138553237Y-66200581D01*
X138703958Y-66337980D01*
X138703960Y-66337982D01*
X138803141Y-66399392D01*
X138877363Y-66445348D01*
X139067544Y-66519024D01*
X139268024Y-66556500D01*
X139268026Y-66556500D01*
X139471974Y-66556500D01*
X139471976Y-66556500D01*
X139672456Y-66519024D01*
X139862637Y-66445348D01*
X140036041Y-66337981D01*
X140186764Y-66200579D01*
X140309673Y-66037821D01*
X140400582Y-65855250D01*
X140456397Y-65659083D01*
X140475215Y-65456000D01*
X140462796Y-65321980D01*
X140456397Y-65252917D01*
X140431516Y-65165471D01*
X140400582Y-65056750D01*
X140309673Y-64874179D01*
X140186764Y-64711421D01*
X140186762Y-64711418D01*
X140036041Y-64574019D01*
X140036039Y-64574017D01*
X139862642Y-64466655D01*
X139862635Y-64466651D01*
X139767546Y-64429814D01*
X139672456Y-64392976D01*
X139471976Y-64355500D01*
X139268024Y-64355500D01*
X139067544Y-64392976D01*
X139067541Y-64392976D01*
X139067541Y-64392977D01*
X138877364Y-64466651D01*
X138877357Y-64466655D01*
X138703960Y-64574017D01*
X138703958Y-64574019D01*
X138553237Y-64711418D01*
X138430327Y-64874178D01*
X138339422Y-65056739D01*
X138339417Y-65056752D01*
X138283602Y-65252917D01*
X138264785Y-65455999D01*
X125823842Y-65455999D01*
X125892637Y-65429348D01*
X126066041Y-65321981D01*
X126216764Y-65184579D01*
X126339673Y-65021821D01*
X126430582Y-64839250D01*
X126486397Y-64643083D01*
X126505215Y-64440000D01*
X126486397Y-64236917D01*
X126430582Y-64040750D01*
X126339673Y-63858179D01*
X126280704Y-63780091D01*
X126216762Y-63695418D01*
X126066041Y-63558019D01*
X126066039Y-63558017D01*
X125892642Y-63450655D01*
X125892635Y-63450651D01*
X125797546Y-63413814D01*
X125702456Y-63376976D01*
X125501976Y-63339500D01*
X125298024Y-63339500D01*
X125097544Y-63376976D01*
X125097541Y-63376976D01*
X125097541Y-63376977D01*
X124907364Y-63450651D01*
X124907357Y-63450655D01*
X124733960Y-63558017D01*
X124733958Y-63558019D01*
X124583237Y-63695418D01*
X124460327Y-63858178D01*
X124369422Y-64040739D01*
X124369417Y-64040752D01*
X124313602Y-64236917D01*
X124294785Y-64439999D01*
X116544966Y-64439999D01*
X116544966Y-64439997D01*
X116525141Y-64213400D01*
X116525139Y-64213389D01*
X116466269Y-63993682D01*
X116466264Y-63993668D01*
X116370136Y-63787521D01*
X116370132Y-63787513D01*
X116319025Y-63714526D01*
X115640000Y-64393551D01*
X115640000Y-64387339D01*
X115612741Y-64285606D01*
X115560080Y-64194394D01*
X115485606Y-64119920D01*
X115394394Y-64067259D01*
X115292661Y-64040000D01*
X115286445Y-64040000D01*
X115965472Y-63360974D01*
X115892478Y-63309863D01*
X115686331Y-63213735D01*
X115686317Y-63213730D01*
X115466610Y-63154860D01*
X115466599Y-63154858D01*
X115240002Y-63135034D01*
X115239998Y-63135034D01*
X115013400Y-63154858D01*
X115013389Y-63154860D01*
X114793682Y-63213730D01*
X114793673Y-63213734D01*
X114587516Y-63309866D01*
X114587512Y-63309868D01*
X114514526Y-63360973D01*
X114514526Y-63360974D01*
X115193553Y-64040000D01*
X115187339Y-64040000D01*
X115085606Y-64067259D01*
X114994394Y-64119920D01*
X114919920Y-64194394D01*
X114867259Y-64285606D01*
X114840000Y-64387339D01*
X114840000Y-64393552D01*
X114160974Y-63714526D01*
X114160973Y-63714526D01*
X114109868Y-63787512D01*
X114109866Y-63787516D01*
X114013734Y-63993673D01*
X114013730Y-63993682D01*
X113954860Y-64213389D01*
X113954858Y-64213400D01*
X113935034Y-64439997D01*
X100050500Y-64439997D01*
X100050500Y-59359997D01*
X113935034Y-59359997D01*
X113935034Y-59360002D01*
X113954858Y-59586599D01*
X113954860Y-59586610D01*
X114013730Y-59806317D01*
X114013735Y-59806331D01*
X114109863Y-60012478D01*
X114160974Y-60085472D01*
X114840000Y-59406446D01*
X114840000Y-59412661D01*
X114867259Y-59514394D01*
X114919920Y-59605606D01*
X114994394Y-59680080D01*
X115085606Y-59732741D01*
X115187339Y-59760000D01*
X115193553Y-59760000D01*
X114514526Y-60439025D01*
X114587513Y-60490132D01*
X114587521Y-60490136D01*
X114793668Y-60586264D01*
X114793682Y-60586269D01*
X115013389Y-60645139D01*
X115013400Y-60645141D01*
X115239998Y-60664966D01*
X115240002Y-60664966D01*
X115466599Y-60645141D01*
X115466610Y-60645139D01*
X115686317Y-60586269D01*
X115686331Y-60586264D01*
X115892478Y-60490136D01*
X115965471Y-60439024D01*
X115286447Y-59760000D01*
X115292661Y-59760000D01*
X115394394Y-59732741D01*
X115485606Y-59680080D01*
X115560080Y-59605606D01*
X115612741Y-59514394D01*
X115640000Y-59412661D01*
X115640000Y-59406447D01*
X116319024Y-60085471D01*
X116370136Y-60012478D01*
X116466264Y-59806331D01*
X116466269Y-59806317D01*
X116525139Y-59586610D01*
X116525141Y-59586599D01*
X116544966Y-59360002D01*
X116544966Y-59359999D01*
X124294785Y-59359999D01*
X124294785Y-59360000D01*
X124313602Y-59563082D01*
X124369417Y-59759247D01*
X124369422Y-59759260D01*
X124460327Y-59941821D01*
X124583237Y-60104581D01*
X124733958Y-60241980D01*
X124733960Y-60241982D01*
X124833141Y-60303392D01*
X124907363Y-60349348D01*
X125097544Y-60423024D01*
X125298024Y-60460500D01*
X125298026Y-60460500D01*
X125501974Y-60460500D01*
X125501976Y-60460500D01*
X125702456Y-60423024D01*
X125892637Y-60349348D01*
X126066041Y-60241981D01*
X126216764Y-60104579D01*
X126339673Y-59941821D01*
X126430582Y-59759250D01*
X126486397Y-59563083D01*
X126505215Y-59360000D01*
X126486397Y-59156917D01*
X126430582Y-58960750D01*
X126339673Y-58778179D01*
X126280704Y-58700091D01*
X126216762Y-58615418D01*
X126066041Y-58478019D01*
X126066039Y-58478017D01*
X125892642Y-58370655D01*
X125892635Y-58370651D01*
X125797546Y-58333814D01*
X125702456Y-58296976D01*
X125501976Y-58259500D01*
X125298024Y-58259500D01*
X125097544Y-58296976D01*
X125097541Y-58296976D01*
X125097541Y-58296977D01*
X124907364Y-58370651D01*
X124907357Y-58370655D01*
X124733960Y-58478017D01*
X124733958Y-58478019D01*
X124583237Y-58615418D01*
X124460327Y-58778178D01*
X124369422Y-58960739D01*
X124369417Y-58960752D01*
X124313602Y-59156917D01*
X124294785Y-59359999D01*
X116544966Y-59359999D01*
X116544966Y-59359997D01*
X116525141Y-59133400D01*
X116525139Y-59133389D01*
X116466269Y-58913682D01*
X116466264Y-58913668D01*
X116370136Y-58707521D01*
X116370132Y-58707513D01*
X116319025Y-58634526D01*
X115640000Y-59313551D01*
X115640000Y-59307339D01*
X115612741Y-59205606D01*
X115560080Y-59114394D01*
X115485606Y-59039920D01*
X115394394Y-58987259D01*
X115292661Y-58960000D01*
X115286445Y-58960000D01*
X115965472Y-58280974D01*
X115892478Y-58229863D01*
X115686331Y-58133735D01*
X115686317Y-58133730D01*
X115466610Y-58074860D01*
X115466599Y-58074858D01*
X115240002Y-58055034D01*
X115239998Y-58055034D01*
X115013400Y-58074858D01*
X115013389Y-58074860D01*
X114793682Y-58133730D01*
X114793673Y-58133734D01*
X114587516Y-58229866D01*
X114587512Y-58229868D01*
X114514526Y-58280973D01*
X114514526Y-58280974D01*
X115193553Y-58960000D01*
X115187339Y-58960000D01*
X115085606Y-58987259D01*
X114994394Y-59039920D01*
X114919920Y-59114394D01*
X114867259Y-59205606D01*
X114840000Y-59307339D01*
X114840000Y-59313552D01*
X114160974Y-58634526D01*
X114160973Y-58634526D01*
X114109868Y-58707512D01*
X114109866Y-58707516D01*
X114013734Y-58913673D01*
X114013730Y-58913682D01*
X113954860Y-59133389D01*
X113954858Y-59133400D01*
X113935034Y-59359997D01*
X100050500Y-59359997D01*
X100050500Y-55295999D01*
X138264785Y-55295999D01*
X138264785Y-55296000D01*
X138283602Y-55499082D01*
X138339417Y-55695247D01*
X138339422Y-55695260D01*
X138430327Y-55877821D01*
X138553237Y-56040581D01*
X138703958Y-56177980D01*
X138703960Y-56177982D01*
X138803141Y-56239392D01*
X138877363Y-56285348D01*
X139067544Y-56359024D01*
X139268024Y-56396500D01*
X139268026Y-56396500D01*
X139471974Y-56396500D01*
X139471976Y-56396500D01*
X139672456Y-56359024D01*
X139862637Y-56285348D01*
X140036041Y-56177981D01*
X140186764Y-56040579D01*
X140309673Y-55877821D01*
X140400582Y-55695250D01*
X140456397Y-55499083D01*
X140475215Y-55296000D01*
X140456397Y-55092917D01*
X140400582Y-54896750D01*
X140309673Y-54714179D01*
X140186764Y-54551421D01*
X140186762Y-54551418D01*
X140036041Y-54414019D01*
X140036039Y-54414017D01*
X139862642Y-54306655D01*
X139862635Y-54306651D01*
X139767546Y-54269814D01*
X139672456Y-54232976D01*
X139471976Y-54195500D01*
X139268024Y-54195500D01*
X139067544Y-54232976D01*
X139067541Y-54232976D01*
X139067541Y-54232977D01*
X138877364Y-54306651D01*
X138877357Y-54306655D01*
X138703960Y-54414017D01*
X138703958Y-54414019D01*
X138553237Y-54551418D01*
X138430327Y-54714178D01*
X138339422Y-54896739D01*
X138339417Y-54896752D01*
X138283602Y-55092917D01*
X138264785Y-55295999D01*
X100050500Y-55295999D01*
X100050500Y-47872155D01*
X107020000Y-47872155D01*
X107020000Y-48520000D01*
X107936988Y-48520000D01*
X107904075Y-48577007D01*
X107870000Y-48704174D01*
X107870000Y-48835826D01*
X107904075Y-48962993D01*
X107936988Y-49020000D01*
X107020000Y-49020000D01*
X107020000Y-49667844D01*
X107026401Y-49727372D01*
X107026403Y-49727379D01*
X107076645Y-49862086D01*
X107076649Y-49862093D01*
X107162809Y-49977187D01*
X107162812Y-49977190D01*
X107277906Y-50063350D01*
X107277913Y-50063354D01*
X107412620Y-50113596D01*
X107412627Y-50113598D01*
X107472155Y-50119999D01*
X107472172Y-50120000D01*
X108120000Y-50120000D01*
X108120000Y-49203012D01*
X108177007Y-49235925D01*
X108304174Y-49270000D01*
X108435826Y-49270000D01*
X108562993Y-49235925D01*
X108620000Y-49203012D01*
X108620000Y-50120000D01*
X109267828Y-50120000D01*
X109267844Y-50119999D01*
X109327372Y-50113598D01*
X109327379Y-50113596D01*
X109462086Y-50063354D01*
X109462093Y-50063350D01*
X109577187Y-49977190D01*
X109577190Y-49977187D01*
X109663350Y-49862093D01*
X109663354Y-49862086D01*
X109713596Y-49727379D01*
X109713598Y-49727372D01*
X109719999Y-49667844D01*
X109720000Y-49667827D01*
X109720000Y-49473268D01*
X109739685Y-49406229D01*
X109792489Y-49360474D01*
X109861647Y-49350530D01*
X109925203Y-49379555D01*
X109942950Y-49398537D01*
X110056128Y-49548407D01*
X110213698Y-49692052D01*
X110394981Y-49804298D01*
X110593802Y-49881321D01*
X110803390Y-49920500D01*
X110803392Y-49920500D01*
X111016608Y-49920500D01*
X111016610Y-49920500D01*
X111226198Y-49881321D01*
X111425019Y-49804298D01*
X111606302Y-49692052D01*
X111763872Y-49548407D01*
X111892366Y-49378255D01*
X111946270Y-49270000D01*
X111987403Y-49187394D01*
X111987403Y-49187393D01*
X111987405Y-49187389D01*
X112045756Y-48982310D01*
X112056529Y-48866047D01*
X112082315Y-48801111D01*
X112126869Y-48769194D01*
X112090497Y-48748331D01*
X112058307Y-48686318D01*
X112056529Y-48673951D01*
X112055849Y-48666613D01*
X112045756Y-48557690D01*
X111987405Y-48352611D01*
X111987403Y-48352606D01*
X111987403Y-48352605D01*
X111892367Y-48161746D01*
X111763872Y-47991593D01*
X111606302Y-47847948D01*
X111425019Y-47735702D01*
X111425017Y-47735701D01*
X111275829Y-47677906D01*
X111226198Y-47658679D01*
X111029385Y-47621888D01*
X110967106Y-47590221D01*
X110931833Y-47529908D01*
X110934767Y-47460100D01*
X110974976Y-47402960D01*
X111029384Y-47378111D01*
X111226198Y-47341321D01*
X111425019Y-47264298D01*
X111606302Y-47152052D01*
X111763872Y-47008407D01*
X111892366Y-46838255D01*
X111972804Y-46676712D01*
X111987403Y-46647394D01*
X111987403Y-46647393D01*
X111987405Y-46647389D01*
X112045756Y-46442310D01*
X112056529Y-46326047D01*
X112082315Y-46261111D01*
X112124622Y-46230804D01*
X112233130Y-46230804D01*
X112269503Y-46251668D01*
X112301693Y-46313681D01*
X112303471Y-46326048D01*
X112314244Y-46442310D01*
X112372596Y-46647392D01*
X112372596Y-46647394D01*
X112467632Y-46838253D01*
X112589779Y-47000000D01*
X112596128Y-47008407D01*
X112753698Y-47152052D01*
X112934981Y-47264298D01*
X113133802Y-47341321D01*
X113330613Y-47378111D01*
X113392893Y-47409779D01*
X113428166Y-47470092D01*
X113425232Y-47539900D01*
X113385023Y-47597040D01*
X113330613Y-47621888D01*
X113133802Y-47658679D01*
X113133799Y-47658679D01*
X113133799Y-47658680D01*
X112934982Y-47735701D01*
X112934980Y-47735702D01*
X112753699Y-47847947D01*
X112596127Y-47991593D01*
X112467632Y-48161746D01*
X112372596Y-48352605D01*
X112372596Y-48352607D01*
X112314244Y-48557689D01*
X112303471Y-48673951D01*
X112277685Y-48738888D01*
X112233130Y-48770804D01*
X112269503Y-48791668D01*
X112301693Y-48853681D01*
X112303470Y-48866047D01*
X112314244Y-48982310D01*
X112367675Y-49170099D01*
X112372596Y-49187392D01*
X112372596Y-49187394D01*
X112467632Y-49378253D01*
X112539385Y-49473268D01*
X112596128Y-49548407D01*
X112753698Y-49692052D01*
X112934981Y-49804298D01*
X113133802Y-49881321D01*
X113343390Y-49920500D01*
X113343392Y-49920500D01*
X113556608Y-49920500D01*
X113556610Y-49920500D01*
X113766198Y-49881321D01*
X113965019Y-49804298D01*
X114146302Y-49692052D01*
X114303872Y-49548407D01*
X114432366Y-49378255D01*
X114486270Y-49270000D01*
X114527403Y-49187394D01*
X114527403Y-49187393D01*
X114527405Y-49187389D01*
X114585756Y-48982310D01*
X114596529Y-48866047D01*
X114622315Y-48801111D01*
X114666869Y-48769194D01*
X114630497Y-48748331D01*
X114598307Y-48686318D01*
X114596529Y-48673951D01*
X114595849Y-48666613D01*
X114585756Y-48557690D01*
X114527405Y-48352611D01*
X114527403Y-48352606D01*
X114527403Y-48352605D01*
X114432367Y-48161746D01*
X114303872Y-47991593D01*
X114146302Y-47847948D01*
X113965019Y-47735702D01*
X113965017Y-47735701D01*
X113815829Y-47677906D01*
X113766198Y-47658679D01*
X113569385Y-47621888D01*
X113507106Y-47590221D01*
X113471833Y-47529908D01*
X113474767Y-47460100D01*
X113514976Y-47402960D01*
X113569384Y-47378111D01*
X113766198Y-47341321D01*
X113965019Y-47264298D01*
X114146302Y-47152052D01*
X114303872Y-47008407D01*
X114432366Y-46838255D01*
X114512804Y-46676712D01*
X114527403Y-46647394D01*
X114527403Y-46647393D01*
X114527405Y-46647389D01*
X114585756Y-46442310D01*
X114596529Y-46326047D01*
X114622315Y-46261111D01*
X114664622Y-46230804D01*
X114773130Y-46230804D01*
X114809503Y-46251668D01*
X114841693Y-46313681D01*
X114843471Y-46326048D01*
X114854244Y-46442310D01*
X114912596Y-46647392D01*
X114912596Y-46647394D01*
X115007632Y-46838253D01*
X115129779Y-47000000D01*
X115136128Y-47008407D01*
X115293698Y-47152052D01*
X115474981Y-47264298D01*
X115673802Y-47341321D01*
X115870613Y-47378111D01*
X115932893Y-47409779D01*
X115968166Y-47470092D01*
X115965232Y-47539900D01*
X115925023Y-47597040D01*
X115870613Y-47621888D01*
X115673802Y-47658679D01*
X115673799Y-47658679D01*
X115673799Y-47658680D01*
X115474982Y-47735701D01*
X115474980Y-47735702D01*
X115293699Y-47847947D01*
X115136127Y-47991593D01*
X115007632Y-48161746D01*
X114912596Y-48352605D01*
X114912596Y-48352607D01*
X114854244Y-48557689D01*
X114843471Y-48673951D01*
X114817685Y-48738888D01*
X114773130Y-48770804D01*
X114809503Y-48791668D01*
X114841693Y-48853681D01*
X114843470Y-48866047D01*
X114854244Y-48982310D01*
X114907675Y-49170099D01*
X114912596Y-49187392D01*
X114912596Y-49187394D01*
X115007632Y-49378253D01*
X115079385Y-49473268D01*
X115136128Y-49548407D01*
X115293698Y-49692052D01*
X115474981Y-49804298D01*
X115673802Y-49881321D01*
X115883390Y-49920500D01*
X115883392Y-49920500D01*
X116096608Y-49920500D01*
X116096610Y-49920500D01*
X116306198Y-49881321D01*
X116505019Y-49804298D01*
X116686302Y-49692052D01*
X116843872Y-49548407D01*
X116972366Y-49378255D01*
X117026270Y-49270000D01*
X117067403Y-49187394D01*
X117067403Y-49187393D01*
X117067405Y-49187389D01*
X117125756Y-48982310D01*
X117136529Y-48866047D01*
X117162315Y-48801111D01*
X117206869Y-48769194D01*
X117170497Y-48748331D01*
X117138307Y-48686318D01*
X117136529Y-48673951D01*
X117135849Y-48666613D01*
X117125756Y-48557690D01*
X117067405Y-48352611D01*
X117067403Y-48352606D01*
X117067403Y-48352605D01*
X116972367Y-48161746D01*
X116843872Y-47991593D01*
X116686302Y-47847948D01*
X116505019Y-47735702D01*
X116505017Y-47735701D01*
X116355829Y-47677906D01*
X116306198Y-47658679D01*
X116109385Y-47621888D01*
X116047106Y-47590221D01*
X116011833Y-47529908D01*
X116014767Y-47460100D01*
X116054976Y-47402960D01*
X116109384Y-47378111D01*
X116306198Y-47341321D01*
X116505019Y-47264298D01*
X116686302Y-47152052D01*
X116843872Y-47008407D01*
X116972366Y-46838255D01*
X117052804Y-46676712D01*
X117067403Y-46647394D01*
X117067403Y-46647393D01*
X117067405Y-46647389D01*
X117125756Y-46442310D01*
X117136529Y-46326047D01*
X117162315Y-46261111D01*
X117204622Y-46230804D01*
X117313130Y-46230804D01*
X117349503Y-46251668D01*
X117381693Y-46313681D01*
X117383471Y-46326048D01*
X117394244Y-46442310D01*
X117452596Y-46647392D01*
X117452596Y-46647394D01*
X117547632Y-46838253D01*
X117669779Y-47000000D01*
X117676128Y-47008407D01*
X117833698Y-47152052D01*
X118014981Y-47264298D01*
X118213802Y-47341321D01*
X118410613Y-47378111D01*
X118472893Y-47409779D01*
X118508166Y-47470092D01*
X118505232Y-47539900D01*
X118465023Y-47597040D01*
X118410613Y-47621888D01*
X118213802Y-47658679D01*
X118213799Y-47658679D01*
X118213799Y-47658680D01*
X118014982Y-47735701D01*
X118014980Y-47735702D01*
X117833699Y-47847947D01*
X117676127Y-47991593D01*
X117547632Y-48161746D01*
X117452596Y-48352605D01*
X117452596Y-48352607D01*
X117394244Y-48557689D01*
X117383471Y-48673951D01*
X117357685Y-48738888D01*
X117313130Y-48770804D01*
X117349503Y-48791668D01*
X117381693Y-48853681D01*
X117383470Y-48866047D01*
X117394244Y-48982310D01*
X117447675Y-49170099D01*
X117452596Y-49187392D01*
X117452596Y-49187394D01*
X117547632Y-49378253D01*
X117619385Y-49473268D01*
X117676128Y-49548407D01*
X117833698Y-49692052D01*
X118014981Y-49804298D01*
X118213802Y-49881321D01*
X118423390Y-49920500D01*
X118423392Y-49920500D01*
X118636608Y-49920500D01*
X118636610Y-49920500D01*
X118846198Y-49881321D01*
X119045019Y-49804298D01*
X119226302Y-49692052D01*
X119383872Y-49548407D01*
X119512366Y-49378255D01*
X119566270Y-49270000D01*
X119607403Y-49187394D01*
X119607403Y-49187393D01*
X119607405Y-49187389D01*
X119665756Y-48982310D01*
X119676529Y-48866047D01*
X119702315Y-48801111D01*
X119746869Y-48769194D01*
X119710497Y-48748331D01*
X119678307Y-48686318D01*
X119676529Y-48673951D01*
X119675849Y-48666613D01*
X119665756Y-48557690D01*
X119607405Y-48352611D01*
X119607403Y-48352606D01*
X119607403Y-48352605D01*
X119512367Y-48161746D01*
X119383872Y-47991593D01*
X119226302Y-47847948D01*
X119045019Y-47735702D01*
X119045017Y-47735701D01*
X118895829Y-47677906D01*
X118846198Y-47658679D01*
X118649385Y-47621888D01*
X118587106Y-47590221D01*
X118551833Y-47529908D01*
X118554767Y-47460100D01*
X118594976Y-47402960D01*
X118649384Y-47378111D01*
X118846198Y-47341321D01*
X119045019Y-47264298D01*
X119226302Y-47152052D01*
X119383872Y-47008407D01*
X119512366Y-46838255D01*
X119592804Y-46676712D01*
X119607403Y-46647394D01*
X119607403Y-46647393D01*
X119607405Y-46647389D01*
X119665756Y-46442310D01*
X119676529Y-46326047D01*
X119702315Y-46261111D01*
X119744622Y-46230804D01*
X119853130Y-46230804D01*
X119889503Y-46251668D01*
X119921693Y-46313681D01*
X119923471Y-46326048D01*
X119934244Y-46442310D01*
X119992596Y-46647392D01*
X119992596Y-46647394D01*
X120087632Y-46838253D01*
X120209779Y-47000000D01*
X120216128Y-47008407D01*
X120373698Y-47152052D01*
X120554981Y-47264298D01*
X120753802Y-47341321D01*
X120950613Y-47378111D01*
X121012893Y-47409779D01*
X121048166Y-47470092D01*
X121045232Y-47539900D01*
X121005023Y-47597040D01*
X120950613Y-47621888D01*
X120753802Y-47658679D01*
X120753799Y-47658679D01*
X120753799Y-47658680D01*
X120554982Y-47735701D01*
X120554980Y-47735702D01*
X120373699Y-47847947D01*
X120216127Y-47991593D01*
X120087632Y-48161746D01*
X119992596Y-48352605D01*
X119992596Y-48352607D01*
X119934244Y-48557689D01*
X119923471Y-48673951D01*
X119897685Y-48738888D01*
X119853130Y-48770804D01*
X119889503Y-48791668D01*
X119921693Y-48853681D01*
X119923470Y-48866047D01*
X119934244Y-48982310D01*
X119987675Y-49170099D01*
X119992596Y-49187392D01*
X119992596Y-49187394D01*
X120087632Y-49378253D01*
X120159385Y-49473268D01*
X120216128Y-49548407D01*
X120373698Y-49692052D01*
X120554981Y-49804298D01*
X120753802Y-49881321D01*
X120963390Y-49920500D01*
X120963392Y-49920500D01*
X121176608Y-49920500D01*
X121176610Y-49920500D01*
X121386198Y-49881321D01*
X121585019Y-49804298D01*
X121766302Y-49692052D01*
X121923872Y-49548407D01*
X122052366Y-49378255D01*
X122106270Y-49270000D01*
X122147403Y-49187394D01*
X122147403Y-49187393D01*
X122147405Y-49187389D01*
X122205756Y-48982310D01*
X122216529Y-48866047D01*
X122242315Y-48801111D01*
X122286869Y-48769194D01*
X122250497Y-48748331D01*
X122218307Y-48686318D01*
X122216529Y-48673951D01*
X122215849Y-48666613D01*
X122205756Y-48557690D01*
X122147405Y-48352611D01*
X122147403Y-48352606D01*
X122147403Y-48352605D01*
X122052367Y-48161746D01*
X121923872Y-47991593D01*
X121766302Y-47847948D01*
X121585019Y-47735702D01*
X121585017Y-47735701D01*
X121435829Y-47677906D01*
X121386198Y-47658679D01*
X121189385Y-47621888D01*
X121127106Y-47590221D01*
X121091833Y-47529908D01*
X121094767Y-47460100D01*
X121134976Y-47402960D01*
X121189384Y-47378111D01*
X121386198Y-47341321D01*
X121585019Y-47264298D01*
X121766302Y-47152052D01*
X121923872Y-47008407D01*
X122052366Y-46838255D01*
X122132804Y-46676712D01*
X122147403Y-46647394D01*
X122147403Y-46647393D01*
X122147405Y-46647389D01*
X122205756Y-46442310D01*
X122216529Y-46326047D01*
X122242315Y-46261111D01*
X122284622Y-46230804D01*
X122393130Y-46230804D01*
X122429503Y-46251668D01*
X122461693Y-46313681D01*
X122463471Y-46326048D01*
X122474244Y-46442310D01*
X122532596Y-46647392D01*
X122532596Y-46647394D01*
X122627632Y-46838253D01*
X122749779Y-47000000D01*
X122756128Y-47008407D01*
X122913698Y-47152052D01*
X123094981Y-47264298D01*
X123293802Y-47341321D01*
X123490613Y-47378111D01*
X123552893Y-47409779D01*
X123588166Y-47470092D01*
X123585232Y-47539900D01*
X123545023Y-47597040D01*
X123490613Y-47621888D01*
X123293802Y-47658679D01*
X123293799Y-47658679D01*
X123293799Y-47658680D01*
X123094982Y-47735701D01*
X123094980Y-47735702D01*
X122913699Y-47847947D01*
X122756127Y-47991593D01*
X122627632Y-48161746D01*
X122532596Y-48352605D01*
X122532596Y-48352607D01*
X122474244Y-48557689D01*
X122463471Y-48673951D01*
X122437685Y-48738888D01*
X122393130Y-48770804D01*
X122429503Y-48791668D01*
X122461693Y-48853681D01*
X122463470Y-48866047D01*
X122474244Y-48982310D01*
X122527675Y-49170099D01*
X122532596Y-49187392D01*
X122532596Y-49187394D01*
X122627632Y-49378253D01*
X122699385Y-49473268D01*
X122756128Y-49548407D01*
X122913698Y-49692052D01*
X123094981Y-49804298D01*
X123293802Y-49881321D01*
X123503390Y-49920500D01*
X123503392Y-49920500D01*
X123716608Y-49920500D01*
X123716610Y-49920500D01*
X123926198Y-49881321D01*
X124125019Y-49804298D01*
X124306302Y-49692052D01*
X124463872Y-49548407D01*
X124592366Y-49378255D01*
X124646270Y-49270000D01*
X124687403Y-49187394D01*
X124687403Y-49187393D01*
X124687405Y-49187389D01*
X124745756Y-48982310D01*
X124756529Y-48866047D01*
X124782315Y-48801111D01*
X124826869Y-48769194D01*
X124790497Y-48748331D01*
X124758307Y-48686318D01*
X124756529Y-48673951D01*
X124755849Y-48666613D01*
X124745756Y-48557690D01*
X124687405Y-48352611D01*
X124687403Y-48352606D01*
X124687403Y-48352605D01*
X124592367Y-48161746D01*
X124463872Y-47991593D01*
X124306302Y-47847948D01*
X124125019Y-47735702D01*
X124125017Y-47735701D01*
X123975829Y-47677906D01*
X123926198Y-47658679D01*
X123729385Y-47621888D01*
X123667106Y-47590221D01*
X123631833Y-47529908D01*
X123634767Y-47460100D01*
X123674976Y-47402960D01*
X123729384Y-47378111D01*
X123926198Y-47341321D01*
X124125019Y-47264298D01*
X124306302Y-47152052D01*
X124463872Y-47008407D01*
X124592366Y-46838255D01*
X124672804Y-46676712D01*
X124687403Y-46647394D01*
X124687403Y-46647393D01*
X124687405Y-46647389D01*
X124745756Y-46442310D01*
X124756529Y-46326047D01*
X124782315Y-46261111D01*
X124824622Y-46230804D01*
X124933130Y-46230804D01*
X124969503Y-46251668D01*
X125001693Y-46313681D01*
X125003471Y-46326048D01*
X125014244Y-46442310D01*
X125072596Y-46647392D01*
X125072596Y-46647394D01*
X125167632Y-46838253D01*
X125289779Y-47000000D01*
X125296128Y-47008407D01*
X125453698Y-47152052D01*
X125634981Y-47264298D01*
X125833802Y-47341321D01*
X126030613Y-47378111D01*
X126092893Y-47409779D01*
X126128166Y-47470092D01*
X126125232Y-47539900D01*
X126085023Y-47597040D01*
X126030613Y-47621888D01*
X125833802Y-47658679D01*
X125833799Y-47658679D01*
X125833799Y-47658680D01*
X125634982Y-47735701D01*
X125634980Y-47735702D01*
X125453699Y-47847947D01*
X125296127Y-47991593D01*
X125167632Y-48161746D01*
X125072596Y-48352605D01*
X125072596Y-48352607D01*
X125014244Y-48557689D01*
X125003471Y-48673951D01*
X124977685Y-48738888D01*
X124933130Y-48770804D01*
X124969503Y-48791668D01*
X125001693Y-48853681D01*
X125003470Y-48866047D01*
X125014244Y-48982310D01*
X125067675Y-49170099D01*
X125072596Y-49187392D01*
X125072596Y-49187394D01*
X125167632Y-49378253D01*
X125239385Y-49473268D01*
X125296128Y-49548407D01*
X125453698Y-49692052D01*
X125634981Y-49804298D01*
X125833802Y-49881321D01*
X126043390Y-49920500D01*
X126043392Y-49920500D01*
X126256608Y-49920500D01*
X126256610Y-49920500D01*
X126466198Y-49881321D01*
X126665019Y-49804298D01*
X126846302Y-49692052D01*
X127003872Y-49548407D01*
X127132366Y-49378255D01*
X127199325Y-49243781D01*
X127246825Y-49192548D01*
X127314488Y-49175126D01*
X127380828Y-49197051D01*
X127422705Y-49246651D01*
X127516399Y-49447578D01*
X127651894Y-49641082D01*
X127818917Y-49808105D01*
X128012421Y-49943600D01*
X128226507Y-50043429D01*
X128226516Y-50043433D01*
X128440000Y-50100634D01*
X128440000Y-49203012D01*
X128497007Y-49235925D01*
X128624174Y-49270000D01*
X128755826Y-49270000D01*
X128882993Y-49235925D01*
X128940000Y-49203012D01*
X128940000Y-50100633D01*
X129153483Y-50043433D01*
X129153492Y-50043429D01*
X129367578Y-49943600D01*
X129561082Y-49808105D01*
X129728105Y-49641082D01*
X129863600Y-49447578D01*
X129957294Y-49246651D01*
X130003466Y-49194212D01*
X130070660Y-49175060D01*
X130137541Y-49195276D01*
X130180676Y-49243785D01*
X130247632Y-49378253D01*
X130319385Y-49473268D01*
X130376128Y-49548407D01*
X130533698Y-49692052D01*
X130714981Y-49804298D01*
X130913802Y-49881321D01*
X131123390Y-49920500D01*
X131123392Y-49920500D01*
X131336608Y-49920500D01*
X131336610Y-49920500D01*
X131546198Y-49881321D01*
X131745019Y-49804298D01*
X131926302Y-49692052D01*
X132083872Y-49548407D01*
X132212366Y-49378255D01*
X132266270Y-49270000D01*
X132307403Y-49187394D01*
X132307403Y-49187393D01*
X132307405Y-49187389D01*
X132365756Y-48982310D01*
X132376529Y-48866047D01*
X132402315Y-48801111D01*
X132446869Y-48769194D01*
X132410497Y-48748331D01*
X132378307Y-48686318D01*
X132376529Y-48673951D01*
X132375849Y-48666613D01*
X132365756Y-48557690D01*
X132307405Y-48352611D01*
X132307403Y-48352606D01*
X132307403Y-48352605D01*
X132212367Y-48161746D01*
X132083872Y-47991593D01*
X131926302Y-47847948D01*
X131745019Y-47735702D01*
X131745017Y-47735701D01*
X131595829Y-47677906D01*
X131546198Y-47658679D01*
X131349385Y-47621888D01*
X131287106Y-47590221D01*
X131251833Y-47529908D01*
X131254767Y-47460100D01*
X131294976Y-47402960D01*
X131349384Y-47378111D01*
X131546198Y-47341321D01*
X131745019Y-47264298D01*
X131926302Y-47152052D01*
X132083872Y-47008407D01*
X132212366Y-46838255D01*
X132292804Y-46676712D01*
X132307403Y-46647394D01*
X132307403Y-46647393D01*
X132307405Y-46647389D01*
X132365756Y-46442310D01*
X132376529Y-46326047D01*
X132402315Y-46261111D01*
X132444622Y-46230804D01*
X132553130Y-46230804D01*
X132589503Y-46251668D01*
X132621693Y-46313681D01*
X132623471Y-46326048D01*
X132634244Y-46442310D01*
X132692596Y-46647392D01*
X132692596Y-46647394D01*
X132787632Y-46838253D01*
X132909779Y-47000000D01*
X132916128Y-47008407D01*
X133073698Y-47152052D01*
X133254981Y-47264298D01*
X133453802Y-47341321D01*
X133650613Y-47378111D01*
X133712893Y-47409779D01*
X133748166Y-47470092D01*
X133745232Y-47539900D01*
X133705023Y-47597040D01*
X133650613Y-47621888D01*
X133453802Y-47658679D01*
X133453799Y-47658679D01*
X133453799Y-47658680D01*
X133254982Y-47735701D01*
X133254980Y-47735702D01*
X133073699Y-47847947D01*
X132916127Y-47991593D01*
X132787632Y-48161746D01*
X132692596Y-48352605D01*
X132692596Y-48352607D01*
X132634244Y-48557689D01*
X132623471Y-48673951D01*
X132597685Y-48738888D01*
X132553130Y-48770804D01*
X132589503Y-48791668D01*
X132621693Y-48853681D01*
X132623470Y-48866047D01*
X132634244Y-48982310D01*
X132687675Y-49170099D01*
X132692596Y-49187392D01*
X132692596Y-49187394D01*
X132787632Y-49378253D01*
X132859385Y-49473268D01*
X132916128Y-49548407D01*
X133073698Y-49692052D01*
X133254981Y-49804298D01*
X133453802Y-49881321D01*
X133663390Y-49920500D01*
X133663392Y-49920500D01*
X133876608Y-49920500D01*
X133876610Y-49920500D01*
X134086198Y-49881321D01*
X134285019Y-49804298D01*
X134466302Y-49692052D01*
X134623872Y-49548407D01*
X134752366Y-49378255D01*
X134806270Y-49270000D01*
X134847403Y-49187394D01*
X134847403Y-49187393D01*
X134847405Y-49187389D01*
X134905756Y-48982310D01*
X134916529Y-48866047D01*
X134942315Y-48801111D01*
X134986869Y-48769194D01*
X134950497Y-48748331D01*
X134918307Y-48686318D01*
X134916529Y-48673951D01*
X134915849Y-48666613D01*
X134905756Y-48557690D01*
X134847405Y-48352611D01*
X134847403Y-48352606D01*
X134847403Y-48352605D01*
X134752367Y-48161746D01*
X134623872Y-47991593D01*
X134466302Y-47847948D01*
X134285019Y-47735702D01*
X134285017Y-47735701D01*
X134135829Y-47677906D01*
X134086198Y-47658679D01*
X133889385Y-47621888D01*
X133827106Y-47590221D01*
X133791833Y-47529908D01*
X133794767Y-47460100D01*
X133834976Y-47402960D01*
X133889384Y-47378111D01*
X134086198Y-47341321D01*
X134285019Y-47264298D01*
X134466302Y-47152052D01*
X134623872Y-47008407D01*
X134752366Y-46838255D01*
X134832804Y-46676712D01*
X134847403Y-46647394D01*
X134847403Y-46647393D01*
X134847405Y-46647389D01*
X134905756Y-46442310D01*
X134916529Y-46326047D01*
X134942315Y-46261111D01*
X134984622Y-46230804D01*
X135093130Y-46230804D01*
X135129503Y-46251668D01*
X135161693Y-46313681D01*
X135163471Y-46326048D01*
X135174244Y-46442310D01*
X135232596Y-46647392D01*
X135232596Y-46647394D01*
X135327632Y-46838253D01*
X135449779Y-47000000D01*
X135456128Y-47008407D01*
X135613698Y-47152052D01*
X135794981Y-47264298D01*
X135993802Y-47341321D01*
X136190613Y-47378111D01*
X136252893Y-47409779D01*
X136288166Y-47470092D01*
X136285232Y-47539900D01*
X136245023Y-47597040D01*
X136190613Y-47621888D01*
X135993802Y-47658679D01*
X135993799Y-47658679D01*
X135993799Y-47658680D01*
X135794982Y-47735701D01*
X135794980Y-47735702D01*
X135613699Y-47847947D01*
X135456127Y-47991593D01*
X135327632Y-48161746D01*
X135232596Y-48352605D01*
X135232596Y-48352607D01*
X135174244Y-48557689D01*
X135163471Y-48673951D01*
X135137685Y-48738888D01*
X135093130Y-48770804D01*
X135129503Y-48791668D01*
X135161693Y-48853681D01*
X135163470Y-48866047D01*
X135174244Y-48982310D01*
X135227675Y-49170099D01*
X135232596Y-49187392D01*
X135232596Y-49187394D01*
X135327632Y-49378253D01*
X135399385Y-49473268D01*
X135456128Y-49548407D01*
X135613698Y-49692052D01*
X135794981Y-49804298D01*
X135993802Y-49881321D01*
X136203390Y-49920500D01*
X136203392Y-49920500D01*
X136416608Y-49920500D01*
X136416610Y-49920500D01*
X136626198Y-49881321D01*
X136825019Y-49804298D01*
X137006302Y-49692052D01*
X137163872Y-49548407D01*
X137292366Y-49378255D01*
X137346270Y-49270000D01*
X137387403Y-49187394D01*
X137387403Y-49187393D01*
X137387405Y-49187389D01*
X137445756Y-48982310D01*
X137456529Y-48866047D01*
X137482315Y-48801111D01*
X137526869Y-48769194D01*
X137490497Y-48748331D01*
X137458307Y-48686318D01*
X137456529Y-48673951D01*
X137455849Y-48666613D01*
X137445756Y-48557690D01*
X137387405Y-48352611D01*
X137387403Y-48352606D01*
X137387403Y-48352605D01*
X137292367Y-48161746D01*
X137163872Y-47991593D01*
X137006302Y-47847948D01*
X136825019Y-47735702D01*
X136825017Y-47735701D01*
X136675829Y-47677906D01*
X136626198Y-47658679D01*
X136429385Y-47621888D01*
X136367106Y-47590221D01*
X136331833Y-47529908D01*
X136334767Y-47460100D01*
X136374976Y-47402960D01*
X136429384Y-47378111D01*
X136626198Y-47341321D01*
X136825019Y-47264298D01*
X137006302Y-47152052D01*
X137163872Y-47008407D01*
X137292366Y-46838255D01*
X137372804Y-46676712D01*
X137387403Y-46647394D01*
X137387403Y-46647393D01*
X137387405Y-46647389D01*
X137445756Y-46442310D01*
X137456529Y-46326047D01*
X137482315Y-46261111D01*
X137524622Y-46230804D01*
X137633130Y-46230804D01*
X137669503Y-46251668D01*
X137701693Y-46313681D01*
X137703471Y-46326048D01*
X137714244Y-46442310D01*
X137772596Y-46647392D01*
X137772596Y-46647394D01*
X137867632Y-46838253D01*
X137989779Y-47000000D01*
X137996128Y-47008407D01*
X138153698Y-47152052D01*
X138334981Y-47264298D01*
X138533802Y-47341321D01*
X138730613Y-47378111D01*
X138792893Y-47409779D01*
X138828166Y-47470092D01*
X138825232Y-47539900D01*
X138785023Y-47597040D01*
X138730613Y-47621888D01*
X138533802Y-47658679D01*
X138533799Y-47658679D01*
X138533799Y-47658680D01*
X138334982Y-47735701D01*
X138334980Y-47735702D01*
X138153699Y-47847947D01*
X137996127Y-47991593D01*
X137867632Y-48161746D01*
X137772596Y-48352605D01*
X137772596Y-48352607D01*
X137714244Y-48557689D01*
X137703471Y-48673951D01*
X137677685Y-48738888D01*
X137633130Y-48770804D01*
X137669503Y-48791668D01*
X137701693Y-48853681D01*
X137703470Y-48866047D01*
X137714244Y-48982310D01*
X137767675Y-49170099D01*
X137772596Y-49187392D01*
X137772596Y-49187394D01*
X137867632Y-49378253D01*
X137939385Y-49473268D01*
X137996128Y-49548407D01*
X138153698Y-49692052D01*
X138334981Y-49804298D01*
X138533802Y-49881321D01*
X138743390Y-49920500D01*
X138743392Y-49920500D01*
X138956608Y-49920500D01*
X138956610Y-49920500D01*
X139166198Y-49881321D01*
X139365019Y-49804298D01*
X139546302Y-49692052D01*
X139703872Y-49548407D01*
X139832366Y-49378255D01*
X139886270Y-49270000D01*
X139927403Y-49187394D01*
X139927403Y-49187393D01*
X139927405Y-49187389D01*
X139985756Y-48982310D01*
X139996529Y-48866047D01*
X140022315Y-48801111D01*
X140066869Y-48769194D01*
X140030497Y-48748331D01*
X139998307Y-48686318D01*
X139996529Y-48673951D01*
X139995849Y-48666613D01*
X139985756Y-48557690D01*
X139927405Y-48352611D01*
X139927403Y-48352606D01*
X139927403Y-48352605D01*
X139832367Y-48161746D01*
X139703872Y-47991593D01*
X139546302Y-47847948D01*
X139365019Y-47735702D01*
X139365017Y-47735701D01*
X139215829Y-47677906D01*
X139166198Y-47658679D01*
X138969385Y-47621888D01*
X138907106Y-47590221D01*
X138871833Y-47529908D01*
X138874767Y-47460100D01*
X138914976Y-47402960D01*
X138969384Y-47378111D01*
X139166198Y-47341321D01*
X139365019Y-47264298D01*
X139546302Y-47152052D01*
X139703872Y-47008407D01*
X139832366Y-46838255D01*
X139912804Y-46676712D01*
X139927403Y-46647394D01*
X139927403Y-46647393D01*
X139927405Y-46647389D01*
X139985756Y-46442310D01*
X139996529Y-46326047D01*
X140022315Y-46261111D01*
X140064622Y-46230804D01*
X140173130Y-46230804D01*
X140209503Y-46251668D01*
X140241693Y-46313681D01*
X140243471Y-46326048D01*
X140254244Y-46442310D01*
X140312596Y-46647392D01*
X140312596Y-46647394D01*
X140407632Y-46838253D01*
X140529779Y-47000000D01*
X140536128Y-47008407D01*
X140693698Y-47152052D01*
X140874981Y-47264298D01*
X141073802Y-47341321D01*
X141270613Y-47378111D01*
X141332893Y-47409779D01*
X141368166Y-47470092D01*
X141365232Y-47539900D01*
X141325023Y-47597040D01*
X141270613Y-47621888D01*
X141073802Y-47658679D01*
X141073799Y-47658679D01*
X141073799Y-47658680D01*
X140874982Y-47735701D01*
X140874980Y-47735702D01*
X140693699Y-47847947D01*
X140536127Y-47991593D01*
X140407632Y-48161746D01*
X140312596Y-48352605D01*
X140312596Y-48352607D01*
X140254244Y-48557689D01*
X140243471Y-48673951D01*
X140217685Y-48738888D01*
X140173130Y-48770804D01*
X140209503Y-48791668D01*
X140241693Y-48853681D01*
X140243470Y-48866047D01*
X140254244Y-48982310D01*
X140307675Y-49170099D01*
X140312596Y-49187392D01*
X140312596Y-49187394D01*
X140407632Y-49378253D01*
X140479385Y-49473268D01*
X140536128Y-49548407D01*
X140693698Y-49692052D01*
X140874981Y-49804298D01*
X141073802Y-49881321D01*
X141283390Y-49920500D01*
X141283392Y-49920500D01*
X141496608Y-49920500D01*
X141496610Y-49920500D01*
X141706198Y-49881321D01*
X141905019Y-49804298D01*
X142086302Y-49692052D01*
X142243872Y-49548407D01*
X142372366Y-49378255D01*
X142426270Y-49270000D01*
X142467403Y-49187394D01*
X142467403Y-49187393D01*
X142467405Y-49187389D01*
X142525756Y-48982310D01*
X142536529Y-48866047D01*
X142562315Y-48801111D01*
X142606869Y-48769194D01*
X142570497Y-48748331D01*
X142538307Y-48686318D01*
X142536529Y-48673951D01*
X142535849Y-48666613D01*
X142525756Y-48557690D01*
X142467405Y-48352611D01*
X142467403Y-48352606D01*
X142467403Y-48352605D01*
X142372367Y-48161746D01*
X142243872Y-47991593D01*
X142086302Y-47847948D01*
X141905019Y-47735702D01*
X141905017Y-47735701D01*
X141755829Y-47677906D01*
X141706198Y-47658679D01*
X141509385Y-47621888D01*
X141447106Y-47590221D01*
X141411833Y-47529908D01*
X141414767Y-47460100D01*
X141454976Y-47402960D01*
X141509384Y-47378111D01*
X141706198Y-47341321D01*
X141905019Y-47264298D01*
X142086302Y-47152052D01*
X142243872Y-47008407D01*
X142372366Y-46838255D01*
X142452804Y-46676712D01*
X142467403Y-46647394D01*
X142467403Y-46647393D01*
X142467405Y-46647389D01*
X142525756Y-46442310D01*
X142536529Y-46326047D01*
X142562315Y-46261111D01*
X142604622Y-46230804D01*
X142713130Y-46230804D01*
X142749503Y-46251668D01*
X142781693Y-46313681D01*
X142783471Y-46326048D01*
X142794244Y-46442310D01*
X142852596Y-46647392D01*
X142852596Y-46647394D01*
X142947632Y-46838253D01*
X143069779Y-47000000D01*
X143076128Y-47008407D01*
X143233698Y-47152052D01*
X143414981Y-47264298D01*
X143613802Y-47341321D01*
X143810613Y-47378111D01*
X143872893Y-47409779D01*
X143908166Y-47470092D01*
X143905232Y-47539900D01*
X143865023Y-47597040D01*
X143810613Y-47621888D01*
X143613802Y-47658679D01*
X143613799Y-47658679D01*
X143613799Y-47658680D01*
X143414982Y-47735701D01*
X143414980Y-47735702D01*
X143233699Y-47847947D01*
X143076127Y-47991593D01*
X142947632Y-48161746D01*
X142852596Y-48352605D01*
X142852596Y-48352607D01*
X142794244Y-48557689D01*
X142783471Y-48673951D01*
X142757685Y-48738888D01*
X142713130Y-48770804D01*
X142749503Y-48791668D01*
X142781693Y-48853681D01*
X142783470Y-48866047D01*
X142794244Y-48982310D01*
X142847675Y-49170099D01*
X142852596Y-49187392D01*
X142852596Y-49187394D01*
X142947632Y-49378253D01*
X143019385Y-49473268D01*
X143076128Y-49548407D01*
X143233698Y-49692052D01*
X143414981Y-49804298D01*
X143613802Y-49881321D01*
X143823390Y-49920500D01*
X143823392Y-49920500D01*
X144036608Y-49920500D01*
X144036610Y-49920500D01*
X144246198Y-49881321D01*
X144445019Y-49804298D01*
X144626302Y-49692052D01*
X144783872Y-49548407D01*
X144912366Y-49378255D01*
X144966270Y-49270000D01*
X145007403Y-49187394D01*
X145007403Y-49187393D01*
X145007405Y-49187389D01*
X145065756Y-48982310D01*
X145076529Y-48866047D01*
X145102315Y-48801111D01*
X145146869Y-48769194D01*
X145110497Y-48748331D01*
X145078307Y-48686318D01*
X145076529Y-48673951D01*
X145075849Y-48666613D01*
X145065756Y-48557690D01*
X145007405Y-48352611D01*
X145007403Y-48352606D01*
X145007403Y-48352605D01*
X144912367Y-48161746D01*
X144783872Y-47991593D01*
X144626302Y-47847948D01*
X144445019Y-47735702D01*
X144445017Y-47735701D01*
X144295829Y-47677906D01*
X144246198Y-47658679D01*
X144049385Y-47621888D01*
X143987106Y-47590221D01*
X143951833Y-47529908D01*
X143954767Y-47460100D01*
X143994976Y-47402960D01*
X144049384Y-47378111D01*
X144246198Y-47341321D01*
X144445019Y-47264298D01*
X144626302Y-47152052D01*
X144783872Y-47008407D01*
X144912366Y-46838255D01*
X144992804Y-46676712D01*
X145007403Y-46647394D01*
X145007403Y-46647393D01*
X145007405Y-46647389D01*
X145065756Y-46442310D01*
X145076529Y-46326047D01*
X145102315Y-46261111D01*
X145144622Y-46230804D01*
X145253130Y-46230804D01*
X145289503Y-46251668D01*
X145321693Y-46313681D01*
X145323471Y-46326048D01*
X145334244Y-46442310D01*
X145392596Y-46647392D01*
X145392596Y-46647394D01*
X145487632Y-46838253D01*
X145609779Y-47000000D01*
X145616128Y-47008407D01*
X145773698Y-47152052D01*
X145954981Y-47264298D01*
X146153802Y-47341321D01*
X146350613Y-47378111D01*
X146412893Y-47409779D01*
X146448166Y-47470092D01*
X146445232Y-47539900D01*
X146405023Y-47597040D01*
X146350613Y-47621888D01*
X146153802Y-47658679D01*
X146153799Y-47658679D01*
X146153799Y-47658680D01*
X145954982Y-47735701D01*
X145954980Y-47735702D01*
X145773699Y-47847947D01*
X145616127Y-47991593D01*
X145487632Y-48161746D01*
X145392596Y-48352605D01*
X145392596Y-48352607D01*
X145334244Y-48557689D01*
X145323471Y-48673951D01*
X145297685Y-48738888D01*
X145253130Y-48770804D01*
X145289503Y-48791668D01*
X145321693Y-48853681D01*
X145323470Y-48866047D01*
X145334244Y-48982310D01*
X145387675Y-49170099D01*
X145392596Y-49187392D01*
X145392596Y-49187394D01*
X145487632Y-49378253D01*
X145559385Y-49473268D01*
X145616128Y-49548407D01*
X145773698Y-49692052D01*
X145954981Y-49804298D01*
X146153802Y-49881321D01*
X146363390Y-49920500D01*
X146363392Y-49920500D01*
X146576608Y-49920500D01*
X146576610Y-49920500D01*
X146786198Y-49881321D01*
X146985019Y-49804298D01*
X147166302Y-49692052D01*
X147323872Y-49548407D01*
X147452366Y-49378255D01*
X147506270Y-49270000D01*
X147547403Y-49187394D01*
X147547403Y-49187393D01*
X147547405Y-49187389D01*
X147605756Y-48982310D01*
X147616529Y-48866047D01*
X147642315Y-48801111D01*
X147686869Y-48769194D01*
X147650497Y-48748331D01*
X147618307Y-48686318D01*
X147616529Y-48673951D01*
X147615849Y-48666613D01*
X147605756Y-48557690D01*
X147547405Y-48352611D01*
X147547403Y-48352606D01*
X147547403Y-48352605D01*
X147452367Y-48161746D01*
X147323872Y-47991593D01*
X147166302Y-47847948D01*
X146985019Y-47735702D01*
X146985017Y-47735701D01*
X146835829Y-47677906D01*
X146786198Y-47658679D01*
X146589385Y-47621888D01*
X146527106Y-47590221D01*
X146491833Y-47529908D01*
X146494767Y-47460100D01*
X146534976Y-47402960D01*
X146589384Y-47378111D01*
X146786198Y-47341321D01*
X146985019Y-47264298D01*
X147166302Y-47152052D01*
X147323872Y-47008407D01*
X147452366Y-46838255D01*
X147532804Y-46676712D01*
X147547403Y-46647394D01*
X147547403Y-46647393D01*
X147547405Y-46647389D01*
X147605756Y-46442310D01*
X147616529Y-46326047D01*
X147642315Y-46261111D01*
X147684622Y-46230804D01*
X147793130Y-46230804D01*
X147829503Y-46251668D01*
X147861693Y-46313681D01*
X147863471Y-46326048D01*
X147874244Y-46442310D01*
X147932596Y-46647392D01*
X147932596Y-46647394D01*
X148027632Y-46838253D01*
X148149779Y-47000000D01*
X148156128Y-47008407D01*
X148313698Y-47152052D01*
X148494981Y-47264298D01*
X148693802Y-47341321D01*
X148890613Y-47378111D01*
X148952893Y-47409779D01*
X148988166Y-47470092D01*
X148985232Y-47539900D01*
X148945023Y-47597040D01*
X148890613Y-47621888D01*
X148693802Y-47658679D01*
X148693799Y-47658679D01*
X148693799Y-47658680D01*
X148494982Y-47735701D01*
X148494980Y-47735702D01*
X148313699Y-47847947D01*
X148156127Y-47991593D01*
X148027632Y-48161746D01*
X147932596Y-48352605D01*
X147932596Y-48352607D01*
X147874244Y-48557689D01*
X147863471Y-48673951D01*
X147837685Y-48738888D01*
X147793130Y-48770804D01*
X147829503Y-48791668D01*
X147861693Y-48853681D01*
X147863470Y-48866047D01*
X147874244Y-48982310D01*
X147927675Y-49170099D01*
X147932596Y-49187392D01*
X147932596Y-49187394D01*
X148027632Y-49378253D01*
X148099385Y-49473268D01*
X148156128Y-49548407D01*
X148313698Y-49692052D01*
X148494981Y-49804298D01*
X148693802Y-49881321D01*
X148903390Y-49920500D01*
X148903392Y-49920500D01*
X149116608Y-49920500D01*
X149116610Y-49920500D01*
X149326198Y-49881321D01*
X149525019Y-49804298D01*
X149706302Y-49692052D01*
X149863872Y-49548407D01*
X149992366Y-49378255D01*
X150046270Y-49270000D01*
X150087403Y-49187394D01*
X150087403Y-49187393D01*
X150087405Y-49187389D01*
X150145756Y-48982310D01*
X150156529Y-48866047D01*
X150182315Y-48801111D01*
X150226869Y-48769194D01*
X150190497Y-48748331D01*
X150158307Y-48686318D01*
X150156529Y-48673951D01*
X150155849Y-48666613D01*
X150145756Y-48557690D01*
X150087405Y-48352611D01*
X150087403Y-48352606D01*
X150087403Y-48352605D01*
X149992367Y-48161746D01*
X149863872Y-47991593D01*
X149706302Y-47847948D01*
X149525019Y-47735702D01*
X149525017Y-47735701D01*
X149375829Y-47677906D01*
X149326198Y-47658679D01*
X149129385Y-47621888D01*
X149067106Y-47590221D01*
X149031833Y-47529908D01*
X149034767Y-47460100D01*
X149074976Y-47402960D01*
X149129384Y-47378111D01*
X149326198Y-47341321D01*
X149525019Y-47264298D01*
X149706302Y-47152052D01*
X149863872Y-47008407D01*
X149992366Y-46838255D01*
X150072804Y-46676712D01*
X150087403Y-46647394D01*
X150087403Y-46647393D01*
X150087405Y-46647389D01*
X150145756Y-46442310D01*
X150156529Y-46326047D01*
X150182315Y-46261111D01*
X150224622Y-46230804D01*
X150333130Y-46230804D01*
X150369503Y-46251668D01*
X150401693Y-46313681D01*
X150403471Y-46326048D01*
X150414244Y-46442310D01*
X150472596Y-46647392D01*
X150472596Y-46647394D01*
X150567632Y-46838253D01*
X150689779Y-47000000D01*
X150696128Y-47008407D01*
X150853698Y-47152052D01*
X151034981Y-47264298D01*
X151233802Y-47341321D01*
X151430613Y-47378111D01*
X151492893Y-47409779D01*
X151528166Y-47470092D01*
X151525232Y-47539900D01*
X151485023Y-47597040D01*
X151430613Y-47621888D01*
X151233802Y-47658679D01*
X151233799Y-47658679D01*
X151233799Y-47658680D01*
X151034982Y-47735701D01*
X151034980Y-47735702D01*
X150853699Y-47847947D01*
X150696127Y-47991593D01*
X150567632Y-48161746D01*
X150472596Y-48352605D01*
X150472596Y-48352607D01*
X150414244Y-48557689D01*
X150403471Y-48673951D01*
X150377685Y-48738888D01*
X150333130Y-48770804D01*
X150369503Y-48791668D01*
X150401693Y-48853681D01*
X150403470Y-48866047D01*
X150414244Y-48982310D01*
X150467675Y-49170099D01*
X150472596Y-49187392D01*
X150472596Y-49187394D01*
X150567632Y-49378253D01*
X150639385Y-49473268D01*
X150696128Y-49548407D01*
X150853698Y-49692052D01*
X151034981Y-49804298D01*
X151233802Y-49881321D01*
X151443390Y-49920500D01*
X151443392Y-49920500D01*
X151656608Y-49920500D01*
X151656610Y-49920500D01*
X151866198Y-49881321D01*
X152065019Y-49804298D01*
X152246302Y-49692052D01*
X152403872Y-49548407D01*
X152532366Y-49378255D01*
X152586270Y-49270000D01*
X152627403Y-49187394D01*
X152627403Y-49187393D01*
X152627405Y-49187389D01*
X152685756Y-48982310D01*
X152696529Y-48866047D01*
X152722315Y-48801111D01*
X152766869Y-48769194D01*
X152730497Y-48748331D01*
X152698307Y-48686318D01*
X152696529Y-48673951D01*
X152695849Y-48666613D01*
X152685756Y-48557690D01*
X152627405Y-48352611D01*
X152627403Y-48352606D01*
X152627403Y-48352605D01*
X152532367Y-48161746D01*
X152403872Y-47991593D01*
X152246302Y-47847948D01*
X152065019Y-47735702D01*
X152065017Y-47735701D01*
X151915829Y-47677906D01*
X151866198Y-47658679D01*
X151669385Y-47621888D01*
X151607106Y-47590221D01*
X151571833Y-47529908D01*
X151574767Y-47460100D01*
X151614976Y-47402960D01*
X151669384Y-47378111D01*
X151866198Y-47341321D01*
X152065019Y-47264298D01*
X152246302Y-47152052D01*
X152403872Y-47008407D01*
X152532366Y-46838255D01*
X152612804Y-46676712D01*
X152627403Y-46647394D01*
X152627403Y-46647393D01*
X152627405Y-46647389D01*
X152685756Y-46442310D01*
X152696529Y-46326047D01*
X152722315Y-46261111D01*
X152764622Y-46230804D01*
X152873130Y-46230804D01*
X152909503Y-46251668D01*
X152941693Y-46313681D01*
X152943471Y-46326048D01*
X152954244Y-46442310D01*
X153012596Y-46647392D01*
X153012596Y-46647394D01*
X153107632Y-46838253D01*
X153229779Y-47000000D01*
X153236128Y-47008407D01*
X153393698Y-47152052D01*
X153574981Y-47264298D01*
X153773802Y-47341321D01*
X153970613Y-47378111D01*
X154032893Y-47409779D01*
X154068166Y-47470092D01*
X154065232Y-47539900D01*
X154025023Y-47597040D01*
X153970613Y-47621888D01*
X153773802Y-47658679D01*
X153773799Y-47658679D01*
X153773799Y-47658680D01*
X153574982Y-47735701D01*
X153574980Y-47735702D01*
X153393699Y-47847947D01*
X153236127Y-47991593D01*
X153107632Y-48161746D01*
X153012596Y-48352605D01*
X153012596Y-48352607D01*
X152954244Y-48557689D01*
X152943471Y-48673951D01*
X152917685Y-48738888D01*
X152873130Y-48770804D01*
X152909503Y-48791668D01*
X152941693Y-48853681D01*
X152943470Y-48866047D01*
X152954244Y-48982310D01*
X153007675Y-49170099D01*
X153012596Y-49187392D01*
X153012596Y-49187394D01*
X153107632Y-49378253D01*
X153179385Y-49473268D01*
X153236128Y-49548407D01*
X153393698Y-49692052D01*
X153574981Y-49804298D01*
X153773802Y-49881321D01*
X153983390Y-49920500D01*
X153983392Y-49920500D01*
X154196608Y-49920500D01*
X154196610Y-49920500D01*
X154406198Y-49881321D01*
X154605019Y-49804298D01*
X154786302Y-49692052D01*
X154943872Y-49548407D01*
X155072366Y-49378255D01*
X155126270Y-49270000D01*
X155167403Y-49187394D01*
X155167403Y-49187393D01*
X155167405Y-49187389D01*
X155225756Y-48982310D01*
X155236529Y-48866047D01*
X155262315Y-48801111D01*
X155306869Y-48769194D01*
X155270497Y-48748331D01*
X155238307Y-48686318D01*
X155236529Y-48673951D01*
X155235849Y-48666613D01*
X155225756Y-48557690D01*
X155167405Y-48352611D01*
X155167403Y-48352606D01*
X155167403Y-48352605D01*
X155072367Y-48161746D01*
X154943872Y-47991593D01*
X154786302Y-47847948D01*
X154605019Y-47735702D01*
X154605017Y-47735701D01*
X154455829Y-47677906D01*
X154406198Y-47658679D01*
X154209385Y-47621888D01*
X154147106Y-47590221D01*
X154111833Y-47529908D01*
X154114767Y-47460100D01*
X154154976Y-47402960D01*
X154209384Y-47378111D01*
X154406198Y-47341321D01*
X154605019Y-47264298D01*
X154786302Y-47152052D01*
X154943872Y-47008407D01*
X155072366Y-46838255D01*
X155152804Y-46676712D01*
X155167403Y-46647394D01*
X155167403Y-46647393D01*
X155167405Y-46647389D01*
X155225756Y-46442310D01*
X155236529Y-46326047D01*
X155262315Y-46261111D01*
X155304622Y-46230804D01*
X155413130Y-46230804D01*
X155449503Y-46251668D01*
X155481693Y-46313681D01*
X155483471Y-46326048D01*
X155494244Y-46442310D01*
X155552596Y-46647392D01*
X155552596Y-46647394D01*
X155647632Y-46838253D01*
X155769779Y-47000000D01*
X155776128Y-47008407D01*
X155933698Y-47152052D01*
X156114981Y-47264298D01*
X156313802Y-47341321D01*
X156510613Y-47378111D01*
X156572893Y-47409779D01*
X156608166Y-47470092D01*
X156605232Y-47539900D01*
X156565023Y-47597040D01*
X156510613Y-47621888D01*
X156313802Y-47658679D01*
X156313799Y-47658679D01*
X156313799Y-47658680D01*
X156114982Y-47735701D01*
X156114980Y-47735702D01*
X155933699Y-47847947D01*
X155776127Y-47991593D01*
X155647632Y-48161746D01*
X155552596Y-48352605D01*
X155552596Y-48352607D01*
X155494244Y-48557689D01*
X155483471Y-48673951D01*
X155457685Y-48738888D01*
X155413130Y-48770804D01*
X155449503Y-48791668D01*
X155481693Y-48853681D01*
X155483470Y-48866047D01*
X155494244Y-48982310D01*
X155547675Y-49170099D01*
X155552596Y-49187392D01*
X155552596Y-49187394D01*
X155647632Y-49378253D01*
X155719385Y-49473268D01*
X155776128Y-49548407D01*
X155933698Y-49692052D01*
X156114981Y-49804298D01*
X156313802Y-49881321D01*
X156523390Y-49920500D01*
X156523392Y-49920500D01*
X156736608Y-49920500D01*
X156736610Y-49920500D01*
X156946198Y-49881321D01*
X157145019Y-49804298D01*
X157326302Y-49692052D01*
X157483872Y-49548407D01*
X157612366Y-49378255D01*
X157666270Y-49270000D01*
X157707403Y-49187394D01*
X157707403Y-49187393D01*
X157707405Y-49187389D01*
X157765756Y-48982310D01*
X157785429Y-48770000D01*
X157765756Y-48557690D01*
X157707405Y-48352611D01*
X157707403Y-48352606D01*
X157707403Y-48352605D01*
X157612367Y-48161746D01*
X157483872Y-47991593D01*
X157326302Y-47847948D01*
X157145019Y-47735702D01*
X157145017Y-47735701D01*
X156995829Y-47677906D01*
X156946198Y-47658679D01*
X156749385Y-47621888D01*
X156687106Y-47590221D01*
X156651833Y-47529908D01*
X156654767Y-47460100D01*
X156694976Y-47402960D01*
X156749384Y-47378111D01*
X156946198Y-47341321D01*
X157145019Y-47264298D01*
X157326302Y-47152052D01*
X157483872Y-47008407D01*
X157612366Y-46838255D01*
X157692804Y-46676712D01*
X157707403Y-46647394D01*
X157707403Y-46647393D01*
X157707405Y-46647389D01*
X157765756Y-46442310D01*
X157785429Y-46230000D01*
X157765756Y-46017690D01*
X157707405Y-45812611D01*
X157707403Y-45812606D01*
X157707403Y-45812605D01*
X157612367Y-45621746D01*
X157483872Y-45451593D01*
X157467711Y-45436860D01*
X157326302Y-45307948D01*
X157145019Y-45195702D01*
X157145017Y-45195701D01*
X157042084Y-45155825D01*
X156946198Y-45118679D01*
X156736610Y-45079500D01*
X156523390Y-45079500D01*
X156313802Y-45118679D01*
X156313799Y-45118679D01*
X156313799Y-45118680D01*
X156114982Y-45195701D01*
X156114980Y-45195702D01*
X155933699Y-45307947D01*
X155776127Y-45451593D01*
X155647632Y-45621746D01*
X155552596Y-45812605D01*
X155552596Y-45812607D01*
X155494244Y-46017689D01*
X155483471Y-46133951D01*
X155457685Y-46198888D01*
X155413130Y-46230804D01*
X155304622Y-46230804D01*
X155306869Y-46229194D01*
X155270497Y-46208331D01*
X155238307Y-46146318D01*
X155236529Y-46133951D01*
X155235849Y-46126613D01*
X155225756Y-46017690D01*
X155167405Y-45812611D01*
X155167403Y-45812606D01*
X155167403Y-45812605D01*
X155072367Y-45621746D01*
X154943872Y-45451593D01*
X154927711Y-45436860D01*
X154786302Y-45307948D01*
X154605019Y-45195702D01*
X154605017Y-45195701D01*
X154502084Y-45155825D01*
X154406198Y-45118679D01*
X154196610Y-45079500D01*
X153983390Y-45079500D01*
X153773802Y-45118679D01*
X153773799Y-45118679D01*
X153773799Y-45118680D01*
X153574982Y-45195701D01*
X153574980Y-45195702D01*
X153393699Y-45307947D01*
X153236127Y-45451593D01*
X153107632Y-45621746D01*
X153012596Y-45812605D01*
X153012596Y-45812607D01*
X152954244Y-46017689D01*
X152943471Y-46133951D01*
X152917685Y-46198888D01*
X152873130Y-46230804D01*
X152764622Y-46230804D01*
X152766869Y-46229194D01*
X152730497Y-46208331D01*
X152698307Y-46146318D01*
X152696529Y-46133951D01*
X152695849Y-46126613D01*
X152685756Y-46017690D01*
X152627405Y-45812611D01*
X152627403Y-45812606D01*
X152627403Y-45812605D01*
X152532367Y-45621746D01*
X152403872Y-45451593D01*
X152387711Y-45436860D01*
X152246302Y-45307948D01*
X152065019Y-45195702D01*
X152065017Y-45195701D01*
X151962084Y-45155825D01*
X151866198Y-45118679D01*
X151656610Y-45079500D01*
X151443390Y-45079500D01*
X151233802Y-45118679D01*
X151233799Y-45118679D01*
X151233799Y-45118680D01*
X151034982Y-45195701D01*
X151034980Y-45195702D01*
X150853699Y-45307947D01*
X150696127Y-45451593D01*
X150567632Y-45621746D01*
X150472596Y-45812605D01*
X150472596Y-45812607D01*
X150414244Y-46017689D01*
X150403471Y-46133951D01*
X150377685Y-46198888D01*
X150333130Y-46230804D01*
X150224622Y-46230804D01*
X150226869Y-46229194D01*
X150190497Y-46208331D01*
X150158307Y-46146318D01*
X150156529Y-46133951D01*
X150155849Y-46126613D01*
X150145756Y-46017690D01*
X150087405Y-45812611D01*
X150087403Y-45812606D01*
X150087403Y-45812605D01*
X149992367Y-45621746D01*
X149863872Y-45451593D01*
X149847711Y-45436860D01*
X149706302Y-45307948D01*
X149525019Y-45195702D01*
X149525017Y-45195701D01*
X149422084Y-45155825D01*
X149326198Y-45118679D01*
X149116610Y-45079500D01*
X148903390Y-45079500D01*
X148693802Y-45118679D01*
X148693799Y-45118679D01*
X148693799Y-45118680D01*
X148494982Y-45195701D01*
X148494980Y-45195702D01*
X148313699Y-45307947D01*
X148156127Y-45451593D01*
X148027632Y-45621746D01*
X147932596Y-45812605D01*
X147932596Y-45812607D01*
X147874244Y-46017689D01*
X147863471Y-46133951D01*
X147837685Y-46198888D01*
X147793130Y-46230804D01*
X147684622Y-46230804D01*
X147686869Y-46229194D01*
X147650497Y-46208331D01*
X147618307Y-46146318D01*
X147616529Y-46133951D01*
X147615849Y-46126613D01*
X147605756Y-46017690D01*
X147547405Y-45812611D01*
X147547403Y-45812606D01*
X147547403Y-45812605D01*
X147452367Y-45621746D01*
X147323872Y-45451593D01*
X147307711Y-45436860D01*
X147166302Y-45307948D01*
X146985019Y-45195702D01*
X146985017Y-45195701D01*
X146882084Y-45155825D01*
X146786198Y-45118679D01*
X146576610Y-45079500D01*
X146363390Y-45079500D01*
X146153802Y-45118679D01*
X146153799Y-45118679D01*
X146153799Y-45118680D01*
X145954982Y-45195701D01*
X145954980Y-45195702D01*
X145773699Y-45307947D01*
X145616127Y-45451593D01*
X145487632Y-45621746D01*
X145392596Y-45812605D01*
X145392596Y-45812607D01*
X145334244Y-46017689D01*
X145323471Y-46133951D01*
X145297685Y-46198888D01*
X145253130Y-46230804D01*
X145144622Y-46230804D01*
X145146869Y-46229194D01*
X145110497Y-46208331D01*
X145078307Y-46146318D01*
X145076529Y-46133951D01*
X145075849Y-46126613D01*
X145065756Y-46017690D01*
X145007405Y-45812611D01*
X145007403Y-45812606D01*
X145007403Y-45812605D01*
X144912367Y-45621746D01*
X144783872Y-45451593D01*
X144767711Y-45436860D01*
X144626302Y-45307948D01*
X144445019Y-45195702D01*
X144445017Y-45195701D01*
X144342084Y-45155825D01*
X144246198Y-45118679D01*
X144036610Y-45079500D01*
X143823390Y-45079500D01*
X143613802Y-45118679D01*
X143613799Y-45118679D01*
X143613799Y-45118680D01*
X143414982Y-45195701D01*
X143414980Y-45195702D01*
X143233699Y-45307947D01*
X143076127Y-45451593D01*
X142947632Y-45621746D01*
X142852596Y-45812605D01*
X142852596Y-45812607D01*
X142794244Y-46017689D01*
X142783471Y-46133951D01*
X142757685Y-46198888D01*
X142713130Y-46230804D01*
X142604622Y-46230804D01*
X142606869Y-46229194D01*
X142570497Y-46208331D01*
X142538307Y-46146318D01*
X142536529Y-46133951D01*
X142535849Y-46126613D01*
X142525756Y-46017690D01*
X142467405Y-45812611D01*
X142467403Y-45812606D01*
X142467403Y-45812605D01*
X142372367Y-45621746D01*
X142243872Y-45451593D01*
X142227711Y-45436860D01*
X142086302Y-45307948D01*
X141905019Y-45195702D01*
X141905017Y-45195701D01*
X141802084Y-45155825D01*
X141706198Y-45118679D01*
X141496610Y-45079500D01*
X141283390Y-45079500D01*
X141073802Y-45118679D01*
X141073799Y-45118679D01*
X141073799Y-45118680D01*
X140874982Y-45195701D01*
X140874980Y-45195702D01*
X140693699Y-45307947D01*
X140536127Y-45451593D01*
X140407632Y-45621746D01*
X140312596Y-45812605D01*
X140312596Y-45812607D01*
X140254244Y-46017689D01*
X140243471Y-46133951D01*
X140217685Y-46198888D01*
X140173130Y-46230804D01*
X140064622Y-46230804D01*
X140066869Y-46229194D01*
X140030497Y-46208331D01*
X139998307Y-46146318D01*
X139996529Y-46133951D01*
X139995849Y-46126613D01*
X139985756Y-46017690D01*
X139927405Y-45812611D01*
X139927403Y-45812606D01*
X139927403Y-45812605D01*
X139832367Y-45621746D01*
X139703872Y-45451593D01*
X139687711Y-45436860D01*
X139546302Y-45307948D01*
X139365019Y-45195702D01*
X139365017Y-45195701D01*
X139262084Y-45155825D01*
X139166198Y-45118679D01*
X138956610Y-45079500D01*
X138743390Y-45079500D01*
X138533802Y-45118679D01*
X138533799Y-45118679D01*
X138533799Y-45118680D01*
X138334982Y-45195701D01*
X138334980Y-45195702D01*
X138153699Y-45307947D01*
X137996127Y-45451593D01*
X137867632Y-45621746D01*
X137772596Y-45812605D01*
X137772596Y-45812607D01*
X137714244Y-46017689D01*
X137703471Y-46133951D01*
X137677685Y-46198888D01*
X137633130Y-46230804D01*
X137524622Y-46230804D01*
X137526869Y-46229194D01*
X137490497Y-46208331D01*
X137458307Y-46146318D01*
X137456529Y-46133951D01*
X137455849Y-46126613D01*
X137445756Y-46017690D01*
X137387405Y-45812611D01*
X137387403Y-45812606D01*
X137387403Y-45812605D01*
X137292367Y-45621746D01*
X137163872Y-45451593D01*
X137147711Y-45436860D01*
X137006302Y-45307948D01*
X136825019Y-45195702D01*
X136825017Y-45195701D01*
X136722084Y-45155825D01*
X136626198Y-45118679D01*
X136416610Y-45079500D01*
X136203390Y-45079500D01*
X135993802Y-45118679D01*
X135993799Y-45118679D01*
X135993799Y-45118680D01*
X135794982Y-45195701D01*
X135794980Y-45195702D01*
X135613699Y-45307947D01*
X135456127Y-45451593D01*
X135327632Y-45621746D01*
X135232596Y-45812605D01*
X135232596Y-45812607D01*
X135174244Y-46017689D01*
X135163471Y-46133951D01*
X135137685Y-46198888D01*
X135093130Y-46230804D01*
X134984622Y-46230804D01*
X134986869Y-46229194D01*
X134950497Y-46208331D01*
X134918307Y-46146318D01*
X134916529Y-46133951D01*
X134915849Y-46126613D01*
X134905756Y-46017690D01*
X134847405Y-45812611D01*
X134847403Y-45812606D01*
X134847403Y-45812605D01*
X134752367Y-45621746D01*
X134623872Y-45451593D01*
X134607711Y-45436860D01*
X134466302Y-45307948D01*
X134285019Y-45195702D01*
X134285017Y-45195701D01*
X134182084Y-45155825D01*
X134086198Y-45118679D01*
X133876610Y-45079500D01*
X133663390Y-45079500D01*
X133453802Y-45118679D01*
X133453799Y-45118679D01*
X133453799Y-45118680D01*
X133254982Y-45195701D01*
X133254980Y-45195702D01*
X133073699Y-45307947D01*
X132916127Y-45451593D01*
X132787632Y-45621746D01*
X132692596Y-45812605D01*
X132692596Y-45812607D01*
X132634244Y-46017689D01*
X132623471Y-46133951D01*
X132597685Y-46198888D01*
X132553130Y-46230804D01*
X132444622Y-46230804D01*
X132446869Y-46229194D01*
X132410497Y-46208331D01*
X132378307Y-46146318D01*
X132376529Y-46133951D01*
X132375849Y-46126613D01*
X132365756Y-46017690D01*
X132307405Y-45812611D01*
X132307403Y-45812606D01*
X132307403Y-45812605D01*
X132212367Y-45621746D01*
X132083872Y-45451593D01*
X132067711Y-45436860D01*
X131926302Y-45307948D01*
X131745019Y-45195702D01*
X131745017Y-45195701D01*
X131642084Y-45155825D01*
X131546198Y-45118679D01*
X131336610Y-45079500D01*
X131123390Y-45079500D01*
X130913802Y-45118679D01*
X130913799Y-45118679D01*
X130913799Y-45118680D01*
X130714982Y-45195701D01*
X130714980Y-45195702D01*
X130533699Y-45307947D01*
X130376127Y-45451593D01*
X130247632Y-45621746D01*
X130152596Y-45812605D01*
X130152596Y-45812607D01*
X130094244Y-46017689D01*
X130083471Y-46133951D01*
X130057685Y-46198888D01*
X130013130Y-46230804D01*
X130049503Y-46251668D01*
X130081693Y-46313681D01*
X130083471Y-46326048D01*
X130094244Y-46442310D01*
X130152596Y-46647392D01*
X130152596Y-46647394D01*
X130247632Y-46838253D01*
X130369779Y-47000000D01*
X130376128Y-47008407D01*
X130533698Y-47152052D01*
X130714981Y-47264298D01*
X130913802Y-47341321D01*
X131110613Y-47378111D01*
X131172893Y-47409779D01*
X131208166Y-47470092D01*
X131205232Y-47539900D01*
X131165023Y-47597040D01*
X131110613Y-47621888D01*
X130913802Y-47658679D01*
X130913799Y-47658679D01*
X130913799Y-47658680D01*
X130714982Y-47735701D01*
X130714980Y-47735702D01*
X130533699Y-47847947D01*
X130376127Y-47991593D01*
X130247634Y-48161744D01*
X130180676Y-48296215D01*
X130133173Y-48347452D01*
X130065510Y-48364873D01*
X129999170Y-48342947D01*
X129957294Y-48293348D01*
X129863600Y-48092422D01*
X129863599Y-48092420D01*
X129728113Y-47898926D01*
X129728108Y-47898920D01*
X129561082Y-47731894D01*
X129367578Y-47596399D01*
X129168426Y-47503533D01*
X129115987Y-47457360D01*
X129096835Y-47390167D01*
X129117051Y-47323286D01*
X129170216Y-47277951D01*
X129176005Y-47275537D01*
X129205019Y-47264298D01*
X129386302Y-47152052D01*
X129543872Y-47008407D01*
X129672366Y-46838255D01*
X129752804Y-46676712D01*
X129767403Y-46647394D01*
X129767403Y-46647393D01*
X129767405Y-46647389D01*
X129825756Y-46442310D01*
X129836529Y-46326047D01*
X129862315Y-46261111D01*
X129906869Y-46229194D01*
X129870497Y-46208331D01*
X129838307Y-46146318D01*
X129836529Y-46133951D01*
X129835849Y-46126613D01*
X129825756Y-46017690D01*
X129767405Y-45812611D01*
X129767403Y-45812606D01*
X129767403Y-45812605D01*
X129672367Y-45621746D01*
X129543872Y-45451593D01*
X129527711Y-45436860D01*
X129386302Y-45307948D01*
X129205019Y-45195702D01*
X129205017Y-45195701D01*
X129102084Y-45155825D01*
X129006198Y-45118679D01*
X128796610Y-45079500D01*
X128583390Y-45079500D01*
X128373802Y-45118679D01*
X128373799Y-45118679D01*
X128373799Y-45118680D01*
X128174982Y-45195701D01*
X128174980Y-45195702D01*
X127993699Y-45307947D01*
X127836127Y-45451593D01*
X127707632Y-45621746D01*
X127612596Y-45812605D01*
X127612596Y-45812607D01*
X127554244Y-46017689D01*
X127543471Y-46133951D01*
X127517685Y-46198888D01*
X127473130Y-46230804D01*
X127509503Y-46251668D01*
X127541693Y-46313681D01*
X127543471Y-46326048D01*
X127554244Y-46442310D01*
X127612596Y-46647392D01*
X127612596Y-46647394D01*
X127707632Y-46838253D01*
X127829779Y-47000000D01*
X127836128Y-47008407D01*
X127993698Y-47152052D01*
X128174981Y-47264298D01*
X128203961Y-47275525D01*
X128259362Y-47318095D01*
X128282954Y-47383861D01*
X128267244Y-47451942D01*
X128217222Y-47500722D01*
X128211573Y-47503533D01*
X128012422Y-47596399D01*
X128012420Y-47596400D01*
X127818926Y-47731886D01*
X127818920Y-47731891D01*
X127651891Y-47898920D01*
X127651886Y-47898926D01*
X127516400Y-48092420D01*
X127516399Y-48092422D01*
X127422705Y-48293348D01*
X127376532Y-48345787D01*
X127309339Y-48364939D01*
X127242457Y-48344723D01*
X127199323Y-48296215D01*
X127132366Y-48161745D01*
X127003872Y-47991593D01*
X126846302Y-47847948D01*
X126665019Y-47735702D01*
X126665017Y-47735701D01*
X126515829Y-47677906D01*
X126466198Y-47658679D01*
X126269385Y-47621888D01*
X126207106Y-47590221D01*
X126171833Y-47529908D01*
X126174767Y-47460100D01*
X126214976Y-47402960D01*
X126269384Y-47378111D01*
X126466198Y-47341321D01*
X126665019Y-47264298D01*
X126846302Y-47152052D01*
X127003872Y-47008407D01*
X127132366Y-46838255D01*
X127212804Y-46676712D01*
X127227403Y-46647394D01*
X127227403Y-46647393D01*
X127227405Y-46647389D01*
X127285756Y-46442310D01*
X127296529Y-46326047D01*
X127322315Y-46261111D01*
X127366869Y-46229194D01*
X127330497Y-46208331D01*
X127298307Y-46146318D01*
X127296529Y-46133951D01*
X127295849Y-46126613D01*
X127285756Y-46017690D01*
X127227405Y-45812611D01*
X127227403Y-45812606D01*
X127227403Y-45812605D01*
X127132367Y-45621746D01*
X127003872Y-45451593D01*
X126987711Y-45436860D01*
X126846302Y-45307948D01*
X126665019Y-45195702D01*
X126665017Y-45195701D01*
X126562084Y-45155825D01*
X126466198Y-45118679D01*
X126256610Y-45079500D01*
X126043390Y-45079500D01*
X125833802Y-45118679D01*
X125833799Y-45118679D01*
X125833799Y-45118680D01*
X125634982Y-45195701D01*
X125634980Y-45195702D01*
X125453699Y-45307947D01*
X125296127Y-45451593D01*
X125167632Y-45621746D01*
X125072596Y-45812605D01*
X125072596Y-45812607D01*
X125014244Y-46017689D01*
X125003471Y-46133951D01*
X124977685Y-46198888D01*
X124933130Y-46230804D01*
X124824622Y-46230804D01*
X124826869Y-46229194D01*
X124790497Y-46208331D01*
X124758307Y-46146318D01*
X124756529Y-46133951D01*
X124755849Y-46126613D01*
X124745756Y-46017690D01*
X124687405Y-45812611D01*
X124687403Y-45812606D01*
X124687403Y-45812605D01*
X124592367Y-45621746D01*
X124463872Y-45451593D01*
X124447711Y-45436860D01*
X124306302Y-45307948D01*
X124125019Y-45195702D01*
X124125017Y-45195701D01*
X124022084Y-45155825D01*
X123926198Y-45118679D01*
X123716610Y-45079500D01*
X123503390Y-45079500D01*
X123293802Y-45118679D01*
X123293799Y-45118679D01*
X123293799Y-45118680D01*
X123094982Y-45195701D01*
X123094980Y-45195702D01*
X122913699Y-45307947D01*
X122756127Y-45451593D01*
X122627632Y-45621746D01*
X122532596Y-45812605D01*
X122532596Y-45812607D01*
X122474244Y-46017689D01*
X122463471Y-46133951D01*
X122437685Y-46198888D01*
X122393130Y-46230804D01*
X122284622Y-46230804D01*
X122286869Y-46229194D01*
X122250497Y-46208331D01*
X122218307Y-46146318D01*
X122216529Y-46133951D01*
X122215849Y-46126613D01*
X122205756Y-46017690D01*
X122147405Y-45812611D01*
X122147403Y-45812606D01*
X122147403Y-45812605D01*
X122052367Y-45621746D01*
X121923872Y-45451593D01*
X121907711Y-45436860D01*
X121766302Y-45307948D01*
X121585019Y-45195702D01*
X121585017Y-45195701D01*
X121482084Y-45155825D01*
X121386198Y-45118679D01*
X121176610Y-45079500D01*
X120963390Y-45079500D01*
X120753802Y-45118679D01*
X120753799Y-45118679D01*
X120753799Y-45118680D01*
X120554982Y-45195701D01*
X120554980Y-45195702D01*
X120373699Y-45307947D01*
X120216127Y-45451593D01*
X120087632Y-45621746D01*
X119992596Y-45812605D01*
X119992596Y-45812607D01*
X119934244Y-46017689D01*
X119923471Y-46133951D01*
X119897685Y-46198888D01*
X119853130Y-46230804D01*
X119744622Y-46230804D01*
X119746869Y-46229194D01*
X119710497Y-46208331D01*
X119678307Y-46146318D01*
X119676529Y-46133951D01*
X119675849Y-46126613D01*
X119665756Y-46017690D01*
X119607405Y-45812611D01*
X119607403Y-45812606D01*
X119607403Y-45812605D01*
X119512367Y-45621746D01*
X119383872Y-45451593D01*
X119367711Y-45436860D01*
X119226302Y-45307948D01*
X119045019Y-45195702D01*
X119045017Y-45195701D01*
X118942084Y-45155825D01*
X118846198Y-45118679D01*
X118636610Y-45079500D01*
X118423390Y-45079500D01*
X118213802Y-45118679D01*
X118213799Y-45118679D01*
X118213799Y-45118680D01*
X118014982Y-45195701D01*
X118014980Y-45195702D01*
X117833699Y-45307947D01*
X117676127Y-45451593D01*
X117547632Y-45621746D01*
X117452596Y-45812605D01*
X117452596Y-45812607D01*
X117394244Y-46017689D01*
X117383471Y-46133951D01*
X117357685Y-46198888D01*
X117313130Y-46230804D01*
X117204622Y-46230804D01*
X117206869Y-46229194D01*
X117170497Y-46208331D01*
X117138307Y-46146318D01*
X117136529Y-46133951D01*
X117135849Y-46126613D01*
X117125756Y-46017690D01*
X117067405Y-45812611D01*
X117067403Y-45812606D01*
X117067403Y-45812605D01*
X116972367Y-45621746D01*
X116843872Y-45451593D01*
X116827711Y-45436860D01*
X116686302Y-45307948D01*
X116505019Y-45195702D01*
X116505017Y-45195701D01*
X116402084Y-45155825D01*
X116306198Y-45118679D01*
X116096610Y-45079500D01*
X115883390Y-45079500D01*
X115673802Y-45118679D01*
X115673799Y-45118679D01*
X115673799Y-45118680D01*
X115474982Y-45195701D01*
X115474980Y-45195702D01*
X115293699Y-45307947D01*
X115136127Y-45451593D01*
X115007632Y-45621746D01*
X114912596Y-45812605D01*
X114912596Y-45812607D01*
X114854244Y-46017689D01*
X114843471Y-46133951D01*
X114817685Y-46198888D01*
X114773130Y-46230804D01*
X114664622Y-46230804D01*
X114666869Y-46229194D01*
X114630497Y-46208331D01*
X114598307Y-46146318D01*
X114596529Y-46133951D01*
X114595849Y-46126613D01*
X114585756Y-46017690D01*
X114527405Y-45812611D01*
X114527403Y-45812606D01*
X114527403Y-45812605D01*
X114432367Y-45621746D01*
X114303872Y-45451593D01*
X114287711Y-45436860D01*
X114146302Y-45307948D01*
X113965019Y-45195702D01*
X113965017Y-45195701D01*
X113862084Y-45155825D01*
X113766198Y-45118679D01*
X113556610Y-45079500D01*
X113343390Y-45079500D01*
X113133802Y-45118679D01*
X113133799Y-45118679D01*
X113133799Y-45118680D01*
X112934982Y-45195701D01*
X112934980Y-45195702D01*
X112753699Y-45307947D01*
X112596127Y-45451593D01*
X112467632Y-45621746D01*
X112372596Y-45812605D01*
X112372596Y-45812607D01*
X112314244Y-46017689D01*
X112303471Y-46133951D01*
X112277685Y-46198888D01*
X112233130Y-46230804D01*
X112124622Y-46230804D01*
X112126869Y-46229194D01*
X112090497Y-46208331D01*
X112058307Y-46146318D01*
X112056529Y-46133951D01*
X112055849Y-46126613D01*
X112045756Y-46017690D01*
X111987405Y-45812611D01*
X111987403Y-45812606D01*
X111987403Y-45812605D01*
X111892367Y-45621746D01*
X111763872Y-45451593D01*
X111747711Y-45436860D01*
X111606302Y-45307948D01*
X111425019Y-45195702D01*
X111425017Y-45195701D01*
X111322084Y-45155825D01*
X111226198Y-45118679D01*
X111016610Y-45079500D01*
X110803390Y-45079500D01*
X110593802Y-45118679D01*
X110593799Y-45118679D01*
X110593799Y-45118680D01*
X110394982Y-45195701D01*
X110394980Y-45195702D01*
X110213699Y-45307947D01*
X110056127Y-45451593D01*
X109927632Y-45621746D01*
X109832596Y-45812605D01*
X109832596Y-45812607D01*
X109774244Y-46017689D01*
X109763471Y-46133951D01*
X109737685Y-46198888D01*
X109693130Y-46230804D01*
X109729503Y-46251668D01*
X109761693Y-46313681D01*
X109763471Y-46326048D01*
X109774244Y-46442310D01*
X109832596Y-46647392D01*
X109832596Y-46647394D01*
X109927632Y-46838253D01*
X110049779Y-47000000D01*
X110056128Y-47008407D01*
X110213698Y-47152052D01*
X110394981Y-47264298D01*
X110593802Y-47341321D01*
X110790613Y-47378111D01*
X110852893Y-47409779D01*
X110888166Y-47470092D01*
X110885232Y-47539900D01*
X110845023Y-47597040D01*
X110790613Y-47621888D01*
X110593802Y-47658679D01*
X110593799Y-47658679D01*
X110593799Y-47658680D01*
X110394982Y-47735701D01*
X110394980Y-47735702D01*
X110213699Y-47847947D01*
X110056127Y-47991593D01*
X109942954Y-48141458D01*
X109886845Y-48183094D01*
X109817133Y-48187785D01*
X109755951Y-48154043D01*
X109722724Y-48092579D01*
X109720000Y-48066731D01*
X109720000Y-47872172D01*
X109719999Y-47872155D01*
X109713598Y-47812627D01*
X109713596Y-47812620D01*
X109663354Y-47677913D01*
X109663350Y-47677906D01*
X109577190Y-47562812D01*
X109577187Y-47562809D01*
X109462093Y-47476649D01*
X109462086Y-47476645D01*
X109327379Y-47426403D01*
X109327372Y-47426401D01*
X109267844Y-47420000D01*
X109069366Y-47420000D01*
X109002327Y-47400315D01*
X108956572Y-47347511D01*
X108946628Y-47278353D01*
X108975653Y-47214797D01*
X109004089Y-47190573D01*
X109024449Y-47177966D01*
X109066302Y-47152052D01*
X109223872Y-47008407D01*
X109352366Y-46838255D01*
X109432804Y-46676712D01*
X109447403Y-46647394D01*
X109447403Y-46647393D01*
X109447405Y-46647389D01*
X109505756Y-46442310D01*
X109516529Y-46326047D01*
X109542315Y-46261111D01*
X109586869Y-46229194D01*
X109550497Y-46208331D01*
X109518307Y-46146318D01*
X109516529Y-46133951D01*
X109515849Y-46126613D01*
X109505756Y-46017690D01*
X109447405Y-45812611D01*
X109447403Y-45812606D01*
X109447403Y-45812605D01*
X109352367Y-45621746D01*
X109223872Y-45451593D01*
X109207711Y-45436860D01*
X109066302Y-45307948D01*
X108885019Y-45195702D01*
X108885017Y-45195701D01*
X108782084Y-45155825D01*
X108686198Y-45118679D01*
X108476610Y-45079500D01*
X108263390Y-45079500D01*
X108053802Y-45118679D01*
X108053799Y-45118679D01*
X108053799Y-45118680D01*
X107854982Y-45195701D01*
X107854980Y-45195702D01*
X107673699Y-45307947D01*
X107516127Y-45451593D01*
X107387632Y-45621746D01*
X107292596Y-45812605D01*
X107292596Y-45812607D01*
X107234244Y-46017689D01*
X107214571Y-46229999D01*
X107214571Y-46230000D01*
X107234244Y-46442310D01*
X107292596Y-46647392D01*
X107292596Y-46647394D01*
X107387632Y-46838253D01*
X107509779Y-47000000D01*
X107516128Y-47008407D01*
X107673698Y-47152052D01*
X107673700Y-47152053D01*
X107673701Y-47152054D01*
X107735911Y-47190573D01*
X107782547Y-47242601D01*
X107793651Y-47311582D01*
X107765698Y-47375617D01*
X107707563Y-47414373D01*
X107670634Y-47420000D01*
X107472155Y-47420000D01*
X107412627Y-47426401D01*
X107412620Y-47426403D01*
X107277913Y-47476645D01*
X107277906Y-47476649D01*
X107162812Y-47562809D01*
X107162809Y-47562812D01*
X107076649Y-47677906D01*
X107076645Y-47677913D01*
X107026403Y-47812620D01*
X107026401Y-47812627D01*
X107020000Y-47872155D01*
X100050500Y-47872155D01*
X100050500Y-47003480D01*
X100050695Y-46996527D01*
X100059583Y-46838255D01*
X100068656Y-46676700D01*
X100070210Y-46662907D01*
X100123283Y-46350537D01*
X100126377Y-46336985D01*
X100150957Y-46251668D01*
X100214090Y-46032526D01*
X100218682Y-46019406D01*
X100304339Y-45812611D01*
X100339929Y-45726686D01*
X100345951Y-45714180D01*
X100499227Y-45436850D01*
X100506605Y-45425107D01*
X100689972Y-45166676D01*
X100698619Y-45155834D01*
X100909750Y-44919579D01*
X100919581Y-44909749D01*
X101155834Y-44698619D01*
X101166676Y-44689972D01*
X101425107Y-44506605D01*
X101436850Y-44499227D01*
X101714180Y-44345951D01*
X101726686Y-44339929D01*
X102019406Y-44218682D01*
X102032526Y-44214090D01*
X102336990Y-44126375D01*
X102350537Y-44123283D01*
X102662907Y-44070210D01*
X102676700Y-44068656D01*
X102996528Y-44050695D01*
X103003481Y-44050500D01*
X103016408Y-44050500D01*
X161983592Y-44050500D01*
X161996519Y-44050500D01*
X162003472Y-44050695D01*
G37*
%TD.AperFunction*%
%TA.AperFunction,NonConductor*%
G36*
X135645702Y-89902335D02*
G01*
X135683476Y-89961113D01*
X135687970Y-89984606D01*
X135694244Y-90052310D01*
X135752596Y-90257392D01*
X135752596Y-90257394D01*
X135847632Y-90448253D01*
X135847634Y-90448255D01*
X135976128Y-90618407D01*
X136133698Y-90762052D01*
X136314981Y-90874298D01*
X136513802Y-90951321D01*
X136710613Y-90988111D01*
X136772893Y-91019779D01*
X136808166Y-91080092D01*
X136805232Y-91149900D01*
X136765023Y-91207040D01*
X136710613Y-91231888D01*
X136513802Y-91268679D01*
X136513799Y-91268679D01*
X136513799Y-91268680D01*
X136314982Y-91345701D01*
X136314980Y-91345702D01*
X136133699Y-91457947D01*
X135976127Y-91601593D01*
X135847632Y-91771746D01*
X135752596Y-91962605D01*
X135752596Y-91962607D01*
X135694244Y-92167689D01*
X135683471Y-92283951D01*
X135657685Y-92348888D01*
X135613130Y-92380804D01*
X135649503Y-92401668D01*
X135681693Y-92463681D01*
X135683471Y-92476048D01*
X135694244Y-92592310D01*
X135752596Y-92797392D01*
X135752596Y-92797394D01*
X135847632Y-92988253D01*
X135847634Y-92988255D01*
X135976128Y-93158407D01*
X136133698Y-93302052D01*
X136314981Y-93414298D01*
X136513802Y-93491321D01*
X136710613Y-93528111D01*
X136772893Y-93559779D01*
X136808166Y-93620092D01*
X136805232Y-93689900D01*
X136765023Y-93747040D01*
X136710613Y-93771888D01*
X136513802Y-93808679D01*
X136513799Y-93808679D01*
X136513799Y-93808680D01*
X136314982Y-93885701D01*
X136314980Y-93885702D01*
X136133699Y-93997947D01*
X135976127Y-94141593D01*
X135847632Y-94311746D01*
X135752596Y-94502605D01*
X135752596Y-94502607D01*
X135694244Y-94707689D01*
X135687970Y-94775394D01*
X135662183Y-94840331D01*
X135605383Y-94881018D01*
X135535602Y-94884538D01*
X135474995Y-94849772D01*
X135442806Y-94787759D01*
X135440499Y-94763952D01*
X135440499Y-94025143D01*
X135440499Y-94025136D01*
X135440497Y-94025117D01*
X135437586Y-94000012D01*
X135437585Y-94000010D01*
X135437585Y-94000009D01*
X135392206Y-93897235D01*
X135312765Y-93817794D01*
X135292124Y-93808680D01*
X135209992Y-93772415D01*
X135184868Y-93769500D01*
X134456243Y-93769500D01*
X134389204Y-93749815D01*
X134343449Y-93697011D01*
X134333505Y-93627853D01*
X134362530Y-93564297D01*
X134421308Y-93526523D01*
X134433441Y-93523614D01*
X134606198Y-93491321D01*
X134805019Y-93414298D01*
X134986302Y-93302052D01*
X135143872Y-93158407D01*
X135272366Y-92988255D01*
X135367405Y-92797389D01*
X135425756Y-92592310D01*
X135436529Y-92476047D01*
X135462315Y-92411111D01*
X135506869Y-92379194D01*
X135470497Y-92358331D01*
X135438307Y-92296318D01*
X135436529Y-92283951D01*
X135435849Y-92276613D01*
X135425756Y-92167690D01*
X135367405Y-91962611D01*
X135367403Y-91962606D01*
X135367403Y-91962605D01*
X135272367Y-91771746D01*
X135143872Y-91601593D01*
X134986302Y-91457948D01*
X134805019Y-91345702D01*
X134805017Y-91345701D01*
X134705608Y-91307190D01*
X134606198Y-91268679D01*
X134433456Y-91236387D01*
X134371176Y-91204719D01*
X134335903Y-91144407D01*
X134338837Y-91074599D01*
X134379046Y-91017459D01*
X134443764Y-90991128D01*
X134456233Y-90990499D01*
X135184864Y-90990499D01*
X135184879Y-90990497D01*
X135184882Y-90990497D01*
X135209987Y-90987586D01*
X135209988Y-90987585D01*
X135209991Y-90987585D01*
X135312765Y-90942206D01*
X135392206Y-90862765D01*
X135437585Y-90759991D01*
X135440500Y-90734865D01*
X135440499Y-89996046D01*
X135460183Y-89929009D01*
X135512987Y-89883254D01*
X135582146Y-89873310D01*
X135645702Y-89902335D01*
G37*
%TD.AperFunction*%
%TA.AperFunction,NonConductor*%
G36*
X120405702Y-89902335D02*
G01*
X120443476Y-89961113D01*
X120447970Y-89984606D01*
X120454244Y-90052310D01*
X120512596Y-90257392D01*
X120512596Y-90257394D01*
X120607632Y-90448253D01*
X120607634Y-90448255D01*
X120736128Y-90618407D01*
X120893698Y-90762052D01*
X121074981Y-90874298D01*
X121273802Y-90951321D01*
X121470613Y-90988111D01*
X121532893Y-91019779D01*
X121568166Y-91080092D01*
X121565232Y-91149900D01*
X121525023Y-91207040D01*
X121470613Y-91231888D01*
X121273802Y-91268679D01*
X121273799Y-91268679D01*
X121273799Y-91268680D01*
X121074982Y-91345701D01*
X121074980Y-91345702D01*
X120893699Y-91457947D01*
X120736127Y-91601593D01*
X120607632Y-91771746D01*
X120512596Y-91962605D01*
X120512596Y-91962607D01*
X120454244Y-92167689D01*
X120443471Y-92283951D01*
X120417685Y-92348888D01*
X120373130Y-92380804D01*
X120409503Y-92401668D01*
X120441693Y-92463681D01*
X120443471Y-92476048D01*
X120454244Y-92592310D01*
X120512596Y-92797392D01*
X120512596Y-92797394D01*
X120607632Y-92988253D01*
X120607634Y-92988255D01*
X120736128Y-93158407D01*
X120893698Y-93302052D01*
X121074981Y-93414298D01*
X121273802Y-93491321D01*
X121470613Y-93528111D01*
X121532893Y-93559779D01*
X121568166Y-93620092D01*
X121565232Y-93689900D01*
X121525023Y-93747040D01*
X121470613Y-93771888D01*
X121273802Y-93808679D01*
X121273799Y-93808679D01*
X121273799Y-93808680D01*
X121074982Y-93885701D01*
X121074980Y-93885702D01*
X120893699Y-93997947D01*
X120736127Y-94141593D01*
X120607632Y-94311746D01*
X120512596Y-94502605D01*
X120512596Y-94502607D01*
X120454244Y-94707689D01*
X120447970Y-94775394D01*
X120422183Y-94840331D01*
X120365383Y-94881018D01*
X120295602Y-94884538D01*
X120234995Y-94849772D01*
X120202806Y-94787759D01*
X120200499Y-94763952D01*
X120200499Y-94025143D01*
X120200499Y-94025136D01*
X120200497Y-94025117D01*
X120197586Y-94000012D01*
X120197585Y-94000010D01*
X120197585Y-94000009D01*
X120152206Y-93897235D01*
X120072765Y-93817794D01*
X120052124Y-93808680D01*
X119969992Y-93772415D01*
X119944868Y-93769500D01*
X119216243Y-93769500D01*
X119149204Y-93749815D01*
X119103449Y-93697011D01*
X119093505Y-93627853D01*
X119122530Y-93564297D01*
X119181308Y-93526523D01*
X119193441Y-93523614D01*
X119366198Y-93491321D01*
X119565019Y-93414298D01*
X119746302Y-93302052D01*
X119903872Y-93158407D01*
X120032366Y-92988255D01*
X120127405Y-92797389D01*
X120185756Y-92592310D01*
X120196529Y-92476047D01*
X120222315Y-92411111D01*
X120266869Y-92379194D01*
X120230497Y-92358331D01*
X120198307Y-92296318D01*
X120196529Y-92283951D01*
X120195849Y-92276613D01*
X120185756Y-92167690D01*
X120127405Y-91962611D01*
X120127403Y-91962606D01*
X120127403Y-91962605D01*
X120032367Y-91771746D01*
X119903872Y-91601593D01*
X119746302Y-91457948D01*
X119565019Y-91345702D01*
X119565017Y-91345701D01*
X119465608Y-91307190D01*
X119366198Y-91268679D01*
X119193456Y-91236387D01*
X119131176Y-91204719D01*
X119095903Y-91144407D01*
X119098837Y-91074599D01*
X119139046Y-91017459D01*
X119203764Y-90991128D01*
X119216233Y-90990499D01*
X119944864Y-90990499D01*
X119944879Y-90990497D01*
X119944882Y-90990497D01*
X119969987Y-90987586D01*
X119969988Y-90987585D01*
X119969991Y-90987585D01*
X120072765Y-90942206D01*
X120152206Y-90862765D01*
X120197585Y-90759991D01*
X120200500Y-90734865D01*
X120200499Y-89996046D01*
X120220183Y-89929009D01*
X120272987Y-89883254D01*
X120342146Y-89873310D01*
X120405702Y-89902335D01*
G37*
%TD.AperFunction*%
D16*
X162000000Y-44000000D02*
G75*
G02*
X165000000Y-47000000I0J-3000000D01*
G01*
X165000000Y-97000000D02*
X165000000Y-47000000D01*
X100000000Y-47000000D02*
X100000000Y-63000000D01*
X100000000Y-63000000D02*
X100000000Y-81000000D01*
X103000000Y-100000000D02*
G75*
G02*
X100000000Y-97000000I0J3000000D01*
G01*
X103000000Y-100000000D02*
X162000000Y-100000000D01*
X165000000Y-97000000D02*
G75*
G02*
X162000000Y-100000000I-3000000J0D01*
G01*
X100000000Y-47000000D02*
G75*
G02*
X103000000Y-44000000I3000000J0D01*
G01*
X100000000Y-81000000D02*
X100000000Y-97000000D01*
X162000000Y-44000000D02*
X103000000Y-44000000D01*
M02*
